<svg width="56" height="46" viewBox="0 0 56 46" fill="none" xmlns="http://www.w3.org/2000/svg">
<path d="M15 32.6C15 33.8783 15.5078 35.1043 16.4117 36.0083C17.3157 36.9122 18.5417 37.42 19.82 37.42H25.56C24.1403 38.2065 22.9569 39.3584 22.1322 40.7562C21.3076 42.1541 20.8718 43.747 20.87 45.37C20.87 45.5212 20.9301 45.6662 21.0369 45.7731C21.1438 45.8799 21.2888 45.94 21.44 45.94C21.5912 45.94 21.7362 45.8799 21.8431 45.7731C21.9499 45.6662 22.01 45.5212 22.01 45.37C22.0231 43.2673 22.8635 41.2543 24.3494 39.7665C25.8354 38.2787 27.8473 37.4357 29.95 37.42H33.69C33.8412 37.42 33.9862 37.3599 34.0931 37.2531C34.1999 37.1462 34.26 37.0012 34.26 36.85C34.26 36.6988 34.1999 36.5538 34.0931 36.4469C33.9862 36.3401 33.8412 36.28 33.69 36.28H19.82C19.3199 36.3061 18.8198 36.2301 18.35 36.0566C17.8803 35.8832 17.4507 35.616 17.0875 35.2713C16.7244 34.9265 16.4352 34.5115 16.2375 34.0514C16.0399 33.5913 15.938 33.0957 15.938 32.595C15.938 32.0943 16.0399 31.5987 16.2375 31.1386C16.4352 30.6785 16.7244 30.2635 17.0875 29.9187C17.4507 29.574 17.8803 29.3068 18.35 29.1334C18.8198 28.9599 19.3199 28.8839 19.82 28.91H33.69C33.8412 28.91 33.9862 28.8499 34.0931 28.7431C34.1999 28.6362 34.26 28.4912 34.26 28.34C34.26 28.1888 34.1999 28.0438 34.0931 27.9369C33.9862 27.8301 33.8412 27.77 33.69 27.77H19.82C18.8414 27.77 17.9028 27.3812 17.2108 26.6892C16.5188 25.9972 16.13 25.0587 16.13 24.08C16.13 23.1014 16.5188 22.1628 17.2108 21.4708C17.9028 20.7788 18.8414 20.39 19.82 20.39H23.56C24.8375 20.3874 26.062 19.8787 26.9653 18.9753C27.8687 18.072 28.3774 16.8475 28.38 15.57C28.3774 15.4196 28.3166 15.2761 28.2102 15.1698C28.1039 15.0634 27.9604 15.0026 27.81 15C27.6588 15 27.5138 15.0601 27.4069 15.1669C27.3001 15.2738 27.24 15.4188 27.24 15.57C27.244 16.0563 27.1518 16.5385 26.9687 16.989C26.7857 17.4395 26.5154 17.8494 26.1734 18.1951C25.8314 18.5408 25.4245 18.8155 24.976 19.0034C24.5275 19.1913 24.0463 19.2887 23.56 19.29H19.83C18.7746 19.3124 17.7561 19.6821 16.932 20.3418C16.1079 21.0015 15.5243 21.9145 15.2715 22.9394C15.0187 23.9643 15.1108 25.0439 15.5336 26.0112C15.9563 26.9784 16.6861 27.7794 17.61 28.29C16.8272 28.6964 16.1703 29.3089 15.7103 30.0615C15.2503 30.814 15.0047 31.678 15 32.56V32.6Z" fill="#0A9386"/>
<path d="M19.8201 23.5301C19.7396 23.5194 19.6578 23.526 19.58 23.5495C19.5023 23.5729 19.4304 23.6128 19.3693 23.6663C19.3082 23.7198 19.2593 23.7857 19.2257 23.8597C19.1922 23.9336 19.1748 24.0139 19.1748 24.0951C19.1748 24.1763 19.1922 24.2566 19.2257 24.3306C19.2593 24.4045 19.3082 24.4705 19.3693 24.524C19.4304 24.5775 19.5023 24.6173 19.58 24.6408C19.6578 24.6643 19.7396 24.6708 19.8201 24.6601H33.6801C34.6588 24.6601 35.5974 25.0489 36.2894 25.7409C36.9814 26.4329 37.3701 27.3715 37.3701 28.3501C37.3701 29.3288 36.9814 30.2673 36.2894 30.9593C35.5974 31.6513 34.6588 32.0401 33.6801 32.0401H19.8201C19.7449 32.0388 19.6702 32.0526 19.6004 32.0807C19.5306 32.1089 19.4673 32.1508 19.4141 32.204C19.3609 32.2572 19.3189 32.3206 19.2908 32.3904C19.2626 32.4602 19.2488 32.5349 19.2501 32.6101C19.2501 32.7613 19.3102 32.9063 19.4171 33.0132C19.524 33.1201 19.669 33.1801 19.8201 33.1801H33.6901C34.6601 33.1933 35.5859 33.5878 36.2671 34.2784C36.9483 34.969 37.3302 35.9001 37.3301 36.8701C37.3275 37.8453 36.9389 38.7798 36.2494 39.4693C35.5598 40.1589 34.6253 40.5475 33.6501 40.5501H29.9401C28.6617 40.5554 27.4373 41.0663 26.5342 41.9712C25.6311 42.8762 25.1228 44.1017 25.1201 45.3801C25.1201 45.5313 25.1802 45.6763 25.2871 45.7832C25.394 45.8901 25.539 45.9501 25.6901 45.9501C25.8405 45.9475 25.984 45.8867 26.0903 45.7803C26.1967 45.674 26.2576 45.5305 26.2601 45.3801C26.2601 44.4015 26.6489 43.4629 27.3409 42.7709C28.0329 42.0789 28.9715 41.6901 29.9501 41.6901H33.6901C34.7681 41.6914 35.8152 41.3305 36.6635 40.6654C37.5119 40.0004 38.1122 39.0696 38.3682 38.0225C38.6242 36.9754 38.5211 35.8726 38.0753 34.8911C37.6296 33.9097 36.8671 33.1064 35.9101 32.6101C36.8678 32.1135 37.6308 31.3093 38.0764 30.3268C38.522 29.3443 38.6244 28.2406 38.3671 27.1929C38.1098 26.1452 37.5077 25.2144 36.6577 24.5501C35.8076 23.8858 34.7589 23.5266 33.6801 23.5301H27.9501C29.369 22.7452 30.5521 21.5951 31.3768 20.199C32.2014 18.8029 32.6376 17.2116 32.6401 15.5901C32.6415 15.5149 32.6277 15.4402 32.5995 15.3704C32.5713 15.3006 32.5294 15.2372 32.4762 15.184C32.423 15.1308 32.3596 15.0889 32.2899 15.0607C32.2201 15.0326 32.1454 15.0188 32.0701 15.0201C31.919 15.0201 31.774 15.0802 31.6671 15.1871C31.5602 15.294 31.5001 15.4389 31.5001 15.5901C31.4843 17.7014 30.6345 19.7209 29.1359 21.2082C27.6373 22.6956 25.6115 23.5302 23.5001 23.5301H19.8201Z" fill="#0A9386"/>
<path d="M46.9601 27.7001H41.8001C41.7248 27.6987 41.6501 27.7125 41.5803 27.7407C41.5106 27.7688 41.4472 27.8108 41.394 27.864C41.3408 27.9172 41.2989 27.9806 41.2707 28.0503C41.2425 28.1201 41.2287 28.1948 41.2301 28.2701C41.2301 28.4212 41.2901 28.5662 41.397 28.6731C41.5039 28.78 41.6489 28.8401 41.8001 28.8401H46.9601C47.1071 28.8377 47.2478 28.7796 47.3536 28.6775C47.4594 28.5754 47.5225 28.4369 47.5301 28.2901C47.5342 28.2132 47.5225 28.1363 47.4955 28.0642C47.4686 27.992 47.4271 27.9262 47.3736 27.8709C47.3201 27.8155 47.2558 27.7717 47.1846 27.7424C47.1135 27.713 47.037 27.6986 46.9601 27.7001Z" fill="#0A9386"/>
<path d="M40.47 26.1001C40.5537 26.0993 40.6359 26.0788 40.7101 26.0401L45.4 23.8801C45.4682 23.8499 45.5297 23.8064 45.5808 23.7521C45.6319 23.6978 45.6717 23.6339 45.6978 23.564C45.7239 23.4941 45.7357 23.4198 45.7327 23.3453C45.7296 23.2708 45.7117 23.1976 45.68 23.1301C45.6169 22.9942 45.5028 22.8887 45.3625 22.8363C45.2221 22.7839 45.0668 22.7889 44.93 22.8501L40.2301 25.0101C40.0935 25.0752 39.9877 25.1912 39.9354 25.3332C39.8831 25.4751 39.8884 25.6319 39.95 25.7701C39.9979 25.8677 40.0718 25.9501 40.1636 26.0084C40.2553 26.0666 40.3614 26.0983 40.47 26.1001Z" fill="#0A9386"/>
<path d="M40.2301 31.5201L44.9301 33.6801C45.006 33.6952 45.0842 33.6952 45.1601 33.6801C45.2693 33.6807 45.3763 33.6499 45.4685 33.5914C45.5607 33.5329 45.6341 33.4492 45.6801 33.3501C45.7118 33.2826 45.7297 33.2095 45.7327 33.135C45.7358 33.0605 45.7239 32.9861 45.6978 32.9162C45.6717 32.8464 45.632 32.7824 45.5808 32.7282C45.5297 32.6739 45.4683 32.6303 45.4001 32.6001L40.7101 30.4901C40.6418 30.4582 40.568 30.4402 40.4927 30.437C40.4175 30.4339 40.3424 30.4456 40.2717 30.4717C40.201 30.4977 40.1362 30.5375 40.081 30.5887C40.0258 30.6399 39.9813 30.7016 39.9501 30.7701C39.9184 30.8376 39.9005 30.9108 39.8974 30.9853C39.8944 31.0598 39.9063 31.1342 39.9323 31.204C39.9584 31.2739 39.9982 31.3378 40.0493 31.3921C40.1004 31.4464 40.1619 31.4899 40.2301 31.5201Z" fill="#0A9386"/>
<path d="M4.84429 19.77L4.21453 22.29L5.53218 23.19L5.2609 24.19L0 20.49L0.3391 19.16L6.71418 18.52L6.43321 19.64L4.84429 19.77ZM4.04014 19.83L1.07543 20.07V20.13L3.54602 21.82L4.04014 19.83Z" fill="#0A9386"/>
<path d="M1.42419 15.2299L1.80205 14.4399L7.49893 17.3599L7.12108 18.1399L1.42419 15.2299Z" fill="#0A9386"/>
<path d="M9.07828 14.47C9.05206 14.7337 8.96574 14.9873 8.82638 15.21C8.75673 15.3529 8.65694 15.4778 8.53434 15.5756C8.41174 15.6735 8.26945 15.7417 8.11794 15.7752C7.96644 15.8088 7.80956 15.8069 7.65886 15.7697C7.50817 15.7324 7.36747 15.6608 7.24714 15.56L5.30942 14.23L4.96064 14.78L4.45683 14.21L4.70873 13.82L3.44922 13L3.87552 12.25L5.10596 13.08L5.56133 12.38L6.16202 12.79L5.71635 13.5L7.65406 14.81C7.69956 14.8506 7.75323 14.8804 7.8112 14.897C7.86917 14.9137 7.92999 14.9169 7.9893 14.9064C8.04861 14.8958 8.10491 14.8719 8.15417 14.8362C8.20342 14.8005 8.24439 14.754 8.27413 14.7C8.35348 14.5849 8.41251 14.4563 8.44852 14.32L9.07828 14.47Z" fill="#0A9386"/>
<path d="M9.45609 9.68997L11.607 11.69L11.1225 12.23L10.6575 12C10.69 12.5428 10.5162 13.0773 10.173 13.49C10.076 13.6179 9.95328 13.7227 9.81339 13.7972C9.6735 13.8717 9.51968 13.9142 9.36243 13.9218C9.20518 13.9294 9.04819 13.9019 8.90217 13.8412C8.75615 13.7805 8.62454 13.688 8.5163 13.57C7.77028 12.87 7.98343 11.8 9.06855 10.57L8.79727 10.31C8.52599 10.06 8.19658 10.09 7.82841 10.49C7.52094 10.8619 7.29607 11.2988 7.16959 11.77L6.59796 11.5C6.74347 10.9059 7.02601 10.357 7.42149 9.89997C7.52561 9.72654 7.66699 9.58016 7.83469 9.47215C8.00239 9.36415 8.19192 9.29741 8.38862 9.27711C8.58531 9.25681 8.78389 9.28348 8.96899 9.35508C9.1541 9.42667 9.32076 9.54126 9.45609 9.68997ZM9.95021 12.74C10.1835 12.4366 10.3038 12.057 10.2893 11.67L9.48516 10.91C8.77789 11.71 8.62287 12.38 9.05886 12.79C9.11772 12.8527 9.18896 12.9017 9.26776 12.9336C9.34656 12.9655 9.43107 12.9796 9.51558 12.9748C9.6001 12.9701 9.68264 12.9467 9.75762 12.9061C9.8326 12.8656 9.89828 12.809 9.95021 12.74Z" fill="#0A9386"/>
<path d="M13.3121 2.37988L16.7031 7.93988L16.1121 8.31988L15.7343 7.89988C15.7254 8.16104 15.6522 8.41557 15.5217 8.63949C15.3912 8.86342 15.2076 9.04938 14.9882 9.17988C14.0969 9.75988 13.1474 9.38988 12.4208 8.17988C11.6941 6.96988 11.7716 5.92988 12.6824 5.33988C12.8715 5.21085 13.0846 5.12378 13.3081 5.08419C13.5316 5.0446 13.7606 5.05335 13.9806 5.10988L12.5952 2.84988L13.3121 2.37988ZM15.3952 7.44988L14.3585 5.73988C14.1801 5.67672 13.9905 5.65473 13.803 5.67546C13.6155 5.69619 13.4347 5.75915 13.2734 5.85988C12.7211 6.21988 12.6727 6.85988 13.1571 7.69988C13.6415 8.53988 14.2907 8.69988 14.8332 8.38988C14.9894 8.28699 15.1211 8.149 15.2184 7.98624C15.3157 7.82347 15.3761 7.64013 15.3952 7.44988Z" fill="#0A9386"/>
<path d="M15.5016 2.69007C15.4665 2.62719 15.4457 2.55692 15.4407 2.48454C15.4357 2.41215 15.4467 2.33954 15.4728 2.27216C15.4989 2.20479 15.5395 2.1444 15.5914 2.09554C15.6434 2.04668 15.7055 2.01062 15.7729 1.99007C15.8315 1.95141 15.8978 1.9271 15.9669 1.91901C16.036 1.91092 16.1059 1.91926 16.1714 1.9434C16.2369 1.96753 16.2961 2.00682 16.3446 2.05824C16.3931 2.10966 16.4295 2.17186 16.4511 2.24007C16.4863 2.30218 16.5072 2.37179 16.5121 2.44355C16.5171 2.5153 16.5061 2.58728 16.4799 2.65394C16.4537 2.7206 16.413 2.78016 16.361 2.82804C16.309 2.87591 16.247 2.91082 16.1798 2.93007C16.1219 2.96891 16.0562 2.99363 15.9876 3.00237C15.919 3.0111 15.8494 3.00363 15.7841 2.9805C15.7188 2.95738 15.6594 2.91921 15.6104 2.8689C15.5615 2.81858 15.5243 2.75743 15.5016 2.69007ZM15.9957 3.60007L16.7805 3.24007L18.4857 7.14007L17.7106 7.50007L15.9957 3.60007Z" fill="#0A9386"/>
<path d="M22.9523 6.00003C23.2527 6.90003 22.652 7.56003 21.3149 8.00003C19.9779 8.44003 19.3288 8.18003 19.106 7.43003C19.0241 7.15458 19.0418 6.85783 19.1558 6.59485C19.2699 6.33187 19.4725 6.12052 19.726 6.00003C19.6187 5.99883 19.5147 5.96086 19.4306 5.89208C19.3464 5.8233 19.2867 5.7276 19.261 5.62003C19.2477 5.49665 19.2701 5.37199 19.3252 5.26169C19.3804 5.15138 19.4659 5.06035 19.571 5.00003C19.3163 4.96112 19.0784 4.84547 18.887 4.66758C18.6957 4.48968 18.5596 4.25747 18.4956 4.00003C18.234 3.10003 18.6797 2.39003 19.6776 2.08003C20.0798 1.93981 20.5155 1.93981 20.9177 2.08003L21.4893 1.53003L21.8188 2.08003L21.3149 2.31003C21.4715 2.49019 21.5844 2.7061 21.6444 2.94003C21.906 3.84003 21.4797 4.55003 20.4624 4.86003L20.2492 4.92003C19.9876 5.00003 19.881 5.13003 19.9198 5.27003C19.9585 5.41003 20.2201 5.43003 20.8887 5.27003C21.8091 5.09003 22.6907 5.12003 22.9523 6.00003ZM19.2707 3.66003C19.2935 3.77815 19.3414 3.88962 19.4107 3.9865C19.4801 4.08339 19.5692 4.16331 19.6719 4.22059C19.7746 4.27787 19.8882 4.3111 20.0047 4.31792C20.1213 4.32473 20.2378 4.30497 20.3461 4.26003C20.4605 4.23641 20.5685 4.18705 20.6624 4.11547C20.7563 4.04389 20.8337 3.95184 20.8892 3.84587C20.9447 3.7399 20.9769 3.62262 20.9835 3.50235C20.9901 3.38208 20.9709 3.26179 20.9274 3.15003C20.9078 3.03005 20.862 2.91626 20.7935 2.81731C20.7249 2.71836 20.6353 2.63685 20.5316 2.579C20.4279 2.52115 20.3128 2.48847 20.195 2.48345C20.0773 2.47843 19.9599 2.5012 19.852 2.55003C19.7341 2.57119 19.6226 2.61986 19.5258 2.69233C19.4289 2.7648 19.3495 2.85916 19.2934 2.96818C19.2373 3.0772 19.2061 3.19802 19.2021 3.32139C19.1982 3.44476 19.2216 3.56743 19.2707 3.68003V3.66003ZM22.1772 6.33003C22.0319 5.85003 21.3925 6.00003 20.4042 6.10003C19.9004 6.31003 19.6873 6.65003 19.7842 6.98003C19.881 7.31003 20.472 7.51003 21.2665 7.26003C22.061 7.01003 22.2838 6.73003 22.1772 6.35003V6.33003Z" fill="#0A9386"/>
<path d="M22.9618 3.43011C22.8262 2.00011 23.456 1.11011 24.6476 1.00011C25.8393 0.890115 26.4207 1.55011 26.5854 2.85011C26.5913 2.97004 26.5913 3.09019 26.5854 3.21011L23.8629 3.50011C23.9598 4.39011 24.4442 4.79011 25.1999 4.71011C25.6908 4.66654 26.1492 4.43886 26.4885 4.07011L26.6532 4.77011C26.2482 5.19217 25.7066 5.44501 25.1321 5.48011C23.8919 5.59012 23.1072 4.86011 22.9618 3.43011ZM25.6553 2.72011C25.5874 2.03011 25.258 1.67011 24.6864 1.72011C24.5495 1.73021 24.4163 1.7702 24.2955 1.83744C24.1748 1.90467 24.0692 1.99762 23.9859 2.11012C23.9025 2.22262 23.8432 2.35212 23.812 2.49003C23.7808 2.62795 23.7783 2.77114 23.8047 2.91011L25.6553 2.72011Z" fill="#0A9386"/>
<path d="M27.2927 4.90014L27.4186 4.13014C27.8763 4.43861 28.3969 4.63369 28.9397 4.70014C29.4048 4.70014 29.7051 4.59014 29.7342 4.22014C29.7633 3.85014 29.3176 3.64014 28.8235 3.44014C28.3293 3.24014 27.4961 2.86014 27.5639 2.06014C27.6318 1.26014 28.3003 0.87014 29.1238 0.94014C29.6161 0.990447 30.0954 1.13276 30.5383 1.36014L30.4221 2.08014C30.0256 1.85369 29.592 1.70454 29.1432 1.64014C28.7459 1.64014 28.4359 1.77014 28.4165 2.08014C28.3972 2.39014 28.7847 2.58014 29.2401 2.76014C29.8795 3.00014 30.6062 3.35014 30.548 4.21014C30.4899 5.07014 29.7729 5.51014 28.7847 5.43014C28.2504 5.39437 27.7351 5.21134 27.2927 4.90014Z" fill="#0A9386"/>
<path d="M33.2318 6C32.9832 6.05973 32.7247 6.05973 32.4761 6C32.3215 5.9841 32.1724 5.93257 32.0398 5.84922C31.9071 5.76586 31.7943 5.65281 31.7097 5.51841C31.625 5.38402 31.5707 5.23171 31.5508 5.07275C31.5308 4.91378 31.5457 4.75222 31.5944 4.6L32.0982 2.23L31.4781 2.09L31.8076 1.4L32.2532 1.51L32.573 0L33.4062 0.19L33.0865 1.68L33.8906 1.86L33.7356 2.59L32.9411 2.41L32.447 4.73C32.4243 4.78755 32.4146 4.84966 32.4186 4.91165C32.4226 4.97363 32.4402 5.03387 32.4701 5.0878C32.5 5.14174 32.5413 5.18797 32.591 5.223C32.6407 5.25802 32.6975 5.28094 32.757 5.29C32.8907 5.3239 33.0303 5.3239 33.164 5.29L33.2318 6Z" fill="#0A9386"/>
<path d="M35.1113 2.24006L35.9251 2.51006L34.6462 6.58006L33.8324 6.31006L35.1113 2.24006ZM35.3438 1.24006C35.3574 1.16918 35.3866 1.10248 35.4292 1.04515C35.4717 0.987807 35.5266 0.941374 35.5894 0.909452C35.6521 0.87753 35.7212 0.860979 35.7912 0.861084C35.8612 0.86119 35.9303 0.877949 35.993 0.91006C36.0622 0.921302 36.1278 0.949232 36.1847 0.991583C36.2415 1.03393 36.2878 1.08951 36.3199 1.15381C36.352 1.2181 36.3689 1.2893 36.3693 1.36163C36.3698 1.43395 36.3537 1.50536 36.3224 1.57006C36.3089 1.63975 36.28 1.70528 36.2379 1.7615C36.1958 1.81773 36.1417 1.86312 36.0797 1.89412C36.0178 1.92513 35.9497 1.94089 35.8808 1.94019C35.812 1.93948 35.7443 1.92232 35.6829 1.89006C35.6115 1.88079 35.5433 1.85381 35.4842 1.81141C35.4251 1.76902 35.3768 1.71249 35.3435 1.64664C35.3102 1.5808 35.2928 1.5076 35.2929 1.43331C35.2929 1.35902 35.3104 1.28585 35.3438 1.22006V1.24006Z" fill="#0A9386"/>
<path d="M39.9752 6.64C39.3938 7.93 38.4734 8.4 37.5336 7.94C37.3017 7.8354 37.0987 7.6727 36.943 7.46665C36.7874 7.26059 36.684 7.01771 36.6423 6.76L36.3226 7.23L35.6928 6.92L38.4153 1L39.1904 1.37L38.0762 3.79C38.2892 3.70823 38.5163 3.67312 38.7432 3.68689C38.97 3.70066 39.1916 3.76302 39.3938 3.87C40.3627 4.34 40.5565 5.38 39.9752 6.64ZM39.1807 6.26C39.5779 5.4 39.4617 4.73 38.861 4.44C38.6923 4.35365 38.5067 4.30872 38.3184 4.30872C38.1302 4.30872 37.9445 4.35365 37.7759 4.44L36.9426 6.26C36.9816 6.44837 37.0622 6.62491 37.1782 6.77582C37.2941 6.92674 37.4423 7.04795 37.6111 7.13C38.2118 7.43 38.7544 7.13 39.1807 6.26Z" fill="#0A9386"/>
<path d="M42.0097 5.48012L42.7364 5.96012L40.4983 9.57012L39.7717 9.09012L42.0097 5.48012ZM42.4845 4.55012C42.5161 4.48514 42.5616 4.42843 42.6176 4.38427C42.6736 4.34011 42.7386 4.30966 42.8076 4.29521C42.8767 4.28076 42.948 4.2827 43.0162 4.30087C43.0844 4.31905 43.1478 4.35298 43.2014 4.40012C43.2636 4.43212 43.318 4.47807 43.3606 4.53461C43.4033 4.59115 43.4332 4.65684 43.4481 4.72685C43.4629 4.79687 43.4624 4.86943 43.4466 4.93921C43.4307 5.00899 43.3999 5.07422 43.3564 5.13012C43.3271 5.19469 43.2835 5.25132 43.2293 5.29554C43.1751 5.33975 43.1116 5.37035 43.0439 5.3849C42.9763 5.39945 42.9063 5.39755 42.8394 5.37937C42.7726 5.36118 42.7108 5.3272 42.6589 5.28012C42.5952 5.25003 42.5389 5.20549 42.4942 5.14981C42.4496 5.09414 42.4177 5.02876 42.4009 4.95858C42.3841 4.88839 42.3829 4.81521 42.3974 4.74448C42.4119 4.67375 42.4416 4.60731 42.4845 4.55012Z" fill="#0A9386"/>
<path d="M45.3135 5L45.9917 5.54L42.1163 10.77L41.438 10.24L45.3135 5Z" fill="#0A9386"/>
<path d="M45.7881 8.34999L46.4275 8.93999L43.6566 12.13L43.0172 11.54L45.7881 8.34999ZM46.3985 7.51999C46.4419 7.46188 46.4977 7.41483 46.5615 7.38246C46.6253 7.35009 46.6955 7.33325 46.7666 7.33325C46.8377 7.33325 46.9079 7.35009 46.9717 7.38246C47.0356 7.41483 47.0913 7.46188 47.1348 7.51999C47.1892 7.56396 47.2332 7.62012 47.2634 7.68423C47.2936 7.74833 47.3094 7.81869 47.3094 7.88999C47.3094 7.96129 47.2936 8.03166 47.2634 8.09576C47.2332 8.15987 47.1892 8.21603 47.1348 8.25999C47.0934 8.31789 47.0393 8.36494 46.9771 8.39737C46.9148 8.42979 46.8461 8.44668 46.7763 8.44668C46.7066 8.44668 46.6378 8.42979 46.5756 8.39737C46.5133 8.36494 46.4593 8.31789 46.4178 8.25999C46.3623 8.21756 46.3168 8.16264 46.2849 8.09938C46.2529 8.03611 46.2354 7.96618 46.2335 7.89487C46.2316 7.82356 46.2455 7.75274 46.2741 7.68779C46.3027 7.62284 46.3452 7.56546 46.3985 7.51999Z" fill="#0A9386"/>
<path d="M51.6014 11.4398L46.7571 15.6398L46.3018 15.0898L46.6699 14.6498C46.416 14.6753 46.1601 14.6335 45.9261 14.5285C45.6922 14.4236 45.4881 14.2588 45.3329 14.0498C44.6644 13.2098 44.8969 12.1998 45.9336 11.2998C46.9703 10.3998 48.0069 10.2998 48.6948 11.1898C48.8436 11.365 48.9557 11.57 49.0241 11.792C49.0924 12.014 49.1156 12.2482 49.0921 12.4798L51.0976 10.7598L51.6014 11.4398ZM47.009 14.2398L48.5108 12.9998C48.5481 12.8102 48.545 12.6144 48.5015 12.4261C48.4579 12.2379 48.3752 12.0617 48.2589 11.9098C47.8422 11.3898 47.1737 11.4398 46.4762 12.0398C45.7786 12.6398 45.6333 13.3298 46.0402 13.8398C46.1621 13.9774 46.3126 14.0848 46.4803 14.1541C46.6481 14.2233 46.8288 14.2527 47.009 14.2398Z" fill="#0A9386"/>
<path d="M51.2527 17.91L48.6658 19.31L48.3364 18.65L48.753 18.34C48.5004 18.2624 48.2652 18.134 48.0607 17.9625C47.8563 17.7909 47.6865 17.5794 47.5613 17.34C47.4788 17.2023 47.426 17.0478 47.4064 16.8871C47.3868 16.7264 47.4009 16.5632 47.4478 16.4086C47.4946 16.254 47.5731 16.1116 47.678 15.9911C47.7828 15.8706 47.9115 15.7747 48.0554 15.71C48.9468 15.23 49.8478 15.8 50.5938 17.26L50.9135 17.09C51.243 16.91 51.3205 16.59 51.0783 16.09C50.8404 15.6577 50.5088 15.288 50.1094 15.01L50.5551 14.55C51.0463 14.8939 51.4514 15.3531 51.7371 15.89C51.8534 16.0492 51.9339 16.2331 51.9726 16.4285C52.0114 16.6238 52.0074 16.8256 51.961 17.0191C51.9146 17.2127 51.8269 17.3931 51.7043 17.5472C51.5818 17.7013 51.4275 17.8253 51.2527 17.91ZM48.3461 17.35C48.5402 17.6828 48.8477 17.9289 49.2084 18.04L50.1772 17.52C49.6928 16.57 49.1309 16.19 48.6174 16.46C48.5346 16.4901 48.4594 16.5388 48.3971 16.6027C48.3349 16.6665 48.2872 16.7438 48.2575 16.829C48.2278 16.9142 48.2169 17.0052 48.2255 17.0953C48.2341 17.1855 48.2621 17.2725 48.3073 17.35H48.3461Z" fill="#0A9386"/>
<path d="M56 22.0899L49.8187 23.6299L49.654 22.9299L50.1675 22.6999C49.9244 22.6123 49.7074 22.4613 49.5377 22.2616C49.3679 22.0618 49.2511 21.8201 49.1986 21.5599C48.9467 20.4999 49.5958 19.6899 50.9135 19.3599C52.2311 19.0299 53.1806 19.4399 53.4325 20.5199C53.4927 20.7449 53.5066 20.9803 53.4732 21.2111C53.4398 21.4419 53.36 21.663 53.2388 21.8599L55.7675 21.2299L56 22.0899ZM50.681 22.5099L52.6187 22.0399C52.7353 21.8864 52.8175 21.7082 52.8594 21.518C52.9012 21.3278 52.9018 21.1304 52.8609 20.9399C52.7059 20.2799 52.0858 20.0199 51.2041 20.2399C50.3225 20.4599 49.8962 21.0199 50.0415 21.6599C50.0813 21.8413 50.1592 22.0114 50.2697 22.1583C50.3802 22.3052 50.5206 22.4252 50.681 22.5099Z" fill="#0A9386"/>
</svg>
