<svg width="35" height="54" viewBox="0 0 35 54" fill="none" xmlns="http://www.w3.org/2000/svg">
<g clip-path="url(#clip0_2646_6932)">
<path d="M33.07 14.8401C32.9568 14.802 32.8345 14.7998 32.7199 14.8338C32.6054 14.8678 32.5041 14.9364 32.43 15.0301C32.43 15.0301 30.66 17.1301 25.25 18.8101C23.7451 19.2459 22.3752 20.0559 21.2682 21.1646C20.1613 22.2733 19.3534 23.6445 18.92 25.1501C18.7166 25.7985 18.6446 26.4809 18.7081 27.1574C18.7717 27.8339 18.9695 28.491 19.29 29.0901C18.316 30.3444 17.6329 31.7995 17.29 33.3501C17.0422 32.9348 16.7613 32.5402 16.45 32.1701C16.8349 31.4729 17.0741 30.7048 17.1532 29.9123C17.2322 29.1199 17.1495 28.3196 16.91 27.5601C16.4057 25.8018 15.4631 24.2003 14.1705 22.906C12.8779 21.6116 11.2777 20.6668 9.52001 20.1601C3.12001 18.1601 1.05001 15.6801 1.03001 15.6601C0.954285 15.5655 0.851277 15.4966 0.734985 15.4626C0.618693 15.4286 0.494754 15.4312 0.380011 15.4701C0.270837 15.5102 0.176229 15.5821 0.108466 15.6766C0.0407035 15.7712 0.00291677 15.8839 1.08862e-05 16.0001C1.08862e-05 16.4201 -0.329989 26.4301 3.08001 30.7301C3.94907 31.91 5.05746 32.8932 6.33265 33.6152C7.60785 34.3372 9.02112 34.7819 10.48 34.9201H10.85C12.6369 34.9269 14.3597 34.255 15.67 33.0401C16.9196 34.8181 17.7035 36.881 17.95 39.0401C17.9648 39.1869 18.0331 39.3231 18.1419 39.4228C18.2508 39.5224 18.3925 39.5784 18.54 39.5801H18.6C18.6772 39.5731 18.7523 39.5509 18.8209 39.5149C18.8895 39.4789 18.9504 39.4297 19 39.3701C19.0497 39.311 19.0868 39.2424 19.1092 39.1685C19.1315 39.0945 19.1386 39.0169 19.13 38.9401C18.9781 37.6292 18.6623 36.3424 18.19 35.1101C18.2003 35.0573 18.2003 35.003 18.19 34.9501C18.3903 33.1561 19.0291 31.4389 20.05 29.9501C21.1688 30.9604 22.6226 31.5198 24.13 31.5201H24.45C25.7051 31.4195 26.9245 31.0537 28.0277 30.4469C29.131 29.8401 30.0929 29.0062 30.85 28.0001C33.77 24.3201 33.5 15.7901 33.49 15.4301C33.4874 15.3046 33.4455 15.183 33.3701 15.0825C33.2948 14.9821 33.1898 14.9078 33.07 14.8701V14.8401ZM10.56 33.7501C9.26341 33.6251 8.00813 33.2261 6.87725 32.5797C5.74637 31.9332 4.76566 31.054 4.00001 30.0001C1.55001 26.9101 1.20001 20.2201 1.16001 17.3701C3.56527 19.1492 6.27696 20.4711 9.16001 21.2701C10.7251 21.7141 12.1513 22.5493 13.3043 23.697C14.4572 24.8447 15.2989 26.2671 15.75 27.8301C16.1018 28.965 16.038 30.188 15.57 31.2801C14.9327 30.7325 14.1862 30.3269 13.38 30.0901C11.92 27.7301 11.99 26.7601 12.18 26.3801C12.2396 26.2291 12.2396 26.0611 12.18 25.9101C12.1549 25.8337 12.1145 25.7633 12.0612 25.7031C12.0079 25.6429 11.9428 25.5943 11.87 25.5601C11.7979 25.5267 11.7198 25.508 11.6404 25.505C11.5609 25.502 11.4817 25.5149 11.4073 25.5428C11.3328 25.5707 11.2647 25.6131 11.2068 25.6676C11.1489 25.7221 11.1024 25.7875 11.07 25.8601C10.64 26.7401 10.84 27.9701 11.69 29.6001C10.4454 29.2239 9.30865 28.5557 8.37456 27.6512C7.44047 26.7467 6.73606 25.632 6.32001 24.4001C6.21001 24.1301 6.10001 23.8701 5.99001 23.6401C5.95809 23.5664 5.91147 23.5001 5.85301 23.4451C5.79455 23.39 5.72547 23.3475 5.65001 23.3201C5.50255 23.2601 5.33747 23.2601 5.19001 23.3201C5.11722 23.3543 5.05217 23.4029 4.99886 23.4631C4.94555 23.5233 4.90511 23.5937 4.88001 23.6701C4.84805 23.7426 4.83155 23.8209 4.83155 23.9001C4.83155 23.9793 4.84805 24.0576 4.88001 24.1301C4.99001 24.3501 5.09001 24.5901 5.19001 24.8501C6.03001 26.8501 7.29001 29.7901 12.77 31.1501C13.4862 31.3266 14.1508 31.6692 14.71 32.1501C14.1346 32.686 13.4577 33.1011 12.7191 33.3707C11.9805 33.6404 11.1953 33.7592 10.41 33.7201L10.56 33.7501ZM29.92 27.2101C29.2804 28.0942 28.4601 28.8322 27.5136 29.3753C26.5672 29.9184 25.5161 30.2541 24.43 30.3601C23.1454 30.429 21.885 29.9909 20.92 29.1401C21.3695 28.7675 21.8952 28.4979 22.46 28.3501C27.16 27.1701 28.23 24.6301 28.95 22.9501L29.21 22.3401C29.2456 22.2708 29.2668 22.195 29.2725 22.1173C29.2781 22.0396 29.268 21.9615 29.2428 21.8878C29.2176 21.814 29.1778 21.7461 29.1258 21.6881C29.0738 21.6301 29.0106 21.5832 28.94 21.5501C28.7978 21.4845 28.6356 21.477 28.488 21.5293C28.3404 21.5816 28.2191 21.6896 28.15 21.8301C28.05 22.0301 27.96 22.2501 27.86 22.4801C27.5361 23.4868 26.9772 24.4018 26.2294 25.1495C25.4817 25.8973 24.5667 26.4562 23.56 26.7801C23.8607 26.3369 24.0566 25.831 24.1328 25.3008C24.209 24.7707 24.1636 24.2301 24 23.7201C23.9311 23.5795 23.8091 23.4721 23.6609 23.4215C23.5128 23.3709 23.3506 23.3812 23.21 23.4501C23.0694 23.5191 22.962 23.641 22.9114 23.7892C22.8608 23.9373 22.8711 24.0995 22.94 24.2401C23.09 24.5501 23.15 25.3501 21.94 27.2401C21.2973 27.4422 20.6973 27.7608 20.17 28.1801C19.8305 27.2999 19.7988 26.3307 20.08 25.4301C20.4694 24.1356 21.1781 22.9597 22.141 22.0109C23.1038 21.062 24.2899 20.3705 25.59 20.0001C27.9977 19.3402 30.2671 18.253 32.29 16.7901C32.29 19.2801 31.93 24.7201 29.92 27.2601V27.2101Z" fill="#0A9386"/>
<path d="M3 2.79005L3.91 4.47005L6 3.38005L6.41 4.14005L4.41 5.23005L5.55 7.48005L4.64 8.00005L1.69 2.51005L4.86 0.800049L5.28 1.57005L3 2.79005Z" fill="#0A9386"/>
<path d="M9.34 1.86994C8.86703 2.06336 8.47749 2.41749 8.24 2.86994L9.24 5.74994L8.41 6.05994L7 1.99994L7.67 1.75994L7.97 2.29994C8.15458 1.80924 8.52445 1.41064 9 1.18994L9.34 1.86994Z" fill="#0A9386"/>
<path d="M10.4 3.0901C10.2985 2.82147 10.2579 2.53365 10.2811 2.24741C10.3044 1.96118 10.3909 1.68368 10.5344 1.43493C10.6779 1.18619 10.8748 0.972405 11.111 0.809013C11.3471 0.645622 11.6166 0.536698 11.9 0.490102C13.06 0.260102 13.77 0.860103 14 2.1401C14.0281 2.25861 14.0482 2.37888 14.06 2.5001L11.3 3.0501C11.3045 3.22906 11.3503 3.40455 11.4339 3.56285C11.5175 3.72114 11.6366 3.85794 11.7819 3.96254C11.9271 4.06714 12.0946 4.13669 12.2713 4.16576C12.4479 4.19483 12.6289 4.18263 12.8 4.1301C13.299 4.03358 13.7465 3.76015 14.06 3.3601L14.3 4.0501C13.9225 4.50945 13.388 4.81234 12.8 4.9001C11.55 5.1501 10.68 4.5001 10.4 3.0901ZM13.09 2.0901C12.96 1.4101 12.58 1.0901 12.02 1.1901C11.8798 1.21271 11.7461 1.26491 11.6276 1.34323C11.5092 1.42156 11.4088 1.52421 11.3331 1.64436C11.2574 1.76451 11.2082 1.8994 11.1887 2.04005C11.1692 2.18071 11.1799 2.3239 11.22 2.4601L13.09 2.0901Z" fill="#0A9386"/>
<path d="M15 4.12005L15.06 3.35005C15.5608 3.61084 16.1155 3.75123 16.68 3.76005C17.16 3.76005 17.46 3.58005 17.45 3.21005C17.44 2.84005 16.97 2.67005 16.45 2.52005C15.93 2.37005 15 2.08005 15 1.27005C15 0.460048 15.66 4.82198e-05 16.51 4.82198e-05C17.02 -0.00245578 17.5257 0.0925843 18 0.280048V1.00005C17.5552 0.815279 17.0813 0.710341 16.6 0.690048C16.18 0.690048 15.89 0.890048 15.89 1.21005C15.89 1.53005 16.31 1.67005 16.8 1.81005C17.48 1.98005 18.27 2.26005 18.28 3.12005C18.29 3.98005 17.61 4.49005 16.59 4.50005C16.035 4.52301 15.4846 4.39146 15 4.12005Z" fill="#0A9386"/>
<path d="M19.08 2.2899C19.3 0.859902 20.15 0.179902 21.41 0.369902C21.9138 0.42371 22.3784 0.666744 22.71 1.0499L22.38 1.7399C22.2629 1.57529 22.1141 1.43567 21.9424 1.32922C21.7707 1.22276 21.5795 1.1516 21.38 1.1199C20.62 1.0099 20.11 1.4699 19.96 2.4199C19.81 3.3699 20.15 3.9699 20.9 4.0799C21.1205 4.11167 21.3452 4.09789 21.5602 4.03941C21.7752 3.98093 21.9759 3.879 22.15 3.7399L22.24 4.4999C22.0195 4.65323 21.7704 4.76058 21.5075 4.81556C21.2447 4.87054 20.9734 4.87202 20.71 4.8199C19.45 4.6199 18.86 3.7099 19.08 2.2899Z" fill="#0A9386"/>
<path d="M23.26 2.99992C23.3153 2.718 23.4308 2.45132 23.5985 2.21802C23.7661 1.98473 23.9821 1.79029 24.2317 1.64796C24.4812 1.50562 24.7585 1.41872 25.0447 1.39318C25.3309 1.36763 25.6192 1.40404 25.89 1.49992C26.17 1.57562 26.4294 1.71346 26.6488 1.90319C26.8682 2.09293 27.042 2.32968 27.1573 2.59584C27.2726 2.862 27.3264 3.15073 27.3148 3.44056C27.3031 3.73039 27.2263 4.01387 27.09 4.26992C27.0432 4.55611 26.9328 4.82816 26.7669 5.06606C26.6011 5.30396 26.3841 5.50166 26.1317 5.6446C25.8794 5.78755 25.5983 5.87211 25.309 5.89207C25.0197 5.91203 24.7295 5.86687 24.46 5.75992C23.24 5.34992 22.81 4.35992 23.26 2.99992ZM26.26 3.99992C26.57 3.07992 26.36 2.44992 25.67 2.21992C24.98 1.98992 24.43 2.35992 24.12 3.27992C23.81 4.19992 24.02 4.81992 24.72 5.05992C25.42 5.29992 25.94 4.90992 26.25 3.99992H26.26Z" fill="#0A9386"/>
<path d="M34.15 5.78989L30.42 8.69989C29.6 9.35989 28.92 9.69989 28.2 9.23989C28.081 9.1682 27.9674 9.08799 27.86 8.99989L28.16 8.30989C28.2309 8.38391 28.3117 8.44784 28.4 8.49989C28.72 8.69989 29.05 8.76989 29.7 8.21989L30.7 3.63989L31.54 4.15989L30.7 7.53989L33.38 5.29989L34.15 5.78989Z" fill="#0A9386"/>
<path d="M5.52 44.1299L6.52 44.6099L7.11 49.7899H7.17L9.02999 45.7299L9.97999 46.1599L7.43 51.8399L6.43 51.3899L5.8 46.0899L3.87 50.2099L2.87 49.7699L5.52 44.1299Z" fill="#0A9386"/>
<path d="M13.55 50.1501L12.98 53.1501L12.26 53.0001V52.4701C11.8126 52.7847 11.2594 52.9104 10.72 52.8201C10.5559 52.8064 10.3968 52.7571 10.2538 52.6755C10.1107 52.5939 9.98728 52.482 9.89202 52.3477C9.79677 52.2134 9.73202 52.0599 9.7023 51.8979C9.67258 51.736 9.67862 51.5695 9.71999 51.4101C9.90999 50.4101 10.94 50.0101 12.56 50.3201L12.63 49.9501C12.71 49.5801 12.5 49.3101 11.97 49.2101C11.4855 49.1299 10.9889 49.1642 10.52 49.3101L10.45 48.6601C11.0319 48.4777 11.649 48.4366 12.25 48.5401C12.4472 48.5437 12.6413 48.5905 12.8185 48.6771C12.9957 48.7638 13.1517 48.8883 13.2757 49.0418C13.3996 49.1952 13.4884 49.374 13.5358 49.5655C13.5832 49.757 13.588 49.9565 13.55 50.1501ZM11.22 52.1501C11.6032 52.2054 11.993 52.1124 12.31 51.8901L12.52 50.7901C11.46 50.5901 10.81 50.7901 10.69 51.3901C10.6645 51.4766 10.6585 51.5677 10.6724 51.6568C10.6863 51.7459 10.7199 51.8308 10.7705 51.9054C10.8212 51.98 10.8878 52.0424 10.9656 52.0882C11.0433 52.134 11.1302 52.1619 11.22 52.1701V52.1501Z" fill="#0A9386"/>
<path d="M17 53.1599C16.7601 53.2749 16.4958 53.3299 16.23 53.3199C16.0651 53.3464 15.8963 53.3339 15.7371 53.2835C15.5779 53.233 15.4327 53.146 15.3131 53.0294C15.1936 52.9127 15.103 52.7697 15.0486 52.6118C14.9942 52.4539 14.9776 52.2854 15 52.1199L15.07 49.6999H14.41L14.62 48.9599H15.09L15.14 47.4399H16.02L16 48.9999H16.85V49.7499H16L15.93 52.1399C15.93 52.4399 16.07 52.6199 16.36 52.6299C16.5019 52.6392 16.6443 52.6222 16.78 52.5799L17 53.1599Z" fill="#0A9386"/>
<path d="M21.33 48.49L22 52.73L21.28 52.84L21.11 52.24C20.9613 52.4838 20.7621 52.693 20.5258 52.8534C20.2895 53.0138 20.0215 53.1218 19.74 53.17C19.5824 53.2099 19.418 53.2147 19.2583 53.1841C19.0987 53.1535 18.9477 53.0882 18.8161 52.9928C18.6844 52.8974 18.5754 52.7743 18.4966 52.6321C18.4178 52.4899 18.3711 52.3322 18.36 52.17L17.85 49L18.72 48.87L19.14 51.75C19.148 51.8428 19.1755 51.9328 19.2208 52.0142C19.2661 52.0956 19.328 52.1665 19.4026 52.2222C19.4773 52.2779 19.5628 52.3172 19.6537 52.3375C19.7446 52.3578 19.8388 52.3587 19.93 52.34C20.1375 52.2959 20.3335 52.2091 20.5057 52.0851C20.6778 51.9612 20.8223 51.8028 20.93 51.62L20.49 48.62L21.33 48.49Z" fill="#0A9386"/>
<path d="M24.92 48.0001C24.4414 48.1925 24.0452 48.5463 23.8 49.0001L24.8 51.9001L23.96 52.1901L22.6 48.1301L23.27 47.9001L23.56 48.4401C23.6572 48.1925 23.8028 47.9669 23.9882 47.7763C24.1736 47.5857 24.3952 47.434 24.64 47.3301L24.92 48.0001Z" fill="#0A9386"/>
<path d="M28.82 46.7501L30.22 49.4101L29.57 49.7501L29.26 49.3301C29.0983 49.854 28.7398 50.2948 28.26 50.5601C28.1221 50.6456 27.9674 50.7007 27.8065 50.7217C27.6455 50.7427 27.4819 50.7291 27.3267 50.6817C27.1714 50.6344 27.0281 50.5544 26.9062 50.4472C26.7843 50.34 26.6867 50.208 26.62 50.0601C26.14 49.1401 26.7 48.2001 28.16 47.4301L28 47.1001C27.82 46.7601 27.49 46.6801 27 46.9301C26.5731 47.1793 26.2075 47.521 25.93 47.9301L25.46 47.4801C25.8011 46.9682 26.2608 46.5462 26.8 46.2501C26.9591 46.13 27.1431 46.0469 27.3384 46.0069C27.5337 45.967 27.7355 45.9711 27.9291 46.019C28.1226 46.0669 28.303 46.1574 28.4571 46.2839C28.6113 46.4103 28.7352 46.5696 28.82 46.7501ZM28.27 49.7501C28.6084 49.5647 28.8679 49.2626 29 48.9001L28.48 47.9001C27.48 48.4001 27.14 48.9801 27.42 49.5101C27.4549 49.5865 27.5053 49.6548 27.5679 49.7109C27.6305 49.7669 27.704 49.8094 27.7838 49.8357C27.8637 49.862 27.948 49.8715 28.0317 49.8636C28.1153 49.8558 28.1965 49.8308 28.27 49.7901V49.7501Z" fill="#0A9386"/>
<path d="M27.85 43L28.56 42.48L32.49 47.73L31.79 48.26L27.85 43Z" fill="#0A9386"/>
</g>
<defs>
<clipPath id="clip0_2646_6932">
<rect width="34.15" height="53.32" fill="white"/>
</clipPath>
</defs>
</svg>
