<svg width="35" height="55" viewBox="0 0 35 55" fill="none" xmlns="http://www.w3.org/2000/svg">
<g clip-path="url(#clip0_2502_6933)">
<path d="M2.32999 3.65992L3.25999 3.16992L5.74999 7.87992L7.87999 6.74992L8.28999 7.52992L5.28999 9.13992L2.32999 3.65992Z" fill="#0A9386"/>
<path d="M7.08999 2.34999C7.05788 2.28528 7.04112 2.21403 7.04102 2.14178C7.04091 2.06953 7.05746 1.99824 7.08938 1.93343C7.12131 1.86861 7.16774 1.81203 7.22508 1.76808C7.28241 1.72413 7.34911 1.69398 7.41999 1.67999C7.48233 1.6457 7.55177 1.62634 7.62286 1.62343C7.69394 1.62052 7.76474 1.63414 7.82967 1.66321C7.8946 1.69229 7.95191 1.73603 7.99708 1.79099C8.04225 1.84596 8.07405 1.91066 8.08999 1.97999C8.12212 2.04403 8.13919 2.11456 8.13988 2.1862C8.14058 2.25784 8.12489 2.32869 8.09402 2.39333C8.06314 2.45798 8.01789 2.51471 7.96173 2.5592C7.90558 2.60368 7.83999 2.63474 7.76999 2.64999C7.70691 2.68416 7.63684 2.70344 7.56515 2.70634C7.49347 2.70924 7.42207 2.6957 7.35643 2.66674C7.29079 2.63778 7.23265 2.59418 7.18647 2.53927C7.14028 2.48437 7.10728 2.41962 7.08999 2.34999ZM7.52999 3.29999L8.35999 2.99999L9.83999 6.99999L8.99999 7.31999L7.52999 3.29999Z" fill="#0A9386"/>
<path d="M14.22 3.71C14.52 5.1 14.05 6 13 6.27C12.7458 6.33258 12.48 6.33059 12.2267 6.26422C11.9735 6.19785 11.7409 6.06921 11.55 5.89V6.46L10.86 6.61L9.51001 0.18L10.37 0L10.93 2.63C11.0558 2.43228 11.2211 2.26269 11.4156 2.13191C11.61 2.00112 11.8294 1.91195 12.06 1.87C13.14 1.64 13.93 2.34 14.22 3.71ZM13.34 3.9C13.14 2.97 12.64 2.51 11.97 2.65C11.7782 2.69131 11.5983 2.77583 11.4441 2.89713C11.2899 3.01843 11.1654 3.17332 11.08 3.35L11.5 5.35C11.6482 5.47299 11.8226 5.56037 12.0098 5.60544C12.197 5.65051 12.3921 5.65207 12.58 5.61C13.25 5.44 13.54 4.84 13.34 3.9Z" fill="#0A9386"/>
<path d="M17.57 2.08008C17.0617 2.12396 16.5845 2.34313 16.22 2.70008L16.34 5.77008H15.46L15.29 1.50008H16L16.12 2.10008C16.2823 1.88814 16.4853 1.71083 16.7172 1.57858C16.949 1.44634 17.205 1.36185 17.47 1.33008L17.57 2.08008Z" fill="#0A9386"/>
<path d="M18.23 3.56003C18.4 2.13003 19.23 1.41003 20.46 1.56003C21.69 1.71003 22.13 2.49003 21.97 3.79003C21.9573 3.90782 21.9372 4.02472 21.91 4.14003L19.11 3.81003C19.01 4.71003 19.41 5.21003 20.19 5.30003C20.6872 5.37442 21.1946 5.26798 21.62 5.00003V5.73003C21.1134 6.0459 20.5091 6.16674 19.92 6.07003C18.68 5.88003 18.05 5.00003 18.23 3.56003ZM21.09 3.48003C21.17 2.80003 20.92 2.37003 20.34 2.30003C19.76 2.23003 19.34 2.63003 19.19 3.30003L21.09 3.48003Z" fill="#0A9386"/>
<path d="M30 1.99994L27.65 8.12994L27 7.85994L27.11 7.29994C26.8936 7.44716 26.6436 7.5372 26.383 7.56168C26.1225 7.58616 25.86 7.54428 25.62 7.43994C24.62 7.03994 24.32 6.02994 24.84 4.72994C25.36 3.42994 26.25 2.84994 27.28 3.25994C27.5026 3.33906 27.7063 3.46343 27.8784 3.62522C28.0505 3.787 28.1873 3.98269 28.28 4.19994L29.28 1.68994L30 1.99994ZM27.2 6.73994L28 4.86994C27.9428 4.67608 27.8431 4.4974 27.7082 4.3469C27.5733 4.19641 27.4065 4.07788 27.22 3.99994C26.59 3.75994 26.01 4.12994 25.67 4.99994C25.33 5.86994 25.53 6.55994 26.14 6.79994C26.3144 6.87842 26.5049 6.91479 26.696 6.9061C26.887 6.89742 27.0734 6.84392 27.24 6.74994L27.2 6.73994Z" fill="#0A9386"/>
<path d="M29.49 6.64008C30.23 5.41008 31.28 5.09008 32.34 5.73008C33.4 6.37008 33.48 7.27008 32.81 8.38008C32.7492 8.48386 32.6824 8.58403 32.61 8.68008L30.19 7.23008C30.0817 7.36485 30.0045 7.52197 29.9642 7.69012C29.9238 7.85827 29.9213 8.03327 29.9566 8.20253C29.992 8.3718 30.0645 8.53111 30.1688 8.66902C30.2731 8.80693 30.4067 8.91999 30.56 9.00008C30.9854 9.27736 31.4982 9.38775 32 9.31008L31.71 9.98008C31.1125 10.0734 30.5018 9.93767 30 9.60008C29 9.00008 28.74 7.88008 29.49 6.64008ZM32.13 7.75008C32.49 7.15008 32.43 6.65008 31.93 6.36008C31.8114 6.28354 31.6779 6.23299 31.5383 6.21175C31.3987 6.19051 31.2562 6.19906 31.1202 6.23685C30.9842 6.27463 30.8577 6.34079 30.7491 6.43098C30.6405 6.52116 30.5522 6.63332 30.49 6.76008L32.13 7.75008Z" fill="#0A9386"/>
<path d="M5.67001 48.8599C6.43001 46.9399 7.83001 46.2499 9.54001 46.9199C10.1532 47.1374 10.6818 47.5435 11.05 48.0799L10.48 48.6899C10.1515 48.2877 9.72428 47.9776 9.24001 47.7899C8.12001 47.3499 7.24001 47.8599 6.67001 49.2599C6.10001 50.6599 6.44001 51.6199 7.58001 52.0699C8.01002 52.2473 8.48059 52.3026 8.94001 52.2299L9.75001 50.2299L10.66 50.5899L9.66001 53.1099C8.83481 53.33 7.96026 53.2738 7.17001 52.9499C5.47001 52.2299 4.92001 50.7599 5.67001 48.8599Z" fill="#0A9386"/>
<path d="M12.81 47.6299L13.68 47.7899L12.46 54.2499L11.59 54.0899L12.81 47.6299Z" fill="#0A9386"/>
<path d="M18 50.38L17.88 54.66H17.16L17.12 54C16.9315 54.2146 16.6991 54.3863 16.4387 54.5036C16.1782 54.6209 15.8956 54.6811 15.61 54.68C15.4487 54.6891 15.2874 54.6635 15.1369 54.605C14.9864 54.5465 14.8501 54.4564 14.7373 54.3408C14.6246 54.2252 14.5379 54.0868 14.4832 53.9348C14.4284 53.7829 14.4069 53.621 14.42 53.46L14.51 50.25H15.39L15.31 53.16C15.3014 53.252 15.3125 53.3447 15.3426 53.4321C15.3727 53.5194 15.421 53.5993 15.4844 53.6665C15.5478 53.7337 15.6248 53.7866 15.7103 53.8217C15.7957 53.8568 15.8877 53.8732 15.98 53.87C16.187 53.8616 16.3899 53.8101 16.5759 53.7188C16.7618 53.6276 16.9267 53.4986 17.06 53.34L17.15 50.34L18 50.38Z" fill="#0A9386"/>
<path d="M22.05 54C21.8355 54.1594 21.5846 54.2626 21.32 54.3C21.1641 54.3404 21.0011 54.3455 20.843 54.3147C20.6849 54.284 20.5356 54.2183 20.4062 54.1224C20.2768 54.0265 20.1704 53.9029 20.0949 53.7606C20.0195 53.6183 19.9768 53.461 19.97 53.3L19.63 50.91L19 51L19.07 50.24L19.54 50.17L19.32 48.66L20.19 48.53L20.41 50.04L21.25 49.92L21.36 50.66L20.52 50.78L20.86 53.14C20.91 53.44 21.08 53.59 21.37 53.55C21.5098 53.5362 21.6456 53.4954 21.77 53.43L22.05 54Z" fill="#0A9386"/>
<path d="M22.59 51.8899C22.4592 51.635 22.3865 51.3544 22.3771 51.068C22.3677 50.7817 22.4219 50.4969 22.5356 50.2339C22.6494 49.971 22.82 49.7366 23.0352 49.5474C23.2503 49.3583 23.5047 49.2191 23.78 49.1399C24.91 48.7799 25.68 49.2999 26.08 50.5399C26.1242 50.6525 26.1544 50.77 26.17 50.8899L23.49 51.7499C23.5175 51.9244 23.5842 52.0904 23.685 52.2354C23.7858 52.3804 23.9182 52.5007 24.0721 52.5873C24.226 52.6739 24.3976 52.7245 24.5739 52.7354C24.7502 52.7462 24.9266 52.717 25.09 52.6499C25.5768 52.5078 25.9914 52.1861 26.25 51.7499L26.57 52.3999C26.2461 52.8935 25.7509 53.2497 25.18 53.3999C24 53.8099 23 53.2599 22.59 51.8899ZM25.16 50.6299C24.94 49.9699 24.53 49.6899 23.98 49.8599C23.8424 49.8982 23.7146 49.9655 23.6052 50.0573C23.4958 50.1491 23.4073 50.2633 23.3458 50.3921C23.2842 50.521 23.2509 50.6615 23.2482 50.8043C23.2455 50.9471 23.2734 51.0888 23.33 51.2199L25.16 50.6299Z" fill="#0A9386"/>
<path d="M30 47.4399L31.6 50.2299L30.84 50.6699L29.4 48.1399C29.3597 48.057 29.3021 47.9835 29.2312 47.9245C29.1603 47.8655 29.0776 47.8223 28.9887 47.7977C28.8998 47.7731 28.8067 47.7677 28.7155 47.7819C28.6243 47.7961 28.5372 47.8295 28.46 47.8799C28.2913 47.9947 28.1476 48.1425 28.0376 48.3144C27.9276 48.4863 27.8536 48.6787 27.82 48.8799L29.33 51.5199L28.57 51.9599L26.43 48.2499L27.05 47.8899L27.43 48.3799C27.478 48.0958 27.5868 47.8253 27.7491 47.5871C27.9113 47.349 28.1231 47.1486 28.37 46.9999C28.5029 46.9109 28.6534 46.8514 28.8112 46.8254C28.969 46.7994 29.1306 46.8076 29.2851 46.8492C29.4395 46.8909 29.5832 46.9652 29.7065 47.0671C29.8299 47.169 29.9299 47.2961 30 47.4399Z" fill="#0A9386"/>
<path d="M20.08 26.7199H20.32C21.0667 26.6526 21.7701 26.3396 22.32 25.8299C22.8851 25.3005 23.2551 24.5958 23.37 23.8299L24.03 19.3399C24.0427 19.263 24.0355 19.184 24.0093 19.1105C23.9831 19.0371 23.9386 18.9715 23.88 18.9199C23.82 18.8694 23.7483 18.8347 23.6714 18.819C23.5946 18.8033 23.515 18.807 23.44 18.8299L19.09 20.1099C18.5008 20.2967 17.9747 20.6428 17.57 21.1099V19.9999C18.3137 19.8946 19.0005 19.5425 19.52 18.9999C20.0599 18.4616 20.4013 17.7562 20.4885 16.9988C20.5757 16.2414 20.4035 15.4768 20 14.8299L17.53 10.9999C17.487 10.936 17.4289 10.8836 17.3609 10.8474C17.2929 10.8112 17.217 10.7922 17.14 10.7922C17.0629 10.7922 16.9871 10.8112 16.9191 10.8474C16.8511 10.8836 16.793 10.936 16.75 10.9999L14.31 14.8199C13.9002 15.4645 13.7215 16.2293 13.8033 16.9887C13.885 17.7482 14.2224 18.4573 14.76 18.9999C15.2788 19.5182 15.9533 19.8519 16.68 19.9499V21.0699C16.2715 20.6024 15.7422 20.2564 15.15 20.0699L10.8 18.8499C10.725 18.827 10.6454 18.8233 10.5685 18.839C10.4917 18.8547 10.42 18.8894 10.36 18.9399C10.3029 18.9926 10.2594 19.0583 10.2332 19.1315C10.2071 19.2046 10.1991 19.283 10.21 19.3599L10.87 23.8499C10.9849 24.6158 11.3548 25.3205 11.92 25.8499C12.4831 26.3698 13.2057 26.6835 13.97 26.7399H14.2C14.6667 26.7366 15.1278 26.6373 15.5545 26.448C15.9811 26.2588 16.3643 25.9837 16.68 25.6399V28.4899C16.2743 28.0192 15.744 27.6726 15.15 27.4899L10.8 26.2299C10.725 26.207 10.6454 26.2033 10.5685 26.219C10.4917 26.2347 10.42 26.2694 10.36 26.3199C10.3022 26.372 10.2582 26.4377 10.232 26.511C10.2058 26.5843 10.1983 26.663 10.21 26.7399L10.87 31.2199C10.9803 31.9873 11.351 32.6934 11.92 33.2199C12.4804 33.7439 13.2045 34.0583 13.97 34.1099H14.2C14.668 34.1084 15.1304 34.0088 15.5576 33.8177C15.9847 33.6265 16.3671 33.3479 16.68 32.9999V36.1099C16.2743 35.6392 15.744 35.2926 15.15 35.1099L10.8 33.8699C10.725 33.847 10.6454 33.8433 10.5685 33.859C10.4917 33.8747 10.42 33.9094 10.36 33.9599C10.3022 34.012 10.2582 34.0777 10.232 34.151C10.2058 34.2243 10.1983 34.303 10.21 34.3799L10.87 38.8599C10.9826 39.6265 11.3529 40.3319 11.92 40.8599C12.4804 41.3839 13.2045 41.6983 13.97 41.7499H14.2C14.6661 41.7485 15.1269 41.651 15.5536 41.4634C15.9803 41.2759 16.3638 41.0024 16.68 40.6599V43.4699C16.6786 43.5307 16.6896 43.5911 16.7122 43.6476C16.7349 43.704 16.7687 43.7553 16.8117 43.7983C16.8547 43.8412 16.9059 43.8751 16.9624 43.8977C17.0188 43.9203 17.0792 43.9313 17.14 43.9299C17.2012 43.9313 17.2621 43.9204 17.3191 43.8978C17.3761 43.8753 17.428 43.8416 17.4717 43.7988C17.5155 43.7559 17.5503 43.7048 17.574 43.6483C17.5978 43.5918 17.61 43.5312 17.61 43.4699V40.6399C17.9236 40.983 18.3051 41.2571 18.7303 41.4448C19.1556 41.6324 19.6152 41.7295 20.08 41.7299H20.32C21.0679 41.6671 21.7727 41.3535 22.32 40.8399C22.887 40.3119 23.2574 39.6065 23.37 38.8399L24.03 34.3599C24.0436 34.2829 24.037 34.2037 24.0107 34.1301C23.9844 34.0564 23.9393 33.9909 23.88 33.9399C23.82 33.8894 23.7483 33.8547 23.6714 33.839C23.5946 33.8233 23.515 33.827 23.44 33.8499L19.09 35.1299C18.4989 35.3128 17.9719 35.6595 17.57 36.1299V32.9999C17.8824 33.3445 18.2637 33.6196 18.6892 33.8074C19.1147 33.9951 19.5749 34.0914 20.04 34.0899H20.28C21.0279 34.0271 21.7327 33.7135 22.28 33.1999C22.849 32.6734 23.2197 31.9673 23.33 31.1999L23.99 26.7199C24.0036 26.6429 23.997 26.5637 23.9707 26.49C23.9444 26.4164 23.8993 26.3509 23.84 26.2999C23.78 26.2494 23.7083 26.2147 23.6314 26.199C23.5546 26.1833 23.475 26.187 23.4 26.2099L19.05 27.4899C18.4589 27.6728 17.9319 28.0195 17.53 28.4899V25.6199C17.8431 25.9644 18.2243 26.24 18.6495 26.4294C19.0746 26.6187 19.5345 26.7177 20 26.7199H20.08ZM19.4 20.9999L23 19.9999L22.45 23.7599C22.3592 24.3372 22.0691 24.8644 21.63 25.2499C21.189 25.6316 20.6232 25.8379 20.04 25.8299C19.4564 25.8309 18.8921 25.6209 18.4511 25.2387C18.01 24.8565 17.722 24.3278 17.64 23.7499C17.5271 23.142 17.6563 22.514 18 21.9999C18.3205 21.516 18.8025 21.1616 19.36 20.9999H19.4ZM16.62 23.4999C16.5949 23.897 16.4722 24.2818 16.2629 24.6202C16.0536 24.9586 15.7641 25.2401 15.42 25.4399C15.0759 25.638 14.6886 25.7492 14.2918 25.7637C13.895 25.7782 13.5007 25.6957 13.143 25.5233C12.7853 25.3508 12.4751 25.0937 12.2394 24.7742C12.0036 24.4547 11.8493 24.0825 11.79 23.6899L11.24 19.9999L14.88 20.9999C15.4073 21.1625 15.8649 21.497 16.18 21.9499C16.4989 22.401 16.6509 22.949 16.61 23.4999H16.62ZM16.62 38.4999C16.595 38.8957 16.4723 39.2792 16.2629 39.616C16.0535 39.9528 15.7639 40.2324 15.42 40.4299C15.0767 40.6313 14.689 40.7448 14.2913 40.7605C13.8936 40.7762 13.4981 40.6936 13.14 40.5199C12.7843 40.3461 12.4759 40.0889 12.2408 39.7703C12.0058 39.4517 11.8511 39.0811 11.79 38.6899L11.24 34.9999L14.89 35.9999C15.4246 36.1755 15.8832 36.5283 16.19 36.9999C16.5089 37.451 16.6609 37.999 16.62 38.5499V38.4999ZM19.4 35.9999L23 34.9999L22.45 38.7699C22.3616 39.3459 22.0701 39.8712 21.628 40.2509C21.186 40.6306 20.6227 40.8395 20.04 40.8399C19.456 40.8364 18.8927 40.6236 18.4524 40.2401C18.012 39.8566 17.7237 39.3279 17.64 38.7499C17.541 38.1613 17.6697 37.5571 18 37.0599C18.3173 36.5729 18.8005 36.2176 19.36 36.0599L19.4 35.9999ZM19.4 28.3599L23 27.3299L22.45 31.0899C22.3664 31.6682 22.0773 32.1969 21.6356 32.5793C21.1939 32.9618 20.6292 33.1723 20.045 33.1723C19.4608 33.1723 18.8961 32.9618 18.4544 32.5793C18.0127 32.1969 17.7236 31.6682 17.64 31.0899C17.5482 30.5079 17.6766 29.9125 18 29.4199C18.3205 28.936 18.8025 28.5816 19.36 28.4199L19.4 28.3599ZM15.09 15.3299L17.14 12.1299L19.19 15.3299C19.5072 15.8218 19.6354 16.412 19.5508 16.9912C19.4663 17.5704 19.1746 18.0993 18.73 18.4799C18.2875 18.8601 17.7234 19.0691 17.14 19.0691C16.5566 19.0691 15.9925 18.8601 15.55 18.4799C15.1107 18.0957 14.823 17.5673 14.7387 16.9898C14.6543 16.4124 14.7789 15.8237 15.09 15.3299ZM14 33.1599C13.4488 33.1155 12.9285 32.8873 12.5223 32.512C12.1162 32.1367 11.8478 31.6359 11.76 31.0899L11.21 27.3299L14.86 28.3999C15.24 28.5127 15.5866 28.7168 15.8697 28.9943C16.1527 29.2717 16.3636 29.6143 16.4839 29.992C16.6042 30.3696 16.6303 30.771 16.5599 31.1611C16.4895 31.5512 16.3247 31.9181 16.08 32.2299C15.8351 32.5425 15.5177 32.7906 15.1552 32.9526C14.7927 33.1147 14.3962 33.1859 14 33.1599Z" fill="#0A9386"/>
<path d="M33.9653 15.5991L0.00201416 41.7261L0.319073 42.1382L34.2824 16.0113L33.9653 15.5991Z" fill="#0A9386"/>
</g>
<defs>
<clipPath id="clip0_2502_6933">
<rect width="34.28" height="54.71" fill="white"/>
</clipPath>
</defs>
</svg>
