<svg width="34" height="55" viewBox="0 0 34 55" fill="none" xmlns="http://www.w3.org/2000/svg">
<g clip-path="url(#clip0_2502_6985)">
<path d="M7.52999 5.79996L5.11999 6.79996L5.21999 8.42996L4.21999 8.83996L3.92999 2.23996L5.20999 1.70996L9.67999 6.57996L8.60999 6.99996L7.52999 5.79996ZM6.99999 5.16996L4.99999 2.87996H4.93999L5.07999 5.99996L6.99999 5.16996Z" fill="#0A9386"/>
<path d="M8.84 0.2L9.7 0L11.16 6.41L10.3 6.6L8.84 0.2Z" fill="#0A9386"/>
<path d="M14.42 5.81005C14.2013 5.95629 13.9512 6.0488 13.69 6.08005C13.536 6.11718 13.3756 6.11964 13.2205 6.08725C13.0654 6.05485 12.9194 5.98842 12.7931 5.89273C12.6668 5.79705 12.5633 5.67451 12.4902 5.53397C12.417 5.39343 12.376 5.23839 12.37 5.08005L12.09 2.67005L11.44 2.75005L11.54 1.98005L12 1.91005L11.83 0.400049L12.71 0.300049L12.88 1.81005L13.72 1.71005L13.81 2.45005L12.97 2.55005L13.24 4.92005C13.24 5.22005 13.45 5.38005 13.74 5.34005C13.88 5.33431 14.0168 5.29669 14.14 5.23005L14.42 5.81005Z" fill="#0A9386"/>
<path d="M14.8 3.73003C14.87 2.30003 15.64 1.52003 16.93 1.59003C18.22 1.66003 18.93 2.50003 18.83 3.94003C18.73 5.38003 18 6.15003 16.7 6.08003C15.4 6.01003 14.73 5.17003 14.8 3.73003ZM17.94 3.89003C17.94 2.89003 17.62 2.37003 16.94 2.34003C16.26 2.31003 15.78 2.81003 15.73 3.78003C15.68 4.75003 16.05 5.29003 16.73 5.33003C17.41 5.37003 17.89 4.87003 17.94 3.89003Z" fill="#0A9386"/>
<path d="M21.74 4.51008C22.18 3.14008 23.13 2.60008 24.31 3.00008C25.49 3.40008 25.77 4.24008 25.37 5.48008C25.37 5.55008 25.29 5.71008 25.24 5.81008L22.56 4.95008C22.4794 5.10704 22.4356 5.28033 22.4321 5.45675C22.4286 5.63317 22.4653 5.80807 22.5396 5.96814C22.6138 6.12821 22.7236 6.26923 22.8606 6.38048C22.9976 6.49172 23.1581 6.57024 23.33 6.61008C23.8033 6.79086 24.3267 6.79086 24.8 6.61008L24.67 7.33008C24.1153 7.53704 23.5047 7.53704 22.95 7.33008C21.74 6.88008 21.3 5.88008 21.74 4.51008ZM24.56 5.00008C24.77 4.34008 24.61 3.87008 24.06 3.69008C23.9264 3.64108 23.7838 3.62117 23.6419 3.63169C23.4999 3.64221 23.3619 3.6829 23.2369 3.75106C23.1119 3.81922 23.003 3.91326 22.9173 4.02691C22.8316 4.14056 22.7712 4.27119 22.74 4.41008L24.56 5.00008Z" fill="#0A9386"/>
<path d="M30 6.78994L28.53 9.63994L27.74 9.23994L29.08 6.64994C29.1279 6.57039 29.1584 6.48164 29.1696 6.38948C29.1809 6.29732 29.1725 6.20383 29.1451 6.11511C29.1178 6.0264 29.072 5.94445 29.0108 5.87464C28.9496 5.80482 28.8744 5.7487 28.79 5.70994C28.4024 5.55047 27.9676 5.55047 27.58 5.70994L26.19 8.40994L25.4 7.99994L27.4 4.18994L28.03 4.51994L27.82 5.09994C28.0829 4.98336 28.3674 4.92312 28.655 4.92312C28.9426 4.92312 29.2271 4.98336 29.49 5.09994C29.65 5.15987 29.7939 5.2559 29.9107 5.38057C30.0275 5.50524 30.1139 5.65518 30.1633 5.81872C30.2126 5.98225 30.2236 6.15497 30.1953 6.32343C30.1669 6.49188 30.1001 6.65153 30 6.78994Z" fill="#0A9386"/>
<path d="M3.16 44.74L4.93 45.74C5.19141 45.8481 5.42571 46.0126 5.61614 46.2218C5.80656 46.431 5.94841 46.6797 6.03153 46.9501C6.11466 47.2205 6.13701 47.5059 6.09698 47.7859C6.05696 48.066 5.95554 48.3337 5.8 48.57C5.67099 48.8231 5.48713 49.0443 5.26182 49.2173C5.03652 49.3904 4.77544 49.511 4.49761 49.5704C4.21979 49.6298 3.93221 49.6265 3.65583 49.5607C3.37945 49.4949 3.12124 49.3682 2.9 49.19L2 48.72L0.9 50.62L0 50.09L3.16 44.74ZM3.33 48.48C3.45111 48.5751 3.59255 48.641 3.7433 48.6725C3.89405 48.7039 4.05003 48.7002 4.19908 48.6614C4.34813 48.6227 4.48623 48.5501 4.6026 48.4493C4.71898 48.3484 4.81049 48.222 4.87 48.08C4.96512 47.9589 5.03099 47.8174 5.06246 47.6667C5.09394 47.5159 5.09017 47.36 5.05146 47.2109C5.01274 47.0619 4.94012 46.9238 4.83927 46.8074C4.73841 46.691 4.61204 46.5995 4.47 46.54L3.61 46L2.46 48L3.33 48.48Z" fill="#0A9386"/>
<path d="M8.62001 50.2101C8.13056 50.0575 7.60299 50.0823 7.13001 50.2801L6.07001 53.1601L5.24001 52.8601L6.72001 48.8601L7.39001 49.1101L7.27001 49.7101C7.5011 49.5774 7.75637 49.4923 8.02083 49.4597C8.28529 49.427 8.5536 49.4476 8.81001 49.5201L8.62001 50.2101Z" fill="#0A9386"/>
<path d="M8.88999 51.9C9.14999 50.49 10.02 49.82 11.28 50.05C11.564 50.0955 11.8349 50.2018 12.0742 50.3615C12.3135 50.5212 12.5155 50.7307 12.6664 50.9756C12.8173 51.2205 12.9136 51.4951 12.9488 51.7806C12.9839 52.0661 12.957 52.3558 12.87 52.63C12.61 54.05 11.74 54.71 10.47 54.48C9.19999 54.25 8.62999 53.32 8.88999 51.9ZM11.99 52.47C12.17 51.52 11.87 50.92 11.16 50.79C10.45 50.66 9.94999 51.11 9.76999 52.06C9.58999 53.01 9.88999 53.6 10.61 53.74C11.33 53.88 11.81 53.43 12 52.47H11.99Z" fill="#0A9386"/>
<path d="M16.4 54.7C16.1598 54.8163 15.8968 54.8778 15.63 54.88C15.4708 54.8974 15.3097 54.8789 15.1586 54.8257C15.0075 54.7726 14.8703 54.6862 14.7571 54.5729C14.6438 54.4597 14.5574 54.3225 14.5043 54.1714C14.4511 54.0203 14.4326 53.8592 14.45 53.7V51.28H13.79L13.99 50.53H14.46V49H15.34V50.52H16.19V51.26H15.34V53.64C15.34 53.95 15.49 54.12 15.77 54.12C15.9127 54.1303 16.0559 54.1098 16.19 54.06L16.4 54.7Z" fill="#0A9386"/>
<path d="M17.23 52.6801C17.01 51.2601 17.62 50.3401 18.84 50.1501C20.06 49.9601 20.7 50.6001 20.9 51.8901C20.9072 52.01 20.9072 52.1302 20.9 52.2501L18.12 52.6801C18.25 53.5701 18.78 53.9501 19.55 53.8201C20.0546 53.7561 20.5159 53.5022 20.84 53.1101L21.05 53.8101C20.6535 54.2513 20.1093 54.5323 19.52 54.6001C18.3 54.7901 17.46 54.1001 17.23 52.6801ZM20 51.8301C19.9 51.1501 19.53 50.8301 19 50.8901C18.8587 50.907 18.7227 50.9539 18.6009 51.0276C18.4792 51.1014 18.3746 51.2002 18.2942 51.3176C18.2137 51.435 18.1592 51.5681 18.1344 51.7083C18.1095 51.8484 18.1148 51.9922 18.15 52.1301L20 51.8301Z" fill="#0A9386"/>
<path d="M21.69 47.7301L22.69 47.6201L22 49.0801L21.38 49.2801L21.69 47.7301ZM21.6 49.6401L22.44 49.3801L23.73 53.4601L22.89 53.7301L21.6 49.6401Z" fill="#0A9386"/>
<path d="M27.32 48.34L28.77 51.21L27.98 51.61L26.67 49C26.632 48.9161 26.577 48.8412 26.5083 48.7799C26.4397 48.7186 26.359 48.6724 26.2714 48.6441C26.1838 48.6159 26.0913 48.6062 25.9998 48.6158C25.9083 48.6255 25.8198 48.6541 25.74 48.7C25.5613 48.8101 25.4071 48.9557 25.2867 49.1276C25.1663 49.2996 25.0824 49.4944 25.04 49.7L26.41 52.42L25.62 52.82L23.7 49L24.33 48.68L24.68 49.19C24.7457 48.9125 24.8686 48.6518 25.0408 48.4245C25.213 48.1972 25.4307 48.0083 25.68 47.87C25.8146 47.7784 25.9677 47.7176 26.1284 47.6918C26.2892 47.666 26.4536 47.6758 26.6101 47.7207C26.7666 47.7655 26.9113 47.8443 27.034 47.9513C27.1567 48.0583 27.2543 48.191 27.32 48.34Z" fill="#0A9386"/>
<path d="M31.15 45.7099L33 48.0599L32.43 48.5199L32.04 48.1599C32.0184 48.4289 31.9426 48.6906 31.8171 48.9295C31.6916 49.1684 31.5191 49.3794 31.31 49.5499C31.1916 49.6607 31.0507 49.7448 30.897 49.7963C30.7432 49.8478 30.5801 49.8657 30.4188 49.8486C30.2576 49.8315 30.1019 49.7799 29.9623 49.6973C29.8227 49.6147 29.7026 49.5031 29.61 49.3699C28.96 48.5699 29.34 47.5399 30.61 46.4999L30.37 46.2099C30.13 45.9099 29.8 45.8899 29.37 46.2099C28.9976 46.5313 28.7006 46.9308 28.5 47.3799L28 46.9999C28.2384 46.4341 28.6087 45.9335 29.08 45.5399C29.2179 45.3966 29.3859 45.2858 29.5719 45.2155C29.7579 45.1452 29.9572 45.1171 30.1554 45.1334C30.3535 45.1497 30.5456 45.2099 30.7176 45.3096C30.8897 45.4093 31.0374 45.546 31.15 45.7099ZM31.15 48.7999C31.4385 48.5428 31.6174 48.1849 31.65 47.7999L31 46.9199C30.15 47.5999 29.89 48.2399 30.27 48.7099C30.3215 48.7803 30.3874 48.839 30.4632 48.8822C30.539 48.9254 30.623 48.9522 30.7099 48.9607C30.7967 48.9692 30.8844 48.9592 30.9671 48.9315C31.0498 48.9038 31.1258 48.859 31.19 48.7999H31.15Z" fill="#0A9386"/>
<path d="M23.13 15.02C23.13 14.0259 22.3241 13.22 21.33 13.22C20.3359 13.22 19.53 14.0259 19.53 15.02V39.57C19.53 40.5641 20.3359 41.37 21.33 41.37C22.3241 41.37 23.13 40.5641 23.13 39.57V15.02Z" fill="#0A9386"/>
<path d="M16.77 19.79C16.77 18.7959 15.9641 17.99 14.97 17.99C13.9759 17.99 13.17 18.7959 13.17 19.79V39.58C13.17 40.5741 13.9759 41.38 14.97 41.38C15.9641 41.38 16.77 40.5741 16.77 39.58V19.79Z" fill="#0A9386"/>
<path d="M10.33 26.29C10.33 25.2959 9.52411 24.49 8.53 24.49C7.53588 24.49 6.73 25.2959 6.73 26.29V39.57C6.73 40.5641 7.53588 41.37 8.53 41.37C9.52411 41.37 10.33 40.5641 10.33 39.57V26.29Z" fill="#0A9386"/>
</g>
<defs>
<clipPath id="clip0_2502_6985">
<rect width="33.03" height="54.88" fill="white"/>
</clipPath>
</defs>
</svg>
