<svg width="38" height="54" viewBox="0 0 38 54" fill="none" xmlns="http://www.w3.org/2000/svg">
<g clip-path="url(#clip0_2502_6867)">
<path d="M27.37 13.0001C26.7583 12.9998 26.1526 13.1207 25.5879 13.3558C25.0232 13.591 24.5107 13.9357 24.08 14.3701L18.58 19.8601L25.17 26.4501L30.67 21.0001C31.3326 20.3486 31.7858 19.5143 31.9716 18.6038C32.1574 17.6934 32.0674 16.7482 31.7131 15.8892C31.3587 15.0302 30.7562 14.2964 29.9825 13.7817C29.2088 13.2671 28.2992 12.9949 27.37 13.0001ZM30 20.3001L25.15 25.1501L19.86 19.8501L24.72 15.0001C25.0581 14.6118 25.4725 14.2974 25.9374 14.0763C26.4023 13.8552 26.9078 13.7322 27.4223 13.7149C27.9368 13.6977 28.4494 13.7865 28.9281 13.976C29.4068 14.1655 29.8413 14.4515 30.2046 14.8162C30.568 15.1809 30.8523 15.6165 31.04 16.0959C31.2276 16.5753 31.3146 17.0882 31.2954 17.6026C31.2762 18.1171 31.1513 18.6221 30.9284 19.0862C30.7055 19.5502 30.3895 19.9634 30 20.3001Z" fill="#0A9386"/>
<path d="M17.13 19.85L11.64 14.36C11.204 13.9273 10.6871 13.5847 10.1187 13.3518C9.55031 13.1188 8.94161 13.0002 8.32735 13.0025C7.08679 13.0072 5.89891 13.5045 5.02503 14.385C4.15114 15.2655 3.66283 16.4571 3.66751 17.6977C3.6722 18.9382 4.16951 20.1261 5.05003 21L10.54 26.49L17.13 19.85ZM4.60003 17.65C4.60068 16.9088 4.82096 16.1844 5.23306 15.5683C5.64516 14.9522 6.23059 14.4721 6.91541 14.1886C7.60022 13.905 8.35371 13.8307 9.08071 13.9752C9.8077 14.1196 10.4756 14.4762 11 15L15.85 19.85L10.55 25.15L5.69003 20.3C4.99023 19.5958 4.59825 18.6428 4.60003 17.65Z" fill="#0A9386"/>
<path d="M16 23.05C16 23.4119 16.1073 23.7657 16.3084 24.0667C16.5095 24.3676 16.7953 24.6022 17.1297 24.7407C17.4641 24.8792 17.832 24.9154 18.187 24.8448C18.542 24.7742 18.8681 24.5999 19.124 24.344C19.3799 24.088 19.5542 23.762 19.6248 23.407C19.6954 23.052 19.6592 22.684 19.5207 22.3497C19.3822 22.0153 19.1476 21.7295 18.8467 21.5284C18.5458 21.3273 18.1919 21.22 17.83 21.22C17.3447 21.22 16.8792 21.4128 16.536 21.756C16.1928 22.0992 16 22.5646 16 23.05ZM17.83 22.14C18.0124 22.14 18.1906 22.1942 18.3421 22.2957C18.4937 22.3973 18.6116 22.5416 18.6809 22.7103C18.7502 22.8789 18.7678 23.0644 18.7315 23.2432C18.6952 23.4219 18.6066 23.5858 18.4769 23.7141C18.3473 23.8423 18.1824 23.9291 18.0033 23.9635C17.8242 23.9979 17.6389 23.9782 17.4709 23.907C17.303 23.8359 17.16 23.7164 17.0602 23.5638C16.9603 23.4112 16.908 23.2323 16.91 23.05C16.9099 22.927 16.9347 22.8053 16.9829 22.6922C17.0311 22.5791 17.1017 22.477 17.1905 22.3919C17.2793 22.3069 17.3844 22.2407 17.4995 22.1974C17.6145 22.1541 17.7372 22.1346 17.86 22.14H17.83Z" fill="#0A9386"/>
<path d="M23.8 27.6199C23.172 27.6233 22.5553 27.7879 22.009 28.0978C21.4628 28.4077 21.0052 28.8526 20.68 29.3899C20.5646 29.2431 20.4411 29.1029 20.31 28.9699L18.77 27.4299L8.52002 37.6799L10.06 39.2199C11.0394 40.1998 12.2793 40.8781 13.6327 41.1744C14.9861 41.4706 16.396 41.3723 17.6952 40.8912C18.9943 40.41 20.1282 39.5663 20.9621 38.46C21.7961 37.3537 22.2951 36.0314 22.4 34.6499C22.9016 34.8742 23.4472 34.9827 23.9965 34.9673C24.5457 34.9519 25.0844 34.8131 25.5726 34.5611C26.0609 34.3091 26.4861 33.9504 26.8168 33.5116C27.1475 33.0729 27.3752 32.5653 27.4829 32.0265C27.5907 31.4877 27.5757 30.9316 27.4392 30.3994C27.3027 29.8672 27.0482 29.3726 26.6944 28.9522C26.3406 28.5318 25.8968 28.1964 25.3957 27.971C24.8947 27.7456 24.3493 27.6358 23.8 27.6499V27.6199ZM16.3 38.4499L14.5 33.4499L19.5 35.2499C19.3006 36.0311 18.8945 36.7442 18.3244 37.3143C17.7543 37.8844 17.0412 38.2905 16.26 38.4899L16.3 38.4499ZM15.38 38.5899H15.18C14.5897 38.5924 14.0048 38.4779 13.459 38.253C12.9132 38.0282 12.4173 37.6974 12 37.2799L11.11 36.3899L13.67 33.8199L15.38 38.5899ZM19.68 34.2899L14.91 32.5899L17.48 29.9999L18.37 30.8899C18.7893 31.3064 19.1219 31.8019 19.3485 32.3477C19.5751 32.8936 19.6911 33.4789 19.69 34.0699C19.69 34.1399 19.69 34.1999 19.69 34.2699L19.68 34.2899ZM15.18 40.4299C14.3473 40.4319 13.5225 40.2685 12.7535 39.9492C11.9845 39.6299 11.2865 39.1611 10.7 38.5699L9.82002 37.6799L10.46 37.0399L11.35 37.9299C11.8467 38.4626 12.4456 38.8897 13.1111 39.1857C13.7765 39.4817 14.4947 39.6406 15.2229 39.6528C15.9511 39.6651 16.6743 39.5304 17.3493 39.2569C18.0243 38.9835 18.6372 38.5767 19.1516 38.0611C19.6659 37.5454 20.071 36.9314 20.3427 36.2557C20.6144 35.58 20.7472 34.8565 20.733 34.1283C20.7189 33.4002 20.5581 32.6823 20.2604 32.0177C19.9626 31.353 19.534 30.7552 19 30.2599L18.12 29.3699L18.76 28.7299L19.65 29.6199C20.2418 30.2039 20.7111 30.9 21.0304 31.6675C21.3498 32.4351 21.5129 33.2586 21.51 34.0899C21.5074 35.7706 20.8386 37.3817 19.6502 38.5701C18.4617 39.7585 16.8507 40.4273 15.17 40.4299H15.18ZM23.8 33.9999C23.31 33.9975 22.8298 33.8628 22.41 33.6099C22.3373 32.3863 21.9517 31.2018 21.29 30.1699C21.538 29.5889 21.9792 29.1114 22.5389 28.8184C23.0985 28.5253 23.7423 28.4346 24.3611 28.5616C24.98 28.6887 25.5359 29.0257 25.9348 29.5156C26.3337 30.0055 26.551 30.6182 26.55 31.2499C26.5474 31.9785 26.2568 32.6764 25.7417 33.1916C25.2265 33.7067 24.5286 33.9973 23.8 33.9999Z" fill="#0A9386"/>
<path d="M23.8 29.45V30.37C24.0423 30.3699 24.2748 30.4655 24.447 30.6359C24.6193 30.8062 24.7174 31.0377 24.72 31.28H25.63C25.63 30.7946 25.4372 30.3291 25.094 29.9859C24.7508 29.6428 24.2853 29.45 23.8 29.45Z" fill="#0A9386"/>
<path d="M12.83 30.8201C12.834 30.1864 12.6496 29.5657 12.3004 29.0369C11.9512 28.508 11.4529 28.0947 10.8685 27.8495C10.2841 27.6042 9.6401 27.538 9.01805 27.6592C8.396 27.7804 7.82395 28.0836 7.37442 28.5303C6.92489 28.977 6.61812 29.5471 6.49302 30.1684C6.36792 30.7897 6.43011 31.4341 6.67171 32.02C6.91331 32.6059 7.32344 33.1069 7.85011 33.4594C8.37677 33.8119 8.99624 34.0001 9.62999 34.0001C10.4744 33.9975 11.2838 33.6623 11.8828 33.067C12.4818 32.4718 12.8221 31.6645 12.83 30.8201ZM7.33999 30.8201C7.33999 30.3672 7.4743 29.9244 7.72593 29.5478C7.97756 29.1713 8.3352 28.8777 8.75365 28.7044C9.17209 28.5311 9.63253 28.4857 10.0767 28.5741C10.521 28.6625 10.929 28.8806 11.2493 29.2008C11.5695 29.5211 11.7876 29.9291 11.876 30.3733C11.9644 30.8176 11.919 31.278 11.7457 31.6964C11.5724 32.1149 11.2788 32.4725 10.9022 32.7242C10.5257 32.9758 10.0829 33.1101 9.62999 33.1101C9.02265 33.1101 8.44018 32.8688 8.01072 32.4394C7.58126 32.0099 7.33999 31.4274 7.33999 30.8201Z" fill="#0A9386"/>
<path d="M9.63 29.45C9.26573 29.4499 8.91623 29.594 8.65771 29.8506C8.3992 30.1072 8.25264 30.4557 8.25 30.82H9.17C9.16999 30.76 9.18195 30.7007 9.20518 30.6454C9.22842 30.5901 9.26247 30.5401 9.30532 30.4982C9.34817 30.4562 9.39896 30.4233 9.45472 30.4013C9.51048 30.3793 9.57007 30.3686 9.63 30.37V29.45Z" fill="#0A9386"/>
<path d="M9.53002 6.31008L7.45002 4.81008L6.52002 5.22008L7.41002 7.22008L6.41002 7.64008L3.90002 2.00008L5.78002 1.16008C6.02448 1.01315 6.29847 0.922226 6.58228 0.893852C6.86608 0.865477 7.15265 0.900358 7.42136 0.995985C7.69007 1.09161 7.93425 1.24561 8.13632 1.44689C8.3384 1.64818 8.49335 1.89175 8.59002 2.16008C8.76814 2.50881 8.82835 2.90589 8.76164 3.29174C8.69493 3.67759 8.50488 4.03141 8.22002 4.30008L10.58 5.85008L9.53002 6.31008ZM6.11002 4.44008L7.00002 4.00008C7.14387 3.95851 7.27655 3.88516 7.38826 3.78546C7.49997 3.68575 7.58787 3.56223 7.64546 3.42401C7.70305 3.2858 7.72887 3.13641 7.721 2.98688C7.71314 2.83735 7.67179 2.6915 7.60002 2.56008C7.55541 2.41395 7.47791 2.27998 7.37346 2.16847C7.26901 2.05695 7.1404 1.97085 6.99749 1.91678C6.85459 1.8627 6.70119 1.8421 6.54908 1.85654C6.39698 1.87098 6.2502 1.92009 6.12002 2.00008L5.21002 2.40008L6.11002 4.44008Z" fill="#0A9386"/>
<path d="M9.79002 0.669986C9.75971 0.600787 9.74616 0.52541 9.75048 0.449988C9.75479 0.374565 9.77685 0.301226 9.81486 0.235936C9.85286 0.170645 9.90574 0.115247 9.96919 0.0742475C10.0326 0.0332478 10.1049 0.00780412 10.18 -1.40853e-05C10.2466 -0.0283811 10.3189 -0.0409781 10.3912 -0.0368227C10.4634 -0.0326673 10.5338 -0.0118718 10.5967 0.023942C10.6596 0.0597557 10.7134 0.109619 10.7539 0.169644C10.7943 0.229669 10.8204 0.298232 10.83 0.369986C10.8568 0.436161 10.8677 0.507652 10.8621 0.578802C10.8564 0.649953 10.8343 0.71881 10.7974 0.779928C10.7606 0.841046 10.71 0.892747 10.6497 0.93094C10.5894 0.969134 10.521 0.992772 10.45 0.999986C10.3855 1.02825 10.3156 1.04199 10.2452 1.04021C10.1748 1.03843 10.1057 1.02118 10.0427 0.989684C9.97969 0.958191 9.9244 0.913225 9.88074 0.857975C9.83707 0.802725 9.8061 0.738545 9.79002 0.669986ZM10.15 1.66999L11 1.42999L12.1 5.56999L11.25 5.79999L10.15 1.66999Z" fill="#0A9386"/>
<path d="M12.64 3.1999C12.568 2.9227 12.5564 2.63328 12.6059 2.35121C12.6554 2.06913 12.765 1.80098 12.9271 1.5649C13.0892 1.32882 13.3001 1.13031 13.5456 0.982803C13.7911 0.835295 14.0654 0.742228 14.35 0.709899C14.8462 0.623035 15.3568 0.7266 15.78 0.999899L15.66 1.7599C15.5037 1.63176 15.3227 1.53721 15.1283 1.48215C14.9339 1.42709 14.7302 1.41271 14.53 1.4399C13.76 1.5399 13.4 2.1299 13.53 3.0899C13.66 4.0499 14.13 4.5199 14.88 4.4199C15.3284 4.34988 15.731 4.10546 16 3.7399L16.29 4.4499C16.1206 4.65789 15.9112 4.8297 15.6741 4.95511C15.4371 5.08052 15.1772 5.15697 14.91 5.1799C13.65 5.3399 12.83 4.6299 12.64 3.1999Z" fill="#0A9386"/>
<path d="M16.9 2.70995C17 1.26995 17.77 0.509946 19.06 0.599946C20.35 0.689946 21 1.53995 20.93 2.99995C20.86 4.45995 20.06 5.18995 18.76 5.10995C17.46 5.02995 16.8 4.14995 16.9 2.70995ZM20 2.91995C20.07 1.91995 19.71 1.38995 19 1.33995C18.29 1.28995 17.83 1.79995 17.77 2.76995C17.71 3.73995 18.06 4.28995 18.77 4.32995C19.48 4.36995 20 3.88995 20 2.91995Z" fill="#0A9386"/>
<path d="M23.83 3.5899C24.29 2.2199 25.24 1.6899 26.42 2.0899C27.6 2.4899 27.86 3.3399 27.42 4.5799C27.3891 4.69441 27.3455 4.8051 27.29 4.9099L24.64 3.9999C24.5573 4.15592 24.5114 4.32875 24.5056 4.50522C24.4999 4.68169 24.5345 4.85714 24.6068 5.01821C24.6792 5.17928 24.7873 5.3217 24.923 5.43464C25.0587 5.54758 25.2184 5.62804 25.39 5.6699C25.8633 5.85068 26.3867 5.85068 26.86 5.6699L26.73 6.3899C26.1725 6.60028 25.5575 6.60028 25 6.3899C23.8 5.9999 23.37 4.9999 23.83 3.5899ZM26.64 4.0999C26.87 3.4399 26.7 2.9699 26.16 2.7899C26.0271 2.73902 25.885 2.71706 25.743 2.72549C25.601 2.73392 25.4624 2.77256 25.3365 2.83881C25.2106 2.90507 25.1003 2.99742 25.013 3.10969C24.9256 3.22197 24.8632 3.35159 24.83 3.4899L26.64 4.0999Z" fill="#0A9386"/>
<path d="M32.06 5.99988L30.55 8.80988L29.77 8.39988L31.14 5.82988C31.1898 5.75138 31.2222 5.66312 31.235 5.57104C31.2477 5.47896 31.2406 5.38521 31.2141 5.29611C31.1876 5.20702 31.1422 5.12465 31.0811 5.05457C31.02 4.9845 30.9446 4.92834 30.86 4.88988C30.6706 4.80787 30.4664 4.76556 30.26 4.76556C30.0536 4.76556 29.8494 4.80787 29.66 4.88988L28.22 7.56988L27.44 7.14988L29.44 3.37988L30.07 3.70988L29.85 4.28988C30.1178 4.18421 30.4048 4.13584 30.6924 4.14789C30.9801 4.15995 31.262 4.23217 31.52 4.35988C31.6736 4.41993 31.8121 4.51318 31.9255 4.63295C32.0389 4.75273 32.1245 4.89607 32.1761 5.05275C32.2277 5.20943 32.244 5.37557 32.224 5.5393C32.2039 5.70303 32.1479 5.8603 32.06 5.99988Z" fill="#0A9386"/>
<path d="M2 41.47L2.87 42.13L1.22 47.22H1.27L5.71 44.22L6.56 44.87L1 48.5L0 47.73L2 41.47Z" fill="#0A9386"/>
<path d="M6.06 46.6499L6.84 47.0599L4.84 50.8499L4.06 50.4299L6.06 46.6499ZM6.47 45.6499C6.49582 45.582 6.53705 45.521 6.59045 45.4716C6.64385 45.4223 6.70795 45.3861 6.77773 45.3657C6.84751 45.3454 6.92105 45.3415 6.99259 45.3544C7.06412 45.3672 7.1317 45.3965 7.19 45.4399C7.31067 45.5036 7.40112 45.6126 7.44144 45.7429C7.48176 45.8732 7.46865 46.0143 7.405 46.1349C7.34135 46.2556 7.23236 46.346 7.10203 46.3864C6.97169 46.4267 6.83067 46.4136 6.71 46.3499C6.64729 46.3268 6.59037 46.2903 6.54322 46.2429C6.49606 46.1955 6.4598 46.1384 6.43696 46.0756C6.41411 46.0128 6.40523 45.9457 6.41094 45.8791C6.41665 45.8125 6.4368 45.7479 6.47 45.6899V45.6499Z" fill="#0A9386"/>
<path d="M8.51999 52.2901C8.25496 52.3153 7.9877 52.2776 7.73999 52.18C7.58455 52.1409 7.44002 52.067 7.31726 51.964C7.1945 51.8609 7.09671 51.7313 7.03126 51.585C6.9658 51.4387 6.93438 51.2794 6.93935 51.1192C6.94433 50.959 6.98558 50.802 7.05999 50.66L7.99999 48.41L7.37999 48.17L7.82999 47.5401L8.26999 47.71L8.82999 46.3L9.64999 46.62L8.99999 48L9.78999 48.3101L9.54999 49L8.76999 48.69L7.88999 51C7.8587 51.0546 7.84007 51.1156 7.8355 51.1783C7.83092 51.2411 7.84051 51.3041 7.86355 51.3627C7.88659 51.4212 7.92249 51.4739 7.96861 51.5167C8.01473 51.5595 8.06988 51.5914 8.12999 51.6101C8.26005 51.6647 8.39899 51.6952 8.53999 51.7001L8.51999 52.2901Z" fill="#0A9386"/>
<path d="M13.66 50.6101L13 53.5501L12.28 53.3901V52.8701C11.8257 53.1678 11.2741 53.2788 10.74 53.1801C10.5795 53.1564 10.4258 53.0987 10.2894 53.0109C10.1529 52.923 10.0368 52.8071 9.94877 52.6708C9.86074 52.5345 9.80281 52.3809 9.77888 52.2204C9.75495 52.0599 9.76556 51.8962 9.81 51.7401C10.03 50.7401 11.07 50.3701 12.68 50.7401L12.76 50.3701C12.84 50.0001 12.64 49.7201 12.12 49.6101C11.6383 49.5209 11.1427 49.5414 10.67 49.6701L10.66 49.0001C11.2492 48.8331 11.8697 48.8091 12.47 48.9301C12.6658 48.9455 12.8559 49.0038 13.0267 49.1008C13.1975 49.1978 13.3449 49.3311 13.4584 49.4914C13.572 49.6517 13.6489 49.835 13.6837 50.0283C13.7185 50.2216 13.7104 50.4202 13.66 50.6101ZM11.28 52.6101C11.6639 52.6749 12.058 52.5889 12.38 52.3701L12.62 51.2801C11.56 51.0501 10.9 51.2801 10.78 51.8401C10.7596 51.9218 10.7565 52.0069 10.7712 52.0899C10.7858 52.1729 10.8177 52.2518 10.8649 52.3216C10.9121 52.3914 10.9734 52.4505 11.0449 52.4951C11.1165 52.5396 11.1965 52.5686 11.28 52.5801V52.6101Z" fill="#0A9386"/>
<path d="M21.35 50.4199L21.5 53.6199L20.62 53.6699L20.48 50.7599C20.4822 50.6666 20.4642 50.5738 20.4273 50.488C20.3904 50.4023 20.3354 50.3254 20.2661 50.2628C20.1968 50.2002 20.1149 50.1532 20.0258 50.1251C19.9368 50.097 19.8427 50.0884 19.75 50.0999C19.3482 50.1671 18.9889 50.3899 18.75 50.7199L18.9 53.7199H18.02L17.88 50.8099C17.8805 50.717 17.8615 50.6251 17.824 50.5401C17.7865 50.4551 17.7316 50.3789 17.6627 50.3166C17.5938 50.2543 17.5125 50.2073 17.4241 50.1786C17.3358 50.1498 17.2424 50.1401 17.15 50.1499C16.95 50.18 16.7582 50.2504 16.5862 50.357C16.4143 50.4636 16.2659 50.6041 16.15 50.7699L16.3 53.7699H15.42L15.21 49.4899H15.92L16.03 50.0999C16.2026 49.8714 16.4223 49.6826 16.6742 49.5463C16.9261 49.41 17.2043 49.3294 17.49 49.3099C17.7382 49.2756 17.9908 49.3248 18.208 49.4497C18.4253 49.5746 18.5948 49.7681 18.69 49.9999C18.8474 49.7585 19.0602 49.5581 19.3107 49.4155C19.5611 49.2728 19.842 49.1921 20.13 49.1799C20.2959 49.164 20.4633 49.1853 20.6199 49.2423C20.7766 49.2993 20.9185 49.3905 21.0354 49.5093C21.1523 49.6281 21.2412 49.7715 21.2956 49.9291C21.3501 50.0866 21.3686 50.2543 21.35 50.4199Z" fill="#0A9386"/>
<path d="M22.1 47.88C22.0736 47.8126 22.0629 47.74 22.0685 47.6678C22.0742 47.5956 22.0961 47.5256 22.1327 47.4631C22.1693 47.4005 22.2195 47.3471 22.2796 47.3067C22.3398 47.2664 22.4083 47.2401 22.48 47.23C22.5468 47.2037 22.6186 47.1927 22.6901 47.1977C22.7617 47.2028 22.8312 47.2239 22.8936 47.2594C22.956 47.2949 23.0096 47.3439 23.0505 47.4029C23.0914 47.4618 23.1186 47.5292 23.13 47.6C23.1566 47.6655 23.1678 47.7362 23.1627 47.8066C23.1576 47.8771 23.1364 47.9455 23.1006 48.0064C23.0648 48.0673 23.0155 48.1192 22.9564 48.158C22.8973 48.1968 22.8301 48.2214 22.76 48.23C22.6943 48.2602 22.6226 48.2749 22.5503 48.2728C22.4781 48.2708 22.4073 48.2521 22.3435 48.2182C22.2796 48.1844 22.2244 48.1362 22.1822 48.0776C22.14 48.0189 22.1118 47.9513 22.1 47.88ZM22.46 48.88L23.31 48.65L24.44 52.78L23.59 53.02L22.46 48.88Z" fill="#0A9386"/>
<path d="M28.22 47.8099L29.54 50.7299L28.74 51.0999L27.54 48.4399C27.5058 48.354 27.4539 48.2763 27.3877 48.2117C27.3215 48.1471 27.2424 48.0972 27.1557 48.0652C27.0689 48.0331 26.9764 48.0196 26.8841 48.0256C26.7919 48.0316 26.7019 48.0569 26.62 48.0999C26.4403 48.2006 26.2829 48.3367 26.1575 48.5C26.032 48.6633 25.941 48.8504 25.89 49.0499L27.14 51.8199L26.34 52.1799L24.57 48.2799L25.22 47.9899L25.55 48.5199C25.6257 48.2421 25.7605 47.9839 25.9452 47.763C26.1298 47.5421 26.36 47.3637 26.62 47.2399C26.7601 47.16 26.9158 47.1113 27.0764 47.0971C27.2371 47.0829 27.3989 47.1036 27.5508 47.1577C27.7027 47.2118 27.8412 47.2981 27.9567 47.4107C28.0722 47.5233 28.162 47.6594 28.22 47.8099Z" fill="#0A9386"/>
<path d="M32.18 45.3201L34 47.7501L33.41 48.1901L33 47.8101C32.9319 48.3521 32.6514 48.8449 32.22 49.1801C32.095 49.2839 31.9494 49.36 31.7928 49.4034C31.6362 49.4469 31.4722 49.4566 31.3116 49.432C31.151 49.4075 30.9974 49.3491 30.8609 49.2609C30.7245 49.1727 30.6083 49.0565 30.52 48.9201C29.91 48.0901 30.33 47.0701 31.67 46.0901L31.44 45.7901C31.22 45.4801 30.88 45.4501 30.44 45.7901C30.051 46.0915 29.7363 46.4781 29.52 46.9201L29 46.5201C29.2648 45.9647 29.6592 45.4812 30.15 45.1101C30.2903 44.976 30.4581 44.874 30.6417 44.8112C30.8254 44.7484 31.0205 44.7262 31.2135 44.7461C31.4066 44.7661 31.593 44.8278 31.7598 44.9269C31.9267 45.026 32.0701 45.1601 32.18 45.3201ZM32.07 48.4201C32.3763 48.1708 32.5735 47.8122 32.62 47.4201L31.96 46.5201C31.09 47.1601 30.8 47.7801 31.16 48.2701C31.2046 48.346 31.2653 48.4112 31.3378 48.461C31.4104 48.5108 31.493 48.544 31.5798 48.5584C31.6667 48.5727 31.7556 48.5677 31.8403 48.5438C31.925 48.5199 32.0034 48.4777 32.07 48.4201Z" fill="#0A9386"/>
<path d="M35.08 46.3299L34.56 45.7599C35.0909 45.5741 35.5705 45.2657 35.96 44.8599C36.28 44.4999 36.36 44.1599 36.08 43.8599C35.8 43.5599 35.36 43.8599 34.89 44.1399C34.42 44.4199 33.6 44.8799 33 44.3399C32.4 43.7999 32.52 43.0099 33.09 42.3399C33.4363 41.9631 33.8501 41.6545 34.31 41.4299L34.81 41.9699C34.3784 42.1515 33.9849 42.4127 33.65 42.7399C33.38 43.0499 33.32 43.3999 33.55 43.6099C33.78 43.8199 34.18 43.6099 34.61 43.3499C35.2 42.9699 35.94 42.5799 36.61 43.1499C37.28 43.7199 37.15 44.5799 36.47 45.3299C36.1136 45.7912 35.6306 46.1387 35.08 46.3299Z" fill="#0A9386"/>
</g>
<defs>
<clipPath id="clip0_2502_6867">
<rect width="37.02" height="53.93" fill="white"/>
</clipPath>
</defs>
</svg>
