<svg width="43" height="54" viewBox="0 0 43 54" fill="none" xmlns="http://www.w3.org/2000/svg">
<g clip-path="url(#clip0_2502_6892)">
<path d="M15.26 13.3901C16.9368 12.6013 18.7578 12.1656 20.61 12.1101C20.7255 12.0869 20.8294 12.0244 20.9041 11.9333C20.9787 11.8421 21.0195 11.7279 21.0195 11.6101C21.0195 11.4923 20.9787 11.3781 20.9041 11.287C20.8294 11.1958 20.7255 11.1333 20.61 11.1101C18.6271 11.1754 16.678 11.6415 14.88 12.4801C14.8183 12.509 14.7631 12.5499 14.7175 12.6004C14.6719 12.651 14.6368 12.7102 14.6145 12.7745C14.5921 12.8388 14.5828 12.9069 14.5872 12.9749C14.5916 13.0428 14.6095 13.1092 14.64 13.1701C14.7 13.2853 14.8018 13.3732 14.9244 13.4159C15.0471 13.4587 15.1814 13.453 15.3 13.4001L15.26 13.3901ZM9.11 18.1101C9.21583 18.1824 9.34541 18.2114 9.47196 18.1909C9.59851 18.1704 9.71236 18.1021 9.79 18.0001C10.8516 16.4778 12.2127 15.1882 13.79 14.2101C13.8995 14.1419 13.9776 14.0334 14.0076 13.908C14.0375 13.7825 14.0169 13.6504 13.95 13.5401C13.9169 13.4812 13.8723 13.4296 13.8188 13.3884C13.7652 13.3472 13.7039 13.3173 13.6385 13.3005C13.573 13.2837 13.5049 13.2803 13.4381 13.2905C13.3714 13.3008 13.3074 13.3245 13.25 13.3601C11.5763 14.4035 10.1307 15.7742 9 17.3901C8.92344 17.5043 8.89519 17.6441 8.92143 17.779C8.94766 17.9139 9.02624 18.033 9.14 18.1101H9.11ZM6.83 25.1101C6.9584 25.1184 7.0849 25.0758 7.18219 24.9916C7.27949 24.9075 7.33976 24.7884 7.35 24.6601C7.50852 22.8116 8.04276 21.0149 8.92 19.3801C8.95266 19.3185 8.9721 19.2508 8.97704 19.1813C8.98199 19.1117 8.97235 19.042 8.94873 18.9764C8.92511 18.9108 8.88804 18.8509 8.8399 18.8005C8.79176 18.75 8.73361 18.7103 8.66919 18.6837C8.60476 18.657 8.53548 18.6442 8.4658 18.6459C8.39612 18.6477 8.32757 18.664 8.26455 18.6938C8.20154 18.7236 8.14545 18.7662 8.09989 18.819C8.05433 18.8717 8.02031 18.9334 8 19.0001C7.0622 20.7463 6.49054 22.6654 6.32 24.6401C6.31456 24.7079 6.32274 24.7761 6.34405 24.8407C6.36537 24.9053 6.39939 24.965 6.44412 25.0162C6.48884 25.0675 6.54337 25.1093 6.60449 25.1391C6.66561 25.169 6.73208 25.1863 6.8 25.1901L6.83 25.1101ZM8.6 31.7201C7.8136 30.0385 7.37483 28.2154 7.31 26.3601C7.3087 26.2958 7.29473 26.2323 7.2689 26.1733C7.24306 26.1144 7.20587 26.0611 7.15944 26.0165C7.11301 25.9719 7.05825 25.937 6.99829 25.9136C6.93833 25.8901 6.87435 25.8788 6.81 25.8801C6.74215 25.8814 6.67524 25.8962 6.61319 25.9237C6.55114 25.9511 6.49519 25.9907 6.44863 26.04C6.40207 26.0894 6.36582 26.1476 6.34201 26.2111C6.31821 26.2746 6.30732 26.3423 6.31 26.4101C6.37528 28.3898 6.84134 30.3357 7.68 32.1301C7.70886 32.1918 7.74977 32.247 7.80033 32.2926C7.85089 32.3383 7.91007 32.3733 7.97438 32.3956C8.03869 32.418 8.10682 32.4273 8.17477 32.4229C8.24272 32.4185 8.3091 32.4006 8.37 32.3701C8.48443 32.312 8.57214 32.2121 8.61495 32.0911C8.65777 31.9701 8.65241 31.8373 8.6 31.7201ZM13.19 37.1801C11.6655 36.1211 10.3753 34.7595 9.4 33.1801C9.32014 33.0846 9.20809 33.0216 9.08497 33.0029C8.96186 32.9843 8.83618 33.0114 8.73165 33.079C8.62711 33.1467 8.55093 33.2502 8.51747 33.3701C8.484 33.4901 8.49557 33.6181 8.55 33.7301C9.58155 35.4088 10.9422 36.8613 12.55 38.0001C12.6641 38.0767 12.804 38.1049 12.9389 38.0787C13.0738 38.0524 13.1929 37.9739 13.27 37.8601C13.3403 37.7519 13.366 37.6207 13.3417 37.494C13.3175 37.3672 13.2452 37.2548 13.14 37.1801H13.19ZM19.9 39.6201C18.0515 39.4616 16.2548 38.9273 14.62 38.0501C14.502 37.9878 14.364 37.9749 14.2365 38.0143C14.109 38.0537 14.0023 38.1421 13.94 38.2601C13.8777 38.3781 13.8648 38.5161 13.9042 38.6436C13.9435 38.7711 14.032 38.8778 14.15 38.9401C15.8983 39.8813 17.8214 40.4531 19.8 40.6201C19.8678 40.6255 19.936 40.6174 20.0006 40.5961C20.0652 40.5747 20.1249 40.5407 20.1761 40.496C20.2274 40.4513 20.2692 40.3967 20.299 40.3356C20.3289 40.2745 20.3462 40.208 20.35 40.1401C20.3557 40.0123 20.3123 39.8872 20.2286 39.7905C20.1449 39.6937 20.0273 39.6328 19.9 39.6201ZM26.9 38.3701C25.2199 39.161 23.3959 39.6 21.54 39.6601C21.4074 39.6601 21.2802 39.7128 21.1864 39.8066C21.0927 39.9003 21.04 40.0275 21.04 40.1601C21.04 40.2927 21.0927 40.4199 21.1864 40.5137C21.2802 40.6074 21.4074 40.6601 21.54 40.6601C23.5231 40.5962 25.4725 40.1301 27.27 39.2901C27.3317 39.2612 27.3869 39.2203 27.4325 39.1698C27.4781 39.1192 27.5132 39.06 27.5355 38.9957C27.5579 38.9314 27.5672 38.8633 27.5628 38.7953C27.5584 38.7274 27.5404 38.661 27.51 38.6001C27.4519 38.4857 27.352 38.398 27.231 38.3551C27.11 38.3123 26.9772 38.3177 26.86 38.3701H26.9ZM33.04 33.6601C32.9338 33.5863 32.8027 33.5575 32.6753 33.58C32.5479 33.6025 32.4346 33.6744 32.36 33.7801C31.2984 35.3024 29.9373 36.5921 28.36 37.5701C28.2498 37.6401 28.1714 37.7505 28.1415 37.8775C28.1117 38.0046 28.1326 38.1383 28.2 38.2501C28.2704 38.3653 28.3836 38.448 28.5149 38.4798C28.6461 38.5117 28.7846 38.4902 28.9 38.4201C30.5864 37.3741 32.0426 35.9962 33.18 34.3701C33.219 34.3148 33.2464 34.2522 33.2605 34.186C33.2746 34.1199 33.2751 34.0515 33.262 33.9851C33.2489 33.9188 33.2225 33.8557 33.1843 33.7999C33.1462 33.744 33.0971 33.6964 33.04 33.6601ZM35.32 26.6601C35.1906 26.6545 35.0641 26.6993 34.9671 26.7851C34.8702 26.8709 34.8102 26.991 34.8 27.1201C34.6387 28.9681 34.1046 30.7642 33.23 32.4001C33.1696 32.5143 33.1568 32.6477 33.1942 32.7712C33.2317 32.8948 33.3164 32.9987 33.43 33.0601C33.4882 33.0934 33.5524 33.1146 33.619 33.1225C33.6855 33.1305 33.753 33.1249 33.8174 33.1063C33.8817 33.0876 33.9417 33.0562 33.9937 33.0139C34.0457 32.9716 34.0886 32.9193 34.12 32.8601C35.058 31.1105 35.6297 29.188 35.8 27.2101C35.8054 27.1423 35.7973 27.0741 35.7759 27.0095C35.7546 26.9449 35.7206 26.8852 35.6759 26.834C35.6311 26.7827 35.5766 26.7409 35.5155 26.7111C35.4544 26.6812 35.3879 26.6639 35.32 26.6601ZM33.55 20.0901C34.3374 21.7678 34.7763 23.5879 34.84 25.4401C34.8413 25.5045 34.8553 25.5679 34.8811 25.6269C34.9069 25.6858 34.9441 25.7391 34.9906 25.7837C35.037 25.8283 35.0917 25.8633 35.1517 25.8867C35.2117 25.9101 35.2756 25.9214 35.34 25.9201C35.407 25.9188 35.473 25.9043 35.5344 25.8775C35.5958 25.8506 35.6513 25.812 35.6977 25.7637C35.7442 25.7154 35.7806 25.6584 35.805 25.5961C35.8294 25.5337 35.8413 25.4671 35.84 25.4001C35.7736 23.4174 35.3076 21.4685 34.47 19.6701C34.4044 19.5652 34.3028 19.4876 34.1843 19.452C34.0658 19.4164 33.9383 19.4251 33.8257 19.4765C33.7132 19.5279 33.6231 19.6185 33.5724 19.7314C33.5216 19.8443 33.5137 19.9718 33.55 20.0901ZM29 14.5801C30.5223 15.6417 31.8119 17.0028 32.79 18.5801C32.8582 18.6896 32.9667 18.7678 33.0921 18.7977C33.2176 18.8277 33.3497 18.807 33.46 18.7401C33.5189 18.7071 33.5705 18.6624 33.6117 18.6089C33.6529 18.5553 33.6828 18.494 33.6996 18.4286C33.7164 18.3632 33.7198 18.295 33.7096 18.2282C33.6993 18.1615 33.6757 18.0975 33.64 18.0401C32.5938 16.3566 31.2158 14.9038 29.59 13.7701C29.5368 13.7314 29.4765 13.7035 29.4126 13.688C29.3486 13.6726 29.2822 13.6699 29.2172 13.6801C29.1522 13.6903 29.0899 13.7133 29.0337 13.7476C28.9776 13.7819 28.9287 13.8269 28.89 13.8801C28.8513 13.9333 28.8234 13.9936 28.8079 14.0576C28.7925 14.1215 28.7898 14.1879 28.8 14.2529C28.8102 14.3179 28.8332 14.3802 28.8675 14.4364C28.9018 14.4925 28.9468 14.5414 29 14.5801ZM22.29 12.1501C24.1388 12.3002 25.9365 12.8313 27.57 13.7101C27.6845 13.7718 27.8184 13.7864 27.9435 13.7509C28.0686 13.7155 28.1749 13.6327 28.24 13.5201C28.2735 13.4612 28.2949 13.3961 28.3029 13.3288C28.311 13.2615 28.3055 13.1933 28.2869 13.1281C28.2683 13.063 28.2369 13.0022 28.1945 12.9493C28.1521 12.8964 28.0996 12.8525 28.04 12.8201C26.2892 11.8866 24.367 11.3184 22.39 11.1501C22.323 11.1446 22.2555 11.1525 22.1916 11.1732C22.1276 11.1939 22.0684 11.227 22.0172 11.2707C21.9661 11.3144 21.9241 11.3677 21.8937 11.4277C21.8633 11.4877 21.845 11.5531 21.84 11.6201C21.8341 11.749 21.8772 11.8753 21.9607 11.9737C22.0442 12.072 22.1619 12.1351 22.29 12.1501ZM23.14 24.5101C23.1151 24.2626 22.9989 24.0332 22.814 23.8668C22.6291 23.7004 22.3888 23.6089 22.14 23.6101C21.0454 23.5989 19.9714 23.3105 19.0184 22.7719C18.0654 22.2333 17.2643 21.462 16.69 20.5301C16.5638 20.3389 16.3757 20.1968 16.1573 20.1276C15.9388 20.0584 15.7033 20.0664 15.49 20.1501H15.42C15.2901 20.2102 15.1747 20.2975 15.0814 20.4061C14.9882 20.5146 14.9193 20.6419 14.8795 20.7794C14.8397 20.9168 14.8299 21.0612 14.8507 21.2028C14.8714 21.3444 14.9224 21.4799 15 21.6001C15.7648 22.8069 16.8179 23.8044 18.0644 24.5027C19.3108 25.201 20.7114 25.5781 22.14 25.6001C22.2756 25.6003 22.4099 25.5729 22.5346 25.5195C22.6593 25.4661 22.7718 25.388 22.8654 25.2898C22.9589 25.1915 23.0315 25.0753 23.0787 24.9482C23.1259 24.821 23.1468 24.6856 23.14 24.5501V24.5101ZM18 15.8301V15.7501C17.973 15.6061 17.9148 15.4698 17.8293 15.3508C17.7439 15.2319 17.6333 15.1331 17.5055 15.0616C17.3777 14.99 17.2357 14.9474 17.0896 14.9368C16.9435 14.9262 16.7968 14.9478 16.66 15.0001C15.312 15.4653 14.0999 16.2564 13.1316 17.3033C12.1633 18.3501 11.4689 19.62 11.11 21.0001C11.0794 21.1323 11.0761 21.2694 11.1002 21.4029C11.1243 21.5365 11.1753 21.6637 11.2501 21.7769C11.325 21.8901 11.4221 21.9869 11.5355 22.0614C11.649 22.1359 11.7764 22.1865 11.91 22.2101H12C12.2392 22.2402 12.4811 22.183 12.6814 22.0488C12.8817 21.9147 13.0268 21.7127 13.09 21.4801C13.3512 20.4168 13.8769 19.4367 14.6181 18.6307C15.3594 17.8248 16.2922 17.2192 17.33 16.8701C17.5422 16.7971 17.7236 16.6548 17.8451 16.4661C17.9666 16.2775 18.0212 16.0535 18 15.8301ZM14.4 23.3401H14.32C14.1827 23.3082 14.0402 23.3056 13.9019 23.3326C13.7636 23.3596 13.6325 23.4156 13.5173 23.4968C13.4021 23.578 13.3054 23.6826 13.2335 23.8038C13.1616 23.925 13.1161 24.0601 13.1 24.2001C12.9761 25.6252 13.2072 27.0588 13.7726 28.3727C14.338 29.6867 15.22 30.8402 16.34 31.7301C16.4484 31.8116 16.5723 31.8702 16.704 31.9024C16.8358 31.9345 16.9727 31.9395 17.1065 31.9171C17.2403 31.8946 17.3681 31.8452 17.4821 31.7718C17.5962 31.6984 17.6941 31.6026 17.77 31.4901C17.8972 31.2836 17.9451 31.0379 17.9046 30.7987C17.8641 30.5596 17.7381 30.3433 17.55 30.1901C16.6866 29.5174 16.0067 28.6379 15.5732 27.6329C15.1397 26.6278 14.9667 25.5297 15.07 24.4401C15.0795 24.2183 15.0148 23.9996 14.8863 23.8185C14.7577 23.6374 14.5726 23.5043 14.36 23.4401L14.4 23.3401ZM18 37.0001C18.133 37.0212 18.2689 37.0153 18.3995 36.9826C18.5302 36.95 18.6529 36.8912 18.7603 36.81C18.8677 36.7287 18.9575 36.6266 19.0245 36.5098C19.0915 36.393 19.1342 36.2638 19.15 36.1301V36.0001C19.1547 35.7662 19.0772 35.538 18.9311 35.3552C18.7849 35.1725 18.5793 35.0469 18.35 35.0001C17.271 34.8102 16.2576 34.3502 15.4043 33.663C14.551 32.9758 13.8856 32.0838 13.47 31.0701C13.3766 30.8614 13.2145 30.6909 13.0107 30.5872C12.8069 30.4835 12.5737 30.4527 12.35 30.5001H12.28C12.1422 30.5354 12.0136 30.5998 11.9027 30.6888C11.7918 30.7778 11.7011 30.8894 11.6367 31.0162C11.5724 31.143 11.5358 31.2821 11.5295 31.4242C11.5231 31.5663 11.5472 31.7081 11.6 31.8401C12.1542 33.1641 13.0296 34.3292 14.147 35.2301C15.2643 36.131 16.5886 36.7393 18 37.0001ZM20.24 15.4001V15.4601C20.1501 15.6839 20.1441 15.9327 20.2231 16.1605C20.3021 16.3884 20.4608 16.58 20.67 16.7001C21.6175 17.2271 22.4184 17.9825 22.9999 18.8976C23.5814 19.8126 23.9252 20.8585 24 21.9401C24.0214 22.1682 24.1204 22.3821 24.2806 22.5459C24.4408 22.7098 24.6524 22.8136 24.88 22.8401H24.95C25.0898 22.8473 25.2295 22.825 25.3602 22.7748C25.4908 22.7246 25.6094 22.6475 25.7084 22.5485C25.8074 22.4496 25.8845 22.3309 25.9347 22.2003C25.9849 22.0696 26.0072 21.9299 26 21.7901C25.891 20.3643 25.429 18.9881 24.6557 17.7853C23.8824 16.5825 22.8219 15.591 21.57 14.9001C21.4504 14.8373 21.3194 14.7994 21.1848 14.7886C21.0502 14.7779 20.9148 14.7945 20.7867 14.8374C20.6587 14.8804 20.5407 14.9489 20.4399 15.0387C20.339 15.1286 20.2574 15.2379 20.2 15.3601L20.24 15.4001ZM29.67 30.5901L29.73 30.6401C29.8436 30.7235 29.9736 30.7819 30.1113 30.8116C30.2491 30.8412 30.3916 30.8414 30.5294 30.8122C30.6673 30.7829 30.7974 30.7248 30.9112 30.6418C31.0251 30.5587 31.1201 30.4525 31.19 30.3301C31.8683 29.0718 32.2234 27.6646 32.2234 26.2351C32.2234 24.8056 31.8683 23.3984 31.19 22.1401C31.1239 22.0223 31.0346 21.9191 30.9275 21.8367C30.8204 21.7544 30.6978 21.6946 30.5669 21.6609C30.4361 21.6273 30.2998 21.6205 30.1663 21.641C30.0327 21.6615 29.9047 21.7088 29.79 21.7801H29.73C29.5345 21.9194 29.3956 22.1243 29.3387 22.3574C29.2818 22.5906 29.3107 22.8364 29.42 23.0501C29.9496 24.0101 30.2274 25.0887 30.2274 26.1851C30.2274 27.2815 29.9496 28.3601 29.42 29.3201C29.315 29.5229 29.2825 29.7555 29.328 29.9792C29.3735 30.203 29.4942 30.4044 29.67 30.5501V30.5901ZM27.3 29.3401H27.24C27.023 29.2337 26.7747 29.2096 26.5413 29.2721C26.3078 29.3346 26.1049 29.4795 25.97 29.6801C25.3773 30.6025 24.5618 31.3609 23.5989 31.8852C22.6359 32.4095 21.5564 32.6829 20.46 32.6801C20.2261 32.6754 19.9979 32.7529 19.8151 32.899C19.6324 33.0452 19.5067 33.2508 19.46 33.4801V33.5601C19.4398 33.7027 19.4507 33.8479 19.4918 33.9859C19.533 34.1239 19.6034 34.2514 19.6984 34.3596C19.7933 34.4678 19.9105 34.5543 20.042 34.6131C20.1734 34.6718 20.316 34.7015 20.46 34.7001C21.8891 34.6954 23.295 34.3378 24.5528 33.6592C25.8106 32.9806 26.8813 32.002 27.67 30.8101C27.7429 30.695 27.7916 30.5662 27.813 30.4316C27.8343 30.297 27.828 30.1595 27.7943 30.0274C27.7605 29.8954 27.7002 29.7716 27.6169 29.6637C27.5336 29.5559 27.4292 29.4662 27.31 29.4001L27.3 29.3401ZM28.93 25.2201L28.18 24.4601C28.0611 24.3278 27.9164 24.2211 27.7549 24.1465C27.5934 24.072 27.4184 24.0311 27.2406 24.0263C27.0628 24.0216 26.8858 24.0531 26.7206 24.119C26.5553 24.1849 26.4052 24.2838 26.2794 24.4096C26.1537 24.5353 26.0548 24.6854 25.9889 24.8507C25.923 25.0159 25.8915 25.1929 25.8962 25.3707C25.9009 25.5485 25.9418 25.7235 26.0164 25.885C26.091 26.0466 26.1977 26.1912 26.33 26.3101L27.09 27.0701C27.2115 27.1909 27.3555 27.2866 27.514 27.3518C27.6725 27.4169 27.8422 27.4502 28.0135 27.4497C28.1849 27.4493 28.3544 27.4151 28.5125 27.3491C28.6706 27.2831 28.8142 27.1866 28.935 27.0651C29.0558 26.9436 29.1515 26.7996 29.2167 26.6411C29.2818 26.4826 29.3151 26.3129 29.3146 26.1416C29.3141 25.9702 29.2799 25.8007 29.2139 25.6426C29.148 25.4845 29.0515 25.3409 28.93 25.2201ZM29.6 20.1101C29.8449 19.8645 29.9824 19.5319 29.9824 19.1851C29.9824 18.8383 29.8449 18.5057 29.6 18.2601L28.84 17.5101C28.7185 17.3893 28.5744 17.2936 28.416 17.2284C28.2575 17.1633 28.0878 17.13 27.9165 17.1305C27.7451 17.131 27.5756 17.1652 27.4175 17.2312C27.2594 17.2971 27.1158 17.3936 26.995 17.5151C26.8742 17.6366 26.7785 17.7807 26.7133 17.9391C26.6482 18.0976 26.6149 18.2673 26.6154 18.4386C26.6158 18.61 26.6501 18.7795 26.716 18.9376C26.782 19.0957 26.8785 19.2393 27 19.3601L27.75 20.1101C27.9956 20.355 28.3282 20.4925 28.675 20.4925C29.0218 20.4925 29.3544 20.355 29.6 20.1101ZM21.05 20.6401C21.2949 20.3945 21.4324 20.0619 21.4324 19.7151C21.4324 19.3683 21.2949 19.0357 21.05 18.7901L20.3 18.0001C20.0506 17.7759 19.7247 17.6559 19.3894 17.6648C19.0542 17.6737 18.7351 17.8109 18.4979 18.048C18.2608 18.2852 18.1236 18.6043 18.1147 18.9395C18.1058 19.2748 18.2258 19.6007 18.45 19.8501L19.2 20.6001C19.4402 20.8504 19.7699 20.9951 20.1167 21.0026C20.4635 21.0101 20.7992 20.8797 21.05 20.6401ZM27.59 34.6401C27.4129 34.3427 27.126 34.1268 26.7912 34.0389C26.4563 33.951 26.1004 33.9981 25.8 34.1701L24.88 34.7101C24.7232 34.7923 24.5846 34.9055 24.4727 35.0427C24.3609 35.18 24.278 35.3385 24.2291 35.5087C24.1802 35.6789 24.1663 35.8573 24.1883 36.033C24.2103 36.2087 24.2677 36.3781 24.357 36.5311C24.4463 36.684 24.5657 36.8172 24.7079 36.9227C24.8502 37.0281 25.0123 37.1037 25.1846 37.1447C25.3569 37.1857 25.5357 37.1914 25.7102 37.1614C25.8847 37.1314 26.0513 37.0663 26.2 36.9701L27.12 36.4301C27.4174 36.253 27.6333 35.9661 27.7212 35.6313C27.8091 35.2965 27.762 34.9405 27.59 34.6401ZM21.9 27.9101L20.9 27.6701C20.7284 27.6199 20.5484 27.6054 20.371 27.6273C20.1936 27.6493 20.0226 27.7074 19.8685 27.798C19.7144 27.8885 19.5804 28.0097 19.4749 28.1539C19.3693 28.2982 19.2944 28.4626 19.2548 28.6369C19.2151 28.8112 19.2116 28.9917 19.2443 29.1675C19.2771 29.3432 19.3455 29.5104 19.4452 29.6587C19.545 29.807 19.6741 29.9333 19.8246 30.0299C19.975 30.1264 20.1436 30.1912 20.32 30.2201L21.32 30.4601C21.6592 30.5317 22.0131 30.467 22.305 30.2798C22.5969 30.0927 22.8034 29.7983 22.88 29.4601C22.9547 29.1247 22.8935 28.7733 22.7099 28.4829C22.5262 28.1924 22.235 27.9865 21.9 27.9101ZM9 25.2201L8.89 26.2801C8.87815 26.612 8.99278 26.9359 9.21069 27.1865C9.42861 27.4371 9.73356 27.5955 10.0639 27.6298C10.3941 27.6641 10.7251 27.5717 10.9899 27.3713C11.2547 27.1708 11.4334 26.8773 11.49 26.5501L11.6 25.4901C11.6194 25.3192 11.6047 25.1462 11.5568 24.981C11.5088 24.8158 11.4286 24.6618 11.3207 24.5279C11.2128 24.394 11.0794 24.2828 10.9282 24.2007C10.777 24.1187 10.6111 24.0675 10.44 24.0501C10.0943 24.0165 9.74931 24.1204 9.47976 24.3394C9.21021 24.5584 9.03783 24.8749 9 25.2201Z" fill="#0A9386"/>
<path d="M12.77 6.30995L10.68 4.80995L9.75 5.21995L10.64 7.21995L9.69 7.63995L7.13 1.99995L9 1.16995C9.24489 1.02483 9.51871 0.935389 9.80204 0.907956C10.0854 0.880523 10.3713 0.915776 10.6394 1.01121C10.9076 1.10665 11.1515 1.25993 11.3538 1.46018C11.5561 1.66044 11.7118 1.90275 11.81 2.16995C11.9946 2.52394 12.0583 2.92857 11.9915 3.32215C11.9247 3.71573 11.731 4.07667 11.44 4.34995L13.79 5.89995L12.77 6.30995ZM9.35001 4.43995L10.26 4.03995C10.4079 3.99765 10.544 3.92182 10.6578 3.81835C10.7715 3.71489 10.8599 3.58657 10.916 3.44339C10.9721 3.3002 10.9945 3.146 10.9813 2.99278C10.9681 2.83956 10.9198 2.69144 10.84 2.55995C10.7958 2.41233 10.7181 2.27692 10.613 2.16428C10.5078 2.05165 10.3781 1.96483 10.2338 1.91062C10.0896 1.85641 9.93476 1.83627 9.78145 1.85176C9.62814 1.86726 9.48048 1.91797 9.35001 1.99995L8.44 2.39995L9.35001 4.43995Z" fill="#0A9386"/>
<path d="M13 0.670107C12.9665 0.598882 12.9514 0.520385 12.9562 0.441818C12.9609 0.363252 12.9853 0.287132 13.0271 0.220443C13.0689 0.153754 13.1268 0.0986317 13.1954 0.0601339C13.2641 0.0216361 13.3413 0.000995662 13.42 0.000106536C13.486 -0.0284793 13.5577 -0.0412151 13.6294 -0.0370796C13.7012 -0.0329441 13.771 -0.0120524 13.8332 0.0239202C13.8954 0.0598929 13.9483 0.109945 13.9877 0.170064C14.0271 0.230183 14.0519 0.298695 14.06 0.370107C14.0868 0.436282 14.0977 0.507773 14.0921 0.578923C14.0864 0.650073 14.0643 0.718931 14.0274 0.780049C13.9906 0.841166 13.94 0.892867 13.8797 0.931061C13.8194 0.969254 13.751 0.992893 13.68 1.00011C13.6149 1.0342 13.5427 1.05255 13.4692 1.05367C13.3957 1.05479 13.3229 1.03866 13.2568 1.00656C13.1907 0.97447 13.133 0.927312 13.0884 0.868878C13.0438 0.810444 13.0135 0.742363 13 0.670107ZM13.35 1.67011L14.2 1.44011L15.3 5.58011L14.45 5.81011L13.35 1.67011Z" fill="#0A9386"/>
<path d="M15.88 3.2C15.7971 2.92319 15.7771 2.63136 15.8214 2.34583C15.8658 2.0603 15.9733 1.78828 16.1363 1.54964C16.2992 1.31101 16.5134 1.11178 16.7631 0.966508C17.0129 0.82124 17.292 0.733603 17.58 0.71C18.0729 0.625733 18.5796 0.729199 19 1L18.88 1.76C18.7237 1.63186 18.5428 1.53731 18.3483 1.48225C18.1539 1.42719 17.9502 1.41281 17.75 1.44C16.99 1.54 16.63 2.13 16.75 3.09C16.87 4.05 17.36 4.52 18.11 4.42C18.3306 4.38513 18.5422 4.30713 18.7327 4.19045C18.9231 4.07377 19.0887 3.92071 19.22 3.74L19.52 4.45C19.3495 4.65915 19.1385 4.83164 18.8996 4.9571C18.6607 5.08255 18.3989 5.15837 18.13 5.18C16.88 5.34 16.06 4.63 15.88 3.2Z" fill="#0A9386"/>
<path d="M20.13 2.70995C20.23 1.26995 21.01 0.509946 22.29 0.599946C23.57 0.689946 24.29 1.53995 24.17 2.97995C24.05 4.41995 23.29 5.16995 22 5.08995C20.71 5.00995 20 4.14995 20.13 2.70995ZM23.28 2.91995C23.34 1.91995 22.98 1.38995 22.28 1.33995C21.58 1.28995 21.08 1.79995 21 2.76995C20.92 3.73995 21.3 4.28995 22 4.32995C22.7 4.36995 23.21 3.88995 23.28 2.91995Z" fill="#0A9386"/>
<path d="M27.06 3.5899C27.52 2.2199 28.48 1.6899 29.65 2.0899C30.82 2.4899 31.09 3.3399 30.65 4.5799C30.6108 4.6929 30.564 4.80315 30.51 4.9099L27.88 3.9999C27.7973 4.15525 27.751 4.32739 27.7446 4.50328C27.7383 4.67917 27.772 4.8542 27.8433 5.01511C27.9146 5.17603 28.0216 5.3186 28.1562 5.43205C28.2907 5.5455 28.4494 5.62683 28.62 5.6699C29.0968 5.85042 29.6232 5.85042 30.1 5.6699L30 6.3699C29.446 6.58052 28.834 6.58052 28.28 6.3699C27 5.9999 26.6 4.9999 27.06 3.5899ZM29.88 4.0999C30.1 3.4399 29.94 2.9699 29.39 2.7899C29.2572 2.73902 29.115 2.71706 28.973 2.72549C28.831 2.73392 28.6924 2.77256 28.5665 2.83881C28.4407 2.90507 28.3304 2.99742 28.243 3.10969C28.1557 3.22197 28.0933 3.35159 28.06 3.4899L29.88 4.0999Z" fill="#0A9386"/>
<path d="M35.29 5.99988L33.78 8.80988L33 8.39988L34.38 5.82988C34.4279 5.75033 34.4584 5.66158 34.4696 5.56942C34.4808 5.47726 34.4725 5.38377 34.4451 5.29505C34.4178 5.20634 34.372 5.12439 34.3108 5.05458C34.2496 4.98476 34.1744 4.92864 34.09 4.88988C33.9006 4.80787 33.6964 4.76556 33.49 4.76556C33.2836 4.76556 33.0794 4.80787 32.89 4.88988L31.46 7.56988L30.68 7.14988L32.68 3.37988L33.3 3.70988L33.09 4.28988C33.3555 4.1819 33.6412 4.13227 33.9276 4.14435C34.214 4.15643 34.4945 4.22993 34.75 4.35988C34.9036 4.41993 35.0421 4.51318 35.1555 4.63295C35.2689 4.75273 35.3545 4.89607 35.4061 5.05275C35.4577 5.20943 35.474 5.37557 35.454 5.5393C35.4339 5.70303 35.3779 5.8603 35.29 5.99988Z" fill="#0A9386"/>
<path d="M4.28 40.28L5.77 41.7C6.00687 41.8648 6.20379 42.0805 6.34628 42.3314C6.48877 42.5823 6.57319 42.8619 6.59334 43.1497C6.61348 43.4376 6.56884 43.7262 6.4627 43.9945C6.35656 44.2628 6.19161 44.5039 5.98 44.7C5.80014 44.9251 5.57191 45.1069 5.31225 45.2318C5.05259 45.3567 4.76814 45.4215 4.48 45.4215C4.19186 45.4215 3.90741 45.3567 3.64775 45.2318C3.38809 45.1069 3.15986 44.9251 2.98 44.7L2.25 44L0.76 45.51L0 44.79L4.28 40.28ZM3.6 44C3.69697 44.1214 3.82089 44.2185 3.96192 44.2837C4.10296 44.3488 4.25723 44.3802 4.41251 44.3754C4.56779 44.3705 4.7198 44.3295 4.85649 44.2557C4.99319 44.1819 5.1108 44.0772 5.2 43.95C5.32231 43.8567 5.42143 43.7364 5.48966 43.5985C5.55789 43.4606 5.59339 43.3089 5.59339 43.155C5.59339 43.0012 5.55789 42.8494 5.48966 42.7115C5.42143 42.5736 5.32231 42.4534 5.2 42.36L4.47 41.68L2.88 43.28L3.6 44Z" fill="#0A9386"/>
<path d="M8.33999 46.8801C7.90306 46.6135 7.38565 46.5107 6.87999 46.5901L5.15999 49.1401L4.42999 48.6401L6.81999 45.0901L7.40999 45.4801L7.15999 46.0001C7.41574 45.9261 7.6837 45.9039 7.94815 45.9348C8.21259 45.9657 8.4682 46.0491 8.69999 46.1801L8.33999 46.8801Z" fill="#0A9386"/>
<path d="M8.17999 48.57C8.77999 47.27 9.77999 46.83 10.95 47.37C12.12 47.91 12.45 48.94 11.85 50.25C11.7738 50.5298 11.6359 50.789 11.4463 51.0085C11.2568 51.228 11.0204 51.4021 10.7547 51.5182C10.4889 51.6343 10.2006 51.6893 9.91073 51.6793C9.62091 51.6692 9.33704 51.5943 9.07999 51.46C8.81666 51.3454 8.58112 51.1754 8.38937 50.9616C8.19762 50.7477 8.05417 50.4951 7.96878 50.2209C7.88339 49.9467 7.85805 49.6573 7.8945 49.3725C7.93094 49.0876 8.02831 48.8139 8.17999 48.57ZM11 49.88C11.41 49 11.27 48.35 10.61 48.05C9.94999 47.75 9.34999 48.05 8.94999 48.94C8.54999 49.83 8.68999 50.47 9.35999 50.77C10.03 51.07 10.64 50.77 11 49.88Z" fill="#0A9386"/>
<path d="M17.07 51.5399C16.76 52.9299 15.94 53.5999 14.9 53.3699C14.6413 53.3215 14.3988 53.2093 14.1944 53.0434C13.9901 52.8775 13.8305 52.6631 13.73 52.4199L13.51 52.9499L12.82 52.7999L14.23 46.3799L15.09 46.5699L14.51 49.1999C14.7095 49.0762 14.9322 48.9947 15.1643 48.9603C15.3965 48.9259 15.6332 48.9393 15.86 48.9999C16.94 49.2099 17.37 50.1799 17.07 51.5399ZM16.18 51.3499C16.38 50.4199 16.12 49.7899 15.45 49.6399C15.2597 49.6006 15.063 49.6044 14.8744 49.6511C14.6857 49.6978 14.51 49.7863 14.36 49.9099L13.92 51.9099C14.0039 52.0828 14.1257 52.2347 14.2763 52.3541C14.4269 52.4736 14.6025 52.5576 14.79 52.5999C15.46 52.7199 16 52.2899 16.18 51.3499Z" fill="#0A9386"/>
<path d="M18.59 49.46H19.48L19.23 53.74H18.35L18.59 49.46ZM18.59 48.41C18.5856 48.3383 18.5977 48.2665 18.6254 48.2002C18.653 48.1338 18.6955 48.0747 18.7496 48.0274C18.8037 47.9801 18.8679 47.9458 18.9373 47.9272C19.0067 47.9086 19.0795 47.9061 19.15 47.92C19.2225 47.914 19.2955 47.9249 19.3631 47.9518C19.4307 47.9788 19.4911 48.0211 19.5396 48.0754C19.5881 48.1297 19.6233 48.1945 19.6425 48.2647C19.6616 48.3349 19.6642 48.4086 19.65 48.48C19.6545 48.5504 19.6427 48.621 19.6155 48.6861C19.5883 48.7512 19.5466 48.8093 19.4934 48.8557C19.4402 48.9021 19.3771 48.9356 19.3089 48.9537C19.2407 48.9718 19.1692 48.974 19.1 48.96C19.0261 48.9708 18.9508 48.9638 18.8801 48.9396C18.8095 48.9154 18.7456 48.8748 18.6938 48.821C18.642 48.7673 18.6038 48.702 18.5823 48.6305C18.5607 48.559 18.5565 48.4834 18.57 48.41H18.59Z" fill="#0A9386"/>
<path d="M20.72 51.7501C20.58 50.3101 21.22 49.4301 22.5 49.3001C23.78 49.1701 24.6 49.9101 24.74 51.3001C24.8216 51.5793 24.8393 51.8734 24.7918 52.1604C24.7444 52.4474 24.633 52.72 24.4659 52.9582C24.2988 53.1963 24.0803 53.3938 23.8266 53.5361C23.5728 53.6784 23.2903 53.7618 23 53.7801C21.67 53.9101 20.87 53.1801 20.72 51.7501ZM23.86 51.4301C23.76 50.4301 23.31 49.9701 22.59 50.0501C21.87 50.1301 21.51 50.6901 21.59 51.6601C21.67 52.6301 22.13 53.1001 22.87 53.0301C23.61 52.9601 24 52.4001 23.86 51.4301ZM22.55 47.6001L23.55 47.7001L22.55 48.9801L21.9 49.0401L22.55 47.6001Z" fill="#0A9386"/>
<path d="M28.72 52.3299C28.5226 52.5107 28.2867 52.6441 28.03 52.7199C27.8815 52.7787 27.7219 52.8038 27.5625 52.7935C27.4032 52.7832 27.2481 52.7376 27.1085 52.6602C26.9688 52.5827 26.8481 52.4752 26.755 52.3455C26.6619 52.2158 26.5987 52.067 26.57 51.9099L25.92 49.5799L25.28 49.7599V48.9899L25.73 48.8599L25.32 47.3899L26.17 47.1599L26.58 48.6199L27.4 48.3899L27.6 49.1099L26.79 49.3399L27.43 51.6399C27.4369 51.7044 27.4583 51.7665 27.4926 51.8215C27.5268 51.8765 27.5731 51.9231 27.6279 51.9577C27.6828 51.9924 27.7447 52.0142 27.8091 52.0215C27.8736 52.0288 27.9388 52.0214 28 51.9999C28.138 51.9675 28.2675 51.9062 28.38 51.8199L28.72 52.3299Z" fill="#0A9386"/>
<path d="M27.86 47.0801C27.8056 46.9475 27.8062 46.7987 27.8615 46.6665C27.9168 46.5343 28.0224 46.4295 28.155 46.3751C28.2876 46.3207 28.4364 46.3213 28.5686 46.3766C28.7008 46.4319 28.8056 46.5375 28.86 46.6701C28.9144 46.8027 28.9138 46.9515 28.8585 47.0837C28.8032 47.2159 28.6976 47.3207 28.565 47.3751C28.4324 47.4295 28.2836 47.4289 28.1514 47.3736C28.0192 47.3183 27.9144 47.2127 27.86 47.0801ZM28.34 48.0101L29.16 47.6701L30.8 51.6701L30 52.0001L28.34 48.0101Z" fill="#0A9386"/>
<path d="M31.23 49.1301C30.49 47.8901 30.71 46.8201 31.81 46.1301C32.2279 45.844 32.7411 45.7328 33.24 45.82L33.43 46.57C33.2353 46.5123 33.0306 46.4958 32.8292 46.5216C32.6277 46.5475 32.4338 46.615 32.26 46.7201C31.6 47.1201 31.5 47.8001 32 48.6301C32.5 49.4601 33.12 49.7001 33.77 49.3101C33.9606 49.1937 34.1254 49.0397 34.2544 48.8574C34.3833 48.6752 34.4737 48.4685 34.52 48.25L35.08 48.78C35.0047 49.0406 34.8773 49.2831 34.7054 49.4928C34.5334 49.7025 34.3207 49.8751 34.08 50C33 50.69 32 50.3601 31.23 49.1301Z" fill="#0A9386"/>
<path d="M35.11 46.73C34.11 45.67 34.11 44.58 35.11 43.73C35.3119 43.5237 35.5574 43.365 35.8284 43.2656C36.0994 43.1662 36.3892 43.1285 36.6767 43.1554C36.9641 43.1822 37.242 43.2728 37.4899 43.4207C37.7379 43.5685 37.9497 43.7698 38.11 44.01C38.2899 44.2069 38.4292 44.4374 38.5201 44.6883C38.6109 44.9391 38.6515 45.2054 38.6394 45.4719C38.6273 45.7384 38.5629 45.9999 38.4497 46.2415C38.3366 46.4831 38.177 46.7001 37.98 46.88C37.783 47.0599 37.5525 47.1992 37.3017 47.2901C37.0508 47.3809 36.7846 47.4214 36.5181 47.4094C36.2516 47.3973 35.99 47.3328 35.7484 47.2197C35.5068 47.1066 35.2899 46.947 35.11 46.75V46.73ZM37.42 44.59C36.76 43.88 36.11 43.76 35.57 44.25C35.03 44.74 35.1 45.41 35.76 46.12C36.42 46.83 37.06 46.95 37.61 46.45C38.16 45.95 38.08 45.3 37.42 44.59Z" fill="#0A9386"/>
<path d="M40.36 44.0799L39.76 43.5799C40.2496 43.3227 40.6738 42.9566 41 42.5099C41.27 42.1199 41.31 41.7699 41 41.5599C40.69 41.3499 40.28 41.6399 39.86 41.9799C39.44 42.3199 38.67 42.8799 38 42.4099C37.33 41.9399 37.36 41.1599 37.84 40.4599C38.1551 40.0382 38.5491 39.6816 39 39.4099L39.57 39.8799C39.1829 40.1183 38.8438 40.4269 38.57 40.7899C38.33 41.1299 38.32 41.4799 38.57 41.6599C38.82 41.8399 39.19 41.5899 39.57 41.2699C39.95 40.9499 40.79 40.3399 41.5 40.8299C42.21 41.3199 42.22 42.1799 41.64 43.0099C41.3187 43.4765 40.8762 43.8465 40.36 44.0799Z" fill="#0A9386"/>
</g>
<defs>
<clipPath id="clip0_2502_6892">
<rect width="42.02" height="53.8" fill="white"/>
</clipPath>
</defs>
</svg>
