<svg width="31" height="57" viewBox="0 0 31 57" fill="none" xmlns="http://www.w3.org/2000/svg">
<g clip-path="url(#clip0_2502_7028)">
<path d="M20.81 29.2901H15.37L19.37 23.6101C19.4243 23.531 19.4562 23.4386 19.4621 23.3429C19.468 23.2471 19.4478 23.1515 19.4037 23.0663C19.3596 22.9811 19.2931 22.9094 19.2114 22.859C19.1298 22.8086 19.036 22.7814 18.94 22.7801H12.84C12.7428 22.7817 12.6478 22.8094 12.5651 22.8605C12.4824 22.9115 12.415 22.984 12.37 23.0701L7.6 32.5501C7.55318 32.6269 7.52842 32.7152 7.52842 32.8051C7.52842 32.8951 7.55318 32.9833 7.6 33.0601C7.64529 33.1387 7.71109 33.2034 7.79035 33.2475C7.86962 33.2915 7.95937 33.3132 8.05 33.3101H12.54L9.14 41.1101C9.09421 41.2228 9.08856 41.3478 9.124 41.4641C9.15944 41.5805 9.23382 41.6811 9.33465 41.7491C9.43548 41.8171 9.55664 41.8483 9.67778 41.8376C9.79893 41.8269 9.9127 41.7748 10 41.6901L21.19 30.1801C21.2613 30.1057 21.3088 30.0118 21.3266 29.9103C21.3444 29.8088 21.3317 29.7043 21.29 29.6101C21.2494 29.5161 21.1825 29.4359 21.0974 29.3791C21.0122 29.3223 20.9124 29.2914 20.81 29.2901ZM11.28 38.8801L13.85 33.0001C13.8828 32.9197 13.8953 32.8325 13.8864 32.7461C13.8776 32.6597 13.8476 32.5768 13.7992 32.5047C13.7508 32.4326 13.6855 32.3735 13.6089 32.3326C13.5323 32.2917 13.4468 32.2703 13.36 32.2701H8.92L13.15 23.8401H14.15L12.15 27.6201C12.1008 27.7489 12.1008 27.8913 12.15 28.0201C12.1692 28.0884 12.2022 28.152 12.2469 28.207C12.2916 28.262 12.3471 28.3073 12.41 28.3401C12.534 28.4013 12.6768 28.4127 12.8089 28.3717C12.941 28.3308 13.0523 28.2407 13.12 28.1201L15.39 23.8401H17.96L13.96 29.5201C13.9107 29.6034 13.8847 29.6984 13.8847 29.7951C13.8847 29.8919 13.9107 29.9869 13.96 30.0701C14.0047 30.1536 14.0709 30.2237 14.1518 30.2729C14.2327 30.3221 14.3253 30.3488 14.42 30.3501H19.64L11.28 38.8801ZM13.91 16.7601V14.0001C13.9069 13.8945 13.9361 13.7904 13.9936 13.7018C14.0511 13.6131 14.1343 13.5441 14.2321 13.5039C14.3298 13.4637 14.4375 13.4543 14.5407 13.4768C14.644 13.4994 14.7379 13.5528 14.81 13.6301C14.8659 13.675 14.9117 13.7311 14.9444 13.7949C14.9772 13.8586 14.9961 13.9286 15 14.0001V16.7801C15.0013 16.8492 14.9889 16.9179 14.9633 16.9822C14.9378 17.0464 14.8997 17.1049 14.8513 17.1543C14.8029 17.2036 14.7451 17.2428 14.6813 17.2696C14.6176 17.2964 14.5491 17.3101 14.48 17.3101C14.4054 17.3158 14.3304 17.3057 14.26 17.2803C14.1896 17.255 14.1254 17.215 14.0715 17.1631C14.0177 17.1111 13.9755 17.0483 13.9476 16.9789C13.9198 16.9094 13.907 16.8349 13.91 16.7601ZM17.82 17.2701L18.82 14.6501C18.8436 14.5845 18.88 14.5241 18.9269 14.4725C18.9739 14.4209 19.0306 14.379 19.0937 14.3493C19.1569 14.3196 19.2252 14.3026 19.295 14.2993C19.3647 14.296 19.4343 14.3065 19.5 14.3301C19.5657 14.3538 19.626 14.3901 19.6776 14.4371C19.7293 14.484 19.7711 14.5407 19.8008 14.6038C19.8305 14.667 19.8475 14.7354 19.8508 14.8051C19.8541 14.8748 19.8436 14.9445 19.82 15.0101L18.82 17.6301C18.7966 17.6946 18.7606 17.7539 18.7142 17.8044C18.6678 17.855 18.6118 17.8958 18.5496 17.9246C18.4873 17.9535 18.4199 17.9697 18.3513 17.9723C18.2827 17.975 18.2143 17.964 18.15 17.9401C18.0211 17.8905 17.9161 17.7935 17.8566 17.6688C17.7971 17.5442 17.7875 17.4015 17.83 17.2701H17.82ZM23.92 17.6201L22.13 19.7501C22.0874 19.8036 22.0344 19.8481 21.9743 19.8807C21.9142 19.9133 21.8481 19.9335 21.78 19.9401C21.6394 19.9516 21.4998 19.9086 21.39 19.8201C21.2858 19.7278 21.2214 19.5988 21.21 19.4601C21.2009 19.3919 21.207 19.3224 21.2277 19.2568C21.2485 19.1911 21.2834 19.1308 21.33 19.0801L23.12 17.0001C23.164 16.9476 23.2179 16.9042 23.2786 16.8725C23.3394 16.8409 23.4058 16.8214 23.474 16.8154C23.5423 16.8094 23.6111 16.8168 23.6764 16.8374C23.7418 16.8579 23.8025 16.8911 23.855 16.9351C23.9075 16.9791 23.9509 17.033 23.9826 17.0938C24.0143 17.1545 24.0337 17.2209 24.0397 17.2892C24.0458 17.3574 24.0383 17.4262 24.0178 17.4915C23.9972 17.5569 23.964 17.6176 23.92 17.6701V17.6201ZM24 22.0001L26.41 20.6101C26.5309 20.5408 26.6742 20.5218 26.809 20.5574C26.9437 20.5929 27.0591 20.6801 27.13 20.8001C27.1994 20.921 27.2183 21.0644 27.1827 21.1991C27.1472 21.3339 27.06 21.4492 26.94 21.5201L24.52 22.9101C24.3993 22.9791 24.2562 22.9973 24.1221 22.9607C23.988 22.9241 23.874 22.8358 23.805 22.7151C23.736 22.5944 23.7178 22.4513 23.7544 22.3172C23.791 22.1831 23.8793 22.0691 24 22.0001ZM25.52 25.6401L28.26 25.1601C28.3971 25.142 28.536 25.1761 28.6491 25.2558C28.7621 25.3355 28.841 25.4549 28.87 25.5901C28.8829 25.6585 28.8819 25.7288 28.8672 25.7968C28.8524 25.8648 28.8241 25.9292 28.784 25.9861C28.7439 26.043 28.6928 26.0912 28.6337 26.128C28.5746 26.1647 28.5087 26.1893 28.44 26.2001L25.7 26.6801C25.5636 26.7036 25.4235 26.6728 25.3095 26.5943C25.1955 26.5159 25.1167 26.3959 25.09 26.2601C25.0771 26.1917 25.0781 26.1214 25.0928 26.0534C25.1076 25.9854 25.1359 25.9211 25.176 25.8642C25.2161 25.8073 25.2672 25.759 25.3263 25.7223C25.3854 25.6855 25.4513 25.661 25.52 25.6501V25.6401ZM28.87 30.6401C28.8468 30.761 28.7822 30.8701 28.6873 30.9486C28.5924 31.027 28.4731 31.07 28.35 31.0701H28.26L25.52 30.5801C25.4513 30.5693 25.3854 30.5447 25.3263 30.508C25.2672 30.4712 25.2161 30.423 25.176 30.3661C25.1359 30.3092 25.1076 30.2448 25.0928 30.1768C25.0781 30.1088 25.0771 30.0385 25.09 29.9701C25.1167 29.8343 25.1955 29.7144 25.3095 29.6359C25.4235 29.5574 25.5636 29.5266 25.7 29.5501L28.44 30.0301C28.578 30.0556 28.7003 30.1347 28.78 30.2501C28.8598 30.3634 28.8921 30.5034 28.87 30.6401ZM27.13 35.4201C27.0591 35.5401 26.9437 35.6273 26.809 35.6629C26.6742 35.6984 26.5309 35.6795 26.41 35.6101L24 34.2301C23.9402 34.196 23.8878 34.1504 23.8457 34.096C23.8035 34.0416 23.7725 33.9794 23.7544 33.913C23.7363 33.8466 23.7315 33.7773 23.7401 33.709C23.7488 33.6408 23.7709 33.5749 23.805 33.5151C23.8391 33.4554 23.8847 33.4029 23.9391 33.3608C23.9935 33.3187 24.0557 33.2876 24.1221 33.2695C24.1885 33.2514 24.2578 33.2466 24.3261 33.2553C24.3944 33.2639 24.4602 33.286 24.52 33.3201L26.94 34.7101C27.06 34.781 27.1472 34.8964 27.1827 35.0311C27.2183 35.1659 27.1994 35.3092 27.13 35.4301V35.4201ZM9.11 15.0001C9.06226 14.8675 9.06916 14.7214 9.12917 14.5938C9.18918 14.4663 9.29739 14.3679 9.43 14.3201C9.56261 14.2724 9.70875 14.2793 9.83627 14.3393C9.9638 14.3993 10.0623 14.5075 10.11 14.6401L11.11 17.2601C11.137 17.3234 11.1509 17.3914 11.1509 17.4601C11.1509 17.5289 11.137 17.5969 11.11 17.6601C11.0821 17.7222 11.0421 17.7781 10.9923 17.8244C10.9425 17.8708 10.8839 17.9067 10.82 17.9301C10.7568 17.9571 10.6887 17.971 10.62 17.971C10.5513 17.971 10.4832 17.9571 10.42 17.9301C10.2921 17.8741 10.1915 17.7699 10.14 17.6401L9.11 15.0001ZM7.48 19.8201C7.37213 19.9079 7.2341 19.9497 7.09567 19.9366C6.95724 19.9235 6.82951 19.8565 6.74 19.7501L5 17.6201C4.90349 17.5211 4.84947 17.3884 4.84947 17.2501C4.84947 17.1119 4.90349 16.9791 5 16.8801C5.10787 16.7924 5.2459 16.7506 5.38433 16.7637C5.52276 16.7767 5.65049 16.8437 5.74 16.9501L7.53 19.0801C7.5747 19.133 7.6084 19.1943 7.62911 19.2603C7.64982 19.3264 7.65713 19.3959 7.65061 19.4648C7.64409 19.5338 7.62387 19.6007 7.59114 19.6617C7.55841 19.7227 7.51382 19.7766 7.46 19.8201H7.48ZM5.07 22.7001C4.99731 22.8181 4.88202 22.9037 4.74799 22.9391C4.61396 22.9744 4.47146 22.9569 4.35 22.8901L1.94 21.5001C1.82002 21.4292 1.73281 21.3139 1.69725 21.1791C1.66169 21.0443 1.68064 20.901 1.75 20.7801C1.78416 20.7197 1.83007 20.6668 1.88502 20.6244C1.93997 20.582 2.00284 20.551 2.06994 20.5333C2.13704 20.5156 2.20701 20.5115 2.27571 20.5213C2.34442 20.531 2.41048 20.5544 2.47 20.5901L4.88 22.0001C4.99998 22.071 5.08719 22.1864 5.12275 22.3211C5.15831 22.4559 5.13936 22.5992 5.07 22.7201V22.7001ZM-5.68107e-08 25.5601C0.0120179 25.4923 0.0374028 25.4275 0.0746792 25.3695C0.111956 25.3116 0.16038 25.2616 0.217138 25.2225C0.273896 25.1834 0.337855 25.156 0.405298 25.1419C0.472742 25.1277 0.542324 25.1271 0.61 25.1401L3.35 25.6201C3.4596 25.6656 3.55037 25.7471 3.60723 25.8512C3.6641 25.9554 3.68364 26.0758 3.66262 26.1926C3.64161 26.3094 3.58129 26.4154 3.49168 26.4932C3.40207 26.571 3.28857 26.6158 3.17 26.6201L0.43 26.1701C0.298994 26.1594 0.177191 26.0985 0.0899999 26.0001C0.0437003 25.9378 0.0116423 25.8662 -0.00390927 25.7901C-0.0194608 25.7141 -0.0181263 25.6356 -5.68107e-08 25.5601ZM3.35 30.5601L0.61 31.0501H0.52C0.3934 31.0513 0.270729 31.0062 0.174994 30.9233C0.079259 30.8405 0.0170377 30.7256 -5.68107e-08 30.6001C-0.020393 30.4638 0.0130979 30.325 0.0933713 30.213C0.173645 30.1009 0.294388 30.0246 0.43 30.0001L3.18 29.5201C3.29857 29.5245 3.41207 29.5693 3.50168 29.647C3.59129 29.7248 3.65161 29.8309 3.67262 29.9476C3.69364 30.0644 3.6741 30.1849 3.61723 30.289C3.56037 30.3931 3.4696 30.4747 3.36 30.5201L3.35 30.5601ZM5.06 33.4901C5.12936 33.611 5.14831 33.7544 5.11275 33.8891C5.07719 34.0239 4.98998 34.1392 4.87 34.2101L2.47 35.6201C2.41048 35.6558 2.34442 35.6792 2.27571 35.689C2.20701 35.6987 2.13704 35.6946 2.06994 35.6769C2.00284 35.6592 1.93997 35.6283 1.88502 35.5859C1.83007 35.5435 1.78416 35.4905 1.75 35.4301C1.68064 35.3092 1.66169 35.1659 1.69725 35.0311C1.73281 34.8964 1.82002 34.781 1.94 34.7101L4.35 33.3201C4.47089 33.2508 4.61423 33.2318 4.74899 33.2674C4.88375 33.3029 4.99908 33.3901 5.07 33.5101L5.06 33.4901Z" fill="#0A9386"/>
<path d="M12.07 5.13011L9.51 5.54011L9.23 7.14011L8.15 7.31011L9.41 0.830107L10.77 0.610107L14 6.38011L12.86 6.56011L12.07 5.13011ZM11.68 4.39011L10.25 1.68011H10.19L9.66 4.68011L11.68 4.39011Z" fill="#0A9386"/>
<path d="M14.73 0H15.61L15.45 6.57H14.56L14.73 0Z" fill="#0A9386"/>
<path d="M18.75 6.80993C18.5091 6.89235 18.2535 6.92301 18 6.89993C17.8417 6.89398 17.6866 6.85293 17.5461 6.77976C17.4055 6.70659 17.283 6.60312 17.1873 6.47682C17.0916 6.35052 17.0252 6.20454 16.9928 6.04944C16.9604 5.89433 16.9629 5.73397 17 5.57993L17.32 3.17993L16.6 3.09993L16.89 2.37993L17.35 2.43993L17.55 0.929932L18.43 1.04993L18.23 2.55993L19.07 2.66993L18.97 3.40993L18.13 3.29993L17.82 5.65993C17.82 5.95993 17.91 6.15993 18.19 6.18993C18.3284 6.21966 18.4716 6.21966 18.61 6.18993L18.75 6.80993Z" fill="#0A9386"/>
<path d="M23.24 4.99996L22.43 7.89996L21.72 7.69996L21.78 7.16996C21.3086 7.44398 20.7488 7.52293 20.22 7.38996C20.0609 7.35788 19.9106 7.2919 19.7793 7.19652C19.648 7.10113 19.5387 6.97858 19.459 6.8372C19.3793 6.69581 19.331 6.53892 19.3174 6.37719C19.3037 6.21546 19.3251 6.0527 19.38 5.89996C19.66 4.89996 20.72 4.60996 22.31 5.05996L22.41 4.68996C22.52 4.32996 22.33 4.04996 21.81 3.89996C21.333 3.78937 20.837 3.78937 20.36 3.89996V3.24996C20.9545 3.10418 21.5755 3.10418 22.17 3.24996C22.364 3.27759 22.5496 3.34775 22.7133 3.45544C22.8771 3.56313 23.015 3.70568 23.1173 3.8729C23.2195 4.04011 23.2835 4.22786 23.3047 4.4227C23.326 4.61754 23.3038 4.81466 23.24 4.99996ZM20.75 6.85996C21.1294 6.94511 21.527 6.88063 21.86 6.67996L22.16 5.60996C21.16 5.31996 20.45 5.46996 20.29 6.04996C20.2612 6.13326 20.2504 6.22176 20.2585 6.30954C20.2665 6.39733 20.2932 6.48239 20.3367 6.55904C20.3803 6.6357 20.4396 6.70219 20.5109 6.75408C20.5822 6.80597 20.6637 6.84207 20.75 6.85996Z" fill="#0A9386"/>
<path d="M4.4 52.73L4 53.51L0.65 51.84L3.42 46.28L6.72 47.92L6.33 48.7L4 47.52L3.21 49.11L5.21 50.11L4.83 50.88L2.83 49.88L2 51.52L4.4 52.73Z" fill="#0A9386"/>
<path d="M10.19 52L9.4 55.07L8.54 54.8601L9.26 52C9.28694 51.912 9.29517 51.8193 9.28415 51.7279C9.27314 51.6365 9.24312 51.5484 9.19603 51.4693C9.14894 51.3902 9.08582 51.3218 9.01073 51.2686C8.93563 51.2153 8.85023 51.1783 8.76 51.16C8.55617 51.1258 8.34754 51.133 8.14653 51.1811C7.94552 51.2292 7.75625 51.3173 7.59 51.44L6.84 54.44L6 54.21L7 50.05L7.69 50.23L7.62 50.84C7.85212 50.6713 8.11782 50.5545 8.39907 50.4976C8.68032 50.4407 8.97054 50.4449 9.25 50.51C9.41878 50.5275 9.58139 50.583 9.72556 50.6725C9.86973 50.762 9.99169 50.883 10.0822 51.0265C10.1728 51.17 10.2295 51.3322 10.2482 51.5009C10.2668 51.6695 10.247 51.8402 10.19 52Z" fill="#0A9386"/>
<path d="M11.33 53.2099C11.39 51.7699 12.16 50.9999 13.4 51.0499C14.64 51.0999 15.13 51.8499 15.08 53.1499C15.0888 53.2697 15.0888 53.3901 15.08 53.5099L12.27 53.3899C12.27 54.2899 12.67 54.7599 13.45 54.7899C13.9581 54.8216 14.4601 54.665 14.86 54.3499L14.93 55.0699C14.4541 55.4269 13.8625 55.5944 13.27 55.5399C12 55.4899 11.27 54.6499 11.33 53.2099ZM14.18 52.9199C14.18 52.2299 13.92 51.8199 13.34 51.7899C12.76 51.7599 12.34 52.1999 12.26 52.8399L14.18 52.9199Z" fill="#0A9386"/>
<path d="M18.51 51.4299C18.0083 51.5289 17.5542 51.7929 17.22 52.1799L17.62 55.1799L16.75 55.2899L16.19 51.0399L16.89 50.9499L17.07 51.5399C17.2118 51.3145 17.3971 51.1196 17.6152 50.9668C17.8333 50.814 18.0797 50.7062 18.34 50.6499L18.51 51.4299Z" fill="#0A9386"/>
<path d="M24 54.0901C24.27 54.9701 23.7 55.6401 22.35 56.0901C21 56.5401 20.3 56.2901 20.07 55.5401C19.9957 55.2762 20.0149 54.9947 20.1242 54.7432C20.2335 54.4918 20.4263 54.2858 20.67 54.1601C20.5592 54.1589 20.4519 54.1209 20.365 54.0522C20.2782 53.9834 20.2166 53.8877 20.19 53.7801C20.1616 53.6471 20.1764 53.5085 20.2322 53.3844C20.2879 53.2603 20.3817 53.1572 20.5 53.0901C20.2371 53.0512 19.9915 52.9355 19.7941 52.7576C19.5966 52.5798 19.456 52.3475 19.39 52.0901C19.11 51.1901 19.56 50.4801 20.6 50.1601C21.0121 50.0221 21.4579 50.0221 21.87 50.1601L22.46 49.6001L22.81 50.1501L22.32 50.4701C22.4901 50.6472 22.6137 50.8636 22.68 51.1001C22.95 51.9901 22.51 52.7001 21.47 53.0201L21.24 53.0801C20.97 53.1701 20.86 53.2901 20.9 53.4301C20.94 53.5701 21.2 53.5901 21.9 53.4301C22.82 53.1701 23.74 53.2001 24 54.0901ZM20.2 51.7801C20.2294 51.8971 20.2824 52.0069 20.3556 52.1028C20.4287 52.1987 20.5207 52.2787 20.6257 52.338C20.7308 52.3973 20.8468 52.4346 20.9668 52.4476C21.0867 52.4607 21.208 52.4492 21.3234 52.4139C21.4388 52.3787 21.5458 52.3203 21.6379 52.2424C21.73 52.1644 21.8053 52.0686 21.8592 51.9607C21.9131 51.8528 21.9446 51.735 21.9516 51.6146C21.9586 51.4942 21.941 51.3735 21.9 51.2601C21.8223 51.0454 21.6651 50.8688 21.4609 50.7667C21.2567 50.6647 21.0211 50.645 20.8028 50.7118C20.5844 50.7786 20.4001 50.9267 20.2879 51.1255C20.1758 51.3244 20.1443 51.5587 20.2 51.7801ZM23.2 54.4301C23.05 53.9501 22.4 54.1101 21.37 54.2101C20.86 54.4301 20.64 54.7701 20.74 55.0901C20.84 55.4101 21.46 55.6201 22.27 55.3701C23.08 55.1201 23.33 54.8101 23.21 54.4301H23.2Z" fill="#0A9386"/>
<path d="M23.08 47.3201L24.08 47.0801L23.52 48.6201L22.93 48.9101L23.08 47.3201ZM23.25 49.2401L24.04 48.8601L25.88 52.7301L25.08 53.1101L23.25 49.2401Z" fill="#0A9386"/>
<path d="M28.57 47.57L30.25 50.07L29.64 50.48L29.28 50.09C29.1829 50.6254 28.8817 51.1022 28.44 51.42C28.3107 51.5189 28.162 51.5892 28.0035 51.6264C27.845 51.6635 27.6805 51.6666 27.5207 51.6354C27.361 51.6042 27.2097 51.5394 27.0768 51.4454C26.9439 51.3514 26.8326 51.2302 26.75 51.09C26.18 50.23 26.64 49.24 28.01 48.32L27.8 48C27.59 47.69 27.26 47.64 26.8 47.94C26.3882 48.2227 26.0463 48.5954 25.8 49.03L25.29 48.63C25.571 48.0841 25.9834 47.6167 26.49 47.27C26.6359 47.1291 26.8121 47.0235 27.0051 46.9613C27.1981 46.899 27.4028 46.8816 27.6035 46.9106C27.8042 46.9395 27.9956 47.014 28.1631 47.1283C28.3307 47.2426 28.4698 47.3936 28.57 47.57ZM28.35 50.65C28.6688 50.4057 28.8803 50.0472 28.94 49.65L28.31 48.72C27.42 49.33 27.1 49.94 27.44 50.44C27.4805 50.5192 27.5378 50.5887 27.6079 50.6434C27.6781 50.6982 27.7594 50.7369 27.8461 50.7569C27.9328 50.7769 28.0228 50.7777 28.1099 50.7592C28.1969 50.7408 28.2789 50.7035 28.35 50.65Z" fill="#0A9386"/>
</g>
<defs>
<clipPath id="clip0_2502_7028">
<rect width="30.25" height="56.24" fill="white"/>
</clipPath>
</defs>
</svg>
