<svg width="56" height="56" viewBox="0 0 56 56" fill="none" xmlns="http://www.w3.org/2000/svg">
<g clip-path="url(#clip0_2502_7005)">
<path d="M33.39 16.8501H33.27C32.8279 16.854 32.3909 16.9451 31.9841 17.1182C31.5773 17.2913 31.2087 17.543 30.8993 17.8589C30.5899 18.1748 30.346 18.5486 30.1814 18.9589C30.0167 19.3692 29.9347 19.808 29.94 20.2501C29.9477 20.663 30.0725 21.0653 30.3 21.4101C30.5667 21.838 30.7155 22.3289 30.7313 22.833C30.7471 23.337 30.6293 23.8362 30.39 24.2801C30.1582 24.723 30.0252 25.2108 30 25.7101L27.36 27.6301L24.72 25.7101C24.6831 25.2077 24.5363 24.7195 24.29 24.2801C24.0466 23.8375 23.9265 23.3376 23.9424 22.8328C23.9582 22.3279 24.1093 21.8365 24.38 21.4101C24.6075 21.0653 24.7323 20.663 24.74 20.2501C24.748 19.358 24.402 18.4991 23.7777 17.8618C23.1535 17.2245 22.3021 16.8606 21.41 16.8501H21.28C18 16.8501 15.37 21.0001 15.37 26.0001C15.37 31.0001 18 35.1501 21.23 35.1501H21.36C22.2521 35.1395 23.1035 34.7757 23.7277 34.1383C24.352 33.501 24.698 32.6421 24.69 31.7501C24.6948 31.1375 24.5397 30.5343 24.24 30.0001C23.9966 29.5575 23.8765 29.0576 23.8924 28.5528C23.9082 28.0479 24.0593 27.5565 24.33 27.1301L24.49 26.8401L26.79 28.5101V42.4301C26.821 42.5387 26.8866 42.6343 26.9768 42.7024C27.0671 42.7704 27.177 42.8072 27.29 42.8072C27.403 42.8072 27.5129 42.7704 27.6032 42.7024C27.6934 42.6343 27.759 42.5387 27.79 42.4301V28.5401L30.1 26.8701C30.1456 26.9708 30.1991 27.0678 30.26 27.1601C30.5274 27.581 30.6801 28.0646 30.7029 28.5628C30.7257 29.061 30.6178 29.5564 30.39 30.0001C30.0923 30.5206 29.937 31.1104 29.94 31.7101C29.9347 32.1522 30.0167 32.5909 30.1814 33.0013C30.346 33.4116 30.5899 33.7854 30.8993 34.1012C31.2087 34.4171 31.5773 34.6688 31.9841 34.8419C32.3909 35.015 32.8279 35.1062 33.27 35.1101H33.39C36.62 35.1101 39.25 31.0101 39.25 25.9601C39.25 20.9101 36.62 16.8201 33.39 16.8201V16.8501ZM23.33 24.8501C23.5335 25.1996 23.6436 25.5956 23.65 26.0001C23.6415 26.2227 23.5686 26.4381 23.44 26.6201C23.0684 27.206 22.8619 27.8814 22.8426 28.5749C22.8232 29.2685 22.9916 29.9544 23.33 30.5601C23.5402 30.9214 23.6506 31.3321 23.65 31.7501C23.6526 32.0577 23.5943 32.3629 23.4784 32.6479C23.3625 32.9329 23.1913 33.1921 22.9747 33.4106C22.758 33.6291 22.5003 33.8025 22.2163 33.9208C21.9323 34.0392 21.6277 34.1001 21.32 34.1001H21.16C18.54 34.0401 16.42 30.4301 16.42 26.0001C16.42 21.5701 18.53 18.0001 21.15 17.9001H21.36C21.6647 17.9053 21.9654 17.9705 22.2448 18.0919C22.5243 18.2133 22.7772 18.3886 22.9889 18.6078C23.2006 18.8269 23.3671 19.0856 23.4788 19.3691C23.5905 19.6527 23.6453 19.9554 23.64 20.2601C23.6337 20.4785 23.5642 20.6903 23.44 20.8701C23.0684 21.456 22.8619 22.1314 22.8426 22.8249C22.8232 23.5185 22.9916 24.2044 23.33 24.8101V24.8501ZM33.47 34.1401H33.27C32.9631 34.1323 32.6608 34.064 32.3804 33.939C32.1 33.814 31.8471 33.6349 31.6362 33.4119C31.4252 33.1889 31.2604 32.9264 31.1513 32.6395C31.0421 32.3526 30.9907 32.0469 31 31.7401C31.0005 31.3235 31.1072 30.9139 31.31 30.5501C31.6484 29.9444 31.8168 29.2585 31.7974 28.5649C31.7781 27.8714 31.5717 27.196 31.2 26.6101C31.0801 26.4282 31.011 26.2176 31 26.0001C31.0005 25.5835 31.1072 25.1739 31.31 24.8101C31.6484 24.2044 31.8168 23.5185 31.7974 22.8249C31.7781 22.1314 31.5717 21.456 31.2 20.8701C31.0801 20.6882 31.011 20.4776 31 20.2601C30.996 19.952 31.0534 19.6463 31.1688 19.3607C31.2843 19.0751 31.4554 18.8153 31.6723 18.5966C31.8892 18.3778 32.1475 18.2045 32.4321 18.0866C32.7167 17.9687 33.022 17.9087 33.33 17.9101H33.49C36.11 17.9801 38.23 21.5901 38.23 26.0101C38.23 30.4301 36.11 34.0101 33.49 34.1101L33.47 34.1401Z" fill="#0A9386"/>
<path d="M2.4 22.81C0.400004 22.2 -0.379996 20.81 0.170004 19.09C0.330273 18.4691 0.679757 17.9134 1.17 17.5L1.81 18.08C1.4465 18.4242 1.17491 18.8539 1.02 19.33C0.670004 20.47 1.25 21.33 2.69 21.79C4.13 22.25 5.05 21.86 5.42 20.66C5.56946 20.1439 5.56946 19.5961 5.42 19.08L6.33 19C6.52868 19.6519 6.52868 20.3481 6.33 21C5.77 22.75 4.35 23.41 2.4 22.81Z" fill="#0A9386"/>
<path d="M5.26 13.47L8.91 15.7L8.54 16.31L8 16.06C8.09284 16.3304 8.1266 16.6177 8.099 16.9023C8.0714 17.187 7.98308 17.4624 7.84 17.71C7.77047 17.8556 7.67001 17.9844 7.54562 18.0872C7.42124 18.1901 7.27591 18.2646 7.11978 18.3055C6.96365 18.3465 6.80047 18.3529 6.64162 18.3243C6.48276 18.2957 6.33206 18.2328 6.2 18.14L3.43 16.47L3.89 15.72L6.37 17.23C6.44596 17.2945 6.53594 17.3403 6.63276 17.3639C6.72959 17.3875 6.83058 17.3882 6.9277 17.3658C7.02482 17.3435 7.11538 17.2988 7.19217 17.2353C7.26895 17.1718 7.32985 17.0912 7.37 17C7.46208 16.815 7.51575 16.6134 7.52778 16.4071C7.53981 16.2009 7.50995 15.9944 7.44 15.8L4.8 14.22L5.26 13.47Z" fill="#0A9386"/>
<path d="M5.5 11.5001C5.44372 11.4551 5.39829 11.398 5.36706 11.3331C5.33584 11.2682 5.31963 11.1971 5.31963 11.1251C5.31963 11.053 5.33584 10.9819 5.36706 10.917C5.39829 10.8521 5.44372 10.795 5.5 10.7501C5.53839 10.6894 5.59014 10.6384 5.6513 10.6009C5.71246 10.5634 5.7814 10.5403 5.85283 10.5336C5.92427 10.5268 5.9963 10.5365 6.06341 10.5619C6.13052 10.5873 6.19093 10.6277 6.24 10.6801C6.29613 10.724 6.34152 10.7802 6.37274 10.8443C6.40395 10.9084 6.42017 10.9788 6.42017 11.0501C6.42017 11.1214 6.40395 11.1917 6.37274 11.2558C6.34152 11.3199 6.29613 11.3761 6.24 11.4201C6.20246 11.4814 6.15136 11.5333 6.09063 11.5717C6.02989 11.6102 5.96114 11.6342 5.88966 11.642C5.81819 11.6497 5.74589 11.6409 5.67834 11.6163C5.61078 11.5917 5.54977 11.5519 5.5 11.5001ZM6.36 12.1001L6.93 11.4301L10.2 14.2001L9.63 14.8701L6.36 12.1001Z" fill="#0A9386"/>
<path d="M9.29 6L13.63 10.94L13.09 11.42L12.64 11.05C12.6745 11.3118 12.6411 11.5781 12.5431 11.8232C12.445 12.0684 12.2855 12.2842 12.08 12.45C11.26 13.17 10.24 12.96 9.31 11.9C8.38 10.84 8.31 9.79 9.12 9.06C9.28927 8.89855 9.49093 8.77493 9.71161 8.69734C9.93229 8.61976 10.1669 8.58999 10.4 8.61L8.63 6.61L9.29 6ZM12.22 10.67L10.89 9.16C10.6982 9.12552 10.5011 9.13362 10.3127 9.18373C10.1244 9.23384 9.94934 9.32475 9.8 9.45C9.3 9.9 9.36 10.58 9.98 11.29C10.6 12 11.3 12.12 11.8 11.69C11.944 11.5639 12.0568 11.4062 12.1297 11.2293C12.2025 11.0523 12.2335 10.8609 12.22 10.67Z" fill="#0A9386"/>
<path d="M15.66 6.13993L17.21 8.71993L16.58 9.09993L16.24 8.68993C16.1198 9.22885 15.7931 9.69915 15.33 9.99993C15.1968 10.0938 15.045 10.158 14.8848 10.1882C14.7247 10.2184 14.5599 10.2139 14.4017 10.1751C14.2434 10.1362 14.0953 10.0639 13.9674 9.96295C13.8394 9.86201 13.7346 9.73481 13.66 9.58993C13.13 8.69993 13.66 7.73993 15.06 6.88993L14.87 6.55993C14.68 6.23993 14.35 6.16993 13.87 6.44993C13.4693 6.70831 13.1284 7.04923 12.87 7.44993L12.38 6.99993C12.6938 6.4717 13.1292 6.02601 13.65 5.69993C13.8044 5.57787 13.984 5.4916 14.1758 5.44736C14.3676 5.40312 14.5669 5.402 14.7592 5.4441C14.9515 5.48619 15.132 5.57044 15.2878 5.69077C15.4436 5.8111 15.5707 5.96451 15.66 6.13993ZM15.28 9.20993C15.596 8.98483 15.8227 8.65554 15.92 8.27993L15.34 7.27993C14.42 7.82993 14.07 8.42993 14.34 8.94993C14.3762 9.0366 14.4316 9.11392 14.5021 9.17603C14.5726 9.23814 14.6562 9.28342 14.7468 9.30847C14.8373 9.33351 14.9324 9.33765 15.0247 9.32058C15.1171 9.30351 15.2044 9.26568 15.28 9.20993Z" fill="#0A9386"/>
<path d="M19.18 0.860107L21.47 7.00011L20.8 7.25011L20.5 6.75011C20.4421 7.00517 20.3198 7.24114 20.1447 7.43546C19.9696 7.62979 19.7477 7.77599 19.5 7.86011C18.5 8.24011 17.6 7.67011 17.11 6.36011C16.62 5.05011 16.91 4.02011 17.95 3.63011C18.1645 3.5365 18.396 3.48818 18.63 3.48818C18.864 3.48818 19.0955 3.5365 19.31 3.63011L18.37 1.11011L19.18 0.860107ZM20.25 6.27011L19.54 4.38011C19.3761 4.27756 19.191 4.21349 18.9988 4.19271C18.8065 4.17192 18.6121 4.19497 18.43 4.26011C17.79 4.50011 17.61 5.16011 17.93 6.04011C18.25 6.92011 18.87 7.30011 19.49 7.04011C19.6652 6.97503 19.8241 6.87238 19.9554 6.73935C20.0867 6.60633 20.1872 6.44616 20.25 6.27011Z" fill="#0A9386"/>
<path d="M21.86 4.68001C21.7688 4.4054 21.7402 4.11387 21.7762 3.82676C21.8123 3.53966 21.9121 3.26425 22.0684 3.02072C22.2247 2.77719 22.4334 2.57171 22.6794 2.41932C22.9254 2.26693 23.2024 2.1715 23.49 2.14001C24.77 1.94001 25.62 2.62001 25.85 4.04001C26.08 5.46001 25.48 6.38001 24.21 6.58001C22.94 6.78001 22.09 6.11001 21.86 4.68001ZM25 4.18001C24.84 3.18001 24.37 2.76001 23.65 2.88001C22.93 3.00001 22.65 3.58001 22.77 4.54001C22.89 5.50001 23.4 5.95001 24.12 5.84001C24.84 5.73001 25.12 5.14001 25 4.18001Z" fill="#0A9386"/>
<path d="M30.11 0L31.11 0.18L30.66 2.78L33.49 3.27L34 0.67L35 0.85L33.94 7L32.94 6.82L33.4 4.16L30.57 3.67L30.08 6.3L29.08 6.12L30.11 0Z" fill="#0A9386"/>
<path d="M35.61 5.30004C36.15 3.96004 37.13 3.48004 38.29 3.94004C39.45 4.40004 39.65 5.27004 39.17 6.48004C39.1269 6.59304 39.0768 6.70325 39.02 6.81004L36.41 5.81004C36.3185 5.96086 36.2627 6.13054 36.2467 6.3062C36.2306 6.48185 36.2549 6.65885 36.3175 6.82372C36.3802 6.98859 36.4797 7.137 36.6083 7.25767C36.737 7.37833 36.8915 7.46806 37.06 7.52004C37.5337 7.69896 38.0563 7.69896 38.53 7.52004L38.36 8.23004C37.7932 8.41053 37.1792 8.37126 36.64 8.12004C35.46 7.66004 35.08 6.63004 35.61 5.30004ZM38.4 6.00004C38.66 5.36004 38.52 4.87004 37.98 4.66004C37.8502 4.60311 37.7098 4.57441 37.5681 4.57586C37.4264 4.57731 37.2866 4.60887 37.158 4.66844C37.0294 4.72801 36.9149 4.81424 36.8222 4.9214C36.7294 5.02857 36.6605 5.15422 36.62 5.29004L38.4 6.00004Z" fill="#0A9386"/>
<path d="M43.46 9.22992C42.72 10.4499 41.73 10.8099 40.81 10.2299C40.5958 10.1132 40.4114 9.94878 40.2709 9.74937C40.1305 9.54995 40.0378 9.3209 40 9.07992L38.81 11.0799L38.06 10.6199L41.22 5.41992L41.83 5.78992L41.65 6.25992C41.8915 6.1801 42.1478 6.15484 42.4002 6.18596C42.6527 6.21709 42.8951 6.30382 43.11 6.43992C44 6.92992 44.19 7.99992 43.46 9.22992ZM42.68 8.75992C43.17 7.94992 43.12 7.25992 42.54 6.90992C42.3712 6.80963 42.182 6.74857 41.9864 6.73126C41.7908 6.71395 41.5938 6.74083 41.41 6.80992L40.41 8.51992C40.4281 8.71302 40.492 8.89901 40.5963 9.06249C40.7007 9.22596 40.8425 9.36221 41.01 9.45992C41.55 9.81992 42.18 9.57992 42.68 8.75992Z" fill="#0A9386"/>
<path d="M47.28 11.35L45.28 13.62L44.72 13.13L45 12.69C44.458 12.7334 43.9203 12.5649 43.5 12.22C43.3708 12.1218 43.2641 11.9971 43.1869 11.8544C43.1098 11.7116 43.064 11.554 43.0526 11.3922C43.0412 11.2303 43.0646 11.0679 43.121 10.9157C43.1775 10.7636 43.2658 10.6253 43.38 10.51C44.06 9.72998 45.14 9.90998 46.38 11L46.63 10.72C46.87 10.43 46.83 10.1 46.42 9.71998C46.0419 9.40914 45.5969 9.19009 45.12 9.07998L45.38 8.47998C45.9817 8.61163 46.5417 8.88987 47.01 9.28998C47.1807 9.39327 47.326 9.53364 47.4351 9.7007C47.5442 9.86777 47.6143 10.0572 47.6402 10.2551C47.6662 10.4529 47.6473 10.654 47.5849 10.8436C47.5225 11.0331 47.4183 11.2062 47.28 11.35ZM44.28 11.93C44.5857 12.171 44.9723 12.2856 45.36 12.25L46.09 11.41C45.28 10.7 44.6 10.55 44.21 11.01C44.1467 11.07 44.0969 11.143 44.0642 11.2239C44.0315 11.3049 44.0165 11.3919 44.0203 11.4791C44.0241 11.5663 44.0466 11.6517 44.0862 11.7295C44.1258 11.8073 44.1817 11.8756 44.25 11.93H44.28Z" fill="#0A9386"/>
<path d="M47.42 15.8599C47.173 15.7599 46.9536 15.6021 46.78 15.3999C46.6635 15.2909 46.5728 15.1573 46.5146 15.0087C46.4564 14.8601 46.4321 14.7004 46.4436 14.5413C46.4551 14.3821 46.5021 14.2276 46.5811 14.0889C46.66 13.9503 46.769 13.831 46.9 13.7399L48.73 12.1699L48.3 11.6699L48.99 11.3199L49.3 11.6799L50.45 10.6799L51.02 11.3499L49.87 12.3499L50.42 12.9899L49.86 13.4699L49.31 12.8299L47.5 14.3899C47.4482 14.4232 47.4044 14.4674 47.3716 14.5195C47.3388 14.5715 47.3179 14.6302 47.3102 14.6912C47.3026 14.7523 47.3085 14.8142 47.3275 14.8728C47.3464 14.9313 47.378 14.985 47.42 15.0299C47.5092 15.1388 47.6177 15.2303 47.74 15.2999L47.42 15.8599Z" fill="#0A9386"/>
<path d="M51.24 14.1099L51.73 14.8399L48.19 17.2399L47.69 16.5099L51.24 14.1099ZM52.05 13.4499C52.1054 13.4028 52.1707 13.3689 52.2412 13.3507C52.3116 13.3325 52.3852 13.3306 52.4565 13.345C52.5277 13.3595 52.5948 13.3899 52.6526 13.4341C52.7104 13.4782 52.7573 13.5349 52.79 13.5999C52.8375 13.6537 52.8719 13.7177 52.8908 13.7869C52.9097 13.8562 52.9125 13.9288 52.899 13.9993C52.8855 14.0697 52.856 14.1362 52.8129 14.1935C52.7697 14.2508 52.714 14.2975 52.65 14.3299C52.5333 14.4095 52.3898 14.4394 52.251 14.4132C52.1122 14.3869 51.9896 14.3066 51.91 14.1899C51.8304 14.0732 51.8005 13.9297 51.8267 13.7909C51.853 13.6521 51.9333 13.5295 52.05 13.4499Z" fill="#0A9386"/>
<path d="M50.61 16.9999C51.91 16.3799 52.95 16.6899 53.5 17.8399C53.7477 18.281 53.8123 18.8017 53.68 19.2899L52.92 19.4099C52.9935 19.2222 53.027 19.0211 53.0184 18.8197C53.0098 18.6182 52.9592 18.4208 52.87 18.2399C52.53 17.5399 51.87 17.3899 50.99 17.7999C50.11 18.2099 49.83 18.7999 50.15 19.5099C50.2531 19.709 50.3945 19.8856 50.5661 20.0298C50.7377 20.174 50.9362 20.2828 51.15 20.3499L50.58 20.8499C50.3288 20.755 50.0993 20.6105 49.9051 20.4249C49.711 20.2394 49.5562 20.0166 49.45 19.7699C48.89 18.5999 49.31 17.5999 50.61 16.9999Z" fill="#0A9386"/>
<path d="M52.4 20.88C53.81 20.58 54.76 21.13 55.02 22.39C55.28 23.65 54.65 24.54 53.24 24.84C51.83 25.14 50.89 24.59 50.62 23.32C50.35 22.05 51 21.18 52.4 20.88ZM53.06 24C54.01 23.8 54.44 23.31 54.29 22.59C54.14 21.87 53.54 21.59 52.59 21.79C51.64 21.99 51.21 22.49 51.36 23.21C51.51 23.93 52.1 24.17 53.06 24Z" fill="#0A9386"/>
<path d="M19 49.2499L15.54 52.4899C14.79 53.2199 14.14 53.6099 13.38 53.2199C13.2469 53.1583 13.1197 53.0846 13 52.9999L13.23 52.2799C13.3103 52.3457 13.3975 52.4027 13.49 52.4499C13.83 52.6199 14.17 52.6599 14.76 52.0499L15.32 47.3999L16.2 47.8499L15.7 51.3199L18.17 48.8499L19 49.2499Z" fill="#0A9386"/>
<path d="M24.58 55.0001L23.64 52.6101H23.59L22.59 52.4501L22.23 54.6301L21.23 54.4701L22.23 48.3401L24.23 48.6701C24.5137 48.675 24.7927 48.7431 25.0468 48.8694C25.3009 48.9956 25.5237 49.1769 25.6989 49.4C25.8742 49.6232 25.9975 49.8826 26.06 50.1593C26.1224 50.4361 26.1224 50.7233 26.06 51.0001C26.0259 51.3969 25.8611 51.7712 25.5915 52.0644C25.3218 52.3575 24.9626 52.553 24.57 52.6201L25.7 55.2001L24.58 55.0001ZM22.72 51.5801L23.72 51.7401C23.8658 51.7637 24.0148 51.7584 24.1585 51.7245C24.3022 51.6905 24.4378 51.6286 24.5576 51.5423C24.6774 51.4559 24.779 51.3468 24.8566 51.2212C24.9342 51.0955 24.9864 50.9559 25.01 50.8101C25.0336 50.6643 25.0283 50.5153 24.9944 50.3716C24.9604 50.2279 24.8985 50.0923 24.8122 49.9725C24.7258 49.8527 24.6167 49.7511 24.4911 49.6735C24.3655 49.5958 24.2258 49.5437 24.08 49.5201L23.08 49.3601L22.72 51.5801Z" fill="#0A9386"/>
<path d="M26.93 53.0001C26.84 51.5601 27.53 50.7101 28.77 50.6401C30.01 50.5701 30.58 51.2601 30.65 52.5601C30.6605 52.6799 30.6605 52.8003 30.65 52.9201L27.83 53.0901C27.89 53.9901 28.37 54.4101 29.15 54.3701C29.6594 54.3426 30.1419 54.1333 30.51 53.7801L30.65 54.4901C30.2148 54.895 29.6444 55.1232 29.05 55.1301C27.79 55.2101 27 54.4401 26.93 53.0001ZM29.73 52.4201C29.73 51.7301 29.36 51.3501 28.79 51.4201C28.22 51.4901 27.84 51.9301 27.79 52.5701L29.73 52.4201Z" fill="#0A9386"/>
<path d="M35.26 50.55L36.12 53.65L35.27 53.88L34.49 51.07C34.471 50.9796 34.4329 50.8943 34.3784 50.8198C34.3238 50.7453 34.254 50.6832 34.1735 50.6378C34.0931 50.5924 34.0039 50.5646 33.9119 50.5564C33.8199 50.5482 33.7272 50.5596 33.64 50.59C33.4453 50.6603 33.2674 50.7704 33.1176 50.9134C32.9678 51.0563 32.8494 51.2288 32.77 51.42L33.57 54.35L32.72 54.59L31.58 50.45L32.27 50.26L32.51 50.83C32.6293 50.5684 32.8037 50.3357 33.0211 50.1476C33.2385 49.9595 33.494 49.8205 33.77 49.74C33.9205 49.6814 34.0819 49.6563 34.2431 49.6665C34.4042 49.6767 34.5612 49.722 34.7031 49.7991C34.8449 49.8762 34.9682 49.9834 35.0644 50.1131C35.1606 50.2427 35.2274 50.3919 35.26 50.55Z" fill="#0A9386"/>
<path d="M39.52 48.72L40.9 51.39L40.25 51.73L39.93 51.3C39.8559 51.5623 39.729 51.8068 39.5571 52.0183C39.3851 52.2298 39.1717 52.4039 38.93 52.53C38.7909 52.6111 38.6362 52.6619 38.4761 52.679C38.3159 52.696 38.154 52.6789 38.001 52.6288C37.8479 52.5788 37.7072 52.4968 37.5881 52.3884C37.469 52.28 37.3742 52.1477 37.31 52C36.84 51.08 37.41 50.15 38.88 49.39L38.7 49.05C38.53 48.72 38.2 48.63 37.7 48.88C37.2702 49.1252 36.9037 49.4677 36.63 49.88L36.16 49.42C36.5078 48.9154 36.9705 48.5007 37.51 48.21C37.6696 48.0921 37.8534 48.0111 38.048 47.9729C38.2427 47.9346 38.4435 47.9401 38.6358 47.9889C38.8281 48.0377 39.0072 48.1286 39.1601 48.255C39.313 48.3815 39.4359 48.5403 39.52 48.72ZM38.94 51.72C39.2766 51.5214 39.5264 51.2038 39.64 50.83L39.13 49.83C38.13 50.32 37.78 50.9 38.06 51.43C38.0893 51.5148 38.137 51.5922 38.1996 51.6565C38.2623 51.7208 38.3383 51.7704 38.4224 51.802C38.5064 51.8335 38.5964 51.8461 38.6859 51.8388C38.7754 51.8315 38.8621 51.8046 38.94 51.76V51.72Z" fill="#0A9386"/>
<path d="M38.61 45L39.33 44.49L43.18 49.81L42.47 50.33L38.61 45Z" fill="#0A9386"/>
</g>
<defs>
<clipPath id="clip0_2502_7005">
<rect width="55.08" height="55.15" fill="white"/>
</clipPath>
</defs>
</svg>
