<svg width="52" height="54" viewBox="0 0 52 54" fill="none" xmlns="http://www.w3.org/2000/svg">
<g clip-path="url(#clip0_2646_6976)">
<path d="M0 13.33L1.21 11.42C1.29793 11.2088 1.4318 11.0199 1.6019 10.8669C1.77199 10.7139 1.97404 10.6008 2.19334 10.5356C2.41265 10.4705 2.64371 10.4551 2.86973 10.4904C3.09575 10.5258 3.31106 10.6111 3.5 10.74C3.77138 10.9014 3.98268 11.1469 4.10181 11.4393C4.22093 11.7317 4.24136 12.055 4.16 12.36C4.40674 12.0825 4.74712 11.9055 5.11608 11.8631C5.48504 11.8207 5.85669 11.9157 6.16 12.13C7.07 12.71 7.16 13.67 6.45 14.8L5.24 16.66L0 13.33ZM3.41 13.1C3.50247 12.997 3.5705 12.8745 3.60903 12.7415C3.64756 12.6086 3.65559 12.4686 3.63252 12.3322C3.60945 12.1957 3.55588 12.0661 3.4758 11.9532C3.39571 11.8403 3.29119 11.7469 3.17 11.68C3.06869 11.6023 2.95117 11.5484 2.82616 11.5223C2.70116 11.4963 2.57189 11.4987 2.44795 11.5294C2.32401 11.5602 2.20859 11.6184 2.11027 11.6999C2.01194 11.7814 1.93324 11.884 1.88 12L1.3 12.92L2.89 13.92L3.41 13.1ZM5.65 14.4C6 13.8 6 13.29 5.46 13C4.92 12.71 4.38 12.83 3.96 13.49L3.43 14.31L5.07 15.31L5.65 14.4Z" fill="#0A9386"/>
<path d="M8.16 8.17012L10.3 10.2801L9.78 10.8101L9.35 10.5001C9.36038 10.7747 9.31624 11.0487 9.22012 11.3062C9.124 11.5636 8.97781 11.7995 8.79 12.0001C8.68392 12.1229 8.55265 12.2214 8.40512 12.2888C8.25758 12.3563 8.09724 12.3913 7.935 12.3913C7.77276 12.3913 7.61242 12.3563 7.46489 12.2888C7.31735 12.2214 7.18608 12.1229 7.08 12.0001C6.34 11.2801 6.59 10.2101 7.76 9.00012L7.49 8.74012C7.22 8.47012 6.88 8.49012 6.49 8.88012C6.1581 9.24048 5.91197 9.67122 5.77 10.1401L5.19 9.84012C5.36206 9.25316 5.67045 8.7152 6.09 8.27012C6.20815 8.11094 6.36015 7.97995 6.53503 7.88661C6.70992 7.79326 6.90333 7.73989 7.10134 7.73032C7.29935 7.72076 7.49701 7.75524 7.68008 7.83129C7.86314 7.90734 8.02706 8.02307 8.16 8.17012ZM8.55 11.2401C8.80617 10.9469 8.94505 10.5694 8.94 10.1801L8.14 9.39012C7.38 10.1601 7.2 10.8201 7.63 11.2501C7.68797 11.3152 7.75923 11.3672 7.83897 11.4024C7.91872 11.4377 8.00509 11.4555 8.09228 11.4545C8.17946 11.4536 8.26543 11.4339 8.34439 11.397C8.42335 11.36 8.49346 11.3065 8.55 11.2401Z" fill="#0A9386"/>
<path d="M7.84 5.46012C7.79072 5.40717 7.75377 5.34397 7.73181 5.27505C7.70985 5.20614 7.70342 5.13321 7.71298 5.06151C7.72254 4.98982 7.74785 4.92112 7.7871 4.86037C7.82636 4.79961 7.87857 4.7483 7.94 4.71012C7.99047 4.6587 8.05209 4.61957 8.12009 4.59575C8.18809 4.57194 8.26066 4.56408 8.33218 4.57277C8.4037 4.58147 8.47227 4.6065 8.53258 4.64592C8.59289 4.68534 8.64333 4.7381 8.68 4.80012C8.73095 4.85033 8.76948 4.91173 8.79254 4.97944C8.8156 5.04714 8.82255 5.1193 8.81284 5.19016C8.80313 5.26103 8.77703 5.32866 8.73661 5.38767C8.6962 5.44668 8.64257 5.49546 8.58 5.53012C8.53199 5.58437 8.47184 5.62652 8.40445 5.65312C8.33706 5.67973 8.26434 5.69004 8.19221 5.68321C8.12008 5.67639 8.05058 5.65263 7.98938 5.61386C7.92818 5.57509 7.87699 5.52241 7.84 5.46012ZM11.71 11.4601L11.16 10.9401C11.2617 10.8984 11.3561 10.8411 11.44 10.7701C11.4945 10.7364 11.5405 10.6907 11.5746 10.6365C11.6087 10.5823 11.6299 10.521 11.6367 10.4573C11.6434 10.3936 11.6355 10.3292 11.6136 10.269C11.5916 10.2088 11.5562 10.1545 11.51 10.1101L8.51 6.27012L9.2 5.73012L12.2 9.57012C12.3111 9.6873 12.3951 9.82751 12.4459 9.9808C12.4967 10.1341 12.5132 10.2967 12.4941 10.457C12.475 10.6174 12.4208 10.7716 12.3354 10.9086C12.25 11.0457 12.1355 11.1623 12 11.2501C11.9112 11.3193 11.8137 11.3764 11.71 11.4201V11.4601Z" fill="#0A9386"/>
<path d="M11.46 6.65006C11.2794 6.42033 11.1514 6.15381 11.0849 5.86926C11.0184 5.58472 11.015 5.28906 11.0751 5.00308C11.1352 4.71711 11.2571 4.44777 11.4325 4.21401C11.6078 3.98025 11.8323 3.78775 12.09 3.65006C12.3403 3.49713 12.6212 3.40112 12.9127 3.36884C13.2042 3.33656 13.4993 3.36879 13.777 3.46326C14.0546 3.55773 14.3082 3.71212 14.5195 3.91549C14.7309 4.11886 14.8949 4.36623 15 4.64006C15.1911 4.86622 15.3279 5.13312 15.3999 5.42032C15.472 5.70752 15.4773 6.0074 15.4155 6.29697C15.3537 6.58655 15.2265 6.85814 15.0435 7.09094C14.8606 7.32375 14.6268 7.51158 14.36 7.64006C13.21 8.24006 12.18 7.90006 11.46 6.65006ZM14.2 5.09006C13.71 4.24006 13.11 3.98006 12.47 4.34006C11.83 4.70006 11.75 5.34006 12.24 6.21006C12.73 7.08006 13.32 7.31006 13.96 6.94006C14.6 6.57006 14.68 5.93006 14.2 5.09006Z" fill="#0A9386"/>
<path d="M17.69 3.53995C17.33 2.14995 17.83 1.17995 19.03 0.859952C20.23 0.539952 20.92 1.10995 21.26 2.36995C21.291 2.48495 21.3144 2.60187 21.33 2.71995L18.61 3.43995C18.6245 3.61668 18.6793 3.78774 18.7702 3.93999C18.8611 4.09224 18.9857 4.22162 19.1344 4.31819C19.2831 4.41476 19.452 4.47595 19.6281 4.49706C19.8041 4.51817 19.9827 4.49863 20.15 4.43995C20.6456 4.31828 21.0795 4.0195 21.37 3.59995L21.65 4.26995C21.2982 4.75036 20.7822 5.08486 20.2 5.20995C19 5.52995 18.06 4.92995 17.69 3.53995ZM20.33 2.40995C20.15 1.73995 19.75 1.40995 19.2 1.58995C19.0614 1.62016 18.9309 1.67949 18.817 1.76402C18.7031 1.84855 18.6085 1.95635 18.5394 2.08024C18.4704 2.20414 18.4285 2.3413 18.4165 2.48263C18.4046 2.62395 18.4228 2.76621 18.47 2.89995L20.33 2.40995Z" fill="#0A9386"/>
<path d="M26 1.09992L26.2 4.30992L25.32 4.36992L25.1 1.45992C25.1009 1.36643 25.0816 1.27385 25.0435 1.18848C25.0053 1.10312 24.9492 1.027 24.879 0.965297C24.8088 0.903596 24.726 0.857775 24.6365 0.830961C24.5469 0.804146 24.4526 0.796969 24.36 0.809918C24.1593 0.841733 23.9672 0.91398 23.7953 1.02228C23.6234 1.13057 23.4753 1.27266 23.36 1.43992L23.55 4.43992H22.67L22.38 0.259918L23.09 0.209918L23.21 0.819918C23.3813 0.589815 23.5987 0.39802 23.8484 0.256816C24.0981 0.115611 24.3745 0.0281109 24.66 -8.17515e-05C24.8224 -0.0308123 24.9897 -0.025525 25.1498 0.0154072C25.31 0.0563394 25.4592 0.131919 25.587 0.236816C25.7148 0.341712 25.818 0.473369 25.8894 0.6225C25.9607 0.771631 25.9985 0.934602 26 1.09992Z" fill="#0A9386"/>
<path d="M32.45 5.74988C32.26 6.64988 31.45 6.94988 30.06 6.64988C28.67 6.34988 28.17 5.81988 28.34 5.04988C28.4057 4.78571 28.5593 4.55174 28.7755 4.38638C28.9918 4.22102 29.2578 4.13409 29.53 4.13988C29.4345 4.08579 29.3599 4.00119 29.3182 3.89965C29.2765 3.7981 29.2701 3.68549 29.3 3.57988C29.3391 3.44883 29.4197 3.33405 29.5297 3.25287C29.6398 3.17169 29.7733 3.12852 29.91 3.12988C29.6985 2.96512 29.5409 2.74114 29.4572 2.48646C29.3735 2.23179 29.3675 1.95797 29.44 1.69988C29.63 0.789878 30.37 0.389878 31.44 0.619878C31.8701 0.688486 32.2646 0.899826 32.56 1.21988L33.35 1.01988V1.66988H32.77C32.8301 1.90611 32.8301 2.15364 32.77 2.38988C32.57 3.30988 31.84 3.70988 30.77 3.47988L30.54 3.41988C30.27 3.35988 30.11 3.41988 30.08 3.55988C30.05 3.69988 30.27 3.84988 30.94 4.04988C31.87 4.35988 32.65 4.83988 32.45 5.74988ZM31.59 5.65988C31.69 5.15988 31.04 4.97988 30.1 4.56988C29.55 4.50988 29.19 4.68988 29.1 5.02988C29.01 5.36988 29.47 5.83988 30.3 6.02988C31.13 6.21988 31.5 5.99988 31.59 5.65988ZM30.26 1.86988C30.222 1.98446 30.2101 2.10609 30.2252 2.22586C30.2402 2.34563 30.2819 2.46052 30.3471 2.56213C30.4122 2.66374 30.4993 2.74949 30.6019 2.81312C30.7045 2.87674 30.82 2.91664 30.94 2.92988C31.0546 2.96598 31.1757 2.97645 31.2948 2.96057C31.4139 2.94469 31.528 2.90283 31.6291 2.83796C31.7303 2.77309 31.8159 2.68679 31.88 2.58517C31.9441 2.48355 31.985 2.36908 32 2.24988C32.0381 2.13455 32.0497 2.01214 32.0341 1.8917C32.0184 1.77127 31.9759 1.65589 31.9097 1.55411C31.8434 1.45233 31.7551 1.36674 31.6513 1.3037C31.5475 1.24065 31.4309 1.20175 31.31 1.18988C31.196 1.15174 31.0749 1.13977 30.9557 1.15486C30.8364 1.16995 30.7221 1.21171 30.6212 1.27704C30.5204 1.34237 30.4355 1.4296 30.373 1.53223C30.3104 1.63487 30.2718 1.75027 30.26 1.86988Z" fill="#0A9386"/>
<path d="M36.56 3.00012C36.0779 2.83009 35.5521 2.83009 35.07 3.00012L34 5.92012L33.17 5.62012L34.66 1.62012L35.33 1.87012L35.21 2.47012C35.4411 2.33746 35.6963 2.25231 35.9608 2.21968C36.2253 2.18705 36.4936 2.2076 36.75 2.28012L36.56 3.00012Z" fill="#0A9386"/>
<path d="M40 5.44994L38.6 8.10994L38 7.75994L38.18 7.25994C37.6625 7.43032 37.0987 7.39082 36.61 7.14994C36.4615 7.08525 36.3287 6.9894 36.2204 6.86887C36.1122 6.74835 36.0312 6.60597 35.9828 6.45138C35.9345 6.2968 35.9199 6.13362 35.9401 5.97292C35.9603 5.81221 36.0149 5.65772 36.1 5.51994C36.58 4.59994 37.67 4.51994 39.1 5.30994L39.29 4.99994C39.47 4.66994 39.35 4.34994 38.87 4.09994C38.4312 3.88431 37.949 3.77145 37.46 3.76994L37.57 3.12994C38.1844 3.12226 38.7916 3.26291 39.34 3.53994C39.5165 3.61297 39.6755 3.72262 39.8064 3.86165C39.9374 4.00067 40.0374 4.16591 40.0998 4.34643C40.1621 4.52696 40.1855 4.71867 40.1683 4.90889C40.1511 5.09911 40.0937 5.28352 40 5.44994ZM37.22 6.70994C37.572 6.87198 37.9727 6.89345 38.34 6.76994L38.86 5.76994C37.86 5.26994 37.22 5.27994 36.94 5.76994C36.8805 5.84545 36.84 5.93416 36.822 6.02859C36.8039 6.12302 36.8088 6.2204 36.8363 6.31254C36.8637 6.40467 36.9129 6.48887 36.9797 6.55803C37.0465 6.62718 37.1289 6.67928 37.22 6.70994Z" fill="#0A9386"/>
<path d="M39.44 8.26004L40 7.69004C40.2272 8.19834 40.5696 8.64683 41 9.00004C41.39 9.28004 41.73 9.33004 41.95 9.00004C42.17 8.67004 41.95 8.28004 41.57 7.84004C41.19 7.40004 40.7 6.65004 41.18 6.00004C41.2952 5.84749 41.4427 5.72223 41.6119 5.6332C41.7811 5.54417 41.9679 5.49355 42.1589 5.48496C42.3498 5.47636 42.5404 5.51 42.7169 5.58348C42.8934 5.65695 43.0515 5.76845 43.18 5.91004C43.582 6.21985 43.9214 6.60334 44.18 7.04004L43.7 7.59004C43.4721 7.18134 43.1743 6.81579 42.82 6.51004C42.49 6.26004 42.13 6.24004 41.95 6.51004C41.77 6.78004 41.95 7.13004 42.31 7.51004C42.67 7.89004 43.19 8.76004 42.69 9.45004C42.19 10.14 41.32 10.13 40.5 9.52004C40.0385 9.2044 39.672 8.76873 39.44 8.26004Z" fill="#0A9386"/>
<path d="M46.85 11.1299L44.7 13.2299L44.18 12.7099L44.5 12.2799C44.2231 12.2874 43.9476 12.2391 43.6899 12.1377C43.4322 12.0363 43.1975 11.884 43 11.6899C42.8772 11.5838 42.7788 11.4525 42.7113 11.305C42.6438 11.1575 42.6088 10.9971 42.6088 10.8349C42.6088 10.6726 42.6438 10.5123 42.7113 10.3648C42.7788 10.2172 42.8772 10.086 43 9.97988C43.74 9.25988 44.8 9.52988 45.95 10.7199L46.22 10.4499C46.49 10.1899 46.48 9.84988 46.1 9.44988C45.7458 9.11549 45.3225 8.86288 44.86 8.70988L45.16 8.12988C45.7471 8.31535 46.2817 8.63752 46.72 9.06988C46.8794 9.18581 47.0113 9.33548 47.1063 9.50824C47.2013 9.68099 47.2569 9.87257 47.2694 10.0693C47.2818 10.2661 47.2506 10.4631 47.1781 10.6464C47.1056 10.8298 46.9936 10.9948 46.85 11.1299ZM43.78 11.4699C44.0543 11.7192 44.4094 11.8613 44.78 11.8699L45.58 11.0899C44.82 10.3199 44.16 10.0899 43.73 10.5399C43.6655 10.6007 43.615 10.6748 43.5821 10.7571C43.5492 10.8395 43.5346 10.928 43.5393 11.0165C43.5441 11.105 43.5681 11.1914 43.6096 11.2697C43.6512 11.348 43.7093 11.4163 43.78 11.4699Z" fill="#0A9386"/>
<path d="M51.85 16.68L47.16 17.34C46.16 17.5 45.37 17.44 44.97 16.7C44.9005 16.5703 44.8467 16.4326 44.81 16.29L45.41 15.84C45.4362 15.9404 45.4731 16.0376 45.52 16.13C45.7 16.46 45.96 16.69 46.79 16.54L49.92 13.05L50.39 13.92L48 16.47L51.45 15.88L51.85 16.68Z" fill="#0A9386"/>
<path d="M13.25 43.1799L15.03 44.1799C15.2787 44.2992 15.5 44.4686 15.6801 44.6775C15.8601 44.8865 15.995 45.1304 16.0763 45.3939C16.1575 45.6575 16.1834 45.935 16.1523 46.209C16.1212 46.4831 16.0337 46.7477 15.8954 46.9863C15.757 47.2249 15.5709 47.4323 15.3485 47.5955C15.1262 47.7587 14.8725 47.8742 14.6034 47.9346C14.3343 47.9951 14.0556 47.9992 13.7849 47.9468C13.5141 47.8943 13.2571 47.7865 13.03 47.6299L12.15 47.1099L11 49.0599L10.1 48.5299L13.25 43.1799ZM13.42 46.9199C13.6852 47.0724 14.0002 47.1133 14.2955 47.0336C14.5909 46.9539 14.8425 46.7601 14.995 46.4949C15.1475 46.2297 15.1884 45.9148 15.1087 45.6194C15.029 45.324 14.8352 45.0724 14.57 44.9199L13.71 44.4099L12.56 46.3599L13.42 46.9199Z" fill="#0A9386"/>
<path d="M18.72 48.65C18.2277 48.4993 17.6987 48.5205 17.22 48.71L16.16 51.6L15.33 51.29L16.82 47.29L17.48 47.53L17.37 48.13C17.6011 47.9974 17.8564 47.9122 18.1208 47.8796C18.3853 47.847 18.6536 47.8675 18.91 47.94L18.72 48.65Z" fill="#0A9386"/>
<path d="M19 50.3399C19.26 48.9199 20.12 48.2599 21.39 48.4899C21.6758 48.5329 21.949 48.6373 22.1906 48.7959C22.4322 48.9546 22.6365 49.1637 22.7896 49.4089C22.9426 49.6541 23.0406 49.9296 23.077 50.2163C23.1133 50.5031 23.087 50.7943 23 51.0699C22.74 52.4899 21.88 53.1499 20.6 52.9199C20.3151 52.8757 20.0431 52.7704 19.8026 52.6112C19.5622 52.452 19.359 52.2427 19.2071 51.9977C19.0551 51.7526 18.9579 51.4776 18.9222 51.1914C18.8864 50.9053 18.913 50.6148 19 50.3399ZM22.09 50.9099C22.27 49.9099 21.98 49.3599 21.26 49.2299C20.54 49.0999 20.05 49.5399 19.87 50.4999C19.69 51.4599 19.99 52.0399 20.72 52.1799C21.45 52.3199 21.91 51.8699 22.08 50.9099H22.09Z" fill="#0A9386"/>
<path d="M26.49 53.1399C26.2537 53.2571 25.9937 53.3186 25.73 53.3199C25.5708 53.3373 25.4097 53.3188 25.2586 53.2657C25.1075 53.2125 24.9703 53.1261 24.857 53.0129C24.7438 52.8996 24.6574 52.7624 24.6043 52.6113C24.5511 52.4602 24.5326 52.2991 24.55 52.1399V49.7099H23.9L24.09 48.9599H24.56V47.4299H25.44V48.9599H26.29V49.7099H25.45V52.0999C25.45 52.3999 25.6 52.5799 25.89 52.5799C26.0292 52.5861 26.1684 52.5657 26.3 52.5199L26.49 53.1399Z" fill="#0A9386"/>
<path d="M27.33 51.12C27.11 49.69 27.71 48.78 28.94 48.59C30.17 48.4 30.79 49 31 50.33C31.0062 50.4466 31.0062 50.5635 31 50.68L28.22 51.12C28.2197 51.2968 28.2596 51.4713 28.3364 51.6304C28.4133 51.7896 28.5252 51.9293 28.6638 52.039C28.8023 52.1487 28.964 52.2255 29.1365 52.2638C29.309 52.3021 29.488 52.3008 29.66 52.26C30.1804 52.2014 30.6592 51.9477 31 51.55L31.21 52.25C30.8094 52.6898 30.2615 52.9673 29.67 53.03C28.4 53.23 27.55 52.54 27.33 51.12ZM30.07 50.27C29.96 49.59 29.6 49.27 29.07 49.33C28.9278 49.3457 28.7906 49.3916 28.6677 49.4648C28.5448 49.5379 28.4391 49.6366 28.3575 49.7542C28.276 49.8717 28.2207 50.0053 28.1952 50.1461C28.1698 50.2868 28.1748 50.4314 28.21 50.57L30.07 50.27Z" fill="#0A9386"/>
<path d="M31.78 46.1601L32.78 46.0601L32.03 47.5101L31.4 47.7101L31.78 46.1601ZM31.69 48.0801L32.53 47.8201L33.82 51.9001L32.98 52.1601L31.69 48.0801Z" fill="#0A9386"/>
<path d="M37.42 46.7799L38.86 49.6499L38.07 50.0499L36.76 47.4399C36.723 47.3553 36.6686 47.2793 36.6004 47.217C36.5322 47.1546 36.4516 47.1073 36.3639 47.0781C36.2763 47.0489 36.1835 47.0384 36.0915 47.0473C35.9995 47.0563 35.9104 47.0844 35.83 47.1299C35.6547 47.2428 35.5035 47.3893 35.385 47.561C35.2666 47.7326 35.1833 47.926 35.14 48.1299L36.5 50.8499L35.72 51.2399L33.79 47.3999L34.43 47.0899L34.77 47.5999C34.8374 47.3232 34.961 47.0632 35.133 46.8361C35.305 46.6091 35.5218 46.4198 35.77 46.2799C35.9073 46.1892 36.063 46.1298 36.2259 46.106C36.3888 46.0822 36.5549 46.0946 36.7125 46.1424C36.87 46.1901 37.0151 46.272 37.1374 46.3822C37.2597 46.4924 37.3562 46.6282 37.42 46.7799Z" fill="#0A9386"/>
<path d="M41.25 44.1501L43.13 46.4901L42.55 46.9501L42.16 46.6001C42.1369 46.8701 42.0605 47.1329 41.9352 47.3732C41.8099 47.6135 41.6382 47.8265 41.43 48.0001C41.3116 48.1109 41.1707 48.1949 41.0169 48.2465C40.8632 48.298 40.7001 48.3158 40.5388 48.2988C40.3776 48.2817 40.2219 48.2301 40.0823 48.1475C39.9427 48.0649 39.8226 47.9532 39.73 47.8201C39.08 47.0101 39.46 45.9801 40.73 44.9501L40.5 44.6501C40.26 44.3601 39.92 44.3401 39.5 44.6501C39.1279 44.9654 38.8336 45.3624 38.64 45.8101L38.09 45.4501C38.3368 44.8866 38.7138 44.3896 39.19 44.0001C39.3264 43.8575 39.4927 43.7469 39.6768 43.676C39.861 43.6052 40.0585 43.5759 40.2553 43.5902C40.4521 43.6045 40.6433 43.6622 40.8152 43.7589C40.9872 43.8557 41.1356 43.9893 41.25 44.1501ZM41.25 47.2401C41.5382 46.9816 41.72 46.6251 41.76 46.2401L41.06 45.3701C40.22 46.0401 39.96 46.6801 40.33 47.1501C40.3801 47.2269 40.4469 47.2914 40.5254 47.3388C40.6039 47.3862 40.692 47.4153 40.7833 47.424C40.8746 47.4326 40.9667 47.4206 41.0527 47.3887C41.1386 47.3569 41.2164 47.3061 41.28 47.2401H41.25Z" fill="#0A9386"/>
<path d="M33.23 13.4599C33.23 12.4658 32.4241 11.6599 31.43 11.6599C30.4359 11.6599 29.63 12.4658 29.63 13.4599V38.0099C29.63 39.004 30.4359 39.8099 31.43 39.8099C32.4241 39.8099 33.23 39.004 33.23 38.0099V13.4599Z" stroke="#0A9386" stroke-miterlimit="10"/>
<path d="M26.87 18.2199C26.87 17.2258 26.0641 16.4199 25.07 16.4199C24.0759 16.4199 23.27 17.2258 23.27 18.2199V38.0099C23.27 39.004 24.0759 39.8099 25.07 39.8099C26.0641 39.8099 26.87 39.004 26.87 38.0099V18.2199Z" stroke="#0A9386" stroke-miterlimit="10"/>
<path d="M20.42 24.7299C20.42 23.7358 19.6141 22.9299 18.62 22.9299C17.6259 22.9299 16.82 23.7358 16.82 24.7299V38.0099C16.82 39.004 17.6259 39.8099 18.62 39.8099C19.6141 39.8099 20.42 39.004 20.42 38.0099V24.7299Z" fill="#0A9386"/>
</g>
<defs>
<clipPath id="clip0_2646_6976">
<rect width="51.85" height="53.32" fill="white"/>
</clipPath>
</defs>
</svg>
