<svg width="46" height="56" viewBox="0 0 46 56" fill="none" xmlns="http://www.w3.org/2000/svg">
<g clip-path="url(#clip0_2502_6807)">
<path d="M21.7 20.23V27.76C21.6917 27.8061 21.6937 27.8534 21.7057 27.8986C21.7178 27.9439 21.7396 27.9859 21.7696 28.0218C21.7996 28.0577 21.8372 28.0865 21.8796 28.1063C21.922 28.1261 21.9682 28.1364 22.015 28.1364C22.0618 28.1364 22.108 28.1261 22.1504 28.1063C22.1928 28.0865 22.2303 28.0577 22.2604 28.0218C22.2904 27.9859 22.3122 27.9439 22.3242 27.8986C22.3363 27.8534 22.3382 27.8061 22.33 27.76V20.23C22.9824 20.1439 23.5883 19.8457 24.0545 19.3813C24.5207 18.9169 24.8213 18.3121 24.91 17.66C24.9217 17.5781 24.9011 17.4947 24.8526 17.4276C24.8041 17.3605 24.7315 17.3147 24.65 17.3C24.568 17.2884 24.4847 17.3089 24.4175 17.3574C24.3504 17.4059 24.3047 17.4785 24.29 17.56C24.2056 18.0598 23.9678 18.521 23.6093 18.8794C23.2509 19.2378 22.7898 19.4757 22.29 19.56V16.51C22.7217 16.4405 23.1202 16.2354 23.4276 15.9244C23.735 15.6134 23.9355 15.2126 24 14.78C24.0065 14.7393 24.005 14.6977 23.9955 14.6576C23.986 14.6175 23.9687 14.5796 23.9445 14.5462C23.9204 14.5128 23.8899 14.4844 23.8548 14.4628C23.8197 14.4411 23.7807 14.4266 23.74 14.42C23.6993 14.4135 23.6577 14.415 23.6175 14.4245C23.5774 14.434 23.5396 14.4513 23.5061 14.4755C23.4727 14.4996 23.4444 14.5301 23.4227 14.5652C23.4011 14.6003 23.3865 14.6393 23.38 14.68C23.3379 14.9508 23.2224 15.2049 23.0461 15.4147C22.8699 15.6245 22.6395 15.7819 22.38 15.87V12.66C22.3882 12.614 22.3863 12.5667 22.3742 12.5214C22.3622 12.4762 22.3404 12.4342 22.3104 12.3983C22.2803 12.3624 22.2428 12.3336 22.2004 12.3138C22.158 12.294 22.1118 12.2837 22.065 12.2837C22.0182 12.2837 21.972 12.294 21.9296 12.3138C21.8872 12.3336 21.8496 12.3624 21.8196 12.3983C21.7896 12.4342 21.7678 12.4762 21.7557 12.5214C21.7437 12.5667 21.7417 12.614 21.75 12.66V15.86C21.4935 15.7699 21.2657 15.6131 21.0899 15.4057C20.9141 15.1983 20.7968 14.9478 20.75 14.68C20.7439 14.6391 20.7297 14.5998 20.7082 14.5644C20.6867 14.529 20.6584 14.4983 20.6248 14.4741C20.5913 14.4499 20.5532 14.4326 20.5129 14.4233C20.4725 14.414 20.4308 14.4129 20.39 14.42C20.3085 14.4347 20.2359 14.4805 20.1874 14.5476C20.1389 14.6147 20.1183 14.6981 20.13 14.78C20.1889 15.1911 20.3702 15.575 20.6502 15.8818C20.9302 16.1885 21.2959 16.4039 21.7 16.5V19.59C21.2111 19.4945 20.7632 19.2517 20.4164 18.8942C20.0696 18.5367 19.8406 18.0816 19.76 17.59C19.7453 17.5065 19.6981 17.4322 19.6288 17.3835C19.5594 17.3347 19.4735 17.3155 19.39 17.33C19.3489 17.3372 19.3097 17.3526 19.2747 17.3752C19.2397 17.3979 19.2097 17.4273 19.1863 17.4619C19.163 17.4964 19.1468 17.5353 19.1389 17.5762C19.1309 17.6172 19.1313 17.6593 19.14 17.7C19.2296 18.3473 19.5282 18.9477 19.9903 19.4097C20.4524 19.8718 21.0527 20.1704 21.7 20.26V20.23Z" fill="#0A9386"/>
<path d="M22 28.21C21.8824 28.2074 21.7705 28.1588 21.6883 28.0747C21.606 27.9906 21.56 27.8776 21.56 27.76V20.34C20.9122 20.2159 20.3186 19.8948 19.8603 19.4204C19.4021 18.946 19.1016 18.3417 19 17.69C18.9896 17.6324 18.9914 17.5734 19.0052 17.5165C19.0189 17.4597 19.0444 17.4064 19.08 17.36C19.1124 17.3129 19.1538 17.2727 19.2019 17.2418C19.25 17.2109 19.3037 17.1899 19.36 17.18C19.4172 17.1699 19.4757 17.1713 19.5323 17.184C19.589 17.1967 19.6425 17.2204 19.6899 17.2539C19.7373 17.2873 19.7776 17.3298 19.8085 17.3789C19.8394 17.428 19.8603 17.4828 19.87 17.54C19.9373 17.8679 20.059 18.1822 20.23 18.47C20.368 18.7235 20.5592 18.9441 20.7905 19.1167C21.0218 19.2893 21.2877 19.4098 21.57 19.47V16.61C21.149 16.501 20.7687 16.2719 20.4757 15.9504C20.1827 15.629 19.9896 15.2293 19.92 14.8C19.9108 14.7424 19.9132 14.6836 19.9269 14.6269C19.9406 14.5703 19.9655 14.5169 20 14.47C20.0707 14.3758 20.1742 14.3115 20.29 14.29C20.3476 14.2808 20.4064 14.2831 20.463 14.2969C20.5197 14.3106 20.573 14.3354 20.62 14.37C20.7142 14.4407 20.7785 14.5442 20.8 14.66C20.8418 14.875 20.9332 15.0774 21.0669 15.2509C21.2005 15.4245 21.3728 15.5646 21.57 15.66V12.66C21.57 12.5433 21.6164 12.4314 21.6989 12.3488C21.7814 12.2663 21.8933 12.22 22.01 12.22C22.1267 12.22 22.2386 12.2663 22.3211 12.3488C22.4036 12.4314 22.45 12.5433 22.45 12.66V15.66C22.6491 15.5658 22.8233 15.4263 22.9588 15.2526C23.0942 15.079 23.1871 14.876 23.23 14.66C23.2497 14.5438 23.3141 14.44 23.4094 14.3708C23.5048 14.3016 23.6235 14.2726 23.74 14.29C23.855 14.3119 23.9573 14.3769 24.026 14.4717C24.0948 14.5664 24.1248 14.6838 24.11 14.8C24.0402 15.2319 23.846 15.6341 23.5512 15.9573C23.2564 16.2806 22.8737 16.5108 22.45 16.62V19.45C22.8882 19.3291 23.2824 19.0848 23.5855 18.7461C23.8887 18.4075 24.0881 17.9888 24.16 17.54C24.1685 17.4832 24.1882 17.4286 24.2181 17.3796C24.248 17.3306 24.2874 17.288 24.334 17.2545C24.3807 17.2209 24.4335 17.197 24.4895 17.1842C24.5455 17.1714 24.6035 17.17 24.66 17.18C24.7754 17.1973 24.8791 17.2596 24.9485 17.3534C25.0179 17.4471 25.0472 17.5646 25.03 17.68C24.9362 18.3391 24.6361 18.9516 24.1725 19.4295C23.709 19.9074 23.106 20.2261 22.45 20.34V27.76C22.45 27.8191 22.4384 27.8776 22.4158 27.9322C22.3931 27.9868 22.36 28.0364 22.3182 28.0782C22.2764 28.12 22.2268 28.1531 22.1722 28.1757C22.1176 28.1983 22.0591 28.21 22 28.21ZM21.81 19.74V27.74C21.7947 27.7697 21.7879 27.8031 21.7905 27.8364C21.7931 27.8697 21.8049 27.9017 21.8246 27.9287C21.8444 27.9557 21.8712 27.9767 21.9022 27.9892C21.9332 28.0018 21.967 28.0055 22 28C22.0504 28 22.0987 27.98 22.1344 27.9443C22.17 27.9087 22.19 27.8604 22.19 27.81V20.11H22.3C22.9225 20.0268 23.5008 19.7424 23.9467 19.3001C24.3927 18.8578 24.6818 18.2818 24.77 17.66C24.7743 17.635 24.7735 17.6094 24.7677 17.5847C24.7619 17.56 24.7513 17.5367 24.7364 17.5162C24.7215 17.4957 24.7026 17.4784 24.6809 17.4653C24.6592 17.4522 24.6351 17.4436 24.61 17.44C24.5856 17.4357 24.5606 17.4366 24.5365 17.4424C24.5124 17.4483 24.4898 17.4591 24.4701 17.4741C24.4504 17.4892 24.434 17.5081 24.4219 17.5297C24.4099 17.5514 24.4024 17.5753 24.4 17.6C24.3151 18.1245 24.071 18.6101 23.7007 18.9912C23.3304 19.3722 22.8519 19.6301 22.33 19.73H22.19V16.4H22.3C22.6906 16.3157 23.0471 16.1163 23.3234 15.8276C23.5996 15.5388 23.7831 15.1739 23.85 14.78C23.8539 14.755 23.8529 14.7295 23.847 14.705C23.8411 14.6804 23.8304 14.6573 23.8156 14.6368C23.8007 14.6164 23.782 14.5991 23.7604 14.5859C23.7389 14.5727 23.715 14.5639 23.69 14.56C23.6651 14.556 23.6396 14.557 23.615 14.563C23.5905 14.5689 23.5673 14.5795 23.5469 14.5944C23.5264 14.6093 23.5091 14.628 23.4959 14.6495C23.4828 14.6711 23.4739 14.695 23.47 14.72C23.4222 15.0154 23.2931 15.2917 23.097 15.5178C22.9009 15.7439 22.6457 15.9109 22.36 16H22.21V12.66C22.21 12.6096 22.19 12.5613 22.1544 12.5256C22.1187 12.49 22.0704 12.47 22.02 12.47C21.9696 12.47 21.9213 12.49 21.8857 12.5256C21.85 12.5613 21.83 12.6096 21.83 12.66V16H21.67C21.3847 15.9071 21.1303 15.7377 20.9346 15.5102C20.7389 15.2828 20.6093 15.006 20.56 14.71C20.5563 14.6853 20.5472 14.6618 20.5334 14.6411C20.5195 14.6203 20.5013 14.6029 20.48 14.59C20.4579 14.5806 20.4341 14.5758 20.41 14.5758C20.386 14.5758 20.3622 14.5806 20.34 14.59C20.2916 14.6017 20.2489 14.6303 20.2196 14.6706C20.1903 14.7109 20.1762 14.7603 20.18 14.81C20.2463 15.2026 20.4282 15.5666 20.7026 15.8552C20.9769 16.1438 21.3312 16.3439 21.72 16.43H21.83V19.77L21.81 19.74ZM19.43 17.43C19.3796 17.4368 19.3334 17.4617 19.3 17.5C19.2815 17.5483 19.2815 17.6017 19.3 17.65C19.3996 18.2448 19.6762 18.7957 20.0936 19.231C20.511 19.6662 21.0499 19.9656 21.64 20.09L21.73 19.72C21.2104 19.6137 20.7353 19.3522 20.3674 18.9701C19.9996 18.588 19.7564 18.1033 19.67 17.58C19.6681 17.5544 19.6605 17.5297 19.6478 17.5075C19.635 17.4853 19.6174 17.4663 19.5962 17.4519C19.5751 17.4374 19.5509 17.428 19.5256 17.4242C19.5003 17.4204 19.4745 17.4224 19.45 17.43H19.43Z" fill="#0A9386"/>
<path d="M32.3 18.6299C31.3003 18.4841 30.2818 18.5316 29.3 18.7699C29.3592 18.5131 29.4817 18.2752 29.6564 18.0778C29.831 17.8805 30.0523 17.7299 30.3 17.6399C30.3668 17.6019 30.4177 17.5412 30.4434 17.4688C30.4691 17.3963 30.4679 17.3171 30.4399 17.2455C30.412 17.1739 30.3593 17.1148 30.2914 17.0789C30.2235 17.0429 30.1449 17.0327 30.07 17.0499C29.6635 17.1913 29.3102 17.4541 29.058 17.8029C28.8058 18.1517 28.6669 18.5696 28.66 18.9999C27.6955 19.3269 26.8171 19.8669 26.09 20.5799C25.97 20.6999 25.85 20.8299 25.74 20.9599C25.603 20.5279 25.5846 20.0671 25.6866 19.6256C25.7886 19.184 26.0074 18.778 26.32 18.4499C26.349 18.4211 26.3721 18.3868 26.3878 18.3491C26.4035 18.3113 26.4116 18.2708 26.4116 18.2299C26.4116 18.189 26.4035 18.1485 26.3878 18.1108C26.3721 18.073 26.349 18.0387 26.32 18.0099C26.2589 17.953 26.1785 17.9213 26.095 17.9213C26.0115 17.9213 25.9311 17.953 25.87 18.0099C25.4237 18.4623 25.1298 19.0427 25.0294 19.6702C24.929 20.2977 25.0271 20.9409 25.31 21.5099C24.137 23.4105 23.4501 25.5708 23.31 27.7999C23.3097 27.8825 23.3403 27.9622 23.3958 28.0233C23.4514 28.0843 23.5278 28.1224 23.61 28.1299C23.6915 28.1301 23.77 28.0991 23.8295 28.0434C23.889 27.9876 23.9249 27.9113 23.93 27.8299C24.0607 25.7771 24.663 23.7821 25.69 21.9999C25.9439 22.312 26.264 22.5637 26.6273 22.7367C26.9905 22.9096 27.3877 22.9996 27.79 22.9999C28.3071 23.0001 28.8171 22.8803 29.28 22.6499C29.3543 22.6128 29.4107 22.5477 29.437 22.4689C29.4632 22.3901 29.4571 22.3042 29.42 22.2299C29.3829 22.1556 29.3178 22.0992 29.239 22.0729C29.1602 22.0467 29.0743 22.0528 29 22.0899C28.5218 22.3445 27.9706 22.4268 27.4389 22.323C26.9072 22.2192 26.4274 21.9356 26.08 21.5199C26.2193 21.3407 26.3696 21.1704 26.53 21.0099C27.1685 20.3866 27.9368 19.9119 28.78 19.6199C28.9341 20.021 29.2097 20.3639 29.5683 20.6006C29.9269 20.8373 30.3506 20.956 30.78 20.9399H30.84C30.924 20.9348 31.0029 20.8978 31.0605 20.8365C31.1181 20.7751 31.1502 20.6941 31.15 20.6099C31.1448 20.5268 31.1075 20.449 31.0459 20.393C30.9843 20.3369 30.9032 20.3071 30.82 20.3099C30.5259 20.3242 30.2344 20.2486 29.9844 20.0932C29.7343 19.9378 29.5374 19.7099 29.42 19.4399C30.3351 19.2117 31.2849 19.1574 32.22 19.2799C32.2608 19.2886 32.3029 19.289 32.3438 19.281C32.3847 19.273 32.4236 19.2569 32.4582 19.2336C32.4927 19.2102 32.5222 19.1802 32.5448 19.1452C32.5675 19.1102 32.5828 19.071 32.59 19.0299C32.6048 18.9478 32.5869 18.8632 32.5402 18.7941C32.4935 18.725 32.4217 18.6768 32.34 18.6599L32.3 18.6299Z" fill="#0A9386"/>
<path d="M23.58 28.2101C23.4642 28.1999 23.3568 28.1452 23.2804 28.0576C23.204 27.97 23.1644 27.8562 23.17 27.7401C23.3149 25.5119 24.0014 23.3528 25.17 21.4501C24.8976 20.8627 24.811 20.2061 24.9218 19.5681C25.0326 18.9302 25.3355 18.3412 25.79 17.8801C25.8298 17.8373 25.8777 17.8029 25.9309 17.7789C25.9842 17.7549 26.0416 17.7417 26.1 17.7401C26.1864 17.7411 26.2707 17.767 26.3428 17.8147C26.4149 17.8623 26.4717 17.9297 26.5065 18.0088C26.5413 18.0879 26.5526 18.1754 26.5391 18.2607C26.5255 18.346 26.4876 18.4257 26.43 18.4901C26.1596 18.7751 25.962 19.1213 25.8541 19.4991C25.7461 19.8769 25.731 20.2752 25.81 20.6601L26.02 20.4401C26.7383 19.7306 27.6061 19.1908 28.56 18.8601C28.5914 18.4347 28.7435 18.027 28.9986 17.6851C29.2537 17.3432 29.6011 17.0813 30 16.9301C30.109 16.8856 30.231 16.8856 30.34 16.9301C30.4452 16.9818 30.5272 17.071 30.57 17.1801C30.5908 17.2345 30.6005 17.2926 30.5987 17.3508C30.5968 17.4091 30.5834 17.4664 30.5592 17.5194C30.535 17.5725 30.5005 17.6202 30.4578 17.6598C30.415 17.6994 30.3648 17.7301 30.31 17.7501C30.1214 17.8283 29.9506 17.9439 29.8079 18.09C29.6653 18.2361 29.5537 18.4096 29.48 18.6001C30.4162 18.3968 31.3809 18.3596 32.33 18.4901C32.4361 18.5219 32.5266 18.5916 32.5845 18.686C32.6423 18.7803 32.6634 18.8927 32.6436 19.0016C32.6238 19.1105 32.5645 19.2083 32.4772 19.2763C32.3898 19.3443 32.2804 19.3777 32.17 19.3701C31.3002 19.2459 30.4148 19.2866 29.56 19.4901C29.6867 19.6976 29.8667 19.8673 30.0813 19.9816C30.2958 20.096 30.5371 20.1507 30.78 20.1401C30.8386 20.1374 30.8972 20.1465 30.9522 20.1667C31.0073 20.187 31.0577 20.2181 31.1006 20.2582C31.1435 20.2982 31.1779 20.3465 31.2018 20.4C31.2258 20.4536 31.2387 20.5114 31.24 20.5701C31.2447 20.6266 31.2373 20.6835 31.2184 20.7369C31.1994 20.7904 31.1693 20.8392 31.13 20.8801C31.0914 20.9242 31.0437 20.9596 30.9902 20.9837C30.9367 21.0079 30.8787 21.0203 30.82 21.0201H30.75C30.328 21.0195 29.9151 20.8976 29.5605 20.6689C29.2059 20.4401 28.9246 20.1143 28.75 19.7301C27.968 20.0176 27.2557 20.4674 26.66 21.0501C26.5257 21.183 26.3989 21.3232 26.28 21.4701C26.4837 21.7164 26.7434 21.9103 27.0375 22.0356C27.3315 22.1609 27.6513 22.2138 27.97 22.1901C28.3159 22.1619 28.6542 22.0739 28.97 21.9301C29.0232 21.9051 29.0813 21.8922 29.14 21.8922C29.1988 21.8922 29.2568 21.9051 29.31 21.9301C29.3653 21.946 29.4165 21.974 29.4597 22.012C29.5029 22.0501 29.5372 22.0972 29.56 22.1501C29.585 22.2033 29.5979 22.2613 29.5979 22.3201C29.5979 22.3788 29.585 22.4369 29.56 22.4901C29.5441 22.5454 29.5161 22.5965 29.478 22.6397C29.44 22.683 29.3929 22.7172 29.34 22.7401C28.8578 22.9775 28.3275 23.1007 27.79 23.1001C27.4021 23.1059 27.0172 23.0317 26.6593 22.882C26.3014 22.7323 25.9782 22.5104 25.71 22.2301C24.7358 23.9341 24.1518 25.8331 24 27.7901C23.993 27.8991 23.9464 28.0019 23.8692 28.0792C23.7919 28.1565 23.6891 28.203 23.58 28.2101ZM26.09 18.0001C26.0408 18.0033 25.9945 18.0247 25.96 18.0601C25.5306 18.4915 25.2468 19.0463 25.1482 19.6469C25.0495 20.2476 25.1411 20.864 25.41 21.4101V21.4801V21.5401C24.2373 23.4152 23.55 25.5529 23.41 27.7601C23.4087 27.785 23.4123 27.81 23.4206 27.8336C23.4289 27.8572 23.4418 27.8788 23.4585 27.8974C23.4752 27.916 23.4955 27.9311 23.518 27.9419C23.5406 27.9526 23.5651 27.9588 23.59 27.9601C23.6387 27.9601 23.6856 27.9415 23.721 27.908C23.7563 27.8745 23.7775 27.8287 23.78 27.7801C23.9316 25.7229 24.5543 23.7281 25.6 21.9501L25.69 21.8101L25.8 21.9401C26.0463 22.2291 26.3531 22.4604 26.6987 22.6177C27.0444 22.7749 27.4203 22.8543 27.8 22.8501C28.2988 22.85 28.791 22.7372 29.24 22.5201C29.2621 22.5093 29.2815 22.4939 29.2971 22.4749C29.3126 22.4559 29.3238 22.4338 29.33 22.4101C29.3495 22.362 29.3495 22.3082 29.33 22.2601C29.3056 22.2176 29.2665 22.1856 29.22 22.1701C29.198 22.1601 29.1742 22.155 29.15 22.155C29.1259 22.155 29.102 22.1601 29.08 22.1701C28.5755 22.4413 27.9925 22.5287 27.4306 22.4174C26.8688 22.3062 26.3631 22.0031 26 21.5601L25.93 21.4801L26 21.4101C26.1433 21.2281 26.2969 21.0545 26.46 20.8901C27.1127 20.2531 27.8981 19.7682 28.76 19.4701H28.88V19.5901C29.0269 19.969 29.2896 20.292 29.6308 20.5128C29.972 20.7337 30.3741 20.8412 30.78 20.8201C30.805 20.8201 30.8297 20.8152 30.8527 20.8056C30.8758 20.7961 30.8967 20.7821 30.9144 20.7644C30.932 20.7468 30.946 20.7258 30.9556 20.7028C30.9651 20.6797 30.97 20.655 30.97 20.6301C30.97 20.6051 30.9651 20.5804 30.9556 20.5574C30.946 20.5343 30.932 20.5134 30.9144 20.4957C30.8967 20.4781 30.8758 20.4641 30.8527 20.4545C30.8297 20.445 30.805 20.4401 30.78 20.4401C30.46 20.4557 30.1428 20.3731 29.8711 20.2033C29.5994 20.0335 29.3862 19.7846 29.26 19.4901L29.21 19.3601H29.35C30.2837 19.12 31.2554 19.0656 32.21 19.2001C32.2604 19.2094 32.3124 19.1982 32.3546 19.1692C32.3968 19.1401 32.4257 19.0955 32.435 19.0451C32.4443 18.9947 32.4332 18.9427 32.4041 18.9005C32.3751 18.8583 32.3304 18.8294 32.28 18.8201C31.2795 18.6802 30.2616 18.7311 29.28 18.9701H29.11V18.7901C29.1628 18.5174 29.2815 18.2619 29.4558 18.0457C29.6301 17.8295 29.8547 17.6594 30.11 17.5501C30.1444 17.5355 30.1738 17.5112 30.1944 17.4801C30.215 17.4489 30.226 17.4124 30.226 17.3751C30.226 17.3377 30.215 17.3012 30.1944 17.2701C30.1738 17.239 30.1444 17.2146 30.11 17.2001C30.088 17.1901 30.0642 17.185 30.04 17.185C30.0159 17.185 29.992 17.1901 29.97 17.2001C29.6222 17.3564 29.3263 17.6089 29.1172 17.9278C28.9082 18.2467 28.7946 18.6188 28.79 19.0001H28.7C27.7538 19.32 26.8923 19.8499 26.18 20.5501C26.0562 20.6664 25.9393 20.79 25.83 20.9201L25.7 21.0801L25.62 20.8801C25.4737 20.426 25.4531 19.9407 25.5605 19.4758C25.6679 19.011 25.8993 18.5839 26.23 18.2401C26.2476 18.2233 26.2615 18.2031 26.2711 18.1808C26.2806 18.1584 26.2855 18.1344 26.2855 18.1101C26.2855 18.0858 26.2806 18.0617 26.2711 18.0394C26.2615 18.0171 26.2476 17.9969 26.23 17.9801C26.2067 17.9725 26.182 17.9703 26.1577 17.9738C26.1334 17.9772 26.1103 17.9862 26.09 18.0001Z" fill="#0A9386"/>
<path d="M18.31 21.9999C19.3409 23.7614 19.9566 25.7348 20.11 27.7699C20.1149 27.8496 20.1495 27.9245 20.2068 27.98C20.2642 28.0355 20.3402 28.0676 20.42 28.0699C20.5031 28.0648 20.5809 28.0274 20.6369 27.9658C20.693 27.9042 20.7227 27.8232 20.72 27.7399C20.5799 25.5109 19.893 23.3506 18.72 21.4499C19.0105 20.8827 19.1128 20.2377 19.0121 19.6084C18.9115 18.9791 18.613 18.3982 18.16 17.9499C18.0989 17.893 18.0185 17.8613 17.935 17.8613C17.8515 17.8613 17.7711 17.893 17.71 17.9499C17.681 17.9788 17.6579 18.013 17.6422 18.0508C17.6265 18.0886 17.6184 18.129 17.6184 18.1699C17.6184 18.2108 17.6265 18.2513 17.6422 18.2891C17.6579 18.3269 17.681 18.3611 17.71 18.3899C18.0235 18.7175 18.2429 19.1235 18.345 19.5652C18.447 20.007 18.428 20.4681 18.29 20.8999C18.17 20.7699 18.06 20.6399 17.93 20.5199C17.1938 19.8224 16.3079 19.3025 15.34 18.9999C15.3412 18.5773 15.2136 18.1642 14.9743 17.8159C14.7349 17.4675 14.395 17.2003 14 17.0499C13.9217 17.0204 13.8349 17.0226 13.7583 17.0563C13.6816 17.0899 13.6212 17.1523 13.59 17.2299C13.5742 17.2692 13.5666 17.3113 13.5677 17.3536C13.5687 17.396 13.5785 17.4376 13.5963 17.476C13.6141 17.5145 13.6396 17.5488 13.6712 17.577C13.7028 17.6052 13.7398 17.6266 13.78 17.6399C14.0208 17.7329 14.2342 17.8852 14.4003 18.0828C14.5664 18.2804 14.6798 18.5168 14.73 18.7699C13.7484 18.5301 12.7296 18.4826 11.73 18.6299C11.688 18.6359 11.6477 18.6504 11.6116 18.6725C11.5754 18.6947 11.5442 18.724 11.5199 18.7586C11.4955 18.7933 11.4785 18.8326 11.4699 18.8741C11.4613 18.9156 11.4614 18.9585 11.47 18.9999C11.4869 19.0816 11.5351 19.1535 11.6042 19.2002C11.6733 19.2468 11.7579 19.2647 11.84 19.2499C12.7751 19.1275 13.7249 19.1817 14.64 19.4099C14.5214 19.6791 14.3243 19.9062 14.0745 20.0614C13.8247 20.2166 13.5338 20.2928 13.24 20.2799C13.1993 20.2786 13.1587 20.2853 13.1206 20.2997C13.0824 20.314 13.0475 20.3358 13.0178 20.3636C12.9881 20.3915 12.9642 20.4249 12.9474 20.462C12.9306 20.4992 12.9213 20.5392 12.92 20.5799C12.9173 20.6215 12.923 20.6631 12.9367 20.7024C12.9504 20.7417 12.972 20.7778 12.9999 20.8086C13.0279 20.8394 13.0619 20.8643 13.0997 20.8817C13.1375 20.8991 13.1784 20.9087 13.22 20.9099H13.29C13.7212 20.9354 14.149 20.8206 14.5096 20.5826C14.8701 20.3447 15.1439 19.9964 15.29 19.5899C16.11 19.8969 16.8537 20.378 17.47 20.9999C17.63 21.1599 17.78 21.3299 17.93 21.5099C17.5815 21.9241 17.1018 22.2065 16.5706 22.3102C16.0393 22.4139 15.4886 22.3326 15.01 22.0799C14.9344 22.0416 14.8466 22.0347 14.766 22.061C14.6854 22.0872 14.6185 22.1444 14.58 22.2199C14.5612 22.2566 14.5499 22.2967 14.5468 22.3378C14.5436 22.3789 14.5487 22.4202 14.5618 22.4593C14.5748 22.4985 14.5955 22.5346 14.6227 22.5656C14.6499 22.5966 14.6829 22.6219 14.72 22.6399C15.1832 22.8693 15.693 22.9891 16.21 22.9899C16.6124 22.9903 17.0098 22.9007 17.3732 22.7277C17.7365 22.5547 18.0566 22.3026 18.31 21.9899V21.9999Z" fill="#0A9386"/>
<path d="M20.42 28.21C20.3074 28.2078 20.1998 28.1634 20.1183 28.0856C20.0368 28.0079 19.9875 27.9024 19.98 27.79C19.8402 25.8304 19.2627 23.927 18.29 22.22C18.0218 22.5003 17.6986 22.7222 17.3407 22.8719C16.9828 23.0216 16.5979 23.0959 16.21 23.09C15.6725 23.0913 15.1419 22.9681 14.66 22.73C14.608 22.7046 14.5617 22.669 14.5238 22.6252C14.4859 22.5815 14.4572 22.5306 14.4394 22.4755C14.4217 22.4204 14.4153 22.3623 14.4205 22.3046C14.4258 22.247 14.4426 22.191 14.47 22.14C14.5234 22.0369 14.6154 21.9591 14.7259 21.9235C14.8364 21.8879 14.9565 21.8974 15.06 21.95C15.4984 22.1795 15.9999 22.2587 16.4876 22.1756C16.9754 22.0925 17.4224 21.8517 17.76 21.49C17.6437 21.341 17.5167 21.2006 17.38 21.07C16.7877 20.4832 16.0744 20.0327 15.29 19.75C15.1165 20.135 14.8354 20.4615 14.4805 20.6904C14.1257 20.9193 13.7123 21.0407 13.29 21.04H13.21C13.0951 21.0348 12.9867 20.9848 12.9082 20.9007C12.8297 20.8166 12.7873 20.7051 12.79 20.59C12.7898 20.5313 12.8022 20.4733 12.8263 20.4198C12.8505 20.3663 12.8858 20.3187 12.93 20.28C13.0153 20.2036 13.1255 20.1609 13.24 20.16C13.4831 20.1717 13.7248 20.1174 13.9395 20.003C14.1543 19.8886 14.3341 19.7183 14.46 19.51C13.6045 19.3119 12.7201 19.2712 11.85 19.39C11.7396 19.3976 11.6302 19.3642 11.5429 19.2962C11.4555 19.2283 11.3963 19.1305 11.3765 19.0216C11.3567 18.9127 11.3777 18.8003 11.4355 18.7059C11.4934 18.6115 11.584 18.5418 11.69 18.51C12.6422 18.3745 13.611 18.4117 14.55 18.62C14.4768 18.4277 14.3642 18.2528 14.2196 18.1065C14.075 17.9601 13.9014 17.8455 13.71 17.77C13.6549 17.7507 13.6043 17.7203 13.5613 17.6808C13.5184 17.6412 13.4839 17.5933 13.46 17.54C13.4203 17.4302 13.4203 17.3099 13.46 17.2C13.5069 17.0902 13.5922 17.0013 13.7 16.95C13.7522 16.9277 13.8083 16.9163 13.865 16.9163C13.9217 16.9163 13.9779 16.9277 14.03 16.95C14.4347 17.0949 14.7883 17.3546 15.0477 17.6974C15.307 18.0402 15.4607 18.4512 15.49 18.88C16.4319 19.2076 17.2893 19.7405 18 20.44L18.22 20.66C18.3021 20.2744 18.2876 19.8745 18.1777 19.4959C18.0677 19.1173 17.8659 18.7717 17.59 18.49C17.5076 18.4059 17.4614 18.2928 17.4614 18.175C17.4614 18.0572 17.5076 17.9441 17.59 17.86C17.6753 17.7799 17.788 17.7353 17.905 17.7353C18.0221 17.7353 18.1347 17.7799 18.22 17.86C18.6741 18.3235 18.9766 18.9141 19.0874 19.5535C19.1981 20.1929 19.1118 20.8508 18.84 21.44C20.0097 23.3422 20.6963 25.5016 20.84 27.73C20.8441 27.7878 20.8367 27.8459 20.8183 27.9008C20.7999 27.9558 20.7708 28.0065 20.7327 28.0502C20.6946 28.0939 20.6482 28.1296 20.5963 28.1553C20.5443 28.181 20.4878 28.1962 20.43 28.2L20.42 28.21ZM18.33 21.8L18.42 21.94C19.457 23.7212 20.0759 25.7147 20.23 27.77C20.2326 27.8187 20.2537 27.8645 20.2891 27.898C20.3244 27.9315 20.3713 27.9501 20.42 27.95C20.4454 27.9502 20.4706 27.945 20.4938 27.9347C20.5171 27.9244 20.5379 27.9093 20.5549 27.8904C20.5719 27.8716 20.5847 27.8493 20.5925 27.8251C20.6003 27.8009 20.6028 27.7753 20.6 27.75C20.4531 25.5441 19.7663 23.4082 18.6 21.53L18.55 21.47V21.4C18.8172 20.8543 18.9088 20.2392 18.8121 19.6393C18.7154 19.0394 18.4352 18.4842 18.01 18.05C17.9923 18.0322 17.9713 18.018 17.9481 18.0084C17.925 17.9987 17.9001 17.9937 17.875 17.9937C17.8499 17.9937 17.825 17.9987 17.8019 18.0084C17.7787 18.018 17.7577 18.0322 17.74 18.05C17.7225 18.0668 17.7085 18.087 17.699 18.1094C17.6894 18.1317 17.6845 18.1557 17.6845 18.18C17.6845 18.2043 17.6894 18.2284 17.699 18.2507C17.7085 18.273 17.7225 18.2932 17.74 18.31C18.0681 18.6555 18.297 19.083 18.4026 19.5476C18.5082 20.0122 18.4866 20.4967 18.34 20.95L18.27 21.14L18.17 21C18.0607 20.87 17.9438 20.7464 17.82 20.63C17.1077 19.9299 16.2462 19.4 15.3 19.08H15.21V19C15.1923 18.6098 15.0607 18.2332 14.8315 17.9169C14.6022 17.6006 14.2854 17.3583 13.92 17.22C13.898 17.2101 13.8741 17.2049 13.85 17.2049C13.8259 17.2049 13.802 17.2101 13.78 17.22C13.7565 17.2302 13.7354 17.2453 13.7181 17.2642C13.7009 17.2832 13.6879 17.3056 13.68 17.33C13.6677 17.3513 13.6613 17.3755 13.6613 17.4C13.6613 17.4246 13.6677 17.4487 13.68 17.47C13.6885 17.4929 13.7019 17.5137 13.7191 17.5309C13.7364 17.5482 13.7571 17.5615 13.78 17.57C14.0373 17.6763 14.2637 17.8456 14.4385 18.0622C14.6132 18.2789 14.7307 18.5361 14.78 18.81V18.99H14.6C13.6389 18.7507 12.6405 18.6997 11.66 18.84C11.6096 18.8493 11.565 18.8782 11.5359 18.9204C11.5068 18.9626 11.4957 19.0146 11.505 19.065C11.5143 19.1154 11.5432 19.1601 11.5854 19.1891C11.6276 19.2182 11.6796 19.2293 11.73 19.22C12.6813 19.0861 13.6497 19.1404 14.58 19.38H14.72V19.51C14.5993 19.8064 14.3887 20.0575 14.1178 20.2279C13.8469 20.3983 13.5294 20.4795 13.21 20.46C13.1592 20.4615 13.1102 20.479 13.07 20.51C13.0361 20.5455 13.015 20.5912 13.01 20.64C13.0099 20.6911 13.0276 20.7406 13.06 20.78C13.0764 20.7984 13.0964 20.8132 13.1188 20.8235C13.1411 20.8338 13.1654 20.8395 13.19 20.84H13.26C13.6545 20.8479 14.0417 20.734 14.3692 20.5139C14.6966 20.2938 14.9483 19.9782 15.09 19.61V19.49H15.21C16.0731 19.7857 16.859 20.2709 17.51 20.91C17.6789 21.0719 17.836 21.2457 17.98 21.43L18.04 21.5L17.98 21.58C17.6158 22.0214 17.1102 22.3233 16.5488 22.4345C15.9875 22.5457 15.4049 22.4593 14.9 22.19C14.8519 22.1706 14.7981 22.1706 14.75 22.19C14.7069 22.2111 14.6692 22.2419 14.64 22.28C14.6189 22.3267 14.6165 22.3796 14.6332 22.428C14.6499 22.4763 14.6846 22.5164 14.73 22.54C15.175 22.7583 15.6643 22.8712 16.16 22.87C16.5394 22.8722 16.9147 22.7919 17.26 22.6348C17.6053 22.4777 17.9124 22.2475 18.16 21.96L18.33 21.8Z" fill="#0A9386"/>
<path d="M22.43 28.6799H21.61C20.51 28.6799 19 28.6799 18.25 30.1299C17.36 31.8199 17.8 34.3099 18.25 36.9499L18.31 37.2499C19.31 42.6999 20.5 45.4499 21.93 45.4499H22.07C23.5 45.4499 24.72 42.6999 25.7 37.2299L25.75 36.9499C26.22 34.3099 26.66 31.8299 25.75 30.1299C24.99 28.6799 23.49 28.6799 22.39 28.6799H22.43ZM25.14 36.8299L25.09 37.1399H23.09C23.0051 37.1399 22.9237 37.1736 22.8637 37.2337C22.8037 37.2937 22.77 37.3751 22.77 37.4599C22.77 37.5448 22.8037 37.6262 22.8637 37.6862C22.9237 37.7462 23.0051 37.7799 23.09 37.7799H25C23.76 44.2699 22.49 44.7799 22.12 44.7799H22C21.72 44.7799 20.93 44.4899 20 41.5699H21.14C21.2139 41.5567 21.2809 41.5179 21.3291 41.4603C21.3773 41.4027 21.4037 41.33 21.4037 41.2549C21.4037 41.1798 21.3773 41.1071 21.3291 41.0495C21.2809 40.992 21.2139 40.9532 21.14 40.9399H19.79C19.51 39.9399 19.23 38.6699 18.94 37.0799L18.89 36.7899C18.74 35.9499 18.6 35.1299 18.5 34.3399H20.37C20.4161 34.3482 20.4634 34.3462 20.5086 34.3342C20.5538 34.3222 20.5959 34.3004 20.6317 34.2703C20.6676 34.2403 20.6965 34.2027 20.7163 34.1603C20.7361 34.1179 20.7464 34.0717 20.7464 34.0249C20.7464 33.9781 20.7361 33.9319 20.7163 33.8895C20.6965 33.8471 20.6676 33.8096 20.6317 33.7795C20.5959 33.7495 20.5538 33.7277 20.5086 33.7157C20.4634 33.7037 20.4161 33.7017 20.37 33.7099H18.42C18.2359 32.5862 18.3675 31.4333 18.8 30.3799C19.34 29.3799 20.35 29.2699 21.61 29.2699H22.43C23.69 29.2699 24.69 29.3599 25.23 30.3799C26.02 31.8899 25.6 34.2699 25.14 36.7899V36.8299Z" fill="#0A9386"/>
<path d="M22.09 45.5801H22C20.47 45.5801 19.25 42.8601 18.25 37.2801L18.15 37.0001C17.67 34.3401 17.22 31.8401 18.15 30.1001C18.95 28.5901 20.5 28.5901 21.63 28.5901H22.58C23.69 28.5901 25.16 28.6401 25.93 30.1001C26.83 31.8301 26.39 34.3401 25.93 37.0001L25.88 37.2901C24.84 42.8601 23.61 45.5801 22.09 45.5801ZM21.61 28.8101C20.54 28.8101 19.08 28.8101 18.36 30.1901C17.49 31.8501 17.93 34.3101 18.36 36.9201L18.41 37.2301C19.07 40.9201 20.21 45.3301 21.91 45.3301H22.05C22.99 45.3301 24.35 43.9201 25.55 37.2101L25.6 36.9201C26.07 34.3101 26.51 31.8501 25.6 30.1901C24.88 28.8101 23.42 28.8101 22.35 28.8101H21.61ZM22.09 45.0001H22C21.6 45.0001 20.8 44.5701 19.91 41.7001L19.86 41.5301H21.17C21.1979 41.5366 21.2269 41.5368 21.2548 41.5305C21.2827 41.5242 21.3089 41.5118 21.3313 41.494C21.3538 41.4762 21.3719 41.4535 21.3844 41.4278C21.3968 41.402 21.4033 41.3737 21.4033 41.3451C21.4033 41.3165 21.3968 41.2882 21.3844 41.2624C21.3719 41.2366 21.3538 41.214 21.3313 41.1962C21.3089 41.1784 21.2827 41.1659 21.2548 41.1597C21.2269 41.1534 21.1979 41.1536 21.17 41.1601H19.7V41.0601C19.4 39.9801 19.11 38.6801 18.85 37.1901L18.8 36.9101C18.66 36.1401 18.5 35.2601 18.4 34.4501V34.3101H20.4C20.4496 34.3077 20.4965 34.2869 20.5317 34.2517C20.5668 34.2166 20.5876 34.1697 20.59 34.1201C20.59 34.0951 20.5851 34.0704 20.5755 34.0474C20.566 34.0243 20.552 34.0034 20.5343 33.9857C20.5167 33.9681 20.4958 33.9541 20.4727 33.9445C20.4497 33.935 20.4249 33.9301 20.4 33.9301H18.31V33.8101C18.1123 32.6628 18.2477 31.4828 18.7 30.4101C19.27 29.3201 20.32 29.2401 21.62 29.2401H22.44C23.74 29.2401 24.78 29.3201 25.35 30.4101C26.16 31.9501 25.74 34.3501 25.28 36.9001L25.22 37.2101V37.3201H23.11C23.0596 37.3201 23.0113 37.3401 22.9756 37.3757C22.94 37.4114 22.92 37.4597 22.92 37.5101C22.92 37.5605 22.94 37.6088 22.9756 37.6444C23.0113 37.6801 23.0596 37.7001 23.11 37.7001H25.11V37.8501C24.8051 39.9234 24.2092 41.9433 23.34 43.8501C22.8 44.7501 22.36 45.0001 22.09 45.0001ZM20.15 41.7901C21.05 44.6001 21.8 44.7901 21.95 44.7901H22.09C22.33 44.7901 23.57 44.4601 24.81 38.0201H23.11C22.9933 38.0201 22.8814 37.9737 22.7989 37.8912C22.7164 37.8087 22.67 37.6968 22.67 37.5801C22.67 37.4634 22.7164 37.3515 22.7989 37.269C22.8814 37.1864 22.9933 37.1401 23.11 37.1401H25V36.9001C25.45 34.4001 25.87 32.0401 25.1 30.5701C24.59 29.5701 23.62 29.5701 22.41 29.5701H21.59C20.37 29.5701 19.4 29.6501 18.9 30.5701C18.4828 31.5608 18.3512 32.6485 18.52 33.7101H20.35C20.4566 33.7261 20.5538 33.7798 20.6241 33.8615C20.6944 33.9432 20.7331 34.0473 20.7331 34.1551C20.7331 34.2628 20.6944 34.367 20.6241 34.4487C20.5538 34.5303 20.4566 34.5841 20.35 34.6001H18.64C18.74 35.3601 18.89 36.1801 19.02 36.9001L19.07 37.1901C19.33 38.6301 19.6 39.8901 19.89 40.9401H21.12C21.2266 40.9561 21.3238 41.0098 21.3941 41.0915C21.4644 41.1732 21.5031 41.2773 21.5031 41.3851C21.5031 41.4928 21.4644 41.597 21.3941 41.6787C21.3238 41.7603 21.2266 41.8141 21.12 41.8301L20.15 41.7901Z" fill="#0A9386"/>
<path d="M0 10.9399L0.69 10.1499L5.36 14.2499L4.67 14.9999L0 10.9399Z" fill="#0A9386"/>
<path d="M6.85997 8.56001L8.91997 11L8.23997 11.57L6.36997 9.35001C6.31399 9.27285 6.24195 9.20873 6.15882 9.16207C6.07568 9.1154 5.98343 9.0873 5.8884 9.0797C5.79337 9.0721 5.69782 9.08517 5.60832 9.11803C5.51883 9.15088 5.43751 9.20273 5.36997 9.27001C5.22553 9.41626 5.11142 9.58961 5.0342 9.7801C4.95697 9.9706 4.91815 10.1745 4.91997 10.38L6.91997 12.71L6.23997 13.28L3.46997 10L3.99997 9.54001L4.44997 9.96001C4.45316 9.67264 4.51616 9.38907 4.63496 9.12738C4.75376 8.86568 4.92574 8.63159 5.13997 8.44001C5.25363 8.32091 5.39215 8.22834 5.54567 8.16887C5.69919 8.10941 5.86393 8.08452 6.02816 8.09598C6.19239 8.10744 6.35208 8.15496 6.49585 8.23516C6.63962 8.31537 6.76395 8.42629 6.85997 8.56001Z" fill="#0A9386"/>
<path d="M13.08 9.04993C13.53 9.84993 13.08 10.6199 11.9 11.3199C10.72 12.0199 9.9 11.9599 9.55 11.3199C9.40809 11.0747 9.35832 10.7869 9.40965 10.5083C9.46098 10.2297 9.61003 9.97848 9.83 9.79993C9.72136 9.82231 9.60837 9.80792 9.5088 9.75905C9.40923 9.71017 9.32874 9.62957 9.28 9.52993C9.22004 9.40728 9.20224 9.26827 9.22937 9.13446C9.25649 9.00066 9.32702 8.87955 9.43 8.78993C9.15713 8.80765 8.88536 8.74145 8.65119 8.60024C8.41702 8.45902 8.23167 8.24955 8.12 7.99993C8.01734 7.81431 7.95578 7.6088 7.93949 7.39731C7.9232 7.18582 7.95256 6.9733 8.02558 6.77414C8.09861 6.57499 8.21358 6.39387 8.36272 6.24303C8.51187 6.0922 8.69169 5.97519 8.89 5.89993C9.2567 5.66938 9.68833 5.5641 10.12 5.59993L10.58 4.92993L11.04 5.38993L10.63 5.80993C10.832 5.94642 10.9998 6.12782 11.12 6.33993C11.2301 6.5272 11.298 6.73629 11.3188 6.95255C11.3396 7.16881 11.3129 7.387 11.2405 7.59183C11.168 7.79667 11.0517 7.98319 10.8996 8.13833C10.7475 8.29347 10.5634 8.41347 10.36 8.48993L10.15 8.58993C9.9 8.72993 9.82 8.87993 9.89 8.99993C9.96 9.11993 10.23 9.08993 10.89 8.78993C11.72 8.39993 12.62 8.22993 13.08 9.04993ZM8.85 7.61993C8.89527 7.73249 8.96496 7.83359 9.05403 7.91596C9.1431 7.99833 9.24934 8.05991 9.36508 8.09626C9.48083 8.13261 9.60319 8.14283 9.72336 8.12617C9.84353 8.10951 9.95851 8.0664 10.06 7.99993C10.1695 7.94956 10.2667 7.87595 10.3449 7.78421C10.4231 7.69247 10.4803 7.58481 10.5127 7.46871C10.545 7.3526 10.5517 7.23085 10.5323 7.1119C10.5128 6.99296 10.4677 6.87967 10.4 6.77993C10.3515 6.66875 10.2785 6.5699 10.1867 6.49067C10.0948 6.41144 9.9863 6.35386 9.86919 6.32218C9.75208 6.2905 9.62935 6.28554 9.51006 6.30765C9.39078 6.32976 9.27798 6.37839 9.18 6.44993C9.07515 6.49839 8.98203 6.56898 8.90705 6.65685C8.83207 6.74472 8.77701 6.84779 8.74566 6.95896C8.7143 7.07014 8.70739 7.18678 8.7254 7.30088C8.74341 7.41498 8.78592 7.52382 8.85 7.61993ZM12.37 9.54993C12.12 9.11993 11.51 9.40993 10.54 9.73993C10.08 10.0599 9.94 10.4399 10.11 10.7399C10.28 11.0399 10.93 11.0899 11.67 10.6699C12.41 10.2499 12.57 9.89993 12.37 9.54993Z" fill="#0A9386"/>
<path d="M14.33 4.26009C13.8663 4.46023 13.4852 4.81314 13.25 5.26009L14.35 8.12009L13.53 8.44009L12 4.48009L12.66 4.22009L12.97 4.75009C13.0523 4.50052 13.183 4.26962 13.3546 4.07058C13.5262 3.87154 13.7353 3.70826 13.97 3.59009L14.33 4.26009Z" fill="#0A9386"/>
<path d="M15.41 5.44992C15.1 4.03992 15.64 3.08992 16.86 2.81992C18.08 2.54992 18.74 3.14992 19.02 4.42992C19.0474 4.54521 19.0674 4.66211 19.08 4.77992L16.33 5.38992C16.3404 5.5667 16.3909 5.73881 16.4775 5.89327C16.5641 6.04773 16.6846 6.18052 16.83 6.28162C16.9754 6.38272 17.1419 6.4495 17.3168 6.47692C17.4918 6.50434 17.6707 6.49169 17.84 6.43992C18.3387 6.34358 18.782 6.06114 19.08 5.64992L19.33 6.32992C18.9658 6.79993 18.4369 7.1144 17.85 7.20992C16.61 7.48992 15.72 6.85992 15.41 5.44992ZM18.09 4.44992C17.94 3.76992 17.55 3.44992 16.99 3.57992C16.8502 3.60577 16.7175 3.66113 16.6008 3.74232C16.4841 3.8235 16.386 3.92864 16.3132 4.05072C16.2403 4.1728 16.1943 4.30901 16.1782 4.45027C16.1622 4.59153 16.1764 4.7346 16.22 4.86992L18.09 4.44992Z" fill="#0A9386"/>
<path d="M23.77 0L23.89 6.57H23.17L23.06 6C22.9152 6.21924 22.7173 6.39836 22.4848 6.52073C22.2523 6.6431 21.9927 6.70476 21.73 6.7C20.64 6.7 20 5.9 19.97 4.49C19.94 3.08 20.56 2.22 21.66 2.2C21.8943 2.18728 22.1286 2.22437 22.3475 2.30883C22.5664 2.3933 22.7649 2.52321 22.93 2.69L22.88 0H23.77ZM23 5.45V3.45C22.8786 3.30171 22.7261 3.18187 22.5533 3.09893C22.3805 3.016 22.1916 2.97198 22 2.97C21.33 2.97 20.93 3.55 20.95 4.49C20.97 5.43 21.35 6 22 6C22.1978 5.99193 22.3911 5.93806 22.5647 5.84262C22.7382 5.74718 22.8872 5.61279 23 5.45Z" fill="#0A9386"/>
<path d="M25.54 2.48989L26.41 2.59989L25.85 6.84989L25 6.73989L25.54 2.48989ZM25.54 1.43989C25.5414 1.36296 25.5613 1.28749 25.598 1.21985C25.6347 1.15222 25.6871 1.09439 25.7508 1.05126C25.8146 1.00812 25.8877 0.980939 25.9642 0.972C26.0406 0.963061 26.118 0.972627 26.19 0.999894C26.2613 0.99943 26.3318 1.01521 26.3962 1.04604C26.4605 1.07687 26.517 1.12194 26.5613 1.17783C26.6056 1.23372 26.6367 1.29897 26.652 1.36863C26.6674 1.43829 26.6667 1.51054 26.65 1.57989C26.6482 1.65173 26.63 1.7222 26.5967 1.78589C26.5635 1.84958 26.516 1.90479 26.4581 1.94728C26.4001 1.98977 26.3332 2.01842 26.2625 2.031C26.1917 2.04359 26.119 2.03979 26.05 2.01989C25.9778 2.02191 25.9062 2.00726 25.8406 1.9771C25.775 1.94694 25.7172 1.90207 25.6717 1.84598C25.6263 1.78989 25.5944 1.72407 25.5785 1.65365C25.5625 1.58322 25.5631 1.51008 25.58 1.43989H25.54Z" fill="#0A9386"/>
<path d="M27.28 4.87002C27.65 3.47002 28.57 2.87002 29.78 3.21002C30.99 3.55002 31.29 4.37002 31 5.63002C30.9726 5.74616 30.9359 5.85987 30.89 5.97002L28.17 5.24002C28.0973 5.40001 28.0616 5.57432 28.0655 5.75C28.0694 5.92568 28.1129 6.09823 28.1926 6.25482C28.2724 6.41141 28.3863 6.54803 28.5261 6.65453C28.6659 6.76104 28.8279 6.83469 29 6.87002C29.4896 7.00596 30.0119 6.95977 30.47 6.74002L30.38 7.46002C29.8381 7.70231 29.2263 7.73788 28.66 7.56002C28.3749 7.50315 28.1064 7.38262 27.8744 7.20743C27.6425 7.03224 27.4531 6.80691 27.3204 6.54827C27.1877 6.28964 27.1152 6.00437 27.1082 5.71377C27.1012 5.42317 27.1599 5.13474 27.28 4.87002ZM30.12 5.20002C30.31 4.53002 30.12 4.07002 29.56 3.92002C29.424 3.87646 29.2802 3.86255 29.1383 3.87922C28.9965 3.89589 28.8598 3.94275 28.7376 4.01665C28.6154 4.09056 28.5104 4.18979 28.4297 4.30766C28.3491 4.42554 28.2946 4.55933 28.27 4.70002L30.12 5.20002Z" fill="#0A9386"/>
<path d="M35.64 6.75005L34.3 9.67005L33.5 9.30005L34.71 6.65005C34.7546 6.5685 34.7812 6.47833 34.7881 6.38562C34.7949 6.29291 34.7817 6.19981 34.7495 6.11261C34.7173 6.02541 34.6667 5.94614 34.6013 5.88015C34.5358 5.81415 34.4569 5.76297 34.37 5.73005C34.1755 5.66067 33.969 5.63111 33.7629 5.64313C33.5567 5.65516 33.3551 5.70852 33.17 5.80005L31.9 8.57005L31.1 8.20005L32.89 4.30005L33.53 4.60005L33.35 5.19005C33.6131 5.07407 33.8974 5.01416 34.185 5.01416C34.4725 5.01416 34.7569 5.07407 35.02 5.19005C35.1683 5.2451 35.3035 5.3307 35.4167 5.44131C35.5299 5.55191 35.6186 5.68506 35.677 5.83213C35.7354 5.97919 35.7624 6.13689 35.756 6.29502C35.7496 6.45315 35.7101 6.60817 35.64 6.75005Z" fill="#0A9386"/>
<path d="M37 11.2099C36.7329 11.1911 36.4749 11.1051 36.25 10.9599C36.1063 10.8906 35.98 10.79 35.8802 10.6656C35.7804 10.5411 35.7097 10.3959 35.6733 10.2406C35.6369 10.0853 35.6356 9.92385 35.6697 9.768C35.7037 9.61216 35.7721 9.4659 35.87 9.33992L37.17 7.33992L36.62 6.97992L37.18 6.44992L37.57 6.70992L38.39 5.41992L39.13 5.88992L38.32 7.17992L39.03 7.62992L38.63 8.25992L37.92 7.80992L36.64 9.80992C36.5975 9.85609 36.5662 9.91138 36.5484 9.97154C36.5307 10.0317 36.527 10.0951 36.5376 10.157C36.5483 10.2188 36.5729 10.2773 36.6097 10.3281C36.6465 10.3789 36.6945 10.4206 36.75 10.4499C36.8663 10.5339 36.9993 10.5919 37.14 10.6199L37 11.2099Z" fill="#0A9386"/>
<path d="M38.53 9.81992C39.46 8.70992 40.53 8.56992 41.53 9.36992C42.53 10.1699 42.41 11.0599 41.53 12.0599C41.47 12.1199 41.37 12.2499 41.28 12.3299L39.13 10.5099C38.9953 10.6244 38.8886 10.768 38.818 10.93C38.7473 11.092 38.7146 11.268 38.7223 11.4445C38.73 11.621 38.778 11.7935 38.8625 11.9487C38.947 12.1038 39.0659 12.2377 39.21 12.3399C39.5915 12.674 40.0829 12.8556 40.59 12.8499L40.2 13.4699C39.6054 13.4546 39.0368 13.2236 38.6 12.8199C37.64 11.9999 37.61 10.9199 38.53 9.81992ZM41 11.3299C41.45 10.7999 41.47 10.3299 41 9.91992C40.8946 9.82317 40.7696 9.75016 40.6335 9.70585C40.4974 9.66154 40.3534 9.64695 40.2113 9.66306C40.0691 9.67918 39.932 9.72563 39.8093 9.79927C39.6866 9.87291 39.5811 9.97202 39.5 10.0899L41 11.3299Z" fill="#0A9386"/>
<path d="M40.6 14.0499L41.24 13.5999C41.3517 14.1542 41.5914 14.6747 41.94 15.1199C42.25 15.4799 42.58 15.5999 42.86 15.3599C43.14 15.1199 42.97 14.6499 42.75 14.1499C42.53 13.6499 42.19 12.7699 42.81 12.2499C43.43 11.7299 44.19 11.9499 44.74 12.5999C45.0618 12.9954 45.3092 13.4461 45.47 13.9299L44.87 14.3599C44.7468 13.9087 44.5399 13.4847 44.26 13.1099C43.99 12.7899 43.66 12.6899 43.42 12.8899C43.18 13.0899 43.33 13.5099 43.53 13.9699C43.82 14.6099 44.11 15.3899 43.46 15.9699C42.81 16.5499 41.97 16.3199 41.31 15.5499C40.9439 15.1221 40.6988 14.6043 40.6 14.0499Z" fill="#0A9386"/>
<path d="M8.19001 44L9.13001 44.66L8.80001 49.88L11.35 46.22L12.2 46.82L8.71001 51.94L7.83001 51.33L8.15001 46H8.10002L5.49001 49.71L4.64001 49.11L8.19001 44Z" fill="#0A9386"/>
<path d="M15 51.3999L13.89 54.1899L13.21 53.9199L13.32 53.4099C12.8244 53.6333 12.2612 53.6549 11.75 53.4699C11.5961 53.4197 11.4545 53.3376 11.3345 53.2289C11.2146 53.1203 11.1189 52.9875 11.0537 52.8393C10.9886 52.6911 10.9555 52.5308 10.9566 52.3689C10.9576 52.207 10.9929 52.0472 11.06 51.8999C11.44 50.8999 12.52 50.7499 14.06 51.3599L14.2 50.9999C14.34 50.6499 14.2 50.3499 13.68 50.1499C13.2164 49.9968 12.7252 49.9456 12.24 49.9999V49.3499C12.8489 49.2789 13.4661 49.3543 14.04 49.5699C14.2323 49.6121 14.4131 49.6959 14.5696 49.8153C14.7261 49.9348 14.8546 50.087 14.9461 50.2614C15.0375 50.4357 15.0898 50.628 15.0991 50.8247C15.1084 51.0213 15.0746 51.2177 15 51.3999ZM12.33 52.9999C12.7006 53.124 13.1046 53.1026 13.46 52.9399L13.86 51.9399C12.86 51.5399 12.18 51.6299 11.95 52.1899C11.92 52.2679 11.906 52.3512 11.909 52.4347C11.912 52.5182 11.9318 52.6003 11.9673 52.6759C12.0028 52.7516 12.0532 52.8193 12.1156 52.8749C12.1779 52.9306 12.2508 52.9731 12.33 52.9999Z" fill="#0A9386"/>
<path d="M17.77 55C17.5172 55.0631 17.2528 55.0631 17 55C16.8405 54.9841 16.6866 54.9326 16.5497 54.8492C16.4128 54.7659 16.2963 54.6528 16.209 54.5184C16.1216 54.384 16.0656 54.2317 16.045 54.0727C16.0244 53.9138 16.0398 53.7522 16.09 53.6L16.62 51.23L16 51.11L16.35 50.42L16.81 50.53L17.1 49L17.96 49.19L17.63 50.68L18.46 50.86L18.29 51.59L17.47 51.41L17 53.78C16.9785 53.8384 16.9703 53.9008 16.9759 53.9627C16.9815 54.0247 17.0008 54.0846 17.0324 54.1382C17.0639 54.1917 17.107 54.2376 17.1585 54.2726C17.21 54.3075 17.2685 54.3305 17.33 54.34C17.4656 54.3646 17.6044 54.3646 17.74 54.34L17.77 55Z" fill="#0A9386"/>
<path d="M22.94 51.2501L22.75 55.5301H22.03L22 54.8801C21.8065 55.0918 21.5697 55.2594 21.3057 55.3716C21.0417 55.4837 20.7567 55.5378 20.47 55.5301C20.309 55.5381 20.1482 55.5112 19.9986 55.4514C19.849 55.3916 19.714 55.3002 19.6029 55.1834C19.4919 55.0666 19.4073 54.9273 19.355 54.7748C19.3027 54.6224 19.284 54.4604 19.3 54.3001L19.45 51.0901H20.33L20.18 54.0001C20.1685 54.0928 20.1771 54.1868 20.2052 54.2759C20.2333 54.3649 20.2802 54.4469 20.3429 54.5162C20.4055 54.5855 20.4823 54.6404 20.5681 54.6773C20.6539 54.7142 20.7466 54.7322 20.84 54.7301C21.0457 54.7206 21.2474 54.6696 21.433 54.5803C21.6186 54.4909 21.7842 54.365 21.92 54.2101L22.06 51.2101L22.94 51.2501Z" fill="#0A9386"/>
<path d="M26.59 51.45C26.0861 51.5428 25.6301 51.808 25.3 52.2L25.7 55.2L24.83 55.31L24.26 51.07L25 51L25.18 51.59C25.3218 51.3645 25.5072 51.1697 25.7252 51.0168C25.9433 50.864 26.1897 50.7563 26.45 50.7L26.59 51.45Z" fill="#0A9386"/>
<path d="M30.66 51L31.55 53.88L30.84 54.09L30.61 53.62C30.355 54.0927 29.9295 54.4503 29.42 54.62C29.2682 54.6787 29.1056 54.7041 28.9432 54.6947C28.7807 54.6853 28.6222 54.6412 28.4782 54.5655C28.3342 54.4897 28.2081 54.3839 28.1084 54.2554C28.0086 54.1268 27.9376 53.9784 27.9 53.82C27.6 52.82 28.32 52.01 29.9 51.52L29.79 51.16C29.67 50.8 29.37 50.66 28.85 50.82C28.3879 50.9823 27.9678 51.2453 27.62 51.59L27.25 51C27.6748 50.5422 28.2078 50.1983 28.8 50C28.9861 49.916 29.1891 49.876 29.3932 49.8831C29.5973 49.8902 29.797 49.9442 29.9769 50.0409C30.1567 50.1376 30.3119 50.2744 30.4304 50.4407C30.5488 50.6071 30.6274 50.7984 30.66 51ZM29.55 53.89C29.9168 53.7546 30.22 53.4872 30.4 53.14L30.07 52C29.07 52.32 28.56 52.82 28.73 53.39C28.7488 53.4767 28.7861 53.5582 28.8391 53.6293C28.8922 53.7003 28.9598 53.7591 29.0375 53.8017C29.1153 53.8444 29.2012 53.8699 29.2896 53.8765C29.378 53.8831 29.4668 53.8707 29.55 53.84V53.89Z" fill="#0A9386"/>
<path d="M30.41 47.14L31.2 46.76L34.05 52.67L33.26 53.06L30.41 47.14Z" fill="#0A9386"/>
<path d="M34.36 50.15C33.55 48.96 33.7 47.88 34.72 47.15C35.74 46.42 36.59 46.76 37.32 47.83C37.3922 47.9276 37.4557 48.0313 37.51 48.14L35.19 49.73C35.2643 49.891 35.3745 50.0329 35.5122 50.1446C35.6499 50.2564 35.8114 50.3351 35.9843 50.3747C36.1571 50.4143 36.3368 50.4137 36.5094 50.373C36.682 50.3323 36.843 50.2526 36.98 50.14C37.4092 49.8643 37.7169 49.435 37.84 48.94L38.33 49.48C38.1754 50.0435 37.8196 50.5309 37.33 50.85C36.24 51.59 35.18 51.34 34.36 50.15ZM36.46 48.2C36.07 47.63 35.59 47.48 35.12 47.8C34.9985 47.8755 34.8946 47.9762 34.8153 48.0953C34.7361 48.2144 34.6833 48.3491 34.6606 48.4903C34.6378 48.6315 34.6456 48.776 34.6835 48.914C34.7213 49.0519 34.7884 49.1801 34.88 49.29L36.46 48.2Z" fill="#0A9386"/>
<path d="M39.68 48.5199L39.17 47.9299C39.7112 47.7676 40.203 47.4719 40.6 47.0699C40.93 46.7299 41.02 46.3899 40.75 46.1399C40.48 45.8899 40.03 46.1399 39.56 46.3699C39.09 46.5999 38.24 47.0699 37.65 46.5099C37.06 45.9499 37.22 45.1699 37.81 44.5099C38.168 44.1461 38.5923 43.8542 39.06 43.6499L39.54 44.1999C39.1029 44.3688 38.7024 44.62 38.36 44.9399C38.07 45.2399 38 45.5799 38.23 45.7999C38.46 46.0199 38.86 45.7999 39.3 45.5699C39.9 45.2199 40.65 44.8499 41.3 45.4399C41.95 46.0299 41.8 46.8799 41.1 47.6199C40.717 48.043 40.2261 48.3541 39.68 48.5199Z" fill="#0A9386"/>
</g>
<defs>
<clipPath id="clip0_2502_6807">
<rect width="45.47" height="55.53" fill="white"/>
</clipPath>
</defs>
</svg>
