<svg width="44" height="39" viewBox="0 0 44 39" fill="none" xmlns="http://www.w3.org/2000/svg">
<g clip-path="url(#clip0_2502_7041)">
<path d="M20.72 14.1576C20.6741 14.1079 20.6184 14.0682 20.5565 14.0411C20.4945 14.014 20.4276 14 20.36 14C20.2924 14 20.2255 14.014 20.1635 14.0411C20.1016 14.0682 20.0459 14.1079 20 14.1576C19.67 14.5376 12 23.4876 12 30.5076C12 32.7354 12.885 34.872 14.4603 36.4473C16.0356 38.0226 18.1722 38.9076 20.4 38.9076C22.6278 38.9076 24.7644 38.0226 26.3397 36.4473C27.915 34.872 28.8 32.7354 28.8 30.5076C28.8 23.5076 21.09 14.5076 20.8 14.1576H20.72ZM20.39 37.9176C18.4149 37.9149 16.5215 37.1292 15.125 35.7326C13.7284 34.336 12.9426 32.4426 12.94 30.4676C12.94 24.6376 18.86 17.0376 20.39 15.1676C21.92 17.0376 27.84 24.6376 27.84 30.4676C27.8374 32.4426 27.0516 34.336 25.655 35.7326C24.2585 37.1292 22.3651 37.9149 20.39 37.9176Z" fill="#0A9386"/>
<path d="M6.73 9.88998L4.27 9.14998L3.52 9.83998L5 11.51L4.23 12.22L0 7.65998L1.51 6.25998C1.69093 6.0365 1.91951 5.85628 2.17904 5.73248C2.43856 5.60868 2.72246 5.54443 3.01 5.54443C3.29754 5.54443 3.58144 5.60868 3.84096 5.73248C4.10049 5.85628 4.32907 6.0365 4.51 6.25998C4.80082 6.53355 4.99361 6.89516 5.05867 7.2891C5.12372 7.68303 5.05743 8.08743 4.87 8.43998L7.6 9.13998L6.73 9.88998ZM2.89 9.23998L3.62 8.55998C3.74052 8.47085 3.83946 8.35578 3.9095 8.22326C3.97954 8.09074 4.0189 7.94417 4.02466 7.79439C4.03042 7.64461 4.00244 7.49545 3.94278 7.35794C3.88312 7.22043 3.79331 7.0981 3.68 6.99998C3.59138 6.87403 3.47487 6.77025 3.33955 6.69673C3.20423 6.62321 3.05376 6.58193 2.89986 6.57613C2.74597 6.57032 2.59281 6.60013 2.45234 6.66325C2.31186 6.72636 2.18786 6.82107 2.09 6.93998L1.36 7.61998L2.89 9.23998Z" fill="#0A9386"/>
<path d="M6.6 7.27003C5.84 6.05003 6 5.00003 7.1 4.32003C8.2 3.64003 9 4.00003 9.67 5.12003C9.73492 5.2221 9.79176 5.32909 9.84 5.44003L7.45 6.92003C7.51735 7.08269 7.62084 7.22788 7.75263 7.34461C7.88441 7.46134 8.04104 7.54654 8.21064 7.59376C8.38024 7.64098 8.55836 7.64897 8.73151 7.61714C8.90465 7.58531 9.06829 7.51448 9.21 7.41003C9.64604 7.15102 9.97302 6.74229 10.13 6.26003L10.59 6.82003C10.3906 7.37911 9.99659 7.84769 9.48 8.14003C9.24125 8.30126 8.9696 8.4073 8.68475 8.45043C8.39991 8.49357 8.10904 8.47273 7.83326 8.38942C7.55748 8.30611 7.30371 8.16243 7.09039 7.9688C6.87707 7.77518 6.70955 7.53648 6.6 7.27003ZM8.79 5.43003C8.43 4.84003 8 4.66003 7.47 5.00003C7.34614 5.06982 7.23858 5.16523 7.15451 5.27987C7.07043 5.39452 7.01177 5.52578 6.98243 5.66489C6.95309 5.80401 6.95376 5.94778 6.98438 6.08661C7.015 6.22545 7.07487 6.35616 7.16 6.47003L8.79 5.43003Z" fill="#0A9386"/>
<path d="M11 2.44002L11.78 2.10002L12.07 2.77002L11.3 3.11002L12.7 6.36002L11.89 6.72002L10.47 3.46002L9.87 3.73002L9.74 3.00002L10.17 2.81002L9.68 1.67002C9.60131 1.52985 9.55521 1.37375 9.54513 1.21331C9.53505 1.05288 9.56124 0.892237 9.62177 0.743318C9.6823 0.594399 9.7756 0.461032 9.89475 0.353124C10.0139 0.245216 10.1558 0.165541 10.31 0.120017C10.5016 0.0341407 10.7102 -0.00690064 10.92 1.71365e-05L11.27 0.620017C11.0807 0.614547 10.8926 0.652161 10.72 0.730017C10.661 0.751595 10.6076 0.786127 10.5637 0.831071C10.5199 0.876015 10.4866 0.930227 10.4665 0.989715C10.4463 1.0492 10.4398 1.11245 10.4473 1.17481C10.4548 1.23716 10.4763 1.29704 10.51 1.35002L11 2.44002Z" fill="#0A9386"/>
<path d="M15.32 1.63994C14.8385 1.809 14.4315 2.14165 14.17 2.57994L15.05 5.51994L14.2 5.77994L13 1.66994L13.68 1.46994L13.95 2.01994C14.1459 1.53686 14.5226 1.14935 15 0.939941L15.32 1.63994Z" fill="#0A9386"/>
<path d="M16.28 2.92005C16.08 1.49005 16.7 0.590052 17.93 0.410052C19.16 0.230052 19.78 0.890052 19.93 2.18005C19.9367 2.29996 19.9367 2.42014 19.93 2.54005L17.14 2.93005C17.27 3.82005 17.78 4.21005 18.56 4.10005C19.0618 4.03267 19.523 3.78791 19.86 3.41005L20.06 4.10005C19.6571 4.54056 19.1045 4.81509 18.51 4.87005C17.32 5.00005 16.48 4.34005 16.28 2.92005ZM19 2.11005C18.9 1.43005 18.55 1.11005 18 1.16005C17.8582 1.17351 17.7209 1.21709 17.5974 1.28789C17.4738 1.35869 17.3668 1.45507 17.2835 1.57057C17.2001 1.68608 17.1425 1.81805 17.1143 1.95765C17.0861 2.09725 17.088 2.24127 17.12 2.38005L19 2.11005Z" fill="#0A9386"/>
<path d="M20.82 4.22L20.93 3.45C21.4076 3.75952 21.9532 3.94827 22.52 4C22.99 4 23.31 3.86 23.32 3.49C23.33 3.12 22.87 2.92 22.32 2.75C21.77 2.58 21 2.18 21 1.37C21 0.559996 21.72 0.159996 22.57 0.199996C23.0655 0.233486 23.5504 0.358959 24 0.569996V1.29C23.5826 1.082 23.1329 0.946724 22.67 0.889996C22.25 0.889996 21.95 1.05 21.93 1.36C21.91 1.67 22.33 1.85 22.8 2.01C23.47 2.23 24.24 2.55 24.2 3.41C24.16 4.27 23.45 4.74 22.43 4.69C21.8611 4.67926 21.3053 4.51702 20.82 4.22Z" fill="#0A9386"/>
<path d="M25 2.62988C25.3 1.21988 26.18 0.629883 27.43 0.839883C27.9298 0.921351 28.3801 1.18938 28.69 1.58988L28.33 2.25988C28.2168 2.08678 28.07 1.93824 27.8982 1.82313C27.7264 1.70802 27.5331 1.62869 27.33 1.58988C26.58 1.42988 26.04 1.86988 25.84 2.80988C25.64 3.74988 25.95 4.35988 26.69 4.51988C26.9152 4.56638 27.1476 4.56642 27.3728 4.52C27.5981 4.47357 27.8115 4.38166 28 4.24988V4.99988C27.7704 5.14058 27.5148 5.23348 27.2485 5.273C26.9821 5.31252 26.7105 5.29786 26.45 5.22988C25.24 4.99988 24.69 3.99988 25 2.62988Z" fill="#0A9386"/>
<path d="M32.69 3.99999L31.61 6.81999L30.92 6.54999L31 5.99999C30.5045 6.22159 29.9433 6.24662 29.43 6.06999C29.2746 6.02345 29.131 5.944 29.0091 5.83704C28.8871 5.73007 28.7896 5.5981 28.7232 5.45009C28.6568 5.30209 28.623 5.14152 28.6242 4.9793C28.6254 4.81708 28.6615 4.65702 28.73 4.50999C29.1 3.50999 30.18 3.34999 31.73 3.93999L31.87 3.58999C32 3.23999 31.87 2.93999 31.35 2.73999C30.8836 2.58391 30.3892 2.52936 29.9 2.57999L30 1.99999C30.6082 1.92499 31.2254 1.997 31.8 2.20999C31.9829 2.25845 32.1534 2.34538 32.3 2.46497C32.4466 2.58457 32.566 2.73407 32.6503 2.90349C32.7345 3.07292 32.7816 3.25836 32.7885 3.44745C32.7953 3.63654 32.7618 3.82491 32.69 3.99999ZM30 5.58999C30.3706 5.71412 30.7746 5.69267 31.13 5.52999L31.53 4.52999C30.53 4.13999 29.84 4.22999 29.62 4.78999C29.5901 4.86729 29.5763 4.94988 29.5794 5.0327C29.5825 5.11552 29.6024 5.19685 29.638 5.27171C29.6735 5.34658 29.724 5.41341 29.7862 5.46813C29.8485 5.52285 29.9212 5.56432 30 5.58999Z" fill="#0A9386"/>
<path d="M37.18 6.25005L35.55 9.00005L34.79 8.55005L36.27 6.03005C36.3152 5.95251 36.3441 5.86657 36.3549 5.77749C36.3657 5.6884 36.3583 5.59804 36.333 5.51193C36.3078 5.42582 36.2652 5.34577 36.2079 5.27667C36.1507 5.20757 36.0799 5.15088 36 5.11005C35.8137 5.0212 35.6113 4.97097 35.4051 4.96238C35.1989 4.95378 34.9931 4.98701 34.8 5.06005L33.28 7.69005L32.52 7.24005L34.69 3.55005L35.3 3.91005L35.06 4.48005C35.3305 4.38271 35.6188 4.34483 35.9053 4.36899C36.1917 4.39315 36.4696 4.47878 36.72 4.62005C36.8666 4.68694 36.997 4.78496 37.1019 4.9073C37.2068 5.02964 37.2839 5.17336 37.3276 5.32848C37.3714 5.4836 37.3809 5.64639 37.3554 5.80553C37.3299 5.96468 37.27 6.11637 37.18 6.25005Z" fill="#0A9386"/>
<path d="M38.05 10.8299C37.7911 10.776 37.5481 10.663 37.34 10.4999C37.2029 10.4173 37.0863 10.3048 36.9989 10.1707C36.9115 10.0366 36.8557 9.88453 36.8354 9.72577C36.8152 9.56702 36.8312 9.40575 36.8823 9.25406C36.9333 9.10237 37.018 8.96421 37.13 8.84992L38.63 6.99992L38.11 6.58992L38.72 6.11992L39.09 6.40992L40 5.16992L40.69 5.70992L39.75 6.90992L40.42 7.42992L40 7.99992L39.34 7.46992L37.84 9.36992C37.792 9.40834 37.7533 9.45704 37.7267 9.51243C37.7001 9.56782 37.6863 9.62848 37.6863 9.68992C37.6863 9.75137 37.7001 9.81203 37.7267 9.86742C37.7533 9.92281 37.792 9.97151 37.84 10.0099C37.9491 10.1025 38.0746 10.1738 38.21 10.2199L38.05 10.8299Z" fill="#0A9386"/>
<path d="M39.78 9.63007C40.78 8.63007 41.92 8.63007 42.78 9.52007C43.64 10.4101 43.47 11.3001 42.52 12.2001C42.4339 12.2812 42.3438 12.358 42.25 12.4301L40.31 10.4301C40.1642 10.5295 40.0429 10.6607 39.9549 10.8137C39.867 10.9667 39.8149 11.1376 39.8024 11.3136C39.7899 11.4897 39.8173 11.6662 39.8827 11.8301C39.9481 11.994 40.0498 12.141 40.18 12.2601C40.5294 12.6275 40.9964 12.861 41.5 12.9201L41.05 13.4901C40.4603 13.4112 39.9197 13.1196 39.53 12.6701C38.65 11.7101 38.73 10.6201 39.78 9.63007ZM42 11.4001C42.5 10.9201 42.58 10.4001 42.18 10.0101C42.0862 9.90367 41.9707 9.81845 41.8414 9.76007C41.7121 9.7017 41.5719 9.67151 41.43 9.67151C41.2881 9.67151 41.1479 9.7017 41.0186 9.76007C40.8893 9.81845 40.7738 9.90367 40.68 10.0101L42 11.4001Z" fill="#0A9386"/>
</g>
<defs>
<clipPath id="clip0_2502_7041">
<rect width="43.31" height="38.7" fill="white"/>
</clipPath>
</defs>
</svg>
