<svg width="49" height="56" viewBox="0 0 49 56" fill="none" xmlns="http://www.w3.org/2000/svg">
<g clip-path="url(#clip0_2646_6948)">
<path d="M34.55 20.2201C33.8923 20.2201 33.2615 20.4814 32.7964 20.9465C32.3313 21.4116 32.07 22.0424 32.07 22.7001C32.0667 22.9838 32.1177 23.2655 32.22 23.5301L31 24.3501C30.3248 23.2374 29.3606 22.3285 28.21 21.7201L29.21 19.5501C29.5079 19.6642 29.8216 19.7317 30.14 19.7501C30.6301 19.7481 31.1086 19.601 31.5151 19.3273C31.9216 19.0536 32.2379 18.6656 32.4241 18.2122C32.6103 17.7589 32.6579 17.2606 32.5611 16.7802C32.4643 16.2998 32.2273 15.8588 31.8801 15.513C31.5329 15.1671 31.091 14.9319 30.6102 14.837C30.1294 14.7422 29.6312 14.7918 29.1786 14.9798C28.7261 15.1678 28.3393 15.4857 28.0673 15.8933C27.7952 16.3009 27.65 16.78 27.65 17.2701C27.6533 17.9151 27.9039 18.5343 28.35 19.0001L27.21 21.3801C26.5013 21.125 25.7532 20.9963 25 21.0001C24.2265 21.0166 23.459 21.1411 22.72 21.3701L21.59 19.1901C21.8697 18.9579 22.0932 18.6655 22.2438 18.3348C22.3945 18.004 22.4684 17.6435 22.46 17.2801C22.4814 16.9445 22.4338 16.6081 22.3202 16.2917C22.2065 15.9752 22.0291 15.6854 21.7991 15.4402C21.569 15.195 21.2911 14.9995 20.9825 14.8659C20.6739 14.7323 20.3413 14.6633 20.005 14.6633C19.6687 14.6633 19.3361 14.7323 19.0275 14.8659C18.7189 14.9995 18.441 15.195 18.2109 15.4402C17.9809 15.6854 17.8035 15.9752 17.6898 16.2917C17.5762 16.6081 17.5286 16.9445 17.55 17.2801C17.5602 17.9286 17.8209 18.548 18.2777 19.0084C18.7344 19.4689 19.3516 19.7347 20 19.7501C20.2299 19.745 20.4583 19.7114 20.68 19.6501L21.76 21.7701C20.9112 22.2051 20.1614 22.8107 19.5574 23.5489C18.9534 24.2871 18.5083 25.142 18.25 26.0601L16.44 25.8001V25.7501C16.4401 25.0992 16.1843 24.4744 15.7278 24.0105C15.2713 23.5465 14.6508 23.2806 14 23.2701C13.337 23.2701 12.7011 23.5335 12.2322 24.0023C11.7634 24.4712 11.5 25.1071 11.5 25.7701C11.5 26.4331 11.7634 27.069 12.2322 27.5379C12.7011 28.0067 13.337 28.2701 14 28.2701C14.4642 28.2689 14.9187 28.137 15.3113 27.8894C15.704 27.6417 16.0189 27.2885 16.22 26.8701L18.08 27.1301C18.029 27.4173 18.0022 27.7084 18 28.0001C17.9948 29.4365 18.4465 30.8374 19.29 32.0001L16.09 35.0001C15.7112 34.7893 15.2834 34.6824 14.85 34.6901C14.1913 34.6901 13.5595 34.9511 13.0928 35.4159C12.6262 35.8807 12.3626 36.5114 12.36 37.1701C12.36 37.8331 12.6234 38.469 13.0922 38.9379C13.5611 39.4067 14.197 39.6701 14.86 39.6701C15.523 39.6701 16.1589 39.4067 16.6278 38.9379C17.0966 38.469 17.36 37.8331 17.36 37.1701C17.3464 36.6516 17.1832 36.148 16.89 35.7201L20 32.8301C20.6494 33.5033 21.4254 34.0416 22.2835 34.414C23.1415 34.7864 24.0647 34.9856 25 35.0001C26.3819 35.0127 27.7339 34.597 28.87 33.8101L29.87 35.1501C29.4988 35.5848 29.2965 36.1385 29.3 36.7101C29.3 37.3678 29.5613 37.9986 30.0264 38.4637C30.4915 38.9288 31.1223 39.1901 31.78 39.1901C32.443 39.1901 33.0789 38.9267 33.5478 38.4579C34.0166 37.989 34.28 37.3531 34.28 36.6901C34.28 36.0271 34.0166 35.3912 33.5478 34.9223C33.0789 34.4535 32.443 34.1901 31.78 34.1901C31.3793 34.191 30.986 34.298 30.64 34.5001L29.64 33.1601C30.3554 32.5043 30.9266 31.707 31.3174 30.8187C31.7082 29.9304 31.91 28.9706 31.91 28.0001C31.9012 27.0997 31.7284 26.2085 31.4 25.3701L32.69 24.4901C32.9254 24.7323 33.2067 24.9252 33.5174 25.0574C33.8282 25.1896 34.1623 25.2585 34.5 25.2601C34.8299 25.2628 35.157 25.1996 35.4622 25.0743C35.7674 24.949 36.0445 24.764 36.2773 24.5303C36.5101 24.2966 36.694 24.0187 36.8181 23.713C36.9421 23.4073 37.004 23.08 37 22.7501C37.003 22.0953 36.7511 21.4651 36.2975 20.9929C35.8439 20.5206 35.2244 20.2435 34.57 20.2201H34.55ZM30.16 15.8301C30.3491 15.8301 30.5364 15.8673 30.7111 15.9397C30.8858 16.0121 31.0445 16.1181 31.1782 16.2519C31.312 16.3856 31.418 16.5443 31.4904 16.719C31.5628 16.8937 31.6 17.081 31.6 17.2701C31.6166 17.47 31.5916 17.6711 31.5266 17.8608C31.4615 18.0505 31.3578 18.2247 31.222 18.3723C31.0862 18.5198 30.9212 18.6376 30.7376 18.7182C30.5539 18.7988 30.3556 18.8404 30.155 18.8404C29.9544 18.8404 29.7561 18.7988 29.5724 18.7182C29.3888 18.6376 29.2238 18.5198 29.088 18.3723C28.9522 18.2247 28.8485 18.0505 28.7834 17.8608C28.7184 17.6711 28.6934 17.47 28.71 17.2701C28.71 17.0801 28.7476 16.8921 28.8206 16.7167C28.8936 16.5413 29.0005 16.3822 29.1353 16.2483C29.2701 16.1145 29.43 16.0086 29.6059 15.9368C29.7817 15.865 29.9701 15.8288 30.16 15.8301ZM18.58 17.2701C18.6102 16.9076 18.7755 16.5697 19.0432 16.3234C19.3108 16.0771 19.6613 15.9404 20.025 15.9404C20.3887 15.9404 20.7392 16.0771 21.0068 16.3234C21.2745 16.5697 21.4398 16.9076 21.47 17.2701C21.4622 17.6557 21.3042 18.023 21.0296 18.2938C20.7551 18.5646 20.3856 18.7176 20 18.7201C19.8101 18.7201 19.622 18.6825 19.4466 18.6095C19.2713 18.5365 19.1121 18.4296 18.9782 18.2948C18.8444 18.16 18.7385 18.0001 18.6667 17.8242C18.595 17.6484 18.5587 17.46 18.56 17.2701H18.58ZM14 27.2001C13.6154 27.2001 13.2466 27.0473 12.9747 26.7754C12.7028 26.5035 12.55 26.1347 12.55 25.7501C12.5577 25.3679 12.7129 25.0036 12.9832 24.7333C13.2535 24.463 13.6178 24.3078 14 24.3001C14.3901 24.2973 14.7657 24.4477 15.0461 24.7188C15.3266 24.9899 15.4895 25.3602 15.5 25.7501C15.4987 25.9444 15.4587 26.1365 15.3823 26.3151C15.3058 26.4937 15.1945 26.6553 15.0548 26.7904C14.9151 26.9254 14.7498 27.0312 14.5687 27.1016C14.3876 27.1719 14.1942 27.2054 14 27.2001ZM14.88 38.5701C14.5928 38.5721 14.3115 38.4887 14.0717 38.3306C13.832 38.1725 13.6445 37.9467 13.5333 37.6819C13.422 37.4172 13.3918 37.1253 13.4467 36.8434C13.5015 36.5615 13.6388 36.3022 13.8412 36.0984C14.0435 35.8946 14.3019 35.7555 14.5834 35.6987C14.865 35.642 15.157 35.6701 15.4226 35.7795C15.6881 35.889 15.9151 36.0748 16.0749 36.3135C16.2347 36.5522 16.32 36.8329 16.32 37.1201C16.3213 37.3117 16.2844 37.5017 16.2114 37.6789C16.1384 37.8561 16.0307 38.0169 15.8948 38.152C15.7588 38.287 15.5972 38.3936 15.4195 38.4654C15.2419 38.5372 15.0516 38.5728 14.86 38.5701H14.88ZM33.28 36.6601C33.28 36.85 33.2424 37.0381 33.1694 37.2135C33.0964 37.3888 32.9895 37.548 32.8547 37.6819C32.7199 37.8157 32.56 37.9216 32.3841 37.9934C32.2083 38.0651 32.0199 38.1014 31.83 38.1001C31.6301 38.1167 31.429 38.0917 31.2393 38.0267C31.0496 37.9616 30.8754 37.8579 30.7278 37.7221C30.5803 37.5863 30.4625 37.4213 30.3819 37.2377C30.3013 37.054 30.2597 36.8557 30.2597 36.6551C30.2597 36.4545 30.3013 36.2562 30.3819 36.0725C30.4625 35.8888 30.5803 35.7239 30.7278 35.5881C30.8754 35.4523 31.0496 35.3486 31.2393 35.2835C31.429 35.2185 31.6301 35.1935 31.83 35.2101C32.0191 35.2114 32.2061 35.25 32.3803 35.3235C32.5545 35.3971 32.7125 35.5043 32.8453 35.6389C32.9781 35.7736 33.0831 35.9331 33.1542 36.1083C33.2254 36.2835 33.2613 36.471 33.26 36.6601H33.28ZM25 33.9201C23.8249 33.922 22.6756 33.576 21.6969 32.9256C20.7182 32.2752 19.9541 31.3495 19.5008 30.2654C19.0474 29.1813 18.9253 27.9872 19.1497 26.8337C19.3742 25.6803 19.9351 24.6191 20.7618 23.784C21.5886 22.9489 22.644 22.3774 23.7952 22.1413C24.9463 21.9053 26.1416 22.0155 27.2302 22.4579C28.3188 22.9002 29.2521 23.6551 29.9123 24.6272C30.5725 25.5992 30.9301 26.745 30.94 27.9201C30.9401 29.5011 30.3162 31.0182 29.2039 32.1417C28.0916 33.2652 26.5809 33.9043 25 33.9201ZM34.56 24.2001C34.3692 24.2014 34.1801 24.1648 34.0035 24.0924C33.827 24.02 33.6666 23.9133 33.5317 23.7784C33.3968 23.6435 33.2901 23.4831 33.2177 23.3066C33.1453 23.13 33.1087 22.9409 33.11 22.7501C33.11 22.4633 33.195 22.183 33.3544 21.9445C33.5137 21.7061 33.7402 21.5202 34.0051 21.4105C34.2701 21.3007 34.5616 21.272 34.8429 21.328C35.1242 21.3839 35.3825 21.522 35.5853 21.7248C35.7881 21.9276 35.9262 22.1859 35.9821 22.4672C36.0381 22.7485 36.0094 23.04 35.8996 23.305C35.7899 23.5699 35.604 23.7964 35.3656 23.9557C35.1271 24.1151 34.8468 24.2001 34.56 24.2001Z" fill="#0A9386"/>
<path d="M8.92 9.68003L7 11.39L7.61 12.89L6.79 13.61L4.38 7.44003L5.38 6.53003L11.16 9.73003L10.29 10.49L8.92 9.68003ZM8.19 9.26003L5.54 7.72003L6.64 10.6L8.19 9.26003Z" fill="#0A9386"/>
<path d="M8.38 4.00004L9.13 3.54004L12.56 9.14004L11.81 9.60004L8.38 4.00004Z" fill="#0A9386"/>
<path d="M12.42 6.64998C11.83 5.32998 12.18 4.28998 13.31 3.78998C14.44 3.28998 15.22 3.78998 15.75 4.92998C15.75 5.00998 15.85 5.15998 15.88 5.26998L13.31 6.40998C13.3534 6.58258 13.436 6.74287 13.5513 6.87844C13.6666 7.01402 13.8116 7.12124 13.9749 7.19182C14.1383 7.26239 14.3158 7.29442 14.4935 7.28544C14.6713 7.27645 14.8446 7.22668 15 7.13998C15.4609 6.94311 15.8366 6.58862 16.06 6.13998L16.44 6.75998C16.1733 7.29074 15.7162 7.7014 15.16 7.90998C14 8.40998 13 7.99998 12.42 6.64998ZM12.73 2.19998L13.73 1.97998L13.14 3.50998L12.54 3.77998L12.73 2.19998ZM14.84 5.11998C14.56 4.48998 14.12 4.24998 13.59 4.47998C13.4576 4.53287 13.338 4.61346 13.2393 4.71634C13.1406 4.81922 13.0651 4.94202 13.0177 5.0765C12.9704 5.21098 12.9523 5.35403 12.9648 5.49606C12.9772 5.63809 13.0199 5.77581 13.09 5.89998L14.84 5.11998Z" fill="#0A9386"/>
<path d="M18.73 2.77011C18.2443 2.92989 17.828 3.251 17.55 3.68011L18.36 6.68011L17.51 6.92011L16.38 2.74011L17.07 2.56011L17.32 3.11011C17.5563 2.63807 17.9697 2.27861 18.47 2.11011L18.73 2.77011Z" fill="#0A9386"/>
<path d="M23.84 6.17012C23.94 7.08012 23.26 7.63012 21.84 7.79012C20.42 7.95012 19.79 7.60012 19.7 6.79012C19.6768 6.51848 19.7475 6.24711 19.9004 6.02139C20.0534 5.79568 20.2791 5.62931 20.54 5.55012C20.4327 5.52674 20.3358 5.46934 20.2637 5.38646C20.1916 5.30358 20.1482 5.19964 20.14 5.09012C20.1335 4.95386 20.1721 4.81927 20.2498 4.70718C20.3276 4.59509 20.4401 4.51176 20.57 4.47012C20.3181 4.38151 20.0982 4.22022 19.938 4.00662C19.7778 3.79302 19.6845 3.53672 19.67 3.27012C19.56 2.34012 20.14 1.72012 21.21 1.60012C21.6384 1.52819 22.0786 1.60214 22.46 1.81012L23.15 1.37012L23.39 1.98012L22.85 2.20012C22.9781 2.40598 23.0569 2.63873 23.08 2.88012C23.19 3.81012 22.62 4.43012 21.54 4.55012H21.31C21.03 4.55012 20.9 4.68012 20.92 4.83012C20.94 4.98012 21.19 5.04012 21.92 5.02012C22.84 5.00012 23.74 5.24012 23.84 6.17012ZM23 6.36012C23 5.85012 22.27 5.89012 21.25 5.80012C20.7 5.92012 20.42 6.21012 20.46 6.55012C20.5 6.89012 21.07 7.20012 21.92 7.10012C22.77 7.00012 23 6.75012 23 6.36012ZM20.52 3.19012C20.5325 3.30634 20.5677 3.41896 20.6237 3.52156C20.6797 3.62416 20.7554 3.71472 20.8464 3.78808C20.9374 3.86144 21.0419 3.91616 21.1541 3.94911C21.2662 3.98206 21.3838 3.99259 21.5 3.98012C21.6162 3.96764 21.7288 3.9324 21.8314 3.8764C21.934 3.82039 22.0246 3.74473 22.098 3.65373C22.1713 3.56273 22.226 3.45817 22.259 3.34602C22.2919 3.23388 22.3025 3.11634 22.29 3.00012C22.2769 2.8839 22.241 2.7714 22.1844 2.66905C22.1277 2.56671 22.0515 2.47651 21.9601 2.40362C21.8686 2.33072 21.7637 2.27656 21.6513 2.24422C21.5389 2.21187 21.4212 2.20198 21.305 2.21512C21.1888 2.22825 21.0763 2.26414 20.9739 2.32075C20.8716 2.37736 20.7814 2.45357 20.7085 2.54504C20.5613 2.72976 20.4935 2.9654 20.52 3.20012V3.19012Z" fill="#0A9386"/>
<path d="M24.44 1.56002H25.32L25.21 5.84002H24.33L24.44 1.56002ZM24.37 0.56002C24.37 0.416803 24.4269 0.279452 24.5282 0.178182C24.6294 0.0769122 24.7668 0.0200195 24.91 0.0200195C25.0532 0.0200195 25.1906 0.0769122 25.2918 0.178182C25.3931 0.279452 25.45 0.416803 25.45 0.56002C25.45 0.703236 25.3931 0.840587 25.2918 0.941857C25.1906 1.04313 25.0532 1.10002 24.91 1.10002C24.7668 1.10002 24.6294 1.04313 24.5282 0.941857C24.4269 0.840587 24.37 0.703236 24.37 0.56002Z" fill="#0A9386"/>
<path d="M26.41 3.74995C26.64 2.31995 27.48 1.63995 28.75 1.83995C29.2345 1.90309 29.6792 2.14142 30 2.50995L29.68 3.20995C29.5659 3.04246 29.4179 2.90075 29.2457 2.79396C29.0735 2.68717 28.8807 2.61767 28.68 2.58995C27.91 2.46995 27.4 2.92995 27.25 3.88995C27.1 4.84995 27.44 5.42995 28.19 5.54995C28.4105 5.57939 28.6346 5.56447 28.8493 5.50609C29.064 5.4477 29.2648 5.34702 29.44 5.20995L29.53 5.96995C29.3088 6.12156 29.0593 6.22714 28.7965 6.28039C28.5336 6.33365 28.2628 6.3335 28 6.27995C26.78 6.07995 26.19 5.16995 26.41 3.74995Z" fill="#0A9386"/>
<path d="M30.6 4.45999C30.6507 4.17646 30.7639 3.90776 30.9313 3.67342C31.0988 3.43907 31.3163 3.24496 31.5681 3.10516C31.82 2.96536 32.0998 2.88339 32.3872 2.8652C32.6747 2.84701 32.9626 2.89305 33.23 2.99999C34.46 3.40999 34.89 4.40999 34.43 5.77999C34.3823 6.06655 34.2708 6.33872 34.1037 6.57642C33.9367 6.81412 33.7185 7.01128 33.4651 7.15334C33.2117 7.2954 32.9296 7.37873 32.6397 7.39719C32.3497 7.41565 32.0594 7.36876 31.79 7.25999C30.57 6.82999 30.14 5.82999 30.6 4.45999ZM33.6 5.45999C33.91 4.53999 33.71 3.90999 33.02 3.67999C32.33 3.44999 31.77 3.81999 31.46 4.73999C31.15 5.65999 31.36 6.27999 32.06 6.51999C32.76 6.75999 33.27 6.38999 33.58 5.46999L33.6 5.45999Z" fill="#0A9386"/>
<path d="M34.34 7.7601L34.76 7.1001C35.0721 7.57726 35.4983 7.96907 36 8.2401C36.43 8.4601 36.78 8.4501 37 8.1301C37.22 7.8101 36.83 7.4201 36.44 7.0401C36.05 6.6601 35.44 5.9701 35.78 5.2501C36.12 4.5301 36.94 4.4601 37.7 4.8601C38.1467 5.09977 38.5437 5.42216 38.87 5.8101L38.48 6.4301C38.2024 6.06507 37.8642 5.75049 37.48 5.5001C37.12 5.3101 36.76 5.3401 36.62 5.6201C36.48 5.9001 36.77 6.2301 37.13 6.6201C37.49 7.0101 38.21 7.7201 37.81 8.4801C37.41 9.2401 36.57 9.3601 35.66 8.8901C35.1213 8.64697 34.6633 8.2549 34.34 7.7601Z" fill="#0A9386"/>
<path d="M40.5 9.23009C41.5 8.14009 42.5 8.01009 43.5 8.85009C44.5 9.69009 44.5 10.7901 43.5 11.8501C43.3472 12.0966 43.1411 12.3057 42.8968 12.462C42.6526 12.6183 42.3764 12.7179 42.0886 12.7534C41.8008 12.7889 41.5087 12.7594 41.2337 12.6671C40.9588 12.5748 40.7081 12.4221 40.5 12.2201C40.2888 12.0325 40.1198 11.8022 40.0041 11.5445C39.8884 11.2868 39.8285 11.0076 39.8285 10.7251C39.8285 10.4426 39.8884 10.1633 40.0041 9.90566C40.1198 9.64797 40.2888 9.41773 40.5 9.23009ZM42.88 11.3001C43.52 10.5601 43.57 9.90009 43.02 9.42009C42.47 8.94009 41.81 9.08009 41.18 9.81009C40.55 10.5401 40.5 11.2001 41.05 11.6801C41.6 12.1601 42.24 12.0001 42.88 11.3001Z" fill="#0A9386"/>
<path d="M2.22 42.9999L1.66 43.3799L0 40.9299L4 38.1799L5.63 40.5399L5.07 40.9199L3.88 39.2299L2.75 39.9999L3.75 41.4599L3.19 41.8499L2.19 40.3799L1 41.2099L2.22 42.9999Z" fill="#0A9386"/>
<path d="M2.48 44.0001L3 43.6201C3.09252 44.0505 3.28812 44.452 3.57 44.7901C3.82 45.0701 4.08 45.1601 4.29 44.9701C4.5 44.7801 4.37 44.4101 4.19 44.0201C4.01 43.6301 3.73 42.9601 4.19 42.5401C4.65 42.1201 5.26 42.2901 5.7 42.7901C5.95527 43.0852 6.15515 43.424 6.29 43.7901L5.83 44.1301C5.72883 43.7679 5.55909 43.4284 5.33 43.1301C5.12 42.8901 4.86 42.8101 4.67 42.9701C4.48 43.1301 4.61 43.4501 4.78 43.8101C4.95 44.1701 5.25 44.9101 4.78 45.3501C4.31 45.7901 3.63 45.6501 3.1 45.0501C2.80638 44.7593 2.59282 44.3976 2.48 44.0001Z" fill="#0A9386"/>
<path d="M6.07 47.8501C5.87301 47.7964 5.69144 47.697 5.54 47.5601C5.43839 47.487 5.35463 47.3919 5.29499 47.2818C5.23535 47.1718 5.20137 47.0496 5.1956 46.9246C5.18983 46.7996 5.21241 46.6748 5.26166 46.5598C5.31091 46.4447 5.38555 46.3422 5.48 46.2601L6.76 44.8801L6.38 44.5301L6.89 44.2101L7.15 44.4601L8 43.5901L8.5 44.0601L7.7 44.9201L8.18 45.3701L7.78 45.8001L7.3 45.3501L6 46.7101C5.96073 46.7389 5.9288 46.7765 5.90678 46.82C5.88477 46.8634 5.8733 46.9114 5.8733 46.9601C5.8733 47.0088 5.88477 47.0568 5.90678 47.1002C5.9288 47.1437 5.96073 47.1813 6 47.2101C6.07415 47.291 6.16679 47.3528 6.27 47.3901L6.07 47.8501Z" fill="#0A9386"/>
<path d="M7.54 47.0899C7.64181 46.8886 7.78743 46.7127 7.96615 46.5751C8.14487 46.4375 8.35216 46.3416 8.57277 46.2946C8.79338 46.2476 9.02172 46.2507 9.24102 46.3035C9.46031 46.3563 9.66498 46.4576 9.84 46.5999C10.0382 46.7227 10.2055 46.8895 10.3289 47.0873C10.4524 47.2851 10.5286 47.5087 10.5518 47.7407C10.575 47.9727 10.5446 48.207 10.4627 48.4253C10.3809 48.6437 10.25 48.8403 10.08 48.9999C9.97614 49.2006 9.82883 49.3757 9.64879 49.5123C9.46875 49.6489 9.2605 49.7436 9.03923 49.7896C8.81795 49.8356 8.5892 49.8317 8.36964 49.7781C8.15007 49.7245 7.94522 49.6226 7.77 49.4799C7.57264 49.3573 7.40622 49.1909 7.2837 48.9935C7.16119 48.7961 7.08587 48.5731 7.06362 48.3418C7.04136 48.1105 7.07277 47.8773 7.15539 47.6601C7.23802 47.443 7.36963 47.2479 7.54 47.0899ZM9.54 48.5399C9.99 47.9299 9.98 47.4099 9.54 47.0799C9.1 46.7499 8.59 46.8899 8.14 47.4999C7.69 48.1099 7.7 48.6199 8.14 48.9599C8.58 49.2999 9.07 49.1499 9.52 48.5399H9.54ZM10.78 45.6399L11.32 46.2399L10 46.4299L9.59 46.1299L10.78 45.6399Z" fill="#0A9386"/>
<path d="M15.66 50.8899L14.58 53.1399L14 52.8499L15 50.7999C15.0348 50.7372 15.0557 50.6677 15.0612 50.5962C15.0668 50.5247 15.0569 50.4528 15.0322 50.3855C15.0076 50.3181 14.9687 50.2569 14.9183 50.2059C14.8679 50.1549 14.8071 50.1153 14.74 50.0899C14.5932 50.0263 14.435 49.9935 14.275 49.9935C14.115 49.9935 13.9568 50.0263 13.81 50.0899L12.81 52.2199L12.11 51.9999L13.11 49.9999C13.1448 49.9372 13.1657 49.8677 13.1712 49.7962C13.1768 49.7247 13.1669 49.6528 13.1422 49.5855C13.1176 49.5181 13.0787 49.4569 13.0283 49.4059C12.9779 49.3549 12.9171 49.3153 12.85 49.2899C12.7032 49.2263 12.545 49.1935 12.385 49.1935C12.225 49.1935 12.0668 49.2263 11.92 49.2899L10.92 51.4199L10.3 51.1299L11.73 48.1299L12.23 48.3699L12.09 48.8299C12.2928 48.7385 12.5126 48.6913 12.735 48.6913C12.9574 48.6913 13.1772 48.7385 13.38 48.8299C13.5611 48.8988 13.7148 49.025 13.8177 49.1892C13.9206 49.3535 13.967 49.5468 13.95 49.7399C14.1489 49.6412 14.368 49.5898 14.59 49.5898C14.8121 49.5898 15.0311 49.6412 15.23 49.7399C15.4392 49.8357 15.6019 50.0106 15.6825 50.2261C15.7631 50.4416 15.755 50.6803 15.66 50.8899Z" fill="#0A9386"/>
<path d="M19.09 51.93L18.51 54.19L18 54.05V53.64C17.8213 53.7511 17.6221 53.8252 17.4143 53.8579C17.2064 53.8905 16.9941 53.881 16.79 53.83C16.6662 53.8077 16.5486 53.759 16.4452 53.6874C16.3418 53.6158 16.2549 53.5228 16.1905 53.4148C16.1261 53.3068 16.0855 53.1862 16.0716 53.0611C16.0577 52.9361 16.0708 52.8095 16.11 52.69C16.31 51.91 17.11 51.69 18.37 51.99L18.44 51.7C18.52 51.42 18.37 51.2 17.96 51.1C17.5915 51.0149 17.2085 51.0149 16.84 51.1V50.6C17.303 50.4852 17.787 50.4852 18.25 50.6C18.4007 50.6155 18.5459 50.665 18.6747 50.7448C18.8035 50.8246 18.9124 50.9327 18.9933 51.0608C19.0743 51.1889 19.125 51.3337 19.1417 51.4843C19.1585 51.6348 19.1408 51.7873 19.09 51.93ZM17.19 53.39C17.4866 53.4478 17.794 53.3906 18.05 53.23L18.27 52.39C17.45 52.18 16.94 52.32 16.82 52.77C16.7989 52.835 16.792 52.9038 16.7997 52.9717C16.8073 53.0397 16.8294 53.1052 16.8645 53.1639C16.8995 53.2226 16.9467 53.2731 17.0028 53.3121C17.0589 53.3511 17.1228 53.3777 17.19 53.39Z" fill="#0A9386"/>
<path d="M22.69 55.0601C22.62 55.7701 22.01 56.0601 20.92 55.9601C19.83 55.8601 19.39 55.4701 19.46 54.8701C19.4865 54.6595 19.5843 54.4643 19.7371 54.3169C19.89 54.1696 20.0886 54.0789 20.3 54.0601C20.2231 54.0258 20.1597 53.9669 20.1199 53.8927C20.0801 53.8185 20.066 53.7331 20.08 53.6501C20.0956 53.5445 20.1467 53.4473 20.2248 53.3746C20.303 53.3019 20.4036 53.258 20.51 53.2501C20.322 53.1494 20.1711 52.9913 20.0794 52.7988C19.9876 52.6063 19.9598 52.3895 20 52.1801C20.08 51.4601 20.62 51.0901 21.45 51.1801C21.7894 51.1971 22.1133 51.3273 22.37 51.5501L22.96 51.3301L23.04 51.8301L22.6 51.9101C22.6622 52.0863 22.6827 52.2746 22.66 52.4601C22.58 53.1901 22.05 53.5601 21.21 53.4601C21.1501 53.4655 21.0899 53.4655 21.03 53.4601C20.82 53.4601 20.7 53.4601 20.69 53.6101C20.68 53.7601 20.86 53.8201 21.39 53.9101C22.13 54.0001 22.77 54.3401 22.69 55.0601ZM22.02 55.0601C22.02 54.6701 21.54 54.5801 20.78 54.3501C20.34 54.3501 20.08 54.5201 20.06 54.7801C20.04 55.0401 20.41 55.3801 21.06 55.4501C21.71 55.5201 22 55.3701 22 55.0601H22.02ZM20.67 52.2401C20.6509 52.3318 20.6522 52.4266 20.6738 52.5178C20.6954 52.6089 20.7368 52.6943 20.795 52.7677C20.8531 52.8411 20.9267 52.9009 21.0105 52.9428C21.0944 52.9847 21.1863 53.0076 21.28 53.0101C21.3723 53.0274 21.4674 53.0246 21.5585 53.0017C21.6496 52.9789 21.7347 52.9365 21.8079 52.8776C21.8811 52.8186 21.9407 52.7445 21.9824 52.6604C22.0242 52.5762 22.0473 52.484 22.05 52.3901C22.0694 52.298 22.068 52.2028 22.0458 52.1114C22.0236 52.02 21.9812 51.9347 21.9217 51.8618C21.8623 51.7889 21.7872 51.7303 21.7021 51.6902C21.6171 51.6501 21.5241 51.6295 21.43 51.6301C21.3386 51.6089 21.2436 51.6087 21.1521 51.6296C21.0606 51.6504 20.9751 51.6918 20.9019 51.7505C20.8287 51.8093 20.7698 51.8838 20.7296 51.9686C20.6895 52.0534 20.6691 52.1462 20.67 52.2401Z" fill="#0A9386"/>
<path d="M23.61 53.1C23.56 51.98 24.09 51.33 25.09 51.28C26.09 51.23 26.7 51.83 26.75 52.94C26.8 54.05 26.27 54.72 25.27 54.77C24.27 54.82 23.67 54.22 23.61 53.1ZM26.06 53C26.06 52.24 25.69 51.85 25.13 51.88C24.57 51.91 24.27 52.33 24.31 53.09C24.35 53.85 24.67 54.23 25.25 54.2C25.83 54.17 26.1 53.73 26.06 53Z" fill="#0A9386"/>
<path d="M29.59 53.8999L29.49 53.3099C29.9175 53.41 30.3625 53.41 30.79 53.3099C31.15 53.2199 31.34 53.0199 31.27 52.7499C31.2 52.4799 30.8 52.4299 30.37 52.4199C29.94 52.4099 29.22 52.3599 29.05 51.7499C28.88 51.1399 29.3 50.6799 29.94 50.5099C30.3244 50.4063 30.726 50.3825 31.12 50.4399L31.22 50.9999C30.863 50.9346 30.497 50.9346 30.14 50.9999C29.83 51.0899 29.64 51.2899 29.71 51.5299C29.78 51.7699 30.11 51.7999 30.51 51.7999C30.91 51.7999 31.7 51.8699 31.87 52.5099C32.04 53.1499 31.63 53.6699 30.87 53.8799C30.454 54.0087 30.0098 54.0156 29.59 53.8999Z" fill="#0A9386"/>
<path d="M32.42 51.6C32.2994 51.4127 32.2217 51.201 32.1926 50.9802C32.1634 50.7593 32.1835 50.5347 32.2513 50.3225C32.3192 50.1103 32.4332 49.9158 32.5851 49.7528C32.737 49.5899 32.9231 49.4626 33.13 49.38C33.98 49.01 34.62 49.38 35.02 50.28C35.0626 50.3663 35.0961 50.4568 35.12 50.55L33.12 51.42C33.1555 51.5528 33.2203 51.6758 33.3097 51.7803C33.399 51.8847 33.5106 51.9677 33.6363 52.0234C33.7619 52.079 33.8984 52.1058 34.0358 52.1017C34.1731 52.0977 34.3078 52.0629 34.43 52C34.7927 51.845 35.0873 51.5646 35.26 51.21L35.55 51.69C35.3399 52.1037 34.9834 52.4245 34.55 52.59C34.3478 52.6892 34.126 52.7419 33.9008 52.7442C33.6757 52.7466 33.4528 52.6985 33.2486 52.6036C33.0444 52.5087 32.864 52.3693 32.7206 52.1957C32.5773 52.022 32.4745 51.8185 32.42 51.6ZM34.31 50.42C34.1 49.93 33.76 49.74 33.31 49.92C33.209 49.9631 33.1179 50.0263 33.0421 50.1057C32.9663 50.1852 32.9074 50.2792 32.869 50.3821C32.8307 50.4849 32.8137 50.5946 32.819 50.7042C32.8243 50.8139 32.8519 50.9213 32.9 51.02L34.31 50.42Z" fill="#0A9386"/>
<path d="M37.89 47.77L39.22 49.89L38.64 50.25L37.43 48.33C37.3945 48.2681 37.3463 48.2144 37.2887 48.1723C37.2311 48.1302 37.1653 48.1006 37.0956 48.0855C37.0258 48.0705 36.9537 48.0702 36.8838 48.0847C36.814 48.0993 36.7479 48.1283 36.69 48.17C36.561 48.2662 36.4528 48.3876 36.372 48.5268C36.2912 48.666 36.2395 48.8202 36.22 48.98L37.49 50.98L36.91 51.35L35.13 48.53L35.6 48.23L35.9 48.6C35.9319 48.38 36.0098 48.1692 36.1287 47.9814C36.2476 47.7935 36.4048 47.6329 36.59 47.51C36.6889 47.4318 36.8037 47.376 36.9263 47.3466C37.0489 47.3171 37.1765 47.3147 37.3001 47.3394C37.4238 47.3641 37.5406 47.4155 37.6424 47.4898C37.7443 47.5641 37.8288 47.6597 37.89 47.77Z" fill="#0A9386"/>
<path d="M40.05 49L39.7 48.51C40.1296 48.4152 40.5306 48.2199 40.87 47.94C41.15 47.7 41.24 47.44 41.05 47.23C40.86 47.02 40.49 47.15 40.11 47.33C39.73 47.51 39.04 47.77 38.63 47.33C38.22 46.89 38.39 46.26 38.89 45.82C39.1856 45.5679 39.5244 45.3714 39.89 45.24L40.23 45.7C39.8712 45.8051 39.533 45.9708 39.23 46.19C38.99 46.4 38.91 46.66 39.07 46.85C39.23 47.04 39.55 46.91 39.91 46.75C40.27 46.59 41.01 46.29 41.45 46.75C41.89 47.21 41.74 47.9 41.14 48.42C40.8335 48.7051 40.4577 48.905 40.05 49Z" fill="#0A9386"/>
<path d="M39.79 43.89C39.7463 43.8553 39.711 43.8113 39.6867 43.761C39.6624 43.7108 39.6498 43.6558 39.6498 43.6C39.6498 43.5442 39.6624 43.4891 39.6867 43.4389C39.711 43.3887 39.7463 43.3446 39.79 43.31C39.8251 43.2699 39.8678 43.2373 39.9157 43.214C39.9636 43.1906 40.0157 43.1771 40.0688 43.1742C40.122 43.1713 40.1752 43.179 40.2254 43.1969C40.2755 43.2148 40.3216 43.2426 40.3609 43.2785C40.4002 43.3145 40.4319 43.3579 40.4542 43.4063C40.4765 43.4547 40.4888 43.507 40.4906 43.5602C40.4924 43.6135 40.4835 43.6665 40.4645 43.7163C40.4455 43.766 40.4168 43.8115 40.38 43.85C40.3487 43.898 40.3067 43.9382 40.2572 43.9672C40.2077 43.9962 40.1522 44.0133 40.095 44.0172C40.0378 44.0211 39.9804 44.0116 39.9275 43.9895C39.8746 43.9674 39.8275 43.9334 39.79 43.89ZM40.44 44.39L40.9 43.88L43.37 46.12L42.9 46.63L40.44 44.39Z" fill="#0A9386"/>
<path d="M44.67 41.6299C45.57 42.2599 45.81 43.0499 45.33 43.7299C45.2226 43.8986 45.075 44.0381 44.9005 44.1358C44.726 44.2335 44.53 44.2865 44.33 44.2899L44.64 44.5999L44.33 45.0599L40.14 42.1399L40.53 41.5799L42.25 42.7699C42.2196 42.5963 42.2244 42.4184 42.2639 42.2466C42.3034 42.0749 42.3768 41.9128 42.48 41.7699C43 40.9999 43.78 40.9999 44.67 41.6299ZM44.26 42.2099C43.66 41.7899 43.13 41.7999 42.82 42.2099C42.7334 42.3354 42.6767 42.479 42.6542 42.6298C42.6317 42.7806 42.6439 42.9346 42.69 43.0799L44 43.9999C44.1484 43.9901 44.2927 43.9473 44.4224 43.8746C44.5522 43.8019 44.6641 43.7013 44.75 43.5799C45 43.1299 44.88 42.6399 44.26 42.2099Z" fill="#0A9386"/>
<path d="M42.08 39.12L42.4 38.51L46.92 40.89L46.6 41.49L42.08 39.12Z" fill="#0A9386"/>
<path d="M45.91 39.23C45.6923 39.183 45.4877 39.0885 45.3108 38.9532C45.1339 38.8179 44.9892 38.6451 44.8869 38.4473C44.7846 38.2494 44.7274 38.0314 44.7193 37.8089C44.7112 37.5863 44.7524 37.3647 44.84 37.16C45.18 36.3 45.84 36.09 46.84 36.46C46.9304 36.4912 47.0175 36.5314 47.1 36.58L46.3 38.58C46.4186 38.6494 46.5514 38.691 46.6883 38.7018C46.8253 38.7125 46.963 38.6921 47.0909 38.6421C47.2189 38.592 47.3339 38.5137 47.4272 38.4129C47.5206 38.312 47.5899 38.1914 47.63 38.06C47.7644 37.6884 47.7644 37.2815 47.63 36.91L48.18 37.04C48.3211 37.481 48.2925 37.9588 48.1 38.38C48.033 38.5957 47.9182 38.7935 47.7642 38.9586C47.6101 39.1237 47.4207 39.2519 47.2102 39.3336C46.9996 39.4153 46.7734 39.4485 46.5482 39.4305C46.3231 39.4126 46.1049 39.344 45.91 39.23ZM46.41 37.06C45.91 36.87 45.54 36.98 45.41 37.39C45.3691 37.4921 45.3496 37.6015 45.3529 37.7114C45.3562 37.8214 45.3821 37.9295 45.429 38.0289C45.4759 38.1284 45.5429 38.2171 45.6256 38.2896C45.7084 38.362 45.8052 38.4166 45.91 38.45L46.41 37.06Z" fill="#0A9386"/>
</g>
<defs>
<clipPath id="clip0_2646_6948">
<rect width="48.27" height="55.98" fill="white"/>
</clipPath>
</defs>
</svg>
