<svg width="42" height="43" viewBox="0 0 42 43" fill="none" xmlns="http://www.w3.org/2000/svg">
<path d="M16.326 5.12996C16.0258 5.13067 15.7487 5.29145 15.5992 5.5516L10.8086 13.8418H7.56341C7.33958 13.8411 7.12443 13.9297 6.96623 14.0879C6.80779 14.2463 6.71919 14.4613 6.72013 14.6851V18.0648C6.7206 18.2879 6.80966 18.5016 6.96787 18.6589C7.12607 18.8162 7.34028 18.9041 7.56341 18.9031H7.80294L10.9808 29.7343C11.0863 30.0915 11.4142 30.3364 11.7864 30.3364H30.2154C30.5876 30.3364 30.9155 30.0915 31.021 29.7343L34.2038 18.9031H34.4433C34.9053 18.9012 35.2791 18.5267 35.28 18.0647V14.6851C35.2819 14.2212 34.9071 13.8437 34.4433 13.8418H31.1932L26.4075 5.55156C26.2962 5.35539 26.1103 5.21242 25.8924 5.15453C25.6786 5.09945 25.4517 5.13062 25.2607 5.24148C25.0676 5.35257 24.9263 5.53562 24.8682 5.75078C24.81 5.9657 24.8398 6.19515 24.9507 6.38828L29.2557 13.8415H12.7509L17.0509 6.38828C17.2832 5.98773 17.1473 5.4749 16.7474 5.2415H16.7458C16.6181 5.16813 16.4732 5.1297 16.3258 5.12993L16.326 5.12996ZM8.39999 15.5232H11.276C11.288 15.5234 11.3002 15.5234 11.3121 15.5232H30.6945C30.7065 15.5234 30.7187 15.5234 30.7306 15.5232H33.6001V17.2212H8.40006L8.39999 15.5232ZM9.55337 18.9028H32.453L29.5885 28.6564H12.4177L9.55337 18.9028ZM15.2956 20.6764C15.0727 20.6773 14.8594 20.7666 14.7026 20.9248C14.5456 21.083 14.4579 21.297 14.4588 21.5197V26.0461C14.4607 26.5076 14.8343 26.8812 15.2955 26.8828C15.5184 26.8838 15.7324 26.7961 15.8904 26.6391C16.0486 26.4823 16.1379 26.269 16.1388 26.0461V21.5196C16.1398 21.2958 16.0512 21.0809 15.8927 20.9225C15.7345 20.764 15.5194 20.6757 15.2955 20.6764L15.2956 20.6764ZM20.6407 20.6764C20.4178 20.6773 20.2045 20.7666 20.0477 20.9248C19.8907 21.083 19.8031 21.297 19.804 21.5197V26.0461C19.8059 26.5076 20.1795 26.8812 20.6407 26.8828C20.8636 26.8838 21.0776 26.7961 21.2355 26.6391C21.3937 26.4823 21.483 26.269 21.484 26.0461V21.5196C21.4849 21.2958 21.3963 21.0809 21.2379 20.9225C21.0797 20.764 20.8645 20.6757 20.6407 20.6764L20.6407 20.6764ZM25.9859 20.6764C25.763 20.6773 25.5497 20.7666 25.3929 20.9248C25.2359 21.083 25.1482 21.297 25.1492 21.5197V26.0461C25.151 26.5076 25.5246 26.8812 25.9859 26.8828C26.2087 26.8838 26.4227 26.7961 26.5807 26.6391C26.7389 26.4823 26.8282 26.269 26.8291 26.0461V21.5196C26.8301 21.2958 26.7415 21.0809 26.583 20.9225C26.4248 20.764 26.2097 20.6757 25.9859 20.6764L25.9859 20.6764Z" fill="#FAD7B1"/>
</svg>
