<svg width="30" height="26" viewBox="0 0 30 26" fill="none" xmlns="http://www.w3.org/2000/svg">
  <path d="M10.326 0.19765C10.0258 0.198353 9.74873 0.359134 9.59921 0.619288L4.80857 8.90949H1.56341C1.33958 8.90878 1.12443 8.99738 0.966227 9.15558C0.807791 9.31402 0.719195 9.52895 0.720131 9.75277V13.1324C0.720599 13.3556 0.809663 13.5693 0.967865 13.7266C1.12607 13.8839 1.34028 13.9717 1.56341 13.9708H1.80294L4.98084 24.802C5.08631 25.1592 5.41421 25.4041 5.7864 25.4041H24.2154C24.5876 25.4041 24.9155 25.1592 25.021 24.802L28.2038 13.9708H28.4433C28.9053 13.9689 29.2791 13.5944 29.28 13.1324V9.75275C29.2819 9.28892 28.9071 8.91137 28.4433 8.90945H25.1932L20.4075 0.619247C20.2962 0.423077 20.1103 0.280108 19.8924 0.222214C19.6786 0.167136 19.4517 0.198308 19.2607 0.309167C19.0676 0.420263 18.9263 0.603304 18.8682 0.818464C18.81 1.03338 18.8398 1.26284 18.9507 1.45596L23.2557 8.90916H6.75086L11.0509 1.45596C11.2832 1.05542 11.1473 0.542585 10.7474 0.309185H10.7458C10.6181 0.235823 10.4732 0.197387 10.3258 0.197621L10.326 0.19765ZM2.39999 10.5908H5.27603C5.28799 10.5911 5.30017 10.5911 5.31213 10.5908H24.6945C24.7065 10.5911 24.7187 10.5911 24.7306 10.5908H27.6001V12.2889H2.40006L2.39999 10.5908ZM3.55337 13.9705H26.453L23.5885 23.7241H6.41765L3.55337 13.9705ZM9.29555 15.7441C9.07267 15.745 8.85938 15.8343 8.70258 15.9925C8.54555 16.1507 8.4579 16.3647 8.45884 16.5874V21.1138C8.46071 21.5753 8.8343 21.9489 9.29554 21.9505C9.51842 21.9514 9.73241 21.8638 9.89038 21.7068C10.0486 21.55 10.1379 21.3367 10.1388 21.1138V16.5873C10.1398 16.3635 10.0512 16.1486 9.89272 15.9901C9.73452 15.8317 9.51936 15.7433 9.29554 15.7441L9.29555 15.7441ZM14.6407 15.7441C14.4178 15.745 14.2045 15.8343 14.0477 15.9925C13.8907 16.1507 13.8031 16.3647 13.804 16.5874V21.1138C13.8059 21.5753 14.1795 21.9489 14.6407 21.9505C14.8636 21.9514 15.0776 21.8638 15.2355 21.7068C15.3937 21.55 15.483 21.3367 15.484 21.1138V16.5873C15.4849 16.3635 15.3963 16.1486 15.2379 15.9901C15.0797 15.8317 14.8645 15.7433 14.6407 15.7441L14.6407 15.7441ZM19.9859 15.7441C19.763 15.745 19.5497 15.8343 19.3929 15.9925C19.2359 16.1507 19.1482 16.3647 19.1492 16.5874V21.1138C19.151 21.5753 19.5246 21.9489 19.9859 21.9505C20.2087 21.9514 20.4227 21.8638 20.5807 21.7068C20.7389 21.55 20.8282 21.3367 20.8291 21.1138V16.5873C20.8301 16.3635 20.7415 16.1486 20.583 15.9901C20.4248 15.8317 20.2097 15.7433 19.9859 15.7441L19.9859 15.7441Z" fill="#FAD7B1"/>
  </svg>
  