<svg xmlns="http://www.w3.org/2000/svg" width="29" height="26" viewBox="0 0 29 26"><g><g><path fill="#df2f44" d="M9.606.002a.84.84 0 0 1 .42.112h.001a.84.84 0 0 1 .304 1.146l-4.3 7.454h16.504L18.23 1.26a.84.84 0 0 1 1.457-.836l4.786 8.29h3.25a.84.84 0 0 1 .837.843v3.38a.84.84 0 0 1-.837.838h-.24l-3.182 10.831a.84.84 0 0 1-.806.602H5.066a.84.84 0 0 1-.805-.602l-3.178-10.83h-.24a.84.84 0 0 1-.843-.84V9.558a.84.84 0 0 1 .843-.843h3.245L8.88.424a.84.84 0 0 1 .727-.422zM1.68 12.093h25.2v-1.698H1.68zM5.698 23.53h17.17l2.865-9.754h-22.9zm2.877-7.98a.84.84 0 0 1 .844.843v4.526a.84.84 0 0 1-1.68 0v-4.526a.84.84 0 0 1 .836-.843zm5.346 0a.84.84 0 0 1 .843.843v4.526a.84.84 0 0 1-1.68 0v-4.526a.84.84 0 0 1 .837-.843zm5.345 0a.84.84 0 0 1 .843.843v4.526a.84.84 0 0 1-1.68 0v-4.526a.84.84 0 0 1 .837-.843z"/></g></g></svg>