<svg width="22" height="19" viewBox="0 0 22 19" fill="none" xmlns="http://www.w3.org/2000/svg">
<path d="M7.53414 0.0015321C7.31984 0.00206202 7.1221 0.123245 7.01538 0.319327L3.59596 6.56777H1.27965C1.11989 6.56724 0.966316 6.63401 0.853396 6.75326C0.740309 6.87267 0.677072 7.03466 0.67774 7.20336V9.75068C0.678074 9.91885 0.741645 10.08 0.854565 10.1985C0.967486 10.317 1.12039 10.3833 1.27965 10.3826H1.45062L3.71892 18.5462C3.7942 18.8154 4.02824 19 4.2939 19H17.448C17.7137 19 17.9477 18.8154 18.023 18.5462L20.2948 10.3826H20.4658C20.7955 10.3811 21.0623 10.0989 21.063 9.75066V7.20334C21.0643 6.85375 20.7968 6.56918 20.4658 6.56774H18.146L14.73 0.319295C14.6506 0.171439 14.5179 0.0636819 14.3623 0.0200464C14.2098 -0.0214668 14.0478 0.00202794 13.9115 0.0855835C13.7737 0.169318 13.6728 0.307279 13.6313 0.469449C13.5898 0.631437 13.6111 0.804378 13.6902 0.949941L16.763 6.56752H4.98231L8.05158 0.949941C8.21737 0.648043 8.12034 0.261514 7.83494 0.085597H7.83377C7.7426 0.030303 7.63921 0.0013333 7.53399 0.00150967L7.53414 0.0015321ZM1.87678 7.83504H3.92962C3.93815 7.83521 3.94685 7.83521 3.95538 7.83504H17.79C17.7985 7.83521 17.8072 7.83521 17.8158 7.83504H19.8639V9.11489H1.87683L1.87678 7.83504ZM2.70003 10.3823H19.0451L17.0005 17.7338H4.74447L2.70003 10.3823ZM6.79864 11.7191C6.63954 11.7198 6.48731 11.7871 6.37539 11.9063C6.26331 12.0256 6.20074 12.1869 6.20141 12.3547V15.7663C6.20275 16.1142 6.46941 16.3958 6.79862 16.397C6.95772 16.3977 7.11045 16.3316 7.22321 16.2133C7.33613 16.0951 7.39987 15.9343 7.40054 15.7663V12.3547C7.4012 12.186 7.33797 12.024 7.22488 11.9046C7.11196 11.7851 6.95838 11.7185 6.79862 11.7191L6.79864 11.7191ZM10.6139 11.7191C10.4548 11.7198 10.3025 11.7871 10.1906 11.9063C10.0785 12.0256 10.016 12.1869 10.0166 12.3547V15.7663C10.018 16.1142 10.2846 16.3958 10.6138 16.397C10.7729 16.3977 10.9257 16.3316 11.0384 16.2133C11.1514 16.0951 11.2151 15.9343 11.2158 15.7663V12.3547C11.2164 12.186 11.1532 12.024 11.0401 11.9046C10.9272 11.7851 10.7736 11.7185 10.6138 11.7191L10.6139 11.7191ZM14.4291 11.7191C14.27 11.7198 14.1178 11.7871 14.0058 11.9063C13.8938 12.0256 13.8312 12.1869 13.8319 12.3547V15.7663C13.8332 16.1142 14.0999 16.3958 14.4291 16.397C14.5882 16.3977 14.7409 16.3316 14.8537 16.2133C14.9666 16.0951 15.0303 15.9343 15.031 15.7663V12.3547C15.0317 12.186 14.9684 12.024 14.8553 11.9046C14.7424 11.7851 14.5888 11.7185 14.4291 11.7191L14.4291 11.7191Z" fill="#33B5A9"/>
</svg>
