<svg width="14" height="38" viewBox="0 0 14 38" fill="none" xmlns="http://www.w3.org/2000/svg">
  <path d="M6.88652 6.3008C6.85141 5.70243 6.78094 5.28012 6.67536 4.96313C6.85141 4.47035 6.85141 3.94246 6.60489 3.44966C6.4642 3.20314 6.21768 3.09756 6.00652 2.99198C5.72489 2.8864 5.51373 2.78082 5.47862 2.28805V2.18247C5.44351 0.880128 4.88025 0.422465 4.80976 0.387328C4.66907 0.281747 4.49302 0.316859 4.38743 0.422439C4.28185 0.52802 4.24674 0.704071 4.31697 0.844764C4.56349 1.26709 4.70418 1.72476 4.77464 2.18243V2.2529C4.77464 2.7808 4.73953 2.92176 4.70417 2.95683C3.85931 3.06241 3.96485 4.15357 4.0707 4.85751C4.0707 4.92798 4.0707 4.9982 4.10581 5.06867C4.00023 5.31519 3.92976 5.66704 3.96511 6.08934C4.03558 7.11002 4.31722 12.4957 3.61301 16.4733C3.33138 18.1277 2.83861 19.7468 2.41628 21.2957C1.74741 23.5836 1.14908 25.7661 1.0084 28.0541C0.79724 31.7501 1.7828 32.8764 2.6628 33.4397C2.76838 33.5804 2.87396 33.7564 2.97955 33.8974C3.05002 34.0734 3.12024 34.3197 3.26118 34.5662C3.33165 34.7069 3.43723 34.7774 3.57792 34.7774C3.61303 34.7774 3.64839 34.7774 3.6835 34.7423C3.85955 34.6718 3.96513 34.4958 3.89467 34.3199C3.8242 34.0734 3.75397 33.8623 3.61303 33.616C3.54256 33.44 3.50745 33.2993 3.50745 33.1937C3.89466 32.736 3.8242 31.9969 3.75397 31.1169C3.6835 30.2721 3.57792 29.1809 3.82444 27.9491C4.17654 26.1539 4.95097 23.0563 5.61958 20.2755C5.93632 18.9731 6.25305 17.7411 6.49958 16.685C7.41446 13.165 6.95676 7.00501 6.88654 6.30101L6.88652 6.3008ZM4.87999 3.69612C5.09116 3.66101 5.26721 3.55543 5.37278 3.41449C5.51348 3.52007 5.68953 3.59054 5.83046 3.66101C5.90093 3.69612 6.04162 3.73148 6.04162 3.76659C6.11209 3.94264 6.1472 4.11869 6.1472 4.29449C5.90068 4.22402 5.65441 4.25938 5.44326 4.29449C5.2321 4.3296 5.02094 4.36496 4.80979 4.47054C4.73932 3.87217 4.80954 3.73121 4.88001 3.69614L4.87999 3.69612ZM5.8656 16.6497C5.61908 17.6704 5.30234 18.9025 4.9856 20.2049C4.28166 22.9855 3.5072 26.1183 3.15513 27.9137C2.90861 29.2513 2.97908 30.3776 3.08466 31.2576C3.15513 31.9969 3.19024 32.5599 2.97908 32.8415C2.48629 32.5248 1.53582 31.715 1.71188 28.1248C1.81746 25.9425 2.45121 23.7953 3.08468 21.5424C3.54236 19.9585 3.99982 18.3391 4.31681 16.6496C5.02075 12.6719 4.77448 7.568 4.66891 6.0896C4.59844 5.17446 4.95054 5.06892 5.47845 4.96307C5.54891 4.96307 5.68961 4.92796 5.79519 4.92796C5.8303 4.92796 5.90077 4.92796 5.90077 4.96307C6.00635 5.03354 6.11193 5.52633 6.1824 6.33587C6.25287 7.04006 6.71055 13.0943 5.86566 16.6495L5.8656 16.6497Z" fill="#DF2F44"/>
  <path d="M13.7552 10.0144C13.7217 9.44322 13.6544 9.04011 13.5537 8.73753C13.7217 8.26715 13.7217 7.76325 13.4864 7.29285C13.3521 7.05754 13.1168 6.95676 12.9152 6.85598C12.6464 6.7552 12.4448 6.65442 12.4113 6.18404V6.08326C12.3778 4.84012 11.8402 4.40326 11.7729 4.36972C11.6386 4.26894 11.4705 4.30245 11.3697 4.40323C11.269 4.50402 11.2354 4.67206 11.3025 4.80636C11.5378 5.20949 11.6721 5.64636 11.7393 6.08322V6.15049C11.7393 6.65439 11.7058 6.78895 11.6721 6.82243C10.8656 6.92321 10.9664 7.96477 11.0674 8.63671C11.0674 8.70397 11.0674 8.77101 11.1009 8.83827C11.0001 9.07359 10.9329 9.40944 10.9666 9.81255C11.0339 10.7868 11.3027 15.9278 10.6305 19.7246C10.3617 21.3038 9.89132 22.8492 9.48818 24.3277C8.84972 26.5116 8.27858 28.595 8.1443 30.7789C7.94273 34.307 8.8835 35.382 9.7235 35.9197C9.82428 36.054 9.92506 36.222 10.0258 36.3566C10.0931 36.5246 10.1601 36.7597 10.2947 36.995C10.3619 37.1293 10.4627 37.1966 10.597 37.1966C10.6305 37.1966 10.6643 37.1966 10.6978 37.1631C10.8658 37.0958 10.9666 36.9278 10.8994 36.7599C10.8321 36.5246 10.7651 36.3231 10.6305 36.088C10.5633 35.92 10.5298 35.7857 10.5298 35.6849C10.8994 35.248 10.8321 34.5425 10.7651 33.7025C10.6978 32.8961 10.597 31.8545 10.8323 30.6787C11.1684 28.9651 11.9077 26.0083 12.5459 23.3539C12.8482 22.1107 13.1506 20.9347 13.3859 19.9266C14.2592 16.5666 13.8223 10.6866 13.7552 10.0146L13.7552 10.0144ZM11.8399 7.52811C12.0415 7.4946 12.2095 7.39382 12.3103 7.25928C12.4446 7.36007 12.6126 7.42733 12.7472 7.4946C12.8144 7.52811 12.9487 7.56186 12.9487 7.59538C13.016 7.76343 13.0495 7.93148 13.0495 8.09928C12.8142 8.03202 12.5791 8.06577 12.3776 8.09928C12.176 8.1328 11.9744 8.16655 11.7729 8.26733C11.7056 7.69616 11.7727 7.56161 11.8399 7.52813L11.8399 7.52811ZM12.7807 19.8929C12.5454 20.8672 12.2431 22.0433 11.9407 23.2865C11.2688 25.9407 10.5295 28.9311 10.1934 30.6449C9.95813 31.9217 10.0254 32.9968 10.1262 33.8368C10.1934 34.5425 10.227 35.0799 10.0254 35.3487C9.55501 35.0464 8.64774 34.2734 8.8158 30.8464C8.91658 28.7633 9.52152 26.7137 10.1262 24.5632C10.5631 23.0513 10.9997 21.5055 11.3023 19.8928C11.9743 16.0959 11.7392 11.224 11.6384 9.81279C11.5711 8.93925 11.9072 8.83851 12.4112 8.73747C12.4784 8.73747 12.6127 8.70396 12.7135 8.70396C12.747 8.70396 12.8143 8.70396 12.8143 8.73747C12.9151 8.80474 13.0158 9.27513 13.0831 10.0479C13.1504 10.7201 13.5873 16.4991 12.7808 19.8927L12.7807 19.8929Z" fill="#DF2F44"/>
  </svg>
  