<svg width="42" height="42" viewBox="0 0 42 42" fill="none" xmlns="http://www.w3.org/2000/svg">
<path d="M23.7552 6.01439C23.7217 5.44322 23.6544 5.04011 23.5537 4.73753C23.7217 4.26715 23.7217 3.76325 23.4864 3.29285C23.3521 3.05754 23.1168 2.95676 22.9152 2.85598C22.6464 2.7552 22.4448 2.65442 22.4113 2.18404V2.08326C22.3778 0.840119 21.8402 0.403259 21.7729 0.369719C21.6386 0.268937 21.4705 0.302453 21.3697 0.403235C21.269 0.504017 21.2354 0.672065 21.3025 0.806363C21.5378 1.20949 21.6721 1.64636 21.7393 2.08322V2.15049C21.7393 2.65439 21.7058 2.78895 21.6721 2.82243C20.8656 2.92321 20.9664 3.96477 21.0674 4.63671C21.0674 4.70397 21.0674 4.77101 21.1009 4.83827C21.0001 5.07359 20.9329 5.40944 20.9666 5.81255C21.0339 6.78683 21.3027 11.9278 20.6305 15.7246C20.3617 17.3038 19.8913 18.8492 19.4882 20.3277C18.8497 22.5116 18.2786 24.595 18.1443 26.7789C17.9427 30.307 18.8835 31.382 19.7235 31.9197C19.8243 32.054 19.9251 32.222 20.0258 32.3566C20.0931 32.5246 20.1601 32.7597 20.2947 32.995C20.3619 33.1293 20.4627 33.1966 20.597 33.1966C20.6305 33.1966 20.6643 33.1966 20.6978 33.1631C20.8658 33.0958 20.9666 32.9278 20.8994 32.7599C20.8321 32.5246 20.7651 32.3231 20.6305 32.088C20.5633 31.92 20.5298 31.7857 20.5298 31.6849C20.8994 31.248 20.8321 30.5425 20.7651 29.7025C20.6978 28.8961 20.597 27.8545 20.8323 26.6787C21.1684 24.9651 21.9077 22.0083 22.5459 19.3539C22.8482 18.1107 23.1506 16.9347 23.3859 15.9266C24.2592 12.5666 23.8223 6.6866 23.7552 6.0146L23.7552 6.01439ZM21.8399 3.52811C22.0415 3.4946 22.2095 3.39382 22.3103 3.25928C22.4446 3.36007 22.6126 3.42733 22.7472 3.4946C22.8144 3.52811 22.9487 3.56186 22.9487 3.59538C23.016 3.76343 23.0495 3.93148 23.0495 4.09928C22.8142 4.03202 22.5791 4.06577 22.3776 4.09928C22.176 4.1328 21.9744 4.16655 21.7729 4.26733C21.7056 3.69616 21.7727 3.56161 21.8399 3.52813L21.8399 3.52811ZM22.7807 15.8929C22.5454 16.8672 22.2431 18.0433 21.9407 19.2865C21.2688 21.9407 20.5295 24.9311 20.1934 26.6449C19.9581 27.9217 20.0254 28.9968 20.1262 29.8368C20.1934 30.5425 20.227 31.0799 20.0254 31.3487C19.555 31.0464 18.6477 30.2734 18.8158 26.8464C18.9166 24.7633 19.5215 22.7137 20.1262 20.5632C20.5631 19.0513 20.9997 17.5055 21.3023 15.8928C21.9743 12.0959 21.7392 7.22399 21.6384 5.81279C21.5711 4.93925 21.9072 4.83851 22.4112 4.73747C22.4784 4.73747 22.6127 4.70396 22.7135 4.70396C22.747 4.70396 22.8143 4.70396 22.8143 4.73747C22.9151 4.80474 23.0158 5.27513 23.0831 6.04787C23.1504 6.72005 23.5873 12.4991 22.7808 15.8927L22.7807 15.8929Z" fill="#FAD7B1"/>
</svg>
