<svg width="30" height="26" viewBox="0 0 30 26" fill="none" xmlns="http://www.w3.org/2000/svg">
<path d="M12.088 12.7339C12.088 13.1494 11.8376 13.5241 11.4537 13.683C11.0697 13.8421 10.6278 13.7541 10.3339 13.4602C10.0399 13.1665 9.952 12.7246 10.111 12.3407C10.27 11.9565 10.6449 11.7064 11.0605 11.7064C11.6278 11.7064 12.088 12.1663 12.088 12.7339L12.088 12.7339ZM18.9518 11.7105C18.5372 11.7154 18.166 11.9696 18.0111 12.3544C17.8564 12.7391 17.9481 13.1793 18.2438 13.4704C18.5395 13.7611 18.9812 13.8458 19.3633 13.6848C19.7454 13.5237 19.9936 13.1485 19.9918 12.7339C19.9907 12.4596 19.8804 12.1976 19.6851 12.0055C19.4898 11.8134 19.2257 11.7069 18.9518 11.7104L18.9518 11.7105ZM25.6703 16.8272L24.3558 18.3164V18.3167C24.0903 18.5215 23.7633 18.6301 23.4281 18.6243C22.9996 18.6112 22.5855 18.4658 22.2425 18.2084L21.685 21.2411C21.5635 21.9659 21.192 22.6255 20.6352 23.1049C20.078 23.5846 19.3706 23.8539 18.6358 23.866C18.5119 23.8655 18.3883 23.857 18.2656 23.8411C17.4293 24.7523 16.2358 25.2508 14.9999 25.2055C13.7661 25.2516 12.5737 24.7545 11.7386 23.8452C11.6159 23.8614 11.492 23.8695 11.3683 23.8701C10.6327 23.8588 9.92414 23.5901 9.36641 23.1104C8.8084 22.6307 8.43635 21.9709 8.31482 21.2452L7.76145 18.2084C7.41991 18.4652 7.0073 18.6103 6.58016 18.6243C6.245 18.6298 5.91797 18.5213 5.65248 18.3167L5.60663 18.2708L4.3255 16.8147C4.15081 16.6316 -0.25065 11.9974 0.947504 8.19902C1.85869 5.31206 6.98381 3.19892 10.0081 2.18388C10.4875 1.46569 11.2382 0.972953 12.0881 0.819182L14.1681 0.469808C14.7285 0.373467 15.301 0.373467 15.8613 0.469808L17.912 0.823534C18.7619 0.977328 19.5126 1.46976 19.992 2.18794C23.0664 3.23203 28.1456 5.31203 29.0608 8.19089C30.263 11.9931 25.8575 16.6275 25.6703 16.8229L25.6703 16.8272ZM7.59066 17.2848L6.71691 12.5593C6.65017 12.1954 6.6168 11.8266 6.61709 11.4566V10.6246C6.61796 9.72971 6.81702 8.84616 7.19947 8.03711L9.46259 3.27384C7.09562 4.12263 2.48612 6.06943 1.73316 8.44479C0.676591 11.7729 4.8906 16.2032 4.93205 16.2448L6.18012 17.68C6.30519 17.7549 6.81677 18.0169 7.58635 17.2807L7.59066 17.2848ZM17.3585 23.579C16.9868 23.4061 16.6531 23.1615 16.3765 22.8591L15.3075 21.6859V21.6862C15.2285 21.5994 15.1168 21.5498 14.9996 21.5498C14.8824 21.5498 14.7706 21.5994 14.6917 21.6862L13.6227 22.8594V22.8591C13.3461 23.1615 13.0124 23.4061 12.6407 23.579C13.32 24.0924 14.1482 24.3703 14.9995 24.3703C15.8509 24.3703 16.6791 24.0923 17.3584 23.579H17.3585ZM22.4627 12.4094C22.5205 12.0966 22.5495 11.7792 22.5501 11.4611V10.6292C22.5498 9.85816 22.3794 9.09673 22.051 8.39941L19.4884 2.99133C19.1637 2.2891 18.5183 1.78827 17.7578 1.6475L15.7068 1.29378V1.29407C15.2402 1.21369 14.7632 1.21369 14.2966 1.29407L12.2456 1.64779L12.2459 1.6475C11.4851 1.78824 10.84 2.28909 10.5153 2.99133L7.95272 8.39941C7.62395 9.0967 7.45361 9.85816 7.45332 10.6292V11.4611C7.4539 11.7791 7.48321 12.0966 7.54096 12.4094L9.14248 21.0912V21.0915C9.22867 21.6245 9.49911 22.1109 9.90621 22.4658C10.3136 22.8204 10.8322 23.0218 11.3722 23.0342C11.9978 23.0299 12.5927 22.7626 13.0111 22.2978L14.076 21.1205L14.1094 21.0915C13.9109 20.969 13.7417 20.8042 13.6143 20.6089L12.5619 18.9781C12.3587 18.6577 12.2772 18.2753 12.3323 17.8998C12.3872 17.5246 12.5749 17.1813 12.8613 16.9326C13.1477 16.6839 13.5136 16.5463 13.8932 16.5443H16.102C16.4906 16.5452 16.865 16.6885 17.1548 16.9474C17.4444 17.2062 17.629 17.5622 17.6734 17.9479C17.7178 18.3338 17.6191 18.7227 17.396 19.0404L16.2477 20.6669C16.1334 20.8187 15.9924 20.9484 15.8316 21.0497C15.8606 21.0746 15.8899 21.0955 15.9149 21.1245L16.9839 22.2977C17.4027 22.7626 17.9976 23.0298 18.6231 23.0342C19.1634 23.0217 19.6829 22.8209 20.0906 22.466C20.4986 22.1111 20.7699 21.6248 20.8569 21.0914L22.4627 12.4094ZM28.2866 8.44502C27.5335 6.07805 22.9952 4.14373 20.5616 3.26158L22.8247 8.02486C23.2072 8.8339 23.4062 9.71746 23.4071 10.6124V11.4443C23.4074 11.8143 23.374 12.1831 23.3073 12.547L22.413 17.281C23.1866 18.0215 23.7025 17.7511 23.8067 17.6971L25.0548 16.2744C25.1128 16.2036 29.3227 11.7731 28.2662 8.44543L28.2866 8.44502Z" fill="#33B5A9"/>
</svg>
