<svg width="14" height="19" viewBox="0 0 14 19" fill="none" xmlns="http://www.w3.org/2000/svg">
<path d="M11.2778 0H2.72222C1.20556 0 0 1.20556 0 2.72222V15.9444C0 17.4611 1.20556 18.6667 2.72222 18.6667H11.2778C12.7944 18.6667 14 17.4611 14 15.9444V2.72222C14 1.20556 12.7944 0 11.2778 0ZM13.2222 15.9444C13.2222 17.0333 12.3667 17.8889 11.2778 17.8889H2.72222C1.63333 17.8889 0.777778 17.0333 0.777778 15.9444V2.72222C0.777778 1.63333 1.63333 0.777778 2.72222 0.777778H11.2778C12.3667 0.777778 13.2222 1.63333 13.2222 2.72222V15.9444Z" fill="white"/>
<path d="M11.3555 1.55554H2.64443C2.02221 1.55554 1.55554 2.0611 1.55554 2.64443V6.99999C1.55554 7.6611 2.0611 8.16665 2.72221 8.16665H11.2778C11.9389 8.16665 12.4444 7.6611 12.4444 6.99999V2.64443C12.4444 2.0611 11.9389 1.55554 11.3555 1.55554ZM11.6667 6.99999C11.6667 7.23332 11.5111 7.38888 11.2778 7.38888H2.72221C2.48888 7.38888 2.33332 7.23332 2.33332 6.99999V2.64443C2.33332 2.44999 2.48888 2.33332 2.64443 2.33332H11.3555C11.55 2.33332 11.6667 2.48888 11.6667 2.64443V6.99999Z" fill="white"/>
<path d="M3.11112 8.94446H2.72224C2.29446 8.94446 1.94446 9.29446 1.94446 9.72224V10.1111C1.94446 10.5389 2.29446 10.8889 2.72224 10.8889H3.11112C3.5389 10.8889 3.8889 10.5389 3.8889 10.1111V9.72224C3.8889 9.29446 3.5389 8.94446 3.11112 8.94446ZM2.72224 10.1111V9.72224H3.11112V10.1111H2.72224Z" fill="white"/>
<path d="M5.83335 8.94446H5.44446C5.01669 8.94446 4.66669 9.29446 4.66669 9.72224V10.1111C4.66669 10.5389 5.01669 10.8889 5.44446 10.8889H5.83335C6.26113 10.8889 6.61113 10.5389 6.61113 10.1111V9.72224C6.61113 9.29446 6.26113 8.94446 5.83335 8.94446ZM5.44446 10.1111V9.72224H5.83335V10.1111H5.44446Z" fill="white"/>
<path d="M8.55555 10.8889H8.94444C9.37222 10.8889 9.72222 10.5389 9.72222 10.1111V9.72224C9.72222 9.29446 9.37222 8.94446 8.94444 8.94446H8.55555C8.12777 8.94446 7.77777 9.29446 7.77777 9.72224V10.1111C7.77777 10.5389 8.12777 10.8889 8.55555 10.8889ZM8.55555 9.72224H8.94444V10.1111H8.55555V9.72224Z" fill="white"/>
<path d="M11.2778 8.94446H10.8889C10.4611 8.94446 10.1111 9.29446 10.1111 9.72224V10.1111C10.1111 10.5389 10.4611 10.8889 10.8889 10.8889H11.2778C11.7055 10.8889 12.0555 10.5389 12.0555 10.1111V9.72224C12.0555 9.29446 11.7055 8.94446 11.2778 8.94446ZM10.8889 10.1111V9.72224H11.2778V10.1111H10.8889Z" fill="white"/>
<path d="M3.11112 11.6666H2.72224C2.29446 11.6666 1.94446 12.0166 1.94446 12.4444V12.8333C1.94446 13.2611 2.29446 13.6111 2.72224 13.6111H3.11112C3.5389 13.6111 3.8889 13.2611 3.8889 12.8333V12.4444C3.8889 12.0166 3.5389 11.6666 3.11112 11.6666ZM2.72224 12.8333V12.4444H3.11112V12.8333H2.72224Z" fill="white"/>
<path d="M5.83335 11.6666H5.44446C5.01669 11.6666 4.66669 12.0166 4.66669 12.4444V12.8333C4.66669 13.2611 5.01669 13.6111 5.44446 13.6111H5.83335C6.26113 13.6111 6.61113 13.2611 6.61113 12.8333V12.4444C6.61113 12.0166 6.26113 11.6666 5.83335 11.6666ZM5.44446 12.8333V12.4444H5.83335V12.8333H5.44446Z" fill="white"/>
<path d="M11.2778 11.6666H8.55555C8.12777 11.6666 7.77777 12.0166 7.77777 12.4444V15.5555C7.77777 15.9833 8.12777 16.3333 8.55555 16.3333H11.2778C11.7055 16.3333 12.0555 15.9833 12.0555 15.5555V12.4444C12.0555 12.0166 11.7055 11.6666 11.2778 11.6666ZM8.55555 15.5555V12.4444H11.2778V15.5555H8.55555Z" fill="white"/>
<path d="M3.11112 14.3889H2.72224C2.29446 14.3889 1.94446 14.7389 1.94446 15.1667V15.5556C1.94446 15.9834 2.29446 16.3334 2.72224 16.3334H3.11112C3.5389 16.3334 3.8889 15.9834 3.8889 15.5556V15.1667C3.8889 14.7389 3.5389 14.3889 3.11112 14.3889ZM2.72224 15.5556V15.1667H3.11112V15.5556H2.72224Z" fill="white"/>
<path d="M5.83335 14.3889H5.44446C5.01669 14.3889 4.66669 14.7389 4.66669 15.1667V15.5556C4.66669 15.9834 5.01669 16.3334 5.44446 16.3334H5.83335C6.26113 16.3334 6.61113 15.9834 6.61113 15.5556V15.1667C6.61113 14.7389 6.26113 14.3889 5.83335 14.3889ZM5.44446 15.5556V15.1667H5.83335V15.5556H5.44446Z" fill="white"/>
</svg>
