<svg width="30" height="26" viewBox="0 0 30 26" fill="none" xmlns="http://www.w3.org/2000/svg">
<path d="M10.326 0.197711C10.0258 0.198415 9.74876 0.359195 9.59924 0.619349L4.8086 8.90955H1.56344C1.33961 8.90885 1.12446 8.99744 0.966257 9.15565C0.807821 9.31408 0.719225 9.52901 0.720161 9.75283V13.1325C0.72063 13.3556 0.809694 13.5694 0.967896 13.7266C1.1261 13.8839 1.34032 13.9718 1.56344 13.9709H1.80297L4.98088 24.8021C5.08634 25.1593 5.41424 25.4042 5.78644 25.4042H24.2154C24.5876 25.4042 24.9155 25.1592 25.021 24.8021L28.2038 13.9709H28.4433C28.9053 13.969 29.2791 13.5945 29.28 13.1325V9.75281C29.2819 9.28898 28.9072 8.91143 28.4433 8.90951H25.1933L20.4075 0.619308C20.2962 0.423138 20.1104 0.28017 19.8924 0.222276C19.6786 0.167197 19.4518 0.198369 19.2608 0.309228C19.0676 0.420324 18.9263 0.603366 18.8682 0.818525C18.8101 1.03345 18.8398 1.2629 18.9507 1.45603L23.2557 8.90922H6.75089L11.051 1.45603C11.2832 1.05548 11.1473 0.542646 10.7475 0.309246H10.7458C10.6181 0.235884 10.4732 0.197448 10.3258 0.197682L10.326 0.197711ZM2.40002 10.5909H5.27606C5.28802 10.5911 5.3002 10.5911 5.31216 10.5909H24.6946C24.7065 10.5911 24.7187 10.5911 24.7306 10.5909H27.6001V12.289H2.40009L2.40002 10.5909ZM3.5534 13.9706H26.453L23.5885 23.7242H6.41768L3.5534 13.9706ZM9.29558 15.7441C9.0727 15.7451 8.85941 15.8344 8.70262 15.9926C8.54558 16.1508 8.45793 16.3648 8.45887 16.5874V21.1139C8.46074 21.5754 8.83433 21.949 9.29557 21.9506C9.51845 21.9515 9.73244 21.8639 9.89041 21.7068C10.0486 21.55 10.1379 21.3367 10.1388 21.1139V16.5874C10.1398 16.3636 10.0512 16.1486 9.89275 15.9902C9.73455 15.8318 9.51939 15.7434 9.29557 15.7441L9.29558 15.7441ZM14.6407 15.7441C14.4179 15.7451 14.2046 15.8344 14.0478 15.9926C13.8907 16.1508 13.8031 16.3648 13.804 16.5874V21.1139C13.8059 21.5754 14.1795 21.949 14.6407 21.9506C14.8636 21.9515 15.0776 21.8639 15.2356 21.7068C15.3938 21.55 15.4831 21.3367 15.484 21.1139V16.5874C15.4849 16.3636 15.3964 16.1486 15.2379 15.9902C15.0797 15.8318 14.8645 15.7434 14.6407 15.7441L14.6407 15.7441ZM19.9859 15.7441C19.763 15.7451 19.5497 15.8344 19.3929 15.9926C19.2359 16.1508 19.1483 16.3648 19.1492 16.5874V21.1139C19.1511 21.5754 19.5247 21.949 19.9859 21.9506C20.2088 21.9515 20.4228 21.8639 20.5807 21.7068C20.7389 21.55 20.8282 21.3367 20.8292 21.1139V16.5874C20.8301 16.3636 20.7415 16.1486 20.5831 15.9902C20.4249 15.8318 20.2097 15.7434 19.9859 15.7441L19.9859 15.7441Z" fill="white"/>
</svg>
