<svg width="43" height="48" viewBox="0 0 43 48" fill="none" xmlns="http://www.w3.org/2000/svg">
<ellipse cx="21.5" cy="20.8891" rx="21.5" ry="20.8891" fill="#DF2F44"/>
<path d="M17.326 10.13C17.0258 10.1307 16.7487 10.2914 16.5992 10.5516L11.8086 18.8418H8.56341C8.33958 18.8411 8.12443 18.9297 7.96623 19.0879C7.80779 19.2463 7.71919 19.4613 7.72013 19.6851V23.0648C7.7206 23.2879 7.80966 23.5016 7.96787 23.6589C8.12607 23.8162 8.34028 23.9041 8.56341 23.9031H8.80294L11.9808 34.7343C12.0863 35.0915 12.4142 35.3364 12.7864 35.3364H31.2154C31.5876 35.3364 31.9155 35.0915 32.021 34.7343L35.2038 23.9031H35.4433C35.9053 23.9012 36.2791 23.5267 36.28 23.0647V19.6851C36.2819 19.2212 35.9071 18.8437 35.4433 18.8418H32.1932L27.4075 10.5516C27.2962 10.3554 27.1103 10.2124 26.8924 10.1545C26.6786 10.0994 26.4517 10.1306 26.2607 10.2415C26.0676 10.3526 25.9263 10.5356 25.8682 10.7508C25.81 10.9657 25.8398 11.1951 25.9507 11.3883L30.2557 18.8415H13.7509L18.0509 11.3883C18.2832 10.9877 18.1473 10.4749 17.7474 10.2415H17.7458C17.6181 10.1681 17.4732 10.1297 17.3258 10.1299L17.326 10.13ZM9.39999 20.5232H12.276C12.288 20.5234 12.3002 20.5234 12.3121 20.5232H31.6945C31.7065 20.5234 31.7187 20.5234 31.7306 20.5232H34.6001V22.2212H9.40006L9.39999 20.5232ZM10.5534 23.9028H33.453L30.5885 33.6564H13.4177L10.5534 23.9028ZM16.2956 25.6764C16.0727 25.6773 15.8594 25.7666 15.7026 25.9248C15.5456 26.083 15.4579 26.297 15.4588 26.5197V31.0461C15.4607 31.5076 15.8343 31.8812 16.2955 31.8828C16.5184 31.8838 16.7324 31.7961 16.8904 31.6391C17.0486 31.4823 17.1379 31.269 17.1388 31.0461V26.5196C17.1398 26.2958 17.0512 26.0809 16.8927 25.9225C16.7345 25.764 16.5194 25.6757 16.2955 25.6764L16.2956 25.6764ZM21.6407 25.6764C21.4178 25.6773 21.2045 25.7666 21.0477 25.9248C20.8907 26.083 20.8031 26.297 20.804 26.5197V31.0461C20.8059 31.5076 21.1795 31.8812 21.6407 31.8828C21.8636 31.8838 22.0776 31.7961 22.2355 31.6391C22.3937 31.4823 22.483 31.269 22.484 31.0461V26.5196C22.4849 26.2958 22.3963 26.0809 22.2379 25.9225C22.0797 25.764 21.8645 25.6757 21.6407 25.6764L21.6407 25.6764ZM26.9859 25.6764C26.763 25.6773 26.5497 25.7666 26.3929 25.9248C26.2359 26.083 26.1482 26.297 26.1492 26.5197V31.0461C26.151 31.5076 26.5246 31.8812 26.9859 31.8828C27.2087 31.8838 27.4227 31.7961 27.5807 31.6391C27.7389 31.4823 27.8282 31.269 27.8291 31.0461V26.5196C27.8301 26.2958 27.7415 26.0809 27.583 25.9225C27.4248 25.764 27.2097 25.6757 26.9859 25.6764L26.9859 25.6764Z" fill="#FAD7B1"/>
</svg>
