<svg width="98" height="103" viewBox="0 0 98 103" fill="none" xmlns="http://www.w3.org/2000/svg">
<circle opacity="0.4" cx="48" cy="43" r="43" fill="white"/>
<path d="M85.75 28.275V19.7L49 6.22498L12.25 19.7V28.275L49 14.8L85.75 28.275Z" fill="#DF2F44"/>
<path d="M44.331 44.2308L41.4971 46.1389H33.9939L31.1601 44.2308C31.0851 44.1805 30.9883 44.1756 30.9085 44.2182C30.8281 44.2603 30.7783 44.3434 30.7783 44.4342V53.7158L29.8284 57.6637L29.3045 59.0598C33.4219 64.9551 38.6572 69.9842 44.7129 73.862V62.376L42.5692 58.0458L43.7521 55.656V55.6566C44.334 54.3627 44.6599 52.9687 44.713 51.5512V44.4347C44.713 44.344 44.6632 44.2608 44.5828 44.2187C44.503 44.1761 44.4062 44.181 44.3313 44.2313L44.331 44.2308ZM36.3674 50.2207C36.3674 50.8124 35.8872 51.2926 35.2955 51.2926C34.7038 51.2926 34.2236 50.8124 34.2236 50.2207V49.9144C34.2236 49.3222 34.7038 48.8426 35.2955 48.8426C35.8872 48.8426 36.3674 49.3222 36.3674 49.9144V50.2207ZM41.7267 50.2207C41.7267 50.8124 41.2465 51.2926 40.6548 51.2926C40.0631 51.2926 39.583 50.8124 39.583 50.2207V49.9144C39.583 49.3222 40.0631 48.8426 40.6548 48.8426C41.2465 48.8426 41.7267 49.3222 41.7267 49.9144V50.2207Z" fill="#DF2F44"/>
<path d="M80.85 29.0884L49 17.4099L17.15 29.0884V82.1638H80.85V29.0884ZM49.2996 78.4524C49.0891 78.5049 48.8687 78.501 48.6603 78.4414C44.3805 77.206 37.7081 72.4499 32.4343 66.8734C28.5565 62.7735 22.0502 54.6102 22.0502 46.005C21.9627 42.8151 23.0056 39.6973 24.9951 37.2025C26.9847 34.7077 29.7918 32.997 32.921 32.3719C38.1704 31.1365 45.1092 32.4879 49 38.0632C52.8921 32.4873 59.8308 31.137 65.0804 32.3719C68.2096 32.997 71.0167 34.7082 73.0056 37.203C74.9952 39.6978 76.038 42.8156 75.9505 46.005C75.9505 60.6056 58.1887 76.2072 49.3001 78.4528L49.2996 78.4524Z" fill="#DF2F44"/>
<path d="M69.902 51.2854L68.9586 45.3956C68.8799 45.0221 68.6103 44.718 68.2493 44.5955L64.0066 43.1671H54.3598L50.1171 44.5949V44.5955C49.7561 44.718 49.4865 45.0221 49.4078 45.3956L48.4644 51.2854L52.216 53.4505V57.7801L50.0723 63.1925V75.6378C55.3283 73.6806 62.8112 67.7551 67.8971 60.6368L66.1503 57.7805V53.4509L69.902 51.2854ZM57.2692 49.9548C57.2692 50.5471 56.7891 51.0267 56.1973 51.0267C55.6056 51.0267 55.1255 50.5471 55.1255 49.9548V49.6486C55.1255 49.0569 55.6056 48.5767 56.1973 48.5767C56.7891 48.5767 57.2692 49.0569 57.2692 49.6486V49.9548ZM60.6379 54.1313C60.6379 54.729 60.1534 55.2136 59.5556 55.2136H59.2702C58.983 55.2136 58.708 55.0998 58.5051 54.8969C58.3016 54.6935 58.1879 54.4184 58.1879 54.1313C58.1879 53.5336 58.6724 53.049 59.2702 53.049H59.5556C60.1534 53.049 60.6379 53.5336 60.6379 54.1313H60.6379ZM63.7004 49.9548C63.7004 50.5471 63.2202 51.0267 62.6285 51.0267C62.0368 51.0267 61.5567 50.5471 61.5567 49.9548V49.6486C61.5567 49.0569 62.0368 48.5767 62.6285 48.5767C63.2202 48.5767 63.7004 49.0569 63.7004 49.6486V49.9548Z" fill="#DF2F44"/>
</svg>
