<svg width="105" height="97" viewBox="0 0 105 97" fill="none" xmlns="http://www.w3.org/2000/svg">
<circle opacity="0.4" cx="58" cy="50" r="43" fill="white"/>
<path d="M89.2623 87.0505C88.831 84.6675 89.5499 83.2894 91.7642 82.342C92.742 81.9687 93.7772 81.6529 94.8125 81.4232C95.1576 81.3945 95.5027 81.4232 95.8477 81.5094C97.4006 81.7965 98.1196 81.3371 98.5222 79.8154C98.5509 79.6145 98.6372 79.4422 98.781 79.2986C99.9025 78.3799 99.845 76.9157 100.363 75.7385C100.449 75.5088 100.219 75.0495 100.018 74.8198C99.73 74.5327 99.3561 74.2743 98.9823 74.102C97.947 73.5852 97.1418 72.6665 96.7392 71.5755C96.3079 70.4845 95.8477 69.4222 95.4451 68.3025C95.3014 67.8718 95.0425 67.4699 94.6687 67.1541C94.3236 66.8382 93.8922 66.6373 93.4034 66.5799C91.9943 66.3215 90.5852 66.0918 89.1473 65.9195C88.3421 65.8908 87.6232 65.4314 87.2206 64.7424C86.3579 63.3068 85.4376 61.9 84.5462 60.4645C84.4599 60.3209 84.3449 60.1774 84.2298 60.0051C83.022 60.4645 82.1018 61.4694 81.7855 62.7326C81.3829 64.1969 81.1816 65.7185 81.1241 67.2402C81.1816 68.4173 80.6639 69.537 79.715 70.2548C77.0693 72.4655 75.3726 75.4227 73.9923 78.5235C72.4681 82.0549 69.5349 91.2422 69.5349 95.434C77.0981 97.9892 84.5462 94.9746 92.023 95.434C91.9368 95.2043 91.8505 94.9746 91.7642 94.7737C90.6714 92.2758 89.8087 89.6919 89.2623 87.0505Z" fill="#DF2F44"/>
<path d="M104.446 43.9272C104.302 42.6065 103.727 42.2046 102.376 42.2333C101.139 42.3481 99.9025 42.3481 98.6947 42.262C97.4006 41.9462 96.164 41.5442 94.9275 41.0274C94.7837 40.97 94.6974 40.8552 94.6399 40.7116C94.2661 39.3622 93.2308 38.8741 92.023 38.7593C91.2466 38.7306 90.4989 38.4148 89.9237 37.8693C88.5721 36.6347 86.8179 36.3189 85.0638 36.2615C82.9357 36.2041 80.8077 36.4625 78.7659 37.0941C74.5674 38.3861 72.3243 41.4007 71.5191 45.5924C71.4041 46.1666 71.3753 46.7696 71.2603 47.3725C71.1453 47.7744 71.3466 48.2051 71.7204 48.4061C73.5034 49.4971 74.8837 51.1623 75.6314 53.1146C75.7752 53.6027 76.0628 54.0046 76.4366 54.3492C76.8104 54.665 77.2706 54.8947 77.7594 54.9808C79.4849 55.4976 81.2966 55.6124 83.0795 55.354C83.3958 55.2966 83.7409 55.2105 84.0285 55.0956C85.9552 54.464 86.4441 53.8324 86.3291 51.7939C86.0415 47.8031 84.4886 43.9846 81.9292 40.9126C81.7854 40.7403 81.6992 40.5681 81.5554 40.3958C81.6129 40.3671 81.6417 40.3097 81.6992 40.281C81.7854 40.3384 81.9005 40.3958 81.9867 40.4532C84.8912 43.4678 86.7317 47.3438 87.2493 51.5068C87.3068 52.0523 87.3068 52.5978 87.2781 53.172C87.2493 53.9185 86.9042 54.6075 86.3003 55.0382C85.1213 55.9569 83.6834 56.5024 82.2168 56.5886C80.2326 56.7608 78.2196 56.4737 76.3503 55.7847C75.5164 55.5263 74.8837 54.8372 74.6537 54.0046C74.0785 52.1959 72.8132 50.9039 71.2316 49.6693C71.2028 50.0713 71.2028 50.4445 71.2316 50.8465C71.7492 55.3253 70.2538 59.0864 67.6082 62.4743C65.5089 59.8329 63.6109 57.6222 63.4959 57.5073C63.1795 57.1915 62.6332 55.7847 62.6332 55.7847C62.4319 54.4066 62.2306 53.1433 62.058 51.9375C59.8437 54.1769 55.07 58.1389 49.146 57.536C43.1358 56.9331 50.929 45.535 49.031 36.606C49.031 36.606 51.5041 40.4532 49.8362 47.4873C48.1683 54.5214 49.3761 55.3253 51.8492 54.9234C58.0032 53.9759 61.4254 50.5881 60.6777 44.0995C59.7574 39.2187 59.096 37.0367 58.6359 35.6586C57.8882 33.5053 54.7537 30.2897 54.7537 30.2897C54.5236 28.0215 53.5746 23.8298 51.6192 21.2458C49.6924 18.6619 39.7712 17.5996 34.4799 17.6857C29.1885 17.8006 26.5141 21.6765 25.4213 22.1072C24.3286 22.5378 15.7302 22.423 12.3943 22.8536C9.05851 23.1982 11.2153 27.8206 11.2153 27.8206C11.848 41.2571 18.3183 40.3958 18.3183 40.3958H30.914C35.2276 40.3958 36.953 53.3156 36.953 57.5073C36.953 61.6991 34.1635 61.6991 31.4604 66.0056C28.7572 70.3122 31.8342 90.1225 32.2656 91.2135C32.4381 91.6729 33.0132 93.5965 34.1348 94.7449C34.7387 95.6063 36.0615 96.1231 36.953 96.2953C38.6784 96.6111 40.4326 96.525 42.158 96.2666C44.1998 95.9508 46.2128 95.3479 48.2546 94.8885C53.4021 93.7114 59.4411 92.8788 64.6462 94.1994C64.9912 94.2856 68.4709 95.1756 68.4133 95.4053C68.5571 94.5153 68.8447 90.5819 69.1323 88.6583C69.2186 88.2563 69.2761 87.8831 69.3623 87.4812C70.3401 82.543 72.2093 77.8057 74.8262 73.4704C75.9765 71.6329 77.3856 69.9677 79.0535 68.5609C79.2836 68.3312 79.3986 68.0441 79.4274 67.7283C79.5711 66.4363 79.5424 65.1156 79.7437 63.8524C80.2326 60.8665 81.8142 58.7706 84.9487 57.9667C85.1213 58.2538 85.3513 58.627 85.5526 58.9716C86.4729 60.4645 87.4506 61.9575 88.3421 63.4791C88.6584 64.1395 89.4061 64.4553 90.0963 64.2543C89.9812 63.5078 89.9237 62.7614 89.895 62.0149C89.895 60.6942 89.9525 59.3735 90.0963 58.0528C90.1538 57.5647 90.3551 57.1054 90.7002 56.7608C91.0452 56.4163 91.5054 56.1866 91.9942 56.1579C95.0137 55.6124 97.8895 54.5214 100.478 52.9136C102.261 51.7365 103.727 50.2722 104.159 48.0902C104.245 47.3725 104.245 46.6547 104.216 45.9082C104.389 45.3053 104.446 44.6163 104.446 43.9272Z" fill="#DF2F44"/>
</svg>
