<svg width="124" height="124" viewBox="0 0 124 124" fill="none" xmlns="http://www.w3.org/2000/svg">
<circle opacity="0.4" cx="62" cy="62" r="62" fill="white"/>
<path d="M89.2175 68.9746C91.135 66.6045 92.3068 63.5622 92.3068 60.2723C92.3068 52.5604 86.0573 46.3343 78.3163 46.3343C77.4286 46.3343 76.5409 46.4404 75.6887 46.5819C76.5409 44.8132 77.0025 42.8675 77.0025 40.7803C77.0025 33.2807 70.895 27.2315 63.4026 27.2315C63.4026 27.2315 63.5446 38.9054 48.2403 41.7355C39.8247 43.292 33.9657 51.3576 35.4571 59.777C36.2383 64.1282 38.6174 66.746 41.4581 68.3025C33.7527 69.1515 27.7517 75.6606 27.7517 83.5848C27.7517 92.0749 34.6759 98.9731 43.198 98.9731H84.3173C92.8394 98.9731 99.7637 92.0749 99.7637 83.5848C99.7637 76.7573 95.3251 70.9911 89.2175 68.9746ZM76.0438 56.3102V53.6217C80.4469 53.6217 84.2818 57.4422 84.2818 61.8288H81.5831C81.5831 58.6804 78.6359 56.3102 76.0438 56.3102ZM89.3596 85.6719C89.3596 81.1085 85.134 77.677 81.3346 77.677V74.9885C87.0515 74.9885 92.0583 79.9764 92.0583 85.6719H89.3596Z" fill="#DF2F44"/>
<path d="M52.5369 16.1589L57.153 18.4229L52.7499 21.1115L50.4774 25.7103L47.7787 21.3237L43.1625 19.0597L47.5656 16.3712L49.8382 11.7723L52.5369 16.1589Z" fill="#DF2F44"/>
<path d="M53.2826 15.8052L54.4189 16.3712L53.3181 17.0079L52.7854 18.1399L52.1108 17.0787L50.9745 16.5127L52.0753 15.8759L52.6079 14.7439L53.2826 15.8052Z" fill="white"/>
<path d="M90.7089 31.6181L95.3251 33.8821L90.922 36.5707L88.6494 41.1695L85.9507 36.7829L81.3346 34.5189L85.7377 31.8303L88.0103 27.2315L90.7089 31.6181Z" fill="#DF2F44"/>
<path d="M91.4546 31.2643L92.5909 31.8303L91.4901 32.4671L90.9575 33.5991L90.2828 32.5378L89.1465 31.9718L90.2473 31.3351L90.78 30.2031L91.4546 31.2643Z" fill="white"/>
<path d="M30.1663 43.6811L34.7825 45.9451L30.3794 48.5983L28.1068 53.2325L25.4081 48.8106L20.792 46.5465L25.1951 43.8934L27.4676 39.2592L30.1663 43.6811Z" fill="#DF2F44"/>
<path d="M30.912 43.3274L32.0128 43.858L30.9475 44.5301L30.4149 45.6621L29.7402 44.5655L28.6039 44.0349L29.7047 43.3627L30.2373 42.2307L30.912 43.3274Z" fill="white"/>
</svg>
