<svg width="198" height="170" viewBox="0 0 198 170" fill="none" xmlns="http://www.w3.org/2000/svg">
<circle opacity="0.4" cx="94" cy="85" r="85" fill="white"/>
<path d="M28.2291 86.7256C35.0177 90.1382 43.4469 91.2099 49.7829 92.0842C62.3417 93.8892 77.8423 95.0455 89.8637 95.0455C102.649 95.0455 118.149 93.861 130.567 92.0842C137.751 90.6741 145.502 90.251 151.555 86.7256C158.174 99.7554 160.974 114.421 161.144 128.748C120.667 139.324 59.0606 139.324 18.5837 128.748C18.7534 114.308 21.6669 98.5427 28.2291 86.7256Z" fill="#DF2F44"/>
<path fill-rule="evenodd" clip-rule="evenodd" d="M86.7806 79.9005C79.2283 83.8771 81.0951 91.5765 90.5143 90.9843C104.035 90.251 118.234 89.5459 131.811 86.8102C130.086 70.791 131.953 70.4526 137.553 85.5411C139.024 85.3155 140.608 84.8642 141.825 84.4976C138.289 63.7967 142.277 71.3268 147.595 82.5798C149.999 81.8747 152.149 81.0286 154.44 79.9005C158.739 78.2084 159.956 73.4985 159.333 68.4501L166.15 66.4195C168.159 65.8273 170.28 65.6299 171.1 68.4219L174.325 79.2237C174.325 79.2237 178.851 82.6644 181.113 78.5186C182.811 75.4163 179.36 75.5573 182.103 72.3421C184.423 69.9167 188.072 75.5855 190.476 71.1576C194.012 64.671 185.328 66.3631 186.912 62.866C188.072 60.1303 190.137 61.2584 191.834 58.1561C192.824 56.3511 192.371 54.0949 190.561 53.1078C186.148 50.7105 185.413 57.028 182.499 53.1078C180.972 50.9362 186.431 46.5083 182.273 44.2521C177.069 41.4318 177.238 47.9184 174.749 47.5518C171.977 47.0724 174.325 44.6469 169.629 42.1087C167.282 40.8395 163.605 43.8854 164.34 46.2827L167.961 56.9716C168.441 58.5791 167.565 60.779 165.019 61.7661L158.061 64.0505C155.883 58.1843 151.131 53.2488 145.671 54.6589C133.537 57.169 121.855 61.9071 110.427 67.463C112.294 83.2285 110.795 84.1027 104.629 70.7064C98.6323 73.5549 92.4377 76.911 86.7806 79.9005Z" fill="#DF2F44"/>
<path d="M50.8577 43.6034C43.8429 42.1933 35.7249 45.5776 30.8031 52.7129C26.5037 58.9458 25.5703 66.1375 28.0594 71.9473C29.9263 76.7982 33.5186 81.5645 38.5817 84.1591C53.46 92.3944 68.6211 89.5459 82.1134 89.7151C85.7906 89.7715 85.7906 89.7715 86.5543 88.6434L88.3646 83.7361C89.1849 82.467 89.1849 80.8312 88.308 79.5621C81.6609 69.9167 76.1451 57.4228 62.7377 48.4543C58.8909 45.775 54.6197 44.1675 50.8577 43.6034ZM52.7811 50.9362C58.1837 54.6307 59.004 62.6968 54.648 69.0424C50.292 75.3599 42.4851 77.4469 37.0826 73.7523C31.68 70.0577 30.8314 62.0199 35.1874 55.7024C39.5434 49.385 47.3786 47.2416 52.7811 50.9362ZM47.0674 59.256C45.54 58.2125 43.3337 58.7484 42.1457 60.4405C40.9577 62.1609 41.2689 64.3889 42.7963 65.4324C44.3237 66.4759 46.53 65.9401 47.718 64.2479C48.8777 62.5557 48.5949 60.2995 47.0674 59.256Z" fill="#DF2F44"/>
<path d="M94.7006 43.2932C97.2157 43.2932 99.2546 41.2603 99.2546 38.7525C99.2546 36.2448 97.2157 34.2119 94.7006 34.2119C92.1855 34.2119 90.1466 36.2448 90.1466 38.7525C90.1466 41.2603 92.1855 43.2932 94.7006 43.2932Z" fill="#DF2F44"/>
<path d="M95.8603 37.5962C96.5008 37.5962 97.02 37.0785 97.02 36.4399C97.02 35.8013 96.5008 35.2836 95.8603 35.2836C95.2198 35.2836 94.7006 35.8013 94.7006 36.4399C94.7006 37.0785 95.2198 37.5962 95.8603 37.5962Z" fill="white"/>
<path d="M89.1849 55.6178C91.7 55.6178 93.7389 53.5849 93.7389 51.0772C93.7389 48.5694 91.7 46.5365 89.1849 46.5365C86.6697 46.5365 84.6309 48.5694 84.6309 51.0772C84.6309 53.5849 86.6697 55.6178 89.1849 55.6178Z" fill="#DF2F44"/>
<path d="M90.1466 49.949C90.7871 49.949 91.3063 49.4313 91.3063 48.7927C91.3063 48.1541 90.7871 47.6364 90.1466 47.6364C89.5061 47.6364 88.9869 48.1541 88.9869 48.7927C88.9869 49.4313 89.5061 49.949 90.1466 49.949Z" fill="white"/>
<path d="M99.2263 60.1303C101.741 60.1303 103.78 58.0974 103.78 55.5896C103.78 53.0819 101.741 51.049 99.2263 51.049C96.7112 51.049 94.6723 53.0819 94.6723 55.5896C94.6723 58.0974 96.7112 60.1303 99.2263 60.1303Z" fill="#DF2F44"/>
<path d="M100.669 54.6589C101.309 54.6589 101.829 54.1412 101.829 53.5026C101.829 52.864 101.309 52.3463 100.669 52.3463C100.028 52.3463 99.5091 52.864 99.5091 53.5026C99.5091 54.1412 100.028 54.6589 100.669 54.6589Z" fill="white"/>
<path d="M93.7389 69.2116C96.254 69.2116 98.2929 67.1787 98.2929 64.671C98.2929 62.1632 96.254 60.1303 93.7389 60.1303C91.2237 60.1303 89.1849 62.1632 89.1849 64.671C89.1849 67.1787 91.2237 69.2116 93.7389 69.2116Z" fill="#DF2F44"/>
<path d="M94.8986 63.5711C95.5391 63.5711 96.0583 63.0534 96.0583 62.4147C96.0583 61.7761 95.5391 61.2584 94.8986 61.2584C94.2581 61.2584 93.7389 61.7761 93.7389 62.4147C93.7389 63.0534 94.2581 63.5711 94.8986 63.5711Z" fill="white"/>
<path d="M29.8697 89.0382C29.4171 89.0382 28.9363 88.8408 28.6251 88.446C28.0877 87.7691 28.2291 86.782 28.908 86.2744C29.502 85.8231 34.7631 81.8183 38.214 80.8594C39.0343 80.6338 39.9111 81.1132 40.1374 81.9311C40.3637 82.749 39.8829 83.6233 39.0626 83.8489C36.6583 84.5258 32.3023 87.5999 30.8314 88.728C30.5486 88.9254 30.2091 89.0382 29.8697 89.0382Z" fill="#DF2F44"/>
<path d="M150.141 89.1511C149.688 89.1511 149.235 88.9536 148.924 88.587C148.896 88.5306 146.35 85.9923 143.493 84.0463C145.021 83.6515 145.983 83.3131 147.227 82.8054C150.565 85.2309 151.385 86.5 151.47 86.5846C152.007 87.2615 151.781 88.2768 151.102 88.8126C150.848 89.0383 150.48 89.1511 150.141 89.1511Z" fill="#DF2F44"/>
</svg>
