<svg width="133" height="124" viewBox="0 0 133 124" fill="none" xmlns="http://www.w3.org/2000/svg">
<circle opacity="0.4" cx="62" cy="62" r="62" fill="white"/>
<path d="M132.236 52.9287C131.908 48.171 129.243 44.8898 124.813 43.2902C120.63 41.7726 116.447 41.6085 112.797 44.8487C112.879 45.0128 112.879 45.0128 112.961 45.1358C117.514 44.5616 120.999 46.1202 122.312 49.4014C123.583 52.5186 121.943 56.7431 118.498 59.245C117.637 59.8603 116.734 60.3935 115.75 60.8446C114.315 61.4599 112.838 62.0341 111.321 62.5263C100.248 65.9305 88.7654 67.325 77.3236 69.0066C75.068 69.3348 72.8125 69.5809 70.5979 69.827C70.0238 69.909 69.2856 69.991 69.2035 69.1297C69.1625 68.5965 69.5316 68.3914 69.9417 68.3094C70.7619 68.1043 72.1153 67.8172 72.9765 67.7352C73.7967 67.6531 74.4118 67.366 74.4529 66.2586C72.0333 66.2586 69.6136 66.2586 67.2351 66.2586C66.6199 66.2586 65.8407 66.2996 65.7587 65.5614C65.6357 64.618 66.4969 64.618 67.194 64.536C68.9985 64.3719 70.8029 64.2489 72.6074 64.0848C73.1405 64.0438 73.8377 64.0848 73.7557 63.3466C73.7147 62.8544 73.0995 62.7723 72.6484 62.7723C70.5979 62.6083 68.5884 62.5673 66.5379 62.3212C65.5536 62.1981 63.7492 62.8954 63.8722 61.2138C63.9952 59.7782 65.7177 60.4755 66.7429 60.4345C69.1215 60.3114 71.5411 60.9677 74.1658 60.1474C73.5096 59.3271 72.7714 59.245 72.0743 59.081C70.2288 58.6298 68.4244 58.1786 66.5789 57.7275C65.8407 57.5634 64.8154 57.3994 64.9795 56.497C65.1845 55.3076 66.3328 55.7998 67.071 55.9228C69.2856 56.333 71.5001 56.9482 73.7147 57.3584C74.7809 57.5634 76.2573 58.7529 76.9545 57.3584C77.5286 56.2099 75.7652 55.7177 75.027 54.9385C74.945 54.8154 74.822 54.7334 74.6989 54.6103C74.2888 54.1592 73.7967 53.667 74.2478 53.0518C74.7809 52.2725 75.4371 52.6826 76.0523 53.0518C77.4466 53.9541 78.7999 54.8974 80.2353 55.7588C85.8537 59.122 91.7182 58.2197 97.9927 56.7841C93.2766 51.2061 87.4121 48.9502 80.7684 48.6221C73.5096 48.253 66.2918 47.5967 59.115 46.7354C49.1905 45.546 44.5974 41.6906 42.0548 32.011C39.6762 23.0287 36.9285 14.1694 32.5814 5.92539C32.1303 5.06407 31.6792 4.12072 30.4489 4.20275C29.1775 4.28478 28.9725 5.31016 28.6854 6.25351C27.9882 8.63238 27.2501 11.0113 26.5529 13.3901C26.0197 10.6011 25.3636 7.97614 24.0102 5.55625C23.6412 4.90001 23.149 4.48986 22.3698 4.57189C21.5496 4.65392 21.2216 5.22813 21.0575 5.92539C20.9755 6.37655 20.8525 6.7867 20.7704 7.23787C19.9092 12.2827 18.966 17.3276 14.7829 20.9369C14.2908 21.3471 13.9217 22.0033 13.6347 22.5775C13.1015 23.6439 12.3223 24.0541 11.174 24.3002C8.46736 24.9154 5.71968 25.5716 3.30007 27.0482C1.65966 28.0325 1.4136 29.0989 2.64391 30.7395C5.63766 34.595 9.61565 36.2766 14.4138 36.5227C18.5559 36.7688 20.6064 38.9015 20.6884 43.1261C20.8114 50.0166 24.7074 54.0771 30.5719 56.7431C34.0168 58.3017 37.2976 58.1787 40.1683 55.3076C40.9065 54.5693 41.7267 53.8311 42.6289 53.3389C43.6952 52.7236 44.6384 50.6729 45.9507 52.0264C47.181 53.3389 45.1305 54.0771 44.4744 55.0205C44.1463 55.5127 43.4901 55.8818 43.8592 56.5791C44.2693 57.2763 44.9255 56.9482 45.4996 56.7841C48.1653 55.9638 50.831 55.1435 53.4966 54.2822C54.1938 54.0771 55.055 53.585 55.3831 54.6514C55.6292 55.5127 54.7679 55.6767 54.1118 55.9228C51.9792 56.6611 49.8467 57.3583 47.7142 58.1376C47.3041 58.2607 46.7299 58.4247 46.7709 58.9579C46.853 59.7372 47.5911 59.4091 48.0423 59.5322C50.5029 58.9169 53.0455 58.7118 55.5881 58.4658C56.1623 58.4247 56.9005 58.3837 56.9825 59.204C57.0645 59.9423 56.4494 60.1884 55.7932 60.3114C53.3326 60.6396 50.913 60.9677 48.4524 61.2958C48.0833 61.5419 47.4681 61.5419 47.4681 62.0751C47.4681 62.8544 48.1653 62.6903 48.6574 62.6903C50.4619 62.6903 52.2253 62.6903 54.0298 62.6903C54.5629 62.6903 55.2191 62.6903 55.3011 63.3466C55.3831 64.1669 54.6859 64.2899 54.0708 64.3309C53.0865 64.413 52.1433 64.454 51.159 64.495C50.0928 64.618 49.0265 64.7001 47.9602 64.8231C47.5501 65.0692 46.7299 64.7411 46.6479 65.4383C46.5659 66.1766 47.3041 66.0946 47.7962 66.1766C48.6164 66.2996 49.4776 66.2586 50.2978 66.3817C51.077 66.5047 52.2663 66.3407 52.2253 67.4481C52.1433 68.4324 51.036 68.0633 50.3388 68.1043C46.5659 68.1863 42.7929 68.1043 39.02 67.6531C31.2691 66.7098 23.9692 64.9461 19.8272 56.415C19.8272 57.9326 19.8272 58.7529 19.8272 59.5322C19.5811 70.2371 20.8114 80.942 19.9502 91.647C19.5811 96.3227 18.5559 100.26 13.7987 102.27C13.0195 102.598 12.8144 103.377 12.9375 104.198C13.0605 104.813 13.3066 105.387 14.0858 105.387C18.966 105.387 23.8872 105.756 28.3573 103.213C28.6854 102.885 28.9725 102.598 29.2596 102.27C30.6129 99.686 31.023 96.8969 31.2281 94.0669C31.5971 88.7349 32.1713 83.403 32.1303 78.03C32.1303 77.8659 32.1303 77.7019 32.1303 77.5378C32.1303 76.9636 32.1713 76.3484 32.4584 75.8562C32.9095 74.9538 33.8117 74.8308 34.7549 75.0769C35.8212 75.323 36.8054 75.6921 37.9537 75.8152C38.6099 75.8972 39.3891 76.0202 39.8812 76.4304C40.4143 76.8816 40.4964 77.7019 40.5374 78.3581C40.6604 84.1002 40.9065 89.8423 41.1525 95.5434C41.2756 98.4965 40.4554 100.711 37.5846 101.942C36.5594 102.393 36.0673 103.172 36.3953 104.28C36.6824 105.346 37.4206 105.92 38.6099 105.797C40.4144 105.633 42.2188 105.551 44.0233 105.346C47.7142 104.895 50.5439 102.065 50.872 98.2915C51.2821 93.2466 52.0613 82.4596 52.0613 82.0905C52.3073 77.9069 52.3073 77.9069 56.1623 77.7019C57.0235 77.7429 57.8847 77.7429 58.7459 77.7839C61.6987 78.153 64.6514 78.112 67.5631 77.7839C68.6294 77.7839 69.6957 77.7429 70.7619 77.7429C71.2131 77.7429 71.6232 78.03 71.7052 78.4811C71.9102 79.3014 72.1563 80.1217 72.3613 80.901C73.2225 85.7408 74.0428 90.5396 74.945 95.3794C75.7242 99.5629 75.4781 100.301 71.9102 102.639C71.2131 103.09 70.844 103.664 70.967 104.526C71.172 105.715 72.1153 106.289 74.2888 105.961C79.5791 105.182 83.3521 100.465 83.229 95.1333C83.106 90.5806 82.901 86.0689 82.7369 81.5163C82.5319 77.1276 82.5319 77.2507 86.961 76.6355C88.4784 76.4304 88.8885 76.8815 89.2576 78.235C90.5289 83.2799 91.9232 88.2838 93.2355 93.3286C94.5479 98.2504 93.9737 99.6039 89.5446 102.106C88.7244 102.557 88.2733 103.172 88.4374 104.116C88.6424 105.018 89.2576 105.551 90.2418 105.51C91.3081 105.469 92.3333 105.387 93.3996 105.305C99.059 104.936 101.971 101.696 101.848 96.0356C101.725 91.0728 101.602 86.0689 101.479 81.1061C101.356 75.9382 101.397 75.9792 106.441 74.9949C113.126 73.6414 119.646 71.7547 125.265 67.6942C130.309 63.9618 132.687 59.04 132.236 52.9287Z" fill="#DF2F44"/>
<path d="M113.044 45.1359C112.715 45.382 112.387 45.505 112.059 45.1769C112.305 45.0949 112.551 44.9718 112.838 44.8898C112.879 44.9718 112.961 45.0538 113.044 45.1359Z" fill="#DF2F44"/>
<path d="M69.5726 34.0618C68.0143 33.7337 67.071 35.0872 67.071 35.0872C67.071 35.0872 66.1278 33.7337 64.5694 34.0618C63.2161 34.3489 62.4369 35.7434 62.6829 37.0969C62.929 38.4914 63.9542 40.5012 67.071 42.675C70.1878 40.5012 71.2131 38.4914 71.4591 37.0969C71.7052 35.7434 70.926 34.3489 69.5726 34.0618Z" fill="#DF2F44"/>
</svg>
