<svg width="26" height="25" viewBox="0 0 26 25" fill="none" xmlns="http://www.w3.org/2000/svg">
<path d="M23.7311 4.14399C24.2782 3.50548 24.2782 2.56313 23.7008 1.92484C23.1231 1.28633 22.1199 1.19519 21.4511 1.71194C21.3903 0.891086 20.7215 0.222286 19.8399 0.161594C18.9279 0.131271 18.1376 0.830394 18.107 1.77279L18.0159 3.87045C16.8303 3.32336 15.5535 3.29279 14.2159 3.74894C10.6288 4.96483 7.28465 9.61614 5.09585 13.2641C2.69436 17.3073 1.02231 21.3505 0.900599 22.1713C0.809415 22.8401 0.961458 23.4178 1.32619 23.7825C1.59974 24.0561 2.05584 24.2081 2.57264 24.2081C2.69415 24.2081 2.81587 24.2081 2.93738 24.1778C3.78858 24.0563 7.80149 22.3843 11.8446 19.9826C15.5231 17.7938 20.1438 14.4498 21.3598 10.8626C21.7854 9.6161 21.7854 8.46106 21.3598 7.36666L23.3662 7.42752H23.4271C23.8527 7.42752 24.2479 7.27548 24.5518 6.97161C24.8862 6.66752 25.0686 6.24195 25.0989 5.81635C25.16 4.99528 24.5521 4.26563 23.7312 4.14408L23.7311 4.14399ZM22.9103 2.62399C23.1535 2.86722 23.1232 3.29279 22.8799 3.53604L20.4479 5.7857C20.1438 5.42096 19.8399 5.1169 19.5664 4.84335L22.0287 2.5937C22.272 2.35026 22.6975 2.35026 22.9102 2.62402L22.9103 2.62399ZM19.8096 1.19519C20.1744 1.19519 20.4176 1.49928 20.4176 1.86399L20.3873 2.65433L19.0496 3.87023L19.1408 1.80313C19.1711 1.46872 19.4447 1.19519 19.8096 1.19519H19.8096ZM20.3871 10.5584C19.7486 12.4128 18.0767 14.2063 16.1312 15.8175L13.6688 13.3552L12.9392 14.0848L15.3104 16.456C14.4289 17.1248 13.5168 17.7328 12.6351 18.3104L11.7231 17.3984L10.9934 18.128L11.7534 18.888C11.6014 18.9792 11.4799 19.0401 11.3581 19.1313C7.1934 21.5936 3.39335 23.1136 2.84615 23.1745C2.36012 23.2351 2.11687 23.1439 2.05602 23.0528C1.99516 22.9919 1.87365 22.7487 1.93451 22.3231C1.96484 21.9584 2.57302 20.3472 3.63686 18.1584L4.00159 18.5231L4.73125 17.7934L4.1233 17.1855C4.67039 16.1214 5.27856 14.9967 5.9777 13.8111C6.31211 13.264 6.6465 12.6863 7.01125 12.1087L8.37919 13.4767L9.10885 12.747L7.58885 11.227C8.5009 9.88938 9.5041 8.58229 10.5985 7.48789L13.6082 10.4975L14.3378 9.76789L11.3282 6.75823C12.3617 5.81589 13.4258 5.08618 14.4896 4.72143C15.0064 4.53906 15.4928 4.4782 15.9488 4.4782C17.0735 4.4782 18.1073 4.96465 19.1103 5.96786C20.5696 7.3358 20.9647 8.8558 20.3871 10.5584L20.3871 10.5584ZM23.8832 6.27193C23.7617 6.39344 23.6096 6.4543 23.4273 6.42398L21.3602 6.33279L22.6673 5.1169L23.4576 5.14723C23.8223 5.14723 24.0656 5.45131 24.0656 5.81603C24.0656 5.99839 24.0047 6.15022 23.8832 6.27194L23.8832 6.27193Z" fill="#DF2F44"/>
</svg>
