<svg width="38" height="38" viewBox="0 0 38 38" fill="none" xmlns="http://www.w3.org/2000/svg">
<path d="M29.7311 7.14399C30.2782 6.50548 30.2782 5.56313 29.7008 4.92484C29.1231 4.28633 28.1199 4.19519 27.4511 4.71194C27.3903 3.89109 26.7215 3.22229 25.8399 3.16159C24.9279 3.13127 24.1376 3.83039 24.107 4.77279L24.0159 6.87045C22.8303 6.32336 21.5535 6.29279 20.2159 6.74894C16.6288 7.96483 13.2847 12.6161 11.0959 16.2641C8.69436 20.3073 7.02231 24.3505 6.9006 25.1713C6.80941 25.8401 6.96146 26.4178 7.32619 26.7825C7.59974 27.0561 8.05584 27.2081 8.57264 27.2081C8.69415 27.2081 8.81587 27.2081 8.93738 27.1778C9.78858 27.0563 13.8015 25.3843 17.8446 22.9826C21.5231 20.7938 26.1438 17.4498 27.3598 13.8626C27.7854 12.6161 27.7854 11.4611 27.3598 10.3667L29.3662 10.4275H29.4271C29.8527 10.4275 30.2479 10.2755 30.5518 9.97161C30.8862 9.66752 31.0686 9.24195 31.0989 8.81635C31.16 7.99528 30.5521 7.26563 29.7312 7.14408L29.7311 7.14399ZM28.9103 5.62399C29.1535 5.86722 29.1232 6.29279 28.8799 6.53604L26.4479 8.7857C26.1438 8.42096 25.8399 8.1169 25.5664 7.84335L28.0287 5.5937C28.272 5.35026 28.6975 5.35026 28.9102 5.62402L28.9103 5.62399ZM25.8096 4.19519C26.1744 4.19519 26.4176 4.49928 26.4176 4.86399L26.3873 5.65433L25.0496 6.87023L25.1408 4.80313C25.1711 4.46872 25.4447 4.19519 25.8096 4.19519H25.8096ZM26.3871 13.5584C25.7486 15.4128 24.0767 17.2063 22.1312 18.8175L19.6688 16.3552L18.9392 17.0848L21.3104 19.456C20.4289 20.1248 19.5168 20.7328 18.6351 21.3104L17.7231 20.3984L16.9934 21.128L17.7534 21.888C17.6014 21.9792 17.4799 22.0401 17.3581 22.1313C13.1934 24.5936 9.39335 26.1136 8.84615 26.1745C8.36012 26.2351 8.11687 26.1439 8.05602 26.0528C7.99516 25.9919 7.87365 25.7487 7.93451 25.3231C7.96484 24.9584 8.57302 23.3472 9.63686 21.1584L10.0016 21.5231L10.7312 20.7934L10.1233 20.1855C10.6704 19.1214 11.2786 17.9967 11.9777 16.8111C12.3121 16.264 12.6465 15.6863 13.0112 15.1087L14.3792 16.4767L15.1088 15.747L13.5888 14.227C14.5009 12.8894 15.5041 11.5823 16.5985 10.4879L19.6082 13.4975L20.3378 12.7679L17.3282 9.75823C18.3617 8.81589 19.4258 8.08618 20.4896 7.72143C21.0064 7.53906 21.4928 7.4782 21.9488 7.4782C23.0735 7.4782 24.1073 7.96465 25.1103 8.96786C26.5696 10.3358 26.9647 11.8558 26.3871 13.5584L26.3871 13.5584ZM29.8832 9.27193C29.7617 9.39344 29.6096 9.4543 29.4273 9.42398L27.3602 9.33279L28.6673 8.1169L29.4576 8.14723C29.8223 8.14723 30.0656 8.45131 30.0656 8.81603C30.0656 8.99839 30.0047 9.15022 29.8832 9.27194L29.8832 9.27193Z" fill="#FAD7B1"/>
</svg>
