<svg width="1230" height="423" viewBox="0 0 1230 423" fill="none" xmlns="http://www.w3.org/2000/svg">
  <path d="M36.5671 236H41.6871C45.2711 236 47.6551 233.728 47.6551 230.32C47.6551 226.912 45.2711 224.64 41.6871 224.64H36.5671V226.88H37.7511V233.76H36.5671V236ZM40.3271 233.76V226.88H41.6071C43.6071 226.88 44.9511 228.256 44.9511 230.32C44.9511 232.384 43.6071 233.76 41.6071 233.76H40.3271ZM53.2111 236.368C55.3871 236.368 57.1471 235.2 57.7071 233.328H55.2591C54.8591 233.968 54.1231 234.352 53.2591 234.352C52.0911 234.352 51.1471 233.584 51.0511 232.4H57.8671C57.9151 231.968 57.9151 231.776 57.9151 231.424C57.9151 228.848 56.1071 226.944 53.3231 226.944C50.5231 226.944 48.6671 228.832 48.6671 231.664C48.6671 234.48 50.5071 236.368 53.2111 236.368ZM51.0671 230.816C51.2271 229.776 52.0911 228.976 53.3391 228.976C54.5551 228.976 55.4511 229.712 55.5951 230.816H51.0671ZM62.5711 236.368C64.3311 236.368 65.6111 235.264 65.6111 233.584C65.6111 231.648 63.9471 230.928 62.7471 230.544C61.8991 230.272 61.1631 230.016 61.1631 229.456C61.1631 229.04 61.5471 228.704 62.1231 228.704C62.6831 228.704 63.0831 229.04 63.1311 229.584H65.3551V227.328H64.0911V227.856C63.7391 227.328 62.9711 226.944 61.9151 226.944C60.1871 226.944 58.9071 227.92 58.9071 229.52C58.9071 231.232 60.3791 231.888 61.6111 232.304C62.6191 232.64 63.3551 232.912 63.3551 233.568C63.3551 234.08 62.9231 234.48 62.2351 234.48C61.5151 234.48 61.0191 234.048 61.0191 233.408H58.7631V236H60.1551V235.408C60.7151 236.064 61.6271 236.368 62.5711 236.368ZM70.893 236.368C72.285 236.368 73.181 235.76 73.789 234.864V236H77.133V233.76H76.045V229.296H77.133V227.328H73.789V228.464C73.165 227.584 72.237 226.944 70.845 226.944C68.429 226.944 66.589 228.816 66.589 231.648C66.589 234.48 68.461 236.368 70.893 236.368ZM71.357 234.224C69.885 234.224 68.909 233.2 68.909 231.648C68.909 230.128 69.885 229.104 71.357 229.104C72.813 229.104 73.789 230.128 73.789 231.648C73.789 233.2 72.813 234.224 71.357 234.224ZM78.4056 236H81.7496V231.344C81.7496 230.24 82.3096 229.424 83.2696 229.424C83.5256 229.424 83.9256 229.488 84.2776 229.568V227.328C84.0536 227.28 83.8456 227.264 83.6536 227.264C82.6296 227.264 82.0056 227.872 81.6216 228.576V227.328H78.4056V229.296H79.4936V233.76H78.4056V236ZM85.2181 236H88.5621V231.344C88.5621 230.24 89.1221 229.424 90.0821 229.424C90.3381 229.424 90.7381 229.488 91.0901 229.568V227.328C90.8661 227.28 90.6581 227.264 90.4661 227.264C89.4421 227.264 88.8181 227.872 88.4341 228.576V227.328H85.2181V229.296H86.3061V233.76H85.2181V236ZM96.3559 236.368C99.1879 236.368 101.092 234.48 101.092 231.648C101.092 228.832 99.1879 226.944 96.3559 226.944C93.5399 226.944 91.6359 228.832 91.6359 231.648C91.6359 234.48 93.5399 236.368 96.3559 236.368ZM96.3719 234.224C94.9319 234.224 93.9559 233.2 93.9559 231.648C93.9559 230.128 94.9319 229.104 96.3719 229.104C97.8119 229.104 98.7719 230.128 98.7719 231.648C98.7719 233.2 97.8119 234.224 96.3719 234.224ZM102.768 236H106.112V233.76H105.024V224.096H101.68V226.08H102.768V236ZM108.096 236H111.44V233.76H110.352V224.096H107.008V226.08H108.096V236ZM116.918 236.368C119.75 236.368 121.654 234.48 121.654 231.648C121.654 228.832 119.75 226.944 116.918 226.944C114.102 226.944 112.198 228.832 112.198 231.648C112.198 234.48 114.102 236.368 116.918 236.368ZM116.934 234.224C115.494 234.224 114.518 233.2 114.518 231.648C114.518 230.128 115.494 229.104 116.934 229.104C118.374 229.104 119.334 230.128 119.334 231.648C119.334 233.2 118.374 234.224 116.934 234.224ZM126.546 236H129.89V231.264C129.89 229.808 130.626 229.024 131.666 229.024C132.674 229.024 133.138 229.744 133.138 230.976V236H135.394V231.264C135.394 229.808 136.13 229.024 137.17 229.024C138.178 229.024 138.626 229.744 138.626 230.976V236H141.97V233.76H140.898V230.624C140.898 228.336 139.826 226.944 138.066 226.944C136.546 226.944 135.666 227.648 135.09 228.832C134.674 227.616 133.778 226.944 132.562 226.944C131.458 226.944 130.434 227.488 129.89 228.448V227.328H126.546V229.296H127.634V233.76H126.546V236ZM146.074 236.368C147.274 236.368 148.266 235.76 148.826 234.848V236H152.17V233.76H151.098V229.296H152.17V227.328H148.826V232.368C148.826 233.456 148.01 234.304 146.922 234.304C145.866 234.304 145.37 233.52 145.37 232.336V227.328H142.026V229.296H143.114V232.704C143.114 234.912 144.218 236.368 146.074 236.368ZM157.181 236.368C158.941 236.368 160.221 235.264 160.221 233.584C160.221 231.648 158.557 230.928 157.357 230.544C156.509 230.272 155.773 230.016 155.773 229.456C155.773 229.04 156.157 228.704 156.733 228.704C157.293 228.704 157.693 229.04 157.741 229.584H159.965V227.328H158.701V227.856C158.349 227.328 157.581 226.944 156.525 226.944C154.797 226.944 153.517 227.92 153.517 229.52C153.517 231.232 154.989 231.888 156.221 232.304C157.229 232.64 157.965 232.912 157.965 233.568C157.965 234.08 157.533 234.48 156.845 234.48C156.125 234.48 155.629 234.048 155.629 233.408H153.373V236H154.765V235.408C155.325 236.064 156.237 236.368 157.181 236.368ZM165.918 236.368C168.366 236.368 170.126 234.96 170.542 232.752H168.142C167.806 233.664 166.974 234.224 165.918 234.224C164.494 234.224 163.518 233.2 163.518 231.648C163.518 230.128 164.478 229.104 165.918 229.104C166.926 229.104 167.71 229.616 168.11 230.496H170.43V227.328H168.654V228.176C168.078 227.424 167.022 226.944 165.71 226.944C163.198 226.944 161.198 228.816 161.198 231.648C161.198 234.48 163.102 236.368 165.918 236.368ZM175.371 236.368C176.571 236.368 177.563 235.76 178.123 234.848V236H181.467V233.76H180.395V229.296H181.467V227.328H178.123V232.368C178.123 233.456 177.307 234.304 176.219 234.304C175.163 234.304 174.667 233.52 174.667 232.336V227.328H171.323V229.296H172.411V232.704C172.411 234.912 173.515 236.368 175.371 236.368ZM183.549 236H186.893V233.76H185.805V224.096H182.461V226.08H183.549V236ZM191.956 236.368C193.348 236.368 194.244 235.76 194.852 234.864V236H198.196V233.76H197.108V229.296H198.196V227.328H194.852V228.464C194.228 227.584 193.3 226.944 191.908 226.944C189.492 226.944 187.652 228.816 187.652 231.648C187.652 234.48 189.524 236.368 191.956 236.368ZM192.42 234.224C190.948 234.224 189.972 233.2 189.972 231.648C189.972 230.128 190.948 229.104 192.42 229.104C193.876 229.104 194.852 230.128 194.852 231.648C194.852 233.2 193.876 234.224 192.42 234.224ZM199.468 236H202.812V231.344C202.812 230.24 203.372 229.424 204.332 229.424C204.588 229.424 204.988 229.488 205.34 229.568V227.328C205.116 227.28 204.908 227.264 204.716 227.264C203.692 227.264 203.068 227.872 202.684 228.576V227.328H199.468V229.296H200.556V233.76H199.468V236ZM205.162 237.296H206.874L208.506 233.536H206.186L205.162 237.296ZM218.524 236.368C220.7 236.368 222.46 235.2 223.02 233.328H220.572C220.172 233.968 219.436 234.352 218.572 234.352C217.404 234.352 216.46 233.584 216.364 232.4H223.18C223.228 231.968 223.228 231.776 223.228 231.424C223.228 228.848 221.42 226.944 218.636 226.944C215.836 226.944 213.98 228.832 213.98 231.664C213.98 234.48 215.82 236.368 218.524 236.368ZM216.38 230.816C216.54 229.776 217.404 228.976 218.652 228.976C219.868 228.976 220.764 229.712 220.908 230.816H216.38ZM224.878 236H228.222V233.76H227.134V224.096H223.79V226.08H224.878V236ZM230.398 226.576H232.654V224.32H230.398V226.576ZM230.414 236H233.758V233.76H232.67V227.328H229.326V229.296H230.414V236ZM234.937 236H238.281V231.264C238.281 229.808 239.017 229.024 240.057 229.024C241.065 229.024 241.529 229.744 241.529 230.976V236H243.785V231.264C243.785 229.808 244.521 229.024 245.561 229.024C246.569 229.024 247.017 229.744 247.017 230.976V236H250.361V233.76H249.289V230.624C249.289 228.336 248.217 226.944 246.457 226.944C244.937 226.944 244.057 227.648 243.481 228.832C243.065 227.616 242.169 226.944 240.953 226.944C239.849 226.944 238.825 227.488 238.281 228.448V227.328H234.937V229.296H236.025V233.76H234.937V236ZM252.07 226.576H254.326V224.32H252.07V226.576ZM252.086 236H255.43V233.76H254.342V227.328H250.998V229.296H252.086V236ZM256.609 236H259.953V231.216C259.953 229.872 260.785 229.024 261.905 229.024C263.009 229.024 263.505 229.824 263.505 230.976V236H266.849V233.76H265.777V230.624C265.777 228.416 264.657 226.944 262.801 226.944C261.601 226.944 260.513 227.568 259.953 228.464V227.328H256.609V229.296H257.697V233.76H256.609V236ZM271.846 236.368C273.238 236.368 274.134 235.76 274.742 234.864V236H278.086V233.76H276.998V229.296H278.086V227.328H274.742V228.464C274.118 227.584 273.19 226.944 271.798 226.944C269.382 226.944 267.542 228.816 267.542 231.648C267.542 234.48 269.414 236.368 271.846 236.368ZM272.31 234.224C270.838 234.224 269.862 233.2 269.862 231.648C269.862 230.128 270.838 229.104 272.31 229.104C273.766 229.104 274.742 230.128 274.742 231.648C274.742 233.2 273.766 234.224 272.31 234.224ZM279.359 236H282.703V231.216C282.703 229.872 283.535 229.024 284.655 229.024C285.759 229.024 286.255 229.824 286.255 230.976V236H289.599V233.76H288.527V230.624C288.527 228.416 287.407 226.944 285.551 226.944C284.351 226.944 283.263 227.568 282.703 228.464V227.328H279.359V229.296H280.447V233.76H279.359V236ZM294.596 236.368C295.988 236.368 296.884 235.76 297.492 234.864V236H300.836V233.76H299.748V224.16H296.404V226.144H297.492V228.464C296.868 227.584 295.94 226.944 294.548 226.944C292.132 226.944 290.292 228.816 290.292 231.648C290.292 234.48 292.164 236.368 294.596 236.368ZM295.124 234.224C293.62 234.224 292.612 233.2 292.612 231.648C292.612 230.128 293.62 229.104 295.124 229.104C296.628 229.104 297.62 230.128 297.62 231.648C297.62 233.2 296.628 234.224 295.124 234.224ZM306.293 236.368C309.125 236.368 311.029 234.48 311.029 231.648C311.029 228.832 309.125 226.944 306.293 226.944C303.477 226.944 301.573 228.832 301.573 231.648C301.573 234.48 303.477 236.368 306.293 236.368ZM306.309 234.224C304.869 234.224 303.893 233.2 303.893 231.648C303.893 230.128 304.869 229.104 306.309 229.104C307.749 229.104 308.709 230.128 308.709 231.648C308.709 233.2 307.749 234.224 306.309 234.224ZM316.721 236H320.065V233.76H318.977V224.096H315.633V226.08H316.721V236ZM325.127 236.368C326.519 236.368 327.415 235.76 328.023 234.864V236H331.367V233.76H330.279V229.296H331.367V227.328H328.023V228.464C327.399 227.584 326.471 226.944 325.079 226.944C322.663 226.944 320.823 228.816 320.823 231.648C320.823 234.48 322.695 236.368 325.127 236.368ZM325.591 234.224C324.119 234.224 323.143 233.2 323.143 231.648C323.143 230.128 324.119 229.104 325.591 229.104C327.047 229.104 328.023 230.128 328.023 231.648C328.023 233.2 327.047 234.224 325.591 234.224ZM196.359 261.36C199.031 261.36 200.951 259.872 200.951 256.256V251.296H202.039V249.328H198.695V250.464C198.071 249.584 197.143 248.944 195.751 248.944C193.335 248.944 191.495 250.816 191.495 253.648C191.495 256.48 193.351 258.112 195.863 258.112C197.175 258.112 198.087 257.632 198.695 256.864V257.328C198.695 258.608 197.719 259.488 196.279 259.488C195.399 259.488 194.615 259.152 194.263 258.704H191.927C192.519 260.352 194.183 261.36 196.359 261.36ZM196.263 256.224C194.791 256.224 193.815 255.2 193.815 253.648C193.815 252.128 194.791 251.104 196.263 251.104C197.719 251.104 198.695 252.128 198.695 253.648C198.695 255.2 197.719 256.224 196.263 256.224ZM202.968 258H206.312V253.344C206.312 252.24 206.872 251.424 207.832 251.424C208.088 251.424 208.488 251.488 208.84 251.568V249.328C208.616 249.28 208.408 249.264 208.216 249.264C207.192 249.264 206.568 249.872 206.184 250.576V249.328H202.968V251.296H204.056V255.76H202.968V258ZM213.69 258.368C215.082 258.368 215.978 257.76 216.586 256.864V258H219.93V255.76H218.842V251.296H219.93V249.328H216.586V250.464C215.962 249.584 215.034 248.944 213.642 248.944C211.226 248.944 209.386 250.816 209.386 253.648C209.386 256.48 211.258 258.368 213.69 258.368ZM214.154 256.224C212.682 256.224 211.706 255.2 211.706 253.648C211.706 252.128 212.682 251.104 214.154 251.104C215.61 251.104 216.586 252.128 216.586 253.648C216.586 255.2 215.61 256.224 214.154 256.224ZM224.931 258.368C226.691 258.368 227.971 257.264 227.971 255.584C227.971 253.648 226.307 252.928 225.107 252.544C224.259 252.272 223.523 252.016 223.523 251.456C223.523 251.04 223.907 250.704 224.483 250.704C225.043 250.704 225.443 251.04 225.491 251.584H227.715V249.328H226.451V249.856C226.099 249.328 225.331 248.944 224.275 248.944C222.547 248.944 221.267 249.92 221.267 251.52C221.267 253.232 222.739 253.888 223.971 254.304C224.979 254.64 225.715 254.912 225.715 255.568C225.715 256.08 225.283 256.48 224.595 256.48C223.875 256.48 223.379 256.048 223.379 255.408H221.123V258H222.515V257.408C223.075 258.064 223.987 258.368 224.931 258.368ZM230.116 248.576H232.372V246.32H230.116V248.576ZM230.132 258H233.476V255.76H232.388V249.328H229.044V251.296H230.132V258ZM235.696 258H239.04V255.76H237.952V251.296H239.04V249.328H237.952V246.64H235.696V249.328H234.608V251.296H235.696V258ZM244.456 258.368C245.848 258.368 246.744 257.76 247.352 256.864V258H250.696V255.76H249.608V251.296H250.696V249.328H247.352V250.464C246.728 249.584 245.8 248.944 244.408 248.944C241.992 248.944 240.152 250.816 240.152 253.648C240.152 256.48 242.024 258.368 244.456 258.368ZM244.92 256.224C243.448 256.224 242.472 255.2 242.472 253.648C242.472 252.128 243.448 251.104 244.92 251.104C246.376 251.104 247.352 252.128 247.352 253.648C247.352 255.2 246.376 256.224 244.92 256.224ZM260.278 258.368C262.726 258.368 264.486 256.96 264.902 254.752H262.502C262.166 255.664 261.334 256.224 260.278 256.224C258.854 256.224 257.878 255.2 257.878 253.648C257.878 252.128 258.838 251.104 260.278 251.104C261.286 251.104 262.07 251.616 262.47 252.496H264.79V249.328H263.014V250.176C262.438 249.424 261.382 248.944 260.07 248.944C257.558 248.944 255.558 250.816 255.558 253.648C255.558 256.48 257.462 258.368 260.278 258.368ZM270.418 258.368C273.25 258.368 275.154 256.48 275.154 253.648C275.154 250.832 273.25 248.944 270.418 248.944C267.602 248.944 265.698 250.832 265.698 253.648C265.698 256.48 267.602 258.368 270.418 258.368ZM270.434 256.224C268.994 256.224 268.018 255.2 268.018 253.648C268.018 252.128 268.994 251.104 270.434 251.104C271.874 251.104 272.834 252.128 272.834 253.648C272.834 255.2 271.874 256.224 270.434 256.224ZM276.031 258H279.375V253.344C279.375 252.24 279.935 251.424 280.895 251.424C281.151 251.424 281.551 251.488 281.903 251.568V249.328C281.679 249.28 281.471 249.264 281.279 249.264C280.255 249.264 279.631 249.872 279.247 250.576V249.328H276.031V251.296H277.119V255.76H276.031V258ZM282.763 261.36H286.107V256.864C286.715 257.76 287.611 258.368 288.987 258.368C291.435 258.368 293.307 256.48 293.307 253.648C293.307 250.816 291.451 248.944 289.051 248.944C287.659 248.944 286.715 249.584 286.107 250.464V249.328H282.763V251.296H283.851V259.12H282.763V261.36ZM288.475 256.224C286.971 256.224 285.979 255.2 285.979 253.648C285.979 252.128 286.971 251.104 288.475 251.104C289.979 251.104 290.987 252.128 290.987 253.648C290.987 255.2 289.979 256.224 288.475 256.224ZM298.95 258.368C301.782 258.368 303.686 256.48 303.686 253.648C303.686 250.832 301.782 248.944 298.95 248.944C296.134 248.944 294.23 250.832 294.23 253.648C294.23 256.48 296.134 258.368 298.95 258.368ZM298.966 256.224C297.526 256.224 296.55 255.2 296.55 253.648C296.55 252.128 297.526 251.104 298.966 251.104C300.406 251.104 301.366 252.128 301.366 253.648C301.366 255.2 300.406 256.224 298.966 256.224ZM304.562 258H307.906V253.344C307.906 252.24 308.466 251.424 309.426 251.424C309.682 251.424 310.082 251.488 310.434 251.568V249.328C310.21 249.28 310.002 249.264 309.81 249.264C308.786 249.264 308.162 249.872 307.778 250.576V249.328H304.562V251.296H305.65V255.76H304.562V258ZM315.284 258.368C316.676 258.368 317.572 257.76 318.18 256.864V258H321.524V255.76H320.436V251.296H321.524V249.328H318.18V250.464C317.556 249.584 316.628 248.944 315.236 248.944C312.82 248.944 310.98 250.816 310.98 253.648C310.98 256.48 312.852 258.368 315.284 258.368ZM315.748 256.224C314.276 256.224 313.3 255.2 313.3 253.648C313.3 252.128 314.276 251.104 315.748 251.104C317.204 251.104 318.18 252.128 318.18 253.648C318.18 255.2 317.204 256.224 315.748 256.224ZM323.596 258H326.94V255.76H325.852V246.096H322.508V248.08H323.596V258ZM328.436 258H330.756V255.536H328.436V258Z" fill="#D9EEEF"/>
  <circle opacity="0.5" cx="369.5" cy="240.5" r="17.5" fill="white"/>
  <circle cx="369.5" cy="240.5" r="9.5" fill="white"/>
  <path d="M289.864 404H294.792V401.76H293.608V399.392H296.664V397.408H293.608V394.88H295.928V395.92H298.024V392.64H289.864V394.88H291.048V401.76H289.864V404ZM302.934 404.368C305.766 404.368 307.67 402.48 307.67 399.648C307.67 396.832 305.766 394.944 302.934 394.944C300.118 394.944 298.214 396.832 298.214 399.648C298.214 402.48 300.118 404.368 302.934 404.368ZM302.95 402.224C301.51 402.224 300.534 401.2 300.534 399.648C300.534 398.128 301.51 397.104 302.95 397.104C304.39 397.104 305.35 398.128 305.35 399.648C305.35 401.2 304.39 402.224 302.95 402.224ZM308.546 404H311.89V399.344C311.89 398.24 312.45 397.424 313.41 397.424C313.666 397.424 314.066 397.488 314.418 397.568V395.328C314.194 395.28 313.986 395.264 313.794 395.264C312.77 395.264 312.146 395.872 311.762 396.576V395.328H308.546V397.296H309.634V401.76H308.546V404ZM316.399 404H319.743V401.76H318.655V397.296H319.743V395.328H318.655V392.64H316.399V395.328H315.311V397.296H316.399V404ZM325.159 404.368C326.551 404.368 327.447 403.76 328.055 402.864V404H331.399V401.76H330.311V397.296H331.399V395.328H328.055V396.464C327.431 395.584 326.503 394.944 325.111 394.944C322.695 394.944 320.855 396.816 320.855 399.648C320.855 402.48 322.727 404.368 325.159 404.368ZM325.623 402.224C324.151 402.224 323.175 401.2 323.175 399.648C323.175 398.128 324.151 397.104 325.623 397.104C327.079 397.104 328.055 398.128 328.055 399.648C328.055 401.2 327.079 402.224 325.623 402.224ZM333.471 404H336.815V401.76H335.727V392.096H332.383V394.08H333.471V404ZM342.117 404.368C344.293 404.368 346.053 403.2 346.613 401.328H344.165C343.765 401.968 343.029 402.352 342.165 402.352C340.997 402.352 340.053 401.584 339.957 400.4H346.773C346.821 399.968 346.821 399.776 346.821 399.424C346.821 396.848 345.013 394.944 342.229 394.944C339.429 394.944 337.573 396.832 337.573 399.664C337.573 402.48 339.413 404.368 342.117 404.368ZM339.973 398.816C340.133 397.776 340.997 396.976 342.245 396.976C343.461 396.976 344.357 397.712 344.501 398.816H339.973ZM352.465 404.368C354.913 404.368 356.673 402.96 357.089 400.752H354.689C354.353 401.664 353.521 402.224 352.465 402.224C351.041 402.224 350.065 401.2 350.065 399.648C350.065 398.128 351.025 397.104 352.465 397.104C353.473 397.104 354.257 397.616 354.657 398.496H356.977V395.328H355.201V396.176C354.625 395.424 353.569 394.944 352.257 394.944C349.745 394.944 347.745 396.816 347.745 399.648C347.745 402.48 349.649 404.368 352.465 404.368ZM359.054 394.576H361.31V392.32H359.054V394.576ZM359.07 404H362.414V401.76H361.326V395.328H357.982V397.296H359.07V404ZM363.593 404H366.937V399.264C366.937 397.808 367.673 397.024 368.713 397.024C369.721 397.024 370.185 397.744 370.185 398.976V404H372.441V399.264C372.441 397.808 373.177 397.024 374.217 397.024C375.225 397.024 375.673 397.744 375.673 398.976V404H379.017V401.76H377.945V398.624C377.945 396.336 376.873 394.944 375.113 394.944C373.593 394.944 372.713 395.648 372.137 396.832C371.721 395.616 370.825 394.944 369.609 394.944C368.505 394.944 367.481 395.488 366.937 396.448V395.328H363.593V397.296H364.681V401.76H363.593V404ZM380.726 394.576H382.982V392.32H380.726V394.576ZM380.742 404H384.086V401.76H382.998V395.328H379.654V397.296H380.742V404ZM389.383 404.368C391.559 404.368 393.319 403.2 393.879 401.328H391.431C391.031 401.968 390.295 402.352 389.431 402.352C388.263 402.352 387.319 401.584 387.223 400.4H394.039C394.087 399.968 394.087 399.776 394.087 399.424C394.087 396.848 392.279 394.944 389.495 394.944C386.695 394.944 384.839 396.832 384.839 399.664C384.839 402.48 386.679 404.368 389.383 404.368ZM387.239 398.816C387.399 397.776 388.263 396.976 389.511 396.976C390.727 396.976 391.623 397.712 391.767 398.816H387.239ZM394.937 404H398.281V399.216C398.281 397.872 399.113 397.024 400.233 397.024C401.337 397.024 401.833 397.824 401.833 398.976V404H405.177V401.76H404.105V398.624C404.105 396.416 402.985 394.944 401.129 394.944C399.929 394.944 398.841 395.568 398.281 396.464V395.328H394.937V397.296H396.025V401.76H394.937V404ZM407.024 404H410.368V401.76H409.28V397.296H410.368V395.328H409.28V392.64H407.024V395.328H405.936V397.296H407.024V404ZM416.2 404.368C419.032 404.368 420.936 402.48 420.936 399.648C420.936 396.832 419.032 394.944 416.2 394.944C413.384 394.944 411.48 396.832 411.48 399.648C411.48 402.48 413.384 404.368 416.2 404.368ZM416.216 402.224C414.776 402.224 413.8 401.2 413.8 399.648C413.8 398.128 414.776 397.104 416.216 397.104C417.656 397.104 418.616 398.128 418.616 399.648C418.616 401.2 417.656 402.224 416.216 402.224ZM429.956 404.368C431.348 404.368 432.244 403.76 432.852 402.864V404H436.196V401.76H435.108V392.16H431.764V394.144H432.852V396.464C432.228 395.584 431.3 394.944 429.908 394.944C427.492 394.944 425.652 396.816 425.652 399.648C425.652 402.48 427.524 404.368 429.956 404.368ZM430.484 402.224C428.98 402.224 427.972 401.2 427.972 399.648C427.972 398.128 428.98 397.104 430.484 397.104C431.988 397.104 432.98 398.128 432.98 399.648C432.98 401.2 431.988 402.224 430.484 402.224ZM441.477 404.368C443.653 404.368 445.413 403.2 445.973 401.328H443.525C443.125 401.968 442.389 402.352 441.525 402.352C440.357 402.352 439.413 401.584 439.317 400.4H446.133C446.181 399.968 446.181 399.776 446.181 399.424C446.181 396.848 444.373 394.944 441.589 394.944C438.789 394.944 436.933 396.832 436.933 399.664C436.933 402.48 438.773 404.368 441.477 404.368ZM439.333 398.816C439.493 397.776 440.357 396.976 441.605 396.976C442.821 396.976 443.717 397.712 443.861 398.816H439.333ZM447.831 404H451.175V401.76H450.087V392.096H446.743V394.08H447.831V404ZM459.852 404.368C461.612 404.368 462.892 403.264 462.892 401.584C462.892 399.648 461.228 398.928 460.028 398.544C459.18 398.272 458.444 398.016 458.444 397.456C458.444 397.04 458.828 396.704 459.404 396.704C459.964 396.704 460.364 397.04 460.412 397.584H462.636V395.328H461.372V395.856C461.02 395.328 460.252 394.944 459.196 394.944C457.468 394.944 456.188 395.92 456.188 397.52C456.188 399.232 457.66 399.888 458.892 400.304C459.9 400.64 460.636 400.912 460.636 401.568C460.636 402.08 460.204 402.48 459.516 402.48C458.796 402.48 458.3 402.048 458.3 401.408H456.044V404H457.436V403.408C457.996 404.064 458.908 404.368 459.852 404.368ZM465.038 394.576H467.294V392.32H465.038V394.576ZM465.054 404H468.398V401.76H467.31V395.328H463.966V397.296H465.054V404ZM473.306 404.368C475.066 404.368 476.346 403.264 476.346 401.584C476.346 399.648 474.682 398.928 473.482 398.544C472.634 398.272 471.898 398.016 471.898 397.456C471.898 397.04 472.282 396.704 472.858 396.704C473.418 396.704 473.818 397.04 473.866 397.584H476.09V395.328H474.826V395.856C474.474 395.328 473.706 394.944 472.65 394.944C470.922 394.944 469.642 395.92 469.642 397.52C469.642 399.232 471.114 399.888 472.346 400.304C473.354 400.64 474.09 400.912 474.09 401.568C474.09 402.08 473.658 402.48 472.97 402.48C472.25 402.48 471.754 402.048 471.754 401.408H469.498V404H470.89V403.408C471.45 404.064 472.362 404.368 473.306 404.368ZM478.539 404H481.883V401.76H480.795V397.296H481.883V395.328H480.795V392.64H478.539V395.328H477.451V397.296H478.539V404ZM487.539 404.368C489.715 404.368 491.475 403.2 492.035 401.328H489.587C489.187 401.968 488.451 402.352 487.587 402.352C486.419 402.352 485.475 401.584 485.379 400.4H492.195C492.243 399.968 492.243 399.776 492.243 399.424C492.243 396.848 490.435 394.944 487.651 394.944C484.851 394.944 482.995 396.832 482.995 399.664C482.995 402.48 484.835 404.368 487.539 404.368ZM485.395 398.816C485.555 397.776 486.419 396.976 487.667 396.976C488.883 396.976 489.779 397.712 489.923 398.816H485.395ZM493.093 404H496.437V399.264C496.437 397.808 497.173 397.024 498.213 397.024C499.221 397.024 499.685 397.744 499.685 398.976V404H501.941V399.264C501.941 397.808 502.677 397.024 503.717 397.024C504.725 397.024 505.173 397.744 505.173 398.976V404H508.517V401.76H507.445V398.624C507.445 396.336 506.373 394.944 504.613 394.944C503.093 394.944 502.213 395.648 501.637 396.832C501.221 395.616 500.325 394.944 499.109 394.944C498.005 394.944 496.981 395.488 496.437 396.448V395.328H493.093V397.296H494.181V401.76H493.093V404ZM513.518 404.368C514.91 404.368 515.806 403.76 516.414 402.864V404H519.758V401.76H518.67V397.296H519.758V395.328H516.414V396.464C515.79 395.584 514.862 394.944 513.47 394.944C511.054 394.944 509.214 396.816 509.214 399.648C509.214 402.48 511.086 404.368 513.518 404.368ZM513.982 402.224C512.51 402.224 511.534 401.2 511.534 399.648C511.534 398.128 512.51 397.104 513.982 397.104C515.438 397.104 516.414 398.128 516.414 399.648C516.414 401.2 515.438 402.224 513.982 402.224ZM525.788 394.576H528.044V392.32H525.788V394.576ZM525.804 404H529.148V401.76H528.06V395.328H524.716V397.296H525.804V404ZM530.328 404H533.672V399.216C533.672 397.872 534.504 397.024 535.624 397.024C536.728 397.024 537.224 397.824 537.224 398.976V404H540.568V401.76H539.496V398.624C539.496 396.416 538.376 394.944 536.52 394.944C535.32 394.944 534.232 395.568 533.672 396.464V395.328H530.328V397.296H531.416V401.76H530.328V404ZM541.687 404H545.031V399.264C545.031 397.808 545.767 397.024 546.807 397.024C547.815 397.024 548.279 397.744 548.279 398.976V404H550.535V399.264C550.535 397.808 551.271 397.024 552.311 397.024C553.319 397.024 553.767 397.744 553.767 398.976V404H557.111V401.76H556.039V398.624C556.039 396.336 554.967 394.944 553.207 394.944C551.687 394.944 550.807 395.648 550.231 396.832C549.815 395.616 548.919 394.944 547.703 394.944C546.599 394.944 545.575 395.488 545.031 396.448V395.328H541.687V397.296H542.775V401.76H541.687V404ZM561.215 404.368C562.415 404.368 563.407 403.76 563.967 402.848V404H567.311V401.76H566.239V397.296H567.311V395.328H563.967V400.368C563.967 401.456 563.151 402.304 562.063 402.304C561.007 402.304 560.511 401.52 560.511 400.336V395.328H557.167V397.296H558.255V400.704C558.255 402.912 559.359 404.368 561.215 404.368ZM568.593 404H571.937V399.216C571.937 397.872 572.769 397.024 573.889 397.024C574.993 397.024 575.489 397.824 575.489 398.976V404H578.833V401.76H577.761V398.624C577.761 396.416 576.641 394.944 574.785 394.944C573.585 394.944 572.497 395.568 571.937 396.464V395.328H568.593V397.296H569.681V401.76H568.593V404ZM584.071 404.368C586.247 404.368 588.007 403.2 588.567 401.328H586.119C585.719 401.968 584.983 402.352 584.119 402.352C582.951 402.352 582.007 401.584 581.911 400.4H588.727C588.775 399.968 588.775 399.776 588.775 399.424C588.775 396.848 586.967 394.944 584.183 394.944C581.383 394.944 579.527 396.832 579.527 399.664C579.527 402.48 581.367 404.368 584.071 404.368ZM581.927 398.816C582.087 397.776 582.951 396.976 584.199 396.976C585.415 396.976 586.311 397.712 586.455 398.816H581.927ZM590.092 404H592.412V401.536H590.092V404Z" fill="#D9EEEF"/>
  <circle opacity="0.5" cx="439.5" cy="360.5" r="17.5" fill="white"/>
  <circle cx="439.5" cy="360.5" r="9.5" fill="white"/>
  <path d="M724.864 347H729.984C733.568 347 735.952 344.728 735.952 341.32C735.952 337.912 733.568 335.64 729.984 335.64H724.864V337.88H726.048V344.76H724.864V347ZM728.624 344.76V337.88H729.904C731.904 337.88 733.248 339.256 733.248 341.32C733.248 343.384 731.904 344.76 729.904 344.76H728.624ZM741.508 347.368C743.684 347.368 745.444 346.2 746.004 344.328H743.556C743.156 344.968 742.42 345.352 741.556 345.352C740.388 345.352 739.444 344.584 739.348 343.4H746.164C746.212 342.968 746.212 342.776 746.212 342.424C746.212 339.848 744.404 337.944 741.62 337.944C738.82 337.944 736.964 339.832 736.964 342.664C736.964 345.48 738.804 347.368 741.508 347.368ZM739.364 341.816C739.524 340.776 740.388 339.976 741.636 339.976C742.852 339.976 743.748 340.712 743.892 341.816H739.364ZM747.862 347H751.206V344.76H750.118V335.096H746.774V337.08H747.862V347ZM753.382 337.576H755.638V335.32H753.382V337.576ZM753.398 347H756.742V344.76H755.654V338.328H752.31V340.296H753.398V347ZM762.215 347.368C764.663 347.368 766.423 345.96 766.839 343.752H764.439C764.103 344.664 763.271 345.224 762.215 345.224C760.791 345.224 759.815 344.2 759.815 342.648C759.815 341.128 760.775 340.104 762.215 340.104C763.223 340.104 764.007 340.616 764.407 341.496H766.727V338.328H764.951V339.176C764.375 338.424 763.319 337.944 762.007 337.944C759.495 337.944 757.495 339.816 757.495 342.648C757.495 345.48 759.399 347.368 762.215 347.368ZM768.804 337.576H771.06V335.32H768.804V337.576ZM768.82 347H772.164V344.76H771.076V338.328H767.732V340.296H768.82V347ZM777.637 347.368C780.469 347.368 782.373 345.48 782.373 342.648C782.373 339.832 780.469 337.944 777.637 337.944C774.821 337.944 772.917 339.832 772.917 342.648C772.917 345.48 774.821 347.368 777.637 347.368ZM777.653 345.224C776.213 345.224 775.237 344.2 775.237 342.648C775.237 341.128 776.213 340.104 777.653 340.104C779.093 340.104 780.053 341.128 780.053 342.648C780.053 344.2 779.093 345.224 777.653 345.224ZM787.056 347.368C788.816 347.368 790.096 346.264 790.096 344.584C790.096 342.648 788.432 341.928 787.232 341.544C786.384 341.272 785.648 341.016 785.648 340.456C785.648 340.04 786.032 339.704 786.608 339.704C787.168 339.704 787.568 340.04 787.616 340.584H789.84V338.328H788.576V338.856C788.224 338.328 787.456 337.944 786.4 337.944C784.672 337.944 783.392 338.92 783.392 340.52C783.392 342.232 784.864 342.888 786.096 343.304C787.104 343.64 787.84 343.912 787.84 344.568C787.84 345.08 787.408 345.48 786.72 345.48C786 345.48 785.504 345.048 785.504 344.408H783.248V347H784.64V346.408C785.2 347.064 786.112 347.368 787.056 347.368ZM795.793 347.368C798.625 347.368 800.529 345.48 800.529 342.648C800.529 339.832 798.625 337.944 795.793 337.944C792.977 337.944 791.073 339.832 791.073 342.648C791.073 345.48 792.977 347.368 795.793 347.368ZM795.809 345.224C794.369 345.224 793.393 344.2 793.393 342.648C793.393 341.128 794.369 340.104 795.809 340.104C797.249 340.104 798.209 341.128 798.209 342.648C798.209 344.2 797.249 345.224 795.809 345.224ZM807.357 350.36H809.853L813.677 340.296H814.765V338.328H811.965L810.029 343.944L808.013 338.328H805.165V340.296H806.253L808.813 346.728L808.301 348.12H807.357V350.36ZM819.562 347H822.906V340.296H824.218V338.328H822.906V337.608C822.906 336.856 823.354 336.52 823.866 336.52C823.994 336.52 824.106 336.536 824.218 336.552V334.84C823.946 334.792 823.658 334.776 823.386 334.776C821.898 334.776 820.65 335.544 820.65 337.56V338.328H819.562V340.296H820.65V344.76H819.562V347ZM825.421 347H828.765V342.344C828.765 341.24 829.325 340.424 830.285 340.424C830.541 340.424 830.941 340.488 831.293 340.568V338.328C831.069 338.28 830.861 338.264 830.669 338.264C829.645 338.264 829.021 338.872 828.637 339.576V338.328H825.421V340.296H826.509V344.76H825.421V347ZM836.383 347.368C838.559 347.368 840.319 346.2 840.879 344.328H838.431C838.031 344.968 837.295 345.352 836.431 345.352C835.263 345.352 834.319 344.584 834.223 343.4H841.039C841.087 342.968 841.087 342.776 841.087 342.424C841.087 339.848 839.279 337.944 836.495 337.944C833.695 337.944 831.839 339.832 831.839 342.664C831.839 345.48 833.679 347.368 836.383 347.368ZM834.239 341.816C834.399 340.776 835.263 339.976 836.511 339.976C837.727 339.976 838.623 340.712 838.767 341.816H834.239ZM845.743 347.368C847.503 347.368 848.783 346.264 848.783 344.584C848.783 342.648 847.119 341.928 845.919 341.544C845.071 341.272 844.335 341.016 844.335 340.456C844.335 340.04 844.719 339.704 845.295 339.704C845.855 339.704 846.255 340.04 846.303 340.584H848.527V338.328H847.263V338.856C846.911 338.328 846.143 337.944 845.087 337.944C843.359 337.944 842.079 338.92 842.079 340.52C842.079 342.232 843.551 342.888 844.783 343.304C845.791 343.64 846.527 343.912 846.527 344.568C846.527 345.08 846.095 345.48 845.407 345.48C844.687 345.48 844.191 345.048 844.191 344.408H841.935V347H843.327V346.408C843.887 347.064 844.799 347.368 845.743 347.368ZM854.481 347.368C856.929 347.368 858.689 345.96 859.105 343.752H856.705C856.369 344.664 855.537 345.224 854.481 345.224C853.057 345.224 852.081 344.2 852.081 342.648C852.081 341.128 853.041 340.104 854.481 340.104C855.489 340.104 856.273 340.616 856.673 341.496H858.993V338.328H857.217V339.176C856.641 338.424 855.585 337.944 854.273 337.944C851.761 337.944 849.761 339.816 849.761 342.648C849.761 345.48 851.665 347.368 854.481 347.368ZM864.622 347.368C867.454 347.368 869.358 345.48 869.358 342.648C869.358 339.832 867.454 337.944 864.622 337.944C861.806 337.944 859.902 339.832 859.902 342.648C859.902 345.48 861.806 347.368 864.622 347.368ZM864.638 345.224C863.198 345.224 862.222 344.2 862.222 342.648C862.222 341.128 863.198 340.104 864.638 340.104C866.078 340.104 867.038 341.128 867.038 342.648C867.038 344.2 866.078 345.224 864.638 345.224ZM877.977 347.368C879.737 347.368 881.017 346.264 881.017 344.584C881.017 342.648 879.353 341.928 878.153 341.544C877.305 341.272 876.569 341.016 876.569 340.456C876.569 340.04 876.953 339.704 877.529 339.704C878.089 339.704 878.489 340.04 878.537 340.584H880.761V338.328H879.497V338.856C879.145 338.328 878.377 337.944 877.321 337.944C875.593 337.944 874.313 338.92 874.313 340.52C874.313 342.232 875.785 342.888 877.017 343.304C878.025 343.64 878.761 343.912 878.761 344.568C878.761 345.08 878.329 345.48 877.641 345.48C876.921 345.48 876.425 345.048 876.425 344.408H874.169V347H875.561V346.408C876.121 347.064 877.033 347.368 877.977 347.368ZM886.299 347.368C887.691 347.368 888.587 346.76 889.195 345.864V347H892.539V344.76H891.451V340.296H892.539V338.328H889.195V339.464C888.571 338.584 887.643 337.944 886.251 337.944C883.835 337.944 881.995 339.816 881.995 342.648C881.995 345.48 883.867 347.368 886.299 347.368ZM886.763 345.224C885.291 345.224 884.315 344.2 884.315 342.648C884.315 341.128 885.291 340.104 886.763 340.104C888.219 340.104 889.195 341.128 889.195 342.648C889.195 344.2 888.219 345.224 886.763 345.224ZM899.748 347.368C902.196 347.368 904.068 345.48 904.068 342.648C904.068 339.816 902.212 337.944 899.812 337.944C898.42 337.944 897.476 338.584 896.868 339.464V335.16H893.524V337.144H894.612V344.76H893.524V347H896.868V345.864C897.476 346.76 898.372 347.368 899.748 347.368ZM899.236 345.224C897.732 345.224 896.74 344.2 896.74 342.648C896.74 341.128 897.732 340.104 899.236 340.104C900.74 340.104 901.748 341.128 901.748 342.648C901.748 344.2 900.74 345.224 899.236 345.224ZM909.715 347.368C912.547 347.368 914.451 345.48 914.451 342.648C914.451 339.832 912.547 337.944 909.715 337.944C906.899 337.944 904.995 339.832 904.995 342.648C904.995 345.48 906.899 347.368 909.715 347.368ZM909.731 345.224C908.291 345.224 907.315 344.2 907.315 342.648C907.315 341.128 908.291 340.104 909.731 340.104C911.171 340.104 912.131 341.128 912.131 342.648C912.131 344.2 911.171 345.224 909.731 345.224ZM915.328 347H918.672V342.344C918.672 341.24 919.232 340.424 920.192 340.424C920.448 340.424 920.848 340.488 921.2 340.568V338.328C920.976 338.28 920.768 338.264 920.576 338.264C919.552 338.264 918.928 338.872 918.544 339.576V338.328H915.328V340.296H916.416V344.76H915.328V347ZM921.92 347H924.24V344.536H921.92V347Z" fill="#D9EEEF"/>
  <circle opacity="0.5" cx="815.5" cy="305.5" r="17.5" fill="white"/>
  <circle cx="815.5" cy="305.5" r="9.5" fill="white"/>
  <path d="M902.832 123.744L899.712 114.64H896.88H894.752V116.88H896.064L893.648 123.76H892.336V126H895.44L896.176 123.76H900.24L900.976 126H904.144V123.744H902.832ZM896.848 121.712L898.208 117.536L899.568 121.712H896.848ZM911.06 126.368C913.508 126.368 915.38 124.48 915.38 121.648C915.38 118.816 913.524 116.944 911.124 116.944C909.732 116.944 908.788 117.584 908.18 118.464V114.16H904.836V116.144H905.924V123.76H904.836V126H908.18V124.864C908.788 125.76 909.684 126.368 911.06 126.368ZM910.548 124.224C909.044 124.224 908.052 123.2 908.052 121.648C908.052 120.128 909.044 119.104 910.548 119.104C912.052 119.104 913.06 120.128 913.06 121.648C913.06 123.2 912.052 124.224 910.548 124.224ZM920.04 126.368C921.8 126.368 923.08 125.264 923.08 123.584C923.08 121.648 921.416 120.928 920.216 120.544C919.368 120.272 918.632 120.016 918.632 119.456C918.632 119.04 919.016 118.704 919.592 118.704C920.152 118.704 920.552 119.04 920.6 119.584H922.824V117.328H921.56V117.856C921.208 117.328 920.44 116.944 919.384 116.944C917.656 116.944 916.376 117.92 916.376 119.52C916.376 121.232 917.848 121.888 919.08 122.304C920.088 122.64 920.824 122.912 920.824 123.568C920.824 124.08 920.392 124.48 919.704 124.48C918.984 124.48 918.488 124.048 918.488 123.408H916.232V126H917.624V125.408C918.184 126.064 919.096 126.368 920.04 126.368ZM928.778 126.368C931.61 126.368 933.514 124.48 933.514 121.648C933.514 118.832 931.61 116.944 928.778 116.944C925.962 116.944 924.058 118.832 924.058 121.648C924.058 124.48 925.962 126.368 928.778 126.368ZM928.794 124.224C927.354 124.224 926.378 123.2 926.378 121.648C926.378 120.128 927.354 119.104 928.794 119.104C930.234 119.104 931.194 120.128 931.194 121.648C931.194 123.2 930.234 124.224 928.794 124.224ZM934.39 126H937.734V121.344C937.734 120.24 938.294 119.424 939.254 119.424C939.51 119.424 939.91 119.488 940.262 119.568V117.328C940.038 117.28 939.83 117.264 939.638 117.264C938.614 117.264 937.99 117.872 937.606 118.576V117.328H934.39V119.296H935.478V123.76H934.39V126ZM945.528 126.368C947.976 126.368 949.736 124.96 950.152 122.752H947.752C947.416 123.664 946.584 124.224 945.528 124.224C944.104 124.224 943.128 123.2 943.128 121.648C943.128 120.128 944.088 119.104 945.528 119.104C946.536 119.104 947.32 119.616 947.72 120.496H950.04V117.328H948.264V118.176C947.688 117.424 946.632 116.944 945.32 116.944C942.808 116.944 940.808 118.816 940.808 121.648C940.808 124.48 942.712 126.368 945.528 126.368ZM952.116 116.576H954.372V114.32H952.116V116.576ZM952.132 126H955.476V123.76H954.388V117.328H951.044V119.296H952.132V126ZM959.782 116.544L963.862 114.816L962.966 113.104L959.206 115.408L959.782 116.544ZM960.95 126.368C963.782 126.368 965.686 124.48 965.686 121.648C965.686 118.832 963.782 116.944 960.95 116.944C958.134 116.944 956.23 118.832 956.23 121.648C956.23 124.48 958.134 126.368 960.95 126.368ZM960.966 124.224C959.526 124.224 958.55 123.2 958.55 121.648C958.55 120.128 959.526 119.104 960.966 119.104C962.406 119.104 963.366 120.128 963.366 121.648C963.366 123.2 962.406 124.224 960.966 124.224ZM966.562 126H969.906V121.216C969.906 119.872 970.738 119.024 971.858 119.024C972.962 119.024 973.458 119.824 973.458 120.976V126H976.802V123.76H975.73V120.624C975.73 118.416 974.61 116.944 972.754 116.944C971.554 116.944 970.466 117.568 969.906 118.464V117.328H966.562V119.296H967.65V123.76H966.562V126ZM985.815 126.368C987.207 126.368 988.103 125.76 988.711 124.864V126H992.055V123.76H990.967V114.16H987.623V116.144H988.711V118.464C988.087 117.584 987.159 116.944 985.767 116.944C983.351 116.944 981.511 118.816 981.511 121.648C981.511 124.48 983.383 126.368 985.815 126.368ZM986.343 124.224C984.839 124.224 983.831 123.2 983.831 121.648C983.831 120.128 984.839 119.104 986.343 119.104C987.847 119.104 988.839 120.128 988.839 121.648C988.839 123.2 987.847 124.224 986.343 124.224ZM997.336 126.368C999.512 126.368 1001.27 125.2 1001.83 123.328H999.384C998.984 123.968 998.248 124.352 997.384 124.352C996.216 124.352 995.272 123.584 995.176 122.4H1001.99C1002.04 121.968 1002.04 121.776 1002.04 121.424C1002.04 118.848 1000.23 116.944 997.448 116.944C994.648 116.944 992.792 118.832 992.792 121.664C992.792 124.48 994.632 126.368 997.336 126.368ZM995.192 120.816C995.352 119.776 996.216 118.976 997.464 118.976C998.68 118.976 999.576 119.712 999.72 120.816H995.192ZM1006.91 126H1010.25V121.216C1010.25 119.872 1011.08 119.024 1012.2 119.024C1013.31 119.024 1013.8 119.824 1013.8 120.976V126H1017.15V123.76H1016.07V120.624C1016.07 118.416 1014.95 116.944 1013.1 116.944C1011.9 116.944 1010.81 117.568 1010.25 118.464V117.328H1006.91V119.296H1007.99V123.76H1006.91V126ZM1021.25 126.368C1022.45 126.368 1023.44 125.76 1024 124.848V126H1027.34V123.76H1026.27V119.296H1027.34V117.328H1024V122.368C1024 123.456 1023.18 124.304 1022.09 124.304C1021.04 124.304 1020.54 123.52 1020.54 122.336V117.328H1017.2V119.296H1018.29V122.704C1018.29 124.912 1019.39 126.368 1021.25 126.368ZM1029.66 126H1033.01V123.76H1031.92V119.296H1033.01V117.328H1031.92V114.64H1029.66V117.328H1028.58V119.296H1029.66V126ZM1034.42 126H1037.77V121.344C1037.77 120.24 1038.33 119.424 1039.29 119.424C1039.54 119.424 1039.94 119.488 1040.29 119.568V117.328C1040.07 117.28 1039.86 117.264 1039.67 117.264C1038.65 117.264 1038.02 117.872 1037.64 118.576V117.328H1034.42V119.296H1035.51V123.76H1034.42V126ZM1042.23 116.576H1044.48V114.32H1042.23V116.576ZM1042.24 126H1045.59V123.76H1044.5V117.328H1041.15V119.296H1042.24V126ZM1050.88 126.368C1053.06 126.368 1054.82 125.2 1055.38 123.328H1052.93C1052.53 123.968 1051.8 124.352 1050.93 124.352C1049.76 124.352 1048.82 123.584 1048.72 122.4H1055.54C1055.59 121.968 1055.59 121.776 1055.59 121.424C1055.59 118.848 1053.78 116.944 1051 116.944C1048.2 116.944 1046.34 118.832 1046.34 121.664C1046.34 124.48 1048.18 126.368 1050.88 126.368ZM1048.74 120.816C1048.9 119.776 1049.76 118.976 1051.01 118.976C1052.23 118.976 1053.12 119.712 1053.27 120.816H1048.74ZM1056.44 126H1059.78V121.216C1059.78 119.872 1060.61 119.024 1061.73 119.024C1062.84 119.024 1063.33 119.824 1063.33 120.976V126H1066.68V123.76H1065.6V120.624C1065.6 118.416 1064.48 116.944 1062.63 116.944C1061.43 116.944 1060.34 117.568 1059.78 118.464V117.328H1056.44V119.296H1057.52V123.76H1056.44V126ZM1068.52 126H1071.87V123.76H1070.78V119.296H1071.87V117.328H1070.78V114.64H1068.52V117.328H1067.44V119.296H1068.52V126ZM1077.52 126.368C1079.7 126.368 1081.46 125.2 1082.02 123.328H1079.57C1079.17 123.968 1078.44 124.352 1077.57 124.352C1076.4 124.352 1075.46 123.584 1075.36 122.4H1082.18C1082.23 121.968 1082.23 121.776 1082.23 121.424C1082.23 118.848 1080.42 116.944 1077.64 116.944C1074.84 116.944 1072.98 118.832 1072.98 121.664C1072.98 124.48 1074.82 126.368 1077.52 126.368ZM1075.38 120.816C1075.54 119.776 1076.4 118.976 1077.65 118.976C1078.87 118.976 1079.76 119.712 1079.91 120.816H1075.38ZM1086.88 126.368C1088.64 126.368 1089.92 125.264 1089.92 123.584C1089.92 121.648 1088.26 120.928 1087.06 120.544C1086.21 120.272 1085.48 120.016 1085.48 119.456C1085.48 119.04 1085.86 118.704 1086.44 118.704C1087 118.704 1087.4 119.04 1087.44 119.584H1089.67V117.328H1088.4V117.856C1088.05 117.328 1087.28 116.944 1086.23 116.944C1084.5 116.944 1083.22 117.92 1083.22 119.52C1083.22 121.232 1084.69 121.888 1085.92 122.304C1086.93 122.64 1087.67 122.912 1087.67 123.568C1087.67 124.08 1087.24 124.48 1086.55 124.48C1085.83 124.48 1085.33 124.048 1085.33 123.408H1083.08V126H1084.47V125.408C1085.03 126.064 1085.94 126.368 1086.88 126.368ZM1090.3 127.296H1092.01L1093.65 123.536H1091.33L1090.3 127.296ZM1103.42 126.368C1104.82 126.368 1105.71 125.76 1106.32 124.864V126H1109.66V123.76H1108.58V119.296H1109.66V117.328H1106.32V118.464C1105.7 117.584 1104.77 116.944 1103.38 116.944C1100.96 116.944 1099.12 118.816 1099.12 121.648C1099.12 124.48 1100.99 126.368 1103.42 126.368ZM1103.89 124.224C1102.42 124.224 1101.44 123.2 1101.44 121.648C1101.44 120.128 1102.42 119.104 1103.89 119.104C1105.34 119.104 1106.32 120.128 1106.32 121.648C1106.32 123.2 1105.34 124.224 1103.89 124.224ZM1112.87 129.36H1115.37L1119.19 119.296H1120.28V117.328H1117.48L1115.54 122.944L1113.53 117.328H1110.68V119.296H1111.77L1114.33 125.728L1113.82 127.12H1112.87V129.36ZM1125.17 126.368C1126.37 126.368 1127.36 125.76 1127.92 124.848V126H1131.26V123.76H1130.19V119.296H1131.26V117.328H1127.92V122.368C1127.92 123.456 1127.1 124.304 1126.02 124.304C1124.96 124.304 1124.46 123.52 1124.46 122.336V117.328H1121.12V119.296H1122.21V122.704C1122.21 124.912 1123.31 126.368 1125.17 126.368ZM1136.42 126.368C1137.82 126.368 1138.71 125.76 1139.32 124.864V126H1142.66V123.76H1141.58V114.16H1138.23V116.144H1139.32V118.464C1138.7 117.584 1137.77 116.944 1136.38 116.944C1133.96 116.944 1132.12 118.816 1132.12 121.648C1132.12 124.48 1133.99 126.368 1136.42 126.368ZM1136.95 124.224C1135.45 124.224 1134.44 123.2 1134.44 121.648C1134.44 120.128 1135.45 119.104 1136.95 119.104C1138.46 119.104 1139.45 120.128 1139.45 121.648C1139.45 123.2 1138.46 124.224 1136.95 124.224ZM1147.71 126.368C1149.1 126.368 1149.99 125.76 1150.6 124.864V126H1153.95V123.76H1152.86V119.296H1153.95V117.328H1150.6V118.464C1149.98 117.584 1149.05 116.944 1147.66 116.944C1145.24 116.944 1143.4 118.816 1143.4 121.648C1143.4 124.48 1145.27 126.368 1147.71 126.368ZM1148.17 124.224C1146.7 124.224 1145.72 123.2 1145.72 121.648C1145.72 120.128 1146.7 119.104 1148.17 119.104C1149.63 119.104 1150.6 120.128 1150.6 121.648C1150.6 123.2 1149.63 124.224 1148.17 124.224ZM1155.22 126H1158.56V121.216C1158.56 119.872 1159.39 119.024 1160.51 119.024C1161.62 119.024 1162.11 119.824 1162.11 120.976V126H1165.46V123.76H1164.39V120.624C1164.39 118.416 1163.27 116.944 1161.41 116.944C1160.21 116.944 1159.12 117.568 1158.56 118.464V117.328H1155.22V119.296H1156.31V123.76H1155.22V126ZM1170.46 126.368C1171.85 126.368 1172.74 125.76 1173.35 124.864V126H1176.7V123.76H1175.61V114.16H1172.26V116.144H1173.35V118.464C1172.73 117.584 1171.8 116.944 1170.41 116.944C1167.99 116.944 1166.15 118.816 1166.15 121.648C1166.15 124.48 1168.02 126.368 1170.46 126.368ZM1170.98 124.224C1169.48 124.224 1168.47 123.2 1168.47 121.648C1168.47 120.128 1169.48 119.104 1170.98 119.104C1172.49 119.104 1173.48 120.128 1173.48 121.648C1173.48 123.2 1172.49 124.224 1170.98 124.224ZM1182.15 126.368C1184.98 126.368 1186.89 124.48 1186.89 121.648C1186.89 118.832 1184.98 116.944 1182.15 116.944C1179.34 116.944 1177.43 118.832 1177.43 121.648C1177.43 124.48 1179.34 126.368 1182.15 126.368ZM1182.17 124.224C1180.73 124.224 1179.75 123.2 1179.75 121.648C1179.75 120.128 1180.73 119.104 1182.17 119.104C1183.61 119.104 1184.57 120.128 1184.57 121.648C1184.57 123.2 1183.61 124.224 1182.17 124.224ZM1195.91 126.368C1197.3 126.368 1198.2 125.76 1198.8 124.864V126H1202.15V123.76H1201.06V119.296H1202.15V117.328H1198.8V118.464C1198.18 117.584 1197.25 116.944 1195.86 116.944C1193.44 116.944 1191.6 118.816 1191.6 121.648C1191.6 124.48 1193.48 126.368 1195.91 126.368ZM1196.37 124.224C1194.9 124.224 1193.92 123.2 1193.92 121.648C1193.92 120.128 1194.9 119.104 1196.37 119.104C1197.83 119.104 1198.8 120.128 1198.8 121.648C1198.8 123.2 1197.83 124.224 1196.37 124.224ZM1207.99 126H1211.33V123.76H1210.24V114.096H1206.9V116.08H1207.99V126ZM1216.39 126.368C1217.79 126.368 1218.68 125.76 1219.29 124.864V126H1222.63V123.76H1221.55V119.296H1222.63V117.328H1219.29V118.464C1218.67 117.584 1217.74 116.944 1216.35 116.944C1213.93 116.944 1212.09 118.816 1212.09 121.648C1212.09 124.48 1213.96 126.368 1216.39 126.368ZM1216.86 124.224C1215.39 124.224 1214.41 123.2 1214.41 121.648C1214.41 120.128 1215.39 119.104 1216.86 119.104C1218.31 119.104 1219.29 120.128 1219.29 121.648C1219.29 123.2 1218.31 124.224 1216.86 124.224ZM896.768 148.368C898.16 148.368 899.056 147.76 899.664 146.864V148H903.008V145.76H901.92V136.16H898.576V138.144H899.664V140.464C899.04 139.584 898.112 138.944 896.72 138.944C894.304 138.944 892.464 140.816 892.464 143.648C892.464 146.48 894.336 148.368 896.768 148.368ZM897.296 146.224C895.792 146.224 894.784 145.2 894.784 143.648C894.784 142.128 895.792 141.104 897.296 141.104C898.8 141.104 899.792 142.128 899.792 143.648C899.792 145.2 898.8 146.224 897.296 146.224ZM905.038 138.576H907.294V136.32H905.038V138.576ZM905.054 148H908.398V145.76H907.31V139.328H903.966V141.296H905.054V148ZM914.016 151.36C916.688 151.36 918.608 149.872 918.608 146.256V141.296H919.696V139.328H916.352V140.464C915.728 139.584 914.8 138.944 913.408 138.944C910.992 138.944 909.152 140.816 909.152 143.648C909.152 146.48 911.008 148.112 913.52 148.112C914.832 148.112 915.744 147.632 916.352 146.864V147.328C916.352 148.608 915.376 149.488 913.936 149.488C913.056 149.488 912.272 149.152 911.92 148.704H909.584C910.176 150.352 911.84 151.36 914.016 151.36ZM913.92 146.224C912.448 146.224 911.472 145.2 911.472 143.648C911.472 142.128 912.448 141.104 913.92 141.104C915.376 141.104 916.352 142.128 916.352 143.648C916.352 145.2 915.376 146.224 913.92 146.224ZM924.992 148.368C927.168 148.368 928.928 147.2 929.488 145.328H927.04C926.64 145.968 925.904 146.352 925.04 146.352C923.872 146.352 922.928 145.584 922.832 144.4H929.648C929.696 143.968 929.696 143.776 929.696 143.424C929.696 140.848 927.888 138.944 925.104 138.944C922.304 138.944 920.448 140.832 920.448 143.664C920.448 146.48 922.288 148.368 924.992 148.368ZM922.848 142.816C923.008 141.776 923.872 140.976 925.12 140.976C926.336 140.976 927.232 141.712 927.376 142.816H922.848ZM934.352 148.368C936.112 148.368 937.392 147.264 937.392 145.584C937.392 143.648 935.728 142.928 934.528 142.544C933.68 142.272 932.944 142.016 932.944 141.456C932.944 141.04 933.328 140.704 933.904 140.704C934.464 140.704 934.864 141.04 934.912 141.584H937.136V139.328H935.872V139.856C935.52 139.328 934.752 138.944 933.696 138.944C931.968 138.944 930.688 139.92 930.688 141.52C930.688 143.232 932.16 143.888 933.392 144.304C934.4 144.64 935.136 144.912 935.136 145.568C935.136 146.08 934.704 146.48 934.016 146.48C933.296 146.48 932.8 146.048 932.8 145.408H930.544V148H931.936V147.408C932.496 148.064 933.408 148.368 934.352 148.368ZM939.586 148H942.93V145.76H941.842V141.296H942.93V139.328H941.842V136.64H939.586V139.328H938.498V141.296H939.586V148ZM945.335 138.576H947.591V136.32H945.335V138.576ZM945.351 148H948.695V145.76H947.607V139.328H944.263V141.296H945.351V148ZM953 138.544L957.08 136.816L956.184 135.104L952.424 137.408L953 138.544ZM954.168 148.368C957 148.368 958.904 146.48 958.904 143.648C958.904 140.832 957 138.944 954.168 138.944C951.352 138.944 949.448 140.832 949.448 143.648C949.448 146.48 951.352 148.368 954.168 148.368ZM954.184 146.224C952.744 146.224 951.768 145.2 951.768 143.648C951.768 142.128 952.744 141.104 954.184 141.104C955.624 141.104 956.584 142.128 956.584 143.648C956.584 145.2 955.624 146.224 954.184 146.224ZM959.781 148H963.125V143.216C963.125 141.872 963.957 141.024 965.077 141.024C966.181 141.024 966.677 141.824 966.677 142.976V148H970.021V145.76H968.949V142.624C968.949 140.416 967.829 138.944 965.973 138.944C964.773 138.944 963.685 139.568 963.125 140.464V139.328H959.781V141.296H960.869V145.76H959.781V148ZM976.842 151.36H979.338L983.162 141.296H984.25V139.328H981.45L979.514 144.944L977.498 139.328H974.65V141.296H975.738L978.298 147.728L977.786 149.12H976.842V151.36ZM990.086 148H993.43V145.76H992.342V141.296H993.43V139.328H992.342V136.64H990.086V139.328H988.998V141.296H990.086V148ZM994.843 148H998.187V143.344C998.187 142.24 998.747 141.424 999.707 141.424C999.963 141.424 1000.36 141.488 1000.72 141.568V139.328C1000.49 139.28 1000.28 139.264 1000.09 139.264C999.067 139.264 998.443 139.872 998.059 140.576V139.328H994.843V141.296H995.931V145.76H994.843V148ZM1005 138.544L1009.08 136.816L1008.19 135.104L1004.43 137.408L1005 138.544ZM1005.56 148.368C1006.96 148.368 1007.85 147.76 1008.46 146.864V148H1011.8V145.76H1010.72V141.296H1011.8V139.328H1008.46V140.464C1007.84 139.584 1006.91 138.944 1005.52 138.944C1003.1 138.944 1001.26 140.816 1001.26 143.648C1001.26 146.48 1003.13 148.368 1005.56 148.368ZM1006.03 146.224C1004.56 146.224 1003.58 145.2 1003.58 143.648C1003.58 142.128 1004.56 141.104 1006.03 141.104C1007.48 141.104 1008.46 142.128 1008.46 143.648C1008.46 145.2 1007.48 146.224 1006.03 146.224ZM1013.08 148H1016.42V143.216C1016.42 141.872 1017.25 141.024 1018.37 141.024C1019.48 141.024 1019.97 141.824 1019.97 142.976V148H1023.32V145.76H1022.25V142.624C1022.25 140.416 1021.13 138.944 1019.27 138.944C1018.07 138.944 1016.98 139.568 1016.42 140.464V139.328H1013.08V141.296H1014.17V145.76H1013.08V148ZM1028.16 148.368C1029.92 148.368 1031.2 147.264 1031.2 145.584C1031.2 143.648 1029.54 142.928 1028.34 142.544C1027.49 142.272 1026.76 142.016 1026.76 141.456C1026.76 141.04 1027.14 140.704 1027.72 140.704C1028.28 140.704 1028.68 141.04 1028.72 141.584H1030.95V139.328H1029.68V139.856C1029.33 139.328 1028.56 138.944 1027.51 138.944C1025.78 138.944 1024.5 139.92 1024.5 141.52C1024.5 143.232 1025.97 143.888 1027.2 144.304C1028.21 144.64 1028.95 144.912 1028.95 145.568C1028.95 146.08 1028.52 146.48 1027.83 146.48C1027.11 146.48 1026.61 146.048 1026.61 145.408H1024.36V148H1025.75V147.408C1026.31 148.064 1027.22 148.368 1028.16 148.368ZM1033.35 138.576H1035.61V136.32H1033.35V138.576ZM1033.37 148H1036.71V145.76H1035.62V139.328H1032.28V141.296H1033.37V148ZM1038.93 148H1042.27V145.76H1041.19V141.296H1042.27V139.328H1041.19V136.64H1038.93V139.328H1037.84V141.296H1038.93V148ZM1048.11 148.368C1050.94 148.368 1052.84 146.48 1052.84 143.648C1052.84 140.832 1050.94 138.944 1048.11 138.944C1045.29 138.944 1043.39 140.832 1043.39 143.648C1043.39 146.48 1045.29 148.368 1048.11 148.368ZM1048.12 146.224C1046.68 146.224 1045.71 145.2 1045.71 143.648C1045.71 142.128 1046.68 141.104 1048.12 141.104C1049.56 141.104 1050.52 142.128 1050.52 143.648C1050.52 145.2 1049.56 146.224 1048.12 146.224ZM1062.42 151.36C1065.09 151.36 1067.01 149.872 1067.01 146.256V141.296H1068.1V139.328H1064.76V140.464C1064.13 139.584 1063.21 138.944 1061.81 138.944C1059.4 138.944 1057.56 140.816 1057.56 143.648C1057.56 146.48 1059.41 148.112 1061.93 148.112C1063.24 148.112 1064.15 147.632 1064.76 146.864V147.328C1064.76 148.608 1063.78 149.488 1062.34 149.488C1061.46 149.488 1060.68 149.152 1060.33 148.704H1057.99C1058.58 150.352 1060.25 151.36 1062.42 151.36ZM1062.33 146.224C1060.85 146.224 1059.88 145.2 1059.88 143.648C1059.88 142.128 1060.85 141.104 1062.33 141.104C1063.78 141.104 1064.76 142.128 1064.76 143.648C1064.76 145.2 1063.78 146.224 1062.33 146.224ZM1073.16 148.368C1074.55 148.368 1075.45 147.76 1076.05 146.864V148H1079.4V145.76H1078.31V141.296H1079.4V139.328H1076.05V140.464C1075.43 139.584 1074.5 138.944 1073.11 138.944C1070.69 138.944 1068.85 140.816 1068.85 143.648C1068.85 146.48 1070.73 148.368 1073.16 148.368ZM1073.62 146.224C1072.15 146.224 1071.17 145.2 1071.17 143.648C1071.17 142.128 1072.15 141.104 1073.62 141.104C1075.08 141.104 1076.05 142.128 1076.05 143.648C1076.05 145.2 1075.08 146.224 1073.62 146.224ZM1084.4 148.368C1086.16 148.368 1087.44 147.264 1087.44 145.584C1087.44 143.648 1085.78 142.928 1084.58 142.544C1083.73 142.272 1082.99 142.016 1082.99 141.456C1082.99 141.04 1083.38 140.704 1083.95 140.704C1084.51 140.704 1084.91 141.04 1084.96 141.584H1087.18V139.328H1085.92V139.856C1085.57 139.328 1084.8 138.944 1083.74 138.944C1082.02 138.944 1080.74 139.92 1080.74 141.52C1080.74 143.232 1082.21 143.888 1083.44 144.304C1084.45 144.64 1085.18 144.912 1085.18 145.568C1085.18 146.08 1084.75 146.48 1084.06 146.48C1083.34 146.48 1082.85 146.048 1082.85 145.408H1080.59V148H1081.98V147.408C1082.54 148.064 1083.46 148.368 1084.4 148.368ZM1089.63 148H1092.98V145.76H1091.89V141.296H1092.98V139.328H1091.89V136.64H1089.63V139.328H1088.55V141.296H1089.63V148ZM1094.39 148H1097.73V143.344C1097.73 142.24 1098.29 141.424 1099.25 141.424C1099.51 141.424 1099.91 141.488 1100.26 141.568V139.328C1100.04 139.28 1099.83 139.264 1099.64 139.264C1098.61 139.264 1097.99 139.872 1097.61 140.576V139.328H1094.39V141.296H1095.48V145.76H1094.39V148ZM1105.53 148.368C1108.36 148.368 1110.26 146.48 1110.26 143.648C1110.26 140.832 1108.36 138.944 1105.53 138.944C1102.71 138.944 1100.81 140.832 1100.81 143.648C1100.81 146.48 1102.71 148.368 1105.53 148.368ZM1105.54 146.224C1104.1 146.224 1103.13 145.2 1103.13 143.648C1103.13 142.128 1104.1 141.104 1105.54 141.104C1106.98 141.104 1107.94 142.128 1107.94 143.648C1107.94 145.2 1106.98 146.224 1105.54 146.224ZM1112.32 138.576H1114.58V136.32H1112.32V138.576ZM1112.34 148H1115.68V145.76H1114.59V139.328H1111.25V141.296H1112.34V148ZM1116.86 148H1120.2V143.216C1120.2 141.872 1121.03 141.024 1122.15 141.024C1123.26 141.024 1123.75 141.824 1123.75 142.976V148H1127.1V145.76H1126.03V142.624C1126.03 140.416 1124.91 138.944 1123.05 138.944C1121.85 138.944 1120.76 139.568 1120.2 140.464V139.328H1116.86V141.296H1117.95V145.76H1116.86V148ZM1128.95 148H1132.29V145.76H1131.2V141.296H1132.29V139.328H1131.2V136.64H1128.95V139.328H1127.86V141.296H1128.95V148ZM1137.95 148.368C1140.12 148.368 1141.88 147.2 1142.44 145.328H1139.99C1139.59 145.968 1138.86 146.352 1137.99 146.352C1136.83 146.352 1135.88 145.584 1135.79 144.4H1142.6C1142.65 143.968 1142.65 143.776 1142.65 143.424C1142.65 140.848 1140.84 138.944 1138.06 138.944C1135.26 138.944 1133.4 140.832 1133.4 143.664C1133.4 146.48 1135.24 148.368 1137.95 148.368ZM1135.8 142.816C1135.96 141.776 1136.83 140.976 1138.07 140.976C1139.29 140.976 1140.19 141.712 1140.33 142.816H1135.8ZM1147.31 148.368C1149.07 148.368 1150.35 147.264 1150.35 145.584C1150.35 143.648 1148.68 142.928 1147.48 142.544C1146.63 142.272 1145.9 142.016 1145.9 141.456C1145.9 141.04 1146.28 140.704 1146.86 140.704C1147.42 140.704 1147.82 141.04 1147.87 141.584H1150.09V139.328H1148.83V139.856C1148.47 139.328 1147.71 138.944 1146.65 138.944C1144.92 138.944 1143.64 139.92 1143.64 141.52C1143.64 143.232 1145.11 143.888 1146.35 144.304C1147.35 144.64 1148.09 144.912 1148.09 145.568C1148.09 146.08 1147.66 146.48 1146.97 146.48C1146.25 146.48 1145.75 146.048 1145.75 145.408H1143.5V148H1144.89V147.408C1145.45 148.064 1146.36 148.368 1147.31 148.368ZM1152.54 148H1155.88V145.76H1154.8V141.296H1155.88V139.328H1154.8V136.64H1152.54V139.328H1151.45V141.296H1152.54V148ZM1158.29 138.576H1160.54V136.32H1158.29V138.576ZM1158.3 148H1161.65V145.76H1160.56V139.328H1157.22V141.296H1158.3V148ZM1162.83 148H1166.17V143.216C1166.17 141.872 1167 141.024 1168.12 141.024C1169.23 141.024 1169.72 141.824 1169.72 142.976V148H1173.07V145.76H1172V142.624C1172 140.416 1170.88 138.944 1169.02 138.944C1167.82 138.944 1166.73 139.568 1166.17 140.464V139.328H1162.83V141.296H1163.92V145.76H1162.83V148ZM1178.06 148.368C1179.46 148.368 1180.35 147.76 1180.96 146.864V148H1184.3V145.76H1183.22V141.296H1184.3V139.328H1180.96V140.464C1180.34 139.584 1179.41 138.944 1178.02 138.944C1175.6 138.944 1173.76 140.816 1173.76 143.648C1173.76 146.48 1175.63 148.368 1178.06 148.368ZM1178.53 146.224C1177.06 146.224 1176.08 145.2 1176.08 143.648C1176.08 142.128 1177.06 141.104 1178.53 141.104C1179.98 141.104 1180.96 142.128 1180.96 143.648C1180.96 145.2 1179.98 146.224 1178.53 146.224ZM1186.38 148H1189.72V145.76H1188.63V136.096H1185.29V138.08H1186.38V148ZM1191.22 148H1193.54V145.536H1191.22V148Z" fill="#D9EEEF"/>
  <circle opacity="0.5" cx="852.5" cy="130.5" r="17.5" fill="white"/>
  <circle cx="852.5" cy="130.5" r="9.5" fill="white"/>
  <path d="M840.816 24.368C843.904 24.368 845.856 22.704 846.512 20.416H843.84C843.344 21.44 842.224 22.112 840.8 22.112C838.752 22.112 837.312 20.592 837.312 18.32C837.312 16.048 838.752 14.528 840.784 14.528C842.016 14.528 843.04 15.072 843.664 15.92H846.368V12.64H844.288V13.936C843.392 12.912 842.08 12.272 840.352 12.272C837.056 12.272 834.592 14.688 834.592 18.304C834.592 21.968 837.104 24.368 840.816 24.368ZM852.059 24.368C854.891 24.368 856.795 22.48 856.795 19.648C856.795 16.832 854.891 14.944 852.059 14.944C849.243 14.944 847.339 16.832 847.339 19.648C847.339 22.48 849.243 24.368 852.059 24.368ZM852.075 22.224C850.635 22.224 849.659 21.2 849.659 19.648C849.659 18.128 850.635 17.104 852.075 17.104C853.515 17.104 854.475 18.128 854.475 19.648C854.475 21.2 853.515 22.224 852.075 22.224ZM857.671 24H861.015V19.216C861.015 17.872 861.847 17.024 862.967 17.024C864.071 17.024 864.567 17.824 864.567 18.976V24H867.911V21.76H866.839V18.624C866.839 16.416 865.719 14.944 863.863 14.944C862.663 14.944 861.575 15.568 861.015 16.464V15.328H857.671V17.296H858.759V21.76H857.671V24ZM872.909 24.368C874.301 24.368 875.197 23.76 875.805 22.864V24H879.149V21.76H878.061V12.16H874.717V14.144H875.805V16.464C875.181 15.584 874.253 14.944 872.861 14.944C870.445 14.944 868.605 16.816 868.605 19.648C868.605 22.48 870.477 24.368 872.909 24.368ZM873.437 22.224C871.933 22.224 870.925 21.2 870.925 19.648C870.925 18.128 871.933 17.104 873.437 17.104C874.941 17.104 875.933 18.128 875.933 19.648C875.933 21.2 874.941 22.224 873.437 22.224ZM881.179 14.576H883.435V12.32H881.179V14.576ZM881.195 24H884.539V21.76H883.451V15.328H880.107V17.296H881.195V24ZM890.012 24.368C892.46 24.368 894.22 22.96 894.636 20.752H892.236C891.9 21.664 891.068 22.224 890.012 22.224C888.588 22.224 887.612 21.2 887.612 19.648C887.612 18.128 888.572 17.104 890.012 17.104C891.02 17.104 891.804 17.616 892.204 18.496H894.524V15.328H892.748V16.176C892.172 15.424 891.116 14.944 889.804 14.944C887.292 14.944 885.292 16.816 885.292 19.648C885.292 22.48 887.196 24.368 890.012 24.368ZM896.601 14.576H898.857V12.32H896.601V14.576ZM896.617 24H899.961V21.76H898.873V15.328H895.529V17.296H896.617V24ZM904.266 14.544L908.346 12.816L907.45 11.104L903.69 13.408L904.266 14.544ZM905.434 24.368C908.266 24.368 910.17 22.48 910.17 19.648C910.17 16.832 908.266 14.944 905.434 14.944C902.618 14.944 900.714 16.832 900.714 19.648C900.714 22.48 902.618 24.368 905.434 24.368ZM905.45 22.224C904.01 22.224 903.034 21.2 903.034 19.648C903.034 18.128 904.01 17.104 905.45 17.104C906.89 17.104 907.85 18.128 907.85 19.648C907.85 21.2 906.89 22.224 905.45 22.224ZM911.046 24H914.39V19.216C914.39 17.872 915.222 17.024 916.342 17.024C917.446 17.024 917.942 17.824 917.942 18.976V24H921.286V21.76H920.214V18.624C920.214 16.416 919.094 14.944 917.238 14.944C916.038 14.944 914.95 15.568 914.39 16.464V15.328H911.046V17.296H912.134V21.76H911.046V24ZM930.299 24.368C931.691 24.368 932.587 23.76 933.195 22.864V24H936.539V21.76H935.451V12.16H932.107V14.144H933.195V16.464C932.571 15.584 931.643 14.944 930.251 14.944C927.835 14.944 925.995 16.816 925.995 19.648C925.995 22.48 927.867 24.368 930.299 24.368ZM930.827 22.224C929.323 22.224 928.315 21.2 928.315 19.648C928.315 18.128 929.323 17.104 930.827 17.104C932.331 17.104 933.323 18.128 933.323 19.648C933.323 21.2 932.331 22.224 930.827 22.224ZM941.821 24.368C943.997 24.368 945.757 23.2 946.317 21.328H943.869C943.469 21.968 942.733 22.352 941.869 22.352C940.701 22.352 939.757 21.584 939.661 20.4H946.477C946.525 19.968 946.525 19.776 946.525 19.424C946.525 16.848 944.717 14.944 941.933 14.944C939.133 14.944 937.277 16.832 937.277 19.664C937.277 22.48 939.117 24.368 941.821 24.368ZM939.677 18.816C939.837 17.776 940.701 16.976 941.949 16.976C943.165 16.976 944.061 17.712 944.205 18.816H939.677ZM951.31 27.36H954.654V22.864C955.262 23.76 956.158 24.368 957.534 24.368C959.982 24.368 961.854 22.48 961.854 19.648C961.854 16.816 959.998 14.944 957.598 14.944C956.206 14.944 955.262 15.584 954.654 16.464V15.328H951.31V17.296H952.398V25.12H951.31V27.36ZM957.022 22.224C955.518 22.224 954.526 21.2 954.526 19.648C954.526 18.128 955.518 17.104 957.022 17.104C958.526 17.104 959.534 18.128 959.534 19.648C959.534 21.2 958.526 22.224 957.022 22.224ZM963.882 14.576H966.138V12.32H963.882V14.576ZM963.898 24H967.242V21.76H966.154V15.328H962.81V17.296H963.898V24ZM972.539 24.368C974.715 24.368 976.475 23.2 977.035 21.328H974.587C974.187 21.968 973.451 22.352 972.587 22.352C971.419 22.352 970.475 21.584 970.379 20.4H977.195C977.243 19.968 977.243 19.776 977.243 19.424C977.243 16.848 975.435 14.944 972.651 14.944C969.851 14.944 967.995 16.832 967.995 19.664C967.995 22.48 969.835 24.368 972.539 24.368ZM970.395 18.816C970.555 17.776 971.419 16.976 972.667 16.976C973.883 16.976 974.779 17.712 974.923 18.816H970.395ZM978.893 24H982.237V21.76H981.149V12.096H977.805V14.08H978.893V24ZM989.123 27.36H991.619L995.443 17.296H996.531V15.328H993.731L991.795 20.944L989.779 15.328H986.931V17.296H988.019L990.579 23.728L990.067 25.12H989.123V27.36ZM1001.25 27.36H1004.59V22.864C1005.2 23.76 1006.1 24.368 1007.47 24.368C1009.92 24.368 1011.79 22.48 1011.79 19.648C1011.79 16.816 1009.94 14.944 1007.54 14.944C1006.14 14.944 1005.2 15.584 1004.59 16.464V15.328H1001.25V17.296H1002.34V25.12H1001.25V27.36ZM1006.96 22.224C1005.46 22.224 1004.46 21.2 1004.46 19.648C1004.46 18.128 1005.46 17.104 1006.96 17.104C1008.46 17.104 1009.47 18.128 1009.47 19.648C1009.47 21.2 1008.46 22.224 1006.96 22.224ZM1017.26 24.368C1019.43 24.368 1021.19 23.2 1021.75 21.328H1019.31C1018.91 21.968 1018.17 22.352 1017.31 22.352C1016.14 22.352 1015.19 21.584 1015.1 20.4H1021.91C1021.96 19.968 1021.96 19.776 1021.96 19.424C1021.96 16.848 1020.15 14.944 1017.37 14.944C1014.57 14.944 1012.71 16.832 1012.71 19.664C1012.71 22.48 1014.55 24.368 1017.26 24.368ZM1015.11 18.816C1015.27 17.776 1016.14 16.976 1017.39 16.976C1018.6 16.976 1019.5 17.712 1019.64 18.816H1015.11ZM1023.61 24H1026.96V21.76H1025.87V12.096H1022.52V14.08H1023.61V24ZM1032.02 24.368C1033.41 24.368 1034.31 23.76 1034.91 22.864V24H1038.26V21.76H1037.17V17.296H1038.26V15.328H1034.91V16.464C1034.29 15.584 1033.36 14.944 1031.97 14.944C1029.55 14.944 1027.71 16.816 1027.71 19.648C1027.71 22.48 1029.59 24.368 1032.02 24.368ZM1032.48 22.224C1031.01 22.224 1030.03 21.2 1030.03 19.648C1030.03 18.128 1031.01 17.104 1032.48 17.104C1033.94 17.104 1034.91 18.128 1034.91 19.648C1034.91 21.2 1033.94 22.224 1032.48 22.224ZM1040.55 14.576H1042.81V12.32H1040.55V14.576ZM1039.45 27.36H1040.06C1041.71 27.36 1042.81 26.256 1042.81 24.592V15.328H1039.47V17.296H1040.55V24.08C1040.55 24.688 1040.25 25.104 1039.8 25.104H1039.45V27.36ZM1048.74 24.368C1050.92 24.368 1052.68 23.2 1053.24 21.328H1050.79C1050.39 21.968 1049.65 22.352 1048.79 22.352C1047.62 22.352 1046.68 21.584 1046.58 20.4H1053.4C1053.45 19.968 1053.45 19.776 1053.45 19.424C1053.45 16.848 1051.64 14.944 1048.85 14.944C1046.05 14.944 1044.2 16.832 1044.2 19.664C1044.2 22.48 1046.04 24.368 1048.74 24.368ZM1046.6 18.816C1046.76 17.776 1047.62 16.976 1048.87 16.976C1050.09 16.976 1050.98 17.712 1051.13 18.816H1046.6ZM1058.31 24H1061.66V19.264C1061.66 17.808 1062.39 17.024 1063.43 17.024C1064.44 17.024 1064.9 17.744 1064.9 18.976V24H1067.16V19.264C1067.16 17.808 1067.9 17.024 1068.94 17.024C1069.94 17.024 1070.39 17.744 1070.39 18.976V24H1073.74V21.76H1072.66V18.624C1072.66 16.336 1071.59 14.944 1069.83 14.944C1068.31 14.944 1067.43 15.648 1066.86 16.832C1066.44 15.616 1065.54 14.944 1064.33 14.944C1063.22 14.944 1062.2 15.488 1061.66 16.448V15.328H1058.31V17.296H1059.4V21.76H1058.31V24ZM1078.18 14.544L1082.26 12.816L1081.36 11.104L1077.6 13.408L1078.18 14.544ZM1078.74 24.368C1080.13 24.368 1081.02 23.76 1081.63 22.864V24H1084.98V21.76H1083.89V17.296H1084.98V15.328H1081.63V16.464C1081.01 15.584 1080.08 14.944 1078.69 14.944C1076.27 14.944 1074.43 16.816 1074.43 19.648C1074.43 22.48 1076.3 24.368 1078.74 24.368ZM1079.2 22.224C1077.73 22.224 1076.75 21.2 1076.75 19.648C1076.75 18.128 1077.73 17.104 1079.2 17.104C1080.66 17.104 1081.63 18.128 1081.63 19.648C1081.63 21.2 1080.66 22.224 1079.2 22.224ZM1089.98 24.368C1091.74 24.368 1093.02 23.264 1093.02 21.584C1093.02 19.648 1091.35 18.928 1090.15 18.544C1089.31 18.272 1088.57 18.016 1088.57 17.456C1088.57 17.04 1088.95 16.704 1089.53 16.704C1090.09 16.704 1090.49 17.04 1090.54 17.584H1092.76V15.328H1091.5V15.856C1091.15 15.328 1090.38 14.944 1089.32 14.944C1087.59 14.944 1086.31 15.92 1086.31 17.52C1086.31 19.232 1087.79 19.888 1089.02 20.304C1090.03 20.64 1090.76 20.912 1090.76 21.568C1090.76 22.08 1090.33 22.48 1089.64 22.48C1088.92 22.48 1088.43 22.048 1088.43 21.408H1086.17V24H1087.56V23.408C1088.12 24.064 1089.03 24.368 1089.98 24.368ZM1101.66 24.368C1103.42 24.368 1104.7 23.264 1104.7 21.584C1104.7 19.648 1103.04 18.928 1101.84 18.544C1100.99 18.272 1100.26 18.016 1100.26 17.456C1100.26 17.04 1100.64 16.704 1101.22 16.704C1101.78 16.704 1102.18 17.04 1102.22 17.584H1104.45V15.328H1103.18V15.856C1102.83 15.328 1102.06 14.944 1101.01 14.944C1099.28 14.944 1098 15.92 1098 17.52C1098 19.232 1099.47 19.888 1100.7 20.304C1101.71 20.64 1102.45 20.912 1102.45 21.568C1102.45 22.08 1102.02 22.48 1101.33 22.48C1100.61 22.48 1100.11 22.048 1100.11 21.408H1097.86V24H1099.25V23.408C1099.81 24.064 1100.72 24.368 1101.66 24.368ZM1109.53 24.368C1110.73 24.368 1111.72 23.76 1112.28 22.848V24H1115.62V21.76H1114.55V17.296H1115.62V15.328H1112.28V20.368C1112.28 21.456 1111.46 22.304 1110.38 22.304C1109.32 22.304 1108.82 21.52 1108.82 20.336V15.328H1105.48V17.296H1106.57V20.704C1106.57 22.912 1107.67 24.368 1109.53 24.368ZM1120.78 24.368C1122.18 24.368 1123.07 23.76 1123.68 22.864V24H1127.02V21.76H1125.94V17.296H1127.02V15.328H1123.68V16.464C1123.06 15.584 1122.13 14.944 1120.74 14.944C1118.32 14.944 1116.48 16.816 1116.48 19.648C1116.48 22.48 1118.35 24.368 1120.78 24.368ZM1121.25 22.224C1119.78 22.224 1118.8 21.2 1118.8 19.648C1118.8 18.128 1119.78 17.104 1121.25 17.104C1122.7 17.104 1123.68 18.128 1123.68 19.648C1123.68 21.2 1122.7 22.224 1121.25 22.224ZM1131.66 24H1133.98L1136.42 17.296H1137.51V15.328H1134.81L1132.82 21.184L1130.82 15.328H1128.12V17.296H1129.21L1131.66 24ZM1142.57 24.368C1144.75 24.368 1146.51 23.2 1147.07 21.328H1144.62C1144.22 21.968 1143.48 22.352 1142.62 22.352C1141.45 22.352 1140.51 21.584 1140.41 20.4H1147.23C1147.27 19.968 1147.27 19.776 1147.27 19.424C1147.27 16.848 1145.47 14.944 1142.68 14.944C1139.88 14.944 1138.03 16.832 1138.03 19.664C1138.03 22.48 1139.87 24.368 1142.57 24.368ZM1140.43 18.816C1140.59 17.776 1141.45 16.976 1142.7 16.976C1143.91 16.976 1144.81 17.712 1144.95 18.816H1140.43ZM1151.93 24.368C1153.69 24.368 1154.97 23.264 1154.97 21.584C1154.97 19.648 1153.31 18.928 1152.11 18.544C1151.26 18.272 1150.52 18.016 1150.52 17.456C1150.52 17.04 1150.91 16.704 1151.48 16.704C1152.04 16.704 1152.44 17.04 1152.49 17.584H1154.71V15.328H1153.45V15.856C1153.1 15.328 1152.33 14.944 1151.27 14.944C1149.55 14.944 1148.27 15.92 1148.27 17.52C1148.27 19.232 1149.74 19.888 1150.97 20.304C1151.98 20.64 1152.71 20.912 1152.71 21.568C1152.71 22.08 1152.28 22.48 1151.59 22.48C1150.87 22.48 1150.38 22.048 1150.38 21.408H1148.12V24H1149.51V23.408C1150.07 24.064 1150.99 24.368 1151.93 24.368ZM1156.2 24H1158.52V21.536H1156.2V24Z" fill="#D9EEEF"/>
  <circle opacity="0.5" cx="798.5" cy="17.5" r="17.5" fill="white"/>
  <circle cx="798.5" cy="17.5" r="9.5" fill="white"/>
  </svg>
  