<svg width="341" height="206" viewBox="0 0 341 206" fill="none" xmlns="http://www.w3.org/2000/svg">
  <path d="M42.756 58H47.236C50.372 58 52.458 56.012 52.458 53.03C52.458 50.048 50.372 48.06 47.236 48.06H42.756V50.02H43.792V56.04H42.756V58ZM46.046 56.04V50.02H47.166C48.916 50.02 50.092 51.224 50.092 53.03C50.092 54.836 48.916 56.04 47.166 56.04H46.046ZM57.3195 58.322C59.2235 58.322 60.7635 57.3 61.2535 55.662H59.1115C58.7615 56.222 58.1175 56.558 57.3615 56.558C56.3395 56.558 55.5135 55.886 55.4295 54.85H61.3935C61.4355 54.472 61.4355 54.304 61.4355 53.996C61.4355 51.742 59.8535 50.076 57.4175 50.076C54.9675 50.076 53.3435 51.728 53.3435 54.206C53.3435 56.67 54.9535 58.322 57.3195 58.322ZM55.4435 53.464C55.5835 52.554 56.3395 51.854 57.4315 51.854C58.4955 51.854 59.2795 52.498 59.4055 53.464H55.4435ZM62.8791 58H65.8051V56.04H64.8531V47.584H61.9271V49.32H62.8791V58ZM67.7093 49.754H69.6833V47.78H67.7093V49.754ZM67.7233 58H70.6493V56.04H69.6973V50.412H66.7713V52.134H67.7233V58ZM75.4383 58.322C77.5803 58.322 79.1203 57.09 79.4843 55.158H77.3843C77.0903 55.956 76.3623 56.446 75.4383 56.446C74.1923 56.446 73.3383 55.55 73.3383 54.192C73.3383 52.862 74.1783 51.966 75.4383 51.966C76.3203 51.966 77.0063 52.414 77.3563 53.184H79.3863V50.412H77.8323V51.154C77.3283 50.496 76.4043 50.076 75.2563 50.076C73.0583 50.076 71.3083 51.714 71.3083 54.192C71.3083 56.67 72.9743 58.322 75.4383 58.322ZM81.2034 49.754H83.1774V47.78H81.2034V49.754ZM81.2174 58H84.1434V56.04H83.1914V50.412H80.2654V52.134H81.2174V58ZM88.9325 58.322C91.4105 58.322 93.0765 56.67 93.0765 54.192C93.0765 51.728 91.4105 50.076 88.9325 50.076C86.4685 50.076 84.8025 51.728 84.8025 54.192C84.8025 56.67 86.4685 58.322 88.9325 58.322ZM88.9465 56.446C87.6865 56.446 86.8325 55.55 86.8325 54.192C86.8325 52.862 87.6865 51.966 88.9465 51.966C90.2065 51.966 91.0465 52.862 91.0465 54.192C91.0465 55.55 90.2065 56.446 88.9465 56.446ZM97.1736 58.322C98.7136 58.322 99.8336 57.356 99.8336 55.886C99.8336 54.192 98.3776 53.562 97.3276 53.226C96.5856 52.988 95.9416 52.764 95.9416 52.274C95.9416 51.91 96.2776 51.616 96.7816 51.616C97.2716 51.616 97.6216 51.91 97.6636 52.386H99.6096V50.412H98.5036V50.874C98.1956 50.412 97.5236 50.076 96.5996 50.076C95.0876 50.076 93.9676 50.93 93.9676 52.33C93.9676 53.828 95.2556 54.402 96.3336 54.766C97.2156 55.06 97.8596 55.298 97.8596 55.872C97.8596 56.32 97.4816 56.67 96.8796 56.67C96.2496 56.67 95.8156 56.292 95.8156 55.732H93.8416V58H95.0596V57.482C95.5496 58.056 96.3476 58.322 97.1736 58.322ZM104.819 58.322C107.297 58.322 108.963 56.67 108.963 54.192C108.963 51.728 107.297 50.076 104.819 50.076C102.355 50.076 100.689 51.728 100.689 54.192C100.689 56.67 102.355 58.322 104.819 58.322ZM104.833 56.446C103.573 56.446 102.719 55.55 102.719 54.192C102.719 52.862 103.573 51.966 104.833 51.966C106.093 51.966 106.933 52.862 106.933 54.192C106.933 55.55 106.093 56.446 104.833 56.446ZM114.938 60.94H117.122L120.468 52.134H121.42V50.412H118.97L117.276 55.326L115.512 50.412H113.02V52.134H113.972L116.212 57.762L115.764 58.98H114.938V60.94ZM125.617 58H128.543V52.134H129.691V50.412H128.543V49.782C128.543 49.124 128.935 48.83 129.383 48.83C129.495 48.83 129.593 48.844 129.691 48.858V47.36C129.453 47.318 129.201 47.304 128.963 47.304C127.661 47.304 126.569 47.976 126.569 49.74V50.412H125.617V52.134H126.569V56.04H125.617V58ZM130.744 58H133.67V53.926C133.67 52.96 134.16 52.246 135 52.246C135.224 52.246 135.574 52.302 135.882 52.372V50.412C135.686 50.37 135.504 50.356 135.336 50.356C134.44 50.356 133.894 50.888 133.558 51.504V50.412H130.744V52.134H131.696V56.04H130.744V58ZM140.335 58.322C142.239 58.322 143.779 57.3 144.269 55.662H142.127C141.777 56.222 141.133 56.558 140.377 56.558C139.355 56.558 138.529 55.886 138.445 54.85H144.409C144.451 54.472 144.451 54.304 144.451 53.996C144.451 51.742 142.869 50.076 140.433 50.076C137.983 50.076 136.359 51.728 136.359 54.206C136.359 56.67 137.969 58.322 140.335 58.322ZM138.459 53.464C138.599 52.554 139.355 51.854 140.447 51.854C141.511 51.854 142.295 52.498 142.421 53.464H138.459ZM148.525 58.322C150.065 58.322 151.185 57.356 151.185 55.886C151.185 54.192 149.729 53.562 148.679 53.226C147.937 52.988 147.293 52.764 147.293 52.274C147.293 51.91 147.629 51.616 148.133 51.616C148.623 51.616 148.973 51.91 149.015 52.386H150.961V50.412H149.855V50.874C149.547 50.412 148.875 50.076 147.951 50.076C146.439 50.076 145.319 50.93 145.319 52.33C145.319 53.828 146.607 54.402 147.685 54.766C148.567 55.06 149.211 55.298 149.211 55.872C149.211 56.32 148.833 56.67 148.231 56.67C147.601 56.67 147.167 56.292 147.167 55.732H145.193V58H146.411V57.482C146.901 58.056 147.699 58.322 148.525 58.322ZM156.171 58.322C158.313 58.322 159.853 57.09 160.217 55.158H158.117C157.823 55.956 157.095 56.446 156.171 56.446C154.925 56.446 154.071 55.55 154.071 54.192C154.071 52.862 154.911 51.966 156.171 51.966C157.053 51.966 157.739 52.414 158.089 53.184H160.119V50.412H158.565V51.154C158.061 50.496 157.137 50.076 155.989 50.076C153.791 50.076 152.041 51.714 152.041 54.192C152.041 56.67 153.707 58.322 156.171 58.322ZM165.044 58.322C167.522 58.322 169.188 56.67 169.188 54.192C169.188 51.728 167.522 50.076 165.044 50.076C162.58 50.076 160.914 51.728 160.914 54.192C160.914 56.67 162.58 58.322 165.044 58.322ZM165.058 56.446C163.798 56.446 162.944 55.55 162.944 54.192C162.944 52.862 163.798 51.966 165.058 51.966C166.318 51.966 167.158 52.862 167.158 54.192C167.158 55.55 166.318 56.446 165.058 56.446ZM176.73 58.322C178.27 58.322 179.39 57.356 179.39 55.886C179.39 54.192 177.934 53.562 176.884 53.226C176.142 52.988 175.498 52.764 175.498 52.274C175.498 51.91 175.834 51.616 176.338 51.616C176.828 51.616 177.178 51.91 177.22 52.386H179.166V50.412H178.06V50.874C177.752 50.412 177.08 50.076 176.156 50.076C174.644 50.076 173.524 50.93 173.524 52.33C173.524 53.828 174.812 54.402 175.89 54.766C176.772 55.06 177.416 55.298 177.416 55.872C177.416 56.32 177.038 56.67 176.436 56.67C175.806 56.67 175.372 56.292 175.372 55.732H173.398V58H174.616V57.482C175.106 58.056 175.904 58.322 176.73 58.322ZM184.012 58.322C185.23 58.322 186.014 57.79 186.546 57.006V58H189.472V56.04H188.52V52.134H189.472V50.412H186.546V51.406C186 50.636 185.188 50.076 183.97 50.076C181.856 50.076 180.246 51.714 180.246 54.192C180.246 56.67 181.884 58.322 184.012 58.322ZM184.418 56.446C183.13 56.446 182.276 55.55 182.276 54.192C182.276 52.862 183.13 51.966 184.418 51.966C185.692 51.966 186.546 52.862 186.546 54.192C186.546 55.55 185.692 56.446 184.418 56.446ZM195.779 58.322C197.921 58.322 199.559 56.67 199.559 54.192C199.559 51.714 197.935 50.076 195.835 50.076C194.617 50.076 193.791 50.636 193.259 51.406V47.64H190.333V49.376H191.285V56.04H190.333V58H193.259V57.006C193.791 57.79 194.575 58.322 195.779 58.322ZM195.331 56.446C194.015 56.446 193.147 55.55 193.147 54.192C193.147 52.862 194.015 51.966 195.331 51.966C196.647 51.966 197.529 52.862 197.529 54.192C197.529 55.55 196.647 56.446 195.331 56.446ZM204.501 58.322C206.979 58.322 208.645 56.67 208.645 54.192C208.645 51.728 206.979 50.076 204.501 50.076C202.037 50.076 200.371 51.728 200.371 54.192C200.371 56.67 202.037 58.322 204.501 58.322ZM204.515 56.446C203.255 56.446 202.401 55.55 202.401 54.192C202.401 52.862 203.255 51.966 204.515 51.966C205.775 51.966 206.615 52.862 206.615 54.192C206.615 55.55 205.775 56.446 204.515 56.446ZM209.412 58H212.338V53.926C212.338 52.96 212.828 52.246 213.668 52.246C213.892 52.246 214.242 52.302 214.55 52.372V50.412C214.354 50.37 214.172 50.356 214.004 50.356C213.108 50.356 212.562 50.888 212.226 51.504V50.412H209.412V52.134H210.364V56.04H209.412V58ZM215.18 58H217.21V55.844H215.18V58Z" fill="#D9EEEF"/>
  <circle opacity="0.5" cx="14.5" cy="53.5" r="13.5" fill="white"/>
  <circle cx="14.5" cy="53.5" r="7.32857" fill="white"/>
  <path d="M42.756 144H47.068V142.04H46.032V139.968H48.706V138.232H46.032V136.02H48.062V136.93H49.896V134.06H42.756V136.02H43.792V142.04H42.756V144ZM54.1923 144.322C56.6703 144.322 58.3363 142.67 58.3363 140.192C58.3363 137.728 56.6703 136.076 54.1923 136.076C51.7283 136.076 50.0623 137.728 50.0623 140.192C50.0623 142.67 51.7283 144.322 54.1923 144.322ZM54.2063 142.446C52.9463 142.446 52.0923 141.55 52.0923 140.192C52.0923 138.862 52.9463 137.966 54.2063 137.966C55.4663 137.966 56.3063 138.862 56.3063 140.192C56.3063 141.55 55.4663 142.446 54.2063 142.446ZM59.103 144H62.029V139.926C62.029 138.96 62.519 138.246 63.359 138.246C63.583 138.246 63.933 138.302 64.241 138.372V136.412C64.045 136.37 63.863 136.356 63.695 136.356C62.799 136.356 62.253 136.888 61.917 137.504V136.412H59.103V138.134H60.055V142.04H59.103V144ZM65.9739 144H68.8999V142.04H67.9479V138.134H68.8999V136.412H67.9479V134.06H65.9739V136.412H65.0219V138.134H65.9739V144ZM73.6388 144.322C74.8568 144.322 75.6408 143.79 76.1728 143.006V144H79.0988V142.04H78.1468V138.134H79.0988V136.412H76.1728V137.406C75.6268 136.636 74.8148 136.076 73.5968 136.076C71.4828 136.076 69.8728 137.714 69.8728 140.192C69.8728 142.67 71.5108 144.322 73.6388 144.322ZM74.0448 142.446C72.7568 142.446 71.9028 141.55 71.9028 140.192C71.9028 138.862 72.7568 137.966 74.0448 137.966C75.3188 137.966 76.1728 138.862 76.1728 140.192C76.1728 141.55 75.3188 142.446 74.0448 142.446ZM80.9123 144H83.8383V142.04H82.8863V133.584H79.9603V135.32H80.9123V144ZM88.4777 144.322C90.3817 144.322 91.9217 143.3 92.4117 141.662H90.2697C89.9197 142.222 89.2757 142.558 88.5197 142.558C87.4977 142.558 86.6717 141.886 86.5877 140.85H92.5517C92.5937 140.472 92.5937 140.304 92.5937 139.996C92.5937 137.742 91.0117 136.076 88.5757 136.076C86.1257 136.076 84.5017 137.728 84.5017 140.206C84.5017 142.67 86.1117 144.322 88.4777 144.322ZM86.6017 139.464C86.7417 138.554 87.4977 137.854 88.5897 137.854C89.6537 137.854 90.4377 138.498 90.5637 139.464H86.6017ZM97.5321 144.322C99.6741 144.322 101.214 143.09 101.578 141.158H99.4781C99.1841 141.956 98.4561 142.446 97.5321 142.446C96.2861 142.446 95.4321 141.55 95.4321 140.192C95.4321 138.862 96.2721 137.966 97.5321 137.966C98.4141 137.966 99.1001 138.414 99.4501 139.184H101.48V136.412H99.9261V137.154C99.4221 136.496 98.4981 136.076 97.3501 136.076C95.1521 136.076 93.4021 137.714 93.4021 140.192C93.4021 142.67 95.0681 144.322 97.5321 144.322ZM103.297 135.754H105.271V133.78H103.297V135.754ZM103.311 144H106.237V142.04H105.285V136.412H102.359V138.134H103.311V144ZM107.269 144H110.195V139.856C110.195 138.582 110.839 137.896 111.749 137.896C112.631 137.896 113.037 138.526 113.037 139.604V144H115.011V139.856C115.011 138.582 115.655 137.896 116.565 137.896C117.447 137.896 117.839 138.526 117.839 139.604V144H120.765V142.04H119.827V139.296C119.827 137.294 118.889 136.076 117.349 136.076C116.019 136.076 115.249 136.692 114.745 137.728C114.381 136.664 113.597 136.076 112.533 136.076C111.567 136.076 110.671 136.552 110.195 137.392V136.412H107.269V138.134H108.221V142.04H107.269V144ZM122.26 135.754H124.234V133.78H122.26V135.754ZM122.274 144H125.2V142.04H124.248V136.412H121.322V138.134H122.274V144ZM129.835 144.322C131.739 144.322 133.279 143.3 133.769 141.662H131.627C131.277 142.222 130.633 142.558 129.877 142.558C128.855 142.558 128.029 141.886 127.945 140.85H133.909C133.951 140.472 133.951 140.304 133.951 139.996C133.951 137.742 132.369 136.076 129.933 136.076C127.483 136.076 125.859 137.728 125.859 140.206C125.859 142.67 127.469 144.322 129.835 144.322ZM127.959 139.464C128.099 138.554 128.855 137.854 129.947 137.854C131.011 137.854 131.795 138.498 131.921 139.464H127.959ZM134.695 144H137.621V139.814C137.621 138.638 138.349 137.896 139.329 137.896C140.295 137.896 140.729 138.596 140.729 139.604V144H143.655V142.04H142.717V139.296C142.717 137.364 141.737 136.076 140.113 136.076C139.063 136.076 138.111 136.622 137.621 137.406V136.412H134.695V138.134H135.647V142.04H134.695V144ZM145.271 144H148.197V142.04H147.245V138.134H148.197V136.412H147.245V134.06H145.271V136.412H144.319V138.134H145.271V144ZM153.3 144.322C155.778 144.322 157.444 142.67 157.444 140.192C157.444 137.728 155.778 136.076 153.3 136.076C150.836 136.076 149.17 137.728 149.17 140.192C149.17 142.67 150.836 144.322 153.3 144.322ZM153.314 142.446C152.054 142.446 151.2 141.55 151.2 140.192C151.2 138.862 152.054 137.966 153.314 137.966C154.574 137.966 155.414 138.862 155.414 140.192C155.414 141.55 154.574 142.446 153.314 142.446ZM165.336 144.322C166.554 144.322 167.338 143.79 167.87 143.006V144H170.796V142.04H169.844V133.64H166.918V135.376H167.87V137.406C167.324 136.636 166.512 136.076 165.294 136.076C163.18 136.076 161.57 137.714 161.57 140.192C161.57 142.67 163.208 144.322 165.336 144.322ZM165.798 142.446C164.482 142.446 163.6 141.55 163.6 140.192C163.6 138.862 164.482 137.966 165.798 137.966C167.114 137.966 167.982 138.862 167.982 140.192C167.982 141.55 167.114 142.446 165.798 142.446ZM175.417 144.322C177.321 144.322 178.861 143.3 179.351 141.662H177.209C176.859 142.222 176.215 142.558 175.459 142.558C174.437 142.558 173.611 141.886 173.527 140.85H179.491C179.533 140.472 179.533 140.304 179.533 139.996C179.533 137.742 177.951 136.076 175.515 136.076C173.065 136.076 171.441 137.728 171.441 140.206C171.441 142.67 173.051 144.322 175.417 144.322ZM173.541 139.464C173.681 138.554 174.437 137.854 175.529 137.854C176.593 137.854 177.377 138.498 177.503 139.464H173.541ZM180.977 144H183.903V142.04H182.951V133.584H180.025V135.32H180.977V144ZM191.496 144.322C193.036 144.322 194.156 143.356 194.156 141.886C194.156 140.192 192.7 139.562 191.65 139.226C190.908 138.988 190.264 138.764 190.264 138.274C190.264 137.91 190.6 137.616 191.104 137.616C191.594 137.616 191.944 137.91 191.986 138.386H193.932V136.412H192.826V136.874C192.518 136.412 191.846 136.076 190.922 136.076C189.41 136.076 188.29 136.93 188.29 138.33C188.29 139.828 189.578 140.402 190.656 140.766C191.538 141.06 192.182 141.298 192.182 141.872C192.182 142.32 191.804 142.67 191.202 142.67C190.572 142.67 190.138 142.292 190.138 141.732H188.164V144H189.382V143.482C189.872 144.056 190.67 144.322 191.496 144.322ZM196.033 135.754H198.007V133.78H196.033V135.754ZM196.047 144H198.973V142.04H198.021V136.412H195.095V138.134H196.047V144ZM203.267 144.322C204.807 144.322 205.927 143.356 205.927 141.886C205.927 140.192 204.471 139.562 203.421 139.226C202.679 138.988 202.035 138.764 202.035 138.274C202.035 137.91 202.371 137.616 202.875 137.616C203.365 137.616 203.715 137.91 203.757 138.386H205.703V136.412H204.597V136.874C204.289 136.412 203.617 136.076 202.693 136.076C201.181 136.076 200.061 136.93 200.061 138.33C200.061 139.828 201.349 140.402 202.427 140.766C203.309 141.06 203.953 141.298 203.953 141.872C203.953 142.32 203.575 142.67 202.973 142.67C202.343 142.67 201.909 142.292 201.909 141.732H199.935V144H201.153V143.482C201.643 144.056 202.441 144.322 203.267 144.322ZM207.847 144H210.773V142.04H209.821V138.134H210.773V136.412H209.821V134.06H207.847V136.412H206.895V138.134H207.847V144ZM215.722 144.322C217.626 144.322 219.166 143.3 219.656 141.662H217.514C217.164 142.222 216.52 142.558 215.764 142.558C214.742 142.558 213.916 141.886 213.832 140.85H219.796C219.838 140.472 219.838 140.304 219.838 139.996C219.838 137.742 218.256 136.076 215.82 136.076C213.37 136.076 211.746 137.728 211.746 140.206C211.746 142.67 213.356 144.322 215.722 144.322ZM213.846 139.464C213.986 138.554 214.742 137.854 215.834 137.854C216.898 137.854 217.682 138.498 217.808 139.464H213.846ZM220.581 144H223.507V139.856C223.507 138.582 224.151 137.896 225.061 137.896C225.943 137.896 226.349 138.526 226.349 139.604V144H228.323V139.856C228.323 138.582 228.967 137.896 229.877 137.896C230.759 137.896 231.151 138.526 231.151 139.604V144H234.077V142.04H233.139V139.296C233.139 137.294 232.201 136.076 230.661 136.076C229.331 136.076 228.561 136.692 228.057 137.728C227.693 136.664 226.909 136.076 225.845 136.076C224.879 136.076 223.983 136.552 223.507 137.392V136.412H220.581V138.134H221.533V142.04H220.581V144ZM238.453 144.322C239.671 144.322 240.455 143.79 240.987 143.006V144H243.913V142.04H242.961V138.134H243.913V136.412H240.987V137.406C240.441 136.636 239.629 136.076 238.411 136.076C236.297 136.076 234.687 137.714 234.687 140.192C234.687 142.67 236.325 144.322 238.453 144.322ZM238.859 142.446C237.571 142.446 236.717 141.55 236.717 140.192C236.717 138.862 237.571 137.966 238.859 137.966C240.133 137.966 240.987 138.862 240.987 140.192C240.987 141.55 240.133 142.446 238.859 142.446ZM249.19 135.754H251.164V133.78H249.19V135.754ZM249.204 144H252.13V142.04H251.178V136.412H248.252V138.134H249.204V144ZM253.162 144H256.088V139.814C256.088 138.638 256.816 137.896 257.796 137.896C258.762 137.896 259.196 138.596 259.196 139.604V144H262.122V142.04H261.184V139.296C261.184 137.364 260.204 136.076 258.58 136.076C257.53 136.076 256.578 136.622 256.088 137.406V136.412H253.162V138.134H254.114V142.04H253.162V144ZM263.101 144H266.027V139.856C266.027 138.582 266.671 137.896 267.581 137.896C268.463 137.896 268.869 138.526 268.869 139.604V144H270.843V139.856C270.843 138.582 271.487 137.896 272.397 137.896C273.279 137.896 273.671 138.526 273.671 139.604V144H276.597V142.04H275.659V139.296C275.659 137.294 274.721 136.076 273.181 136.076C271.851 136.076 271.081 136.692 270.577 137.728C270.213 136.664 269.429 136.076 268.365 136.076C267.399 136.076 266.503 136.552 266.027 137.392V136.412H263.101V138.134H264.053V142.04H263.101V144ZM280.188 144.322C281.238 144.322 282.106 143.79 282.596 142.992V144H285.522V142.04H284.584V138.134H285.522V136.412H282.596V140.822C282.596 141.774 281.882 142.516 280.93 142.516C280.006 142.516 279.572 141.83 279.572 140.794V136.412H276.646V138.134H277.598V141.116C277.598 143.048 278.564 144.322 280.188 144.322ZM286.644 144H289.57V139.814C289.57 138.638 290.298 137.896 291.278 137.896C292.244 137.896 292.678 138.596 292.678 139.604V144H295.604V142.04H294.666V139.296C294.666 137.364 293.686 136.076 292.062 136.076C291.012 136.076 290.06 136.622 289.57 137.406V136.412H286.644V138.134H287.596V142.04H286.644V144ZM300.187 144.322C302.091 144.322 303.631 143.3 304.121 141.662H301.979C301.629 142.222 300.985 142.558 300.229 142.558C299.207 142.558 298.381 141.886 298.297 140.85H304.261C304.303 140.472 304.303 140.304 304.303 139.996C304.303 137.742 302.721 136.076 300.285 136.076C297.835 136.076 296.211 137.728 296.211 140.206C296.211 142.67 297.821 144.322 300.187 144.322ZM298.311 139.464C298.451 138.554 299.207 137.854 300.299 137.854C301.363 137.854 302.147 138.498 302.273 139.464H298.311ZM305.456 144H307.486V141.844H305.456V144Z" fill="#D9EEEF"/>
  <circle opacity="0.5" cx="14.5" cy="139.5" r="13.5" fill="white"/>
  <circle cx="14.5" cy="139.5" r="7.32857" fill="white"/>
  <path d="M42.756 184H47.236C50.372 184 52.458 182.012 52.458 179.03C52.458 176.048 50.372 174.06 47.236 174.06H42.756V176.02H43.792V182.04H42.756V184ZM46.046 182.04V176.02H47.166C48.916 176.02 50.092 177.224 50.092 179.03C50.092 180.836 48.916 182.04 47.166 182.04H46.046ZM57.3195 184.322C59.2235 184.322 60.7635 183.3 61.2535 181.662H59.1115C58.7615 182.222 58.1175 182.558 57.3615 182.558C56.3395 182.558 55.5135 181.886 55.4295 180.85H61.3935C61.4355 180.472 61.4355 180.304 61.4355 179.996C61.4355 177.742 59.8535 176.076 57.4175 176.076C54.9675 176.076 53.3435 177.728 53.3435 180.206C53.3435 182.67 54.9535 184.322 57.3195 184.322ZM55.4435 179.464C55.5835 178.554 56.3395 177.854 57.4315 177.854C58.4955 177.854 59.2795 178.498 59.4055 179.464H55.4435ZM65.5095 184.322C67.0495 184.322 68.1695 183.356 68.1695 181.886C68.1695 180.192 66.7135 179.562 65.6635 179.226C64.9215 178.988 64.2775 178.764 64.2775 178.274C64.2775 177.91 64.6135 177.616 65.1175 177.616C65.6075 177.616 65.9575 177.91 65.9995 178.386H67.9455V176.412H66.8395V176.874C66.5315 176.412 65.8595 176.076 64.9355 176.076C63.4235 176.076 62.3035 176.93 62.3035 178.33C62.3035 179.828 63.5915 180.402 64.6695 180.766C65.5515 181.06 66.1955 181.298 66.1955 181.872C66.1955 182.32 65.8175 182.67 65.2155 182.67C64.5855 182.67 64.1515 182.292 64.1515 181.732H62.1775V184H63.3955V183.482C63.8855 184.056 64.6835 184.322 65.5095 184.322ZM72.7911 184.322C74.0091 184.322 74.7931 183.79 75.3251 183.006V184H78.2511V182.04H77.2991V178.134H78.2511V176.412H75.3251V177.406C74.7791 176.636 73.9671 176.076 72.7491 176.076C70.6351 176.076 69.0251 177.714 69.0251 180.192C69.0251 182.67 70.6631 184.322 72.7911 184.322ZM73.1971 182.446C71.9091 182.446 71.0551 181.55 71.0551 180.192C71.0551 178.862 71.9091 177.966 73.1971 177.966C74.4711 177.966 75.3251 178.862 75.3251 180.192C75.3251 181.55 74.4711 182.446 73.1971 182.446ZM79.3647 184H82.2907V179.926C82.2907 178.96 82.7807 178.246 83.6207 178.246C83.8447 178.246 84.1947 178.302 84.5027 178.372V176.412C84.3067 176.37 84.1247 176.356 83.9567 176.356C83.0607 176.356 82.5147 176.888 82.1787 177.504V176.412H79.3647V178.134H80.3167V182.04H79.3647V184ZM85.3256 184H88.2516V179.926C88.2516 178.96 88.7416 178.246 89.5816 178.246C89.8056 178.246 90.1556 178.302 90.4636 178.372V176.412C90.2676 176.37 90.0856 176.356 89.9176 176.356C89.0216 176.356 88.4756 176.888 88.1396 177.504V176.412H85.3256V178.134H86.2776V182.04H85.3256V184ZM95.0712 184.322C97.5492 184.322 99.2152 182.67 99.2152 180.192C99.2152 177.728 97.5492 176.076 95.0712 176.076C92.6072 176.076 90.9412 177.728 90.9412 180.192C90.9412 182.67 92.6072 184.322 95.0712 184.322ZM95.0852 182.446C93.8252 182.446 92.9712 181.55 92.9712 180.192C92.9712 178.862 93.8252 177.966 95.0852 177.966C96.3452 177.966 97.1852 178.862 97.1852 180.192C97.1852 181.55 96.3452 182.446 95.0852 182.446ZM100.682 184H103.608V182.04H102.656V173.584H99.7299V175.32H100.682V184ZM105.344 184H108.27V182.04H107.318V173.584H104.392V175.32H105.344V184ZM113.063 184.322C115.541 184.322 117.207 182.67 117.207 180.192C117.207 177.728 115.541 176.076 113.063 176.076C110.599 176.076 108.933 177.728 108.933 180.192C108.933 182.67 110.599 184.322 113.063 184.322ZM113.077 182.446C111.817 182.446 110.963 181.55 110.963 180.192C110.963 178.862 111.817 177.966 113.077 177.966C114.337 177.966 115.177 178.862 115.177 180.192C115.177 181.55 114.337 182.446 113.077 182.446ZM121.488 184H124.414V179.856C124.414 178.582 125.058 177.896 125.968 177.896C126.85 177.896 127.256 178.526 127.256 179.604V184H129.23V179.856C129.23 178.582 129.874 177.896 130.784 177.896C131.666 177.896 132.058 178.526 132.058 179.604V184H134.984V182.04H134.046V179.296C134.046 177.294 133.108 176.076 131.568 176.076C130.238 176.076 129.468 176.692 128.964 177.728C128.6 176.664 127.816 176.076 126.752 176.076C125.786 176.076 124.89 176.552 124.414 177.392V176.412H121.488V178.134H122.44V182.04H121.488V184ZM138.575 184.322C139.625 184.322 140.493 183.79 140.983 182.992V184H143.909V182.04H142.971V178.134H143.909V176.412H140.983V180.822C140.983 181.774 140.269 182.516 139.317 182.516C138.393 182.516 137.959 181.83 137.959 180.794V176.412H135.033V178.134H135.985V181.116C135.985 183.048 136.951 184.322 138.575 184.322ZM148.293 184.322C149.833 184.322 150.953 183.356 150.953 181.886C150.953 180.192 149.497 179.562 148.447 179.226C147.705 178.988 147.061 178.764 147.061 178.274C147.061 177.91 147.397 177.616 147.901 177.616C148.391 177.616 148.741 177.91 148.783 178.386H150.729V176.412H149.623V176.874C149.315 176.412 148.643 176.076 147.719 176.076C146.207 176.076 145.087 176.93 145.087 178.33C145.087 179.828 146.375 180.402 147.453 180.766C148.335 181.06 148.979 181.298 148.979 181.872C148.979 182.32 148.601 182.67 147.999 182.67C147.369 182.67 146.935 182.292 146.935 181.732H144.961V184H146.179V183.482C146.669 184.056 147.467 184.322 148.293 184.322ZM155.938 184.322C158.08 184.322 159.62 183.09 159.984 181.158H157.884C157.59 181.956 156.862 182.446 155.938 182.446C154.692 182.446 153.838 181.55 153.838 180.192C153.838 178.862 154.678 177.966 155.938 177.966C156.82 177.966 157.506 178.414 157.856 179.184H159.886V176.412H158.332V177.154C157.828 176.496 156.904 176.076 155.756 176.076C153.558 176.076 151.808 177.714 151.808 180.192C151.808 182.67 153.474 184.322 155.938 184.322ZM164.209 184.322C165.259 184.322 166.127 183.79 166.617 182.992V184H169.543V182.04H168.605V178.134H169.543V176.412H166.617V180.822C166.617 181.774 165.903 182.516 164.951 182.516C164.027 182.516 163.593 181.83 163.593 180.794V176.412H160.667V178.134H161.619V181.116C161.619 183.048 162.585 184.322 164.209 184.322ZM171.365 184H174.291V182.04H173.339V173.584H170.413V175.32H171.365V184ZM178.721 184.322C179.939 184.322 180.723 183.79 181.255 183.006V184H184.181V182.04H183.229V178.134H184.181V176.412H181.255V177.406C180.709 176.636 179.897 176.076 178.679 176.076C176.565 176.076 174.955 177.714 174.955 180.192C174.955 182.67 176.593 184.322 178.721 184.322ZM179.127 182.446C177.839 182.446 176.985 181.55 176.985 180.192C176.985 178.862 177.839 177.966 179.127 177.966C180.401 177.966 181.255 178.862 181.255 180.192C181.255 181.55 180.401 182.446 179.127 182.446ZM185.294 184H188.22V179.926C188.22 178.96 188.71 178.246 189.55 178.246C189.774 178.246 190.124 178.302 190.432 178.372V176.412C190.236 176.37 190.054 176.356 189.886 176.356C188.99 176.356 188.444 176.888 188.108 177.504V176.412H185.294V178.134H186.246V182.04H185.294V184ZM190.276 185.134H191.774L193.202 181.844H191.172L190.276 185.134ZM201.968 184.322C203.872 184.322 205.412 183.3 205.902 181.662H203.76C203.41 182.222 202.766 182.558 202.01 182.558C200.988 182.558 200.162 181.886 200.078 180.85H206.042C206.084 180.472 206.084 180.304 206.084 179.996C206.084 177.742 204.502 176.076 202.066 176.076C199.616 176.076 197.992 177.728 197.992 180.206C197.992 182.67 199.602 184.322 201.968 184.322ZM200.092 179.464C200.232 178.554 200.988 177.854 202.08 177.854C203.144 177.854 203.928 178.498 204.054 179.464H200.092ZM207.528 184H210.454V182.04H209.502V173.584H206.576V175.32H207.528V184ZM212.358 175.754H214.332V173.78H212.358V175.754ZM212.372 184H215.298V182.04H214.346V176.412H211.42V178.134H212.372V184ZM216.33 184H219.256V179.856C219.256 178.582 219.9 177.896 220.81 177.896C221.692 177.896 222.098 178.526 222.098 179.604V184H224.072V179.856C224.072 178.582 224.716 177.896 225.626 177.896C226.508 177.896 226.9 178.526 226.9 179.604V184H229.826V182.04H228.888V179.296C228.888 177.294 227.95 176.076 226.41 176.076C225.08 176.076 224.31 176.692 223.806 177.728C223.442 176.664 222.658 176.076 221.594 176.076C220.628 176.076 219.732 176.552 219.256 177.392V176.412H216.33V178.134H217.282V182.04H216.33V184ZM231.321 175.754H233.295V173.78H231.321V175.754ZM231.335 184H234.261V182.04H233.309V176.412H230.383V178.134H231.335V184ZM235.292 184H238.218V179.814C238.218 178.638 238.946 177.896 239.926 177.896C240.892 177.896 241.326 178.596 241.326 179.604V184H244.252V182.04H243.314V179.296C243.314 177.364 242.334 176.076 240.71 176.076C239.66 176.076 238.708 176.622 238.218 177.406V176.412H235.292V178.134H236.244V182.04H235.292V184ZM248.625 184.322C249.843 184.322 250.627 183.79 251.159 183.006V184H254.085V182.04H253.133V178.134H254.085V176.412H251.159V177.406C250.613 176.636 249.801 176.076 248.583 176.076C246.469 176.076 244.859 177.714 244.859 180.192C244.859 182.67 246.497 184.322 248.625 184.322ZM249.031 182.446C247.743 182.446 246.889 181.55 246.889 180.192C246.889 178.862 247.743 177.966 249.031 177.966C250.305 177.966 251.159 178.862 251.159 180.192C251.159 181.55 250.305 182.446 249.031 182.446ZM255.199 184H258.125V179.814C258.125 178.638 258.853 177.896 259.833 177.896C260.799 177.896 261.233 178.596 261.233 179.604V184H264.159V182.04H263.221V179.296C263.221 177.364 262.241 176.076 260.617 176.076C259.567 176.076 258.615 176.622 258.125 177.406V176.412H255.199V178.134H256.151V182.04H255.199V184ZM268.531 184.322C269.749 184.322 270.533 183.79 271.065 183.006V184H273.991V182.04H273.039V173.64H270.113V175.376H271.065V177.406C270.519 176.636 269.707 176.076 268.489 176.076C266.375 176.076 264.765 177.714 264.765 180.192C264.765 182.67 266.403 184.322 268.531 184.322ZM268.993 182.446C267.677 182.446 266.795 181.55 266.795 180.192C266.795 178.862 267.677 177.966 268.993 177.966C270.309 177.966 271.177 178.862 271.177 180.192C271.177 181.55 270.309 182.446 268.993 182.446ZM278.766 184.322C281.244 184.322 282.91 182.67 282.91 180.192C282.91 177.728 281.244 176.076 278.766 176.076C276.302 176.076 274.636 177.728 274.636 180.192C274.636 182.67 276.302 184.322 278.766 184.322ZM278.78 182.446C277.52 182.446 276.666 181.55 276.666 180.192C276.666 178.862 277.52 177.966 278.78 177.966C280.04 177.966 280.88 178.862 280.88 180.192C280.88 181.55 280.04 182.446 278.78 182.446ZM287.891 184H290.817V182.04H289.865V173.584H286.939V175.32H287.891V184ZM295.246 184.322C296.464 184.322 297.248 183.79 297.78 183.006V184H300.706V182.04H299.754V178.134H300.706V176.412H297.78V177.406C297.234 176.636 296.422 176.076 295.204 176.076C293.09 176.076 291.48 177.714 291.48 180.192C291.48 182.67 293.118 184.322 295.246 184.322ZM295.652 182.446C294.364 182.446 293.51 181.55 293.51 180.192C293.51 178.862 294.364 177.966 295.652 177.966C296.926 177.966 297.78 178.862 297.78 180.192C297.78 181.55 296.926 182.446 295.652 182.446ZM46.662 205.94C49 205.94 50.68 204.638 50.68 201.474V197.134H51.632V195.412H48.706V196.406C48.16 195.636 47.348 195.076 46.13 195.076C44.016 195.076 42.406 196.714 42.406 199.192C42.406 201.67 44.03 203.098 46.228 203.098C47.376 203.098 48.174 202.678 48.706 202.006V202.412C48.706 203.532 47.852 204.302 46.592 204.302C45.822 204.302 45.136 204.008 44.828 203.616H42.784C43.302 205.058 44.758 205.94 46.662 205.94ZM46.578 201.446C45.29 201.446 44.436 200.55 44.436 199.192C44.436 197.862 45.29 196.966 46.578 196.966C47.852 196.966 48.706 197.862 48.706 199.192C48.706 200.55 47.852 201.446 46.578 201.446ZM52.4448 203H55.3708V198.926C55.3708 197.96 55.8608 197.246 56.7008 197.246C56.9248 197.246 57.2748 197.302 57.5828 197.372V195.412C57.3868 195.37 57.2048 195.356 57.0368 195.356C56.1408 195.356 55.5948 195.888 55.2588 196.504V195.412H52.4448V197.134H53.3968V201.04H52.4448V203ZM61.8263 203.322C63.0443 203.322 63.8283 202.79 64.3603 202.006V203H67.2863V201.04H66.3343V197.134H67.2863V195.412H64.3603V196.406C63.8143 195.636 63.0023 195.076 61.7843 195.076C59.6703 195.076 58.0603 196.714 58.0603 199.192C58.0603 201.67 59.6983 203.322 61.8263 203.322ZM62.2323 201.446C60.9443 201.446 60.0903 200.55 60.0903 199.192C60.0903 197.862 60.9443 196.966 62.2323 196.966C63.5063 196.966 64.3603 197.862 64.3603 199.192C64.3603 200.55 63.5063 201.446 62.2323 201.446ZM71.6618 203.322C73.2018 203.322 74.3218 202.356 74.3218 200.886C74.3218 199.192 72.8658 198.562 71.8158 198.226C71.0738 197.988 70.4298 197.764 70.4298 197.274C70.4298 196.91 70.7658 196.616 71.2698 196.616C71.7598 196.616 72.1098 196.91 72.1518 197.386H74.0978V195.412H72.9918V195.874C72.6838 195.412 72.0118 195.076 71.0878 195.076C69.5758 195.076 68.4558 195.93 68.4558 197.33C68.4558 198.828 69.7438 199.402 70.8218 199.766C71.7038 200.06 72.3478 200.298 72.3478 200.872C72.3478 201.32 71.9698 201.67 71.3678 201.67C70.7378 201.67 70.3038 201.292 70.3038 200.732H68.3298V203H69.5478V202.482C70.0378 203.056 70.8358 203.322 71.6618 203.322ZM76.1995 194.754H78.1735V192.78H76.1995V194.754ZM76.2135 203H79.1395V201.04H78.1875V195.412H75.2615V197.134H76.2135V203ZM81.0813 203H84.0073V201.04H83.0553V197.134H84.0073V195.412H83.0553V193.06H81.0813V195.412H80.1293V197.134H81.0813V203ZM88.7462 203.322C89.9642 203.322 90.7482 202.79 91.2802 202.006V203H94.2062V201.04H93.2542V197.134H94.2062V195.412H91.2802V196.406C90.7342 195.636 89.9222 195.076 88.7042 195.076C86.5902 195.076 84.9802 196.714 84.9802 199.192C84.9802 201.67 86.6182 203.322 88.7462 203.322ZM89.1522 201.446C87.8642 201.446 87.0102 200.55 87.0102 199.192C87.0102 197.862 87.8642 196.966 89.1522 196.966C90.4262 196.966 91.2802 197.862 91.2802 199.192C91.2802 200.55 90.4262 201.446 89.1522 201.446ZM102.591 203.322C104.733 203.322 106.273 202.09 106.637 200.158H104.537C104.243 200.956 103.515 201.446 102.591 201.446C101.345 201.446 100.491 200.55 100.491 199.192C100.491 197.862 101.331 196.966 102.591 196.966C103.473 196.966 104.159 197.414 104.509 198.184H106.539V195.412H104.985V196.154C104.481 195.496 103.557 195.076 102.409 195.076C100.211 195.076 98.4607 196.714 98.4607 199.192C98.4607 201.67 100.127 203.322 102.591 203.322ZM111.464 203.322C113.942 203.322 115.608 201.67 115.608 199.192C115.608 196.728 113.942 195.076 111.464 195.076C109 195.076 107.334 196.728 107.334 199.192C107.334 201.67 109 203.322 111.464 203.322ZM111.478 201.446C110.218 201.446 109.364 200.55 109.364 199.192C109.364 197.862 110.218 196.966 111.478 196.966C112.738 196.966 113.578 197.862 113.578 199.192C113.578 200.55 112.738 201.446 111.478 201.446ZM116.374 203H119.3V198.926C119.3 197.96 119.79 197.246 120.63 197.246C120.854 197.246 121.204 197.302 121.512 197.372V195.412C121.316 195.37 121.134 195.356 120.966 195.356C120.07 195.356 119.524 195.888 119.188 196.504V195.412H116.374V197.134H117.326V201.04H116.374V203ZM122.265 205.94H125.191V202.006C125.723 202.79 126.507 203.322 127.711 203.322C129.853 203.322 131.491 201.67 131.491 199.192C131.491 196.714 129.867 195.076 127.767 195.076C126.549 195.076 125.723 195.636 125.191 196.406V195.412H122.265V197.134H123.217V203.98H122.265V205.94ZM127.263 201.446C125.947 201.446 125.079 200.55 125.079 199.192C125.079 197.862 125.947 196.966 127.263 196.966C128.579 196.966 129.461 197.862 129.461 199.192C129.461 200.55 128.579 201.446 127.263 201.446ZM136.429 203.322C138.907 203.322 140.573 201.67 140.573 199.192C140.573 196.728 138.907 195.076 136.429 195.076C133.965 195.076 132.299 196.728 132.299 199.192C132.299 201.67 133.965 203.322 136.429 203.322ZM136.443 201.446C135.183 201.446 134.329 200.55 134.329 199.192C134.329 197.862 135.183 196.966 136.443 196.966C137.703 196.966 138.543 197.862 138.543 199.192C138.543 200.55 137.703 201.446 136.443 201.446ZM141.339 203H144.265V198.926C144.265 197.96 144.755 197.246 145.595 197.246C145.819 197.246 146.169 197.302 146.477 197.372V195.412C146.281 195.37 146.099 195.356 145.931 195.356C145.035 195.356 144.489 195.888 144.153 196.504V195.412H141.339V197.134H142.291V201.04H141.339V203ZM150.721 203.322C151.939 203.322 152.723 202.79 153.255 202.006V203H156.181V201.04H155.229V197.134H156.181V195.412H153.255V196.406C152.709 195.636 151.897 195.076 150.679 195.076C148.565 195.076 146.955 196.714 146.955 199.192C146.955 201.67 148.593 203.322 150.721 203.322ZM151.127 201.446C149.839 201.446 148.985 200.55 148.985 199.192C148.985 197.862 149.839 196.966 151.127 196.966C152.401 196.966 153.255 197.862 153.255 199.192C153.255 200.55 152.401 201.446 151.127 201.446ZM157.994 203H160.92V201.04H159.968V192.584H157.042V194.32H157.994V203ZM162.229 203H164.259V200.844H162.229V203Z" fill="#D9EEEF"/>
  <circle opacity="0.5" cx="14.5" cy="179.5" r="13.5" fill="white"/>
  <circle cx="14.5" cy="179.5" r="7.32857" fill="white"/>
  <path d="M51.478 93.026L48.748 85.06H46.27H44.408V87.02H45.556L43.442 93.04H42.294V95H45.01L45.654 93.04H49.21L49.854 95H52.626V93.026H51.478ZM46.242 91.248L47.432 87.594L48.622 91.248H46.242ZM58.6778 95.322C60.8198 95.322 62.4578 93.67 62.4578 91.192C62.4578 88.714 60.8338 87.076 58.7338 87.076C57.5158 87.076 56.6898 87.636 56.1578 88.406V84.64H53.2318V86.376H54.1838V93.04H53.2318V95H56.1578V94.006C56.6898 94.79 57.4738 95.322 58.6778 95.322ZM58.2298 93.446C56.9138 93.446 56.0458 92.55 56.0458 91.192C56.0458 89.862 56.9138 88.966 58.2298 88.966C59.5458 88.966 60.4278 89.862 60.4278 91.192C60.4278 92.55 59.5458 93.446 58.2298 93.446ZM66.5349 95.322C68.0749 95.322 69.1949 94.356 69.1949 92.886C69.1949 91.192 67.7389 90.562 66.6889 90.226C65.9469 89.988 65.3029 89.764 65.3029 89.274C65.3029 88.91 65.6389 88.616 66.1429 88.616C66.6329 88.616 66.9829 88.91 67.0249 89.386H68.9709V87.412H67.8649V87.874C67.5569 87.412 66.8849 87.076 65.9609 87.076C64.4489 87.076 63.3289 87.93 63.3289 89.33C63.3289 90.828 64.6169 91.402 65.6949 91.766C66.5769 92.06 67.2209 92.298 67.2209 92.872C67.2209 93.32 66.8429 93.67 66.2409 93.67C65.6109 93.67 65.1769 93.292 65.1769 92.732H63.2029V95H64.4209V94.482C64.9109 95.056 65.7089 95.322 66.5349 95.322ZM74.1805 95.322C76.6585 95.322 78.3245 93.67 78.3245 91.192C78.3245 88.728 76.6585 87.076 74.1805 87.076C71.7165 87.076 70.0505 88.728 70.0505 91.192C70.0505 93.67 71.7165 95.322 74.1805 95.322ZM74.1945 93.446C72.9345 93.446 72.0805 92.55 72.0805 91.192C72.0805 89.862 72.9345 88.966 74.1945 88.966C75.4545 88.966 76.2945 89.862 76.2945 91.192C76.2945 92.55 75.4545 93.446 74.1945 93.446ZM79.0913 95H82.0173V90.926C82.0173 89.96 82.5073 89.246 83.3473 89.246C83.5713 89.246 83.9213 89.302 84.2293 89.372V87.412C84.0333 87.37 83.8513 87.356 83.6833 87.356C82.7873 87.356 82.2413 87.888 81.9053 88.504V87.412H79.0913V89.134H80.0433V93.04H79.0913V95ZM88.8368 95.322C90.9788 95.322 92.5188 94.09 92.8828 92.158H90.7828C90.4888 92.956 89.7608 93.446 88.8368 93.446C87.5908 93.446 86.7368 92.55 86.7368 91.192C86.7368 89.862 87.5768 88.966 88.8368 88.966C89.7188 88.966 90.4048 89.414 90.7548 90.184H92.7848V87.412H91.2308V88.154C90.7268 87.496 89.8028 87.076 88.6548 87.076C86.4568 87.076 84.7068 88.714 84.7068 91.192C84.7068 93.67 86.3728 95.322 88.8368 95.322ZM94.6018 86.754H96.5758V84.78H94.6018V86.754ZM94.6158 95H97.5418V93.04H96.5898V87.412H93.6638V89.134H94.6158V95ZM101.309 86.726L104.879 85.214L104.095 83.716L100.805 85.732L101.309 86.726ZM102.331 95.322C104.809 95.322 106.475 93.67 106.475 91.192C106.475 88.728 104.809 87.076 102.331 87.076C99.8669 87.076 98.2009 88.728 98.2009 91.192C98.2009 93.67 99.8669 95.322 102.331 95.322ZM102.345 93.446C101.085 93.446 100.231 92.55 100.231 91.192C100.231 89.862 101.085 88.966 102.345 88.966C103.605 88.966 104.445 89.862 104.445 91.192C104.445 92.55 103.605 93.446 102.345 93.446ZM107.242 95H110.168V90.814C110.168 89.638 110.896 88.896 111.876 88.896C112.842 88.896 113.276 89.596 113.276 90.604V95H116.202V93.04H115.264V90.296C115.264 88.364 114.284 87.076 112.66 87.076C111.61 87.076 110.658 87.622 110.168 88.406V87.412H107.242V89.134H108.194V93.04H107.242V95ZM124.088 95.322C125.306 95.322 126.09 94.79 126.622 94.006V95H129.548V93.04H128.596V84.64H125.67V86.376H126.622V88.406C126.076 87.636 125.264 87.076 124.046 87.076C121.932 87.076 120.322 88.714 120.322 91.192C120.322 93.67 121.96 95.322 124.088 95.322ZM124.55 93.446C123.234 93.446 122.352 92.55 122.352 91.192C122.352 89.862 123.234 88.966 124.55 88.966C125.866 88.966 126.734 89.862 126.734 91.192C126.734 92.55 125.866 93.446 124.55 93.446ZM134.169 95.322C136.073 95.322 137.613 94.3 138.103 92.662H135.961C135.611 93.222 134.967 93.558 134.211 93.558C133.189 93.558 132.363 92.886 132.279 91.85H138.243C138.285 91.472 138.285 91.304 138.285 90.996C138.285 88.742 136.703 87.076 134.267 87.076C131.817 87.076 130.193 88.728 130.193 91.206C130.193 93.67 131.803 95.322 134.169 95.322ZM132.293 90.464C132.433 89.554 133.189 88.854 134.281 88.854C135.345 88.854 136.129 89.498 136.255 90.464H132.293ZM142.542 95H145.468V90.814C145.468 89.638 146.196 88.896 147.176 88.896C148.142 88.896 148.576 89.596 148.576 90.604V95H151.502V93.04H150.564V90.296C150.564 88.364 149.584 87.076 147.96 87.076C146.91 87.076 145.958 87.622 145.468 88.406V87.412H142.542V89.134H143.494V93.04H142.542V95ZM155.09 95.322C156.14 95.322 157.008 94.79 157.498 93.992V95H160.424V93.04H159.486V89.134H160.424V87.412H157.498V91.822C157.498 92.774 156.784 93.516 155.832 93.516C154.908 93.516 154.474 92.83 154.474 91.794V87.412H151.548V89.134H152.5V92.116C152.5 94.048 153.466 95.322 155.09 95.322ZM162.456 95H165.382V93.04H164.43V89.134H165.382V87.412H164.43V85.06H162.456V87.412H161.504V89.134H162.456V95ZM166.619 95H169.545V90.926C169.545 89.96 170.035 89.246 170.875 89.246C171.099 89.246 171.449 89.302 171.757 89.372V87.412C171.561 87.37 171.379 87.356 171.211 87.356C170.315 87.356 169.769 87.888 169.433 88.504V87.412H166.619V89.134H167.571V93.04H166.619V95ZM173.448 86.754H175.422V84.78H173.448V86.754ZM173.462 95H176.388V93.04H175.436V87.412H172.51V89.134H173.462V95ZM181.023 95.322C182.927 95.322 184.467 94.3 184.957 92.662H182.815C182.465 93.222 181.821 93.558 181.065 93.558C180.043 93.558 179.217 92.886 179.133 91.85H185.097C185.139 91.472 185.139 91.304 185.139 90.996C185.139 88.742 183.557 87.076 181.121 87.076C178.671 87.076 177.047 88.728 177.047 91.206C177.047 93.67 178.657 95.322 181.023 95.322ZM179.147 90.464C179.287 89.554 180.043 88.854 181.135 88.854C182.199 88.854 182.983 89.498 183.109 90.464H179.147ZM185.882 95H188.808V90.814C188.808 89.638 189.536 88.896 190.516 88.896C191.482 88.896 191.916 89.596 191.916 90.604V95H194.842V93.04H193.904V90.296C193.904 88.364 192.924 87.076 191.3 87.076C190.25 87.076 189.298 87.622 188.808 88.406V87.412H185.882V89.134H186.834V93.04H185.882V95ZM196.458 95H199.384V93.04H198.432V89.134H199.384V87.412H198.432V85.06H196.458V87.412H195.506V89.134H196.458V95ZM204.333 95.322C206.237 95.322 207.777 94.3 208.267 92.662H206.125C205.775 93.222 205.131 93.558 204.375 93.558C203.353 93.558 202.527 92.886 202.443 91.85H208.407C208.449 91.472 208.449 91.304 208.449 90.996C208.449 88.742 206.867 87.076 204.431 87.076C201.981 87.076 200.357 88.728 200.357 91.206C200.357 93.67 201.967 95.322 204.333 95.322ZM202.457 90.464C202.597 89.554 203.353 88.854 204.445 88.854C205.509 88.854 206.293 89.498 206.419 90.464H202.457ZM212.523 95.322C214.063 95.322 215.183 94.356 215.183 92.886C215.183 91.192 213.727 90.562 212.677 90.226C211.935 89.988 211.291 89.764 211.291 89.274C211.291 88.91 211.627 88.616 212.131 88.616C212.621 88.616 212.971 88.91 213.013 89.386H214.959V87.412H213.853V87.874C213.545 87.412 212.873 87.076 211.949 87.076C210.437 87.076 209.317 87.93 209.317 89.33C209.317 90.828 210.605 91.402 211.683 91.766C212.565 92.06 213.209 92.298 213.209 92.872C213.209 93.32 212.831 93.67 212.229 93.67C211.599 93.67 211.165 93.292 211.165 92.732H209.191V95H210.409V94.482C210.899 95.056 211.697 95.322 212.523 95.322ZM215.515 96.134H217.013L218.441 92.844H216.411L215.515 96.134ZM226.996 95.322C228.214 95.322 228.998 94.79 229.53 94.006V95H232.456V93.04H231.504V89.134H232.456V87.412H229.53V88.406C228.984 87.636 228.172 87.076 226.954 87.076C224.84 87.076 223.23 88.714 223.23 91.192C223.23 93.67 224.868 95.322 226.996 95.322ZM227.402 93.446C226.114 93.446 225.26 92.55 225.26 91.192C225.26 89.862 226.114 88.966 227.402 88.966C228.676 88.966 229.53 89.862 229.53 91.192C229.53 92.55 228.676 93.446 227.402 93.446ZM235.264 97.94H237.448L240.794 89.134H241.746V87.412H239.296L237.602 92.326L235.838 87.412H233.346V89.134H234.298L236.538 94.762L236.09 95.98H235.264V97.94ZM246.022 95.322C247.072 95.322 247.94 94.79 248.43 93.992V95H251.356V93.04H250.418V89.134H251.356V87.412H248.43V91.822C248.43 92.774 247.716 93.516 246.764 93.516C245.84 93.516 245.406 92.83 245.406 91.794V87.412H242.48V89.134H243.432V92.116C243.432 94.048 244.398 95.322 246.022 95.322ZM255.871 95.322C257.089 95.322 257.873 94.79 258.405 94.006V95H261.331V93.04H260.379V84.64H257.453V86.376H258.405V88.406C257.859 87.636 257.047 87.076 255.829 87.076C253.715 87.076 252.105 88.714 252.105 91.192C252.105 93.67 253.743 95.322 255.871 95.322ZM256.333 93.446C255.017 93.446 254.135 92.55 254.135 91.192C254.135 89.862 255.017 88.966 256.333 88.966C257.649 88.966 258.517 89.862 258.517 91.192C258.517 92.55 257.649 93.446 256.333 93.446ZM265.742 95.322C266.96 95.322 267.744 94.79 268.276 94.006V95H271.202V93.04H270.25V89.134H271.202V87.412H268.276V88.406C267.73 87.636 266.918 87.076 265.7 87.076C263.586 87.076 261.976 88.714 261.976 91.192C261.976 93.67 263.614 95.322 265.742 95.322ZM266.148 93.446C264.86 93.446 264.006 92.55 264.006 91.192C264.006 89.862 264.86 88.966 266.148 88.966C267.422 88.966 268.276 89.862 268.276 91.192C268.276 92.55 267.422 93.446 266.148 93.446ZM272.316 95H275.242V90.814C275.242 89.638 275.97 88.896 276.95 88.896C277.916 88.896 278.35 89.596 278.35 90.604V95H281.276V93.04H280.338V90.296C280.338 88.364 279.358 87.076 277.734 87.076C276.684 87.076 275.732 87.622 275.242 88.406V87.412H272.316V89.134H273.268V93.04H272.316V95ZM285.649 95.322C286.867 95.322 287.651 94.79 288.183 94.006V95H291.109V93.04H290.157V84.64H287.231V86.376H288.183V88.406C287.637 87.636 286.825 87.076 285.607 87.076C283.493 87.076 281.883 88.714 281.883 91.192C281.883 93.67 283.521 95.322 285.649 95.322ZM286.111 93.446C284.795 93.446 283.913 92.55 283.913 91.192C283.913 89.862 284.795 88.966 286.111 88.966C287.427 88.966 288.295 89.862 288.295 91.192C288.295 92.55 287.427 93.446 286.111 93.446ZM295.884 95.322C298.362 95.322 300.028 93.67 300.028 91.192C300.028 88.728 298.362 87.076 295.884 87.076C293.42 87.076 291.754 88.728 291.754 91.192C291.754 93.67 293.42 95.322 295.884 95.322ZM295.898 93.446C294.638 93.446 293.784 92.55 293.784 91.192C293.784 89.862 294.638 88.966 295.898 88.966C297.158 88.966 297.998 89.862 297.998 91.192C297.998 92.55 297.158 93.446 295.898 93.446ZM307.92 95.322C309.138 95.322 309.922 94.79 310.454 94.006V95H313.38V93.04H312.428V89.134H313.38V87.412H310.454V88.406C309.908 87.636 309.096 87.076 307.878 87.076C305.764 87.076 304.154 88.714 304.154 91.192C304.154 93.67 305.792 95.322 307.92 95.322ZM308.326 93.446C307.038 93.446 306.184 92.55 306.184 91.192C306.184 89.862 307.038 88.966 308.326 88.966C309.6 88.966 310.454 89.862 310.454 91.192C310.454 92.55 309.6 93.446 308.326 93.446ZM318.489 95H321.415V93.04H320.463V84.584H317.537V86.32H318.489V95ZM325.844 95.322C327.062 95.322 327.846 94.79 328.378 94.006V95H331.304V93.04H330.352V89.134H331.304V87.412H328.378V88.406C327.832 87.636 327.02 87.076 325.802 87.076C323.688 87.076 322.078 88.714 322.078 91.192C322.078 93.67 323.716 95.322 325.844 95.322ZM326.25 93.446C324.962 93.446 324.108 92.55 324.108 91.192C324.108 89.862 324.962 88.966 326.25 88.966C327.524 88.966 328.378 89.862 328.378 91.192C328.378 92.55 327.524 93.446 326.25 93.446ZM46.172 113.322C47.39 113.322 48.174 112.79 48.706 112.006V113H51.632V111.04H50.68V102.64H47.754V104.376H48.706V106.406C48.16 105.636 47.348 105.076 46.13 105.076C44.016 105.076 42.406 106.714 42.406 109.192C42.406 111.67 44.044 113.322 46.172 113.322ZM46.634 111.446C45.318 111.446 44.436 110.55 44.436 109.192C44.436 107.862 45.318 106.966 46.634 106.966C47.95 106.966 48.818 107.862 48.818 109.192C48.818 110.55 47.95 111.446 46.634 111.446ZM53.4085 104.754H55.3825V102.78H53.4085V104.754ZM53.4225 113H56.3485V111.04H55.3965V105.412H52.4705V107.134H53.4225V113ZM61.2636 115.94C63.6016 115.94 65.2816 114.638 65.2816 111.474V107.134H66.2336V105.412H63.3076V106.406C62.7616 105.636 61.9496 105.076 60.7316 105.076C58.6176 105.076 57.0076 106.714 57.0076 109.192C57.0076 111.67 58.6316 113.098 60.8296 113.098C61.9776 113.098 62.7756 112.678 63.3076 112.006V112.412C63.3076 113.532 62.4536 114.302 61.1936 114.302C60.4236 114.302 59.7376 114.008 59.4296 113.616H57.3856C57.9036 115.058 59.3596 115.94 61.2636 115.94ZM61.1796 111.446C59.8916 111.446 59.0376 110.55 59.0376 109.192C59.0376 107.862 59.8916 106.966 61.1796 106.966C62.4536 106.966 63.3076 107.862 63.3076 109.192C63.3076 110.55 62.4536 111.446 61.1796 111.446ZM70.8683 113.322C72.7723 113.322 74.3123 112.3 74.8023 110.662H72.6603C72.3103 111.222 71.6663 111.558 70.9103 111.558C69.8883 111.558 69.0623 110.886 68.9783 109.85H74.9423C74.9843 109.472 74.9843 109.304 74.9843 108.996C74.9843 106.742 73.4023 105.076 70.9663 105.076C68.5163 105.076 66.8923 106.728 66.8923 109.206C66.8923 111.67 68.5023 113.322 70.8683 113.322ZM68.9923 108.464C69.1323 107.554 69.8883 106.854 70.9803 106.854C72.0443 106.854 72.8283 107.498 72.9543 108.464H68.9923ZM79.0583 113.322C80.5983 113.322 81.7183 112.356 81.7183 110.886C81.7183 109.192 80.2623 108.562 79.2123 108.226C78.4703 107.988 77.8263 107.764 77.8263 107.274C77.8263 106.91 78.1623 106.616 78.6663 106.616C79.1563 106.616 79.5063 106.91 79.5483 107.386H81.4943V105.412H80.3883V105.874C80.0803 105.412 79.4083 105.076 78.4843 105.076C76.9723 105.076 75.8523 105.93 75.8523 107.33C75.8523 108.828 77.1403 109.402 78.2183 109.766C79.1003 110.06 79.7443 110.298 79.7443 110.872C79.7443 111.32 79.3663 111.67 78.7643 111.67C78.1343 111.67 77.7003 111.292 77.7003 110.732H75.7263V113H76.9443V112.482C77.4343 113.056 78.2323 113.322 79.0583 113.322ZM83.638 113H86.564V111.04H85.612V107.134H86.564V105.412H85.612V103.06H83.638V105.412H82.686V107.134H83.638V113ZM88.6682 104.754H90.6422V102.78H88.6682V104.754ZM88.6822 113H91.6082V111.04H90.6562V105.412H87.7302V107.134H88.6822V113ZM95.3753 104.726L98.9453 103.214L98.1613 101.716L94.8713 103.732L95.3753 104.726ZM96.3973 113.322C98.8753 113.322 100.541 111.67 100.541 109.192C100.541 106.728 98.8753 105.076 96.3973 105.076C93.9333 105.076 92.2673 106.728 92.2673 109.192C92.2673 111.67 93.9333 113.322 96.3973 113.322ZM96.4113 111.446C95.1513 111.446 94.2973 110.55 94.2973 109.192C94.2973 107.862 95.1513 106.966 96.4113 106.966C97.6713 106.966 98.5113 107.862 98.5113 109.192C98.5113 110.55 97.6713 111.446 96.4113 111.446ZM101.308 113H104.234V108.814C104.234 107.638 104.962 106.896 105.942 106.896C106.908 106.896 107.342 107.596 107.342 108.604V113H110.268V111.04H109.33V108.296C109.33 106.364 108.35 105.076 106.726 105.076C105.676 105.076 104.724 105.622 104.234 106.406V105.412H101.308V107.134H102.26V111.04H101.308V113ZM116.236 115.94H118.42L121.766 107.134H122.718V105.412H120.268L118.574 110.326L116.81 105.412H114.318V107.134H115.27L117.51 112.762L117.062 113.98H116.236V115.94ZM127.825 113H130.751V111.04H129.799V107.134H130.751V105.412H129.799V103.06H127.825V105.412H126.873V107.134H127.825V113ZM131.988 113H134.914V108.926C134.914 107.96 135.404 107.246 136.244 107.246C136.468 107.246 136.818 107.302 137.126 107.372V105.412C136.93 105.37 136.748 105.356 136.58 105.356C135.684 105.356 135.138 105.888 134.802 106.504V105.412H131.988V107.134H132.94V111.04H131.988V113ZM140.879 104.726L144.449 103.214L143.665 101.716L140.375 103.732L140.879 104.726ZM141.369 113.322C142.587 113.322 143.371 112.79 143.903 112.006V113H146.829V111.04H145.877V107.134H146.829V105.412H143.903V106.406C143.357 105.636 142.545 105.076 141.327 105.076C139.213 105.076 137.603 106.714 137.603 109.192C137.603 111.67 139.241 113.322 141.369 113.322ZM141.775 111.446C140.487 111.446 139.633 110.55 139.633 109.192C139.633 107.862 140.487 106.966 141.775 106.966C143.049 106.966 143.903 107.862 143.903 109.192C143.903 110.55 143.049 111.446 141.775 111.446ZM147.943 113H150.869V108.814C150.869 107.638 151.597 106.896 152.577 106.896C153.543 106.896 153.977 107.596 153.977 108.604V113H156.903V111.04H155.965V108.296C155.965 106.364 154.985 105.076 153.361 105.076C152.311 105.076 151.359 105.622 150.869 106.406V105.412H147.943V107.134H148.895V111.04H147.943V113ZM161.144 113.322C162.684 113.322 163.804 112.356 163.804 110.886C163.804 109.192 162.348 108.562 161.298 108.226C160.556 107.988 159.912 107.764 159.912 107.274C159.912 106.91 160.248 106.616 160.752 106.616C161.242 106.616 161.592 106.91 161.634 107.386H163.58V105.412H162.474V105.874C162.166 105.412 161.494 105.076 160.57 105.076C159.058 105.076 157.938 105.93 157.938 107.33C157.938 108.828 159.226 109.402 160.304 109.766C161.186 110.06 161.83 110.298 161.83 110.872C161.83 111.32 161.452 111.67 160.85 111.67C160.22 111.67 159.786 111.292 159.786 110.732H157.812V113H159.03V112.482C159.52 113.056 160.318 113.322 161.144 113.322ZM165.682 104.754H167.656V102.78H165.682V104.754ZM165.696 113H168.622V111.04H167.67V105.412H164.744V107.134H165.696V113ZM170.564 113H173.49V111.04H172.538V107.134H173.49V105.412H172.538V103.06H170.564V105.412H169.612V107.134H170.564V113ZM178.593 113.322C181.071 113.322 182.737 111.67 182.737 109.192C182.737 106.728 181.071 105.076 178.593 105.076C176.129 105.076 174.463 106.728 174.463 109.192C174.463 111.67 176.129 113.322 178.593 113.322ZM178.607 111.446C177.347 111.446 176.493 110.55 176.493 109.192C176.493 107.862 177.347 106.966 178.607 106.966C179.867 106.966 180.707 107.862 180.707 109.192C180.707 110.55 179.867 111.446 178.607 111.446ZM191.119 115.94C193.457 115.94 195.137 114.638 195.137 111.474V107.134H196.089V105.412H193.163V106.406C192.617 105.636 191.805 105.076 190.587 105.076C188.473 105.076 186.863 106.714 186.863 109.192C186.863 111.67 188.487 113.098 190.685 113.098C191.833 113.098 192.631 112.678 193.163 112.006V112.412C193.163 113.532 192.309 114.302 191.049 114.302C190.279 114.302 189.593 114.008 189.285 113.616H187.241C187.759 115.058 189.215 115.94 191.119 115.94ZM191.035 111.446C189.747 111.446 188.893 110.55 188.893 109.192C188.893 107.862 189.747 106.966 191.035 106.966C192.309 106.966 193.163 107.862 193.163 109.192C193.163 110.55 192.309 111.446 191.035 111.446ZM200.514 113.322C201.732 113.322 202.516 112.79 203.048 112.006V113H205.974V111.04H205.022V107.134H205.974V105.412H203.048V106.406C202.502 105.636 201.69 105.076 200.472 105.076C198.358 105.076 196.748 106.714 196.748 109.192C196.748 111.67 198.386 113.322 200.514 113.322ZM200.92 111.446C199.632 111.446 198.778 110.55 198.778 109.192C198.778 107.862 199.632 106.966 200.92 106.966C202.194 106.966 203.048 107.862 203.048 109.192C203.048 110.55 202.194 111.446 200.92 111.446ZM210.349 113.322C211.889 113.322 213.009 112.356 213.009 110.886C213.009 109.192 211.553 108.562 210.503 108.226C209.761 107.988 209.117 107.764 209.117 107.274C209.117 106.91 209.453 106.616 209.957 106.616C210.447 106.616 210.797 106.91 210.839 107.386H212.785V105.412H211.679V105.874C211.371 105.412 210.699 105.076 209.775 105.076C208.263 105.076 207.143 105.93 207.143 107.33C207.143 108.828 208.431 109.402 209.509 109.766C210.391 110.06 211.035 110.298 211.035 110.872C211.035 111.32 210.657 111.67 210.055 111.67C209.425 111.67 208.991 111.292 208.991 110.732H207.017V113H208.235V112.482C208.725 113.056 209.523 113.322 210.349 113.322ZM214.929 113H217.855V111.04H216.903V107.134H217.855V105.412H216.903V103.06H214.929V105.412H213.977V107.134H214.929V113ZM219.091 113H222.017V108.926C222.017 107.96 222.507 107.246 223.347 107.246C223.571 107.246 223.921 107.302 224.229 107.372V105.412C224.033 105.37 223.851 105.356 223.683 105.356C222.787 105.356 222.241 105.888 221.905 106.504V105.412H219.091V107.134H220.043V111.04H219.091V113ZM228.837 113.322C231.315 113.322 232.981 111.67 232.981 109.192C232.981 106.728 231.315 105.076 228.837 105.076C226.373 105.076 224.707 106.728 224.707 109.192C224.707 111.67 226.373 113.322 228.837 113.322ZM228.851 111.446C227.591 111.446 226.737 110.55 226.737 109.192C226.737 107.862 227.591 106.966 228.851 106.966C230.111 106.966 230.951 107.862 230.951 109.192C230.951 110.55 230.111 111.446 228.851 111.446ZM234.78 104.754H236.754V102.78H234.78V104.754ZM234.794 113H237.72V111.04H236.768V105.412H233.842V107.134H234.794V113ZM238.751 113H241.677V108.814C241.677 107.638 242.405 106.896 243.385 106.896C244.351 106.896 244.785 107.596 244.785 108.604V113H247.711V111.04H246.773V108.296C246.773 106.364 245.793 105.076 244.169 105.076C243.119 105.076 242.167 105.622 241.677 106.406V105.412H238.751V107.134H239.703V111.04H238.751V113ZM249.327 113H252.253V111.04H251.301V107.134H252.253V105.412H251.301V103.06H249.327V105.412H248.375V107.134H249.327V113ZM257.202 113.322C259.106 113.322 260.646 112.3 261.136 110.662H258.994C258.644 111.222 258 111.558 257.244 111.558C256.222 111.558 255.396 110.886 255.312 109.85H261.276C261.318 109.472 261.318 109.304 261.318 108.996C261.318 106.742 259.736 105.076 257.3 105.076C254.85 105.076 253.226 106.728 253.226 109.206C253.226 111.67 254.836 113.322 257.202 113.322ZM255.326 108.464C255.466 107.554 256.222 106.854 257.314 106.854C258.378 106.854 259.162 107.498 259.288 108.464H255.326ZM265.392 113.322C266.932 113.322 268.052 112.356 268.052 110.886C268.052 109.192 266.596 108.562 265.546 108.226C264.804 107.988 264.16 107.764 264.16 107.274C264.16 106.91 264.496 106.616 265 106.616C265.49 106.616 265.84 106.91 265.882 107.386H267.828V105.412H266.722V105.874C266.414 105.412 265.742 105.076 264.818 105.076C263.306 105.076 262.186 105.93 262.186 107.33C262.186 108.828 263.474 109.402 264.552 109.766C265.434 110.06 266.078 110.298 266.078 110.872C266.078 111.32 265.7 111.67 265.098 111.67C264.468 111.67 264.034 111.292 264.034 110.732H262.06V113H263.278V112.482C263.768 113.056 264.566 113.322 265.392 113.322ZM269.972 113H272.898V111.04H271.946V107.134H272.898V105.412H271.946V103.06H269.972V105.412H269.02V107.134H269.972V113ZM275.002 104.754H276.976V102.78H275.002V104.754ZM275.016 113H277.942V111.04H276.99V105.412H274.064V107.134H275.016V113ZM278.974 113H281.9V108.814C281.9 107.638 282.628 106.896 283.608 106.896C284.574 106.896 285.008 107.596 285.008 108.604V113H287.934V111.04H286.996V108.296C286.996 106.364 286.016 105.076 284.392 105.076C283.342 105.076 282.39 105.622 281.9 106.406V105.412H278.974V107.134H279.926V111.04H278.974V113ZM292.307 113.322C293.525 113.322 294.309 112.79 294.841 112.006V113H297.767V111.04H296.815V107.134H297.767V105.412H294.841V106.406C294.295 105.636 293.483 105.076 292.265 105.076C290.151 105.076 288.541 106.714 288.541 109.192C288.541 111.67 290.179 113.322 292.307 113.322ZM292.713 111.446C291.425 111.446 290.571 110.55 290.571 109.192C290.571 107.862 291.425 106.966 292.713 106.966C293.987 106.966 294.841 107.862 294.841 109.192C294.841 110.55 293.987 111.446 292.713 111.446ZM299.58 113H302.506V111.04H301.554V102.584H298.628V104.32H299.58V113ZM303.815 113H305.845V110.844H303.815V113Z" fill="#D9EEEF"/>
  <circle opacity="0.5" cx="13.5" cy="95.5" r="13.5" fill="white"/>
  <circle cx="13.5" cy="95.5" r="7.32857" fill="white"/>
  <path d="M47.964 20.322C50.666 20.322 52.374 18.866 52.948 16.864H50.61C50.176 17.76 49.196 18.348 47.95 18.348C46.158 18.348 44.898 17.018 44.898 15.03C44.898 13.042 46.158 11.712 47.936 11.712C49.014 11.712 49.91 12.188 50.456 12.93H52.822V10.06H51.002V11.194C50.218 10.298 49.07 9.738 47.558 9.738C44.674 9.738 42.518 11.852 42.518 15.016C42.518 18.222 44.716 20.322 47.964 20.322ZM57.8016 20.322C60.2796 20.322 61.9456 18.67 61.9456 16.192C61.9456 13.728 60.2796 12.076 57.8016 12.076C55.3376 12.076 53.6716 13.728 53.6716 16.192C53.6716 18.67 55.3376 20.322 57.8016 20.322ZM57.8156 18.446C56.5556 18.446 55.7016 17.55 55.7016 16.192C55.7016 14.862 56.5556 13.966 57.8156 13.966C59.0756 13.966 59.9156 14.862 59.9156 16.192C59.9156 17.55 59.0756 18.446 57.8156 18.446ZM62.7123 20H65.6383V15.814C65.6383 14.638 66.3663 13.896 67.3463 13.896C68.3123 13.896 68.7463 14.596 68.7463 15.604V20H71.6723V18.04H70.7343V15.296C70.7343 13.364 69.7543 12.076 68.1303 12.076C67.0803 12.076 66.1283 12.622 65.6383 13.406V12.412H62.7123V14.134H63.6643V18.04H62.7123V20ZM76.045 20.322C77.263 20.322 78.047 19.79 78.579 19.006V20H81.505V18.04H80.553V9.64H77.627V11.376H78.579V13.406C78.033 12.636 77.221 12.076 76.003 12.076C73.889 12.076 72.279 13.714 72.279 16.192C72.279 18.67 73.917 20.322 76.045 20.322ZM76.507 18.446C75.191 18.446 74.309 17.55 74.309 16.192C74.309 14.862 75.191 13.966 76.507 13.966C77.823 13.966 78.691 14.862 78.691 16.192C78.691 17.55 77.823 18.446 76.507 18.446ZM83.2815 11.754H85.2555V9.78H83.2815V11.754ZM83.2955 20H86.2215V18.04H85.2695V12.412H82.3435V14.134H83.2955V20ZM91.0106 20.322C93.1526 20.322 94.6926 19.09 95.0566 17.158H92.9566C92.6626 17.956 91.9346 18.446 91.0106 18.446C89.7646 18.446 88.9106 17.55 88.9106 16.192C88.9106 14.862 89.7506 13.966 91.0106 13.966C91.8926 13.966 92.5786 14.414 92.9286 15.184H94.9586V12.412H93.4046V13.154C92.9006 12.496 91.9766 12.076 90.8286 12.076C88.6306 12.076 86.8806 13.714 86.8806 16.192C86.8806 18.67 88.5466 20.322 91.0106 20.322ZM96.7757 11.754H98.7497V9.78H96.7757V11.754ZM96.7897 20H99.7157V18.04H98.7637V12.412H95.8377V14.134H96.7897V20ZM103.483 11.726L107.053 10.214L106.269 8.716L102.979 10.732L103.483 11.726ZM104.505 20.322C106.983 20.322 108.649 18.67 108.649 16.192C108.649 13.728 106.983 12.076 104.505 12.076C102.041 12.076 100.375 13.728 100.375 16.192C100.375 18.67 102.041 20.322 104.505 20.322ZM104.519 18.446C103.259 18.446 102.405 17.55 102.405 16.192C102.405 14.862 103.259 13.966 104.519 13.966C105.779 13.966 106.619 14.862 106.619 16.192C106.619 17.55 105.779 18.446 104.519 18.446ZM109.415 20H112.341V15.814C112.341 14.638 113.069 13.896 114.049 13.896C115.015 13.896 115.449 14.596 115.449 15.604V20H118.375V18.04H117.437V15.296C117.437 13.364 116.457 12.076 114.833 12.076C113.783 12.076 112.831 12.622 112.341 13.406V12.412H109.415V14.134H110.367V18.04H109.415V20ZM126.262 20.322C127.48 20.322 128.264 19.79 128.796 19.006V20H131.722V18.04H130.77V9.64H127.844V11.376H128.796V13.406C128.25 12.636 127.438 12.076 126.22 12.076C124.106 12.076 122.496 13.714 122.496 16.192C122.496 18.67 124.134 20.322 126.262 20.322ZM126.724 18.446C125.408 18.446 124.526 17.55 124.526 16.192C124.526 14.862 125.408 13.966 126.724 13.966C128.04 13.966 128.908 14.862 128.908 16.192C128.908 17.55 128.04 18.446 126.724 18.446ZM136.343 20.322C138.247 20.322 139.787 19.3 140.277 17.662H138.135C137.785 18.222 137.141 18.558 136.385 18.558C135.363 18.558 134.537 17.886 134.453 16.85H140.417C140.459 16.472 140.459 16.304 140.459 15.996C140.459 13.742 138.877 12.076 136.441 12.076C133.991 12.076 132.367 13.728 132.367 16.206C132.367 18.67 133.977 20.322 136.343 20.322ZM134.467 15.464C134.607 14.554 135.363 13.854 136.455 13.854C137.519 13.854 138.303 14.498 138.429 15.464H134.467ZM144.646 22.94H147.572V19.006C148.104 19.79 148.888 20.322 150.092 20.322C152.234 20.322 153.872 18.67 153.872 16.192C153.872 13.714 152.248 12.076 150.148 12.076C148.93 12.076 148.104 12.636 147.572 13.406V12.412H144.646V14.134H145.598V20.98H144.646V22.94ZM149.644 18.446C148.328 18.446 147.46 17.55 147.46 16.192C147.46 14.862 148.328 13.966 149.644 13.966C150.96 13.966 151.842 14.862 151.842 16.192C151.842 17.55 150.96 18.446 149.644 18.446ZM155.647 11.754H157.621V9.78H155.647V11.754ZM155.661 20H158.587V18.04H157.635V12.412H154.709V14.134H155.661V20ZM163.222 20.322C165.126 20.322 166.666 19.3 167.156 17.662H165.014C164.664 18.222 164.02 18.558 163.264 18.558C162.242 18.558 161.416 17.886 161.332 16.85H167.296C167.338 16.472 167.338 16.304 167.338 15.996C167.338 13.742 165.756 12.076 163.32 12.076C160.87 12.076 159.246 13.728 159.246 16.206C159.246 18.67 160.856 20.322 163.222 20.322ZM161.346 15.464C161.486 14.554 162.242 13.854 163.334 13.854C164.398 13.854 165.182 14.498 165.308 15.464H161.346ZM168.781 20H171.707V18.04H170.755V9.584H167.829V11.32H168.781V20ZM177.733 22.94H179.917L183.263 14.134H184.215V12.412H181.765L180.071 17.326L178.307 12.412H175.815V14.134H176.767L179.007 19.762L178.559 20.98H177.733V22.94ZM188.342 22.94H191.268V19.006C191.8 19.79 192.584 20.322 193.788 20.322C195.93 20.322 197.568 18.67 197.568 16.192C197.568 13.714 195.944 12.076 193.844 12.076C192.626 12.076 191.8 12.636 191.268 13.406V12.412H188.342V14.134H189.294V20.98H188.342V22.94ZM193.34 18.446C192.024 18.446 191.156 17.55 191.156 16.192C191.156 14.862 192.024 13.966 193.34 13.966C194.656 13.966 195.538 14.862 195.538 16.192C195.538 17.55 194.656 18.446 193.34 18.446ZM202.351 20.322C204.255 20.322 205.795 19.3 206.285 17.662H204.143C203.793 18.222 203.149 18.558 202.393 18.558C201.371 18.558 200.545 17.886 200.461 16.85H206.425C206.467 16.472 206.467 16.304 206.467 15.996C206.467 13.742 204.885 12.076 202.449 12.076C199.999 12.076 198.375 13.728 198.375 16.206C198.375 18.67 199.985 20.322 202.351 20.322ZM200.475 15.464C200.615 14.554 201.371 13.854 202.463 13.854C203.527 13.854 204.311 14.498 204.437 15.464H200.475ZM207.91 20H210.836V18.04H209.884V9.584H206.958V11.32H207.91V20ZM215.266 20.322C216.484 20.322 217.268 19.79 217.8 19.006V20H220.726V18.04H219.774V14.134H220.726V12.412H217.8V13.406C217.254 12.636 216.442 12.076 215.224 12.076C213.11 12.076 211.5 13.714 211.5 16.192C211.5 18.67 213.138 20.322 215.266 20.322ZM215.672 18.446C214.384 18.446 213.53 17.55 213.53 16.192C213.53 14.862 214.384 13.966 215.672 13.966C216.946 13.966 217.8 14.862 217.8 16.192C217.8 17.55 216.946 18.446 215.672 18.446ZM222.735 11.754H224.709V9.78H222.735V11.754ZM221.769 22.94H222.301C223.743 22.94 224.709 21.974 224.709 20.518V12.412H221.783V14.134H222.735V20.07C222.735 20.602 222.469 20.966 222.077 20.966H221.769V22.94ZM229.9 20.322C231.804 20.322 233.344 19.3 233.834 17.662H231.692C231.342 18.222 230.698 18.558 229.942 18.558C228.92 18.558 228.094 17.886 228.01 16.85H233.974C234.016 16.472 234.016 16.304 234.016 15.996C234.016 13.742 232.434 12.076 229.998 12.076C227.548 12.076 225.924 13.728 225.924 16.206C225.924 18.67 227.534 20.322 229.9 20.322ZM228.024 15.464C228.164 14.554 228.92 13.854 230.012 13.854C231.076 13.854 231.86 14.498 231.986 15.464H228.024ZM238.273 20H241.199V15.856C241.199 14.582 241.843 13.896 242.753 13.896C243.635 13.896 244.041 14.526 244.041 15.604V20H246.015V15.856C246.015 14.582 246.659 13.896 247.569 13.896C248.451 13.896 248.843 14.526 248.843 15.604V20H251.769V18.04H250.831V15.296C250.831 13.294 249.893 12.076 248.353 12.076C247.023 12.076 246.253 12.692 245.749 13.728C245.385 12.664 244.601 12.076 243.537 12.076C242.571 12.076 241.675 12.552 241.199 13.392V12.412H238.273V14.134H239.225V18.04H238.273V20ZM255.655 11.726L259.225 10.214L258.441 8.716L255.151 10.732L255.655 11.726ZM256.145 20.322C257.363 20.322 258.147 19.79 258.679 19.006V20H261.605V18.04H260.653V14.134H261.605V12.412H258.679V13.406C258.133 12.636 257.321 12.076 256.103 12.076C253.989 12.076 252.379 13.714 252.379 16.192C252.379 18.67 254.017 20.322 256.145 20.322ZM256.551 18.446C255.263 18.446 254.409 17.55 254.409 16.192C254.409 14.862 255.263 13.966 256.551 13.966C257.825 13.966 258.679 14.862 258.679 16.192C258.679 17.55 257.825 18.446 256.551 18.446ZM265.98 20.322C267.52 20.322 268.64 19.356 268.64 17.886C268.64 16.192 267.184 15.562 266.134 15.226C265.392 14.988 264.748 14.764 264.748 14.274C264.748 13.91 265.084 13.616 265.588 13.616C266.078 13.616 266.428 13.91 266.47 14.386H268.416V12.412H267.31V12.874C267.002 12.412 266.33 12.076 265.406 12.076C263.894 12.076 262.774 12.93 262.774 14.33C262.774 15.828 264.062 16.402 265.14 16.766C266.022 17.06 266.666 17.298 266.666 17.872C266.666 18.32 266.288 18.67 265.686 18.67C265.056 18.67 264.622 18.292 264.622 17.732H262.648V20H263.866V19.482C264.356 20.056 265.154 20.322 265.98 20.322ZM276.207 20.322C277.747 20.322 278.867 19.356 278.867 17.886C278.867 16.192 277.411 15.562 276.361 15.226C275.619 14.988 274.975 14.764 274.975 14.274C274.975 13.91 275.311 13.616 275.815 13.616C276.305 13.616 276.655 13.91 276.697 14.386H278.643V12.412H277.537V12.874C277.229 12.412 276.557 12.076 275.633 12.076C274.121 12.076 273.001 12.93 273.001 14.33C273.001 15.828 274.289 16.402 275.367 16.766C276.249 17.06 276.893 17.298 276.893 17.872C276.893 18.32 276.515 18.67 275.913 18.67C275.283 18.67 274.849 18.292 274.849 17.732H272.875V20H274.093V19.482C274.583 20.056 275.381 20.322 276.207 20.322ZM283.086 20.322C284.136 20.322 285.004 19.79 285.494 18.992V20H288.42V18.04H287.482V14.134H288.42V12.412H285.494V16.822C285.494 17.774 284.78 18.516 283.828 18.516C282.904 18.516 282.47 17.83 282.47 16.794V12.412H279.544V14.134H280.496V17.116C280.496 19.048 281.462 20.322 283.086 20.322ZM292.936 20.322C294.154 20.322 294.938 19.79 295.47 19.006V20H298.396V18.04H297.444V14.134H298.396V12.412H295.47V13.406C294.924 12.636 294.112 12.076 292.894 12.076C290.78 12.076 289.17 13.714 289.17 16.192C289.17 18.67 290.808 20.322 292.936 20.322ZM293.342 18.446C292.054 18.446 291.2 17.55 291.2 16.192C291.2 14.862 292.054 13.966 293.342 13.966C294.616 13.966 295.47 14.862 295.47 16.192C295.47 17.55 294.616 18.446 293.342 18.446ZM302.449 20H304.479L306.621 14.134H307.573V12.412H305.207L303.471 17.536L301.721 12.412H299.355V14.134H300.307L302.449 20ZM311.999 20.322C313.903 20.322 315.443 19.3 315.933 17.662H313.791C313.441 18.222 312.797 18.558 312.041 18.558C311.019 18.558 310.193 17.886 310.109 16.85H316.073C316.115 16.472 316.115 16.304 316.115 15.996C316.115 13.742 314.533 12.076 312.097 12.076C309.647 12.076 308.023 13.728 308.023 16.206C308.023 18.67 309.633 20.322 311.999 20.322ZM310.123 15.464C310.263 14.554 311.019 13.854 312.111 13.854C313.175 13.854 313.959 14.498 314.085 15.464H310.123ZM320.189 20.322C321.729 20.322 322.849 19.356 322.849 17.886C322.849 16.192 321.393 15.562 320.343 15.226C319.601 14.988 318.957 14.764 318.957 14.274C318.957 13.91 319.293 13.616 319.797 13.616C320.287 13.616 320.637 13.91 320.679 14.386H322.625V12.412H321.519V12.874C321.211 12.412 320.539 12.076 319.615 12.076C318.103 12.076 316.983 12.93 316.983 14.33C316.983 15.828 318.271 16.402 319.349 16.766C320.231 17.06 320.875 17.298 320.875 17.872C320.875 18.32 320.497 18.67 319.895 18.67C319.265 18.67 318.831 18.292 318.831 17.732H316.857V20H318.075V19.482C318.565 20.056 319.363 20.322 320.189 20.322ZM323.926 20H325.956V17.844H323.926V20Z" fill="#D9EEEF"/>
  <circle opacity="0.5" cx="14.5" cy="13.5" r="13.5" fill="white"/>
  <circle cx="14.5" cy="13.5001" r="7.32857" fill="white"/>
  </svg>
  