<svg width="56" height="46" viewBox="0 0 56 46" fill="none" xmlns="http://www.w3.org/2000/svg">
<path d="M20.6332 23.8122C21.1171 23.8135 21.5819 23.6281 21.9246 23.2965C22.2676 22.9649 22.4606 22.5146 22.4611 22.0445C22.4615 21.5744 22.2698 21.1237 21.9277 20.7912C21.5855 20.4587 21.1216 20.2721 20.6377 20.273C20.1539 20.2734 19.6899 20.4609 19.3491 20.7942C19.0078 21.1271 18.8166 21.5787 18.8183 22.0484C18.8183 22.5163 19.0096 22.9649 19.35 23.2957C19.6904 23.6264 20.1521 23.8122 20.6333 23.8122L20.6332 23.8122Z" fill="#FAD7B1"/>
<path d="M34.3271 23.8122C34.8109 23.8135 35.2758 23.6281 35.6184 23.2965C35.9615 22.9649 36.1545 22.5146 36.1549 22.0445C36.1554 21.5744 35.9637 21.1237 35.6215 20.7912C35.2794 20.4588 34.8154 20.2721 34.3316 20.273C33.8477 20.2734 33.3843 20.4609 33.043 20.7942C32.7017 21.1271 32.5105 21.5787 32.5122 22.0484C32.514 22.5159 32.7057 22.9632 33.0456 23.2936C33.3856 23.6243 33.8464 23.8105 34.3272 23.8122L34.3271 23.8122Z" fill="#FAD7B1"/>
<path d="M35.7877 31.6053C35.5517 31.549 35.3025 31.5869 35.0958 31.7103C34.8873 31.8312 34.7385 32.0294 34.6832 32.2591C34.5283 32.8655 34.2029 33.4181 33.7439 33.856C33.3092 34.2117 32.7753 34.4336 32.2105 34.4938C31.6456 34.5545 31.075 34.4504 30.5708 34.1949C29.9838 33.9283 29.4903 33.4995 29.1517 32.9623C28.8135 32.4256 28.6448 31.8033 28.6674 31.174C29.3022 30.8227 30.6284 29.978 30.6917 28.8804C30.7253 28.2963 30.4186 27.7437 29.8984 27.4499C29.1685 27.016 28.323 26.8013 27.4678 26.8332C25.9764 26.8332 24.358 27.3695 24.0982 28.5596C23.8826 29.5337 24.6188 30.4094 26.3129 31.1677C26.3372 31.7978 26.169 32.4201 25.8304 32.9578C25.4917 33.4954 24.9973 33.9237 24.409 34.1891C23.9052 34.4446 23.3346 34.5483 22.7693 34.4881C22.2044 34.4278 21.6706 34.2055 21.2359 33.8502C20.7658 33.4184 20.4294 32.867 20.2651 32.2594C20.1461 31.7824 19.6516 31.4899 19.1607 31.6056C18.6702 31.7213 18.3692 32.2017 18.4883 32.6787C18.7189 33.618 19.2209 34.4735 19.9349 35.1448C20.7623 35.8944 21.8566 36.3031 22.9876 36.2853C23.7331 36.2802 24.4683 36.1202 25.1452 35.817C26.1293 35.3809 26.9416 34.648 27.4616 33.7268C27.9889 34.6416 28.8025 35.3693 29.7843 35.8045C30.4629 36.1086 31.2009 36.2686 31.9481 36.2733C33.0774 36.2914 34.1698 35.8824 34.9946 35.1323C35.7086 34.4609 36.2105 33.6055 36.4413 32.6662C36.5506 32.1996 36.2624 31.7325 35.7879 31.6056L35.7877 31.6053Z" fill="#FAD7B1"/>
<path d="M54.9848 28.1163L50.6378 27.703V27.7034C50.4984 26.6119 50.2863 25.5307 50.003 24.4662L55.0419 23.56C55.536 23.4714 55.8631 23.0103 55.7719 22.5303C55.6807 22.0499 55.2062 21.7325 54.7121 21.8211L49.4572 22.7583C48.9876 21.2848 48.4608 19.9033 48.004 18.7197C47.9216 17.1228 47.3059 5.58003 47.2236 3.57616C47.2355 2.64759 46.8707 1.75175 46.2081 1.0821C45.5454 0.412886 44.638 0.0240795 43.6827 0C42.7318 0.0146228 41.8235 0.383213 41.144 1.02964C39.7416 2.29968 33.6111 8.81689 32.0375 10.5003H23.7113C22.1695 8.81689 16.0071 2.29979 14.6047 1.02964C13.9257 0.383213 13.0169 0.0146217 12.0665 0C11.1108 0.024085 10.2034 0.412886 9.54067 1.0821C8.87799 1.75175 8.51324 2.64766 8.52519 3.57616C8.44286 5.57992 7.8271 17.1408 7.74477 18.7197C7.2813 19.9038 6.75452 21.2848 6.30432 22.7583L1.07502 21.8211C0.580557 21.7325 0.106017 22.0499 0.0152673 22.5303C-0.0759227 23.0103 0.250764 23.4714 0.744785 23.56L5.7837 24.4662C5.50039 25.5307 5.28835 26.6119 5.14891 27.7034L0.801946 28.1168V28.1163C0.327847 28.1705 -0.0218571 28.5722 0.00160079 29.0354C0.0250621 29.4986 0.413723 29.8651 0.890927 29.8737H0.979904L4.99052 29.4978V29.4973C4.9135 30.8443 5.04187 32.1949 5.37122 33.5053C5.56733 34.2188 5.84841 34.9078 6.20919 35.5585L6.39954 35.9224V35.9219C6.91126 36.8823 7.59691 37.7447 8.42383 38.4685L8.4619 38.5055L10.283 39.8435H10.3211C13.1077 41.6588 16.182 43.0171 19.4215 43.8636C22.1754 44.6171 25.0199 45.011 27.8808 45.0352C30.7493 45.0192 33.6027 44.6317 36.3655 43.882C39.5668 43.0442 42.6075 41.7097 45.3707 39.9299L45.5991 39.7695L47.325 38.4994L47.3631 38.4625H47.3635C48.19 37.7386 48.8757 36.8759 49.3878 35.9159L49.5782 35.552C49.9376 34.9013 50.2187 34.2123 50.4157 33.4988C50.745 32.1884 50.873 30.8383 50.7964 29.4913L54.807 29.8672H54.896V29.8676C55.3732 29.8586 55.7623 29.4922 55.7857 29.029C55.8092 28.5658 55.4591 28.164 54.985 28.1103L54.9848 28.1163ZM45.0659 37.2664C38.085 42.2976 30.1458 42.686 27.8805 42.686C25.6152 42.686 17.6695 42.2977 10.695 37.2664C7.92835 35.2686 7.18552 32.3337 7.3759 29.2508L9.4768 29.0594C9.97612 29.0121 10.3413 28.5799 10.2922 28.0947C10.2431 27.6096 9.79817 27.2548 9.29885 27.3025L7.57294 27.4505C7.71813 26.5826 7.90847 25.7224 8.14398 24.873L9.16566 25.0519H9.33077C9.80531 25.0592 10.2055 24.71 10.2489 24.2506C10.2923 23.7913 9.96379 23.3775 9.4959 23.301L8.65837 23.153C9.10901 21.7781 9.6101 20.4835 10.0417 19.361C10.0798 19.247 10.1032 19.1292 10.1112 19.0096C10.1112 18.8741 10.8155 5.81486 10.9045 3.65684C10.9425 2.78763 11.5012 2.33736 12.0342 2.33736C12.3732 2.35414 12.6929 2.49521 12.9288 2.73218C14.4392 4.1012 22.1814 12.3692 22.2576 12.4497V12.4492C22.4882 12.6926 22.8122 12.8311 23.1526 12.8316H32.5828C32.9228 12.8311 33.2473 12.6927 33.4774 12.4492C33.5536 12.3692 41.2958 4.10077 42.8062 2.73175V2.73218C43.0421 2.49521 43.3622 2.35413 43.7013 2.33736C44.2342 2.33736 44.7929 2.78766 44.831 3.65684C44.9199 5.81508 45.6114 18.8742 45.6242 19.0096H45.6238C45.6318 19.1292 45.6552 19.247 45.6937 19.361C46.1253 20.483 46.6264 21.7781 47.0771 23.153L46.2838 23.338C45.8159 23.4145 45.4874 23.8283 45.5308 24.2876C45.5742 24.747 45.9744 25.0962 46.4489 25.0889H46.614L47.6357 24.9099C47.8633 25.7473 48.0474 26.5951 48.1877 27.4505L46.4742 27.284C45.9695 27.2328 45.518 27.589 45.4653 28.0793C45.4127 28.5696 45.7792 29.0087 46.2838 29.0594L48.3843 29.2568C48.5751 32.3397 47.8323 35.2687 45.0656 37.2664L45.0659 37.2664Z" fill="#FAD7B1"/>
</svg>
