<svg width="51" height="56" viewBox="0 0 51 56" fill="none" xmlns="http://www.w3.org/2000/svg">
<path d="M1.43467 40.7761C3.22133 39.0788 5.09733 39.0788 6.70533 40.6868C7.33067 41.3121 7.688 42.0268 7.77733 42.6521L6.52667 43.0988C6.348 42.5628 6.16933 42.0268 5.72267 41.6694C4.82933 40.6868 3.75733 40.8654 2.596 41.9374C1.43467 43.0094 1.256 44.0814 2.14933 45.0641C2.596 45.5108 3.132 45.7788 3.57867 45.9574L3.04267 47.2081C2.328 47.0294 1.61333 46.5828 1.07733 45.9574C-0.441334 44.2601 -0.352 42.4734 1.43467 40.7761Z" fill="#FAD7B1"/>
<path d="M5.544 46.4041C6.52667 44.9747 7.77733 44.6174 9.11733 45.5107C10.4573 46.4041 10.636 47.7441 9.65333 49.1734C8.67067 50.6027 7.42 50.9601 6.08 50.0667C4.74 49.1734 4.56133 47.9227 5.544 46.4041ZM8.58133 48.4587C9.11733 47.5654 9.11733 46.9401 8.492 46.4934C7.86667 46.0467 7.24133 46.3147 6.616 47.2081C5.99067 48.1014 6.08 48.8161 6.70533 49.1734C7.33067 49.5307 7.956 49.3521 8.58133 48.4587Z" fill="#FAD7B1"/>
<path d="M18.5867 51.0494L17.4253 54.8014L16.1747 54.444L17.1573 51.228C17.2467 50.7814 17.068 50.424 16.7107 50.3347C16.3533 50.2454 15.9067 50.3347 15.5493 50.6027L14.4773 53.9974L13.2267 53.64L14.2093 50.424C14.2987 49.9774 14.12 49.62 13.7627 49.5307C13.4053 49.4414 12.9587 49.5307 12.6013 49.7094V49.5307V49.7094L11.5293 53.104L10.2787 52.7467L11.7973 47.8334L12.78 48.1907L12.6907 48.9054C13.316 48.548 13.9413 48.3694 14.656 48.6374C15.3707 48.9054 15.728 49.352 15.728 49.888C16.1747 49.4414 16.9787 49.352 17.604 49.5307C18.4973 49.5307 18.8547 50.2454 18.5867 51.0494Z" fill="#FAD7B1"/>
<path d="M24.4827 49.9774L24.3933 55.0694H23.3213L23.232 54.3547C22.7853 54.8907 22.16 55.1587 21.4453 55.1587C20.552 55.1587 20.016 54.6227 20.016 53.7294L20.1053 49.7987H21.4453L21.2667 53.2827C21.2667 53.7294 21.5347 53.9974 21.9813 53.9974C22.3387 53.9974 22.696 53.8187 23.0533 53.4614L23.1427 49.888L24.4827 49.9774Z" fill="#FAD7B1"/>
<path d="M30.2893 50.1561L31.0933 53.9974L29.8427 54.2654L29.0387 50.9601C28.9493 50.5134 28.592 50.3347 28.2347 50.4241C27.8773 50.5134 27.52 50.7814 27.3413 51.1387L27.252 50.9601L27.3413 51.1387L28.056 54.6227L26.8053 54.8907L25.7333 49.7987L26.8053 49.6201L27.0733 50.3347C27.4307 49.7094 27.9667 49.2627 28.592 49.1734C29.396 48.9947 30.1107 49.3521 30.2893 50.1561Z" fill="#FAD7B1"/>
<path d="M31.0933 46.2254L32.612 45.9574L31.7187 47.7441L30.8253 48.1014L31.0933 46.2254ZM31.0933 48.5481L32.344 48.1014L34.1307 52.9254L32.88 53.3721L31.0933 48.5481Z" fill="#FAD7B1"/>
<path d="M34.5773 49.9774C33.7733 48.4587 34.0413 47.2081 35.4707 46.4041C36.096 46.0467 36.7213 45.9574 37.168 46.0467L37.3467 47.1187C36.9 47.0294 36.4533 47.0294 36.096 47.2974C35.3813 47.7441 35.2027 48.3694 35.7387 49.3521C36.2747 50.2454 36.9 50.5134 37.6147 50.1561C37.972 49.9774 38.3293 49.5307 38.508 49.0841L39.312 49.8881C39.1333 50.4241 38.6867 50.8707 38.0613 51.2281C36.632 51.9427 35.3813 51.4961 34.5773 49.9774Z" fill="#FAD7B1"/>
<path d="M41.992 43.992L44.136 46.7613L43.2427 47.476L42.796 47.0293C42.796 47.6547 42.4387 48.28 41.992 48.6373C41.2773 49.1733 40.4733 49.084 39.9373 48.3693C39.1333 47.3867 39.58 46.2253 41.0987 44.9747L40.92 44.7067C40.652 44.4387 40.2947 44.3493 39.848 44.796C39.4013 45.1533 39.044 45.6 38.776 46.136L37.972 45.6C38.24 44.8853 38.776 44.26 39.312 43.8133C40.384 43.0093 41.2773 43.0987 41.992 43.992ZM42.3493 46.4933L41.5453 45.5107C40.7413 46.136 40.4733 46.8507 40.8307 47.2973C41.0987 47.6547 41.456 47.6547 41.8133 47.3867C42.0813 47.2973 42.26 46.94 42.3493 46.4933Z" fill="#FAD7B1"/>
<path d="M47.352 43.2774C47.2627 43.6347 47.084 43.9027 46.816 44.1707C46.1013 44.8854 45.2973 44.9747 44.5827 44.26L42.7067 42.4734L42.1707 43.0094L41.6347 42.0267L41.992 41.6694L40.7413 40.4187L41.6347 39.436L42.8853 40.6867L43.6 39.972L44.404 40.776L43.6893 41.4907L45.476 43.2774C45.744 43.5454 46.012 43.5454 46.28 43.2774C46.3693 43.188 46.4587 43.0094 46.548 42.92L47.352 43.2774Z" fill="#FAD7B1"/>
<path d="M46.1013 41.1334C44.7613 40.0614 44.4933 38.8107 45.3867 37.56C46.28 36.3987 47.4413 36.3094 48.692 37.292C48.7813 37.3814 48.96 37.4707 49.0493 37.6494L47.084 40.24C47.7987 40.776 48.424 40.5974 48.96 39.972C49.3173 39.5254 49.5853 38.9 49.5853 38.364L50.4787 38.9C50.4787 39.5254 50.2107 40.24 49.6747 40.8654C48.7813 42.0267 47.4413 42.116 46.1013 41.1334ZM47.7093 38.1854C47.1733 37.7387 46.6373 37.7387 46.28 38.1854C45.9227 38.7214 46.012 39.2574 46.548 39.704L47.7093 38.1854Z" fill="#FAD7B1"/>
<path d="M40.5341 26.321L38.4341 28.6271C38.007 28.948 37.4849 29.1144 36.951 29.1025C36.2629 29.0788 35.6103 28.8529 35.0527 28.4607L34.1629 33.1441C33.973 34.2615 33.3798 35.2838 32.49 36.0208C31.6001 36.7578 30.473 37.1738 29.2984 37.1976C29.0967 37.1976 28.9069 37.1857 28.7052 37.1619C26.1187 36.841 25.4661 34.2734 23.4966 34.2021C21.5271 34.2734 21.4203 36.841 18.2762 37.1738C18.0745 37.1976 17.8847 37.2095 17.683 37.2095C16.5084 37.1976 15.3812 36.7815 14.4914 36.0327C13.6015 35.2957 13.0083 34.2734 12.8066 33.1441L11.9286 28.4488C11.3829 28.841 10.7184 29.0669 10.0422 29.0907C9.50826 29.1025 8.98622 28.9361 8.55909 28.6152L8.4879 28.5439L6.4472 26.2972C6.16245 26.0119 -0.861387 18.856 1.04881 12.9838C2.50815 8.52616 10.6947 5.25724 15.5236 3.68816C16.2948 2.58267 17.4931 1.8219 18.8457 1.58416L22.1678 1.04925C23.0576 0.894717 23.9712 0.894717 24.8729 1.04925L28.1475 1.59605C29.5001 1.83379 30.6984 2.59456 31.4696 3.70005C36.3815 5.31668 44.4969 8.52616 45.9563 12.9838C47.8665 18.856 40.8308 26.0119 40.5341 26.321ZM11.6557 27.0342L10.2557 19.7356C10.1489 19.1769 10.1015 18.6063 10.1015 18.0358V16.7401C10.1015 15.3612 10.4218 13.9942 11.0269 12.746L14.6456 5.388C10.8608 6.69557 3.50478 9.70298 2.29459 13.3761C0.609821 18.5112 7.34891 25.3581 7.40823 25.4176L9.40148 27.6404C9.60318 27.7593 10.4218 28.1635 11.6557 27.0342ZM35.4086 19.4979C35.5036 19.0105 35.551 18.5231 35.551 18.0358V16.7401C35.551 15.5514 35.2781 14.3746 34.7561 13.2928L30.6628 4.93629C30.1408 3.85458 29.1086 3.08192 27.8984 2.85607L24.6237 2.30927C23.8763 2.1904 23.1169 2.1904 22.3695 2.30927L19.0948 2.85607C17.8847 3.07004 16.8524 3.84269 16.3304 4.93629L12.2371 13.2928C11.7151 14.3746 11.4422 15.5514 11.4422 16.7401V18.0239C11.4422 18.5112 11.4896 19.0105 11.5846 19.486L14.1473 32.9064C14.2897 33.7266 14.7168 34.4874 15.3694 35.0342C16.0219 35.581 16.8524 35.89 17.7067 35.9138C18.7033 35.9019 19.6525 35.4977 20.3288 34.7726L22.0254 32.9539L22.0729 32.9064C21.7525 32.7162 21.4915 32.4666 21.2779 32.1575L19.5932 29.6375C19.2728 29.1382 19.1423 28.5557 19.2254 27.9733C19.3084 27.3908 19.6169 26.8678 20.0677 26.4755C20.5305 26.0951 21.1118 25.8812 21.7169 25.8812H25.2407C25.8577 25.8812 26.4627 26.107 26.9255 26.4993C27.3882 26.9035 27.6848 27.4503 27.756 28.0446C27.8272 28.639 27.6729 29.2452 27.317 29.7326L25.478 32.2407C25.3 32.4785 25.0746 32.6805 24.8136 32.8351C24.861 32.8707 24.9085 32.9064 24.9441 32.9539L26.6526 34.7726C27.317 35.4859 28.2662 35.9019 29.2747 35.9138C30.1408 35.89 30.9713 35.581 31.6238 35.0342C32.2764 34.4874 32.7035 33.7385 32.8459 32.9064L35.4086 19.4979ZM44.7105 13.3642C43.5122 9.70298 36.2629 6.71934 32.3713 5.35234L35.99 12.7104C36.5951 13.9585 36.9154 15.3255 36.9154 16.7044V17.9882C36.9154 18.5588 36.868 19.1294 36.7612 19.6881L35.3375 27.0104C36.5714 28.1516 37.4019 27.7355 37.568 27.6523L39.5613 25.4532C39.6562 25.3463 46.3834 18.4994 44.6868 13.3523L44.7105 13.3642Z" fill="#FAD7B1"/>
<path d="M37.6393 19.2128L35.8715 18.9751L36.7495 19.094L35.8715 18.9751C35.8834 18.9157 36.619 12.8533 33.1071 8.81172C31.007 6.39866 27.768 5.15053 23.4968 5.12676H23.4018C23.3781 5.12676 20.8984 4.87713 18.1577 6.25602C14.4797 8.11039 12.0712 11.9023 10.9915 17.5249L9.2474 17.1921C10.0542 12.889 12.1424 7.23075 17.4458 4.61561C20.4476 3.12974 23.129 3.30805 23.5561 3.34371C28.3494 3.39125 32.0274 4.84147 34.4715 7.65868C38.5055 12.3065 37.6749 18.9276 37.6393 19.2128Z" fill="#FAD7B1"/>
<path d="M10.2084 24.7996H9.19996C8.4169 24.7996 7.77621 24.1578 7.77621 23.3732V16.241C7.77621 15.4565 8.4169 14.8146 9.19996 14.8146H10.2084C10.9915 14.8146 11.6322 15.4565 11.6322 16.241V23.3732C11.6322 24.1578 10.9915 24.7996 10.2084 24.7996Z" fill="#FAD7B1"/>
<path d="M16.0458 41.3107V38.5648C16.0458 38.1725 16.3662 37.8516 16.7577 37.8516H22.69C23.0815 37.8516 23.4019 38.1725 23.4019 38.5648V41.3107C23.4019 41.7029 23.0815 42.0239 22.69 42.0239H16.7577C16.3662 42.0239 16.0458 41.7029 16.0458 41.3107Z" fill="#FAD7B1"/>
<path d="M37.3427 24.7996H36.3343C35.5512 24.7996 34.9105 24.1578 34.9105 23.3732V16.241C34.9105 15.4565 35.5512 14.8146 36.3343 14.8146H37.3427C38.1258 14.8146 38.7665 15.4565 38.7665 16.241V23.3732C38.7665 24.1578 38.1258 24.7996 37.3427 24.7996Z" fill="#FAD7B1"/>
<path d="M17.8611 40.2885H16.5204C13.839 40.2885 9.35421 38.8502 9.35421 29.1979V24.7878H10.0661V29.1979C10.0661 32.8472 10.7305 35.5931 12.0237 37.3524C13.1153 38.8264 14.6221 39.5753 16.5204 39.5753H17.8611V40.2885Z" fill="#FAD7B1"/>
<path d="M19.7238 19.0821C19.5221 19.0821 19.3323 18.987 19.2018 18.8206C18.5493 17.9409 17.873 17.513 17.2086 17.513C16.0814 17.5368 15.1916 18.7849 15.1797 18.7968C14.978 19.094 14.5628 19.1653 14.2661 18.9632C13.9695 18.7612 13.8983 18.357 14.1 18.0598C14.1475 17.9885 15.3695 16.253 17.173 16.2173C18.2882 16.1936 19.3205 16.8117 20.234 18.0479C20.4476 18.3332 20.3883 18.7493 20.1035 18.9632C19.9967 19.0346 19.8544 19.0821 19.7238 19.0821Z" fill="#FAD7B1"/>
<path d="M32.3359 19.0821C32.1342 19.0821 31.9444 18.987 31.8139 18.8206C31.1613 17.9528 30.4969 17.513 29.8443 17.513C29.8325 17.513 29.8325 17.513 29.8206 17.513C28.6935 17.5368 27.8036 18.7849 27.7918 18.7968C27.5901 19.094 27.1748 19.1653 26.8782 18.9632C26.5816 18.7612 26.5104 18.357 26.7121 18.0598C26.7596 17.9885 27.9816 16.253 29.785 16.2173C30.9003 16.1936 31.9325 16.8117 32.8461 18.0479C33.0596 18.3332 33.0003 18.7493 32.7156 18.9632C32.6088 19.0346 32.4664 19.0821 32.3359 19.0821Z" fill="#FAD7B1"/>
</svg>
