<svg xmlns="http://www.w3.org/2000/svg" width="60" height="53" viewBox="0 0 60 53"><g><g><path fill="#fad7b1" d="M24.022 26.404a2.152 2.152 0 1 1-4.303 0 2.152 2.152 0 0 1 4.303 0zm14.375-2.143a2.152 2.152 0 1 1 .052 4.303 2.152 2.152 0 0 1-.052-4.303zm14.07 10.716l-2.753 3.118c-.557.43-1.241.657-1.943.645a4.36 4.36 0 0 1-2.483-.87l-1.168 6.35a6.588 6.588 0 0 1-6.385 5.497 6.24 6.24 0 0 1-.776-.052 8.842 8.842 0 0 1-6.838 2.857 8.825 8.825 0 0 1-6.83-2.849 6.137 6.137 0 0 1-.776.053 6.585 6.585 0 0 1-6.394-5.497l-1.16-6.36a4.353 4.353 0 0 1-2.473.871 3.1 3.1 0 0 1-1.943-.644L10.45 38l-2.683-3.05c-.365-.383-9.583-10.088-7.074-18.042C2.6 10.862 13.333 6.437 19.667 4.31a6.664 6.664 0 0 1 4.356-2.858l4.356-.732a10.462 10.462 0 0 1 3.546 0l4.294.741a6.663 6.663 0 0 1 4.356 2.857c6.438 2.187 17.075 6.543 18.992 12.572 2.517 7.962-6.709 17.667-7.1 18.077zm-37.863.958l-1.83-9.896c-.14-.762-.21-1.535-.209-2.31v-1.742a12.708 12.708 0 0 1 1.22-5.418l4.74-9.976c-4.957 1.778-14.61 5.855-16.187 10.83C.125 24.391 8.95 33.67 9.037 33.756l2.613 3.005c.262.157 1.334.706 2.945-.836zM35.06 49.116a6.506 6.506 0 0 1-2.057-1.507l-2.238-2.457a.872.872 0 0 0-1.29 0l-2.239 2.457a6.506 6.506 0 0 1-2.056 1.507 8.194 8.194 0 0 0 9.88 0zm10.689-23.391c.12-.655.182-1.32.183-1.986v-1.742c0-1.615-.357-3.21-1.045-4.67L39.52 6.002a4.994 4.994 0 0 0-3.624-2.814l-4.295-.741a8.7 8.7 0 0 0-2.953 0l-4.296.741h.001a4.993 4.993 0 0 0-3.624 2.814l-5.367 11.325a10.959 10.959 0 0 0-1.045 4.67v1.742c0 .666.062 1.33.183 1.986l3.354 18.181a4.846 4.846 0 0 0 4.67 4.07 4.661 4.661 0 0 0 3.431-1.543l2.23-2.466.07-.06a3.317 3.317 0 0 1-1.036-1.01l-2.204-3.416a3.317 3.317 0 0 1 .627-4.284c.6-.52 1.366-.809 2.16-.813h4.627a3.32 3.32 0 0 1 2.71 5.227l-2.405 3.407c-.24.317-.535.59-.872.801.061.052.122.096.175.157l2.238 2.457a4.664 4.664 0 0 0 3.433 1.542 4.852 4.852 0 0 0 4.678-4.068zm12.196-8.302c-1.577-4.957-11.08-9.008-16.177-10.855l4.74 9.975a12.708 12.708 0 0 1 1.219 5.419v1.742c0 .775-.07 1.547-.21 2.31l-1.872 9.913c1.62 1.55 2.7.984 2.919.871l2.613-2.979c.122-.148 8.938-9.427 6.725-16.395z"/></g></g></svg>