<svg width="28" height="21" viewBox="0 0 28 21" fill="none" xmlns="http://www.w3.org/2000/svg">
<path d="M16.4537 0.571454C13.1341 2.49609e-05 4.32997 0.714311 1.29904 3.14288C0.721722 3.57145 0.433062 4.14288 0.433062 4.71431C0.288732 5.57145 1.73203 6.28574 3.46399 7.14288C5.34028 8.00003 7.50523 9.00003 8.08255 10.5715C8.8042 12.1429 11.1135 17.5715 14.5774 17.5715C17.7527 17.5715 26.5568 16 27.4228 11.1429C27.7114 9.71431 27.2784 8.28574 26.1238 6.85717C24.1032 3.57145 19.3403 1.00003 16.4537 0.571454ZM27.2784 11C26.5568 15.7143 17.7526 17.1429 14.7217 17.1429C11.5465 17.1429 9.09286 12 8.51554 10.2857C7.93822 8.71431 5.62894 7.71431 3.75265 6.71431C2.16502 6.00003 0.721722 5.28574 0.721722 4.57145C0.721722 4.14288 1.01038 3.57145 1.5877 3.14288C3.75265 1.57145 10.1032 0.714311 14.0001 0.714311C14.8661 0.714311 15.732 0.714311 16.3094 0.857168C19.1959 1.28574 23.8145 3.85717 25.9795 7.00003C27.1341 8.28574 27.5671 9.71431 27.2784 11Z" stroke="#DF2F44" stroke-width="0.5" stroke-miterlimit="10"/>
<path d="M14.7215 20.2857C11.9793 20.2857 7.93804 15.8571 6.7834 12.8571C6.06175 11.4285 4.32979 10.4285 2.8865 9.71426C1.58753 9.14283 0.577217 8.5714 0.721547 7.85712H0.432887C0.288558 8.71426 1.4432 9.28569 2.74217 9.99997C4.18546 10.7143 5.91742 11.5714 6.49474 13C7.64938 16 11.8349 20.5714 14.7215 20.5714C19.1958 20.5714 26.8453 19.8571 27.5669 15.2857H27.2782C26.5566 19.8571 18.1855 20.2857 14.7215 20.2857Z" stroke="#DF2F44" stroke-width="0.5" stroke-miterlimit="10"/>
<path d="M27.567 10.8571H27.2783V15.4285H27.567V10.8571Z" stroke="#DF2F44" stroke-width="0.5" stroke-miterlimit="10"/>
<path d="M0.721765 4.71429H0.433105V7.85715H0.721765V4.71429Z" stroke="#DF2F44" stroke-width="0.5" stroke-miterlimit="10"/>
<path d="M6.49474 3.42859C5.3401 3.42859 4.47412 4.00002 4.47412 4.57145C4.47412 5.14287 5.3401 5.7143 6.49474 5.7143C7.64938 5.7143 8.51536 5.14287 8.51536 4.57145C8.51536 3.85716 7.64938 3.42859 6.49474 3.42859ZM6.49474 5.42859C5.48443 5.42859 4.76278 5.00002 4.76278 4.57145C4.76278 4.14287 5.62876 3.7143 6.49474 3.7143C7.50505 3.7143 8.2267 4.14287 8.2267 4.57145C8.2267 5.00002 7.36072 5.42859 6.49474 5.42859Z" stroke="#DF2F44" stroke-width="0.5" stroke-miterlimit="10"/>
</svg>
