<svg width="1407" height="304" viewBox="0 0 1407 304" fill="none" xmlns="http://www.w3.org/2000/svg">
<g opacity="0.8">
<path d="M1384.73 1.11562C1378.33 -2.97283e-05 1361.35 1.39453 1355.51 6.13602C1354.39 6.97276 1353.84 8.08841 1353.84 9.20405C1353.56 10.8775 1356.34 12.2721 1359.68 13.9455C1363.3 15.619 1367.47 17.5714 1368.59 20.6394C1369.98 23.7075 1374.43 34.3061 1381.11 34.3061C1387.24 34.3061 1404.22 31.2381 1405.89 21.7551C1406.44 18.966 1405.61 16.1768 1403.38 13.3877C1399.48 6.97276 1390.3 1.95235 1384.73 1.11562ZM1405.61 21.4762C1404.22 30.6802 1387.24 33.4694 1381.39 33.4694C1375.27 33.4694 1370.54 23.4285 1369.42 20.0816C1368.31 17.0136 1363.86 15.0612 1360.24 13.1088C1357.18 11.7143 1354.39 10.3197 1354.39 8.92514C1354.39 8.08841 1354.95 6.97276 1356.06 6.13602C1360.24 3.068 1372.48 1.39453 1380 1.39453C1381.67 1.39453 1383.34 1.39453 1384.45 1.67344C1390.02 2.51017 1398.93 7.53058 1403.1 13.6666C1405.33 16.1768 1406.16 18.966 1405.61 21.4762Z" stroke="white" stroke-width="0.5" stroke-miterlimit="10"/>
<path d="M1381.39 39.6055C1376.1 39.6055 1368.31 30.9592 1366.08 25.1021C1364.69 22.3129 1361.35 20.3606 1358.57 18.966C1356.06 17.8504 1354.11 16.7347 1354.39 15.3401H1353.84C1353.56 17.0136 1355.78 18.1293 1358.29 19.5238C1361.07 20.9184 1364.41 22.5919 1365.53 25.381C1367.75 31.2381 1375.82 40.1633 1381.39 40.1633C1390.02 40.1633 1404.77 38.7687 1406.16 29.8435H1405.61C1404.22 38.7687 1388.07 39.6055 1381.39 39.6055Z" stroke="white" stroke-width="0.5" stroke-miterlimit="10"/>
<path d="M1406.16 21.1973H1405.61V30.1224H1406.16V21.1973Z" stroke="white" stroke-width="0.5" stroke-miterlimit="10"/>
<path d="M1354.39 9.2041H1353.84V15.3402H1354.39V9.2041Z" stroke="white" stroke-width="0.5" stroke-miterlimit="10"/>
<path d="M1365.53 6.69385C1363.3 6.69385 1361.63 7.80949 1361.63 8.92514C1361.63 10.0408 1363.3 11.1564 1365.53 11.1564C1367.75 11.1564 1369.42 10.0408 1369.42 8.92514C1369.42 7.53058 1367.75 6.69385 1365.53 6.69385ZM1365.53 10.5986C1363.58 10.5986 1362.19 9.76187 1362.19 8.92514C1362.19 8.08841 1363.86 7.25167 1365.53 7.25167C1367.47 7.25167 1368.87 8.08841 1368.87 8.92514C1368.87 9.76187 1367.2 10.5986 1365.53 10.5986Z" stroke="white" stroke-width="0.5" stroke-miterlimit="10"/>
<path d="M994.732 1.11562C988.33 -2.97283e-05 971.351 1.39453 965.505 6.13602C964.392 6.97276 963.835 8.08841 963.835 9.20405C963.557 10.8775 966.34 12.2721 969.68 13.9455C973.299 15.619 977.474 17.5714 978.588 20.6394C979.979 23.7075 984.433 34.3061 991.113 34.3061C997.237 34.3061 1014.22 31.2381 1015.89 21.7551C1016.44 18.966 1015.61 16.1768 1013.38 13.3877C1009.48 6.97276 1000.3 1.95235 994.732 1.11562ZM1015.61 21.4762C1014.22 30.6802 997.237 33.4694 991.392 33.4694C985.268 33.4694 980.536 23.4285 979.423 20.0816C978.309 17.0136 973.856 15.0612 970.237 13.1088C967.175 11.7143 964.392 10.3197 964.392 8.92514C964.392 8.08841 964.948 6.97276 966.062 6.13602C970.237 3.068 982.485 1.39453 990 1.39453C991.67 1.39453 993.34 1.39453 994.454 1.67344C1000.02 2.51017 1008.93 7.53058 1013.1 13.6666C1015.33 16.1768 1016.16 18.966 1015.61 21.4762Z" stroke="white" stroke-width="0.5" stroke-miterlimit="10"/>
<path d="M991.392 39.6055C986.103 39.6055 978.309 30.9592 976.082 25.1021C974.691 22.3129 971.351 20.3606 968.567 18.966C966.062 17.8504 964.113 16.7347 964.392 15.3401H963.835C963.557 17.0136 965.784 18.1293 968.289 19.5238C971.072 20.9184 974.412 22.5919 975.526 25.381C977.753 31.2381 985.825 40.1633 991.392 40.1633C1000.02 40.1633 1014.77 38.7687 1016.16 29.8435H1015.61C1014.22 38.7687 998.072 39.6055 991.392 39.6055Z" stroke="white" stroke-width="0.5" stroke-miterlimit="10"/>
<path d="M1016.16 21.1973H1015.61V30.1224H1016.16V21.1973Z" stroke="white" stroke-width="0.5" stroke-miterlimit="10"/>
<path d="M964.392 9.2041H963.835V15.3402H964.392V9.2041Z" stroke="white" stroke-width="0.5" stroke-miterlimit="10"/>
<path d="M975.526 6.69385C973.299 6.69385 971.629 7.80949 971.629 8.92514C971.629 10.0408 973.299 11.1564 975.526 11.1564C977.753 11.1564 979.423 10.0408 979.423 8.92514C979.423 7.53058 977.753 6.69385 975.526 6.69385ZM975.526 10.5986C973.577 10.5986 972.186 9.76187 972.186 8.92514C972.186 8.08841 973.856 7.25167 975.526 7.25167C977.474 7.25167 978.866 8.08841 978.866 8.92514C978.866 9.76187 977.196 10.5986 975.526 10.5986Z" stroke="white" stroke-width="0.5" stroke-miterlimit="10"/>
<path d="M214.732 1.11562C208.33 -2.97283e-05 191.351 1.39453 185.505 6.13602C184.392 6.97276 183.835 8.08841 183.835 9.20405C183.557 10.8775 186.34 12.2721 189.68 13.9455C193.299 15.619 197.474 17.5714 198.588 20.6394C199.979 23.7075 204.433 34.3061 211.113 34.3061C217.237 34.3061 234.217 31.2381 235.887 21.7551C236.443 18.966 235.608 16.1768 233.381 13.3877C229.485 6.97276 220.299 1.95235 214.732 1.11562ZM235.608 21.4762C234.217 30.6802 217.237 33.4694 211.392 33.4694C205.268 33.4694 200.536 23.4285 199.423 20.0816C198.309 17.0136 193.856 15.0612 190.237 13.1088C187.175 11.7143 184.392 10.3197 184.392 8.92514C184.392 8.08841 184.948 6.97276 186.062 6.13602C190.237 3.068 202.485 1.39453 210 1.39453C211.67 1.39453 213.34 1.39453 214.454 1.67344C220.021 2.51017 228.928 7.53058 233.103 13.6666C235.33 16.1768 236.165 18.966 235.608 21.4762Z" stroke="white" stroke-width="0.5" stroke-miterlimit="10"/>
<path d="M211.392 39.6055C206.103 39.6055 198.309 30.9592 196.082 25.1021C194.691 22.3129 191.351 20.3606 188.567 18.966C186.062 17.8504 184.113 16.7347 184.392 15.3401H183.835C183.557 17.0136 185.784 18.1293 188.289 19.5238C191.072 20.9184 194.412 22.5919 195.526 25.381C197.753 31.2381 205.825 40.1633 211.392 40.1633C220.021 40.1633 234.773 38.7687 236.165 29.8435H235.608C234.216 38.7687 218.072 39.6055 211.392 39.6055Z" stroke="white" stroke-width="0.5" stroke-miterlimit="10"/>
<path d="M236.165 21.1973H235.608V30.1224H236.165V21.1973Z" stroke="white" stroke-width="0.5" stroke-miterlimit="10"/>
<path d="M184.392 9.2041H183.835V15.3402H184.392V9.2041Z" stroke="white" stroke-width="0.5" stroke-miterlimit="10"/>
<path d="M195.526 6.69385C193.299 6.69385 191.629 7.80949 191.629 8.92514C191.629 10.0408 193.299 11.1564 195.526 11.1564C197.753 11.1564 199.423 10.0408 199.423 8.92514C199.423 7.53058 197.753 6.69385 195.526 6.69385ZM195.526 10.5986C193.577 10.5986 192.186 9.76187 192.186 8.92514C192.186 8.08841 193.856 7.25167 195.526 7.25167C197.474 7.25167 198.866 8.08841 198.866 8.92514C198.866 9.76187 197.196 10.5986 195.526 10.5986Z" stroke="white" stroke-width="0.5" stroke-miterlimit="10"/>
<path d="M604.732 1.11562C598.33 -2.97283e-05 581.351 1.39453 575.505 6.13602C574.392 6.97276 573.835 8.08841 573.835 9.20405C573.557 10.8775 576.34 12.2721 579.68 13.9455C583.299 15.619 587.474 17.5714 588.588 20.6394C589.979 23.7075 594.433 34.3061 601.113 34.3061C607.237 34.3061 624.216 31.2381 625.887 21.7551C626.443 18.966 625.608 16.1768 623.381 13.3877C619.485 6.97276 610.299 1.95235 604.732 1.11562ZM625.608 21.4762C624.216 30.6802 607.237 33.4694 601.392 33.4694C595.268 33.4694 590.536 23.4285 589.423 20.0816C588.309 17.0136 583.856 15.0612 580.237 13.1088C577.175 11.7143 574.392 10.3197 574.392 8.92514C574.392 8.08841 574.948 6.97276 576.062 6.13602C580.237 3.068 592.485 1.39453 600 1.39453C601.67 1.39453 603.34 1.39453 604.454 1.67344C610.021 2.51017 618.928 7.53058 623.103 13.6666C625.33 16.1768 626.165 18.966 625.608 21.4762Z" stroke="white" stroke-width="0.5" stroke-miterlimit="10"/>
<path d="M601.392 39.6055C596.103 39.6055 588.309 30.9592 586.082 25.1021C584.691 22.3129 581.351 20.3606 578.567 18.966C576.062 17.8504 574.113 16.7347 574.392 15.3401H573.835C573.557 17.0136 575.784 18.1293 578.289 19.5238C581.072 20.9184 584.412 22.5919 585.526 25.381C587.753 31.2381 595.825 40.1633 601.392 40.1633C610.021 40.1633 624.773 38.7687 626.165 29.8435H625.608C624.216 38.7687 608.072 39.6055 601.392 39.6055Z" stroke="white" stroke-width="0.5" stroke-miterlimit="10"/>
<path d="M626.165 21.1973H625.608V30.1224H626.165V21.1973Z" stroke="white" stroke-width="0.5" stroke-miterlimit="10"/>
<path d="M574.392 9.2041H573.835V15.3402H574.392V9.2041Z" stroke="white" stroke-width="0.5" stroke-miterlimit="10"/>
<path d="M585.526 6.69385C583.299 6.69385 581.629 7.80949 581.629 8.92514C581.629 10.0408 583.299 11.1564 585.526 11.1564C587.753 11.1564 589.423 10.0408 589.423 8.92514C589.423 7.53058 587.753 6.69385 585.526 6.69385ZM585.526 10.5986C583.577 10.5986 582.186 9.76187 582.186 8.92514C582.186 8.08841 583.856 7.25167 585.526 7.25167C587.474 7.25167 588.866 8.08841 588.866 8.92514C588.866 9.76187 587.196 10.5986 585.526 10.5986Z" stroke="white" stroke-width="0.5" stroke-miterlimit="10"/>
<path d="M1254.73 1.11562C1248.33 -2.97283e-05 1231.35 1.39453 1225.51 6.13602C1224.39 6.97276 1223.84 8.08841 1223.84 9.20405C1223.56 10.8775 1226.34 12.2721 1229.68 13.9455C1233.3 15.619 1237.47 17.5714 1238.59 20.6394C1239.98 23.7075 1244.43 34.3061 1251.11 34.3061C1257.24 34.3061 1274.22 31.2381 1275.89 21.7551C1276.44 18.966 1275.61 16.1768 1273.38 13.3877C1269.48 6.97276 1260.3 1.95235 1254.73 1.11562ZM1275.61 21.4762C1274.22 30.6802 1257.24 33.4694 1251.39 33.4694C1245.27 33.4694 1240.54 23.4285 1239.42 20.0816C1238.31 17.0136 1233.86 15.0612 1230.24 13.1088C1227.18 11.7143 1224.39 10.3197 1224.39 8.92514C1224.39 8.08841 1224.95 6.97276 1226.06 6.13602C1230.24 3.068 1242.48 1.39453 1250 1.39453C1251.67 1.39453 1253.34 1.39453 1254.45 1.67344C1260.02 2.51017 1268.93 7.53058 1273.1 13.6666C1275.33 16.1768 1276.16 18.966 1275.61 21.4762Z" stroke="white" stroke-width="0.5" stroke-miterlimit="10"/>
<path d="M1251.39 39.6055C1246.1 39.6055 1238.31 30.9592 1236.08 25.1021C1234.69 22.3129 1231.35 20.3606 1228.57 18.966C1226.06 17.8504 1224.11 16.7347 1224.39 15.3401H1223.84C1223.56 17.0136 1225.78 18.1293 1228.29 19.5238C1231.07 20.9184 1234.41 22.5919 1235.53 25.381C1237.75 31.2381 1245.82 40.1633 1251.39 40.1633C1260.02 40.1633 1274.77 38.7687 1276.16 29.8435H1275.61C1274.22 38.7687 1258.07 39.6055 1251.39 39.6055Z" stroke="white" stroke-width="0.5" stroke-miterlimit="10"/>
<path d="M1276.16 21.1973H1275.61V30.1224H1276.16V21.1973Z" stroke="white" stroke-width="0.5" stroke-miterlimit="10"/>
<path d="M1224.39 9.2041H1223.84V15.3402H1224.39V9.2041Z" stroke="white" stroke-width="0.5" stroke-miterlimit="10"/>
<path d="M1235.53 6.69385C1233.3 6.69385 1231.63 7.80949 1231.63 8.92514C1231.63 10.0408 1233.3 11.1564 1235.53 11.1564C1237.75 11.1564 1239.42 10.0408 1239.42 8.92514C1239.42 7.53058 1237.75 6.69385 1235.53 6.69385ZM1235.53 10.5986C1233.58 10.5986 1232.19 9.76187 1232.19 8.92514C1232.19 8.08841 1233.86 7.25167 1235.53 7.25167C1237.47 7.25167 1238.87 8.08841 1238.87 8.92514C1238.87 9.76187 1237.2 10.5986 1235.53 10.5986Z" stroke="white" stroke-width="0.5" stroke-miterlimit="10"/>
<path d="M864.732 1.11562C858.33 -2.97283e-05 841.351 1.39453 835.505 6.13602C834.392 6.97276 833.835 8.08841 833.835 9.20405C833.557 10.8775 836.34 12.2721 839.68 13.9455C843.299 15.619 847.474 17.5714 848.588 20.6394C849.979 23.7075 854.433 34.3061 861.113 34.3061C867.237 34.3061 884.216 31.2381 885.887 21.7551C886.443 18.966 885.608 16.1768 883.381 13.3877C879.485 6.97276 870.299 1.95235 864.732 1.11562ZM885.608 21.4762C884.216 30.6802 867.237 33.4694 861.392 33.4694C855.268 33.4694 850.536 23.4285 849.423 20.0816C848.309 17.0136 843.856 15.0612 840.237 13.1088C837.175 11.7143 834.392 10.3197 834.392 8.92514C834.392 8.08841 834.948 6.97276 836.062 6.13602C840.237 3.068 852.485 1.39453 860 1.39453C861.67 1.39453 863.34 1.39453 864.454 1.67344C870.021 2.51017 878.928 7.53058 883.103 13.6666C885.33 16.1768 886.165 18.966 885.608 21.4762Z" stroke="white" stroke-width="0.5" stroke-miterlimit="10"/>
<path d="M861.392 39.6055C856.103 39.6055 848.309 30.9592 846.082 25.1021C844.691 22.3129 841.351 20.3606 838.567 18.966C836.062 17.8504 834.113 16.7347 834.392 15.3401H833.835C833.557 17.0136 835.784 18.1293 838.289 19.5238C841.072 20.9184 844.412 22.5919 845.526 25.381C847.753 31.2381 855.825 40.1633 861.392 40.1633C870.021 40.1633 884.773 38.7687 886.165 29.8435H885.608C884.216 38.7687 868.072 39.6055 861.392 39.6055Z" stroke="white" stroke-width="0.5" stroke-miterlimit="10"/>
<path d="M886.165 21.1973H885.608V30.1224H886.165V21.1973Z" stroke="white" stroke-width="0.5" stroke-miterlimit="10"/>
<path d="M834.392 9.2041H833.835V15.3402H834.392V9.2041Z" stroke="white" stroke-width="0.5" stroke-miterlimit="10"/>
<path d="M845.526 6.69385C843.299 6.69385 841.629 7.80949 841.629 8.92514C841.629 10.0408 843.299 11.1564 845.526 11.1564C847.753 11.1564 849.423 10.0408 849.423 8.92514C849.423 7.53058 847.753 6.69385 845.526 6.69385ZM845.526 10.5986C843.577 10.5986 842.186 9.76187 842.186 8.92514C842.186 8.08841 843.856 7.25167 845.526 7.25167C847.474 7.25167 848.866 8.08841 848.866 8.92514C848.866 9.76187 847.196 10.5986 845.526 10.5986Z" stroke="white" stroke-width="0.5" stroke-miterlimit="10"/>
<path d="M84.732 1.11562C78.3299 -2.97283e-05 61.3505 1.39453 55.5052 6.13602C54.3918 6.97276 53.8351 8.08841 53.8351 9.20405C53.5567 10.8775 56.3402 12.2721 59.6804 13.9455C63.299 15.619 67.4743 17.5714 68.5877 20.6394C69.9794 23.7075 74.433 34.3061 81.1134 34.3061C87.2371 34.3061 104.217 31.2381 105.887 21.7551C106.443 18.966 105.608 16.1768 103.381 13.3877C99.4846 6.97276 90.299 1.95235 84.732 1.11562ZM105.608 21.4762C104.217 30.6802 87.2371 33.4694 81.3918 33.4694C75.2681 33.4694 70.5361 23.4285 69.4227 20.0816C68.3093 17.0136 63.8557 15.0612 60.2371 13.1088C57.1753 11.7143 54.3918 10.3197 54.3918 8.92514C54.3918 8.08841 54.9485 6.97276 56.0619 6.13602C60.2371 3.068 72.4846 1.39453 80 1.39453C81.6701 1.39453 83.3402 1.39453 84.4536 1.67344C90.0206 2.51017 98.9279 7.53058 103.103 13.6666C105.33 16.1768 106.165 18.966 105.608 21.4762Z" stroke="white" stroke-width="0.5" stroke-miterlimit="10"/>
<path d="M81.3918 39.6055C76.1031 39.6055 68.3093 30.9592 66.0825 25.1021C64.6907 22.3129 61.3505 20.3606 58.567 18.966C56.0619 17.8504 54.1134 16.7347 54.3918 15.3401H53.8351C53.5567 17.0136 55.7835 18.1293 58.2887 19.5238C61.0722 20.9184 64.4124 22.5919 65.5258 25.381C67.7526 31.2381 75.8247 40.1633 81.3918 40.1633C90.0206 40.1633 104.773 38.7687 106.165 29.8435H105.608C104.216 38.7687 88.0722 39.6055 81.3918 39.6055Z" stroke="white" stroke-width="0.5" stroke-miterlimit="10"/>
<path d="M106.165 21.1973H105.608V30.1224H106.165V21.1973Z" stroke="white" stroke-width="0.5" stroke-miterlimit="10"/>
<path d="M54.3917 9.2041H53.835V15.3402H54.3917V9.2041Z" stroke="white" stroke-width="0.5" stroke-miterlimit="10"/>
<path d="M65.5258 6.69385C63.2989 6.69385 61.6288 7.80949 61.6288 8.92514C61.6288 10.0408 63.2989 11.1564 65.5258 11.1564C67.7526 11.1564 69.4227 10.0408 69.4227 8.92514C69.4227 7.53058 67.7526 6.69385 65.5258 6.69385ZM65.5258 10.5986C63.5773 10.5986 62.1855 9.76187 62.1855 8.92514C62.1855 8.08841 63.8556 7.25167 65.5258 7.25167C67.4742 7.25167 68.866 8.08841 68.866 8.92514C68.866 9.76187 67.1959 10.5986 65.5258 10.5986Z" stroke="white" stroke-width="0.5" stroke-miterlimit="10"/>
<path d="M474.732 1.11562C468.33 -2.97283e-05 451.351 1.39453 445.505 6.13602C444.392 6.97276 443.835 8.08841 443.835 9.20405C443.557 10.8775 446.34 12.2721 449.68 13.9455C453.299 15.619 457.474 17.5714 458.588 20.6394C459.979 23.7075 464.433 34.3061 471.113 34.3061C477.237 34.3061 494.216 31.2381 495.887 21.7551C496.443 18.966 495.608 16.1768 493.381 13.3877C489.485 6.97276 480.299 1.95235 474.732 1.11562ZM495.608 21.4762C494.216 30.6802 477.237 33.4694 471.392 33.4694C465.268 33.4694 460.536 23.4285 459.423 20.0816C458.309 17.0136 453.856 15.0612 450.237 13.1088C447.175 11.7143 444.392 10.3197 444.392 8.92514C444.392 8.08841 444.948 6.97276 446.062 6.13602C450.237 3.068 462.485 1.39453 470 1.39453C471.67 1.39453 473.34 1.39453 474.454 1.67344C480.021 2.51017 488.928 7.53058 493.103 13.6666C495.33 16.1768 496.165 18.966 495.608 21.4762Z" stroke="white" stroke-width="0.5" stroke-miterlimit="10"/>
<path d="M471.392 39.6055C466.103 39.6055 458.309 30.9592 456.082 25.1021C454.691 22.3129 451.351 20.3606 448.567 18.966C446.062 17.8504 444.113 16.7347 444.392 15.3401H443.835C443.557 17.0136 445.784 18.1293 448.289 19.5238C451.072 20.9184 454.412 22.5919 455.526 25.381C457.753 31.2381 465.825 40.1633 471.392 40.1633C480.021 40.1633 494.773 38.7687 496.165 29.8435H495.608C494.216 38.7687 478.072 39.6055 471.392 39.6055Z" stroke="white" stroke-width="0.5" stroke-miterlimit="10"/>
<path d="M496.165 21.1973H495.608V30.1224H496.165V21.1973Z" stroke="white" stroke-width="0.5" stroke-miterlimit="10"/>
<path d="M444.392 9.2041H443.835V15.3402H444.392V9.2041Z" stroke="white" stroke-width="0.5" stroke-miterlimit="10"/>
<path d="M455.526 6.69385C453.299 6.69385 451.629 7.80949 451.629 8.92514C451.629 10.0408 453.299 11.1564 455.526 11.1564C457.753 11.1564 459.423 10.0408 459.423 8.92514C459.423 7.53058 457.753 6.69385 455.526 6.69385ZM455.526 10.5986C453.577 10.5986 452.186 9.76187 452.186 8.92514C452.186 8.08841 453.856 7.25167 455.526 7.25167C457.474 7.25167 458.866 8.08841 458.866 8.92514C458.866 9.76187 457.196 10.5986 455.526 10.5986Z" stroke="white" stroke-width="0.5" stroke-miterlimit="10"/>
<path d="M1124.73 1.11562C1118.33 -2.97283e-05 1101.35 1.39453 1095.51 6.13602C1094.39 6.97276 1093.84 8.08841 1093.84 9.20405C1093.56 10.8775 1096.34 12.2721 1099.68 13.9455C1103.3 15.619 1107.47 17.5714 1108.59 20.6394C1109.98 23.7075 1114.43 34.3061 1121.11 34.3061C1127.24 34.3061 1144.22 31.2381 1145.89 21.7551C1146.44 18.966 1145.61 16.1768 1143.38 13.3877C1139.48 6.97276 1130.3 1.95235 1124.73 1.11562ZM1145.61 21.4762C1144.22 30.6802 1127.24 33.4694 1121.39 33.4694C1115.27 33.4694 1110.54 23.4285 1109.42 20.0816C1108.31 17.0136 1103.86 15.0612 1100.24 13.1088C1097.18 11.7143 1094.39 10.3197 1094.39 8.92514C1094.39 8.08841 1094.95 6.97276 1096.06 6.13602C1100.24 3.068 1112.48 1.39453 1120 1.39453C1121.67 1.39453 1123.34 1.39453 1124.45 1.67344C1130.02 2.51017 1138.93 7.53058 1143.1 13.6666C1145.33 16.1768 1146.16 18.966 1145.61 21.4762Z" stroke="white" stroke-width="0.5" stroke-miterlimit="10"/>
<path d="M1121.39 39.6055C1116.1 39.6055 1108.31 30.9592 1106.08 25.1021C1104.69 22.3129 1101.35 20.3606 1098.57 18.966C1096.06 17.8504 1094.11 16.7347 1094.39 15.3401H1093.84C1093.56 17.0136 1095.78 18.1293 1098.29 19.5238C1101.07 20.9184 1104.41 22.5919 1105.53 25.381C1107.75 31.2381 1115.82 40.1633 1121.39 40.1633C1130.02 40.1633 1144.77 38.7687 1146.16 29.8435H1145.61C1144.22 38.7687 1128.07 39.6055 1121.39 39.6055Z" stroke="white" stroke-width="0.5" stroke-miterlimit="10"/>
<path d="M1146.16 21.1973H1145.61V30.1224H1146.16V21.1973Z" stroke="white" stroke-width="0.5" stroke-miterlimit="10"/>
<path d="M1094.39 9.2041H1093.84V15.3402H1094.39V9.2041Z" stroke="white" stroke-width="0.5" stroke-miterlimit="10"/>
<path d="M1105.53 6.69385C1103.3 6.69385 1101.63 7.80949 1101.63 8.92514C1101.63 10.0408 1103.3 11.1564 1105.53 11.1564C1107.75 11.1564 1109.42 10.0408 1109.42 8.92514C1109.42 7.53058 1107.75 6.69385 1105.53 6.69385ZM1105.53 10.5986C1103.58 10.5986 1102.19 9.76187 1102.19 8.92514C1102.19 8.08841 1103.86 7.25167 1105.53 7.25167C1107.47 7.25167 1108.87 8.08841 1108.87 8.92514C1108.87 9.76187 1107.2 10.5986 1105.53 10.5986Z" stroke="white" stroke-width="0.5" stroke-miterlimit="10"/>
<path d="M734.732 1.11562C728.33 -2.97283e-05 711.351 1.39453 705.505 6.13602C704.392 6.97276 703.835 8.08841 703.835 9.20405C703.557 10.8775 706.34 12.2721 709.68 13.9455C713.299 15.619 717.474 17.5714 718.588 20.6394C719.979 23.7075 724.433 34.3061 731.113 34.3061C737.237 34.3061 754.216 31.2381 755.887 21.7551C756.443 18.966 755.608 16.1768 753.381 13.3877C749.485 6.97276 740.299 1.95235 734.732 1.11562ZM755.608 21.4762C754.216 30.6802 737.237 33.4694 731.392 33.4694C725.268 33.4694 720.536 23.4285 719.423 20.0816C718.309 17.0136 713.856 15.0612 710.237 13.1088C707.175 11.7143 704.392 10.3197 704.392 8.92514C704.392 8.08841 704.948 6.97276 706.062 6.13602C710.237 3.068 722.485 1.39453 730 1.39453C731.67 1.39453 733.34 1.39453 734.454 1.67344C740.021 2.51017 748.928 7.53058 753.103 13.6666C755.33 16.1768 756.165 18.966 755.608 21.4762Z" stroke="white" stroke-width="0.5" stroke-miterlimit="10"/>
<path d="M731.392 39.6055C726.103 39.6055 718.309 30.9592 716.082 25.1021C714.691 22.3129 711.351 20.3606 708.567 18.966C706.062 17.8504 704.113 16.7347 704.392 15.3401H703.835C703.557 17.0136 705.784 18.1293 708.289 19.5238C711.072 20.9184 714.412 22.5919 715.526 25.381C717.753 31.2381 725.825 40.1633 731.392 40.1633C740.021 40.1633 754.773 38.7687 756.165 29.8435H755.608C754.216 38.7687 738.072 39.6055 731.392 39.6055Z" stroke="white" stroke-width="0.5" stroke-miterlimit="10"/>
<path d="M756.165 21.1973H755.608V30.1224H756.165V21.1973Z" stroke="white" stroke-width="0.5" stroke-miterlimit="10"/>
<path d="M704.392 9.2041H703.835V15.3402H704.392V9.2041Z" stroke="white" stroke-width="0.5" stroke-miterlimit="10"/>
<path d="M715.526 6.69385C713.299 6.69385 711.629 7.80949 711.629 8.92514C711.629 10.0408 713.299 11.1564 715.526 11.1564C717.753 11.1564 719.423 10.0408 719.423 8.92514C719.423 7.53058 717.753 6.69385 715.526 6.69385ZM715.526 10.5986C713.577 10.5986 712.186 9.76187 712.186 8.92514C712.186 8.08841 713.856 7.25167 715.526 7.25167C717.474 7.25167 718.866 8.08841 718.866 8.92514C718.866 9.76187 717.196 10.5986 715.526 10.5986Z" stroke="white" stroke-width="0.5" stroke-miterlimit="10"/>
<path d="M344.732 1.11562C338.33 -2.97283e-05 321.351 1.39453 315.505 6.13602C314.392 6.97276 313.835 8.08841 313.835 9.20405C313.557 10.8775 316.34 12.2721 319.68 13.9455C323.299 15.619 327.474 17.5714 328.588 20.6394C329.979 23.7075 334.433 34.3061 341.113 34.3061C347.237 34.3061 364.216 31.2381 365.887 21.7551C366.443 18.966 365.608 16.1768 363.381 13.3877C359.485 6.97276 350.299 1.95235 344.732 1.11562ZM365.608 21.4762C364.216 30.6802 347.237 33.4694 341.392 33.4694C335.268 33.4694 330.536 23.4285 329.423 20.0816C328.309 17.0136 323.856 15.0612 320.237 13.1088C317.175 11.7143 314.392 10.3197 314.392 8.92514C314.392 8.08841 314.948 6.97276 316.062 6.13602C320.237 3.068 332.485 1.39453 340 1.39453C341.67 1.39453 343.34 1.39453 344.454 1.67344C350.021 2.51017 358.928 7.53058 363.103 13.6666C365.33 16.1768 366.165 18.966 365.608 21.4762Z" stroke="white" stroke-width="0.5" stroke-miterlimit="10"/>
<path d="M341.392 39.6055C336.103 39.6055 328.309 30.9592 326.082 25.1021C324.691 22.3129 321.351 20.3606 318.567 18.966C316.062 17.8504 314.113 16.7347 314.392 15.3401H313.835C313.557 17.0136 315.784 18.1293 318.289 19.5238C321.072 20.9184 324.412 22.5919 325.526 25.381C327.753 31.2381 335.825 40.1633 341.392 40.1633C350.021 40.1633 364.773 38.7687 366.165 29.8435H365.608C364.216 38.7687 348.072 39.6055 341.392 39.6055Z" stroke="white" stroke-width="0.5" stroke-miterlimit="10"/>
<path d="M366.165 21.1973H365.608V30.1224H366.165V21.1973Z" stroke="white" stroke-width="0.5" stroke-miterlimit="10"/>
<path d="M314.392 9.2041H313.835V15.3402H314.392V9.2041Z" stroke="white" stroke-width="0.5" stroke-miterlimit="10"/>
<path d="M325.526 6.69385C323.299 6.69385 321.629 7.80949 321.629 8.92514C321.629 10.0408 323.299 11.1564 325.526 11.1564C327.753 11.1564 329.423 10.0408 329.423 8.92514C329.423 7.53058 327.753 6.69385 325.526 6.69385ZM325.526 10.5986C323.577 10.5986 322.186 9.76187 322.186 8.92514C322.186 8.08841 323.856 7.25167 325.526 7.25167C327.474 7.25167 328.866 8.08841 328.866 8.92514C328.866 9.76187 327.196 10.5986 325.526 10.5986Z" stroke="white" stroke-width="0.5" stroke-miterlimit="10"/>
<path d="M941.732 74.1156C935.33 73 918.351 74.3945 912.505 79.136C911.392 79.9728 910.835 81.0884 910.835 82.2041C910.557 83.8775 913.34 85.2721 916.68 86.9455C920.299 88.619 924.474 90.5714 925.588 93.6394C926.979 96.7075 931.433 107.306 938.113 107.306C944.237 107.306 961.216 104.238 962.887 94.7551C963.443 91.966 962.608 89.1768 960.381 86.3877C956.485 79.9728 947.299 74.9524 941.732 74.1156ZM962.608 94.4762C961.216 103.68 944.237 106.469 938.392 106.469C932.268 106.469 927.536 96.4285 926.423 93.0816C925.309 90.0136 920.856 88.0612 917.237 86.1088C914.175 84.7143 911.392 83.3197 911.392 81.9251C911.392 81.0884 911.948 79.9728 913.062 79.136C917.237 76.068 929.485 74.3945 937 74.3945C938.67 74.3945 940.34 74.3945 941.454 74.6734C947.021 75.5102 955.928 80.5306 960.103 86.6666C962.33 89.1768 963.165 91.966 962.608 94.4762Z" stroke="white" stroke-width="0.5" stroke-miterlimit="10"/>
<path d="M938.392 112.605C933.103 112.605 925.309 103.959 923.082 98.102C921.691 95.3129 918.351 93.3605 915.567 91.9659C913.062 90.8503 911.113 89.7346 911.392 88.3401H910.835C910.557 90.0136 912.784 91.1292 915.289 92.5238C918.072 93.9183 921.412 95.5918 922.526 98.3809C924.753 104.238 932.825 113.163 938.392 113.163C947.021 113.163 961.773 111.769 963.165 102.843H962.608C961.216 111.769 945.072 112.605 938.392 112.605Z" stroke="white" stroke-width="0.5" stroke-miterlimit="10"/>
<path d="M963.165 94.1973H962.608V103.122H963.165V94.1973Z" stroke="white" stroke-width="0.5" stroke-miterlimit="10"/>
<path d="M911.392 82.2041H910.835V88.3402H911.392V82.2041Z" stroke="white" stroke-width="0.5" stroke-miterlimit="10"/>
<path d="M922.526 79.6938C920.299 79.6938 918.629 80.8095 918.629 81.9251C918.629 83.0408 920.299 84.1564 922.526 84.1564C924.753 84.1564 926.423 83.0408 926.423 81.9251C926.423 80.5306 924.753 79.6938 922.526 79.6938ZM922.526 83.5986C920.577 83.5986 919.186 82.7619 919.186 81.9251C919.186 81.0884 920.856 80.2517 922.526 80.2517C924.474 80.2517 925.866 81.0884 925.866 81.9251C925.866 82.7619 924.196 83.5986 922.526 83.5986Z" stroke="white" stroke-width="0.5" stroke-miterlimit="10"/>
<path d="M1330.73 74.1156C1324.33 73 1307.35 74.3945 1301.51 79.136C1300.39 79.9728 1299.84 81.0884 1299.84 82.2041C1299.56 83.8775 1302.34 85.2721 1305.68 86.9455C1309.3 88.619 1313.47 90.5714 1314.59 93.6394C1315.98 96.7075 1320.43 107.306 1327.11 107.306C1333.24 107.306 1350.22 104.238 1351.89 94.7551C1352.44 91.966 1351.61 89.1768 1349.38 86.3877C1345.48 79.9728 1336.3 74.9524 1330.73 74.1156ZM1351.61 94.4762C1350.22 103.68 1333.24 106.469 1327.39 106.469C1321.27 106.469 1316.54 96.4285 1315.42 93.0816C1314.31 90.0136 1309.86 88.0612 1306.24 86.1088C1303.18 84.7143 1300.39 83.3197 1300.39 81.9251C1300.39 81.0884 1300.95 79.9728 1302.06 79.136C1306.24 76.068 1318.48 74.3945 1326 74.3945C1327.67 74.3945 1329.34 74.3945 1330.45 74.6734C1336.02 75.5102 1344.93 80.5306 1349.1 86.6666C1351.33 89.1768 1352.16 91.966 1351.61 94.4762Z" stroke="white" stroke-width="0.5" stroke-miterlimit="10"/>
<path d="M1327.39 112.605C1322.1 112.605 1314.31 103.959 1312.08 98.102C1310.69 95.3129 1307.35 93.3605 1304.57 91.9659C1302.06 90.8503 1300.11 89.7346 1300.39 88.3401H1299.84C1299.56 90.0136 1301.78 91.1292 1304.29 92.5238C1307.07 93.9183 1310.41 95.5918 1311.53 98.3809C1313.75 104.238 1321.82 113.163 1327.39 113.163C1336.02 113.163 1350.77 111.769 1352.16 102.843H1351.61C1350.22 111.769 1334.07 112.605 1327.39 112.605Z" stroke="white" stroke-width="0.5" stroke-miterlimit="10"/>
<path d="M1352.16 94.1973H1351.61V103.122H1352.16V94.1973Z" stroke="white" stroke-width="0.5" stroke-miterlimit="10"/>
<path d="M1300.39 82.2041H1299.84V88.3402H1300.39V82.2041Z" stroke="white" stroke-width="0.5" stroke-miterlimit="10"/>
<path d="M1311.53 79.6938C1309.3 79.6938 1307.63 80.8095 1307.63 81.9251C1307.63 83.0408 1309.3 84.1564 1311.53 84.1564C1313.75 84.1564 1315.42 83.0408 1315.42 81.9251C1315.42 80.5306 1313.75 79.6938 1311.53 79.6938ZM1311.53 83.5986C1309.58 83.5986 1308.19 82.7619 1308.19 81.9251C1308.19 81.0884 1309.86 80.2517 1311.53 80.2517C1313.47 80.2517 1314.87 81.0884 1314.87 81.9251C1314.87 82.7619 1313.2 83.5986 1311.53 83.5986Z" stroke="white" stroke-width="0.5" stroke-miterlimit="10"/>
<path d="M161.732 74.1156C155.33 73 138.351 74.3945 132.505 79.136C131.392 79.9728 130.835 81.0884 130.835 82.2041C130.557 83.8775 133.34 85.2721 136.68 86.9455C140.299 88.619 144.474 90.5714 145.588 93.6394C146.979 96.7075 151.433 107.306 158.113 107.306C164.237 107.306 181.217 104.238 182.887 94.7551C183.443 91.966 182.608 89.1768 180.381 86.3877C176.485 79.9728 167.299 74.9524 161.732 74.1156ZM182.608 94.4762C181.217 103.68 164.237 106.469 158.392 106.469C152.268 106.469 147.536 96.4285 146.423 93.0816C145.309 90.0136 140.856 88.0612 137.237 86.1088C134.175 84.7143 131.392 83.3197 131.392 81.9251C131.392 81.0884 131.948 79.9728 133.062 79.136C137.237 76.068 149.485 74.3945 157 74.3945C158.67 74.3945 160.34 74.3945 161.454 74.6734C167.021 75.5102 175.928 80.5306 180.103 86.6666C182.33 89.1768 183.165 91.966 182.608 94.4762Z" stroke="white" stroke-width="0.5" stroke-miterlimit="10"/>
<path d="M158.392 112.605C153.103 112.605 145.309 103.959 143.082 98.102C141.691 95.3129 138.351 93.3605 135.567 91.9659C133.062 90.8503 131.113 89.7346 131.392 88.3401H130.835C130.557 90.0136 132.784 91.1292 135.289 92.5238C138.072 93.9183 141.412 95.5918 142.526 98.3809C144.753 104.238 152.825 113.163 158.392 113.163C167.021 113.163 181.773 111.769 183.165 102.843H182.608C181.216 111.769 165.072 112.605 158.392 112.605Z" stroke="white" stroke-width="0.5" stroke-miterlimit="10"/>
<path d="M183.165 94.1973H182.608V103.122H183.165V94.1973Z" stroke="white" stroke-width="0.5" stroke-miterlimit="10"/>
<path d="M131.392 82.2041H130.835V88.3402H131.392V82.2041Z" stroke="white" stroke-width="0.5" stroke-miterlimit="10"/>
<path d="M142.526 79.6938C140.299 79.6938 138.629 80.8095 138.629 81.9251C138.629 83.0408 140.299 84.1564 142.526 84.1564C144.753 84.1564 146.423 83.0408 146.423 81.9251C146.423 80.5306 144.753 79.6938 142.526 79.6938ZM142.526 83.5986C140.577 83.5986 139.186 82.7619 139.186 81.9251C139.186 81.0884 140.856 80.2517 142.526 80.2517C144.474 80.2517 145.866 81.0884 145.866 81.9251C145.866 82.7619 144.196 83.5986 142.526 83.5986Z" stroke="white" stroke-width="0.5" stroke-miterlimit="10"/>
<path d="M551.732 74.1156C545.33 73 528.351 74.3945 522.505 79.136C521.392 79.9728 520.835 81.0884 520.835 82.2041C520.557 83.8775 523.34 85.2721 526.68 86.9455C530.299 88.619 534.474 90.5714 535.588 93.6394C536.979 96.7075 541.433 107.306 548.113 107.306C554.237 107.306 571.216 104.238 572.887 94.7551C573.443 91.966 572.608 89.1768 570.381 86.3877C566.485 79.9728 557.299 74.9524 551.732 74.1156ZM572.608 94.4762C571.216 103.68 554.237 106.469 548.392 106.469C542.268 106.469 537.536 96.4285 536.423 93.0816C535.309 90.0136 530.856 88.0612 527.237 86.1088C524.175 84.7143 521.392 83.3197 521.392 81.9251C521.392 81.0884 521.948 79.9728 523.062 79.136C527.237 76.068 539.485 74.3945 547 74.3945C548.67 74.3945 550.34 74.3945 551.454 74.6734C557.021 75.5102 565.928 80.5306 570.103 86.6666C572.33 89.1768 573.165 91.966 572.608 94.4762Z" stroke="white" stroke-width="0.5" stroke-miterlimit="10"/>
<path d="M548.392 112.605C543.103 112.605 535.309 103.959 533.082 98.102C531.691 95.3129 528.351 93.3605 525.567 91.9659C523.062 90.8503 521.113 89.7346 521.392 88.3401H520.835C520.557 90.0136 522.784 91.1292 525.289 92.5238C528.072 93.9183 531.412 95.5918 532.526 98.3809C534.753 104.238 542.825 113.163 548.392 113.163C557.021 113.163 571.773 111.769 573.165 102.843H572.608C571.216 111.769 555.072 112.605 548.392 112.605Z" stroke="white" stroke-width="0.5" stroke-miterlimit="10"/>
<path d="M573.165 94.1973H572.608V103.122H573.165V94.1973Z" stroke="white" stroke-width="0.5" stroke-miterlimit="10"/>
<path d="M521.392 82.2041H520.835V88.3402H521.392V82.2041Z" stroke="white" stroke-width="0.5" stroke-miterlimit="10"/>
<path d="M532.526 79.6938C530.299 79.6938 528.629 80.8095 528.629 81.9251C528.629 83.0408 530.299 84.1564 532.526 84.1564C534.753 84.1564 536.423 83.0408 536.423 81.9251C536.423 80.5306 534.753 79.6938 532.526 79.6938ZM532.526 83.5986C530.577 83.5986 529.186 82.7619 529.186 81.9251C529.186 81.0884 530.856 80.2517 532.526 80.2517C534.474 80.2517 535.866 81.0884 535.866 81.9251C535.866 82.7619 534.196 83.5986 532.526 83.5986Z" stroke="white" stroke-width="0.5" stroke-miterlimit="10"/>
<path d="M811.732 74.1156C805.33 73 788.351 74.3945 782.505 79.136C781.392 79.9728 780.835 81.0884 780.835 82.2041C780.557 83.8775 783.34 85.2721 786.68 86.9455C790.299 88.619 794.474 90.5714 795.588 93.6394C796.979 96.7075 801.433 107.306 808.113 107.306C814.237 107.306 831.216 104.238 832.887 94.7551C833.443 91.966 832.608 89.1768 830.381 86.3877C826.485 79.9728 817.299 74.9524 811.732 74.1156ZM832.608 94.4762C831.216 103.68 814.237 106.469 808.392 106.469C802.268 106.469 797.536 96.4285 796.423 93.0816C795.309 90.0136 790.856 88.0612 787.237 86.1088C784.175 84.7143 781.392 83.3197 781.392 81.9251C781.392 81.0884 781.948 79.9728 783.062 79.136C787.237 76.068 799.485 74.3945 807 74.3945C808.67 74.3945 810.34 74.3945 811.454 74.6734C817.021 75.5102 825.928 80.5306 830.103 86.6666C832.33 89.1768 833.165 91.966 832.608 94.4762Z" stroke="white" stroke-width="0.5" stroke-miterlimit="10"/>
<path d="M808.392 112.605C803.103 112.605 795.309 103.959 793.082 98.102C791.691 95.3129 788.351 93.3605 785.567 91.9659C783.062 90.8503 781.113 89.7346 781.392 88.3401H780.835C780.557 90.0136 782.784 91.1292 785.289 92.5238C788.072 93.9183 791.412 95.5918 792.526 98.3809C794.753 104.238 802.825 113.163 808.392 113.163C817.021 113.163 831.773 111.769 833.165 102.843H832.608C831.216 111.769 815.072 112.605 808.392 112.605Z" stroke="white" stroke-width="0.5" stroke-miterlimit="10"/>
<path d="M833.165 94.1973H832.608V103.122H833.165V94.1973Z" stroke="white" stroke-width="0.5" stroke-miterlimit="10"/>
<path d="M781.392 82.2041H780.835V88.3402H781.392V82.2041Z" stroke="white" stroke-width="0.5" stroke-miterlimit="10"/>
<path d="M792.526 79.6938C790.299 79.6938 788.629 80.8095 788.629 81.9251C788.629 83.0408 790.299 84.1564 792.526 84.1564C794.753 84.1564 796.423 83.0408 796.423 81.9251C796.423 80.5306 794.753 79.6938 792.526 79.6938ZM792.526 83.5986C790.577 83.5986 789.186 82.7619 789.186 81.9251C789.186 81.0884 790.856 80.2517 792.526 80.2517C794.474 80.2517 795.866 81.0884 795.866 81.9251C795.866 82.7619 794.196 83.5986 792.526 83.5986Z" stroke="white" stroke-width="0.5" stroke-miterlimit="10"/>
<path d="M31.732 74.1156C25.3299 73 8.35054 74.3945 2.50518 79.136C1.39178 79.9728 0.835077 81.0884 0.835077 82.2041C0.556727 83.8775 3.34023 85.2721 6.68044 86.9455C10.299 88.619 14.4743 90.5714 15.5877 93.6394C16.9794 96.7075 21.433 107.306 28.1134 107.306C34.2371 107.306 51.2165 104.238 52.8866 94.7551C53.4433 91.966 52.6083 89.1768 50.3815 86.3877C46.4846 79.9728 37.299 74.9524 31.732 74.1156ZM52.6083 94.4762C51.2165 103.68 34.2371 106.469 28.3918 106.469C22.2681 106.469 17.5361 96.4285 16.4227 93.0816C15.3093 90.0136 10.8557 88.0612 7.23714 86.1088C4.17528 84.7143 1.39178 83.3197 1.39178 81.9251C1.39178 81.0884 1.94848 79.9728 3.06188 79.136C7.23714 76.068 19.4846 74.3945 27 74.3945C28.6701 74.3945 30.3402 74.3945 31.4536 74.6734C37.0206 75.5102 45.9279 80.5306 50.1031 86.6666C52.3299 89.1768 53.165 91.966 52.6083 94.4762Z" stroke="white" stroke-width="0.5" stroke-miterlimit="10"/>
<path d="M28.3918 112.605C23.1031 112.605 15.3093 103.959 13.0825 98.102C11.6907 95.3129 8.35052 93.3605 5.56701 91.9659C3.06186 90.8503 1.11341 89.7346 1.39176 88.3401H0.835055C0.556704 90.0136 2.78351 91.1292 5.28866 92.5238C8.07217 93.9183 11.4124 95.5918 12.5258 98.3809C14.7526 104.238 22.8247 113.163 28.3918 113.163C37.0206 113.163 51.7732 111.769 53.165 102.843H52.6082C51.2165 111.769 35.0722 112.605 28.3918 112.605Z" stroke="white" stroke-width="0.5" stroke-miterlimit="10"/>
<path d="M53.165 94.1973H52.6083V103.122H53.165V94.1973Z" stroke="white" stroke-width="0.5" stroke-miterlimit="10"/>
<path d="M1.39172 82.2041H0.835022V88.3402H1.39172V82.2041Z" stroke="white" stroke-width="0.5" stroke-miterlimit="10"/>
<path d="M12.5258 79.6938C10.2989 79.6938 8.62885 80.8095 8.62885 81.9251C8.62885 83.0408 10.2989 84.1564 12.5258 84.1564C14.7526 84.1564 16.4227 83.0408 16.4227 81.9251C16.4227 80.5306 14.7526 79.6938 12.5258 79.6938ZM12.5258 83.5986C10.5773 83.5986 9.18555 82.7619 9.18555 81.9251C9.18555 81.0884 10.8556 80.2517 12.5258 80.2517C14.4742 80.2517 15.866 81.0884 15.866 81.9251C15.866 82.7619 14.1959 83.5986 12.5258 83.5986Z" stroke="white" stroke-width="0.5" stroke-miterlimit="10"/>
<path d="M421.732 74.1156C415.33 73 398.351 74.3945 392.505 79.136C391.392 79.9728 390.835 81.0884 390.835 82.2041C390.557 83.8775 393.34 85.2721 396.68 86.9455C400.299 88.619 404.474 90.5714 405.588 93.6394C406.979 96.7075 411.433 107.306 418.113 107.306C424.237 107.306 441.216 104.238 442.887 94.7551C443.443 91.966 442.608 89.1768 440.381 86.3877C436.485 79.9728 427.299 74.9524 421.732 74.1156ZM442.608 94.4762C441.216 103.68 424.237 106.469 418.392 106.469C412.268 106.469 407.536 96.4285 406.423 93.0816C405.309 90.0136 400.856 88.0612 397.237 86.1088C394.175 84.7143 391.392 83.3197 391.392 81.9251C391.392 81.0884 391.948 79.9728 393.062 79.136C397.237 76.068 409.485 74.3945 417 74.3945C418.67 74.3945 420.34 74.3945 421.454 74.6734C427.021 75.5102 435.928 80.5306 440.103 86.6666C442.33 89.1768 443.165 91.966 442.608 94.4762Z" stroke="white" stroke-width="0.5" stroke-miterlimit="10"/>
<path d="M418.392 112.605C413.103 112.605 405.309 103.959 403.082 98.102C401.691 95.3129 398.351 93.3605 395.567 91.9659C393.062 90.8503 391.113 89.7346 391.392 88.3401H390.835C390.557 90.0136 392.784 91.1292 395.289 92.5238C398.072 93.9183 401.412 95.5918 402.526 98.3809C404.753 104.238 412.825 113.163 418.392 113.163C427.021 113.163 441.773 111.769 443.165 102.843H442.608C441.216 111.769 425.072 112.605 418.392 112.605Z" stroke="white" stroke-width="0.5" stroke-miterlimit="10"/>
<path d="M443.165 94.1973H442.608V103.122H443.165V94.1973Z" stroke="white" stroke-width="0.5" stroke-miterlimit="10"/>
<path d="M391.392 82.2041H390.835V88.3402H391.392V82.2041Z" stroke="white" stroke-width="0.5" stroke-miterlimit="10"/>
<path d="M402.526 79.6938C400.299 79.6938 398.629 80.8095 398.629 81.9251C398.629 83.0408 400.299 84.1564 402.526 84.1564C404.753 84.1564 406.423 83.0408 406.423 81.9251C406.423 80.5306 404.753 79.6938 402.526 79.6938ZM402.526 83.5986C400.577 83.5986 399.186 82.7619 399.186 81.9251C399.186 81.0884 400.856 80.2517 402.526 80.2517C404.474 80.2517 405.866 81.0884 405.866 81.9251C405.866 82.7619 404.196 83.5986 402.526 83.5986Z" stroke="white" stroke-width="0.5" stroke-miterlimit="10"/>
<path d="M681.732 74.1156C675.33 73 658.351 74.3945 652.505 79.136C651.392 79.9728 650.835 81.0884 650.835 82.2041C650.557 83.8775 653.34 85.2721 656.68 86.9455C660.299 88.619 664.474 90.5714 665.588 93.6394C666.979 96.7075 671.433 107.306 678.113 107.306C684.237 107.306 701.216 104.238 702.887 94.7551C703.443 91.966 702.608 89.1768 700.381 86.3877C696.485 79.9728 687.299 74.9524 681.732 74.1156ZM702.608 94.4762C701.216 103.68 684.237 106.469 678.392 106.469C672.268 106.469 667.536 96.4285 666.423 93.0816C665.309 90.0136 660.856 88.0612 657.237 86.1088C654.175 84.7143 651.392 83.3197 651.392 81.9251C651.392 81.0884 651.948 79.9728 653.062 79.136C657.237 76.068 669.485 74.3945 677 74.3945C678.67 74.3945 680.34 74.3945 681.454 74.6734C687.021 75.5102 695.928 80.5306 700.103 86.6666C702.33 89.1768 703.165 91.966 702.608 94.4762Z" stroke="white" stroke-width="0.5" stroke-miterlimit="10"/>
<path d="M678.392 112.605C673.103 112.605 665.309 103.959 663.082 98.102C661.691 95.3129 658.351 93.3605 655.567 91.9659C653.062 90.8503 651.113 89.7346 651.392 88.3401H650.835C650.557 90.0136 652.784 91.1292 655.289 92.5238C658.072 93.9183 661.412 95.5918 662.526 98.3809C664.753 104.238 672.825 113.163 678.392 113.163C687.021 113.163 701.773 111.769 703.165 102.843H702.608C701.216 111.769 685.072 112.605 678.392 112.605Z" stroke="white" stroke-width="0.5" stroke-miterlimit="10"/>
<path d="M703.165 94.1973H702.608V103.122H703.165V94.1973Z" stroke="white" stroke-width="0.5" stroke-miterlimit="10"/>
<path d="M651.392 82.2041H650.835V88.3402H651.392V82.2041Z" stroke="white" stroke-width="0.5" stroke-miterlimit="10"/>
<path d="M662.526 79.6938C660.299 79.6938 658.629 80.8095 658.629 81.9251C658.629 83.0408 660.299 84.1564 662.526 84.1564C664.753 84.1564 666.423 83.0408 666.423 81.9251C666.423 80.5306 664.753 79.6938 662.526 79.6938ZM662.526 83.5986C660.577 83.5986 659.186 82.7619 659.186 81.9251C659.186 81.0884 660.856 80.2517 662.526 80.2517C664.474 80.2517 665.866 81.0884 665.866 81.9251C665.866 82.7619 664.196 83.5986 662.526 83.5986Z" stroke="white" stroke-width="0.5" stroke-miterlimit="10"/>
<path d="M291.732 74.1156C285.33 73 268.351 74.3945 262.505 79.136C261.392 79.9728 260.835 81.0884 260.835 82.2041C260.557 83.8775 263.34 85.2721 266.68 86.9455C270.299 88.619 274.474 90.5714 275.588 93.6394C276.979 96.7075 281.433 107.306 288.113 107.306C294.237 107.306 311.216 104.238 312.887 94.7551C313.443 91.966 312.608 89.1768 310.381 86.3877C306.485 79.9728 297.299 74.9524 291.732 74.1156ZM312.608 94.4762C311.216 103.68 294.237 106.469 288.392 106.469C282.268 106.469 277.536 96.4285 276.423 93.0816C275.309 90.0136 270.856 88.0612 267.237 86.1088C264.175 84.7143 261.392 83.3197 261.392 81.9251C261.392 81.0884 261.948 79.9728 263.062 79.136C267.237 76.068 279.485 74.3945 287 74.3945C288.67 74.3945 290.34 74.3945 291.454 74.6734C297.021 75.5102 305.928 80.5306 310.103 86.6666C312.33 89.1768 313.165 91.966 312.608 94.4762Z" stroke="white" stroke-width="0.5" stroke-miterlimit="10"/>
<path d="M288.392 112.605C283.103 112.605 275.309 103.959 273.082 98.102C271.691 95.3129 268.351 93.3605 265.567 91.9659C263.062 90.8503 261.113 89.7346 261.392 88.3401H260.835C260.557 90.0136 262.784 91.1292 265.289 92.5238C268.072 93.9183 271.412 95.5918 272.526 98.3809C274.753 104.238 282.825 113.163 288.392 113.163C297.021 113.163 311.773 111.769 313.165 102.843H312.608C311.216 111.769 295.072 112.605 288.392 112.605Z" stroke="white" stroke-width="0.5" stroke-miterlimit="10"/>
<path d="M313.165 94.1973H312.608V103.122H313.165V94.1973Z" stroke="white" stroke-width="0.5" stroke-miterlimit="10"/>
<path d="M261.392 82.2041H260.835V88.3402H261.392V82.2041Z" stroke="white" stroke-width="0.5" stroke-miterlimit="10"/>
<path d="M272.526 79.6938C270.299 79.6938 268.629 80.8095 268.629 81.9251C268.629 83.0408 270.299 84.1564 272.526 84.1564C274.753 84.1564 276.423 83.0408 276.423 81.9251C276.423 80.5306 274.753 79.6938 272.526 79.6938ZM272.526 83.5986C270.577 83.5986 269.186 82.7619 269.186 81.9251C269.186 81.0884 270.856 80.2517 272.526 80.2517C274.474 80.2517 275.866 81.0884 275.866 81.9251C275.866 82.7619 274.196 83.5986 272.526 83.5986Z" stroke="white" stroke-width="0.5" stroke-miterlimit="10"/>
<path d="M1331.73 264.116C1325.33 263 1308.35 264.395 1302.51 269.136C1301.39 269.973 1300.84 271.088 1300.84 272.204C1300.56 273.878 1303.34 275.272 1306.68 276.946C1310.3 278.619 1314.47 280.571 1315.59 283.639C1316.98 286.707 1321.43 297.306 1328.11 297.306C1334.24 297.306 1351.22 294.238 1352.89 284.755C1353.44 281.966 1352.61 279.177 1350.38 276.388C1346.48 269.973 1337.3 264.952 1331.73 264.116ZM1352.61 284.476C1351.22 293.68 1334.24 296.469 1328.39 296.469C1322.27 296.469 1317.54 286.429 1316.42 283.082C1315.31 280.014 1310.86 278.061 1307.24 276.109C1304.18 274.714 1301.39 273.32 1301.39 271.925C1301.39 271.088 1301.95 269.973 1303.06 269.136C1307.24 266.068 1319.48 264.395 1327 264.395C1328.67 264.395 1330.34 264.395 1331.45 264.673C1337.02 265.51 1345.93 270.531 1350.1 276.667C1352.33 279.177 1353.16 281.966 1352.61 284.476Z" stroke="white" stroke-width="0.5" stroke-miterlimit="10"/>
<path d="M1328.39 302.605C1323.1 302.605 1315.31 293.959 1313.08 288.102C1311.69 285.313 1308.35 283.36 1305.57 281.966C1303.06 280.85 1301.11 279.735 1301.39 278.34H1300.84C1300.56 280.014 1302.78 281.129 1305.29 282.524C1308.07 283.918 1311.41 285.592 1312.53 288.381C1314.75 294.238 1322.82 303.163 1328.39 303.163C1337.02 303.163 1351.77 301.769 1353.16 292.843H1352.61C1351.22 301.769 1335.07 302.605 1328.39 302.605Z" stroke="white" stroke-width="0.5" stroke-miterlimit="10"/>
<path d="M1353.16 284.197H1352.61V293.122H1353.16V284.197Z" stroke="white" stroke-width="0.5" stroke-miterlimit="10"/>
<path d="M1301.39 272.204H1300.84V278.34H1301.39V272.204Z" stroke="white" stroke-width="0.5" stroke-miterlimit="10"/>
<path d="M1312.53 269.694C1310.3 269.694 1308.63 270.809 1308.63 271.925C1308.63 273.041 1310.3 274.156 1312.53 274.156C1314.75 274.156 1316.42 273.041 1316.42 271.925C1316.42 270.531 1314.75 269.694 1312.53 269.694ZM1312.53 273.599C1310.58 273.599 1309.19 272.762 1309.19 271.925C1309.19 271.088 1310.86 270.252 1312.53 270.252C1314.47 270.252 1315.87 271.088 1315.87 271.925C1315.87 272.762 1314.2 273.599 1312.53 273.599Z" stroke="white" stroke-width="0.5" stroke-miterlimit="10"/>
<path d="M941.732 264.116C935.33 263 918.351 264.395 912.505 269.136C911.392 269.973 910.835 271.088 910.835 272.204C910.557 273.878 913.34 275.272 916.68 276.946C920.299 278.619 924.474 280.571 925.588 283.639C926.979 286.707 931.433 297.306 938.113 297.306C944.237 297.306 961.216 294.238 962.887 284.755C963.443 281.966 962.608 279.177 960.381 276.388C956.485 269.973 947.299 264.952 941.732 264.116ZM962.608 284.476C961.216 293.68 944.237 296.469 938.392 296.469C932.268 296.469 927.536 286.429 926.423 283.082C925.309 280.014 920.856 278.061 917.237 276.109C914.175 274.714 911.392 273.32 911.392 271.925C911.392 271.088 911.948 269.973 913.062 269.136C917.237 266.068 929.485 264.395 937 264.395C938.67 264.395 940.34 264.395 941.454 264.673C947.021 265.51 955.928 270.531 960.103 276.667C962.33 279.177 963.165 281.966 962.608 284.476Z" stroke="white" stroke-width="0.5" stroke-miterlimit="10"/>
<path d="M938.392 302.605C933.103 302.605 925.309 293.959 923.082 288.102C921.691 285.313 918.351 283.36 915.567 281.966C913.062 280.85 911.113 279.735 911.392 278.34H910.835C910.557 280.014 912.784 281.129 915.289 282.524C918.072 283.918 921.412 285.592 922.526 288.381C924.753 294.238 932.825 303.163 938.392 303.163C947.021 303.163 961.773 301.769 963.165 292.843H962.608C961.216 301.769 945.072 302.605 938.392 302.605Z" stroke="white" stroke-width="0.5" stroke-miterlimit="10"/>
<path d="M963.165 284.197H962.608V293.122H963.165V284.197Z" stroke="white" stroke-width="0.5" stroke-miterlimit="10"/>
<path d="M911.392 272.204H910.835V278.34H911.392V272.204Z" stroke="white" stroke-width="0.5" stroke-miterlimit="10"/>
<path d="M922.526 269.694C920.299 269.694 918.629 270.809 918.629 271.925C918.629 273.041 920.299 274.156 922.526 274.156C924.753 274.156 926.423 273.041 926.423 271.925C926.423 270.531 924.753 269.694 922.526 269.694ZM922.526 273.599C920.577 273.599 919.186 272.762 919.186 271.925C919.186 271.088 920.856 270.252 922.526 270.252C924.474 270.252 925.866 271.088 925.866 271.925C925.866 272.762 924.196 273.599 922.526 273.599Z" stroke="white" stroke-width="0.5" stroke-miterlimit="10"/>
<path d="M161.732 264.116C155.33 263 138.351 264.395 132.505 269.136C131.392 269.973 130.835 271.088 130.835 272.204C130.557 273.878 133.34 275.272 136.68 276.946C140.299 278.619 144.474 280.571 145.588 283.639C146.979 286.707 151.433 297.306 158.113 297.306C164.237 297.306 181.217 294.238 182.887 284.755C183.443 281.966 182.608 279.177 180.381 276.388C176.485 269.973 167.299 264.952 161.732 264.116ZM182.608 284.476C181.217 293.68 164.237 296.469 158.392 296.469C152.268 296.469 147.536 286.429 146.423 283.082C145.309 280.014 140.856 278.061 137.237 276.109C134.175 274.714 131.392 273.32 131.392 271.925C131.392 271.088 131.948 269.973 133.062 269.136C137.237 266.068 149.485 264.395 157 264.395C158.67 264.395 160.34 264.395 161.454 264.673C167.021 265.51 175.928 270.531 180.103 276.667C182.33 279.177 183.165 281.966 182.608 284.476Z" stroke="white" stroke-width="0.5" stroke-miterlimit="10"/>
<path d="M158.392 302.605C153.103 302.605 145.309 293.959 143.082 288.102C141.691 285.313 138.351 283.36 135.567 281.966C133.062 280.85 131.113 279.735 131.392 278.34H130.835C130.557 280.014 132.784 281.129 135.289 282.524C138.072 283.918 141.412 285.592 142.526 288.381C144.753 294.238 152.825 303.163 158.392 303.163C167.021 303.163 181.773 301.769 183.165 292.843H182.608C181.216 301.769 165.072 302.605 158.392 302.605Z" stroke="white" stroke-width="0.5" stroke-miterlimit="10"/>
<path d="M183.165 284.197H182.608V293.122H183.165V284.197Z" stroke="white" stroke-width="0.5" stroke-miterlimit="10"/>
<path d="M131.392 272.204H130.835V278.34H131.392V272.204Z" stroke="white" stroke-width="0.5" stroke-miterlimit="10"/>
<path d="M142.526 269.694C140.299 269.694 138.629 270.809 138.629 271.925C138.629 273.041 140.299 274.156 142.526 274.156C144.753 274.156 146.423 273.041 146.423 271.925C146.423 270.531 144.753 269.694 142.526 269.694ZM142.526 273.599C140.577 273.599 139.186 272.762 139.186 271.925C139.186 271.088 140.856 270.252 142.526 270.252C144.474 270.252 145.866 271.088 145.866 271.925C145.866 272.762 144.196 273.599 142.526 273.599Z" stroke="white" stroke-width="0.5" stroke-miterlimit="10"/>
<path d="M551.732 264.116C545.33 263 528.351 264.395 522.505 269.136C521.392 269.973 520.835 271.088 520.835 272.204C520.557 273.878 523.34 275.272 526.68 276.946C530.299 278.619 534.474 280.571 535.588 283.639C536.979 286.707 541.433 297.306 548.113 297.306C554.237 297.306 571.216 294.238 572.887 284.755C573.443 281.966 572.608 279.177 570.381 276.388C566.485 269.973 557.299 264.952 551.732 264.116ZM572.608 284.476C571.216 293.68 554.237 296.469 548.392 296.469C542.268 296.469 537.536 286.429 536.423 283.082C535.309 280.014 530.856 278.061 527.237 276.109C524.175 274.714 521.392 273.32 521.392 271.925C521.392 271.088 521.948 269.973 523.062 269.136C527.237 266.068 539.485 264.395 547 264.395C548.67 264.395 550.34 264.395 551.454 264.673C557.021 265.51 565.928 270.531 570.103 276.667C572.33 279.177 573.165 281.966 572.608 284.476Z" stroke="white" stroke-width="0.5" stroke-miterlimit="10"/>
<path d="M548.392 302.605C543.103 302.605 535.309 293.959 533.082 288.102C531.691 285.313 528.351 283.36 525.567 281.966C523.062 280.85 521.113 279.735 521.392 278.34H520.835C520.557 280.014 522.784 281.129 525.289 282.524C528.072 283.918 531.412 285.592 532.526 288.381C534.753 294.238 542.825 303.163 548.392 303.163C557.021 303.163 571.773 301.769 573.165 292.843H572.608C571.216 301.769 555.072 302.605 548.392 302.605Z" stroke="white" stroke-width="0.5" stroke-miterlimit="10"/>
<path d="M573.165 284.197H572.608V293.122H573.165V284.197Z" stroke="white" stroke-width="0.5" stroke-miterlimit="10"/>
<path d="M521.392 272.204H520.835V278.34H521.392V272.204Z" stroke="white" stroke-width="0.5" stroke-miterlimit="10"/>
<path d="M532.526 269.694C530.299 269.694 528.629 270.809 528.629 271.925C528.629 273.041 530.299 274.156 532.526 274.156C534.753 274.156 536.423 273.041 536.423 271.925C536.423 270.531 534.753 269.694 532.526 269.694ZM532.526 273.599C530.577 273.599 529.186 272.762 529.186 271.925C529.186 271.088 530.856 270.252 532.526 270.252C534.474 270.252 535.866 271.088 535.866 271.925C535.866 272.762 534.196 273.599 532.526 273.599Z" stroke="white" stroke-width="0.5" stroke-miterlimit="10"/>
<path d="M1201.73 264.116C1195.33 263 1178.35 264.395 1172.51 269.136C1171.39 269.973 1170.84 271.088 1170.84 272.204C1170.56 273.878 1173.34 275.272 1176.68 276.946C1180.3 278.619 1184.47 280.571 1185.59 283.639C1186.98 286.707 1191.43 297.306 1198.11 297.306C1204.24 297.306 1221.22 294.238 1222.89 284.755C1223.44 281.966 1222.61 279.177 1220.38 276.388C1216.48 269.973 1207.3 264.952 1201.73 264.116ZM1222.61 284.476C1221.22 293.68 1204.24 296.469 1198.39 296.469C1192.27 296.469 1187.54 286.429 1186.42 283.082C1185.31 280.014 1180.86 278.061 1177.24 276.109C1174.18 274.714 1171.39 273.32 1171.39 271.925C1171.39 271.088 1171.95 269.973 1173.06 269.136C1177.24 266.068 1189.48 264.395 1197 264.395C1198.67 264.395 1200.34 264.395 1201.45 264.673C1207.02 265.51 1215.93 270.531 1220.1 276.667C1222.33 279.177 1223.16 281.966 1222.61 284.476Z" stroke="white" stroke-width="0.5" stroke-miterlimit="10"/>
<path d="M1198.39 302.605C1193.1 302.605 1185.31 293.959 1183.08 288.102C1181.69 285.313 1178.35 283.36 1175.57 281.966C1173.06 280.85 1171.11 279.735 1171.39 278.34H1170.84C1170.56 280.014 1172.78 281.129 1175.29 282.524C1178.07 283.918 1181.41 285.592 1182.53 288.381C1184.75 294.238 1192.82 303.163 1198.39 303.163C1207.02 303.163 1221.77 301.769 1223.16 292.843H1222.61C1221.22 301.769 1205.07 302.605 1198.39 302.605Z" stroke="white" stroke-width="0.5" stroke-miterlimit="10"/>
<path d="M1223.16 284.197H1222.61V293.122H1223.16V284.197Z" stroke="white" stroke-width="0.5" stroke-miterlimit="10"/>
<path d="M1171.39 272.204H1170.84V278.34H1171.39V272.204Z" stroke="white" stroke-width="0.5" stroke-miterlimit="10"/>
<path d="M1182.53 269.694C1180.3 269.694 1178.63 270.809 1178.63 271.925C1178.63 273.041 1180.3 274.156 1182.53 274.156C1184.75 274.156 1186.42 273.041 1186.42 271.925C1186.42 270.531 1184.75 269.694 1182.53 269.694ZM1182.53 273.599C1180.58 273.599 1179.19 272.762 1179.19 271.925C1179.19 271.088 1180.86 270.252 1182.53 270.252C1184.47 270.252 1185.87 271.088 1185.87 271.925C1185.87 272.762 1184.2 273.599 1182.53 273.599Z" stroke="white" stroke-width="0.5" stroke-miterlimit="10"/>
<path d="M811.732 264.116C805.33 263 788.351 264.395 782.505 269.136C781.392 269.973 780.835 271.088 780.835 272.204C780.557 273.878 783.34 275.272 786.68 276.946C790.299 278.619 794.474 280.571 795.588 283.639C796.979 286.707 801.433 297.306 808.113 297.306C814.237 297.306 831.216 294.238 832.887 284.755C833.443 281.966 832.608 279.177 830.381 276.388C826.485 269.973 817.299 264.952 811.732 264.116ZM832.608 284.476C831.216 293.68 814.237 296.469 808.392 296.469C802.268 296.469 797.536 286.429 796.423 283.082C795.309 280.014 790.856 278.061 787.237 276.109C784.175 274.714 781.392 273.32 781.392 271.925C781.392 271.088 781.948 269.973 783.062 269.136C787.237 266.068 799.485 264.395 807 264.395C808.67 264.395 810.34 264.395 811.454 264.673C817.021 265.51 825.928 270.531 830.103 276.667C832.33 279.177 833.165 281.966 832.608 284.476Z" stroke="white" stroke-width="0.5" stroke-miterlimit="10"/>
<path d="M808.392 302.605C803.103 302.605 795.309 293.959 793.082 288.102C791.691 285.313 788.351 283.36 785.567 281.966C783.062 280.85 781.113 279.735 781.392 278.34H780.835C780.557 280.014 782.784 281.129 785.289 282.524C788.072 283.918 791.412 285.592 792.526 288.381C794.753 294.238 802.825 303.163 808.392 303.163C817.021 303.163 831.773 301.769 833.165 292.843H832.608C831.216 301.769 815.072 302.605 808.392 302.605Z" stroke="white" stroke-width="0.5" stroke-miterlimit="10"/>
<path d="M833.165 284.197H832.608V293.122H833.165V284.197Z" stroke="white" stroke-width="0.5" stroke-miterlimit="10"/>
<path d="M781.392 272.204H780.835V278.34H781.392V272.204Z" stroke="white" stroke-width="0.5" stroke-miterlimit="10"/>
<path d="M792.526 269.694C790.299 269.694 788.629 270.809 788.629 271.925C788.629 273.041 790.299 274.156 792.526 274.156C794.753 274.156 796.423 273.041 796.423 271.925C796.423 270.531 794.753 269.694 792.526 269.694ZM792.526 273.599C790.577 273.599 789.186 272.762 789.186 271.925C789.186 271.088 790.856 270.252 792.526 270.252C794.474 270.252 795.866 271.088 795.866 271.925C795.866 272.762 794.196 273.599 792.526 273.599Z" stroke="white" stroke-width="0.5" stroke-miterlimit="10"/>
<path d="M31.732 264.116C25.3299 263 8.35054 264.395 2.50518 269.136C1.39178 269.973 0.835077 271.088 0.835077 272.204C0.556727 273.878 3.34023 275.272 6.68044 276.946C10.299 278.619 14.4743 280.571 15.5877 283.639C16.9794 286.707 21.433 297.306 28.1134 297.306C34.2371 297.306 51.2165 294.238 52.8866 284.755C53.4433 281.966 52.6083 279.177 50.3815 276.388C46.4846 269.973 37.299 264.952 31.732 264.116ZM52.6083 284.476C51.2165 293.68 34.2371 296.469 28.3918 296.469C22.2681 296.469 17.5361 286.429 16.4227 283.082C15.3093 280.014 10.8557 278.061 7.23714 276.109C4.17528 274.714 1.39178 273.32 1.39178 271.925C1.39178 271.088 1.94848 269.973 3.06188 269.136C7.23714 266.068 19.4846 264.395 27 264.395C28.6701 264.395 30.3402 264.395 31.4536 264.673C37.0206 265.51 45.9279 270.531 50.1031 276.667C52.3299 279.177 53.165 281.966 52.6083 284.476Z" stroke="white" stroke-width="0.5" stroke-miterlimit="10"/>
<path d="M28.3918 302.605C23.1031 302.605 15.3093 293.959 13.0825 288.102C11.6907 285.313 8.35052 283.36 5.56701 281.966C3.06186 280.85 1.11341 279.735 1.39176 278.34H0.835055C0.556704 280.014 2.78351 281.129 5.28866 282.524C8.07217 283.918 11.4124 285.592 12.5258 288.381C14.7526 294.238 22.8247 303.163 28.3918 303.163C37.0206 303.163 51.7732 301.769 53.165 292.843H52.6082C51.2165 301.769 35.0722 302.605 28.3918 302.605Z" stroke="white" stroke-width="0.5" stroke-miterlimit="10"/>
<path d="M53.165 284.197H52.6083V293.122H53.165V284.197Z" stroke="white" stroke-width="0.5" stroke-miterlimit="10"/>
<path d="M1.39172 272.204H0.835022V278.34H1.39172V272.204Z" stroke="white" stroke-width="0.5" stroke-miterlimit="10"/>
<path d="M12.5258 269.694C10.2989 269.694 8.62885 270.809 8.62885 271.925C8.62885 273.041 10.2989 274.156 12.5258 274.156C14.7526 274.156 16.4227 273.041 16.4227 271.925C16.4227 270.531 14.7526 269.694 12.5258 269.694ZM12.5258 273.599C10.5773 273.599 9.18555 272.762 9.18555 271.925C9.18555 271.088 10.8556 270.252 12.5258 270.252C14.4742 270.252 15.866 271.088 15.866 271.925C15.866 272.762 14.1959 273.599 12.5258 273.599Z" stroke="white" stroke-width="0.5" stroke-miterlimit="10"/>
<path d="M421.732 264.116C415.33 263 398.351 264.395 392.505 269.136C391.392 269.973 390.835 271.088 390.835 272.204C390.557 273.878 393.34 275.272 396.68 276.946C400.299 278.619 404.474 280.571 405.588 283.639C406.979 286.707 411.433 297.306 418.113 297.306C424.237 297.306 441.216 294.238 442.887 284.755C443.443 281.966 442.608 279.177 440.381 276.388C436.485 269.973 427.299 264.952 421.732 264.116ZM442.608 284.476C441.216 293.68 424.237 296.469 418.392 296.469C412.268 296.469 407.536 286.429 406.423 283.082C405.309 280.014 400.856 278.061 397.237 276.109C394.175 274.714 391.392 273.32 391.392 271.925C391.392 271.088 391.948 269.973 393.062 269.136C397.237 266.068 409.485 264.395 417 264.395C418.67 264.395 420.34 264.395 421.454 264.673C427.021 265.51 435.928 270.531 440.103 276.667C442.33 279.177 443.165 281.966 442.608 284.476Z" stroke="white" stroke-width="0.5" stroke-miterlimit="10"/>
<path d="M418.392 302.605C413.103 302.605 405.309 293.959 403.082 288.102C401.691 285.313 398.351 283.36 395.567 281.966C393.062 280.85 391.113 279.735 391.392 278.34H390.835C390.557 280.014 392.784 281.129 395.289 282.524C398.072 283.918 401.412 285.592 402.526 288.381C404.753 294.238 412.825 303.163 418.392 303.163C427.021 303.163 441.773 301.769 443.165 292.843H442.608C441.216 301.769 425.072 302.605 418.392 302.605Z" stroke="white" stroke-width="0.5" stroke-miterlimit="10"/>
<path d="M443.165 284.197H442.608V293.122H443.165V284.197Z" stroke="white" stroke-width="0.5" stroke-miterlimit="10"/>
<path d="M391.392 272.204H390.835V278.34H391.392V272.204Z" stroke="white" stroke-width="0.5" stroke-miterlimit="10"/>
<path d="M402.526 269.694C400.299 269.694 398.629 270.809 398.629 271.925C398.629 273.041 400.299 274.156 402.526 274.156C404.753 274.156 406.423 273.041 406.423 271.925C406.423 270.531 404.753 269.694 402.526 269.694ZM402.526 273.599C400.577 273.599 399.186 272.762 399.186 271.925C399.186 271.088 400.856 270.252 402.526 270.252C404.474 270.252 405.866 271.088 405.866 271.925C405.866 272.762 404.196 273.599 402.526 273.599Z" stroke="white" stroke-width="0.5" stroke-miterlimit="10"/>
<path d="M1071.73 264.116C1065.33 263 1048.35 264.395 1042.51 269.136C1041.39 269.973 1040.84 271.088 1040.84 272.204C1040.56 273.878 1043.34 275.272 1046.68 276.946C1050.3 278.619 1054.47 280.571 1055.59 283.639C1056.98 286.707 1061.43 297.306 1068.11 297.306C1074.24 297.306 1091.22 294.238 1092.89 284.755C1093.44 281.966 1092.61 279.177 1090.38 276.388C1086.48 269.973 1077.3 264.952 1071.73 264.116ZM1092.61 284.476C1091.22 293.68 1074.24 296.469 1068.39 296.469C1062.27 296.469 1057.54 286.429 1056.42 283.082C1055.31 280.014 1050.86 278.061 1047.24 276.109C1044.18 274.714 1041.39 273.32 1041.39 271.925C1041.39 271.088 1041.95 269.973 1043.06 269.136C1047.24 266.068 1059.48 264.395 1067 264.395C1068.67 264.395 1070.34 264.395 1071.45 264.673C1077.02 265.51 1085.93 270.531 1090.1 276.667C1092.33 279.177 1093.16 281.966 1092.61 284.476Z" stroke="white" stroke-width="0.5" stroke-miterlimit="10"/>
<path d="M1068.39 302.605C1063.1 302.605 1055.31 293.959 1053.08 288.102C1051.69 285.313 1048.35 283.36 1045.57 281.966C1043.06 280.85 1041.11 279.735 1041.39 278.34H1040.84C1040.56 280.014 1042.78 281.129 1045.29 282.524C1048.07 283.918 1051.41 285.592 1052.53 288.381C1054.75 294.238 1062.82 303.163 1068.39 303.163C1077.02 303.163 1091.77 301.769 1093.16 292.843H1092.61C1091.22 301.769 1075.07 302.605 1068.39 302.605Z" stroke="white" stroke-width="0.5" stroke-miterlimit="10"/>
<path d="M1093.16 284.197H1092.61V293.122H1093.16V284.197Z" stroke="white" stroke-width="0.5" stroke-miterlimit="10"/>
<path d="M1041.39 272.204H1040.84V278.34H1041.39V272.204Z" stroke="white" stroke-width="0.5" stroke-miterlimit="10"/>
<path d="M1052.53 269.694C1050.3 269.694 1048.63 270.809 1048.63 271.925C1048.63 273.041 1050.3 274.156 1052.53 274.156C1054.75 274.156 1056.42 273.041 1056.42 271.925C1056.42 270.531 1054.75 269.694 1052.53 269.694ZM1052.53 273.599C1050.58 273.599 1049.19 272.762 1049.19 271.925C1049.19 271.088 1050.86 270.252 1052.53 270.252C1054.47 270.252 1055.87 271.088 1055.87 271.925C1055.87 272.762 1054.2 273.599 1052.53 273.599Z" stroke="white" stroke-width="0.5" stroke-miterlimit="10"/>
<path d="M681.732 264.116C675.33 263 658.351 264.395 652.505 269.136C651.392 269.973 650.835 271.088 650.835 272.204C650.557 273.878 653.34 275.272 656.68 276.946C660.299 278.619 664.474 280.571 665.588 283.639C666.979 286.707 671.433 297.306 678.113 297.306C684.237 297.306 701.216 294.238 702.887 284.755C703.443 281.966 702.608 279.177 700.381 276.388C696.485 269.973 687.299 264.952 681.732 264.116ZM702.608 284.476C701.216 293.68 684.237 296.469 678.392 296.469C672.268 296.469 667.536 286.429 666.423 283.082C665.309 280.014 660.856 278.061 657.237 276.109C654.175 274.714 651.392 273.32 651.392 271.925C651.392 271.088 651.948 269.973 653.062 269.136C657.237 266.068 669.485 264.395 677 264.395C678.67 264.395 680.34 264.395 681.454 264.673C687.021 265.51 695.928 270.531 700.103 276.667C702.33 279.177 703.165 281.966 702.608 284.476Z" stroke="white" stroke-width="0.5" stroke-miterlimit="10"/>
<path d="M678.392 302.605C673.103 302.605 665.309 293.959 663.082 288.102C661.691 285.313 658.351 283.36 655.567 281.966C653.062 280.85 651.113 279.735 651.392 278.34H650.835C650.557 280.014 652.784 281.129 655.289 282.524C658.072 283.918 661.412 285.592 662.526 288.381C664.753 294.238 672.825 303.163 678.392 303.163C687.021 303.163 701.773 301.769 703.165 292.843H702.608C701.216 301.769 685.072 302.605 678.392 302.605Z" stroke="white" stroke-width="0.5" stroke-miterlimit="10"/>
<path d="M703.165 284.197H702.608V293.122H703.165V284.197Z" stroke="white" stroke-width="0.5" stroke-miterlimit="10"/>
<path d="M651.392 272.204H650.835V278.34H651.392V272.204Z" stroke="white" stroke-width="0.5" stroke-miterlimit="10"/>
<path d="M662.526 269.694C660.299 269.694 658.629 270.809 658.629 271.925C658.629 273.041 660.299 274.156 662.526 274.156C664.753 274.156 666.423 273.041 666.423 271.925C666.423 270.531 664.753 269.694 662.526 269.694ZM662.526 273.599C660.577 273.599 659.186 272.762 659.186 271.925C659.186 271.088 660.856 270.252 662.526 270.252C664.474 270.252 665.866 271.088 665.866 271.925C665.866 272.762 664.196 273.599 662.526 273.599Z" stroke="white" stroke-width="0.5" stroke-miterlimit="10"/>
<path d="M291.732 264.116C285.33 263 268.351 264.395 262.505 269.136C261.392 269.973 260.835 271.088 260.835 272.204C260.557 273.878 263.34 275.272 266.68 276.946C270.299 278.619 274.474 280.571 275.588 283.639C276.979 286.707 281.433 297.306 288.113 297.306C294.237 297.306 311.216 294.238 312.887 284.755C313.443 281.966 312.608 279.177 310.381 276.388C306.485 269.973 297.299 264.952 291.732 264.116ZM312.608 284.476C311.216 293.68 294.237 296.469 288.392 296.469C282.268 296.469 277.536 286.429 276.423 283.082C275.309 280.014 270.856 278.061 267.237 276.109C264.175 274.714 261.392 273.32 261.392 271.925C261.392 271.088 261.948 269.973 263.062 269.136C267.237 266.068 279.485 264.395 287 264.395C288.67 264.395 290.34 264.395 291.454 264.673C297.021 265.51 305.928 270.531 310.103 276.667C312.33 279.177 313.165 281.966 312.608 284.476Z" stroke="white" stroke-width="0.5" stroke-miterlimit="10"/>
<path d="M288.392 302.605C283.103 302.605 275.309 293.959 273.082 288.102C271.691 285.313 268.351 283.36 265.567 281.966C263.062 280.85 261.113 279.735 261.392 278.34H260.835C260.557 280.014 262.784 281.129 265.289 282.524C268.072 283.918 271.412 285.592 272.526 288.381C274.753 294.238 282.825 303.163 288.392 303.163C297.021 303.163 311.773 301.769 313.165 292.843H312.608C311.216 301.769 295.072 302.605 288.392 302.605Z" stroke="white" stroke-width="0.5" stroke-miterlimit="10"/>
<path d="M313.165 284.197H312.608V293.122H313.165V284.197Z" stroke="white" stroke-width="0.5" stroke-miterlimit="10"/>
<path d="M261.392 272.204H260.835V278.34H261.392V272.204Z" stroke="white" stroke-width="0.5" stroke-miterlimit="10"/>
<path d="M272.526 269.694C270.299 269.694 268.629 270.809 268.629 271.925C268.629 273.041 270.299 274.156 272.526 274.156C274.753 274.156 276.423 273.041 276.423 271.925C276.423 270.531 274.753 269.694 272.526 269.694ZM272.526 273.599C270.577 273.599 269.186 272.762 269.186 271.925C269.186 271.088 270.856 270.252 272.526 270.252C274.474 270.252 275.866 271.088 275.866 271.925C275.866 272.762 274.196 273.599 272.526 273.599Z" stroke="white" stroke-width="0.5" stroke-miterlimit="10"/>
<path d="M1384.73 163.116C1378.33 162 1361.35 163.395 1355.51 168.136C1354.39 168.973 1353.84 170.088 1353.84 171.204C1353.56 172.878 1356.34 174.272 1359.68 175.946C1363.3 177.619 1367.47 179.571 1368.59 182.639C1369.98 185.707 1374.43 196.306 1381.11 196.306C1387.24 196.306 1404.22 193.238 1405.89 183.755C1406.44 180.966 1405.61 178.177 1403.38 175.388C1399.48 168.973 1390.3 163.952 1384.73 163.116ZM1405.61 183.476C1404.22 192.68 1387.24 195.469 1381.39 195.469C1375.27 195.469 1370.54 185.429 1369.42 182.082C1368.31 179.014 1363.86 177.061 1360.24 175.109C1357.18 173.714 1354.39 172.32 1354.39 170.925C1354.39 170.088 1354.95 168.973 1356.06 168.136C1360.24 165.068 1372.48 163.395 1380 163.395C1381.67 163.395 1383.34 163.395 1384.45 163.673C1390.02 164.51 1398.93 169.531 1403.1 175.667C1405.33 178.177 1406.16 180.966 1405.61 183.476Z" stroke="white" stroke-width="0.5" stroke-miterlimit="10"/>
<path d="M1381.39 201.605C1376.1 201.605 1368.31 192.959 1366.08 187.102C1364.69 184.313 1361.35 182.36 1358.57 180.966C1356.06 179.85 1354.11 178.735 1354.39 177.34H1353.84C1353.56 179.014 1355.78 180.129 1358.29 181.524C1361.07 182.918 1364.41 184.592 1365.53 187.381C1367.75 193.238 1375.82 202.163 1381.39 202.163C1390.02 202.163 1404.77 200.769 1406.16 191.843H1405.61C1404.22 200.769 1388.07 201.605 1381.39 201.605Z" stroke="white" stroke-width="0.5" stroke-miterlimit="10"/>
<path d="M1406.16 183.197H1405.61V192.122H1406.16V183.197Z" stroke="white" stroke-width="0.5" stroke-miterlimit="10"/>
<path d="M1354.39 171.204H1353.84V177.34H1354.39V171.204Z" stroke="white" stroke-width="0.5" stroke-miterlimit="10"/>
<path d="M1365.53 168.694C1363.3 168.694 1361.63 169.809 1361.63 170.925C1361.63 172.041 1363.3 173.156 1365.53 173.156C1367.75 173.156 1369.42 172.041 1369.42 170.925C1369.42 169.531 1367.75 168.694 1365.53 168.694ZM1365.53 172.599C1363.58 172.599 1362.19 171.762 1362.19 170.925C1362.19 170.088 1363.86 169.252 1365.53 169.252C1367.47 169.252 1368.87 170.088 1368.87 170.925C1368.87 171.762 1367.2 172.599 1365.53 172.599Z" stroke="white" stroke-width="0.5" stroke-miterlimit="10"/>
<path d="M994.732 163.116C988.33 162 971.351 163.395 965.505 168.136C964.392 168.973 963.835 170.088 963.835 171.204C963.557 172.878 966.34 174.272 969.68 175.946C973.299 177.619 977.474 179.571 978.588 182.639C979.979 185.707 984.433 196.306 991.113 196.306C997.237 196.306 1014.22 193.238 1015.89 183.755C1016.44 180.966 1015.61 178.177 1013.38 175.388C1009.48 168.973 1000.3 163.952 994.732 163.116ZM1015.61 183.476C1014.22 192.68 997.237 195.469 991.392 195.469C985.268 195.469 980.536 185.429 979.423 182.082C978.309 179.014 973.856 177.061 970.237 175.109C967.175 173.714 964.392 172.32 964.392 170.925C964.392 170.088 964.948 168.973 966.062 168.136C970.237 165.068 982.485 163.395 990 163.395C991.67 163.395 993.34 163.395 994.454 163.673C1000.02 164.51 1008.93 169.531 1013.1 175.667C1015.33 178.177 1016.16 180.966 1015.61 183.476Z" stroke="white" stroke-width="0.5" stroke-miterlimit="10"/>
<path d="M991.392 201.605C986.103 201.605 978.309 192.959 976.082 187.102C974.691 184.313 971.351 182.36 968.567 180.966C966.062 179.85 964.113 178.735 964.392 177.34H963.835C963.557 179.014 965.784 180.129 968.289 181.524C971.072 182.918 974.412 184.592 975.526 187.381C977.753 193.238 985.825 202.163 991.392 202.163C1000.02 202.163 1014.77 200.769 1016.16 191.843H1015.61C1014.22 200.769 998.072 201.605 991.392 201.605Z" stroke="white" stroke-width="0.5" stroke-miterlimit="10"/>
<path d="M1016.16 183.197H1015.61V192.122H1016.16V183.197Z" stroke="white" stroke-width="0.5" stroke-miterlimit="10"/>
<path d="M964.392 171.204H963.835V177.34H964.392V171.204Z" stroke="white" stroke-width="0.5" stroke-miterlimit="10"/>
<path d="M975.526 168.694C973.299 168.694 971.629 169.809 971.629 170.925C971.629 172.041 973.299 173.156 975.526 173.156C977.753 173.156 979.423 172.041 979.423 170.925C979.423 169.531 977.753 168.694 975.526 168.694ZM975.526 172.599C973.577 172.599 972.186 171.762 972.186 170.925C972.186 170.088 973.856 169.252 975.526 169.252C977.474 169.252 978.866 170.088 978.866 170.925C978.866 171.762 977.196 172.599 975.526 172.599Z" stroke="white" stroke-width="0.5" stroke-miterlimit="10"/>
<path d="M214.732 163.116C208.33 162 191.351 163.395 185.505 168.136C184.392 168.973 183.835 170.088 183.835 171.204C183.557 172.878 186.34 174.272 189.68 175.946C193.299 177.619 197.474 179.571 198.588 182.639C199.979 185.707 204.433 196.306 211.113 196.306C217.237 196.306 234.217 193.238 235.887 183.755C236.443 180.966 235.608 178.177 233.381 175.388C229.485 168.973 220.299 163.952 214.732 163.116ZM235.608 183.476C234.217 192.68 217.237 195.469 211.392 195.469C205.268 195.469 200.536 185.429 199.423 182.082C198.309 179.014 193.856 177.061 190.237 175.109C187.175 173.714 184.392 172.32 184.392 170.925C184.392 170.088 184.948 168.973 186.062 168.136C190.237 165.068 202.485 163.395 210 163.395C211.67 163.395 213.34 163.395 214.454 163.673C220.021 164.51 228.928 169.531 233.103 175.667C235.33 178.177 236.165 180.966 235.608 183.476Z" stroke="white" stroke-width="0.5" stroke-miterlimit="10"/>
<path d="M211.392 201.605C206.103 201.605 198.309 192.959 196.082 187.102C194.691 184.313 191.351 182.36 188.567 180.966C186.062 179.85 184.113 178.735 184.392 177.34H183.835C183.557 179.014 185.784 180.129 188.289 181.524C191.072 182.918 194.412 184.592 195.526 187.381C197.753 193.238 205.825 202.163 211.392 202.163C220.021 202.163 234.773 200.769 236.165 191.843H235.608C234.216 200.769 218.072 201.605 211.392 201.605Z" stroke="white" stroke-width="0.5" stroke-miterlimit="10"/>
<path d="M236.165 183.197H235.608V192.122H236.165V183.197Z" stroke="white" stroke-width="0.5" stroke-miterlimit="10"/>
<path d="M184.392 171.204H183.835V177.34H184.392V171.204Z" stroke="white" stroke-width="0.5" stroke-miterlimit="10"/>
<path d="M195.526 168.694C193.299 168.694 191.629 169.809 191.629 170.925C191.629 172.041 193.299 173.156 195.526 173.156C197.753 173.156 199.423 172.041 199.423 170.925C199.423 169.531 197.753 168.694 195.526 168.694ZM195.526 172.599C193.577 172.599 192.186 171.762 192.186 170.925C192.186 170.088 193.856 169.252 195.526 169.252C197.474 169.252 198.866 170.088 198.866 170.925C198.866 171.762 197.196 172.599 195.526 172.599Z" stroke="white" stroke-width="0.5" stroke-miterlimit="10"/>
<path d="M604.732 163.116C598.33 162 581.351 163.395 575.505 168.136C574.392 168.973 573.835 170.088 573.835 171.204C573.557 172.878 576.34 174.272 579.68 175.946C583.299 177.619 587.474 179.571 588.588 182.639C589.979 185.707 594.433 196.306 601.113 196.306C607.237 196.306 624.216 193.238 625.887 183.755C626.443 180.966 625.608 178.177 623.381 175.388C619.485 168.973 610.299 163.952 604.732 163.116ZM625.608 183.476C624.216 192.68 607.237 195.469 601.392 195.469C595.268 195.469 590.536 185.429 589.423 182.082C588.309 179.014 583.856 177.061 580.237 175.109C577.175 173.714 574.392 172.32 574.392 170.925C574.392 170.088 574.948 168.973 576.062 168.136C580.237 165.068 592.485 163.395 600 163.395C601.67 163.395 603.34 163.395 604.454 163.673C610.021 164.51 618.928 169.531 623.103 175.667C625.33 178.177 626.165 180.966 625.608 183.476Z" stroke="white" stroke-width="0.5" stroke-miterlimit="10"/>
<path d="M601.392 201.605C596.103 201.605 588.309 192.959 586.082 187.102C584.691 184.313 581.351 182.36 578.567 180.966C576.062 179.85 574.113 178.735 574.392 177.34H573.835C573.557 179.014 575.784 180.129 578.289 181.524C581.072 182.918 584.412 184.592 585.526 187.381C587.753 193.238 595.825 202.163 601.392 202.163C610.021 202.163 624.773 200.769 626.165 191.843H625.608C624.216 200.769 608.072 201.605 601.392 201.605Z" stroke="white" stroke-width="0.5" stroke-miterlimit="10"/>
<path d="M626.165 183.197H625.608V192.122H626.165V183.197Z" stroke="white" stroke-width="0.5" stroke-miterlimit="10"/>
<path d="M574.392 171.204H573.835V177.34H574.392V171.204Z" stroke="white" stroke-width="0.5" stroke-miterlimit="10"/>
<path d="M585.526 168.694C583.299 168.694 581.629 169.809 581.629 170.925C581.629 172.041 583.299 173.156 585.526 173.156C587.753 173.156 589.423 172.041 589.423 170.925C589.423 169.531 587.753 168.694 585.526 168.694ZM585.526 172.599C583.577 172.599 582.186 171.762 582.186 170.925C582.186 170.088 583.856 169.252 585.526 169.252C587.474 169.252 588.866 170.088 588.866 170.925C588.866 171.762 587.196 172.599 585.526 172.599Z" stroke="white" stroke-width="0.5" stroke-miterlimit="10"/>
<path d="M1254.73 163.116C1248.33 162 1231.35 163.395 1225.51 168.136C1224.39 168.973 1223.84 170.088 1223.84 171.204C1223.56 172.878 1226.34 174.272 1229.68 175.946C1233.3 177.619 1237.47 179.571 1238.59 182.639C1239.98 185.707 1244.43 196.306 1251.11 196.306C1257.24 196.306 1274.22 193.238 1275.89 183.755C1276.44 180.966 1275.61 178.177 1273.38 175.388C1269.48 168.973 1260.3 163.952 1254.73 163.116ZM1275.61 183.476C1274.22 192.68 1257.24 195.469 1251.39 195.469C1245.27 195.469 1240.54 185.429 1239.42 182.082C1238.31 179.014 1233.86 177.061 1230.24 175.109C1227.18 173.714 1224.39 172.32 1224.39 170.925C1224.39 170.088 1224.95 168.973 1226.06 168.136C1230.24 165.068 1242.48 163.395 1250 163.395C1251.67 163.395 1253.34 163.395 1254.45 163.673C1260.02 164.51 1268.93 169.531 1273.1 175.667C1275.33 178.177 1276.16 180.966 1275.61 183.476Z" stroke="white" stroke-width="0.5" stroke-miterlimit="10"/>
<path d="M1251.39 201.605C1246.1 201.605 1238.31 192.959 1236.08 187.102C1234.69 184.313 1231.35 182.36 1228.57 180.966C1226.06 179.85 1224.11 178.735 1224.39 177.34H1223.84C1223.56 179.014 1225.78 180.129 1228.29 181.524C1231.07 182.918 1234.41 184.592 1235.53 187.381C1237.75 193.238 1245.82 202.163 1251.39 202.163C1260.02 202.163 1274.77 200.769 1276.16 191.843H1275.61C1274.22 200.769 1258.07 201.605 1251.39 201.605Z" stroke="white" stroke-width="0.5" stroke-miterlimit="10"/>
<path d="M1276.16 183.197H1275.61V192.122H1276.16V183.197Z" stroke="white" stroke-width="0.5" stroke-miterlimit="10"/>
<path d="M1224.39 171.204H1223.84V177.34H1224.39V171.204Z" stroke="white" stroke-width="0.5" stroke-miterlimit="10"/>
<path d="M1235.53 168.694C1233.3 168.694 1231.63 169.809 1231.63 170.925C1231.63 172.041 1233.3 173.156 1235.53 173.156C1237.75 173.156 1239.42 172.041 1239.42 170.925C1239.42 169.531 1237.75 168.694 1235.53 168.694ZM1235.53 172.599C1233.58 172.599 1232.19 171.762 1232.19 170.925C1232.19 170.088 1233.86 169.252 1235.53 169.252C1237.47 169.252 1238.87 170.088 1238.87 170.925C1238.87 171.762 1237.2 172.599 1235.53 172.599Z" stroke="white" stroke-width="0.5" stroke-miterlimit="10"/>
<path d="M864.732 163.116C858.33 162 841.351 163.395 835.505 168.136C834.392 168.973 833.835 170.088 833.835 171.204C833.557 172.878 836.34 174.272 839.68 175.946C843.299 177.619 847.474 179.571 848.588 182.639C849.979 185.707 854.433 196.306 861.113 196.306C867.237 196.306 884.216 193.238 885.887 183.755C886.443 180.966 885.608 178.177 883.381 175.388C879.485 168.973 870.299 163.952 864.732 163.116ZM885.608 183.476C884.216 192.68 867.237 195.469 861.392 195.469C855.268 195.469 850.536 185.429 849.423 182.082C848.309 179.014 843.856 177.061 840.237 175.109C837.175 173.714 834.392 172.32 834.392 170.925C834.392 170.088 834.948 168.973 836.062 168.136C840.237 165.068 852.485 163.395 860 163.395C861.67 163.395 863.34 163.395 864.454 163.673C870.021 164.51 878.928 169.531 883.103 175.667C885.33 178.177 886.165 180.966 885.608 183.476Z" stroke="white" stroke-width="0.5" stroke-miterlimit="10"/>
<path d="M861.392 201.605C856.103 201.605 848.309 192.959 846.082 187.102C844.691 184.313 841.351 182.36 838.567 180.966C836.062 179.85 834.113 178.735 834.392 177.34H833.835C833.557 179.014 835.784 180.129 838.289 181.524C841.072 182.918 844.412 184.592 845.526 187.381C847.753 193.238 855.825 202.163 861.392 202.163C870.021 202.163 884.773 200.769 886.165 191.843H885.608C884.216 200.769 868.072 201.605 861.392 201.605Z" stroke="white" stroke-width="0.5" stroke-miterlimit="10"/>
<path d="M886.165 183.197H885.608V192.122H886.165V183.197Z" stroke="white" stroke-width="0.5" stroke-miterlimit="10"/>
<path d="M834.392 171.204H833.835V177.34H834.392V171.204Z" stroke="white" stroke-width="0.5" stroke-miterlimit="10"/>
<path d="M845.526 168.694C843.299 168.694 841.629 169.809 841.629 170.925C841.629 172.041 843.299 173.156 845.526 173.156C847.753 173.156 849.423 172.041 849.423 170.925C849.423 169.531 847.753 168.694 845.526 168.694ZM845.526 172.599C843.577 172.599 842.186 171.762 842.186 170.925C842.186 170.088 843.856 169.252 845.526 169.252C847.474 169.252 848.866 170.088 848.866 170.925C848.866 171.762 847.196 172.599 845.526 172.599Z" stroke="white" stroke-width="0.5" stroke-miterlimit="10"/>
<path d="M84.732 163.116C78.3299 162 61.3505 163.395 55.5052 168.136C54.3918 168.973 53.8351 170.088 53.8351 171.204C53.5567 172.878 56.3402 174.272 59.6804 175.946C63.299 177.619 67.4743 179.571 68.5877 182.639C69.9794 185.707 74.433 196.306 81.1134 196.306C87.2371 196.306 104.217 193.238 105.887 183.755C106.443 180.966 105.608 178.177 103.381 175.388C99.4846 168.973 90.299 163.952 84.732 163.116ZM105.608 183.476C104.217 192.68 87.2371 195.469 81.3918 195.469C75.2681 195.469 70.5361 185.429 69.4227 182.082C68.3093 179.014 63.8557 177.061 60.2371 175.109C57.1753 173.714 54.3918 172.32 54.3918 170.925C54.3918 170.088 54.9485 168.973 56.0619 168.136C60.2371 165.068 72.4846 163.395 80 163.395C81.6701 163.395 83.3402 163.395 84.4536 163.673C90.0206 164.51 98.9279 169.531 103.103 175.667C105.33 178.177 106.165 180.966 105.608 183.476Z" stroke="white" stroke-width="0.5" stroke-miterlimit="10"/>
<path d="M81.3918 201.605C76.1031 201.605 68.3093 192.959 66.0825 187.102C64.6907 184.313 61.3505 182.36 58.567 180.966C56.0619 179.85 54.1134 178.735 54.3918 177.34H53.8351C53.5567 179.014 55.7835 180.129 58.2887 181.524C61.0722 182.918 64.4124 184.592 65.5258 187.381C67.7526 193.238 75.8247 202.163 81.3918 202.163C90.0206 202.163 104.773 200.769 106.165 191.843H105.608C104.216 200.769 88.0722 201.605 81.3918 201.605Z" stroke="white" stroke-width="0.5" stroke-miterlimit="10"/>
<path d="M106.165 183.197H105.608V192.122H106.165V183.197Z" stroke="white" stroke-width="0.5" stroke-miterlimit="10"/>
<path d="M54.3917 171.204H53.835V177.34H54.3917V171.204Z" stroke="white" stroke-width="0.5" stroke-miterlimit="10"/>
<path d="M65.5258 168.694C63.2989 168.694 61.6288 169.809 61.6288 170.925C61.6288 172.041 63.2989 173.156 65.5258 173.156C67.7526 173.156 69.4227 172.041 69.4227 170.925C69.4227 169.531 67.7526 168.694 65.5258 168.694ZM65.5258 172.599C63.5773 172.599 62.1855 171.762 62.1855 170.925C62.1855 170.088 63.8556 169.252 65.5258 169.252C67.4742 169.252 68.866 170.088 68.866 170.925C68.866 171.762 67.1959 172.599 65.5258 172.599Z" stroke="white" stroke-width="0.5" stroke-miterlimit="10"/>
<path d="M474.732 163.116C468.33 162 451.351 163.395 445.505 168.136C444.392 168.973 443.835 170.088 443.835 171.204C443.557 172.878 446.34 174.272 449.68 175.946C453.299 177.619 457.474 179.571 458.588 182.639C459.979 185.707 464.433 196.306 471.113 196.306C477.237 196.306 494.216 193.238 495.887 183.755C496.443 180.966 495.608 178.177 493.381 175.388C489.485 168.973 480.299 163.952 474.732 163.116ZM495.608 183.476C494.216 192.68 477.237 195.469 471.392 195.469C465.268 195.469 460.536 185.429 459.423 182.082C458.309 179.014 453.856 177.061 450.237 175.109C447.175 173.714 444.392 172.32 444.392 170.925C444.392 170.088 444.948 168.973 446.062 168.136C450.237 165.068 462.485 163.395 470 163.395C471.67 163.395 473.34 163.395 474.454 163.673C480.021 164.51 488.928 169.531 493.103 175.667C495.33 178.177 496.165 180.966 495.608 183.476Z" stroke="white" stroke-width="0.5" stroke-miterlimit="10"/>
<path d="M471.392 201.605C466.103 201.605 458.309 192.959 456.082 187.102C454.691 184.313 451.351 182.36 448.567 180.966C446.062 179.85 444.113 178.735 444.392 177.34H443.835C443.557 179.014 445.784 180.129 448.289 181.524C451.072 182.918 454.412 184.592 455.526 187.381C457.753 193.238 465.825 202.163 471.392 202.163C480.021 202.163 494.773 200.769 496.165 191.843H495.608C494.216 200.769 478.072 201.605 471.392 201.605Z" stroke="white" stroke-width="0.5" stroke-miterlimit="10"/>
<path d="M496.165 183.197H495.608V192.122H496.165V183.197Z" stroke="white" stroke-width="0.5" stroke-miterlimit="10"/>
<path d="M444.392 171.204H443.835V177.34H444.392V171.204Z" stroke="white" stroke-width="0.5" stroke-miterlimit="10"/>
<path d="M455.526 168.694C453.299 168.694 451.629 169.809 451.629 170.925C451.629 172.041 453.299 173.156 455.526 173.156C457.753 173.156 459.423 172.041 459.423 170.925C459.423 169.531 457.753 168.694 455.526 168.694ZM455.526 172.599C453.577 172.599 452.186 171.762 452.186 170.925C452.186 170.088 453.856 169.252 455.526 169.252C457.474 169.252 458.866 170.088 458.866 170.925C458.866 171.762 457.196 172.599 455.526 172.599Z" stroke="white" stroke-width="0.5" stroke-miterlimit="10"/>
<path d="M1124.73 163.116C1118.33 162 1101.35 163.395 1095.51 168.136C1094.39 168.973 1093.84 170.088 1093.84 171.204C1093.56 172.878 1096.34 174.272 1099.68 175.946C1103.3 177.619 1107.47 179.571 1108.59 182.639C1109.98 185.707 1114.43 196.306 1121.11 196.306C1127.24 196.306 1144.22 193.238 1145.89 183.755C1146.44 180.966 1145.61 178.177 1143.38 175.388C1139.48 168.973 1130.3 163.952 1124.73 163.116ZM1145.61 183.476C1144.22 192.68 1127.24 195.469 1121.39 195.469C1115.27 195.469 1110.54 185.429 1109.42 182.082C1108.31 179.014 1103.86 177.061 1100.24 175.109C1097.18 173.714 1094.39 172.32 1094.39 170.925C1094.39 170.088 1094.95 168.973 1096.06 168.136C1100.24 165.068 1112.48 163.395 1120 163.395C1121.67 163.395 1123.34 163.395 1124.45 163.673C1130.02 164.51 1138.93 169.531 1143.1 175.667C1145.33 178.177 1146.16 180.966 1145.61 183.476Z" stroke="white" stroke-width="0.5" stroke-miterlimit="10"/>
<path d="M1121.39 201.605C1116.1 201.605 1108.31 192.959 1106.08 187.102C1104.69 184.313 1101.35 182.36 1098.57 180.966C1096.06 179.85 1094.11 178.735 1094.39 177.34H1093.84C1093.56 179.014 1095.78 180.129 1098.29 181.524C1101.07 182.918 1104.41 184.592 1105.53 187.381C1107.75 193.238 1115.82 202.163 1121.39 202.163C1130.02 202.163 1144.77 200.769 1146.16 191.843H1145.61C1144.22 200.769 1128.07 201.605 1121.39 201.605Z" stroke="white" stroke-width="0.5" stroke-miterlimit="10"/>
<path d="M1146.16 183.197H1145.61V192.122H1146.16V183.197Z" stroke="white" stroke-width="0.5" stroke-miterlimit="10"/>
<path d="M1094.39 171.204H1093.84V177.34H1094.39V171.204Z" stroke="white" stroke-width="0.5" stroke-miterlimit="10"/>
<path d="M1105.53 168.694C1103.3 168.694 1101.63 169.809 1101.63 170.925C1101.63 172.041 1103.3 173.156 1105.53 173.156C1107.75 173.156 1109.42 172.041 1109.42 170.925C1109.42 169.531 1107.75 168.694 1105.53 168.694ZM1105.53 172.599C1103.58 172.599 1102.19 171.762 1102.19 170.925C1102.19 170.088 1103.86 169.252 1105.53 169.252C1107.47 169.252 1108.87 170.088 1108.87 170.925C1108.87 171.762 1107.2 172.599 1105.53 172.599Z" stroke="white" stroke-width="0.5" stroke-miterlimit="10"/>
<path d="M734.732 163.116C728.33 162 711.351 163.395 705.505 168.136C704.392 168.973 703.835 170.088 703.835 171.204C703.557 172.878 706.34 174.272 709.68 175.946C713.299 177.619 717.474 179.571 718.588 182.639C719.979 185.707 724.433 196.306 731.113 196.306C737.237 196.306 754.216 193.238 755.887 183.755C756.443 180.966 755.608 178.177 753.381 175.388C749.485 168.973 740.299 163.952 734.732 163.116ZM755.608 183.476C754.216 192.68 737.237 195.469 731.392 195.469C725.268 195.469 720.536 185.429 719.423 182.082C718.309 179.014 713.856 177.061 710.237 175.109C707.175 173.714 704.392 172.32 704.392 170.925C704.392 170.088 704.948 168.973 706.062 168.136C710.237 165.068 722.485 163.395 730 163.395C731.67 163.395 733.34 163.395 734.454 163.673C740.021 164.51 748.928 169.531 753.103 175.667C755.33 178.177 756.165 180.966 755.608 183.476Z" stroke="white" stroke-width="0.5" stroke-miterlimit="10"/>
<path d="M731.392 201.605C726.103 201.605 718.309 192.959 716.082 187.102C714.691 184.313 711.351 182.36 708.567 180.966C706.062 179.85 704.113 178.735 704.392 177.34H703.835C703.557 179.014 705.784 180.129 708.289 181.524C711.072 182.918 714.412 184.592 715.526 187.381C717.753 193.238 725.825 202.163 731.392 202.163C740.021 202.163 754.773 200.769 756.165 191.843H755.608C754.216 200.769 738.072 201.605 731.392 201.605Z" stroke="white" stroke-width="0.5" stroke-miterlimit="10"/>
<path d="M756.165 183.197H755.608V192.122H756.165V183.197Z" stroke="white" stroke-width="0.5" stroke-miterlimit="10"/>
<path d="M704.392 171.204H703.835V177.34H704.392V171.204Z" stroke="white" stroke-width="0.5" stroke-miterlimit="10"/>
<path d="M715.526 168.694C713.299 168.694 711.629 169.809 711.629 170.925C711.629 172.041 713.299 173.156 715.526 173.156C717.753 173.156 719.423 172.041 719.423 170.925C719.423 169.531 717.753 168.694 715.526 168.694ZM715.526 172.599C713.577 172.599 712.186 171.762 712.186 170.925C712.186 170.088 713.856 169.252 715.526 169.252C717.474 169.252 718.866 170.088 718.866 170.925C718.866 171.762 717.196 172.599 715.526 172.599Z" stroke="white" stroke-width="0.5" stroke-miterlimit="10"/>
<path d="M344.732 163.116C338.33 162 321.351 163.395 315.505 168.136C314.392 168.973 313.835 170.088 313.835 171.204C313.557 172.878 316.34 174.272 319.68 175.946C323.299 177.619 327.474 179.571 328.588 182.639C329.979 185.707 334.433 196.306 341.113 196.306C347.237 196.306 364.216 193.238 365.887 183.755C366.443 180.966 365.608 178.177 363.381 175.388C359.485 168.973 350.299 163.952 344.732 163.116ZM365.608 183.476C364.216 192.68 347.237 195.469 341.392 195.469C335.268 195.469 330.536 185.429 329.423 182.082C328.309 179.014 323.856 177.061 320.237 175.109C317.175 173.714 314.392 172.32 314.392 170.925C314.392 170.088 314.948 168.973 316.062 168.136C320.237 165.068 332.485 163.395 340 163.395C341.67 163.395 343.34 163.395 344.454 163.673C350.021 164.51 358.928 169.531 363.103 175.667C365.33 178.177 366.165 180.966 365.608 183.476Z" stroke="white" stroke-width="0.5" stroke-miterlimit="10"/>
<path d="M341.392 201.605C336.103 201.605 328.309 192.959 326.082 187.102C324.691 184.313 321.351 182.36 318.567 180.966C316.062 179.85 314.113 178.735 314.392 177.34H313.835C313.557 179.014 315.784 180.129 318.289 181.524C321.072 182.918 324.412 184.592 325.526 187.381C327.753 193.238 335.825 202.163 341.392 202.163C350.021 202.163 364.773 200.769 366.165 191.843H365.608C364.216 200.769 348.072 201.605 341.392 201.605Z" stroke="white" stroke-width="0.5" stroke-miterlimit="10"/>
<path d="M366.165 183.197H365.608V192.122H366.165V183.197Z" stroke="white" stroke-width="0.5" stroke-miterlimit="10"/>
<path d="M314.392 171.204H313.835V177.34H314.392V171.204Z" stroke="white" stroke-width="0.5" stroke-miterlimit="10"/>
<path d="M325.526 168.694C323.299 168.694 321.629 169.809 321.629 170.925C321.629 172.041 323.299 173.156 325.526 173.156C327.753 173.156 329.423 172.041 329.423 170.925C329.423 169.531 327.753 168.694 325.526 168.694ZM325.526 172.599C323.577 172.599 322.186 171.762 322.186 170.925C322.186 170.088 323.856 169.252 325.526 169.252C327.474 169.252 328.866 170.088 328.866 170.925C328.866 171.762 327.196 172.599 325.526 172.599Z" stroke="white" stroke-width="0.5" stroke-miterlimit="10"/>
</g>
</svg>
