<svg width="129" height="129" viewBox="0 0 129 129" fill="none" xmlns="http://www.w3.org/2000/svg">
<circle opacity="0.1" cx="64.5" cy="64.5" r="64.5" fill="#4A4A4A"/>
<g opacity="0.6" clip-path="url(#clip0_2646_6912)">
<path fill-rule="evenodd" clip-rule="evenodd" d="M72.2115 105.705C70.3576 113.087 76.6294 116.442 81.7967 109.85C89.3307 100.416 97.2986 90.5867 103.57 79.9288C91.8946 71.5209 92.7624 70.0603 106.134 75.3498C106.844 74.2445 107.515 72.9024 107.988 71.8761C92.0918 61.8893 99.468 63.7051 110.118 66.9024C111.065 64.8893 111.775 62.9551 112.406 60.7445C113.826 56.8761 111.42 53.2445 107.673 50.6788L110.394 44.9551C111.183 43.2577 112.327 41.7577 114.694 42.863L123.806 47.1656C123.806 47.1656 128.776 46.2182 127.356 42.2314C126.291 39.2314 124.358 41.6393 123.845 37.8893C123.608 34.8893 129.565 35.8367 128.066 31.613C125.857 25.4156 121.833 32.1656 120.413 29.0077C119.269 26.5998 121.281 25.8893 120.216 22.9288C119.585 21.1919 117.81 20.1261 116.074 20.7577C111.854 22.2577 115.601 26.5209 111.262 26.1261C108.935 25.8498 109.211 19.5735 105.227 20.9946C100.257 22.7709 104.675 26.5209 102.939 27.9814C100.967 29.5209 100.73 26.5209 96.273 28.1393C94.0246 28.9288 93.8668 33.1919 95.918 34.1393L105.188 38.1261C106.529 38.7577 107.475 40.6524 106.608 42.9419L104.004 48.9419C98.7975 46.8893 92.7229 47.0867 90.3957 51.5867C84.8339 61.1393 81.0866 71.7182 77.9705 82.6524C89.5673 90.8235 89.2912 92.3235 76.6688 88.4551C75.0515 94.0603 73.5921 100.179 72.2115 105.705Z" fill="#4A4A4A"/>
<path d="M65.3086 31.1392C68.816 31.1392 71.6593 28.2939 71.6593 24.784C71.6593 21.2741 68.816 18.4287 65.3086 18.4287C61.8012 18.4287 58.958 21.2741 58.958 24.784C58.958 28.2939 61.8012 31.1392 65.3086 31.1392Z" fill="#4A4A4A"/>
<path d="M66.9259 23.1656C67.819 23.1656 68.5431 22.441 68.5431 21.5471C68.5431 20.6533 67.819 19.9287 66.9259 19.9287C66.0327 19.9287 65.3086 20.6533 65.3086 21.5471C65.3086 22.441 66.0327 23.1656 66.9259 23.1656Z" fill="#F7EBA8"/>
<path d="M57.6168 48.3497C61.1242 48.3497 63.9675 45.5043 63.9675 41.9944C63.9675 38.4845 61.1242 35.6392 57.6168 35.6392C54.1095 35.6392 51.2662 38.4845 51.2662 41.9944C51.2662 45.5043 54.1095 48.3497 57.6168 48.3497Z" fill="#4A4A4A"/>
<path d="M58.958 40.4549C59.8511 40.4549 60.5752 39.7303 60.5752 38.8364C60.5752 37.9426 59.8511 37.218 58.958 37.218C58.0648 37.218 57.3407 37.9426 57.3407 38.8364C57.3407 39.7303 58.0648 40.4549 58.958 40.4549Z" fill="#F7EBA8"/>
<path d="M71.6198 54.7445C75.1272 54.7445 77.9705 51.8991 77.9705 48.3892C77.9705 44.8793 75.1272 42.0339 71.6198 42.0339C68.1125 42.0339 65.2692 44.8793 65.2692 48.3892C65.2692 51.8991 68.1125 54.7445 71.6198 54.7445Z" fill="#4A4A4A"/>
<path d="M73.5921 47.0471C74.4853 47.0471 75.2093 46.3226 75.2093 45.4287C75.2093 44.5349 74.4853 43.8103 73.5921 43.8103C72.6989 43.8103 71.9748 44.5349 71.9748 45.4287C71.9748 46.3226 72.6989 47.0471 73.5921 47.0471Z" fill="#F7EBA8"/>
<path d="M63.928 67.4156C67.4354 67.4156 70.2787 64.5703 70.2787 61.0603C70.2787 57.5504 67.4354 54.7051 63.928 54.7051C60.4207 54.7051 57.5774 57.5504 57.5774 61.0603C57.5774 64.5703 60.4207 67.4156 63.928 67.4156Z" fill="#4A4A4A"/>
<path d="M65.5453 59.5208C66.4385 59.5208 67.1625 58.7962 67.1625 57.9024C67.1625 57.0085 66.4385 56.2839 65.5453 56.2839C64.6521 56.2839 63.928 57.0085 63.928 57.9024C63.928 58.7962 64.6521 59.5208 65.5453 59.5208Z" fill="#F7EBA8"/>
<path d="M8.46829 45.3893C16.949 39.3104 28.5853 41.2446 34.6598 49.7314C37.8154 54.1525 40.7343 65.1261 42.0755 70.9682C42.5094 73.0998 43.3377 75.0735 44.1661 77.0867C46.0594 81.6656 44.6 87.034 40.4188 90.034C36.2376 93.034 30.6759 92.5603 26.968 89.4025C25.3508 87.9814 23.6546 86.5603 21.8796 85.4551C16.7517 82.2972 7.44271 76.1393 4.16877 71.5998C-1.86632 63.2314 0.105932 51.4682 8.46829 45.3893ZM38.0521 93.784L45.6255 104.363C45.1522 104.521 44.6394 104.758 44.1266 105.034C41.6416 106.81 41.0499 110.402 42.8249 112.889C44.6 115.376 48.1895 115.968 50.6745 114.192C52.6468 112.81 53.3568 110.363 52.844 108.113L53.5934 107.758C55.4474 108.981 58.0902 109.06 60.0624 107.679C62.5475 105.902 63.1391 102.31 61.3641 99.8235C59.5891 97.3367 55.9996 96.7446 53.5145 98.5209C53.1201 98.7972 52.7256 99.1919 52.4101 99.7051L44.8366 89.1261C44.0872 90.2709 43.1405 91.1393 41.9571 91.9682C40.616 92.7182 39.3932 93.3103 38.0521 93.784Z" fill="#4A4A4A"/>
</g>
<defs>
<clipPath id="clip0_2646_6912">
<rect width="127.684" height="96.75" fill="white" transform="translate(0.658157 18.4287)"/>
</clipPath>
</defs>
</svg>
