<svg width="128" height="128" viewBox="0 0 128 128" fill="none" xmlns="http://www.w3.org/2000/svg">
<circle opacity="0.1" cx="64" cy="64" r="64" fill="#4A4A4A"/>
<g opacity="0.6">
<path d="M95.2091 71.7908C97.5236 68.9299 98.938 65.2577 98.938 61.2867C98.938 51.9782 91.3946 44.463 82.051 44.463C80.9794 44.463 79.9079 44.5912 78.8793 44.7619C79.9079 42.627 80.4651 40.2785 80.4651 37.7592C80.4651 28.7069 73.0931 21.4053 64.0495 21.4053C64.0495 21.4053 64.221 35.4961 45.7481 38.9121C35.5902 40.7909 28.5182 50.5264 30.3183 60.6889C31.2612 65.9409 34.1329 69.1007 37.5617 70.9795C28.261 72.0043 21.0176 79.861 21.0176 89.4257C21.0176 99.6736 29.3754 108 39.6619 108H89.2944C99.5809 108 107.939 99.6736 107.939 89.4257C107.939 81.1847 102.581 74.2247 95.2091 71.7908ZM79.3079 56.5043V53.2592C84.6226 53.2592 89.2515 57.8707 89.2515 63.1655H85.9941C85.9941 59.3652 82.4367 56.5043 79.3079 56.5043ZM95.3806 91.945C95.3806 86.4367 90.2802 82.2949 85.6941 82.2949V79.0497C92.5947 79.0497 98.638 85.0704 98.638 91.945H95.3806Z" fill="#4A4A4A"/>
<path d="M50.9342 8.04035L56.5061 10.7731L51.1914 14.0183L48.4483 19.5692L45.1909 14.2745L39.619 11.5417L44.9338 8.29655L47.6768 2.74561L50.9342 8.04035Z" fill="#4A4A4A"/>
<path d="M51.8343 7.61326L53.2058 8.29646L51.8771 9.06505L51.2342 10.4314L50.4199 9.15045L49.0483 8.46725L50.377 7.69866L51.0199 6.33228L51.8343 7.61326Z" fill="white"/>
<path d="M97.0093 26.7L102.581 29.4328L97.2665 32.678L94.5234 38.2289L91.266 32.9342L85.6941 30.2014L91.0088 26.9562L93.7519 21.4053L97.0093 26.7Z" fill="#4A4A4A"/>
<path d="M97.9094 26.2732L99.2809 26.9564L97.9522 27.725L97.3093 29.0913L96.495 27.8104L95.1234 27.1272L96.4521 26.3586L97.095 24.9922L97.9094 26.2732Z" fill="white"/>
<path d="M23.9321 41.2605L29.504 43.9933L24.1893 47.1958L21.4462 52.7894L18.1888 47.452L12.6169 44.7192L17.9316 41.5167L20.6747 35.9231L23.9321 41.2605Z" fill="#4A4A4A"/>
<path d="M24.8322 40.8337L26.1608 41.4742L24.875 42.2855L24.2321 43.6519L23.4178 42.3282L22.0462 41.6877L23.3749 40.8764L24.0178 39.51L24.8322 40.8337Z" fill="white"/>
</g>
</svg>
