<svg width="116" height="116" viewBox="0 0 116 116" fill="none" xmlns="http://www.w3.org/2000/svg">
<circle opacity="0.1" cx="58" cy="58" r="58" fill="#4A4A4A"/>
<g opacity="0.6">
<path d="M98 36.0662V26.7328L58 12.0662L18 26.7328V36.0662L58 21.3995L98 36.0662Z" fill="#4A4A4A"/>
<path d="M52.9181 53.4331L49.8336 55.5099H41.6669L38.5824 53.4331C38.5009 53.3783 38.3955 53.3729 38.3086 53.4194C38.2211 53.4652 38.1669 53.5557 38.1669 53.6545V63.7569L37.133 68.0539L36.5627 69.5735C41.0443 75.9901 46.7426 81.464 53.3338 85.6848V73.183L51.0005 68.4698L52.288 65.8687V65.8693C52.9214 64.461 53.2761 62.9437 53.3339 61.4009V53.655C53.3339 53.5562 53.2797 53.4658 53.1922 53.4199C53.1053 53.3735 52.9999 53.3789 52.9184 53.4336L52.9181 53.4331ZM44.2502 59.9527C44.2502 60.5967 43.7276 61.1193 43.0835 61.1193C42.4395 61.1193 41.9169 60.5967 41.9169 59.9527V59.6194C41.9169 58.9747 42.4395 58.4527 43.0835 58.4527C43.7276 58.4527 44.2502 58.9747 44.2502 59.6194V59.9527ZM50.0835 59.9527C50.0835 60.5967 49.5609 61.1193 48.9168 61.1193C48.2728 61.1193 47.7502 60.5967 47.7502 59.9527V59.6194C47.7502 58.9747 48.2728 58.4527 48.9168 58.4527C49.5609 58.4527 50.0835 58.9747 50.0835 59.6194V59.9527Z" fill="#4A4A4A"/>
<path d="M92.6666 36.9516L58 24.2402L23.3333 36.9516V94.7207H92.6666V36.9516ZM58.3261 90.6811C58.0969 90.7382 57.857 90.7341 57.6302 90.6692C52.972 89.3245 45.7095 84.1477 39.9693 78.0781C35.7485 73.6156 28.6669 64.7304 28.6669 55.3642C28.5717 51.8922 29.7068 48.4987 31.8722 45.7832C34.0377 43.0678 37.0931 41.2059 40.499 40.5255C46.2126 39.1808 53.7651 40.6517 57.9999 46.7201C62.2363 40.651 69.7886 39.1813 75.5024 40.5255C78.9084 41.2058 81.9637 43.0684 84.1285 45.7838C86.294 48.4993 87.4291 51.8928 87.3339 55.3642C87.3339 71.256 68.0013 88.2373 58.3266 90.6815L58.3261 90.6811Z" fill="#4A4A4A"/>
<path d="M80.7505 61.1114L79.7237 54.7007C79.638 54.2942 79.3446 53.9632 78.9517 53.8299L74.3338 52.2751H63.8338L59.2159 53.8293V53.8299C58.8231 53.9632 58.5296 54.2942 58.4439 54.7007L57.4171 61.1114L61.5005 63.4679V68.1805L59.1672 74.0715V87.6174C64.8881 85.4871 73.0327 79.0376 78.5684 71.2898L76.6671 68.1809V63.4684L80.7505 61.1114ZM67.0006 59.6632C67.0006 60.3078 66.4779 60.8298 65.8339 60.8298C65.1899 60.8298 64.6673 60.3078 64.6673 59.6632V59.3298C64.6673 58.6858 65.1899 58.1632 65.8339 58.1632C66.4779 58.1632 67.0006 58.6858 67.0006 59.3298V59.6632ZM70.6672 64.209C70.6672 64.8596 70.1398 65.387 69.4892 65.387H69.1785C68.866 65.387 68.5666 65.2632 68.3457 65.0423C68.1243 64.8209 68.0005 64.5215 68.0005 64.209C68.0005 63.5584 68.5279 63.031 69.1785 63.031H69.4892C70.1398 63.031 70.6672 63.5584 70.6672 64.209H70.6672ZM74.0005 59.6632C74.0005 60.3078 73.4779 60.8298 72.8338 60.8298C72.1898 60.8298 71.6672 60.3078 71.6672 59.6632V59.3298C71.6672 58.6858 72.1898 58.1632 72.8338 58.1632C73.4779 58.1632 74.0005 58.6858 74.0005 59.3298V59.6632Z" fill="#4A4A4A"/>
</g>
</svg>
