<svg width="196" height="196" viewBox="0 0 196 196" fill="none" xmlns="http://www.w3.org/2000/svg">
<circle opacity="0.1" cx="98" cy="98" r="98" fill="#FE6706"/>
<g opacity="0.6" clip-path="url(#clip0_2530_7501)">
<path d="M90.7322 159.136C91.6739 151.723 94.665 141.986 91.0646 129.539C87.4641 117.147 78.546 101.436 51.5703 94.5765C52.3458 92.6403 55.6139 88.4912 53.5644 81.2995L53.3982 80.691C54.6722 70.512 58.9374 68.5205 57.3864 67.6907C51.6811 64.7587 43.2615 72.5589 43.2615 72.5589C41.2674 72.061 39.1072 71.7844 36.8361 71.7844C35.4513 71.7844 34.1773 71.8397 32.9033 72.0057C30.8538 69.0737 25.7024 62.3246 23.3205 63.8182C21.6588 64.8693 20.8279 74.4951 20.9941 78.8101C16.8951 87.4955 20.0524 93.4148 21.6588 96.1255C21.1049 99.2788 20.4956 103.041 20.1632 107.687C19.6647 115.1 20.7171 122.458 29.9675 139.718C30.2999 140.271 30.5768 140.88 30.8538 141.433C30.8538 141.599 32.3494 151.833 32.7925 160.187C31.6847 160.463 23.7083 162.621 25.7024 167.157C26.7548 169.536 29.6352 169.757 32.4602 169.37C32.3494 169.868 32.2386 170.31 31.9616 170.476C28.472 172.634 27.6411 179.272 38.2763 177.668C39.4949 177.502 40.2704 176.728 41.212 175.511C53.2874 180.102 75.001 174.847 82.7558 171.804C92.2832 168.208 90.7322 159.08 90.7322 159.136ZM45.0895 167.323C45.311 166.493 45.4772 165.885 45.6988 165.055C47.0836 166.327 48.413 167.378 49.687 168.153C47.8037 168.098 46.3081 167.71 45.0895 167.323Z" fill="#FE6706"/>
<path fill-rule="evenodd" clip-rule="evenodd" d="M187.501 125.722C186.504 118.973 184.289 112.279 181.796 106.636C179.137 100.662 175.26 95.4062 172.38 89.5975C169.721 84.1761 164.846 79.9164 168.779 73.6652C170.053 71.6183 173.1 72.0056 175.149 71.9502C176.202 71.9502 177.863 71.8949 178.694 71.1204C180.356 69.4608 178.306 67.6906 176.811 66.9714C174.706 65.9203 171.77 65.9756 169.555 66.5288C164.182 67.9118 161.135 72.6694 160.581 77.9249C159.861 84.3974 163.683 89.155 166.12 94.7977C168.89 101.215 171.382 107.909 173.487 114.547C175.315 120.411 177.032 127.05 175.703 133.19C175.038 136.288 173.321 139.441 170.995 141.599C168.668 143.756 165.733 145.471 162.741 146.522C162.298 146.688 161.8 146.854 161.301 146.965C160.858 147.076 159.861 147.242 159.861 147.242C159.861 147.242 160.083 146.025 160.083 145.803C160.193 144.088 160.249 142.373 160.249 140.659C160.304 138.778 160.304 136.897 160.249 135.016C159.695 121.684 157.313 107.909 149.724 96.6233C141.083 83.8442 128.066 74.9929 113.775 69.5161C111.393 68.5757 108.236 67.1927 107.073 64.7586C105.356 61.218 109.288 58.3414 112.058 56.9583C113.387 56.2945 114.717 55.4647 115.714 54.3583C116.268 53.7497 116.656 53.0859 116.988 52.3667C117.376 51.5369 117.376 50.5965 117.708 49.7667C118.65 47.4985 117.819 45.8942 116.212 44.4559C114.218 42.6856 112.446 40.6941 111.449 38.094C111.283 37.7068 111.892 36.9323 112.058 36.6557C112.667 35.4939 113 34.0003 112.778 32.7279C112.446 30.9023 111.227 32.0087 110.285 32.7279C109.842 33.0598 108.79 34.1109 108.181 34.0556C107.128 34.0003 105.91 34.0003 104.691 33.8896C102.531 33.6684 100.315 33.3917 98.0993 33.1705C96.9915 33.0598 95.8283 33.0045 94.7204 32.9492C93.7234 32.8939 92.6709 32.7279 91.6739 32.7832C91.2861 32.23 90.7876 31.5108 90.3445 30.7364C89.0151 28.3576 87.7965 25.8681 86.4671 23.4894C85.9685 22.5489 85.4146 21.2765 84.196 21.1106C80.5401 20.6127 78.1583 25.9235 78.0475 28.8555C77.9921 31.2342 78.3799 33.5024 79.1554 35.7152C79.3769 36.3237 79.5431 36.9323 79.5431 37.0429C75.5549 44.5112 72.1206 52.4221 70.3481 60.7202C68.1878 70.7332 67.9108 83.5676 71.4005 93.304C73.7824 99.8872 77.4382 105.751 80.8725 111.836C81.5372 112.998 82.2573 114.16 82.8666 115.377C85.4146 120.19 84.8053 124.726 84.6391 129.982C84.5284 134.131 84.3068 138.224 83.919 142.318C83.5313 146.135 83.3651 150.395 82.3681 154.101C81.8142 156.093 80.5955 155.927 78.9338 156.923C76.9397 158.14 75.7765 160.851 77.1059 162.953C78.3245 164.889 80.5955 164.723 82.645 164.723C101.312 164.778 120.034 164.446 138.701 164.944C154.433 165.387 171.604 165.11 182.184 151.446C187.889 144.199 188.831 134.85 187.501 125.722ZM103.86 41.4686C103.638 41.6898 102.697 41.4132 102.42 41.4132C101.644 41.3026 100.924 41.1366 100.149 41.026C99.3733 40.9154 98.5978 41.026 97.8224 40.9154C97.1577 40.86 96.3822 40.6941 96.2714 39.9196C96.1052 38.5366 98.4317 38.4812 99.3179 38.4812C99.5395 38.4812 99.7611 38.4812 99.9272 38.5366C101.423 38.7579 102.531 39.7536 103.638 40.86C103.749 40.9707 104.026 41.3026 103.86 41.4686Z" fill="#FE6706"/>
</g>
<defs>
<clipPath id="clip0_2530_7501">
<rect width="169" height="157" fill="white" transform="translate(19 21)"/>
</clipPath>
</defs>
</svg>
