<svg width="196" height="196" viewBox="0 0 196 196" fill="none" xmlns="http://www.w3.org/2000/svg">
<circle opacity="0.1" cx="98" cy="98" r="98" fill="#FE6706"/>
<g opacity="0.6">
<path d="M165 70.4V55.4667L101 32L37 55.4667V70.4L101 46.9333L165 70.4Z" fill="#FE6706"/>
<path d="M92.8689 98.187L87.9337 101.51H74.867L69.9318 98.187C69.8014 98.0993 69.6328 98.0908 69.4937 98.165C69.3537 98.2384 69.2671 98.3831 69.2671 98.5412V114.705L67.6128 121.58L66.7004 124.012C73.8708 134.278 82.9881 143.036 93.5341 149.79V129.787L89.8008 122.246L91.8608 118.084V118.085C92.8742 115.832 93.4418 113.404 93.5342 110.935V98.5421C93.5342 98.384 93.4475 98.2393 93.3075 98.1659C93.1685 98.0916 92.9999 98.1002 92.8694 98.1878L92.8689 98.187ZM79.0003 108.618C79.0003 109.649 78.1641 110.485 77.1337 110.485C76.1032 110.485 75.267 109.649 75.267 108.618V108.085C75.267 107.054 76.1032 106.218 77.1337 106.218C78.1641 106.218 79.0003 107.054 79.0003 108.085V108.618ZM88.3336 108.618C88.3336 109.649 87.4974 110.485 86.4669 110.485C85.4365 110.485 84.6003 109.649 84.6003 108.618V108.085C84.6003 107.054 85.4365 106.218 86.4669 106.218C87.4974 106.218 88.3336 107.054 88.3336 108.085V108.618Z" fill="#FE6706"/>
<path d="M156.467 71.8166L101 51.4785L45.5333 71.8166V164.247H156.467V71.8166ZM101.522 157.784C101.155 157.875 100.771 157.869 100.408 157.765C92.9552 155.613 81.3352 147.331 72.1509 137.619C65.3976 130.479 54.067 116.263 54.067 101.277C53.9147 95.7216 55.7309 90.292 59.1956 85.9473C62.6604 81.6026 67.549 78.6235 72.9984 77.5349C82.1402 75.3835 94.2242 77.7368 101 87.4462C107.778 77.7358 119.862 75.3843 129.004 77.5349C134.453 78.6235 139.342 81.6036 142.806 85.9483C146.27 90.293 148.087 95.7226 147.934 101.277C147.934 126.704 117.002 153.874 101.523 157.785L101.522 157.784Z" fill="#FE6706"/>
<path d="M137.401 110.472L135.758 100.215C135.621 99.5649 135.151 99.0354 134.523 98.8221L127.134 96.3345H110.334L102.945 98.8211V98.822C102.317 99.0354 101.847 99.5649 101.71 100.215L100.067 110.472L106.601 114.243V121.783L102.868 131.209V152.882C112.021 149.474 125.052 139.154 133.909 126.758L130.867 121.784V114.244L137.401 110.472ZM115.401 108.155C115.401 109.187 114.565 110.022 113.534 110.022C112.504 110.022 111.668 109.187 111.668 108.155V107.622C111.668 106.591 112.504 105.755 113.534 105.755C114.565 105.755 115.401 106.592 115.401 107.622V108.155ZM121.267 115.429C121.267 116.47 120.424 117.313 119.383 117.313H118.886C118.386 117.313 117.906 117.115 117.553 116.762C117.199 116.408 117.001 115.929 117.001 115.429C117.001 114.388 117.845 113.544 118.886 113.544H119.383C120.424 113.544 121.267 114.388 121.267 115.429H121.267ZM126.601 108.155C126.601 109.187 125.765 110.022 124.734 110.022C123.704 110.022 122.867 109.187 122.867 108.155V107.622C122.867 106.591 123.704 105.755 124.734 105.755C125.765 105.755 126.601 106.592 126.601 107.622V108.155Z" fill="#FE6706"/>
</g>
</svg>
