<svg width="196" height="196" viewBox="0 0 196 196" fill="none" xmlns="http://www.w3.org/2000/svg">
<circle opacity="0.1" cx="98" cy="98" r="98" fill="#FE6706"/>
<g opacity="0.6">
<path d="M144.719 113.575C147.99 109.532 149.989 104.342 149.989 98.7303C149.989 85.5755 139.329 74.9551 126.124 74.9551C124.61 74.9551 123.096 75.1362 121.642 75.3775C123.096 72.3604 123.883 69.0415 123.883 65.4813C123.883 52.6885 113.465 42.3699 100.685 42.3699C100.685 42.3699 100.927 62.2831 74.8209 67.1105C60.4657 69.7656 50.4716 83.5238 53.0156 97.8855C54.3481 105.308 58.4063 109.773 63.252 112.428C50.1082 113.876 39.8718 124.98 39.8718 138.496C39.8718 152.979 51.683 164.746 66.2199 164.746H136.361C150.897 164.746 162.709 152.979 162.709 138.496C162.709 126.85 155.137 117.014 144.719 113.575ZM122.248 91.9719V87.3858C129.758 87.3858 136.3 93.9028 136.3 101.385H131.697C131.697 96.0149 126.669 91.9719 122.248 91.9719ZM144.962 142.057C144.962 134.272 137.754 128.419 131.273 128.419V123.833C141.024 123.833 149.565 132.341 149.565 142.057H144.962Z" fill="#FE6706"/>
<path d="M82.15 23.4825L90.0242 27.3445L82.5134 31.9306L78.6369 39.7752L74.0336 32.2926L66.1594 28.4307L73.6701 23.8446L77.5467 16L82.15 23.4825Z" fill="#FE6706"/>
<path d="M83.422 22.8789L85.3602 23.8444L83.4826 24.9306L82.574 26.8615L81.4232 25.0512L79.4849 24.0858L81.3626 22.9996L82.2711 21.0686L83.422 22.8789Z" fill="white"/>
<path d="M147.263 49.8524L155.137 53.7144L147.627 58.3004L143.75 66.145L139.147 58.6625L131.273 54.8005L138.783 50.2145L142.66 42.3699L147.263 49.8524Z" fill="#FE6706"/>
<path d="M148.535 49.2493L150.474 50.2147L148.596 51.3009L147.687 53.2319L146.536 51.4216L144.598 50.4561L146.476 49.3699L147.384 47.439L148.535 49.2493Z" fill="white"/>
<path d="M43.9906 70.4294L51.8648 74.2913L44.354 78.817L40.4775 86.722L35.8742 79.1791L28 75.3172L35.5107 70.7914L39.3873 62.8865L43.9906 70.4294Z" fill="#FE6706"/>
<path d="M45.2626 69.8262L47.1402 70.7313L45.3231 71.8779L44.4146 73.8088L43.2637 71.9382L41.3255 71.0331L43.2032 69.8865L44.1117 67.9556L45.2626 69.8262Z" fill="white"/>
</g>
</svg>
