<svg width="18" height="18" viewBox="0 0 18 18" fill="none" xmlns="http://www.w3.org/2000/svg">
<path d="M13.5013 0.784788V0.78673C13.4838 0.787539 12.7449 0.81764 11.077 0.958593C10.5145 1.00601 9.29983 1.16687 8.00146 2.46523L1.19682 9.26945C0.623278 9.84316 0.623278 10.7877 1.19682 11.3614L6.63432 16.7989C7.20785 17.3726 8.15276 17.3725 8.72629 16.7989L15.5309 9.99429C16.8279 8.69737 17.0041 7.49387 17.0376 6.90542C17.1355 5.18563 17.2075 4.36986 17.2075 4.36986C17.2081 4.36485 17.2088 4.35983 17.2094 4.35481C17.2648 3.4235 16.9337 2.46869 16.2237 1.75873C15.4814 1.01625 14.4729 0.69 13.5012 0.784498L13.5013 0.784788ZM13.5692 1.74962C13.578 1.74978 13.5869 1.74978 13.5956 1.74962C14.2908 1.68197 15.0061 1.91015 15.5403 2.44438C16.0507 2.95461 16.2837 3.63077 16.2446 4.29652C16.2438 4.30623 16.1708 5.12866 16.0727 6.84906C16.0434 7.36224 15.9774 8.179 14.8474 9.30921L8.04272 16.1139C7.8359 16.3207 7.52453 16.3207 7.31772 16.1139L1.88022 10.6764C1.67356 10.4695 1.67356 10.158 1.88022 9.95136L8.68486 3.14671C9.81346 2.01828 10.6211 1.96488 11.1583 1.91956C12.8334 1.77844 13.5692 1.74963 13.5692 1.74963L13.5692 1.74962ZM13.8222 2.71623C13.4501 2.71623 13.0781 2.85799 12.797 3.13909C12.2348 3.70144 12.2348 4.62729 12.797 5.18947C13.3592 5.75166 14.2852 5.75166 14.8474 5.18947C15.4096 4.62729 15.4096 3.70128 14.8474 3.13909C14.5663 2.85799 14.1942 2.71623 13.8222 2.71623ZM13.8222 3.67717C13.9448 3.67717 14.0675 3.72604 14.164 3.82249C14.3569 4.01539 14.3569 4.313 14.164 4.50589C13.9711 4.69879 13.6734 4.69879 13.4806 4.50589C13.2877 4.31299 13.2877 4.01521 13.4806 3.82249C13.577 3.72604 13.6997 3.67717 13.8223 3.67717H13.8222Z" fill="#33B5A9"/>
</svg>
