<svg width="232" height="226" viewBox="0 0 232 226" fill="none" xmlns="http://www.w3.org/2000/svg">
<circle opacity="0.1" cx="110" cy="118" r="98" fill="#FE6706"/>
<g opacity="0.6">
<path d="M211.115 110.074C210.651 103.354 206.88 98.7194 200.614 96.46C194.697 94.3164 188.779 94.0847 183.616 98.6615C183.732 98.8932 183.732 98.8932 183.848 99.067C190.288 98.2559 195.219 100.457 197.075 105.092C198.874 109.495 196.553 115.462 191.68 118.996C190.462 119.865 189.185 120.618 187.793 121.256C185.762 122.125 183.674 122.936 181.527 123.631C165.863 128.439 149.619 130.409 133.433 132.785C130.243 133.248 127.052 133.596 123.919 133.943C123.107 134.059 122.063 134.175 121.946 132.958C121.888 132.205 122.411 131.916 122.991 131.8C124.151 131.51 126.066 131.104 127.284 130.989C128.444 130.873 129.314 130.467 129.372 128.903C125.949 128.903 122.527 128.903 119.162 128.903C118.292 128.903 117.189 128.961 117.073 127.918C116.899 126.586 118.118 126.586 119.104 126.47C121.656 126.238 124.209 126.064 126.762 125.832C127.516 125.775 128.502 125.832 128.386 124.79C128.328 124.094 127.458 123.979 126.82 123.979C123.919 123.747 121.076 123.689 118.176 123.341C116.783 123.167 114.231 124.152 114.405 121.777C114.579 119.749 117.015 120.734 118.466 120.676C121.83 120.503 125.253 121.429 128.966 120.271C128.038 119.112 126.994 118.996 126.007 118.765C123.397 118.127 120.844 117.49 118.234 116.853C117.189 116.621 115.739 116.389 115.971 115.115C116.261 113.435 117.885 114.13 118.93 114.304C122.063 114.883 125.195 115.752 128.328 116.331C129.836 116.621 131.925 118.301 132.911 116.331C133.723 114.709 131.229 114.014 130.185 112.913C130.069 112.739 129.894 112.624 129.72 112.45C129.14 111.812 128.444 111.117 129.082 110.248C129.836 109.147 130.765 109.727 131.635 110.248C133.607 111.523 135.522 112.855 137.552 114.072C145.5 118.822 153.796 117.548 162.673 115.52C156.001 107.641 147.705 104.455 138.307 103.991C128.038 103.47 117.827 102.543 107.675 101.326C93.6354 99.6463 87.1378 94.2006 83.5409 80.5282C80.176 67.8406 76.2891 55.3269 70.1395 43.6822C69.5014 42.4656 68.8632 41.1331 67.1228 41.249C65.3243 41.3649 65.0343 42.8132 64.6282 44.1457C63.6419 47.5059 62.5976 50.866 61.6114 54.2262C60.8572 50.2867 59.929 46.5789 58.0145 43.1608C57.4924 42.2339 56.7962 41.6545 55.6939 41.7704C54.5336 41.8863 54.0695 42.6973 53.8375 43.6822C53.7214 44.3195 53.5474 44.8988 53.4314 45.5361C52.2131 52.662 50.8787 59.7878 44.9612 64.886C44.2651 65.4654 43.7429 66.3923 43.3368 67.2034C42.5826 68.7097 41.4804 69.289 39.856 69.6366C36.027 70.5056 32.14 71.4325 28.7172 73.5182C26.3966 74.9086 26.0485 76.4149 27.7889 78.7322C32.024 84.178 37.6514 86.5533 44.4391 86.9009C50.2986 87.2485 53.1993 90.2611 53.3153 96.2282C53.4894 105.961 59.0007 111.697 67.2968 115.462C72.17 117.664 76.8112 117.49 80.8722 113.435C81.9165 112.392 83.0768 111.349 84.3531 110.654C85.8615 109.785 87.1958 106.888 89.0523 108.8C90.7927 110.654 87.892 111.697 86.9637 113.029C86.4996 113.724 85.5714 114.246 86.0935 115.231C86.6737 116.215 87.6019 115.752 88.4141 115.52C92.185 114.362 95.956 113.203 99.7269 111.986C100.713 111.697 101.931 111.001 102.396 112.508C102.744 113.724 101.525 113.956 100.597 114.304C97.5804 115.346 94.5636 116.331 91.5469 117.432C90.9667 117.606 90.1545 117.838 90.2126 118.591C90.3286 119.691 91.3728 119.228 92.011 119.402C95.4919 118.533 99.0888 118.243 102.686 117.896C103.498 117.838 104.542 117.78 104.658 118.938C104.774 119.981 103.904 120.329 102.976 120.503C99.4949 120.966 96.072 121.429 92.5911 121.893C92.069 122.241 91.1988 122.241 91.1988 122.994C91.1988 124.094 92.185 123.863 92.8812 123.863C95.4339 123.863 97.9285 123.863 100.481 123.863C101.235 123.863 102.164 123.863 102.28 124.79C102.396 125.948 101.409 126.122 100.539 126.18C99.1468 126.296 97.8124 126.354 96.4201 126.412C94.9117 126.586 93.4033 126.701 91.895 126.875C91.3148 127.223 90.1545 126.759 90.0385 127.744C89.9225 128.787 90.9667 128.671 91.6629 128.787C92.8232 128.961 94.0415 128.903 95.2018 129.077C96.3041 129.251 97.9865 129.019 97.9285 130.583C97.8125 131.973 96.2461 131.452 95.2598 131.51C89.9225 131.626 84.5851 131.51 79.2478 130.873C68.2831 129.54 57.9565 127.049 52.097 114.999C52.097 117.142 52.097 118.301 52.097 119.402C51.7489 134.523 53.4894 149.643 52.2711 164.764C51.7489 171.368 50.2986 176.93 43.5689 179.769C42.4666 180.232 42.1765 181.333 42.3506 182.492C42.5246 183.361 42.8727 184.172 43.975 184.172C50.8787 184.172 57.8405 184.693 64.164 181.101C64.6282 180.638 65.0343 180.232 65.4404 179.769C67.3548 176.119 67.935 172.18 68.2251 168.182C68.7472 160.651 69.5594 153.119 69.5014 145.53C69.5014 145.298 69.5014 145.066 69.5014 144.835C69.5014 144.024 69.5594 143.155 69.9655 142.459C70.6036 141.185 71.88 141.011 73.2143 141.359C74.7227 141.706 76.115 142.228 77.7394 142.402C78.6677 142.517 79.7699 142.691 80.4661 143.271C81.2203 143.908 81.3363 145.066 81.3943 145.993C81.5684 154.104 81.9165 162.215 82.2646 170.268C82.4386 174.439 81.2783 177.567 77.2173 179.305C75.7669 179.943 75.0708 181.043 75.5349 182.608C75.941 184.114 76.9852 184.925 78.6677 184.751C81.2203 184.519 83.7729 184.404 86.3256 184.114C91.5469 183.477 95.5499 179.479 96.014 174.149C96.5941 167.023 97.6964 151.787 97.6964 151.265C98.0445 145.356 98.0445 145.356 103.498 145.066C104.716 145.124 105.934 145.124 107.153 145.182C111.33 145.704 115.507 145.646 119.626 145.182C121.134 145.182 122.643 145.124 124.151 145.124C124.789 145.124 125.369 145.53 125.485 146.167C125.775 147.326 126.124 148.485 126.414 149.585C127.632 156.422 128.792 163.2 130.069 170.036C131.171 175.945 130.823 176.988 125.775 180.29C124.789 180.928 124.267 181.739 124.441 182.955C124.731 184.635 126.066 185.446 129.14 184.983C136.624 183.882 141.961 177.22 141.787 169.688C141.613 163.258 141.323 156.885 141.091 150.454C140.801 144.255 140.801 144.429 147.067 143.56C149.213 143.271 149.793 143.908 150.316 145.82C152.114 152.945 154.087 160.013 155.943 167.139C157.799 174.091 156.987 176.003 150.722 179.537C149.561 180.174 148.923 181.043 149.155 182.376C149.445 183.65 150.316 184.404 151.708 184.346C153.216 184.288 154.667 184.172 156.175 184.056C164.181 183.535 168.3 178.958 168.126 170.963C167.952 163.953 167.778 156.885 167.604 149.875C167.43 142.575 167.488 142.633 174.624 141.243C184.08 139.331 193.304 136.666 201.252 130.931C208.388 125.659 211.753 118.707 211.115 110.074Z" fill="#FE6706"/>
<path d="M183.964 99.0671C183.5 99.4147 183.036 99.5885 182.572 99.125C182.92 99.0092 183.268 98.8354 183.674 98.7195C183.732 98.8354 183.848 98.9512 183.964 99.0671Z" fill="#FE6706"/>
</g>
<path opacity="0.6" d="M122.469 83.4247C120.264 82.9613 118.93 84.8731 118.93 84.8731C118.93 84.8731 117.595 82.9613 115.391 83.4247C113.476 83.8303 112.374 85.8 112.722 87.7118C113.07 89.6816 114.521 92.5204 118.93 95.5909C123.339 92.5204 124.789 89.6816 125.137 87.7118C125.485 85.8 124.383 83.8303 122.469 83.4247Z" fill="#FE6706"/>
</svg>
