<svg width="116" height="116" viewBox="0 0 116 116" fill="none" xmlns="http://www.w3.org/2000/svg">
<circle opacity="0.1" cx="58" cy="58" r="58" fill="#4A4A4A"/>
<g opacity="0.6" clip-path="url(#clip0_2643_6729)">
<path d="M55.3228 95.4264C55.8522 91.2713 57.5336 85.814 55.5097 78.8372C53.4857 71.8915 48.4726 63.0853 33.3087 59.2403C33.7447 58.155 35.5818 55.8295 34.4297 51.7985L34.3363 51.4574C35.0524 45.7519 37.45 44.6357 36.5782 44.1705C33.371 42.5271 28.6381 46.8992 28.6381 46.8992C27.5172 46.6202 26.3028 46.4651 25.0262 46.4651C24.2478 46.4651 23.5316 46.4961 22.8155 46.5891C21.6634 44.9457 18.7676 41.1628 17.4287 42C16.4946 42.5892 16.0275 47.9845 16.1209 50.4031C13.8168 55.2713 15.5916 58.5892 16.4946 60.1085C16.1832 61.876 15.8407 63.9845 15.6539 66.5891C15.3736 70.7442 15.9652 74.8682 21.1652 84.5426C21.352 84.8527 21.5077 85.1938 21.6634 85.5039C21.6634 85.5969 22.5041 91.3333 22.7532 96.0155C22.1304 96.1705 17.6467 97.3799 18.7676 99.9225C19.3592 101.256 20.9784 101.38 22.5664 101.163C22.5041 101.442 22.4418 101.69 22.2861 101.783C20.3245 102.992 19.8574 106.713 25.8358 105.814C26.5208 105.721 26.9567 105.287 27.4861 104.605C34.274 107.178 46.4798 104.233 50.8391 102.527C56.1947 100.512 55.3228 95.3954 55.3228 95.4264ZM29.6657 100.016C29.7902 99.5504 29.8836 99.2093 30.0082 98.7442C30.7866 99.4574 31.5339 100.047 32.2501 100.481C31.1914 100.45 30.3507 100.233 29.6657 100.016Z" fill="#4A4A4A"/>
<path fill-rule="evenodd" clip-rule="evenodd" d="M109.72 76.6977C109.159 72.9147 107.914 69.1628 106.513 66C105.018 62.6512 102.838 59.7054 101.219 56.4496C99.7247 53.4109 96.9846 51.0233 99.1953 47.5194C99.9115 46.3721 101.624 46.5892 102.776 46.5581C103.368 46.5581 104.302 46.5271 104.769 46.093C105.703 45.1628 104.551 44.1705 103.71 43.7674C102.527 43.1783 100.877 43.2093 99.6313 43.5194C96.6109 44.2946 94.8984 46.9612 94.587 49.907C94.1822 53.5349 96.3307 56.2016 97.7007 59.3643C99.2576 62.9613 100.659 66.7132 101.842 70.4341C102.87 73.7209 103.835 77.4419 103.087 80.8837C102.714 82.6202 101.749 84.3876 100.441 85.5969C99.1331 86.8062 97.4828 87.7675 95.8014 88.3566C95.5523 88.4496 95.272 88.5426 94.9918 88.6047C94.7427 88.6667 94.1822 88.7597 94.1822 88.7597C94.1822 88.7597 94.3068 88.0775 94.3068 87.9535C94.369 86.9923 94.4002 86.031 94.4002 85.0698C94.4313 84.0155 94.4313 82.9613 94.4002 81.907C94.0888 74.4341 92.7499 66.7132 88.4841 60.3876C83.6267 53.2248 76.3094 48.2636 68.276 45.1938C66.9371 44.6667 65.1622 43.8915 64.5083 42.5271C63.5431 40.5426 65.7538 38.9302 67.3107 38.155C68.058 37.783 68.8053 37.3178 69.3658 36.6977C69.6771 36.3566 69.8951 35.9845 70.0819 35.5814C70.2999 35.1163 70.2999 34.5892 70.4867 34.124C71.016 32.8527 70.549 31.9535 69.646 31.1473C68.5251 30.155 67.5287 29.0388 66.9682 27.5814C66.8748 27.3643 67.2173 26.9302 67.3107 26.7752C67.6532 26.124 67.84 25.2868 67.7155 24.5736C67.5287 23.5504 66.8436 24.1705 66.3143 24.5736C66.0652 24.7597 65.4736 25.3488 65.1311 25.3178C64.5395 25.2868 63.8545 25.2868 63.1694 25.2248C61.9551 25.1008 60.7096 24.9457 59.4641 24.8217C58.8413 24.7597 58.1875 24.7287 57.5647 24.6977C57.0042 24.6667 56.4126 24.5736 55.8522 24.6047C55.6342 24.2946 55.354 23.8915 55.1049 23.4574C54.3576 22.124 53.6726 20.7287 52.9253 19.3954C52.645 18.8682 52.3336 18.155 51.6486 18.062C49.5936 17.783 48.2547 20.7597 48.1924 22.4031C48.1612 23.7364 48.3792 25.0078 48.8151 26.2481C48.9397 26.5892 49.0331 26.9302 49.0331 26.9923C46.7912 31.1783 44.8607 35.6124 43.8643 40.2636C42.6499 45.876 42.4942 53.0698 44.4559 58.5271C45.7948 62.2171 47.8499 65.5039 49.7804 68.9147C50.154 69.5659 50.5588 70.2171 50.9013 70.8992C52.3336 73.5969 51.9911 76.1395 51.8977 79.0853C51.8354 81.4109 51.7109 83.7054 51.4929 86C51.275 88.1395 51.1816 90.5271 50.6211 92.6047C50.3097 93.7209 49.6247 93.6279 48.6906 94.1861C47.5696 94.8682 46.9158 96.3876 47.663 97.5659C48.3481 98.6512 49.6247 98.5581 50.7768 98.5581C61.2701 98.5891 71.7945 98.4031 82.2878 98.6822C91.1308 98.9302 100.783 98.7752 106.731 91.1163C109.938 87.0543 110.467 81.814 109.72 76.6977ZM62.7024 29.4729C62.5778 29.5969 62.0485 29.4419 61.8928 29.4419C61.4569 29.3799 61.0521 29.2868 60.6162 29.2248C60.1803 29.1628 59.7443 29.2248 59.3084 29.1628C58.9348 29.1318 58.4988 29.0388 58.4366 28.6047C58.3432 27.8295 59.6509 27.7985 60.1491 27.7985C60.2737 27.7985 60.3982 27.7985 60.4916 27.8295C61.3323 27.9535 61.9551 28.5116 62.5778 29.1318C62.6401 29.1938 62.7958 29.3799 62.7024 29.4729Z" fill="#4A4A4A"/>
</g>
<defs>
<clipPath id="clip0_2643_6729">
<rect width="95" height="88" fill="white" transform="translate(15 18)"/>
</clipPath>
</defs>
</svg>
