<svg width="196" height="196" viewBox="0 0 196 196" fill="none" xmlns="http://www.w3.org/2000/svg">
<circle opacity="0.1" cx="98" cy="98" r="98" fill="#FE6706"/>
<g clip-path="url(#clip0_2645_6749)">
<path fill-rule="evenodd" clip-rule="evenodd" d="M109.717 160.606C106.9 171.821 116.429 176.919 124.28 166.903C135.727 152.569 147.833 137.635 157.363 121.442C139.623 108.667 140.941 106.448 161.258 114.485C162.337 112.805 163.356 110.766 164.075 109.207C139.922 94.033 151.13 96.7919 167.311 101.65C168.75 98.5912 169.829 95.6524 170.787 92.2938C172.945 86.4162 169.289 80.8984 163.596 77L167.731 68.3036C168.93 65.7246 170.668 63.4455 174.264 65.1249L188.108 71.6622C188.108 71.6622 195.659 70.2228 193.502 64.1652C191.884 59.6071 188.947 63.2656 188.168 57.5679C187.808 53.0098 196.858 54.4492 194.58 48.0318C191.224 38.6157 185.111 48.8715 182.954 44.0734C181.216 40.4149 184.272 39.3354 182.654 34.8372C181.695 32.1983 178.998 30.579 176.361 31.5386C169.948 33.8176 175.642 40.295 169.049 39.6952C165.513 39.2754 165.933 29.7393 159.88 31.8984C152.328 34.5973 159.041 40.295 156.404 42.5141C153.407 44.8531 153.048 40.295 146.275 42.754C142.859 43.9535 142.619 50.4308 145.736 51.8703L159.82 57.9278C161.858 58.8874 163.296 61.7662 161.977 65.2448L158.022 74.3611C150.111 71.2424 140.881 71.5422 137.345 78.3794C128.895 92.8935 123.201 108.967 118.467 125.58C136.087 137.995 135.667 140.274 116.489 134.397C114.032 142.913 111.814 152.209 109.717 160.606Z" fill="#FE6706" fill-opacity="0.61"/>
<path d="M99.2286 47.3121C104.558 47.3121 108.878 42.989 108.878 37.6561C108.878 32.3232 104.558 28 99.2286 28C93.8996 28 89.5795 32.3232 89.5795 37.6561C89.5795 42.989 93.8996 47.3121 99.2286 47.3121Z" fill="#FE6706" fill-opacity="0.61"/>
<path d="M101.686 35.197C103.043 35.197 104.143 34.0961 104.143 32.738C104.143 31.38 103.043 30.2791 101.686 30.2791C100.329 30.2791 99.2286 31.38 99.2286 32.738C99.2286 34.0961 100.329 35.197 101.686 35.197Z" fill="#F7EBA8"/>
<path d="M87.5419 73.4615C92.8709 73.4615 97.1909 69.1384 97.1909 63.8055C97.1909 58.4726 92.8709 54.1494 87.5419 54.1494C82.2128 54.1494 77.8928 58.4726 77.8928 63.8055C77.8928 69.1384 82.2128 73.4615 87.5419 73.4615Z" fill="#FE6706" fill-opacity="0.61"/>
<path d="M89.5795 61.4663C90.9366 61.4663 92.0368 60.3654 92.0368 59.0073C92.0368 57.6493 90.9366 56.5483 89.5795 56.5483C88.2225 56.5483 87.1223 57.6493 87.1223 59.0073C87.1223 60.3654 88.2225 61.4663 89.5795 61.4663Z" fill="#F7EBA8"/>
<path d="M108.818 83.1776C114.147 83.1776 118.467 78.8544 118.467 73.5215C118.467 68.1886 114.147 63.8655 108.818 63.8655C103.489 63.8655 99.1687 68.1886 99.1687 73.5215C99.1687 78.8544 103.489 83.1776 108.818 83.1776Z" fill="#FE6706" fill-opacity="0.61"/>
<path d="M111.814 71.4824C113.171 71.4824 114.272 70.3815 114.272 69.0234C114.272 67.6654 113.171 66.5645 111.814 66.5645C110.457 66.5645 109.357 67.6654 109.357 69.0234C109.357 70.3815 110.457 71.4824 111.814 71.4824Z" fill="#F7EBA8"/>
<path d="M97.131 102.43C102.46 102.43 106.78 98.1064 106.78 92.7735C106.78 87.4406 102.46 83.1174 97.131 83.1174C91.802 83.1174 87.4819 87.4406 87.4819 92.7735C87.4819 98.1064 91.802 102.43 97.131 102.43Z" fill="#FE6706" fill-opacity="0.61"/>
<path d="M99.5882 90.4343C100.945 90.4343 102.045 89.3334 102.045 87.9754C102.045 86.6173 100.945 85.5164 99.5882 85.5164C98.2311 85.5164 97.131 86.6173 97.131 87.9754C97.131 89.3334 98.2311 90.4343 99.5882 90.4343Z" fill="#F7EBA8"/>
<path d="M12.8665 68.9633C25.7519 59.727 43.4319 62.6658 52.6614 75.5606C57.456 82.2778 61.8909 98.951 63.9286 107.827C64.5879 111.066 65.8465 114.065 67.105 117.124C69.9818 124.081 67.7643 132.237 61.4115 136.796C55.0587 141.354 46.6083 140.634 40.9747 135.836C38.5175 133.677 35.9404 131.518 33.2434 129.838C25.4523 125.04 11.3083 115.684 6.33395 108.787C-2.83565 96.0722 0.160949 78.1995 12.8665 68.9633ZM57.8156 142.493L69.3225 158.567C68.6033 158.807 67.8242 159.166 67.0451 159.586C63.2694 162.285 62.3704 167.743 65.0673 171.521C67.7643 175.3 73.2181 176.2 76.9938 173.501C79.9904 171.401 81.0692 167.683 80.2901 164.264L81.4288 163.725C84.2456 165.584 88.261 165.704 91.2577 163.605C95.0334 160.906 95.9323 155.448 93.2354 151.67C90.5385 147.891 85.0846 146.991 81.3089 149.69C80.7096 150.11 80.1103 150.71 79.6308 151.49L68.1239 135.416C66.9852 137.155 65.5468 138.475 63.7488 139.734C61.7112 140.874 59.8533 141.774 57.8156 142.493Z" fill="#FE6706" fill-opacity="0.61"/>
</g>
<defs>
<clipPath id="clip0_2645_6749">
<rect width="194" height="147" fill="white" transform="translate(1 28)"/>
</clipPath>
</defs>
</svg>
