<svg width="164" height="160" viewBox="0 0 164 160" fill="none" xmlns="http://www.w3.org/2000/svg">
<circle opacity="0.1" cx="79" cy="87" r="64" fill="#4A4A4A"/>
<g opacity="0.6">
<path d="M149.236 77.9287C148.908 73.171 146.243 69.8898 141.813 68.2902C137.63 66.7726 133.447 66.6085 129.797 69.8487C129.879 70.0128 129.879 70.0128 129.961 70.1358C134.514 69.5616 137.999 71.1202 139.312 74.4014C140.583 77.5186 138.943 81.7431 135.498 84.245C134.637 84.8603 133.734 85.3935 132.75 85.8446C131.315 86.4599 129.838 87.0341 128.321 87.5263C117.248 90.9305 105.765 92.325 94.3236 94.0066C92.068 94.3348 89.8125 94.5809 87.5979 94.8269C87.0238 94.909 86.2856 94.991 86.2035 94.1297C86.1625 93.5965 86.5316 93.3914 86.9417 93.3094C87.7619 93.1043 89.1153 92.8172 89.9765 92.7352C90.7967 92.6531 91.4119 92.366 91.4529 91.2586C89.0333 91.2586 86.6136 91.2586 84.2351 91.2586C83.6199 91.2586 82.8407 91.2996 82.7587 90.5614C82.6357 89.618 83.4969 89.618 84.194 89.536C85.9985 89.3719 87.8029 89.2489 89.6074 89.0848C90.1405 89.0438 90.8377 89.0848 90.7557 88.3466C90.7147 87.8544 90.0995 87.7723 89.6484 87.7723C87.5979 87.6083 85.5884 87.5673 83.5379 87.3212C82.5536 87.1981 80.7492 87.8954 80.8722 86.2138C80.9952 84.7782 82.7177 85.4755 83.7429 85.4345C86.1215 85.3114 88.5411 85.9677 91.1658 85.1474C90.5096 84.3271 89.7714 84.245 89.0743 84.081C87.2288 83.6298 85.4244 83.1787 83.5789 82.7275C82.8407 82.5634 81.8154 82.3994 81.9795 81.497C82.1845 80.3076 83.3328 80.7998 84.071 80.9228C86.2856 81.333 88.5001 81.9482 90.7147 82.3584C91.7809 82.5634 93.2573 83.7529 93.9545 82.3584C94.5286 81.2099 92.7652 80.7177 92.027 79.9385C91.945 79.8154 91.822 79.7334 91.6989 79.6103C91.2888 79.1592 90.7967 78.667 91.2478 78.0518C91.7809 77.2725 92.4371 77.6826 93.0523 78.0518C94.4466 78.9541 95.8 79.8974 97.2353 80.7588C102.854 84.122 108.718 83.2197 114.993 81.7841C110.277 76.2061 104.412 73.9503 97.7684 73.6221C90.5096 73.253 83.2918 72.5967 76.115 71.7354C66.1905 70.546 61.5974 66.6906 59.0548 57.011C56.6762 48.0287 53.9285 39.1694 49.5814 30.9254C49.1303 30.0641 48.6792 29.1207 47.4489 29.2027C46.1775 29.2848 45.9725 30.3102 45.6854 31.2535C44.9882 33.6324 44.2501 36.0113 43.5529 38.3901C43.0197 35.6011 42.3636 32.9761 41.0102 30.5562C40.6412 29.9 40.149 29.4899 39.3698 29.5719C38.5496 29.6539 38.2216 30.2281 38.0575 30.9254C37.9755 31.3766 37.8525 31.7867 37.7704 32.2379C36.9092 37.2827 35.966 42.3276 31.7829 45.9369C31.2908 46.3471 30.9217 47.0033 30.6347 47.5775C30.1015 48.6439 29.3223 49.0541 28.174 49.3002C25.4674 49.9154 22.7197 50.5716 20.3001 52.0482C18.6597 53.0325 18.4136 54.0989 19.6439 55.7395C22.6377 59.595 26.6156 61.2766 31.4138 61.5227C35.5559 61.7688 37.6064 63.9015 37.6884 68.1261C37.8114 75.0166 41.7074 79.0771 47.5719 81.7431C51.0167 83.3017 54.2976 83.1787 57.1683 80.3076C57.9065 79.5693 58.7267 78.831 59.6289 78.3389C60.6952 77.7236 61.6384 75.6729 62.9507 77.0264C64.181 78.3389 62.1305 79.0771 61.4744 80.0205C61.1463 80.5127 60.4901 80.8818 60.8592 81.5791C61.2693 82.2763 61.9255 81.9482 62.4996 81.7841C65.1653 80.9638 67.831 80.1435 70.4966 79.2822C71.1938 79.0771 72.055 78.585 72.3831 79.6514C72.6292 80.5127 71.7679 80.6767 71.1118 80.9228C68.9792 81.6611 66.8467 82.3583 64.7142 83.1376C64.3041 83.2607 63.7299 83.4247 63.7709 83.9579C63.853 84.7372 64.5911 84.4091 65.0423 84.5322C67.5029 83.9169 70.0455 83.7118 72.5881 83.4658C73.1623 83.4247 73.9005 83.3837 73.9825 84.204C74.0645 84.9423 73.4494 85.1884 72.7932 85.3114C70.3326 85.6396 67.913 85.9677 65.4524 86.2958C65.0833 86.5419 64.4681 86.5419 64.4681 87.0751C64.4681 87.8544 65.1653 87.6903 65.6574 87.6903C67.4619 87.6903 69.2253 87.6903 71.0298 87.6903C71.5629 87.6903 72.2191 87.6903 72.3011 88.3466C72.3831 89.1669 71.6859 89.2899 71.0708 89.3309C70.0865 89.413 69.1433 89.454 68.159 89.495C67.0928 89.618 66.0265 89.7001 64.9602 89.8231C64.5501 90.0692 63.7299 89.7411 63.6479 90.4383C63.5659 91.1766 64.3041 91.0946 64.7962 91.1766C65.6164 91.2996 66.4776 91.2586 67.2978 91.3817C68.077 91.5047 69.2663 91.3407 69.2253 92.4481C69.1433 93.4324 68.036 93.0633 67.3388 93.1043C63.5659 93.1863 59.7929 93.1043 56.02 92.6531C48.2691 91.7098 40.9692 89.9461 36.8272 81.415C36.8272 82.9326 36.8272 83.7529 36.8272 84.5322C36.5811 95.2371 37.8114 105.942 36.9502 116.647C36.5811 121.323 35.5559 125.26 30.7987 127.27C30.0195 127.598 29.8144 128.377 29.9375 129.198C30.0605 129.813 30.3066 130.387 31.0858 130.387C35.966 130.387 40.8872 130.756 45.3573 128.213C45.6854 127.885 45.9725 127.598 46.2596 127.27C47.6129 124.686 48.023 121.897 48.2281 119.067C48.5971 113.735 49.1713 108.403 49.1303 103.03C49.1303 102.866 49.1303 102.702 49.1303 102.538C49.1303 101.964 49.1713 101.348 49.4584 100.856C49.9095 99.9538 50.8117 99.8308 51.7549 100.077C52.8212 100.323 53.8054 100.692 54.9537 100.815C55.6099 100.897 56.3891 101.02 56.8812 101.43C57.4143 101.882 57.4964 102.702 57.5374 103.358C57.6604 109.1 57.9065 114.842 58.1525 120.543C58.2756 123.497 57.4554 125.711 54.5846 126.942C53.5594 127.393 53.0673 128.172 53.3953 129.28C53.6824 130.346 54.4206 130.92 55.6099 130.797C57.4144 130.633 59.2188 130.551 61.0233 130.346C64.7142 129.895 67.5439 127.065 67.872 123.291C68.2821 118.247 69.0613 107.46 69.0613 107.09C69.3073 102.907 69.3073 102.907 73.1623 102.702C74.0235 102.743 74.8847 102.743 75.7459 102.784C78.6987 103.153 81.6514 103.112 84.5631 102.784C85.6294 102.784 86.6957 102.743 87.7619 102.743C88.2131 102.743 88.6232 103.03 88.7052 103.481C88.9102 104.301 89.1563 105.122 89.3613 105.901C90.2226 110.741 91.0428 115.54 91.945 120.379C92.7242 124.563 92.4781 125.301 88.9102 127.639C88.2131 128.09 87.844 128.664 87.967 129.526C88.172 130.715 89.1153 131.289 91.2888 130.961C96.5791 130.182 100.352 125.465 100.229 120.133C100.106 115.581 99.901 111.069 99.7369 106.516C99.5319 102.128 99.5319 102.251 103.961 101.635C105.478 101.43 105.888 101.882 106.258 103.235C107.529 108.28 108.923 113.284 110.236 118.329C111.548 123.25 110.974 124.604 106.545 127.106C105.724 127.557 105.273 128.172 105.437 129.116C105.642 130.018 106.258 130.551 107.242 130.51C108.308 130.469 109.333 130.387 110.4 130.305C116.059 129.936 118.971 126.696 118.848 121.036C118.725 116.073 118.602 111.069 118.479 106.106C118.356 100.938 118.397 100.979 123.441 99.9949C130.126 98.6414 136.646 96.7547 142.265 92.6942C147.309 88.9618 149.687 84.04 149.236 77.9287Z" fill="#4A4A4A"/>
<path d="M130.044 70.1357C129.715 70.3818 129.387 70.5049 129.059 70.1768C129.305 70.0947 129.551 69.9717 129.838 69.8896C129.879 69.9717 129.961 70.0537 130.044 70.1357Z" fill="#4A4A4A"/>
</g>
<path opacity="0.6" d="M86.5726 59.0618C85.0143 58.7337 84.071 60.0872 84.071 60.0872C84.071 60.0872 83.1278 58.7337 81.5694 59.0618C80.2161 59.3489 79.4369 60.7434 79.6829 62.0969C79.929 63.4914 80.9542 65.5012 84.071 67.675C87.1878 65.5012 88.2131 63.4914 88.4591 62.0969C88.7052 60.7434 87.926 59.3489 86.5726 59.0618Z" fill="#4A4A4A"/>
</svg>
