<svg width="13" height="28" viewBox="0 0 13 28" fill="none" xmlns="http://www.w3.org/2000/svg">
<path d="M9.01863 1.9536C8.82658 1.77124 8.62795 1.55958 8.42006 1.33494C7.75844 0.651105 7.15684 0 6.49854 0C5.86859 0 5.23863 0.651105 4.6084 1.32517C4.39724 1.54978 4.20212 1.76145 4.02874 1.9243C1.54667 3.87128 0 8.49756 0 13.9999C0 19.5022 1.54031 24.0929 3.99729 26.0464C4.18934 26.2288 4.38797 26.4404 4.59586 26.6651C5.23858 27.3489 5.84327 28 6.49848 28C7.12843 28 7.73949 27.3489 8.37276 26.6978C8.58392 26.4732 8.78233 26.2615 8.95546 26.0987C11.4503 24.1451 13 19.5219 13 14.0132C13.0002 8.50424 11.4597 3.9068 9.01852 1.95331L9.01863 1.9536ZM11.3181 21.1856H6.72225C6.54822 21.1856 6.40715 21.3312 6.40715 21.511C6.40715 21.6909 6.54822 21.8367 6.72225 21.8367H11.003C11.0283 21.8401 11.0536 21.8401 11.0789 21.8367C10.4489 23.4841 9.58247 24.7668 8.55876 25.5842C8.3476 25.7795 8.13029 26.0107 7.92881 26.2353C7.44365 26.7529 6.87039 27.3488 6.49858 27.3488C6.11427 27.3488 5.55351 26.7433 5.05276 26.2091C4.84798 25.9877 4.63374 25.7599 4.40391 25.558C4.25274 25.4377 4.08882 25.3041 3.95984 25.164H5.95697H5.95675C6.13077 25.164 6.27184 25.0182 6.27184 24.8386C6.27184 24.6587 6.13077 24.5129 5.95675 24.5129H3.38327C2.28374 23.0967 1.45843 21.0259 1.01742 18.5577H8.13033C8.30436 18.5577 8.44543 18.4121 8.44543 18.2322C8.44543 18.0523 8.30436 17.9065 8.13033 17.9065H0.910548C0.720702 16.6136 0.626875 15.3075 0.630171 13.9996C0.620503 12.1964 0.806613 10.3977 1.18455 8.63741H5.25441C5.42843 8.63741 5.5695 8.4916 5.5695 8.31173C5.5695 8.13186 5.42843 7.98606 5.25441 7.98606H1.33907C1.99124 5.47583 3.05888 3.50274 4.43877 2.42193C4.64993 2.22662 4.86395 1.99542 5.06872 1.77083C5.55366 1.24984 6.12387 0.650709 6.49873 0.650709C6.88611 0.650709 7.4438 1.2596 7.9509 1.7967C8.15876 2.01813 8.36992 2.24592 8.59975 2.4478V2.44803C9.33365 3.05983 9.94184 3.81704 10.389 4.67506H4.11707C3.94304 4.67506 3.80198 4.82087 3.80198 5.00051C3.80198 5.18038 3.94304 5.32619 4.11707 5.32619H10.7322C11.5625 7.20572 12.0739 9.21904 12.2441 11.2779H5.11884C4.94481 11.2779 4.80375 11.4237 4.80375 11.6036C4.80375 11.7832 4.94481 11.9291 5.11884 11.9291H12.2914C12.3417 12.5802 12.367 13.2835 12.367 13.9835C12.4012 16.4314 12.0426 18.8685 11.3055 21.1951L11.3181 21.1856Z" fill="#0A9386"/>
</svg>
