<svg width="21" height="36" viewBox="0 0 21 36" fill="none" xmlns="http://www.w3.org/2000/svg">
<g filter="url(#filter0_d_2705_8829)">
<path d="M13.0186 1.9536C12.8266 1.77124 12.6279 1.55958 12.4201 1.33494C11.7584 0.651105 11.1568 0 10.4985 0C9.86859 0 9.23863 0.651105 8.6084 1.32517C8.39724 1.54978 8.20212 1.76145 8.02874 1.9243C5.54667 3.87128 4 8.49756 4 13.9999C4 19.5022 5.54031 24.0929 7.99729 26.0464C8.18934 26.2288 8.38797 26.4404 8.59586 26.6651C9.23858 27.3489 9.84327 28 10.4985 28C11.1284 28 11.7395 27.3489 12.3728 26.6978C12.5839 26.4732 12.7823 26.2615 12.9555 26.0987C15.4503 24.1451 17 19.5219 17 14.0132C17.0002 8.50424 15.4597 3.9068 13.0185 1.95331L13.0186 1.9536ZM15.3181 21.1856H10.7222C10.5482 21.1856 10.4072 21.3312 10.4072 21.511C10.4072 21.6909 10.5482 21.8367 10.7222 21.8367H15.003C15.0283 21.8401 15.0536 21.8401 15.0789 21.8367C14.4489 23.4841 13.5825 24.7668 12.5588 25.5842C12.3476 25.7795 12.1303 26.0107 11.9288 26.2353C11.4436 26.7529 10.8704 27.3488 10.4986 27.3488C10.1143 27.3488 9.55351 26.7433 9.05276 26.2091C8.84798 25.9877 8.63374 25.7599 8.40391 25.558C8.25274 25.4377 8.08882 25.3041 7.95984 25.164H9.95697H9.95675C10.1308 25.164 10.2718 25.0182 10.2718 24.8386C10.2718 24.6587 10.1308 24.5129 9.95675 24.5129H7.38327C6.28374 23.0967 5.45843 21.0259 5.01742 18.5577H12.1303C12.3044 18.5577 12.4454 18.4121 12.4454 18.2322C12.4454 18.0523 12.3044 17.9065 12.1303 17.9065H4.91055C4.7207 16.6136 4.62688 15.3075 4.63017 13.9996C4.6205 12.1964 4.80661 10.3977 5.18455 8.63741H9.25441C9.42843 8.63741 9.5695 8.4916 9.5695 8.31173C9.5695 8.13186 9.42843 7.98606 9.25441 7.98606H5.33907C5.99124 5.47583 7.05888 3.50274 8.43877 2.42193C8.64993 2.22662 8.86395 1.99542 9.06872 1.77083C9.55366 1.24984 10.1239 0.650709 10.4987 0.650709C10.8861 0.650709 11.4438 1.2596 11.9509 1.7967C12.1588 2.01813 12.3699 2.24592 12.5998 2.4478V2.44803C13.3337 3.05983 13.9418 3.81704 14.389 4.67506H8.11707C7.94304 4.67506 7.80198 4.82087 7.80198 5.00051C7.80198 5.18038 7.94304 5.32619 8.11707 5.32619H14.7322C15.5625 7.20572 16.0739 9.21904 16.2441 11.2779H9.11884C8.94481 11.2779 8.80375 11.4237 8.80375 11.6036C8.80375 11.7832 8.94481 11.9291 9.11884 11.9291H16.2914C16.3417 12.5802 16.367 13.2835 16.367 13.9835C16.4012 16.4314 16.0426 18.8685 15.3055 21.1951L15.3181 21.1856Z" fill="#0A9386"/>
</g>
<defs>
<filter id="filter0_d_2705_8829" x="0" y="0" width="21" height="36" filterUnits="userSpaceOnUse" color-interpolation-filters="sRGB">
<feFlood flood-opacity="0" result="BackgroundImageFix"/>
<feColorMatrix in="SourceAlpha" type="matrix" values="0 0 0 0 0 0 0 0 0 0 0 0 0 0 0 0 0 0 127 0" result="hardAlpha"/>
<feOffset dy="4"/>
<feGaussianBlur stdDeviation="2"/>
<feComposite in2="hardAlpha" operator="out"/>
<feColorMatrix type="matrix" values="0 0 0 0 0 0 0 0 0 0 0 0 0 0 0 0 0 0 0.25 0"/>
<feBlend mode="normal" in2="BackgroundImageFix" result="effect1_dropShadow_2705_8829"/>
<feBlend mode="normal" in="SourceGraphic" in2="effect1_dropShadow_2705_8829" result="shape"/>
</filter>
</defs>
</svg>
