<svg width="20" height="25" viewBox="0 0 20 25" fill="none" xmlns="http://www.w3.org/2000/svg">
<path fill-rule="evenodd" clip-rule="evenodd" d="M5.7461 5.39726e-05C5.6461 -0.00189918 5.55274 0.049273 5.50079 0.134819L3.80764 2.92507C3.73752 3.0405 3.75998 3.18952 3.86076 3.27936L5.86896 5.06666C4.54026 8.21626 5.44123 10.8212 5.50724 13.2072C5.54084 14.4242 5.37345 15.5841 4.61994 16.8066C3.86644 18.0292 2.51114 19.3218 0.136744 20.7341H0.136939C0.0121342 20.8083 -0.035326 20.9658 0.027954 21.0966L1.2041 23.5304C1.24707 23.6195 1.33399 23.6792 1.43262 23.6876C1.43262 23.6876 3.89942 23.8996 6.43612 22.68C8.84782 21.5206 11.3213 19.0304 11.7836 13.9555C11.8883 14.1255 11.9905 14.2987 12.0887 14.4766C12.1012 14.5001 12.1172 14.5218 12.136 14.5407C12.9911 16.1294 14.068 19.119 12.7725 22.6857C12.725 22.8162 12.7803 22.9617 12.9023 23.0277L14.7859 24.0462C14.8567 24.0843 14.9402 24.0904 15.0154 24.0626C17.6105 23.1105 19.0881 21.0804 19.656 18.6756C20.224 16.2705 19.9115 13.4866 18.9892 10.9186C18.0672 8.3503 16.5341 5.99425 14.6134 4.45815C12.7431 2.96265 10.4779 2.2519 8.11894 2.9486L5.96289 0.110695L5.96309 0.1105C5.91133 0.0425298 5.83144 0.00190472 5.74589 0.000149722L5.7461 5.39726e-05ZM5.76622 0.776804L7.79202 3.4432V3.4434C7.86409 3.53832 7.9885 3.57719 8.10198 3.54008C10.3375 2.80903 12.4487 3.44379 14.264 4.89553C16.0794 6.34728 17.5704 8.62328 18.4624 11.108C19.3544 13.5928 19.6462 16.282 19.1113 18.5475C18.5849 20.7758 17.2865 22.5897 14.9402 23.4934L13.379 22.6493C14.9159 18.1098 12.8267 14.4643 12.048 13.3263C10.7197 11.2982 9.02198 9.82178 7.56733 8.19928C7.56733 8.19908 7.56733 8.19908 7.56713 8.19908C6.75973 7.29558 6.67418 6.82798 6.67473 6.40238C6.67532 5.9766 6.81223 5.48168 6.44895 4.85278L6.44876 4.85239C6.4468 4.84888 6.44465 4.84556 6.44231 4.84204C6.44153 4.84067 6.44055 4.83931 6.43977 4.83794C6.42161 4.80982 6.39875 4.78521 6.37199 4.76509L4.40735 3.01664L5.76615 0.77739L5.76622 0.776804ZM6.13614 5.9473C6.12793 6.08168 6.11485 6.2264 6.11446 6.40101C6.11367 6.92816 6.28536 7.60511 7.14961 8.57211H7.1498C7.1498 8.57231 7.15 8.57231 7.15 8.5725C8.5211 10.1022 10.0435 11.4577 11.2761 13.1903C11.0049 18.6028 8.5697 21.0333 6.19365 22.1758C4.1669 23.1502 2.1882 23.1578 1.63625 23.1379L0.643497 21.0836C2.93335 19.6924 4.30385 18.3877 5.0968 17.101C5.91495 15.7734 6.10245 14.4723 6.0671 13.1922C6.00304 10.8715 5.2593 8.61871 6.13624 5.94766L6.13614 5.9473Z" fill="#0A9386"/>
<path fill-rule="evenodd" clip-rule="evenodd" d="M10.8446 5.27693C10.6993 5.27361 10.5757 5.38181 10.5597 5.52634C10.5438 5.67068 10.6411 5.8033 10.7835 5.83162C11.2521 5.93142 12.0595 6.42927 12.8811 7.25467C13.703 8.08007 14.5585 9.22537 15.2292 10.5978C16.5706 13.3426 17.1805 16.9798 15.3806 20.8793L15.3808 20.8791C15.3479 20.9469 15.3438 21.0248 15.369 21.0957C15.3944 21.1664 15.4472 21.224 15.5153 21.2557C15.5837 21.2871 15.6618 21.2899 15.7319 21.2631C15.8022 21.2365 15.8589 21.1826 15.8892 21.1139C17.7652 17.0498 17.1306 13.2129 15.7325 10.3519C15.0335 8.92144 14.1454 7.73059 13.2782 6.85969C12.411 5.98859 11.5837 5.42959 10.9001 5.28409V5.28389C10.8819 5.27979 10.8632 5.27745 10.8446 5.27686L10.8446 5.27693Z" fill="#0A9386"/>
</svg>
