<svg width="28" height="28" viewBox="0 0 28 28" fill="none" xmlns="http://www.w3.org/2000/svg">
<path d="M12.8994 11.0887C12.8465 11.0414 12.7961 11.0683 12.8206 11.1923C12.9854 11.9447 13.2115 12.8901 13.3974 13.076C13.4752 13.1537 13.5515 13.1949 13.6217 13.2075C13.685 13.2188 13.7461 13.2071 13.799 13.1792C13.857 13.1485 13.9079 13.0978 13.9459 13.0358C13.9957 12.9544 14.0218 12.855 14.0122 12.7558C13.9977 12.6039 13.3827 11.7508 12.8996 11.0893L12.8994 11.0887ZM15.5836 16.9885C15.6365 16.9313 15.6062 16.8764 15.4675 16.9029C14.6252 17.0818 13.5664 17.3279 13.3584 17.5299C13.2716 17.6147 13.2254 17.6975 13.2109 17.7737C13.1978 17.8428 13.2113 17.9086 13.2431 17.9668C13.2776 18.0298 13.3343 18.085 13.4038 18.1262C13.4951 18.1801 13.606 18.2086 13.7174 18.1987C13.8874 18.1831 14.8424 17.5141 15.5835 16.9887L15.5836 16.9885ZM23.4921 8.78852C23.3096 8.88041 23.1119 8.94556 22.9073 8.98814C22.2754 9.12103 21.5794 9.04022 21.1156 8.89823C20.8135 8.80595 20.6292 8.6588 20.5432 8.49502C20.4861 8.3861 20.4712 8.27123 20.4937 8.15954C20.5148 8.05299 20.5701 7.95219 20.6541 7.86426C20.8159 7.69494 21.0925 7.57037 21.4401 7.56047C21.6869 7.55334 21.9454 7.59176 22.2081 7.62998C22.9495 7.7389 23.7275 7.85337 24.0248 6.75878C24.239 5.66815 24.3383 4.62569 24.3825 3.70576C24.3849 3.65982 24.4012 3.61922 24.4291 3.58377C24.4661 3.53743 24.5246 3.50376 24.5943 3.48534C24.6458 3.47208 24.7081 3.46594 24.774 3.46871C24.8988 3.47445 25.0429 3.51465 25.1581 3.60219C25.2009 3.63348 25.2272 3.68497 25.2234 3.74121C25.1868 4.2484 25.0063 5.14333 25.1297 5.58101C25.1971 5.81846 25.2978 6.0571 25.4111 6.22225C25.5014 6.35335 25.5932 6.47534 25.68 6.58526C25.792 6.72626 25.9009 6.85301 25.9897 6.95203C26.3519 7.35425 26.7495 7.79865 27.0885 8.20069C27.4293 8.60469 27.7061 8.96157 27.8188 9.1812C28.0113 9.5551 28.0401 9.89848 27.9537 10.1508C27.9066 10.289 27.825 10.4011 27.7159 10.4792C27.6054 10.5582 27.4705 10.6008 27.3178 10.5984C27.0493 10.594 26.7219 10.4469 26.3824 10.1053C26.0178 9.73809 25.5411 8.6966 25.1315 7.80223C24.9961 7.50655 24.8684 7.2273 24.7565 6.99779C24.6134 7.62995 24.3791 8.11793 24.6421 8.76509C24.6974 8.90095 24.7569 9.03047 24.8156 9.1489C24.8916 9.30218 24.9653 9.43803 25.026 9.5422C25.2829 9.98562 25.5634 10.473 25.7881 10.8936C26.021 11.3299 26.2039 11.7117 26.262 11.9385C26.3619 12.3274 26.3104 12.6611 26.1687 12.8867C26.091 13.0111 25.9867 13.1039 25.8643 13.1582C25.7388 13.214 25.5978 13.2301 25.4494 13.1984C25.1988 13.1453 24.9261 12.9538 24.6855 12.5851C24.4208 12.1795 24.2023 11.1172 24.0146 10.205C23.9772 10.0238 23.9411 9.84913 23.9065 9.68692C23.6583 10.2809 23.2338 10.8789 23.3926 11.5536C23.4185 11.6643 23.4507 11.778 23.4848 11.8854C23.5281 12.0222 23.5703 12.1408 23.6054 12.2304C23.7592 12.6254 23.9262 13.0584 24.0544 13.4265C24.1893 13.8131 24.2908 14.1496 24.3095 14.3441C24.342 14.6815 24.2548 14.9544 24.1059 15.1264C24.0237 15.2214 23.922 15.2872 23.809 15.3181C23.6939 15.3497 23.5709 15.345 23.4485 15.299C23.2439 15.2224 23.0407 15.0279 22.8881 14.69C22.6956 14.2633 22.5692 13.1649 22.4785 12.3758L22.4679 12.2825C22.1931 12.6657 21.9445 12.9446 21.8734 13.4674C21.8292 13.7929 21.8796 14.1199 21.9944 14.4486C22.1077 14.7736 22.2225 15.1121 22.3113 15.4091C22.4021 15.7129 22.4655 15.9742 22.4731 16.1363C22.4884 16.4637 22.3853 16.7307 22.2257 16.8976C22.1393 16.9885 22.036 17.0505 21.9246 17.0794C21.8095 17.1093 21.6875 17.103 21.5673 17.0553C21.3814 16.9814 21.2047 16.8063 21.0793 16.5079C20.9814 16.2736 20.9117 15.8472 20.8699 15.3846C20.8319 14.9616 20.8156 14.5039 20.8208 14.1359C20.443 14.4803 20.1458 14.7166 20.1811 15.3085C20.2036 15.687 20.2271 16.1045 20.2354 16.4713C20.2436 16.846 20.2354 17.1688 20.1926 17.3476C20.1166 17.666 19.9438 17.895 19.745 18.0128C19.6365 18.0772 19.5197 18.1093 19.4041 18.1069C19.2849 18.1045 19.1694 18.0663 19.0675 17.9886C18.9091 17.8674 18.7871 17.6518 18.7491 17.3309C18.715 17.0414 18.7401 16.6061 18.8259 16.1474C18.8653 15.9379 18.9171 15.7224 18.9825 15.5129C18.6088 15.7414 18.3635 15.8062 18.106 16.1559C17.9802 16.3269 17.8696 16.5619 17.8823 16.8729C17.891 17.084 17.8958 17.2884 17.893 17.4658C17.8902 17.649 17.8791 17.8017 17.855 17.9025C17.7897 18.1774 17.6399 18.3752 17.4669 18.4774C17.3718 18.5336 17.2685 18.5622 17.1662 18.5602C17.0605 18.5582 16.9578 18.5241 16.868 18.4552C16.7297 18.3497 16.6236 18.1623 16.5904 17.8855C16.5631 17.6526 16.5659 17.4028 16.6246 17.1236C16.6596 16.9567 16.7154 16.7792 16.7964 16.5885C16.4674 16.7168 16.2451 16.9079 15.9561 17.1127C15.1701 17.6702 14.0175 18.4877 13.7448 18.5125C13.5619 18.5291 13.3808 18.4835 13.2333 18.396C13.1165 18.3269 13.019 18.2299 12.9567 18.1154C12.891 17.9956 12.8635 17.8579 12.891 17.7128C12.9169 17.5751 12.9913 17.4341 13.1296 17.2997C13.4475 16.9907 14.9918 16.6712 15.8806 16.4873C16.0641 16.4495 16.2418 16.4243 16.4142 16.3534C16.3157 16.3313 16.2231 16.3047 16.1362 16.2754C15.8629 16.1827 15.6436 16.0578 15.4549 15.9158C15.2296 15.7464 15.1207 15.5609 15.0992 15.39C15.0853 15.2783 15.1078 15.1737 15.1601 15.0828C15.2105 14.9957 15.2873 14.9234 15.3848 14.8717C15.5624 14.7776 15.8123 14.7511 16.0858 14.8366C16.1885 14.8687 16.3274 14.9365 16.4864 15.0264C16.6329 15.1091 16.8099 15.2189 16.9978 15.3391C17.1928 15.464 17.4109 15.5137 17.6135 15.5227C18.0787 15.544 18.2584 15.4365 18.6176 15.2038C18.4182 15.1664 18.2204 15.1177 18.0317 15.0624C17.5779 14.9285 17.1735 14.7521 16.9281 14.5897C16.6558 14.4099 16.5161 14.2045 16.4791 14.0104C16.4556 13.886 16.4733 13.7666 16.5262 13.6607C16.577 13.5585 16.6592 13.4703 16.7663 13.4052C16.9637 13.2846 17.2495 13.2372 17.5721 13.3167C17.73 13.3555 17.9744 13.4666 18.2558 13.6123C18.5275 13.7533 18.8388 13.9288 19.1399 14.1021C19.3013 14.1948 19.4627 14.2621 19.6255 14.2625C19.7782 14.2629 19.942 14.2043 20.1229 14.051C20.2899 13.9001 20.4509 13.7462 20.6055 13.5892C19.7656 13.6369 18.835 13.1335 18.4258 12.9115L18.4013 12.8982C18.1141 12.7429 17.9572 12.5504 17.9029 12.3601C17.8679 12.2376 17.8756 12.1173 17.9182 12.008C17.9594 11.9015 18.0339 11.8074 18.1348 11.7331C18.3207 11.5959 18.6011 11.524 18.9295 11.5747C19.0927 11.6003 19.3491 11.6906 19.6454 11.8132C19.932 11.9314 20.2616 12.0815 20.5799 12.2296C20.7769 12.3215 21.0669 12.4043 21.3559 12.3447C21.8501 12.2429 22.0925 11.7476 22.3244 11.3563C22.1958 11.3998 22.0579 11.4329 21.9176 11.4547C21.5474 11.5119 21.1527 11.4925 20.8534 11.3832C20.5835 11.2848 20.3152 11.1816 20.0788 11.0784C19.8407 10.9748 19.6409 10.873 19.5141 10.7794C19.2134 10.5584 19.0661 10.3195 19.0353 10.1065C19.017 9.97872 19.0397 9.8595 19.0962 9.75592C19.1519 9.65413 19.2393 9.57135 19.3517 9.51312C19.5549 9.40816 19.8443 9.38479 20.1709 9.49035C20.3433 9.5462 20.5377 9.62719 20.7428 9.71235C21.6125 10.0734 22.6988 10.5243 23.2908 9.34419C23.362 9.15823 23.4281 8.97227 23.4906 8.78631L23.4921 8.78852ZM23.7938 7.77297C23.3458 8.12034 22.7437 8.03182 22.1607 7.94606C21.911 7.90923 21.6646 7.87319 21.4504 7.87932C21.1943 7.88645 20.9986 7.97023 20.89 8.0837C20.8478 8.12767 20.8209 8.175 20.8112 8.22194C20.803 8.26313 20.8088 8.3061 20.8305 8.34789C20.8796 8.44157 21.001 8.53049 21.2118 8.59485C21.6345 8.72397 22.2667 8.79784 22.8401 8.67723C23.0379 8.63564 23.2282 8.57069 23.3986 8.47662C23.7324 8.29264 23.7003 8.13163 23.7937 7.77297H23.7938ZM22.9016 10.2695C22.2077 10.6673 21.3473 10.3101 20.6191 10.0083C20.4252 9.92785 20.2413 9.85121 20.0713 9.79635C19.8335 9.71932 19.6348 9.73001 19.5042 9.79774C19.4485 9.82665 19.4063 9.86487 19.3818 9.91043C19.3582 9.9534 19.3492 10.0061 19.3572 10.0643C19.3769 10.1996 19.4851 10.362 19.7092 10.5271C19.8153 10.6052 19.9933 10.6951 20.2104 10.7897C20.4295 10.8848 20.6939 10.9866 20.9667 11.0864C21.2145 11.1767 21.5491 11.1914 21.8675 11.1422C22.059 11.1123 22.2421 11.0605 22.3938 10.988C22.7035 10.8398 22.7598 10.5711 22.9005 10.2697L22.9016 10.2695ZM21.4341 12.6563C21.4307 12.6572 21.4275 12.6576 21.4241 12.6586C21.0515 12.7353 20.6879 12.6331 20.4435 12.5196C20.1314 12.3742 19.8068 12.2267 19.522 12.1089C19.2468 11.9954 19.0153 11.912 18.8815 11.8912C18.6457 11.8548 18.4526 11.8997 18.3316 11.9896C18.2793 12.0285 18.2417 12.0748 18.222 12.1245C18.2038 12.1709 18.2009 12.2229 18.2162 12.2764C18.2484 12.3891 18.3559 12.5111 18.5601 12.6214L18.5846 12.6347C18.998 12.8585 19.9882 13.3945 20.7608 13.2542C21.0792 13.1965 21.2367 12.9068 21.4345 12.6571L21.4341 12.6563ZM19.5047 14.5745C19.3208 14.5503 19.1474 14.4757 18.9794 14.3786C18.6835 14.2083 18.3766 14.035 18.1073 13.8954C17.8475 13.7605 17.6272 13.6597 17.4959 13.6277C17.2644 13.5708 17.068 13.5993 16.9394 13.6784C16.8838 13.7124 16.8424 13.755 16.8185 13.8033C16.7963 13.8479 16.7891 13.899 16.7998 13.9538C16.8219 14.0689 16.9179 14.1994 17.1109 14.3267C17.3332 14.4735 17.705 14.6347 18.127 14.7593C18.3334 14.8203 18.5515 14.8723 18.7691 14.9092C19.0764 14.9613 19.2647 14.763 19.5043 14.5747L19.5047 14.5745ZM17.5315 15.838C17.2986 15.8186 17.0513 15.7528 16.8242 15.6071C16.6528 15.4974 16.4834 15.3928 16.3276 15.3053C16.1849 15.2249 16.067 15.1656 15.9906 15.1421C15.8061 15.0848 15.6473 15.0971 15.5412 15.1534C15.497 15.1769 15.4634 15.2072 15.4427 15.2429C15.4244 15.2742 15.4168 15.3114 15.422 15.3522C15.4335 15.4435 15.5042 15.5524 15.6535 15.6645C15.8167 15.7875 16.0071 15.8958 16.2442 15.9764C16.4474 16.0449 16.6845 16.0939 16.9693 16.1147C17.1615 16.0257 17.3488 15.9338 17.5313 15.8392L17.5315 15.838ZM17.7005 16.2042C17.5516 16.2743 17.4004 16.3418 17.2457 16.4082C17.0877 16.6991 16.9941 16.9565 16.9446 17.1904C16.8938 17.4322 16.8914 17.6485 16.9149 17.8495C16.9366 18.0335 16.9951 18.1486 17.069 18.2048C17.1022 18.2299 17.1386 18.2426 17.1756 18.2432C17.2164 18.2442 17.2596 18.2313 17.3024 18.2058C17.4061 18.1442 17.4983 18.0161 17.5425 17.8301C17.5612 17.7511 17.5705 17.6214 17.5729 17.4615C17.5753 17.2964 17.5705 17.0972 17.5618 16.8862C17.5508 16.6117 17.6113 16.386 17.7007 16.2034L17.7005 16.2042ZM19.9123 14.8868C19.7197 15.0302 19.4605 15.1391 19.3749 15.3681C19.2746 15.6368 19.1982 15.9264 19.1458 16.2062C19.0656 16.6335 19.0417 17.0328 19.0728 17.294C19.0997 17.5215 19.1737 17.6659 19.2677 17.7374C19.3124 17.7715 19.3624 17.7885 19.4129 17.7895C19.4671 17.7905 19.5242 17.7739 19.5799 17.7408C19.7101 17.6637 19.8253 17.5047 19.8795 17.2752C19.9151 17.1247 19.9217 16.829 19.9141 16.4789C19.9065 16.1206 19.8829 15.7061 19.8602 15.3286C19.852 15.1928 19.8703 15.0428 19.9121 14.8872L19.9123 14.8868ZM21.1569 13.8515C21.1338 14.2329 21.1459 14.8224 21.1939 15.3566C21.2333 15.7925 21.2952 16.1856 21.3792 16.3868C21.468 16.5987 21.579 16.7171 21.6895 16.7611C21.7414 16.7815 21.7936 16.7843 21.8427 16.7716C21.8955 16.7579 21.9464 16.7262 21.991 16.6793C22.0947 16.5704 22.1614 16.3868 22.1504 16.1517C22.1441 16.0179 22.0854 15.7818 22.0014 15.5001C21.915 15.212 21.8017 14.8765 21.6883 14.5523C21.5581 14.18 21.5016 13.8051 21.5535 13.4257C21.5635 13.35 21.1587 13.815 21.1567 13.8511L21.1569 13.8515ZM23.0465 11.4009C22.9505 11.5613 22.8512 11.7207 22.7469 11.8794C22.7638 12.0122 22.7815 12.1689 22.8016 12.3408C22.89 13.1098 23.0128 14.1796 23.1848 14.5604C23.2986 14.8131 23.435 14.9528 23.5651 15.0009C23.6213 15.0223 23.675 15.025 23.723 15.0118C23.7735 14.9981 23.8205 14.9664 23.8619 14.9191C23.9574 14.8084 24.0122 14.62 23.9887 14.3745C23.9729 14.2075 23.8778 13.896 23.7506 13.5318C23.6165 13.1486 23.4543 12.7264 23.3058 12.3452C23.2664 12.2434 23.2204 12.1166 23.1776 11.9804C23.1434 11.8721 23.1098 11.7518 23.0801 11.6259C23.0638 11.5578 23.0532 11.4815 23.0475 11.4011L23.0465 11.4009ZM24.2807 8.69765C24.2289 8.85054 24.1746 9.00342 24.1175 9.15612C24.1839 9.4211 24.2554 9.76845 24.3322 10.1414C24.5143 11.0258 24.7265 12.0564 24.9585 12.4127C25.1476 12.7029 25.3455 12.85 25.5184 12.8865C25.5966 12.9031 25.6687 12.8954 25.7306 12.868C25.7955 12.8391 25.8516 12.7886 25.8948 12.7195C25.9933 12.5619 26.0259 12.3169 25.9491 12.0172C25.8976 11.817 25.7248 11.4584 25.5025 11.0421C25.2716 10.6102 24.9972 10.1327 24.7466 9.70015C24.6817 9.58846 24.604 9.44607 24.5258 9.28803C24.4625 9.1597 24.399 9.02206 24.3433 8.88442C24.3202 8.82719 24.2997 8.76461 24.2818 8.69807L24.2807 8.69765ZM24.9482 6.03699C24.8984 6.32375 24.8172 6.40515 24.9478 6.65785C25.0857 6.92381 25.2499 7.28286 25.4271 7.67004C25.8263 8.5416 26.291 9.55719 26.6141 9.88278C26.8868 10.1577 27.1332 10.2755 27.3234 10.2789C27.404 10.2802 27.4723 10.2598 27.5255 10.2216C27.5798 10.1828 27.6216 10.1232 27.6475 10.0485C27.708 9.87208 27.6807 9.6174 27.5304 9.32547C27.4291 9.12902 27.1664 8.79116 26.8394 8.40378C26.511 8.01383 26.1124 7.56862 25.7479 7.16404C25.6576 7.06423 25.5453 6.93313 25.4261 6.78262C25.33 6.66142 25.2326 6.53229 25.1437 6.40317C25.0726 6.29999 25.0058 6.17364 24.9484 6.03779L24.9482 6.03699ZM1.89214 13.5054C1.96087 13.5674 2.02699 13.5319 1.99544 13.3701C1.78039 12.3865 1.48455 11.1509 1.24158 10.9081C1.13969 10.8063 1.0404 10.7528 0.948757 10.7358C0.865751 10.7208 0.786368 10.7362 0.716827 10.7732C0.640855 10.8134 0.574736 10.8798 0.525292 10.9612C0.460377 11.0677 0.426409 11.1972 0.438469 11.3274C0.45716 11.5256 1.26147 12.641 1.89298 13.5058L1.89214 13.5054ZM11.7506 22.7376C11.6401 22.5247 11.5619 22.2932 11.5104 22.0547C11.351 21.317 11.4475 20.5051 11.6186 19.9632C11.7295 19.6107 11.9068 19.3954 12.1031 19.295C12.2342 19.2283 12.372 19.2108 12.5061 19.2374C12.6339 19.2625 12.7553 19.3269 12.861 19.4247C13.0646 19.6135 13.2145 19.9367 13.226 20.3426C13.2342 20.6308 13.1886 20.9322 13.1424 21.2388C13.0113 22.1042 12.8739 23.0128 14.1897 23.3592C15.501 23.6095 16.754 23.7254 17.8599 23.7765C17.9152 23.7788 17.9641 23.7982 18.0069 23.8309C18.0625 23.8745 18.1029 23.942 18.125 24.024C18.1413 24.084 18.1486 24.1565 18.1447 24.2335C18.1375 24.3793 18.0895 24.5472 17.984 24.6817C17.946 24.7318 17.8841 24.7627 17.8163 24.7579C17.2065 24.7158 16.1307 24.5043 15.6046 24.6486C15.3188 24.7267 15.0322 24.8451 14.8338 24.9776C14.6763 25.0825 14.5294 25.1901 14.3977 25.2913C14.2283 25.4218 14.0755 25.5491 13.957 25.6533C13.4734 26.0759 12.9394 26.5401 12.4558 26.9356C11.9699 27.3335 11.541 27.6563 11.2769 27.7884C10.8275 28.0131 10.4145 28.0468 10.1114 27.946C9.94523 27.8905 9.81037 27.7955 9.71672 27.6681C9.62165 27.5394 9.57081 27.3818 9.57362 27.2029C9.57885 26.8896 9.75571 26.5074 10.1661 26.1114C10.6075 25.686 11.8598 25.1291 12.935 24.6512C13.2903 24.4932 13.626 24.344 13.9021 24.2129C13.142 24.046 12.5551 23.7725 11.7772 24.0794C11.614 24.1438 11.4578 24.2133 11.3157 24.2815C11.1312 24.37 10.9686 24.4565 10.8432 24.527C10.3102 24.8271 9.72435 25.1544 9.2187 25.4166C8.69436 25.6887 8.23532 25.902 7.96258 25.9698C7.4949 26.0862 7.09394 26.0266 6.82202 25.8614C6.6727 25.7705 6.56075 25.6489 6.49543 25.5061C6.4281 25.36 6.40901 25.1952 6.44699 25.0221C6.5109 24.7292 6.74082 24.4112 7.18459 24.1301C7.67197 23.8216 8.9494 23.5661 10.0461 23.3471C10.2636 23.3035 10.474 23.2615 10.6689 23.2207C9.95526 22.9306 9.23593 22.4357 8.4244 22.6213C8.29135 22.6516 8.15508 22.6894 8.02585 22.7286C7.86105 22.7787 7.71896 22.8284 7.61103 22.8692C7.13612 23.0487 6.61521 23.2435 6.17283 23.3935C5.70796 23.5511 5.30357 23.6689 5.06983 23.6911C4.66406 23.7289 4.33604 23.6271 4.12906 23.4537C4.0147 23.3576 3.93592 23.2388 3.89853 23.1073C3.86055 22.9728 3.86597 22.829 3.92104 22.6861C4.01329 22.4476 4.24703 22.21 4.65339 22.0321C5.16629 21.8074 6.48673 21.6602 7.43574 21.5543L7.54769 21.542C7.08724 21.2212 6.752 20.931 6.12333 20.8479C5.73202 20.7964 5.3387 20.8554 4.94336 20.9889C4.55245 21.1214 4.14567 21.2552 3.78855 21.3588C3.42316 21.4648 3.10904 21.539 2.91409 21.5476C2.52037 21.5656 2.19959 21.445 1.99883 21.259C1.8899 21.1582 1.81494 21.0376 1.78037 20.9075C1.74439 20.773 1.75203 20.6306 1.80971 20.4906C1.89855 20.274 2.10937 20.0672 2.46813 19.9214C2.7495 19.807 3.26242 19.726 3.81891 19.6772C4.32739 19.6327 4.87767 19.6139 5.32045 19.6204C4.90643 19.1794 4.62226 18.832 3.9106 18.8738C3.45538 18.9003 2.95392 18.9276 2.51279 18.9371C2.06239 18.9466 1.67429 18.9367 1.45923 18.8874C1.07596 18.7989 0.800816 18.5973 0.659121 18.365C0.581744 18.2386 0.542956 18.102 0.54577 17.9671C0.548584 17.8281 0.594809 17.6926 0.688463 17.5738C0.833971 17.3888 1.09384 17.2464 1.47931 17.2023C1.82741 17.1621 2.35037 17.1914 2.90223 17.2918C3.15386 17.3377 3.41272 17.3983 3.66473 17.4744C3.38999 17.0381 3.31181 16.7517 2.89158 16.4513C2.68658 16.3045 2.4032 16.1754 2.02958 16.1901C1.77554 16.2 1.53014 16.2057 1.31688 16.2024C1.09641 16.199 0.913112 16.1857 0.791519 16.1578C0.461108 16.0815 0.222937 15.9065 0.0999702 15.7049C0.0322405 15.5938 -0.00192777 15.4736 8.39498e-05 15.3543C0.00249565 15.2308 0.0432944 15.1111 0.126298 15.006C0.25352 14.8446 0.478817 14.7202 0.811621 14.6824C1.09118 14.6503 1.39162 14.6535 1.72729 14.7222C1.92806 14.7634 2.14171 14.8277 2.37083 14.9228C2.21668 14.5386 1.98717 14.2794 1.74077 13.9419C1.07031 13.0244 0.087504 11.6791 0.0575597 11.3606C0.037462 11.1467 0.0921283 10.9356 0.197238 10.7639C0.280243 10.6277 0.397011 10.514 0.534883 10.4407C0.678986 10.3641 0.84459 10.3324 1.01884 10.3641C1.18404 10.3944 1.35407 10.4815 1.51546 10.6427C1.88666 11.0136 2.27075 12.817 2.4922 13.8542C2.53782 14.0684 2.56756 14.2754 2.65358 14.4774C2.68051 14.3623 2.71166 14.2546 2.74724 14.1528C2.85858 13.834 3.00891 13.5775 3.17995 13.3574C3.38354 13.0948 3.60683 12.9671 3.81181 12.942C3.94587 12.9253 4.07168 12.9519 4.18101 13.0134C4.28572 13.0721 4.37255 13.162 4.43505 13.2761C4.5484 13.4838 4.58016 13.7747 4.47726 14.0942C4.43887 14.214 4.35727 14.3762 4.24874 14.5618C4.14926 14.7327 4.01721 14.9398 3.87271 15.1588C3.72298 15.3864 3.66289 15.6411 3.65183 15.8775C3.62631 16.4208 3.75514 16.6303 4.0351 17.0495C4.08032 16.8166 4.1384 16.5857 4.20553 16.3657C4.36691 15.8358 4.57875 15.364 4.7737 15.0773C4.98975 14.7592 5.23655 14.596 5.47008 14.553C5.61982 14.5255 5.76291 14.5465 5.89073 14.6079C6.01373 14.6671 6.11925 14.7635 6.19803 14.8885C6.34314 15.1184 6.39982 15.4525 6.30455 15.8292C6.25793 16.0138 6.12447 16.2992 5.94922 16.6275C5.7798 16.945 5.56897 17.3084 5.36058 17.6595C5.24923 17.8474 5.16844 18.0362 5.16744 18.2263C5.16643 18.4041 5.23758 18.5954 5.42188 18.807C5.60336 19.0024 5.78866 19.1898 5.97698 19.37C5.91929 18.3895 6.52482 17.303 6.79134 16.8251L6.80721 16.7962C6.99392 16.4611 7.22545 16.2776 7.45395 16.2142C7.60087 16.1736 7.74537 16.1821 7.87741 16.2316C8.00524 16.28 8.11839 16.3665 8.20823 16.4843C8.37343 16.701 8.45985 17.0285 8.39835 17.4122C8.368 17.6029 8.25867 17.9019 8.11176 18.2479C7.96967 18.5824 7.78899 18.9676 7.61092 19.3385C7.50098 19.568 7.40109 19.9069 7.47264 20.2448C7.59464 20.8217 8.19094 21.1044 8.66064 21.3758C8.60838 21.2253 8.56839 21.0645 8.54246 20.9007C8.47332 20.4688 8.49684 20.0077 8.62788 19.6582C8.74646 19.3431 8.87046 19.0298 8.99426 18.7543C9.11907 18.4761 9.24107 18.2434 9.35342 18.0952C9.61891 17.7447 9.9061 17.5724 10.1626 17.5364C10.3163 17.515 10.4598 17.5411 10.5842 17.6079C10.7062 17.6726 10.8061 17.7748 10.8763 17.9059C11.0025 18.1434 11.0304 18.4809 10.9032 18.8623C10.8359 19.0639 10.739 19.2904 10.6367 19.5299C10.2026 20.5448 9.66031 21.8131 11.0794 22.5042C11.3027 22.587 11.5264 22.6647 11.7503 22.7375L11.7506 22.7376ZM12.9717 23.0897C12.5545 22.5663 12.6606 21.8636 12.7637 21.1832C12.8079 20.8913 12.8515 20.6039 12.8439 20.3536C12.8353 20.0546 12.735 19.826 12.5985 19.6993C12.5453 19.6502 12.4886 19.6183 12.4323 19.6074C12.3825 19.5979 12.331 19.6046 12.281 19.6302C12.1686 19.6874 12.0615 19.8294 11.9837 20.075C11.8282 20.5685 11.7397 21.3066 11.8848 21.9762C11.9347 22.2071 12.0127 22.4291 12.1258 22.6283C12.3471 23.0177 12.5406 22.9804 12.9719 23.0897L12.9717 23.0897ZM9.97051 22.0482C9.49178 21.238 9.92147 20.2336 10.2846 19.3842C10.3817 19.1576 10.4734 18.9427 10.5397 18.7449C10.6323 18.467 10.6189 18.2353 10.5377 18.0828C10.5031 18.0175 10.4565 17.9688 10.4022 17.9398C10.3504 17.9123 10.2875 17.9014 10.2169 17.9115C10.0541 17.9343 9.85917 18.0606 9.66042 18.3227C9.56636 18.4466 9.45823 18.6544 9.34488 18.9081C9.23012 19.1635 9.10813 19.4721 8.98854 19.7909C8.88001 20.0801 8.86173 20.4708 8.92122 20.8427C8.95679 21.0661 9.0197 21.28 9.10712 21.4574C9.28479 21.8189 9.60796 21.8842 9.97052 22.049L9.97051 22.0482ZM7.10075 20.3347C7.09974 20.331 7.09874 20.3266 7.09833 20.3229C7.00608 19.8876 7.12908 19.4632 7.26595 19.1778C7.4408 18.8134 7.61847 18.4343 7.75956 18.1022C7.89602 17.781 7.99631 17.5107 8.02123 17.354C8.06545 17.0785 8.01058 16.8534 7.90305 16.712C7.85643 16.651 7.80075 16.607 7.74066 16.5842C7.68439 16.5628 7.62249 16.5597 7.55817 16.5771C7.42271 16.6145 7.2762 16.7399 7.14335 16.9783L7.12748 17.0072C6.85856 17.4899 6.21361 18.6458 6.38262 19.5477C6.45216 19.9192 6.79986 20.1032 7.10052 20.3345L7.10075 20.3347ZM4.79431 18.0824C4.82366 17.8675 4.91349 17.6655 5.02966 17.4691C5.23466 17.1237 5.44267 16.7654 5.61028 16.4513C5.77207 16.1479 5.89366 15.8911 5.93245 15.7378C6.00058 15.4677 5.96662 15.2385 5.87195 15.0881C5.83115 15.0233 5.7797 14.975 5.72162 14.9471C5.66836 14.9215 5.60686 14.913 5.54114 14.9249C5.40287 14.9504 5.2459 15.0625 5.09255 15.2879C4.91629 15.5471 4.72235 15.981 4.57244 16.4741C4.49888 16.7155 4.43658 16.9696 4.39236 17.2231C4.32986 17.5818 4.56862 17.8018 4.79432 18.0814L4.79431 18.0824ZM3.27549 15.779C3.299 15.5069 3.37819 15.2187 3.55304 14.9534C3.68508 14.7531 3.81049 14.5555 3.91601 14.3737C4.01308 14.2071 4.08403 14.0695 4.11237 13.9804C4.18151 13.7651 4.16623 13.5795 4.0985 13.4555C4.07016 13.404 4.03318 13.3646 3.99098 13.3411C3.9536 13.3197 3.90877 13.3108 3.85994 13.3169C3.75 13.3302 3.61936 13.4129 3.48451 13.587C3.33659 13.7777 3.20656 13.9995 3.10988 14.2764C3.02728 14.5135 2.9688 14.7908 2.94427 15.123C3.05139 15.3474 3.16174 15.5659 3.27509 15.779L3.27549 15.779ZM2.83514 15.9762C2.75114 15.8025 2.66954 15.6257 2.58975 15.4453C2.24025 15.2613 1.93036 15.1514 1.64897 15.0937C1.35796 15.0341 1.09809 15.0314 0.856737 15.0593C0.635458 15.0848 0.496984 15.153 0.429254 15.2391C0.398907 15.2775 0.384034 15.3205 0.38323 15.3635C0.382225 15.4108 0.3977 15.4619 0.427847 15.5116C0.501808 15.6328 0.655959 15.7405 0.879245 15.7916C0.97431 15.8134 1.13047 15.8243 1.322 15.8271C1.52077 15.8299 1.76034 15.8243 2.01355 15.8142C2.34396 15.8009 2.6147 15.8724 2.83476 15.9766L2.83514 15.9762ZM4.41885 18.5585C4.24641 18.3337 4.11577 18.0313 3.84023 17.9311C3.51706 17.8137 3.16896 17.7248 2.83273 17.6638C2.31882 17.5701 1.8387 17.5422 1.52454 17.5786C1.25081 17.6099 1.07756 17.6964 0.991564 17.8062C0.950765 17.8582 0.930064 17.9165 0.929061 17.9755C0.927654 18.0388 0.947752 18.1056 0.987545 18.1709C1.0802 18.3228 1.27133 18.4573 1.54748 18.5207C1.72796 18.5623 2.08391 18.5698 2.50493 18.5609C2.93563 18.552 3.43408 18.5244 3.88787 18.4979C4.05107 18.4884 4.23115 18.5098 4.41843 18.5585L4.41885 18.5585ZM5.66349 20.0117C5.20485 19.9848 4.49618 19.9989 3.85407 20.0547C3.3301 20.1006 2.85722 20.1729 2.61566 20.2714C2.36122 20.3749 2.21852 20.5047 2.16566 20.6334C2.14074 20.694 2.13773 20.755 2.1526 20.8122C2.16888 20.8742 2.20686 20.9334 2.26354 20.9853C2.39418 21.1065 2.61505 21.1841 2.89782 21.1713C3.0586 21.1641 3.34259 21.0956 3.68106 20.9976C4.02775 20.8968 4.43069 20.7643 4.82058 20.6322C5.26816 20.4803 5.71897 20.4141 6.17518 20.4745C6.26602 20.4864 5.70689 20.0137 5.66369 20.0113L5.66349 20.0117ZM8.60966 22.2173C8.41652 22.1056 8.22498 21.9888 8.03485 21.8672C7.87487 21.8866 7.68676 21.9078 7.48016 21.9311C6.55585 22.0343 5.26938 22.1781 4.81157 22.3787C4.50809 22.5116 4.34007 22.6712 4.28137 22.8225C4.25585 22.8879 4.25263 22.9509 4.26831 23.0065C4.28519 23.0651 4.32297 23.1206 4.38025 23.1683C4.5133 23.28 4.74001 23.3438 5.03522 23.3164C5.236 23.2974 5.61003 23.1873 6.04834 23.0386C6.50938 22.8819 7.01643 22.6926 7.47506 22.5195C7.59706 22.4736 7.75021 22.4197 7.9134 22.37C8.04404 22.3302 8.18813 22.2906 8.33927 22.2559C8.42147 22.2369 8.51312 22.2247 8.60959 22.2175L8.60966 22.2173ZM11.8597 23.6583C11.6762 23.5983 11.4923 23.5347 11.3084 23.468C10.9901 23.545 10.5722 23.6288 10.1242 23.7183C9.06063 23.9308 7.82159 24.1781 7.39373 24.4494C7.04503 24.6705 6.86836 24.9008 6.82417 25.103C6.80447 25.1943 6.81311 25.2785 6.84627 25.3506C6.88084 25.4262 6.94234 25.4916 7.02495 25.5423C7.21407 25.6573 7.50951 25.6951 7.86905 25.6056C8.10962 25.5456 8.54094 25.344 9.04114 25.0842C9.56069 24.8149 10.1347 24.4942 10.6542 24.2017C10.7883 24.1265 10.9597 24.0352 11.1498 23.9439C11.304 23.87 11.4692 23.7963 11.6348 23.7304C11.7035 23.7035 11.7789 23.6793 11.8591 23.6585L11.8597 23.6583ZM15.0583 24.4376C14.7134 24.3793 14.6155 24.2843 14.312 24.4372C13.9923 24.598 13.5606 24.7901 13.0951 24.997C12.0472 25.4626 10.8267 26.0055 10.4352 26.3829C10.1048 26.7014 9.96268 26.9885 9.95926 27.2109C9.95786 27.305 9.98238 27.3846 10.028 27.4466C10.075 27.51 10.1462 27.5587 10.2364 27.589C10.4486 27.6595 10.7549 27.6278 11.106 27.4521C11.3424 27.3339 11.7481 27.0271 12.2144 26.6453C12.6831 26.2615 13.2185 25.7965 13.7049 25.3711C13.8249 25.2662 13.9825 25.1345 14.1629 24.9954C14.3084 24.8833 14.464 24.7697 14.6192 24.6661C14.7436 24.5827 14.8953 24.5057 15.0585 24.4376L15.0583 24.4376ZM5.3588 4.02532C5.44341 4.18811 5.5033 4.36516 5.5427 4.54777C5.66469 5.11219 5.59073 5.73366 5.46009 6.14812C5.37508 6.41785 5.23961 6.58242 5.08929 6.65906C4.989 6.71015 4.88368 6.72342 4.78098 6.70362C4.68311 6.6846 4.59026 6.63549 4.50926 6.56024C4.3531 6.41547 4.23895 6.16851 4.2297 5.85796C4.22347 5.63754 4.25804 5.40663 4.29361 5.17236C4.3939 4.51029 4.49921 3.81516 3.49211 3.54981C2.48903 3.35811 1.52994 3.26978 0.68445 3.23037C0.642244 3.22839 0.60466 3.21373 0.572102 3.18878C0.529293 3.15571 0.498543 3.10362 0.481863 3.04124C0.469402 2.99529 0.463573 2.94004 0.466588 2.88082C0.471814 2.76913 0.508794 2.64099 0.589586 2.53781C0.618326 2.49939 0.66596 2.47623 0.717812 2.47959C1.18448 2.51167 2.00711 2.67367 2.41008 2.56336C2.62854 2.50375 2.84801 2.41345 2.99975 2.31205C3.12034 2.23165 3.23268 2.14966 3.33358 2.07222C3.46321 1.9724 3.57998 1.87497 3.67062 1.79536C4.04042 1.47216 4.44902 1.11727 4.81921 0.814445C5.19082 0.510254 5.5194 0.263099 5.72098 0.161904C6.06486 -0.00979636 6.38079 -0.0359365 6.61273 0.0412976C6.73954 0.0834803 6.84265 0.156358 6.9148 0.253795C6.98735 0.352221 7.02675 0.472828 7.02433 0.609674C7.02051 0.849108 6.88506 1.14201 6.57092 1.44483C6.23328 1.77041 5.2754 2.19618 4.4528 2.56197C4.18108 2.68258 3.92404 2.79705 3.71279 2.89706C4.29423 3.02479 4.7434 3.23393 5.33832 2.99925C5.46313 2.95013 5.58271 2.89666 5.69124 2.84458C5.83233 2.77685 5.95674 2.7107 6.0528 2.65664C6.46059 2.42711 6.90899 2.17679 7.29564 1.97616C7.697 1.76802 8.04811 1.60464 8.25653 1.55275C8.61428 1.46383 8.92117 1.50918 9.12898 1.63553C9.24334 1.70504 9.32876 1.79832 9.3792 1.90704C9.43065 2.01874 9.44553 2.14509 9.41618 2.27758C9.36715 2.50196 9.19149 2.74516 8.85203 2.95983C8.47941 3.19589 7.50165 3.39136 6.66275 3.55888C6.49614 3.59195 6.33515 3.62424 6.18643 3.65533C6.73248 3.87733 7.28279 4.25621 7.9036 4.11439C8.00549 4.09122 8.1096 4.0623 8.20848 4.032C8.33429 3.99358 8.44323 3.95536 8.52583 3.92466C8.8894 3.78742 9.28792 3.6383 9.626 3.52343C9.98174 3.40282 10.2911 3.31232 10.4697 3.29588C10.78 3.26696 11.031 3.3446 11.1896 3.47768C11.277 3.55095 11.3375 3.64186 11.3658 3.74266C11.3952 3.84524 11.3908 3.95555 11.3486 4.06487C11.278 4.24747 11.0989 4.42927 10.7886 4.56513C10.3963 4.73683 9.38597 4.84991 8.65985 4.93091L8.57443 4.94041C8.92695 5.18599 9.1834 5.40799 9.66395 5.47138C9.96361 5.51118 10.2643 5.46563 10.5668 5.36345C10.866 5.26225 11.1771 5.15946 11.4503 5.08045C11.7298 4.99905 11.9698 4.94281 12.1191 4.93568C12.4202 4.92201 12.6656 5.0143 12.8193 5.15669C12.9029 5.23373 12.96 5.32601 12.9863 5.42543C13.0137 5.52802 13.008 5.63734 12.9642 5.74428C12.8961 5.91044 12.7351 6.06847 12.4606 6.18017C12.2455 6.26771 11.853 6.32969 11.4271 6.36712C11.0382 6.40119 10.617 6.41545 10.2785 6.41069C10.5955 6.74815 10.8126 7.01355 11.357 6.98186C11.7051 6.96147 12.0888 6.94067 12.4264 6.93354C12.7713 6.92602 13.0679 6.93354 13.2327 6.97196C13.5256 7.03969 13.7364 7.19397 13.8445 7.37181C13.9036 7.46885 13.9334 7.57281 13.9314 7.67659C13.9294 7.78314 13.894 7.88612 13.8224 7.97702C13.7111 8.11842 13.5121 8.22734 13.2173 8.26141C12.9508 8.2921 12.5508 8.26953 12.1286 8.19288C11.936 8.15783 11.7377 8.11149 11.5451 8.05326C11.7555 8.38676 11.815 8.60598 12.1368 8.83595C12.2938 8.94804 12.5104 9.04706 12.7966 9.03557C12.9912 9.02805 13.1785 9.02369 13.3421 9.02607C13.5107 9.02844 13.6514 9.03894 13.744 9.06013C13.9971 9.11835 14.1792 9.25223 14.2732 9.4065C14.3251 9.49166 14.3514 9.58355 14.3496 9.67485C14.3476 9.76951 14.3164 9.86081 14.2531 9.94122C14.156 10.0648 13.9838 10.1599 13.7288 10.1892C13.5145 10.2137 13.285 10.2109 13.0282 10.1589C12.8744 10.1276 12.7112 10.0779 12.536 10.0056C12.6536 10.2995 12.8298 10.4981 13.0181 10.756C13.531 11.4576 14.2831 12.4874 14.3056 12.731C14.3209 12.8948 14.2793 13.056 14.1985 13.1877C14.1346 13.2919 14.0457 13.3788 13.9402 13.4347C13.8297 13.4933 13.7035 13.518 13.57 13.4933C13.4438 13.4701 13.3136 13.4034 13.1902 13.2798C12.906 12.9958 12.612 11.6164 12.4429 10.8231C12.408 10.6593 12.3853 10.5009 12.3195 10.3466C12.2988 10.4345 12.2749 10.5175 12.248 10.595C12.1626 10.8391 12.0478 11.035 11.9172 11.2035C11.7616 11.4046 11.5906 11.5022 11.4336 11.5216C11.3309 11.5339 11.2349 11.5141 11.1512 11.4671C11.0711 11.4222 11.0043 11.3537 10.9567 11.2665C10.8699 11.1075 10.8458 10.8847 10.9245 10.6405C10.9539 10.5486 11.0168 10.4246 11.0994 10.2828C11.1754 10.1523 11.2767 9.9937 11.387 9.82576C11.5018 9.65168 11.5474 9.4572 11.556 9.27598C11.5753 8.86049 11.4768 8.7001 11.2632 8.37923C11.2286 8.55707 11.184 8.73372 11.133 8.90203C11.0096 9.30762 10.8472 9.66803 10.6984 9.88766C10.5332 10.1309 10.3441 10.2558 10.1655 10.2885C10.0507 10.3099 9.94118 10.2936 9.8437 10.2463C9.74965 10.201 9.66885 10.1275 9.60836 10.032C9.49742 9.85597 9.4538 9.6005 9.52676 9.31236C9.56233 9.17096 9.66463 8.95312 9.79848 8.702C9.92811 8.4592 10.0895 8.18097 10.2489 7.91283C10.3343 7.76905 10.3958 7.62468 10.3968 7.47932C10.3972 7.34306 10.3429 7.19691 10.2023 7.03491C10.0634 6.88539 9.92189 6.74201 9.77778 6.60378C9.822 7.35376 9.35854 8.18512 9.15456 8.5505L9.1425 8.57228C8.99981 8.82875 8.82275 8.96936 8.64789 9.01748C8.53554 9.04877 8.42461 9.04204 8.32371 9.00381C8.22584 8.96698 8.13921 8.90063 8.07068 8.81072C7.94446 8.64457 7.87814 8.39425 7.92517 8.10094C7.94868 7.95519 8.03169 7.72625 8.14464 7.46169C8.25357 7.20562 8.39144 6.91135 8.5279 6.62754C8.61191 6.45208 8.68829 6.19265 8.63362 5.93439C8.53996 5.49296 8.08433 5.27668 7.72459 5.06938C7.76499 5.18444 7.79513 5.30742 7.81543 5.43278C7.86829 5.76351 7.8504 6.11605 7.75011 6.38338C7.65927 6.62479 7.56421 6.86422 7.46975 7.07516C7.37428 7.28766 7.28103 7.46609 7.19501 7.57957C6.99182 7.84792 6.77195 7.97981 6.57601 8.00734C6.45843 8.02397 6.3489 8.00358 6.25324 7.95288C6.15998 7.90317 6.08321 7.82514 6.02995 7.72474C5.93348 7.54294 5.91178 7.28469 6.00925 6.99316C6.0607 6.83888 6.13506 6.6658 6.21324 6.48262C6.54546 5.70612 6.9599 4.73611 5.8748 4.20712C5.70376 4.14375 5.53233 4.08453 5.36149 4.02869L5.3588 4.02532ZM4.42487 3.75598C4.74422 4.15622 4.66303 4.69391 4.58425 5.21473C4.55068 5.43812 4.51692 5.65755 4.52275 5.84927C4.52938 6.07781 4.60635 6.25288 4.71046 6.34992C4.75126 6.38775 4.79447 6.41151 4.83768 6.42003C4.87567 6.42755 4.91546 6.4224 4.95345 6.403C5.03947 6.35903 5.12146 6.2507 5.18055 6.06276C5.29974 5.6851 5.36686 5.12008 5.25653 4.60817C5.21814 4.43172 5.15865 4.2618 5.07203 4.10951C4.9026 3.81146 4.75468 3.83978 4.42468 3.7566L4.42487 3.75598ZM6.72127 4.55291C7.08725 5.1728 6.75865 5.94119 6.48109 6.59135C6.40713 6.76503 6.33659 6.92921 6.28614 7.08071C6.215 7.2932 6.22524 7.47065 6.28755 7.58749C6.31388 7.6372 6.34945 7.67503 6.39125 7.69681C6.43105 7.7182 6.47908 7.72612 6.53294 7.71859C6.65735 7.70117 6.80668 7.60452 6.95841 7.40391C7.03036 7.30924 7.11297 7.14982 7.19999 6.95634C7.28782 6.76087 7.38107 6.52481 7.47272 6.28063C7.55573 6.05922 7.56979 5.76016 7.52417 5.47579C7.49684 5.30488 7.44881 5.14129 7.38208 5.00544C7.24622 4.72858 6.99881 4.67887 6.72187 4.55252L6.72127 4.55291ZM8.91677 5.86357C8.91717 5.86634 8.91818 5.86971 8.91878 5.87248C8.98932 6.20559 8.89526 6.5302 8.79055 6.7484C8.6571 7.02705 8.52124 7.31719 8.41312 7.57124C8.3084 7.81681 8.23204 8.02357 8.21294 8.14337C8.17938 8.35389 8.22118 8.52619 8.30318 8.63451C8.33875 8.68145 8.38136 8.71492 8.42759 8.73254C8.4704 8.74858 8.51783 8.75156 8.56727 8.73769C8.67097 8.70878 8.78292 8.61332 8.88462 8.43053L8.89667 8.40875C9.10268 8.0396 9.59589 7.15477 9.46623 6.46537C9.41297 6.18098 9.14688 6.04037 8.91695 5.86353L8.91677 5.86357ZM10.6816 7.58692C10.6595 7.75149 10.5903 7.90576 10.5015 8.05588C10.3445 8.32046 10.1856 8.59435 10.0573 8.83476C9.93354 9.06666 9.84028 9.26352 9.81094 9.38038C9.75868 9.58713 9.78501 9.7622 9.85756 9.87726C9.88871 9.92697 9.92811 9.9638 9.97232 9.98519C10.0131 10.005 10.0602 10.0111 10.1106 10.0022C10.2163 9.98282 10.3367 9.89667 10.4539 9.72437C10.5887 9.52613 10.7373 9.19402 10.852 8.81677C10.9083 8.63219 10.9557 8.43771 10.9899 8.24382C11.0379 7.96934 10.8554 7.8014 10.6826 7.58713L10.6816 7.58692ZM11.8436 9.3491C11.826 9.55724 11.7655 9.77785 11.6314 9.98085C11.5305 10.1341 11.4345 10.2856 11.3535 10.4243C11.2791 10.5516 11.2248 10.6572 11.2031 10.7253C11.1503 10.8899 11.1619 11.0319 11.2138 11.1265C11.2355 11.1663 11.2636 11.196 11.296 11.2144C11.3247 11.2305 11.3589 11.2376 11.3963 11.2329C11.4803 11.2224 11.5802 11.1596 11.6835 11.0261C11.7962 10.8804 11.8961 10.7104 11.9701 10.4985C12.0334 10.3173 12.0782 10.1048 12.0969 9.85077C12.0153 9.67907 11.9307 9.51192 11.8438 9.34874L11.8436 9.3491ZM12.1807 9.19819C12.245 9.33107 12.3075 9.46653 12.3684 9.60456C12.6359 9.74557 12.8731 9.82934 13.0883 9.87331C13.3106 9.91866 13.5093 9.92104 13.6942 9.89985C13.8637 9.88044 13.9694 9.82835 14.0212 9.76221C14.0443 9.7329 14.0558 9.70022 14.0568 9.66715C14.0572 9.63071 14.0457 9.59189 14.0226 9.55407C13.966 9.46138 13.8484 9.379 13.6774 9.33978C13.6044 9.32315 13.4852 9.31523 13.3383 9.31285C13.1862 9.31047 13.0031 9.31483 12.8091 9.32275C12.5565 9.33265 12.3491 9.27819 12.1811 9.19878L12.1807 9.19819ZM10.9692 7.22272C11.1012 7.39442 11.2011 7.62632 11.4119 7.70257C11.6593 7.79208 11.9258 7.86021 12.1827 7.90695C12.5754 7.97844 12.9434 7.99963 13.1833 7.9723C13.3928 7.94814 13.5252 7.882 13.5911 7.79822C13.6223 7.75842 13.6381 7.71405 13.6392 7.6685C13.6402 7.62018 13.6247 7.56869 13.5945 7.51898C13.524 7.40313 13.3775 7.29995 13.1663 7.25124C13.028 7.21955 12.7556 7.21341 12.4335 7.22054C12.1041 7.22767 11.7229 7.24846 11.3756 7.26886C11.2508 7.27599 11.1129 7.25995 10.9694 7.22252L10.9692 7.22272ZM10.0169 6.1111C10.368 6.1319 10.9101 6.121 11.4013 6.07803C11.8018 6.04298 12.1638 5.98772 12.3487 5.91247C12.5436 5.83305 12.6526 5.73403 12.6929 5.63561C12.7116 5.58927 12.7147 5.54233 12.7026 5.49876C12.6901 5.45143 12.6608 5.40608 12.618 5.36627C12.5181 5.27399 12.3491 5.21398 12.133 5.22388C12.0096 5.22962 11.7926 5.28151 11.5337 5.35677C11.2686 5.4338 10.9603 5.5352 10.6617 5.6364C10.3192 5.75226 9.97456 5.80295 9.62542 5.75701C9.55588 5.74809 9.98356 6.10952 10.0167 6.1115L10.0169 6.1111ZM7.76277 4.4238C7.91069 4.50936 8.05721 4.59848 8.20272 4.69155C8.32511 4.6765 8.46922 4.66026 8.62718 4.64284C9.33442 4.56382 10.3184 4.4541 10.669 4.30082C10.9013 4.19903 11.0295 4.07703 11.0743 3.96157C11.0936 3.91147 11.0964 3.86354 11.0844 3.82057C11.0719 3.77562 11.0426 3.73343 10.999 3.69699C10.8971 3.61144 10.7238 3.56253 10.4977 3.58351C10.344 3.59777 10.0578 3.68234 9.72276 3.79601C9.36984 3.91583 8.98234 4.0606 8.63124 4.19308C8.53798 4.22853 8.42082 4.26933 8.29601 4.30755C8.19612 4.33785 8.08619 4.36815 7.97002 4.39469C7.90711 4.40895 7.83697 4.41885 7.76301 4.424L7.76277 4.4238ZM5.27626 3.32172C5.41655 3.36767 5.55723 3.41638 5.69792 3.46748C5.9413 3.40826 6.26125 3.34449 6.60412 3.27578C7.41766 3.11299 8.36548 2.92366 8.69312 2.71652C8.95962 2.54759 9.09508 2.37114 9.12864 2.21627C9.14391 2.14616 9.13728 2.0818 9.11176 2.02694C9.08543 1.96931 9.0382 1.91901 8.97489 1.88019C8.82978 1.79226 8.60408 1.76335 8.32892 1.83187C8.14503 1.87782 7.81502 2.03209 7.43193 2.23073C7.03439 2.43709 6.59545 2.68206 6.19773 2.90603C6.09503 2.96366 5.96379 3.03377 5.81889 3.10328C5.70071 3.16012 5.5745 3.21636 5.44768 3.26647C5.39543 3.28726 5.33714 3.30568 5.27625 3.32132L5.27626 3.32172ZM2.82917 2.7254C3.09285 2.76996 3.16761 2.84284 3.40017 2.7258C3.64516 2.60282 3.97538 2.45607 4.33132 2.29764C5.13282 1.94136 6.06675 1.52585 6.36645 1.23733C6.61949 0.993538 6.72761 0.773517 6.73042 0.603798C6.73183 0.531908 6.71274 0.470912 6.67757 0.42358C6.64159 0.374862 6.58733 0.337433 6.51819 0.31466C6.3558 0.260792 6.12146 0.28535 5.85314 0.419225C5.67206 0.50953 5.36194 0.744213 5.00503 1.03633C4.64628 1.32963 4.23666 1.68552 3.86447 2.01111C3.77222 2.09151 3.65223 2.19192 3.51396 2.29827C3.40261 2.38382 3.28404 2.47096 3.16486 2.55058C3.06979 2.61395 2.95362 2.67356 2.82862 2.72525L2.82917 2.7254Z" fill="#0A9386"/>
</svg>
