<svg width="26" height="25" viewBox="0 0 26 25" fill="none" xmlns="http://www.w3.org/2000/svg">
<path d="M23.7312 4.14399C24.2783 3.50548 24.2783 2.56313 23.7009 1.92484C23.1232 1.28633 22.12 1.19519 21.4512 1.71194C21.3904 0.891086 20.7216 0.222286 19.84 0.161594C18.928 0.131271 18.1377 0.830394 18.1071 1.77279L18.0159 3.87045C16.8303 3.32336 15.5536 3.29279 14.2159 3.74894C10.6289 4.96483 7.28474 9.61614 5.09594 13.2641C2.69445 17.3073 1.0224 21.3505 0.90069 22.1713C0.809506 22.8401 0.96155 23.4178 1.32628 23.7825C1.59983 24.0561 2.05593 24.2081 2.57273 24.2081C2.69424 24.2081 2.81596 24.2081 2.93747 24.1778C3.78867 24.0563 7.80158 22.3843 11.8447 19.9826C15.5232 17.7938 20.1439 14.4498 21.3599 10.8626C21.7855 9.6161 21.7855 8.46106 21.3599 7.36666L23.3663 7.42752H23.4272C23.8528 7.42752 24.248 7.27548 24.5519 6.97161C24.8863 6.66752 25.0687 6.24195 25.099 5.81635C25.1601 4.99528 24.5521 4.26563 23.7313 4.14408L23.7312 4.14399ZM22.9104 2.62399C23.1536 2.86722 23.1233 3.29279 22.88 3.53604L20.448 5.7857C20.1439 5.42096 19.84 5.1169 19.5665 4.84335L22.0288 2.5937C22.2721 2.35026 22.6976 2.35026 22.9103 2.62402L22.9104 2.62399ZM19.8097 1.19519C20.1745 1.19519 20.4177 1.49928 20.4177 1.86399L20.3873 2.65433L19.0497 3.87023L19.1409 1.80313C19.1712 1.46872 19.4447 1.19519 19.8097 1.19519H19.8097ZM20.3872 10.5584C19.7487 12.4128 18.0768 14.2063 16.1313 15.8175L13.6689 13.3552L12.9393 14.0848L15.3105 16.456C14.429 17.1248 13.5169 17.7328 12.6352 18.3104L11.7232 17.3984L10.9935 18.128L11.7535 18.888C11.6015 18.9792 11.48 19.0401 11.3582 19.1313C7.19349 21.5936 3.39344 23.1136 2.84624 23.1745C2.36022 23.2351 2.11697 23.1439 2.05611 23.0528C1.99525 22.9919 1.87374 22.7487 1.9346 22.3231C1.96493 21.9584 2.57311 20.3472 3.63695 18.1584L4.00169 18.5231L4.73134 17.7934L4.12339 17.1855C4.67049 16.1214 5.27865 14.9967 5.97779 13.8111C6.3122 13.264 6.64659 12.6863 7.01134 12.1087L8.37928 13.4767L9.10894 12.747L7.58894 11.227C8.50099 9.88938 9.50419 8.58229 10.5986 7.48789L13.6082 10.4975L14.3379 9.76789L11.3282 6.75823C12.3618 5.81589 13.4259 5.08618 14.4897 4.72143C15.0065 4.53906 15.4929 4.4782 15.9489 4.4782C17.0736 4.4782 18.1074 4.96465 19.1104 5.96786C20.5697 7.3358 20.9648 8.8558 20.3872 10.5584L20.3872 10.5584ZM23.8833 6.27193C23.7618 6.39344 23.6097 6.4543 23.4274 6.42398L21.3603 6.33279L22.6674 5.1169L23.4577 5.14723C23.8224 5.14723 24.0656 5.45131 24.0656 5.81603C24.0656 5.99839 24.0048 6.15022 23.8833 6.27194L23.8833 6.27193Z" fill="#0A9386"/>
</svg>
