<svg width="30" height="24" viewBox="0 0 30 24" fill="none" xmlns="http://www.w3.org/2000/svg">
<path d="M7.62912 9.61579C8.27921 8.49255 8.74343 7.93093 9.76498 6.99494L9.11489 6.52682C7.72188 7.65005 5.679 6.80773 5.40053 5.0292C5.21482 3.90596 5.95769 2.78278 7.16494 2.50186C6.97923 0.910513 8.46496 -0.30618 9.95069 0.0681954C11.3437 0.442604 12.0866 1.94024 11.5294 3.25067L13.2009 4.46758C22.9514 -0.493423 32.9803 14.1086 29.173 20.0059C26.8514 24.4053 7.44375 26.1837 4.75072 20.0059C3.91487 18.0402 4.565 15.6065 5.77227 13.173L3.91509 12.0497C3.17223 12.7985 2.05791 12.9857 1.12935 12.4241C0.015029 11.7688 -0.356374 10.3649 0.386487 9.24166C0.665171 8.77354 1.12935 8.39912 1.59374 8.21193C1.50077 7.74381 1.59374 7.1822 1.96517 6.71432C2.98673 4.93578 5.67953 5.40389 6.05094 7.36961C6.1439 7.74402 6.1439 8.21215 6.05094 8.58653L7.62965 9.61626L7.62912 9.61579ZM10.3221 6.43332C10.8793 5.9652 11.6222 5.40359 12.458 4.84197L10.5079 3.43781C11.158 2.40808 11.0651 1.19139 9.76504 0.816958C8.27932 0.442549 7.72216 1.84669 8.00063 3.15711C6.97908 3.15711 5.86476 3.62523 6.05052 4.93565C6.3292 6.33981 7.90769 6.80769 9.02196 5.49727L10.322 6.43326L10.3221 6.43332ZM6.23638 14.2025C5.30782 16.1682 4.84337 18.1338 5.49352 19.6316C7.81509 24.967 26.3873 23.6565 28.4304 19.5379C32.2377 13.1725 18.8659 -3.86311 8.9298 9.14765L8.55836 9.80294C11.5298 9.42854 15.2443 10.1774 16.1731 13.547C16.9159 15.9807 15.4302 18.508 12.9229 18.9762C9.67279 19.6314 7.35133 16.9169 6.23701 14.2023L6.23638 14.2025ZM5.12206 8.86709C5.30778 8.39897 5.4935 8.11829 5.40075 7.55667C5.02931 6.15251 3.26488 5.87181 2.52202 7.08855C2.15058 7.74384 2.3363 8.21179 2.52202 8.86708C1.87193 8.96079 1.4077 8.96079 0.943309 9.61589C0.571873 10.3647 0.757591 11.3007 1.50047 11.7689C2.42903 12.3305 3.17195 11.8626 3.72905 11.1136L6.51479 12.7984C7.35064 15.513 9.39352 18.8827 12.7363 18.321C14.8722 17.8529 16.0792 15.7937 15.5221 13.7345C14.5935 10.4583 10.6932 10.1776 7.81459 10.552L5.12156 8.86714L5.12206 8.86709Z" fill="#0A9386"/>
</svg>
