<svg width="32" height="26" viewBox="0 0 32 26" fill="none" xmlns="http://www.w3.org/2000/svg">
<path d="M9.66857 0.8938C13.8737 0.891568 16.5577 3.40454 17.9114 6.81951C22.357 4.9338 28.1046 4.955 30.5617 9.87311C34.1599 18.5365 22.2577 25.6765 14.8383 23.3965C13.5831 24.468 12.0561 25.1079 10.2805 25.1068C-2.0184 25.1004 -2.54583 1.10397 9.66885 0.894258L9.66857 0.8938ZM18.2903 7.91151C19.6537 12.4606 18.6872 19.4247 15.7814 22.4532C22.1928 23.8778 32.6322 17.8758 29.4968 10.3184C27.3276 6.03243 22.1305 6.25877 18.2905 7.91146L18.2903 7.91151ZM17.1795 8.22893C16.1258 4.74275 13.6921 2.04721 9.67782 2.04721C-0.989604 2.23806 -0.505603 23.9506 10.2798 23.9552C17.169 23.9586 18.7873 13.5621 17.1793 8.2295L17.1795 8.22893Z" fill="#0A9386"/>
</svg>
