<svg width="28" height="21" viewBox="0 0 28 21" fill="none" xmlns="http://www.w3.org/2000/svg">
<g clip-path="url(#clip0_2703_8387)">
<path d="M16.4536 0.571515C13.134 8.59961e-05 4.32991 0.714372 1.29898 3.14294C0.721661 3.57151 0.433001 4.14294 0.433001 4.71437C0.288671 5.57151 1.73197 6.2858 3.46393 7.14294C5.34022 8.00009 7.50517 9.00009 8.08249 10.5715C8.80413 12.1429 11.1134 17.5715 14.5773 17.5715C17.7526 17.5715 26.5567 16.0001 27.4227 11.1429C27.7114 9.71437 27.2784 8.2858 26.1237 6.85723C24.1031 3.57152 19.3402 1.00009 16.4536 0.571515ZM27.2784 11.0001C26.5567 15.7144 17.7526 17.1429 14.7217 17.1429C11.5464 17.1429 9.09279 12.0001 8.51548 10.2858C7.93816 8.71437 5.62888 7.71437 3.75259 6.71437C2.16496 6.00009 0.721661 5.2858 0.721661 4.57151C0.721661 4.14294 1.01032 3.57151 1.58764 3.14294C3.75259 1.57151 10.1031 0.714372 14 0.714372C14.866 0.714372 15.732 0.714372 16.3093 0.857229C19.1959 1.2858 23.8144 3.85723 25.9794 7.00009C27.134 8.2858 27.567 9.71437 27.2784 11.0001Z" stroke="#0A9386" stroke-width="0.5" stroke-miterlimit="10"/>
<path d="M14.7217 20.2857C11.9794 20.2857 7.93816 15.8572 6.78352 12.8572C6.06188 11.4286 4.32992 10.4286 2.88662 9.71432C1.58765 9.14289 0.577339 8.57146 0.721669 7.85718H0.43301C0.28868 8.71432 1.44332 9.28575 2.74229 10C4.18559 10.7143 5.91755 11.5715 6.49487 13C7.6495 16 11.8351 20.5715 14.7217 20.5715C19.1959 20.5715 26.8454 19.8572 27.567 15.2857H27.2784C26.5567 19.8572 18.1856 20.2857 14.7217 20.2857Z" stroke="#0A9386" stroke-width="0.5" stroke-miterlimit="10"/>
<path d="M27.567 10.8572H27.2783V15.4286H27.567V10.8572Z" stroke="#0A9386" stroke-width="0.5" stroke-miterlimit="10"/>
<path d="M0.721643 4.71436H0.432983V7.85721H0.721643V4.71436Z" stroke="#0A9386" stroke-width="0.5" stroke-miterlimit="10"/>
<path d="M6.49486 3.42847C5.34022 3.42847 4.47424 3.9999 4.47424 4.57132C4.47424 5.14275 5.34022 5.71418 6.49486 5.71418C7.6495 5.71418 8.51548 5.14275 8.51548 4.57132C8.51548 3.85704 7.6495 3.42847 6.49486 3.42847ZM6.49486 5.42847C5.48455 5.42847 4.7629 4.9999 4.7629 4.57132C4.7629 4.14275 5.62888 3.71418 6.49486 3.71418C7.50517 3.71418 8.22682 4.14275 8.22682 4.57132C8.22682 4.9999 7.36084 5.42847 6.49486 5.42847Z" stroke="#0A9386" stroke-width="0.5" stroke-miterlimit="10"/>
</g>
<defs>
<clipPath id="clip0_2703_8387">
<rect width="28" height="21" fill="white"/>
</clipPath>
</defs>
</svg>
