<svg width="24" height="24" viewBox="0 0 24 24" fill="none" xmlns="http://www.w3.org/2000/svg">
<path d="M2.68346 19.8262L2.08698 19.9386C2.2593 21.0825 3.13688 21.9131 4.17393 21.9131V21.2362C3.43332 21.2362 2.80637 20.6433 2.68342 19.8262L2.68346 19.8262Z" fill="#0A9386"/>
<path d="M22.8387 3.0968C23.479 3.0968 24 2.57579 24 1.9355V1.1613C24 0.521015 23.479 0 22.8387 0H7.35483C6.71455 0 6.19354 0.521015 6.19354 1.1613V1.9355C6.19354 2.57579 6.71455 3.0968 7.35483 3.0968H7.74193V3.30124C7.74193 4.2213 7.23056 5.04908 6.40766 5.46055L6.19355 5.56735V14.6025L5.17621 12.907C4.98387 12.5865 4.63202 12.387 4.25806 12.387C3.88411 12.387 3.53227 12.5865 3.33992 12.9069L0.60657 17.4618C0.209793 18.1235 0 18.881 0 19.6529V19.7419C0 22.0897 1.91027 24 4.25806 24C5.61171 24 6.81755 23.3629 7.59798 22.3749C7.76975 22.4238 7.94671 22.4516 8.12903 22.4516H22.0645C23.1318 22.4516 24 21.5834 24 20.5161V5.56696L23.7859 5.46016C22.9629 5.04817 22.4516 4.22091 22.4516 3.30085V3.09641L22.8387 3.0968ZM7.35483 2.3226C7.14124 2.3226 6.96773 2.14875 6.96773 1.9355V1.1613C6.96773 0.948051 7.14124 0.774201 7.35483 0.774201H22.8387C23.0523 0.774201 23.2258 0.948051 23.2258 1.1613V1.9355C23.2258 2.14875 23.0523 2.3226 22.8387 2.3226H7.35483ZM6.96773 7.74201H23.2258V20.1292H8.49621C8.50779 20.0015 8.51591 19.8729 8.51591 19.7421V19.6531C8.51591 18.8812 8.30612 18.1237 7.90934 17.4622L6.96753 15.8927L6.96773 7.74201ZM4.25806 23.226C2.33691 23.226 0.774185 21.6629 0.774185 19.7421V19.6531C0.774185 19.0218 0.945613 18.402 1.27051 17.8609L4.00385 13.3055C4.1103 13.1278 4.40598 13.1278 4.51243 13.3055L7.24578 17.8609C7.57049 18.4019 7.74193 19.0216 7.74193 19.6531V19.7421C7.74193 21.6629 6.17921 23.226 4.25806 23.226ZM22.0645 21.6776H8.12902C8.10224 21.6776 8.07683 21.6707 8.0504 21.6692C8.1743 21.4265 8.27522 21.1706 8.35109 20.9034H23.1546C22.9944 21.3529 22.5686 21.6776 22.0646 21.6776L22.0645 21.6776ZM23.2258 6.03567V6.96781H6.96773V6.03567C7.92857 5.46157 8.51612 4.43458 8.51612 3.30124V3.0968H21.6774V3.30124C21.6774 4.43453 22.265 5.46121 23.2258 6.03567Z" fill="#0A9386"/>
<path d="M13.781 16.4807C14.1717 17.2336 15.0648 17.7392 16.0696 17.7392C17.4507 17.7392 18.5739 16.803 18.5739 15.6522C18.5739 15.3442 18.4875 15.0474 18.3326 14.7727C18.4916 14.6421 18.6315 14.5193 18.7537 14.4054C19.0781 15.1385 19.8093 15.6522 20.6609 15.6522H21.913V15.2348C21.913 14.5499 21.5767 13.9459 21.0654 13.5653C21.5767 13.1846 21.913 12.5806 21.913 11.8957V11.4783H20.6609C19.8093 11.4783 19.0781 11.9921 18.7537 12.7251C18.4845 12.4747 18.126 12.1741 17.6874 11.8765C17.72 11.7433 17.7392 11.6102 17.7392 11.4783C17.7392 10.3275 16.6159 9.39136 15.2348 9.39136C14.1775 9.39136 13.2634 9.93525 12.9011 10.7395C11.2925 11.027 10.2894 11.9099 9.79621 12.4767C9.53496 12.776 9.3913 13.163 9.3913 13.5653C9.3913 13.9675 9.53496 14.3546 9.79621 14.6542C10.3742 15.3179 11.6506 16.414 13.781 16.4807L13.781 16.4807ZM17.7391 15.6522C17.7391 16.3426 16.9903 16.9044 16.0696 16.9044C15.5482 16.9044 15.079 16.7196 14.771 16.4251C15.9138 16.2645 16.8976 15.784 17.6547 15.2753C17.7041 15.3856 17.7391 15.5108 17.7391 15.6522L17.7391 15.6522ZM21.0069 14.8174H20.6609C20.1166 14.8174 19.6524 14.4684 19.4801 13.9827H19.8261C20.3704 13.9827 20.8346 14.3317 21.0069 14.8174ZM20.6609 12.3131H21.0069C20.8345 12.7989 20.3704 13.1479 19.8261 13.1479H19.4801C19.6524 12.6621 20.1166 12.3131 20.6609 12.3131ZM16.8939 11.4019C16.0817 10.977 15.1008 10.6476 13.9984 10.6442C14.3078 10.3864 14.7524 10.2261 15.2348 10.2261C16.121 10.2261 16.8404 10.7475 16.8939 11.4019V11.4019ZM10.4255 13.0247C10.9284 12.4471 12.0595 11.4783 13.9825 11.4783C16.1142 11.4783 17.804 12.948 18.4197 13.5653C17.8041 14.1826 16.1144 15.6522 13.9825 15.6522C13.6895 15.6522 13.421 15.6239 13.1645 15.5838C13.6791 15.0487 13.9825 14.3333 13.9825 13.5653V12.3131H13.1477V13.5653C13.1477 14.286 12.7761 14.9431 12.1726 15.3247C11.3129 14.9904 10.743 14.4711 10.4253 14.1062C10.2969 13.9581 10.226 13.766 10.226 13.5653C10.226 13.3646 10.2969 13.1725 10.4255 13.0247L10.4255 13.0247Z" fill="#0A9386"/>
<path d="M12.5217 13.5652C12.5217 14.1414 12.2881 14.6087 12 14.6087C11.7119 14.6087 11.4783 14.1414 11.4783 13.5652C11.4783 12.989 11.7119 12.5217 12 12.5217C12.2881 12.5217 12.5217 12.989 12.5217 13.5652Z" fill="#0A9386"/>
</svg>
