<svg width="28" height="26" viewBox="0 0 28 26" fill="none" xmlns="http://www.w3.org/2000/svg">
<path d="M18.1462 15.4303C18.7352 15.4244 19.298 15.1849 19.7109 14.7647C20.1235 14.3446 20.3528 13.7778 20.3483 13.1885V12.1315C20.3508 11.5405 20.1202 10.9723 19.7065 10.5502L19.3951 10.2313H19.3953C19.0673 9.89368 18.6167 9.70337 18.1462 9.70337C17.6758 9.70337 17.2251 9.89369 16.8972 10.2313L16.5857 10.5502H16.5859C16.1719 10.9727 15.9412 11.5417 15.9442 12.1333V13.1903C15.94 13.7791 16.1695 14.3456 16.5824 14.7654C16.9951 15.1853 17.5574 15.4244 18.1462 15.4303H18.1462ZM16.825 12.1333C16.825 11.7731 16.9649 11.4269 17.2152 11.1675L17.5271 10.849V10.8492C17.6891 10.6809 17.9126 10.5857 18.1462 10.5857C18.3798 10.5857 18.6033 10.6809 18.7654 10.8492L19.0772 11.1677V11.1675C19.3275 11.4268 19.4675 11.7731 19.4675 12.1333V13.1903C19.4675 13.6623 19.2156 14.0986 18.8068 14.3346C18.3981 14.5705 17.8944 14.5705 17.4856 14.3346C17.0768 14.0986 16.825 13.6624 16.825 13.1903L16.825 12.1333Z" fill="#0A9386"/>
<path d="M22.1049 7.50299H22.1301C22.7138 7.50495 23.2738 7.27217 23.6841 6.85712C24.0944 6.44187 24.3207 5.87935 24.3119 5.29564C24.3054 4.70463 24.0665 4.13994 23.6469 3.72389L22.9026 2.97775C22.4863 2.55818 21.9217 2.3193 21.3307 2.3128L20.8834 2.30612C20.4115 2.29255 19.9557 2.47737 19.6268 2.81574C19.2922 3.14821 19.1076 3.6028 19.115 4.07447L19.1199 4.5198V4.5196C19.1264 5.11081 19.3653 5.6755 19.7849 6.0919L20.531 6.83804C20.9474 7.2584 21.5131 7.4973 22.1049 7.50299L22.1049 7.50299ZM20.0023 4.50818L19.9958 4.06462C19.9909 3.83222 20.0804 3.60769 20.244 3.44215C20.4074 3.27679 20.6309 3.18478 20.8635 3.18695H20.8737L21.3191 3.19186H21.3189C21.6791 3.19855 22.0229 3.34423 22.2782 3.59865L23.0243 4.34479H23.0241C23.2811 4.59901 23.4274 4.94425 23.4311 5.30585C23.4372 5.6568 23.3005 5.99516 23.0522 6.2433C22.8041 6.49162 22.4657 6.62826 22.1148 6.62217C21.7538 6.61804 21.4093 6.47176 21.1555 6.21518L20.4099 5.46925C20.1528 5.21502 20.0063 4.86978 20.0026 4.50819L20.0023 4.50818Z" fill="#0A9386"/>
<path d="M16.7253 0.0212241C16.1335 0.0267295 15.5678 0.265616 15.1512 0.68577L14.4051 1.43447C13.9865 1.85031 13.7482 2.414 13.7419 3.00406C13.7329 3.58802 13.9588 4.15089 14.3693 4.56634C14.7796 4.98179 15.3398 5.21478 15.9237 5.21282H15.9489C16.5401 5.20672 17.105 4.96784 17.521 4.54787L18.2672 3.80173C18.6871 3.38551 18.926 2.82064 18.9321 2.22943L18.9388 1.78253C18.9463 1.31164 18.7622 0.858065 18.4288 0.525566C18.0937 0.194863 17.6407 0.0116155 17.17 0.0159441L16.7253 0.0212241ZM17.1903 0.896766C17.4225 0.894603 17.6458 0.986419 17.8092 1.15138C17.9726 1.31653 18.0623 1.54048 18.058 1.77269L18.0513 2.21802C18.045 2.57821 17.8991 2.92208 17.6445 3.17671L16.8983 3.92285C16.6504 4.17805 16.3115 4.32434 15.9558 4.32964C15.6001 4.33495 15.2568 4.1987 15.0014 3.95097C14.7533 3.70304 14.6166 3.36469 14.6227 3.01392C14.627 2.65313 14.7731 2.30865 15.0297 2.05502L15.7784 1.30889V1.30908C16.0328 1.05408 16.3765 0.908192 16.7367 0.902097L17.1803 0.896788L17.1903 0.896766Z" fill="#0A9386"/>
<path d="M4.56284 9.70518H4.588C5.17901 9.69908 5.7441 9.4602 6.1601 9.04023L6.90624 8.29585C7.32601 7.87982 7.5647 7.31496 7.57079 6.72395L7.57609 6.27666C7.58337 5.80931 7.40249 5.35849 7.07414 5.02599C6.7456 4.69331 6.2973 4.50675 5.82976 4.50831H5.80951L5.36378 4.51323C4.77277 4.51932 4.20809 4.7584 3.79203 5.17818L3.0459 5.92607C2.62554 6.34171 2.38588 6.90656 2.37919 7.49782C2.37034 8.08178 2.59684 8.64466 3.00754 9.05991C3.41825 9.47515 3.97882 9.70754 4.56273 9.70517L4.56284 9.70518ZM3.66882 6.54874L4.41496 5.80261H4.41476C4.66996 5.54819 5.01362 5.4025 5.37406 5.39582L5.81978 5.3909H5.83H5.82981C6.06162 5.38953 6.28398 5.48174 6.44699 5.6465C6.60979 5.81126 6.69944 6.03481 6.69531 6.2664L6.69001 6.71035C6.68568 7.07114 6.5396 7.41562 6.28361 7.66965L5.53747 8.41578V8.41559C5.28403 8.67276 4.93936 8.81962 4.57817 8.82435C4.2284 8.82474 3.89198 8.68888 3.64052 8.44567C3.39239 8.19735 3.25555 7.85899 3.26185 7.50802C3.26597 7.14703 3.41226 6.80255 3.66883 6.54872L3.66882 6.54874Z" fill="#0A9386"/>
<path d="M3.21191 14.9898H4.2689C4.85991 14.992 5.42812 14.7615 5.85087 14.3481L6.16938 14.0366L6.16918 14.0368C6.50676 13.7089 6.69707 13.2582 6.69707 12.7878C6.69707 12.3173 6.50675 11.8666 6.16918 11.5387L5.85067 11.2273L5.85087 11.2275C5.42776 10.8136 4.85875 10.5831 4.26714 10.5857H3.21191C2.42505 10.5857 1.69819 11.0055 1.30474 11.6867C0.911318 12.368 0.911318 13.2076 1.30474 13.8888C1.69816 14.5701 2.42505 14.9899 3.21191 14.9899V14.9898ZM3.21191 11.4665H4.2689C4.62929 11.4665 4.97553 11.6067 5.23469 11.8572L5.5532 12.1686H5.55301C5.72131 12.3306 5.81647 12.5542 5.81647 12.7878C5.81647 13.0213 5.72131 13.2449 5.55301 13.4069L5.23449 13.7183H5.23469C4.97516 13.9694 4.62813 14.1094 4.26714 14.109H3.21191C2.73984 14.109 2.30355 13.8571 2.06764 13.4484C1.83151 13.0396 1.83151 12.5359 2.06764 12.1271C2.30357 11.7184 2.73983 11.4665 3.21191 11.4665V11.4665Z" fill="#0A9386"/>
<path d="M14.3964 10.5858C14.9874 10.5879 15.5556 10.3575 15.9784 9.94401L16.2969 9.63257L16.2967 9.63277C16.6343 9.30482 16.8248 8.85417 16.8248 8.3837C16.8248 7.91324 16.6343 7.46256 16.2967 7.13464L15.9782 6.8232L15.9784 6.8234C15.5557 6.40993 14.9874 6.17949 14.3964 6.18166H13.3394C12.5526 6.18166 11.8257 6.60142 11.4322 7.28269C11.0388 7.96395 11.0388 8.8035 11.4322 9.48476C11.8257 10.166 12.5526 10.5858 13.3394 10.5858L14.3964 10.5858ZM11.9802 8.38368C11.9859 8.02821 12.1324 7.68944 12.3874 7.4417C12.6426 7.19397 12.9855 7.05752 13.3412 7.06243H14.3982C14.7585 7.06243 15.1048 7.20262 15.3639 7.4531L15.6825 7.76454H15.6823C15.8506 7.92655 15.9457 8.1501 15.9457 8.38368C15.9457 8.61727 15.8506 8.84081 15.6823 9.00283L15.3637 9.31426H15.3639C15.1044 9.56534 14.7574 9.70533 14.3964 9.70493H13.3394C12.9841 9.70926 12.6416 9.57261 12.3868 9.32508C12.1322 9.07734 11.9859 8.73895 11.9802 8.3837L11.9802 8.38368Z" fill="#0A9386"/>
<path d="M26.426 9.33679L26.1075 9.02535V9.02555C25.6851 8.61227 25.1169 8.38184 24.5261 8.3838H23.4691C22.6823 8.3838 21.9554 8.80357 21.5619 9.48484C21.1685 10.1661 21.1685 11.0056 21.5619 11.6869C21.9554 12.3682 22.6823 12.7879 23.4691 12.7879H24.5261C25.1171 12.7901 25.6853 12.5597 26.1081 12.1462L26.4266 11.8348L26.4264 11.835C26.764 11.507 26.9545 11.0564 26.9545 10.5859C26.9545 10.1154 26.764 9.66475 26.4264 9.33683L26.426 9.33679ZM24.5261 11.9071H23.4691C22.997 11.9071 22.5608 11.6552 22.3248 11.2465C22.0889 10.8377 22.0889 10.334 22.3248 9.92523C22.5608 9.51647 22.997 9.26461 23.4691 9.26461H24.5261C24.8865 9.26461 25.2327 9.4048 25.4919 9.65528L25.8104 9.96671H25.8102C25.9785 10.1287 26.0737 10.3523 26.0737 10.5859C26.0737 10.8194 25.9785 11.043 25.8102 11.205L25.4917 11.5164H25.4919C25.2328 11.7669 24.8865 11.9071 24.5261 11.9071V11.9071Z" fill="#0A9386"/>
<path d="M25.1047 14.3388C24.6885 13.919 24.1236 13.6801 23.5324 13.6742L23.0855 13.6689C22.6146 13.6614 22.1607 13.8451 21.8276 14.1779C21.4944 14.5108 21.3103 14.9646 21.3172 15.4355L21.3221 15.8808V15.8806C21.3282 16.4718 21.5671 17.0369 21.987 17.4529L22.7332 18.199C23.1492 18.619 23.7143 18.8579 24.3053 18.864H24.3305C24.9144 18.8663 25.4747 18.6339 25.8855 18.2189C26.2962 17.8039 26.5227 17.2409 26.514 16.657C26.5078 16.066 26.2689 15.5013 25.8491 15.0853L25.1047 14.3388ZM25.2563 17.6045C25.0062 17.8501 24.669 17.9864 24.3187 17.9832C23.9577 17.9791 23.6132 17.8328 23.3594 17.5762L22.6132 16.8301V16.8303C22.3578 16.5757 22.2112 16.2316 22.2047 15.871L22.198 15.4257C22.1937 15.1936 22.2833 14.9695 22.4465 14.8045C22.6099 14.6396 22.8331 14.5478 23.0653 14.5497H23.0755L23.5212 14.555H23.521C23.8812 14.5611 24.2251 14.707 24.4797 14.962L25.2258 15.7082V15.708C25.4824 15.9616 25.6289 16.3061 25.6332 16.6669C25.6395 17.0178 25.5027 17.3562 25.2545 17.6045L25.2563 17.6045Z" fill="#0A9386"/>
<path d="M26.1914 19.8155C24.7432 20.3582 23.2155 20.659 21.6697 20.7056V19.394C21.6687 18.5767 21.3437 17.7929 20.7657 17.2151C20.1879 16.6371 19.4041 16.3121 18.5868 16.3111H16.8252C16.582 16.3111 16.3847 16.5083 16.3847 16.7515V17.2409C15.8063 16.6463 15.0122 16.3109 14.1827 16.3111H12.421C12.1778 16.3111 11.9806 16.5083 11.9806 16.7515V17.2409C11.4022 16.6463 10.608 16.3108 9.77855 16.311H8.01689C7.77368 16.311 7.57648 16.5083 7.57648 16.7515V17.2408C6.99805 16.6463 6.2039 16.3108 5.37441 16.311H0.970276V17.1919H3.17234V18.5131C3.17411 19.5968 3.74468 20.6002 4.67544 21.1556C3.74468 21.711 3.17411 22.7143 3.17234 23.7981V25.1193H0.970276V26.0001H5.37441C6.2039 26.0003 6.99805 25.6649 7.57648 25.0703V25.5597C7.57648 25.6765 7.62288 25.7886 7.70546 25.8711C7.78803 25.9537 7.9001 26.0001 8.01689 26.0001H9.77855C10.608 26.0003 11.4022 25.6649 11.9806 25.0703V25.5597C11.9806 25.6765 12.027 25.7886 12.1096 25.8711C12.1922 25.9537 12.3042 26.0001 12.421 26.0001H14.1827C15.0122 26.0003 15.8063 25.6649 16.3847 25.0703V25.5597C16.3847 25.6765 16.4312 25.7885 16.5137 25.8711C16.5963 25.9537 16.7084 26.0001 16.8252 26.0001H18.5868C19.4041 25.9991 20.1879 25.6741 20.7657 25.0961C21.3437 24.5182 21.6687 23.7345 21.6697 22.9172V21.5863C23.3212 21.5397 24.9535 21.22 26.5007 20.6402L27.5498 20.247L27.2415 19.4216L26.1914 19.8155ZM17.2654 17.1919H18.5866C19.1704 17.1927 19.7301 17.4249 20.143 17.8376C20.5557 18.2505 20.7879 18.8102 20.7887 19.394V20.7152H19.4674C18.8837 20.7144 18.3239 20.4822 17.911 20.0695C17.4984 19.6567 17.2662 19.0969 17.2654 18.5131V17.1919ZM17.2654 21.1556V20.6663C17.451 20.8554 17.6602 21.0198 17.8876 21.1556C17.6602 21.2915 17.451 21.4559 17.2654 21.645V21.1556ZM12.8612 17.1919H14.1825C14.7662 17.1927 15.326 17.4249 15.7389 17.8376C16.1516 18.2505 16.3837 18.8102 16.3845 19.394V20.7152H15.0633C14.4795 20.7144 13.9198 20.4822 13.5069 20.0695C13.0942 19.6567 12.862 19.0969 12.8612 18.5131V17.1919ZM12.8612 21.1556V20.6663C13.0468 20.8554 13.256 21.0198 13.4835 21.1556C13.256 21.2915 13.0468 21.4559 12.8612 21.645V21.1556ZM8.4571 17.1919H9.77835C10.3621 17.1927 10.9219 17.4249 11.3347 17.8376C11.7474 18.2505 11.9796 18.8102 11.9804 19.394V20.7152H10.6592C10.0754 20.7144 9.51566 20.4822 9.10278 20.0695C8.69009 19.6567 8.45791 19.0969 8.4571 18.5131V17.1919ZM8.4571 21.1556V20.6663C8.64271 20.8554 8.85191 21.0198 9.07937 21.1556C8.85189 21.2915 8.64269 21.4559 8.4571 21.645V21.1556ZM4.05297 18.5131V17.1919H5.37421C5.95797 17.1927 6.51772 17.4249 6.93061 17.8376C7.3433 18.2505 7.57547 18.8102 7.57628 19.394V20.7152H6.25504C5.67128 20.7144 5.11152 20.4822 4.69864 20.0695C4.28595 19.6567 4.05377 19.0969 4.05297 18.5131ZM5.37421 25.1194H4.05297V23.7981C4.05376 23.2143 4.28596 22.6546 4.69864 22.2417C5.11153 21.829 5.67128 21.5968 6.25504 21.596H7.57628V22.9173C7.57549 23.501 7.34329 24.0608 6.93061 24.4737C6.51772 24.8864 5.95797 25.1185 5.37421 25.1194ZM9.77835 25.1194H8.4571V23.7981C8.45789 23.2143 8.69009 22.6546 9.10278 22.2417C9.51566 21.829 10.0754 21.5968 10.6592 21.596H11.9804V22.9173C11.9796 23.501 11.7474 24.0608 11.3347 24.4737C10.9219 24.8864 10.3621 25.1185 9.77835 25.1194ZM14.1825 25.1194H12.8612V23.7981C12.862 23.2143 13.0942 22.6546 13.5069 22.2417C13.9198 21.829 14.4795 21.5968 15.0633 21.596H16.3845V22.9173C16.3838 23.501 16.1516 24.0608 15.7389 24.4737C15.326 24.8864 14.7662 25.1185 14.1825 25.1194ZM20.7887 22.9173C20.7879 23.501 20.5557 24.0608 20.143 24.4737C19.7301 24.8864 19.1704 25.1185 18.5866 25.1194H17.2654V23.7981C17.2662 23.2143 17.4984 22.6546 17.911 22.2417C18.3239 21.829 18.8837 21.5968 19.4674 21.596H20.7887V22.9173Z" fill="#0A9386"/>
<path d="M8.24621 14.0209L8.99235 14.767C9.40878 15.1862 9.97364 15.4245 10.5645 15.4302H10.5896C11.1736 15.4326 11.7341 15.2002 12.1448 14.7849C12.5555 14.3697 12.782 13.8068 12.7732 13.2229C12.7669 12.6318 12.528 12.0672 12.1082 11.6511L11.3621 10.905C10.946 10.4852 10.3814 10.2461 9.79018 10.24L9.34288 10.2333C8.8718 10.2265 8.41802 10.4105 8.08516 10.7438C7.7523 11.0772 7.56885 11.531 7.57635 12.0021L7.58166 12.4468C7.58716 13.0386 7.82605 13.6043 8.2462 14.0209L8.24621 14.0209ZM8.70904 11.3695C8.87184 11.2068 9.09283 11.1161 9.32305 11.1177H9.33328L9.77841 11.1208C10.1388 11.1275 10.4825 11.2732 10.7377 11.5276L11.4838 12.2738H11.4836C11.7402 12.5276 11.8865 12.8721 11.8906 13.2331C11.8969 13.584 11.7601 13.9224 11.512 14.1707C11.2566 14.4182 10.9132 14.5545 10.5576 14.5492C10.2019 14.5439 9.86295 14.3976 9.61501 14.1424L8.86948 13.3963V13.3965C8.6129 13.1424 8.46662 12.7977 8.46249 12.4368L8.45718 11.9919C8.45286 11.7583 8.54389 11.533 8.70904 11.3678L8.70904 11.3695Z" fill="#0A9386"/>
<path d="M9.78841 0.551305L9.34269 0.54462C8.8716 0.537738 8.41782 0.721767 8.08497 1.05505C7.7521 1.3885 7.56865 1.8423 7.57615 2.31337L7.58146 2.75811C7.58736 3.34932 7.82624 3.91421 8.246 4.33041L8.99214 5.07655C9.40817 5.49651 9.97323 5.7354 10.5642 5.74149H10.5894C11.1734 5.74385 11.7339 5.51146 12.1446 5.09623C12.5553 4.68099 12.7818 4.11805 12.773 3.53414C12.7667 2.94313 12.5278 2.37845 12.108 1.96239L11.3601 1.21626C10.9441 0.796491 10.3794 0.557399 9.78836 0.551309L9.78841 0.551305ZM11.8906 3.54612H11.8904C11.8967 3.89707 11.7599 4.23543 11.5117 4.48377C11.2563 4.73131 10.913 4.86756 10.5574 4.86225C10.2017 4.85694 9.86274 4.71066 9.6148 4.45546L8.86926 3.70932V3.70952C8.6119 3.45471 8.46562 3.10864 8.46228 2.7467L8.45697 2.30314C8.45225 2.07113 8.54171 1.847 8.7047 1.68163C8.86769 1.51626 9.09065 1.42406 9.32284 1.42544H9.33306L9.7782 1.43213C10.1386 1.43881 10.4823 1.5845 10.7375 1.83892L11.4836 2.58505H11.4834C11.7406 2.83849 11.8875 3.18316 11.8922 3.54435L11.8906 3.54612Z" fill="#0A9386"/>
</svg>
