<svg width="26" height="26" viewBox="0 0 26 26" fill="none" xmlns="http://www.w3.org/2000/svg">
<path d="M25.935 0.641326C25.7898 0.350939 25.4239 0.231366 25.1277 0.373715L13.2334 6.18134L12.7514 5.20202C12.3158 4.3138 11.2298 3.93799 10.3237 4.36503C10.1205 4.46182 9.93461 4.59278 9.7836 4.75791C9.26671 4.06897 8.32008 3.83548 7.53017 4.20562C7.3269 4.30242 7.14685 4.43337 6.99004 4.5928C6.39182 3.80136 5.25353 3.63056 4.44625 4.21131C3.84225 4.64405 3.5751 5.39564 3.76674 6.10738C3.54605 6.12446 3.32535 6.1814 3.1279 6.2782C2.33805 6.6483 1.93152 7.51947 2.1522 8.34507C1.93151 8.36215 1.71662 8.41909 1.51336 8.51019C0.607374 8.93723 0.224049 10.002 0.653783 10.8902V10.8959L1.28683 12.1828L0.630578 12.4902C0.334384 12.6326 0.20661 12.9856 0.351806 13.276C0.497001 13.5664 0.857079 13.6917 1.15329 13.5493L1.80955 13.2418L2.18705 14.0162C2.49486 14.6311 3.12792 15.024 3.83064 15.0297C4.00487 15.0297 4.17911 15.0013 4.34172 14.9557C5.0677 15.3144 6.00273 16.3222 6.09565 17.4098C6.206 18.7649 5.48586 20.2226 5.13737 20.9172C5.05606 21.0653 4.98636 21.219 4.92829 21.3727C4.44624 22.9271 5.34064 24.567 6.92616 25.0396C8.51167 25.5123 10.1843 24.6354 10.6664 23.0809C10.8929 22.3578 10.8232 21.5777 10.4747 20.9002C9.84167 19.3115 8.97052 15.8554 10.2366 15.1493C10.2482 15.1436 10.254 15.1379 10.2598 15.1322C11.009 14.745 11.3865 13.9023 11.1658 13.0995C12.1647 13.0254 12.914 12.1714 12.8384 11.192C12.8326 11.0838 12.8094 10.9699 12.7804 10.8617C13.0011 10.8447 13.2218 10.7877 13.4251 10.6909C14.331 10.2639 14.7086 9.19915 14.2788 8.31088L13.7503 7.23473L25.6679 1.43283C25.9641 1.28479 26.0861 0.931767 25.9351 0.641386L25.935 0.641326ZM4.10366 13.7944C3.79585 13.931 3.42994 13.8058 3.27897 13.5097L2.37878 11.6762L1.75157 10.3894C1.60637 10.0876 1.73414 9.72322 2.04196 9.5809C2.12907 9.54104 2.222 9.51826 2.31492 9.51826C2.54723 9.51826 2.76212 9.64922 2.86668 9.8542L4.3883 12.9573L4.40572 12.9972C4.5393 13.299 4.40572 13.652 4.10372 13.7943L4.10366 13.7944ZM6.0667 13.6691L5.49174 12.4962C5.49174 12.4962 5.49174 12.4905 5.48593 12.4905L3.85397 9.15387L3.36612 8.15742C3.22092 7.85565 3.34869 7.49123 3.65651 7.34891C3.65651 7.34891 3.66232 7.34891 3.66232 7.34321C3.97013 7.20086 4.33604 7.33183 4.48122 7.62791L7.18764 13.1451C7.33284 13.4468 7.20507 13.8056 6.90306 13.9536C6.58945 14.0959 6.22355 13.9706 6.06675 13.6689L6.0667 13.6691ZM9.6036 22.2327C9.6036 22.6996 9.41194 23.1437 9.0751 23.4797C8.37238 24.1629 7.23403 24.1629 6.5371 23.474C6.07248 23.0185 5.90405 22.3523 6.0899 21.7316C6.10733 21.6918 6.17121 21.5608 6.22929 21.4412C6.62422 20.6498 7.44309 18.9986 7.3037 17.3189C7.23982 16.5331 6.89135 15.7929 6.41514 15.1836C6.75779 15.2235 7.10628 15.1665 7.41988 15.0185C7.62315 14.9217 7.8032 14.7907 7.96001 14.6313C8.15167 14.8819 8.41301 15.0811 8.70341 15.2064C7.79158 17.2619 9.17964 20.8834 9.37713 21.367L9.40036 21.4239C9.53394 21.6688 9.60363 21.9477 9.60363 22.2325L9.6036 22.2327ZM9.68491 14.1132C9.37709 14.2555 9.00539 14.1303 8.85438 13.8285L8.26779 12.6328L5.5672 7.11561L4.98061 5.91421C4.82961 5.61243 4.95738 5.25369 5.26519 5.10569C5.573 4.96334 5.94471 5.08861 6.09572 5.39039L6.68231 6.58612H6.64747L9.31322 12.0981L9.93464 13.2995C10.0914 13.6069 9.99272 13.9713 9.68491 14.1137L9.68491 14.1132ZM11.3053 11.8812C10.9975 12.0235 10.6258 11.8983 10.4748 11.5965L7.77417 6.08454C7.62317 5.78277 7.75094 5.41835 8.05876 5.2703C8.36657 5.12795 8.73827 5.25322 8.88929 5.555L9.47588 6.75072C9.48168 6.76781 9.4933 6.77919 9.50491 6.79628L10.9975 9.8596L11.0556 9.97917L11.0614 9.98486L11.5957 11.0724C11.735 11.3685 11.6073 11.7272 11.3053 11.8809L11.3053 11.8812ZM12.9083 9.6435C12.6063 9.78015 12.2462 9.66058 12.0894 9.3702L12.0487 9.29617L10.5503 6.23858C10.3993 5.9425 10.5271 5.57806 10.8291 5.43574H10.8349C11.1427 5.29339 11.5086 5.41866 11.6654 5.71474L12.4088 7.2236C12.4088 7.22929 12.4146 7.23498 12.4146 7.24068L12.4204 7.24637L13.1986 8.83498C13.3496 9.13676 13.2219 9.50117 12.9082 9.6435H12.9083Z" fill="#0A9386"/>
<path d="M12.136 22.6255C11.805 22.6255 11.532 22.8874 11.5262 23.212V24.6241C11.5262 24.9543 11.7992 25.2219 12.136 25.2219C12.4729 25.2219 12.7458 24.9543 12.7458 24.6241V23.212C12.74 22.8874 12.4671 22.6255 12.136 22.6255Z" fill="#0A9386"/>
<path d="M4.16208 16.4988H4.15047C3.82523 16.4988 3.56966 16.7607 3.56966 17.0739V17.0853V18.4917C3.55805 18.8048 3.80778 19.0724 4.133 19.0782C4.45821 19.0839 4.72537 18.8447 4.73122 18.5259V18.486V17.0796C4.74283 16.7721 4.48729 16.5102 4.16204 16.4988L4.16208 16.4988Z" fill="#0A9386"/>
</svg>
