<svg width="29" height="26" viewBox="0 0 29 26" fill="none" xmlns="http://www.w3.org/2000/svg">
<path fill-rule="evenodd" clip-rule="evenodd" d="M7.73617 4.94547C6.43183 3.78588 4.78648 3.24317 2.82751 3.79003C2.71738 3.82082 2.63516 3.91047 2.61614 4.02175C2.19171 6.48592 3.30795 7.87208 4.88879 9.03039C5.3202 9.34676 5.78839 9.64482 6.26775 9.94541C4.10522 9.0666 1.86746 9.14231 0.0828877 10.964C0.00362617 11.0449 -0.0213187 11.1639 0.0190534 11.2687C0.95582 13.7181 2.74613 14.3093 4.82415 14.4981C4.53225 15.1042 4.36906 15.7811 4.36906 16.4951C4.36906 17.646 4.79328 18.7006 5.49587 19.5149C5.50475 19.5259 5.51468 19.5359 5.52546 19.5457L5.52715 19.5476C5.53835 19.5573 5.54977 19.5654 5.5616 19.5738C7.201 20.6872 8.9444 21.7536 10.5755 22.4758C10.0198 23.5917 9.50028 24.6394 9.02383 25.5787C8.97226 25.6802 8.98536 25.8019 9.05681 25.8903C9.12846 25.9789 9.24619 26.0184 9.35822 25.9918C10.8046 25.6463 12.6996 24.6074 14.7232 23.1439C14.9521 23.1747 15.1853 23.1905 15.4226 23.1905C16.3649 23.1905 17.2491 22.9405 18.009 22.5043C18.0369 22.5182 18.0671 22.5282 18.0996 22.5334C20.377 22.8847 22.5625 22.9633 24.6655 22.7984C27.0588 22.7919 29 20.8777 29 18.5206C29 16.855 28.03 15.41 26.6156 14.7036C26.2936 14.2302 25.6821 13.784 24.5612 13.4217C25.5147 12.1294 26.3143 10.8568 26.8848 9.66811C28.2708 6.78126 28.2915 4.36948 26.174 3.2485C25.3382 2.8065 24.4399 2.83437 23.5006 3.25079C22.716 3.59794 21.8986 4.22465 21.067 5.06624C18.8434 4.72844 15.7901 5.31896 13.4758 4.89089C13.4528 4.88611 13.4297 4.88444 13.4061 4.88507L13.4031 4.88569H13.3995C13.3758 4.88735 13.3528 4.89151 13.3302 4.89838C13.2391 4.92521 13.1486 4.95495 13.0598 4.98699C12.4779 2.27942 10.906 0.155348 7.93685 0.000395565C7.8225 -0.00542873 7.71555 0.0534356 7.66101 0.152446C6.6177 2.04526 6.91996 3.54431 7.73563 4.94564L7.73617 4.94547ZM24.3374 3.57912C24.1421 3.62467 23.9444 3.69269 23.7436 3.78192C22.9264 4.14343 22.0772 4.83836 21.2082 5.76792C17.1614 10.0933 12.7789 19.4272 9.85742 25.2371C11.6549 24.6133 13.9901 23.092 16.3659 21.1292C20.4003 17.7975 24.542 13.1846 26.3504 9.41889C26.8539 8.36995 27.1754 7.38986 27.253 6.52436C27.2997 6.00707 27.2559 5.53304 27.1073 5.11558C26.4219 5.17548 25.8586 5.09103 25.4068 4.85391C24.9363 4.60639 24.5783 4.19352 24.3375 3.57909L24.3374 3.57912ZM19.9394 18.6894C19.66 20.8898 17.7549 22.5967 15.4457 22.6079C15.8764 22.2805 16.3108 21.9352 16.7464 21.5752C17.8189 20.6899 18.8978 19.7144 19.9394 18.6894ZM20.401 19.408C20.1241 20.4511 19.5175 21.3638 18.6972 22.0313C20.0348 22.2148 21.3391 22.3015 22.6139 22.298C21.4972 21.7127 20.6697 20.6608 20.401 19.4081V19.408ZM24.6564 22.2158C26.7272 22.2148 28.4086 20.5595 28.4086 18.5205C28.4086 16.4814 26.7261 14.8257 24.6534 14.8257C24.158 14.8257 23.6851 14.9202 23.2521 15.092C22.5524 15.9369 21.8008 16.7774 21.0172 17.5963C20.9397 17.8915 20.8989 18.2014 20.8989 18.5204C20.8989 20.5595 22.5803 22.2147 24.6517 22.2157H24.6528H24.6547L24.6564 22.2158ZM9.07678 12.408C6.8018 12.4278 4.96116 14.2513 4.96116 16.4948C4.96116 17.4907 5.32387 18.4032 5.92585 19.1127C7.53267 20.2029 9.23949 21.2478 10.8362 21.9525L10.8368 21.9513C10.9746 21.6746 11.1127 21.398 11.2511 21.1214L11.2606 21.1016C10.6439 20.2665 10.2792 19.239 10.2792 18.1284C10.2792 15.9147 11.7262 14.0312 13.7398 13.3446C12.1737 13.1023 10.6161 12.8082 9.07671 12.408L9.07678 12.408ZM15.1556 13.6566C12.7675 13.7935 10.8711 15.7445 10.8711 18.1284C10.8711 18.9991 11.1239 19.8122 11.5619 20.4998L11.5902 20.4441C12.7331 18.1691 13.8979 15.9047 15.1412 13.6815L15.1556 13.6566ZM24.1894 13.9164C24.0888 14.0474 23.9863 14.1791 23.8833 14.3102C24.1332 14.2658 24.3906 14.2432 24.6533 14.2432C24.8184 14.2432 24.9818 14.2519 25.1422 14.27C24.8789 14.1454 24.5639 14.0277 24.1894 13.9164V13.9164ZM8.43827 11.8722C5.91048 9.96896 2.9049 9.07785 0.642523 11.2363C1.53746 13.3748 3.2301 13.7977 5.14281 13.9397C5.44993 13.4786 5.83824 13.0732 6.28801 12.7448C6.15549 12.6976 6.02296 12.6504 5.89085 12.6031C5.43049 12.4384 4.97708 12.277 4.51779 12.1279C3.99888 11.9596 3.48503 11.803 2.96486 11.6609C3.63849 11.7308 4.30768 11.8188 4.98536 11.9357C5.38739 12.0056 5.78728 12.0825 6.18933 12.1751C6.43071 12.2304 6.66977 12.2938 6.91073 12.3592C7.37891 12.1168 7.89382 11.9492 8.43828 11.8722L8.43827 11.8722ZM13.4368 5.47491C12.1643 5.87219 11.1571 6.85644 10.7435 8.10383C10.7386 8.13586 10.7287 8.16789 10.7133 8.19764C10.6002 8.56913 10.5393 8.96351 10.5393 9.37181C10.5393 9.4573 10.5423 9.54237 10.5469 9.62683C10.5558 9.66073 10.5581 9.69442 10.5545 9.72771C10.6475 10.7823 11.1483 11.7234 11.9005 12.3961C11.9183 12.4119 11.9331 12.4294 11.946 12.4475C13.1126 12.6676 14.2867 12.8452 15.4634 13.0041C15.4822 13.0066 15.5 13.0106 15.5171 13.0164L15.5325 12.9896C15.9191 12.3123 16.3138 11.6396 16.7198 10.9734L16.7329 10.9518C16.5955 10.5366 16.5215 10.0934 16.5215 9.63266C16.5215 7.69805 17.8301 6.06152 19.6234 5.53377C17.6341 5.48822 15.3036 5.80168 13.4369 5.47491L13.4368 5.47491ZM9.9616 9.7352C8.85189 6.37182 6.58286 3.47214 3.17123 4.30174C2.88017 6.37864 3.87678 7.56134 5.24221 8.56267C6.73767 9.65799 8.65287 10.551 9.97567 12.0302C10.0993 12.06 10.2236 12.0885 10.3479 12.1164C10.0835 11.743 9.79282 11.3541 9.48866 10.9551C8.98666 10.2963 8.44514 9.61492 7.88709 8.95283C6.89091 7.76928 5.85707 6.64755 4.9598 5.81949C5.92325 6.57993 7.05129 7.61955 8.13735 8.73318C8.74821 9.35927 9.34532 10.0057 9.88984 10.6412C10.0277 10.8024 10.1621 10.9625 10.2923 11.1223C10.1141 10.6884 9.99997 10.2225 9.96149 9.7349L9.9616 9.7352ZM20.2183 5.99328C18.4553 6.29675 17.1135 7.81203 17.1135 9.63269C17.1135 9.84423 17.1319 10.051 17.1661 10.2519C18.1811 8.63615 19.2079 7.1739 20.2183 5.99328H20.2183ZM9.70673 7.58679C9.83271 7.83202 9.95171 8.08412 10.0635 8.34206C10.0809 8.26593 10.1003 8.19126 10.121 8.1168C9.9849 7.93791 9.84645 7.76153 9.70674 7.58681L9.70673 7.58679ZM12.5068 5.22683C12.0143 2.79072 10.6875 0.817392 8.09461 0.594442C7.19437 2.35456 7.62938 3.72901 8.48586 5.03524C9.01852 5.8477 9.708 6.63519 10.3607 7.46512C10.5133 7.12961 10.7052 6.81575 10.9301 6.52747C10.8401 6.28161 10.746 6.03929 10.6536 5.79653C10.4981 5.38822 10.3442 4.98572 10.1795 4.5862C9.89967 3.90707 9.60779 3.24791 9.2888 2.59956C9.70541 3.1961 10.1032 3.80473 10.4803 4.4412C10.704 4.8181 10.9193 5.19956 11.1229 5.59376C11.2017 5.74643 11.2774 5.90139 11.352 6.05677C11.6906 5.72667 12.0793 5.44585 12.5067 5.22684L12.5068 5.22683ZM24.9506 3.51229C25.1275 3.89896 25.3683 4.17267 25.6862 4.33992C25.9952 4.50237 26.371 4.56478 26.816 4.54959C26.5964 4.23738 26.2922 3.97174 25.894 3.76104C25.5892 3.59963 25.2743 3.51976 24.9506 3.51226V3.51229Z" fill="#0A9386"/>
</svg>
