<svg width="27" height="20" viewBox="0 0 27 20" fill="none" xmlns="http://www.w3.org/2000/svg">
<path d="M13.9608 20C15.9453 20 18.1862 19.7519 18.7623 18.7598C19.2745 18.8838 20.0426 19.0079 20.9389 19.0079C22.4115 19.0079 24.0758 18.7598 24.7801 17.8917C25.0362 17.5815 25.1002 17.1475 25.1002 16.6515C25.6763 16.4655 26.3167 16.2175 26.7008 15.7834C27.9172 14.357 25.0362 8.03184 24.9723 7.96983C22.6035 2.94689 20.7469 0.776409 18.8264 0.776409C18.4423 0.776409 18.1221 0.838482 17.8019 0.962412C17.5458 0.404412 16.6495 0.21821 16.1373 0.0942404C15.177 -0.0917631 13.9607 -0.0296901 13.3204 0.528315C12.168 -0.215887 10.1834 0.0321675 9.0949 0.96239C8.77471 0.83846 8.51883 0.776386 8.19862 0.776386C6.02203 0.776386 3.84523 4.37315 2.05265 7.9078C1.4125 9.14793 -0.828154 14.3571 0.324214 15.7213C0.772575 16.2173 1.54066 16.4654 2.18081 16.6514H2.30875H2.37283C2.37283 17.1475 2.50078 17.5816 2.69303 17.8296C3.39725 18.6978 5.06184 18.9459 6.5342 18.9459C7.36641 18.9459 8.13471 18.8838 8.64693 18.7599C9.73522 19.7522 11.912 19.9382 13.1924 20L13.9608 20ZM17.0336 1.33427C17.0336 1.33427 17.0336 1.39634 17.0977 1.39634C16.7137 1.70649 16.3935 2.01641 16.1374 2.32658C15.6251 2.14058 14.9209 1.95458 14.2808 1.89251C14.2808 1.7065 14.2808 1.39636 14.0887 1.14831C14.2808 1.02437 14.6648 0.900228 15.177 0.900228C16.0735 0.900228 16.9057 1.21038 17.0336 1.3343L17.0336 1.33427ZM14.5368 3.87688C14.1528 3.62881 13.8326 3.44281 13.3845 3.44281C13.1924 3.44281 13.0004 3.50488 12.8084 3.56674C12.5523 3.31866 12.2962 3.13266 11.9762 3.00874C12.2964 2.88481 12.8725 2.82274 13.5126 2.82274C14.2809 2.82274 15.0491 2.94667 15.4334 3.13289C15.1132 3.31867 14.7291 3.56674 14.5368 3.87692V3.87688ZM12.9363 1.33427C13.1924 1.52027 13.1924 1.64442 13.2565 1.89227C12.7443 1.89227 11.656 2.0162 11.0799 2.38842C10.8238 2.07827 10.5039 1.70628 10.0555 1.39611C10.8877 0.900179 12.2321 0.838332 12.9363 1.33425L12.9363 1.33427ZM2.50099 15.7831C1.98877 15.5971 1.34862 15.4111 1.15656 15.1631C0.644345 14.6051 1.60469 11.0083 3.01315 8.34171C3.84536 6.72934 6.40618 1.7064 8.26283 1.7064C8.96706 1.7064 9.67134 2.2644 10.1194 2.69871C8.1987 3.07071 6.53434 5.79932 4.48568 10.0162C3.97347 11.0701 2.75701 13.7366 2.50088 15.7833L2.50099 15.7831ZM3.52543 17.2714C3.0773 16.7752 3.65337 14.0468 5.38202 10.45C7.04661 6.91532 8.83913 3.62867 10.5676 3.62867C11.2718 3.62867 11.72 3.93882 12.0402 4.12482C10.6958 5.36495 9.67139 8.34165 9.09527 11.0702C8.19898 15.3491 8.19898 17.1474 8.32697 17.8915C6.85438 18.2015 4.22943 18.0775 3.52543 17.2712V17.2714ZM17.9941 18.2637C17.7379 18.6977 16.2015 19.1318 13.3845 19.0079H13.2566C11.272 19.0079 9.73534 18.5738 9.22335 17.9537C9.03132 17.7056 8.90315 15.9693 9.92757 11.1944C10.8879 6.72945 12.3603 4.31102 13.3206 4.31102C14.2169 4.31102 15.6894 6.41933 16.7777 11.0083C17.7378 14.7288 18.186 17.8297 17.9939 18.2638L17.9941 18.2637ZM24.076 17.2714C23.3077 18.2016 20.2348 18.2016 18.9542 17.8294C18.9542 15.845 17.9939 11.8142 17.8019 10.822C17.4178 9.2096 16.5216 6.17106 15.1769 4.49673C15.4971 4.12472 16.3293 3.44258 17.0335 3.50442C18.058 3.62835 19.9785 5.48881 22.2832 10.3258C23.9478 13.9846 24.5241 16.713 24.0759 17.2711L24.076 17.2714ZM26.0606 15.1631C25.8685 15.3491 25.4845 15.5351 25.1002 15.6592C24.78 13.6748 23.6276 11.0704 23.1156 10.0161C21.8353 7.34956 19.4024 2.88468 17.0977 2.63663H17.0336C17.4177 2.20256 18.1219 1.64433 18.8902 1.64433C20.8109 1.64433 22.8595 5.42707 24.204 8.27964C25.4204 10.8225 26.5087 14.6049 26.0606 15.163L26.0606 15.1631Z" fill="#0A9386"/>
</svg>
