<svg width="25" height="25" viewBox="0 0 25 25" fill="none" xmlns="http://www.w3.org/2000/svg">
<path d="M11.7304 22.1324L11.4007 21.8027H11.4005C10.0562 23.1547 8.15956 23.8041 6.26893 23.5602C4.37809 23.3164 2.70828 22.2069 1.75115 20.558C0.793817 18.9093 0.65798 16.9092 1.38352 15.1462C2.10926 13.3833 3.61361 12.0581 5.45407 11.5609C7.29454 11.0637 9.26166 11.451 10.7766 12.6086C12.2913 13.7665 13.1811 15.563 13.1844 17.4694C13.1873 19.0948 12.542 20.6545 11.3916 21.8028L12.051 22.4622V22.4624C13.6035 20.9106 14.3458 18.7247 14.0594 16.5486C13.7731 14.3722 12.4908 12.4527 10.5898 11.3552C8.68885 10.2577 6.38535 10.1069 4.35745 10.9471C2.32955 11.7873 0.807789 13.5231 0.240287 15.6435C-0.327427 17.7638 0.123341 20.0277 1.46012 21.7686C2.79689 23.5095 4.86751 24.53 7.06294 24.5291C8.9343 24.531 10.7295 23.787 12.0512 22.4622L11.7304 22.1324Z" fill="#0A9386"/>
<path d="M7.38773 20.6412C6.57281 20.4718 5.85913 19.9841 5.40485 19.2868C4.95054 18.5892 4.79334 17.7393 4.96775 16.9255C5.10045 16.3006 5.47597 15.7538 6.01156 15.4054C6.54715 15.057 7.19927 14.9355 7.82421 15.0676C8.30133 15.1669 8.71912 15.4518 8.98581 15.8597C9.25249 16.2676 9.34577 16.7646 9.24562 17.2413C9.16952 17.5998 8.95532 17.9139 8.64929 18.1157C8.34326 18.3174 7.97021 18.3904 7.61068 18.3189C7.3488 18.2641 7.11947 18.1076 6.97306 17.8839C6.82667 17.6599 6.77545 17.387 6.8304 17.1252C6.88286 16.8687 6.7176 16.6182 6.46111 16.5655C6.20462 16.5128 5.95393 16.6783 5.90146 16.9348C5.79571 17.438 5.89441 17.9626 6.17579 18.3931C6.45717 18.8236 6.89819 19.1242 7.40167 19.2292C7.99991 19.3507 8.62193 19.2315 9.13306 18.8976C9.64418 18.5638 10.0033 18.0423 10.1327 17.4457C10.277 16.731 10.1329 15.988 9.73189 15.379C9.33066 14.77 8.70528 14.3441 7.99159 14.1944C7.12422 14.0115 6.21997 14.181 5.47767 14.6653C4.73536 15.1497 4.21611 15.9095 4.03431 16.7768C3.81638 17.832 4.02747 18.9305 4.62092 19.8301C5.21459 20.7293 6.14146 21.3553 7.19726 21.5702C7.45396 21.6228 7.70445 21.4574 7.75712 21.2009C7.80958 20.9444 7.64432 20.6939 7.38783 20.6412L7.38773 20.6412Z" fill="#0A9386"/>
<path d="M11.7304 12.8058L11.4005 13.1357C12.5395 14.2747 13.1839 15.8168 13.1943 17.4275C13.2049 19.0385 12.5804 20.5884 11.4563 21.7423C11.273 21.9219 11.2699 22.2161 11.4494 22.3994C11.629 22.5829 11.9232 22.586 12.1065 22.4065L12.2133 22.309C13.9907 20.4837 15.4901 18.4071 16.6631 16.1457C17.8382 13.8791 18.6184 11.5893 18.6232 9.7036C18.6303 9.17776 18.5531 8.65401 18.3955 8.15217C18.1023 7.19111 17.3501 6.43905 16.389 6.14582C15.8872 5.98802 15.3636 5.9113 14.8375 5.91814C12.9519 5.91814 10.6573 6.6984 8.39549 7.87826C6.13393 9.05127 4.05729 10.5504 2.23233 12.3278L2.13487 12.4346C2.04882 12.5227 2.00072 12.6415 2.00217 12.7647C2.00341 12.8879 2.05359 13.0057 2.14172 13.0919C2.32522 13.2715 2.61946 13.2684 2.79903 13.0849C3.95272 11.9608 5.50293 11.3364 7.11361 11.3468C8.72455 11.3572 10.2664 12.0017 11.4056 13.1407L12.0652 12.4811C10.7535 11.1708 8.9787 10.4293 7.12481 10.4171C5.27086 10.4048 3.48661 11.1231 2.15791 12.4161L2.47391 12.7458L2.81293 13.0616L2.91038 12.9548L2.57136 12.639L2.90105 12.9687C4.65982 11.2587 6.65975 9.81591 8.83723 8.68627C11.0157 7.54829 13.2219 6.82839 14.8477 6.82839C15.274 6.82051 15.6987 6.88002 16.1064 7.00506C16.7738 7.20826 17.2964 7.73079 17.4998 8.39846C17.6246 8.80591 17.6841 9.23079 17.6762 9.65709C17.6762 11.2827 16.9608 13.4935 15.8184 15.6676C14.6887 17.845 13.2459 19.8449 11.5359 21.6032L11.8656 21.9329L11.5498 21.5939L11.443 21.6914L11.7914 22.0629L12.1258 22.3881C13.4188 21.0596 14.1369 19.2753 14.1247 17.4212C14.1126 15.5672 13.3712 13.7927 12.0607 12.481L11.7304 12.8058Z" fill="#0A9386"/>
<path d="M17.829 7.98919L18.1587 8.31888L21.8234 4.65414L21.4938 4.32445L21.0803 4.53823C21.3111 4.98756 21.7216 5.3179 22.2099 5.44726C22.6982 5.57662 23.2185 5.49288 23.6415 5.21668C24.0645 4.9407 24.3506 4.49821 24.4288 3.99908C24.507 3.49999 24.3697 2.99116 24.0514 2.59904C23.7331 2.20692 23.2633 1.96805 22.7588 1.94194C22.2545 1.91581 21.7624 2.10491 21.4054 2.46198C21.2476 2.64631 21.2582 2.92105 21.4297 3.09254C21.6013 3.26423 21.8761 3.2748 22.0602 3.11701C22.4308 2.75621 22.6296 2.25463 22.6074 1.73793C22.5853 1.22142 22.3437 0.738712 21.9437 0.411089C21.5437 0.0834658 21.0228 -0.0581469 20.5121 0.0218904C20.0012 0.101928 19.5488 0.395955 19.268 0.830173C18.9872 1.26439 18.9049 1.7977 19.0416 2.29636C19.1784 2.79504 19.5212 3.21181 19.9842 3.44219L20.1932 3.02873L19.8635 2.69904L16.1988 6.36378V6.36357C16.0907 6.47181 16.0426 6.62629 16.0706 6.77641C16.0984 6.92674 16.1984 7.05385 16.3381 7.11605C16.819 7.31635 17.2013 7.69873 17.4016 8.17976C17.464 8.31931 17.5909 8.41925 17.7413 8.44725C17.8916 8.47504 18.0459 8.42714 18.1541 8.3191L17.829 7.98921L18.2934 7.79886C17.9996 7.10922 17.4503 6.55992 16.7607 6.26611L16.5471 6.70736L16.8768 7.03705L20.5415 3.37231V3.37251C20.6471 3.26759 20.696 3.1183 20.673 2.97129C20.65 2.82427 20.5579 2.69696 20.4254 2.62936C20.3433 2.59038 20.2681 2.53875 20.2023 2.47613C20.0396 2.31439 19.9475 2.0946 19.9469 1.86505C19.9462 1.63551 20.0371 1.41509 20.1992 1.25274C20.3612 1.09018 20.5814 0.998736 20.8109 0.998736C21.0404 0.998736 21.2604 1.09018 21.4225 1.25274C21.5845 1.4151 21.6753 1.63551 21.6747 1.86505C21.6741 2.09459 21.5822 2.31438 21.4192 2.47613C21.3209 2.56031 21.2623 2.68162 21.2573 2.811C21.2523 2.94019 21.3014 3.06584 21.3929 3.15728C21.4845 3.24873 21.61 3.29786 21.7394 3.29289C21.8686 3.28791 21.9901 3.22923 22.0742 3.13095C22.2486 2.94661 22.4937 2.84604 22.7473 2.85413C23.0009 2.86243 23.2388 2.97896 23.4009 3.17408C23.563 3.3694 23.6337 3.62465 23.5952 3.87556C23.5568 4.12625 23.4127 4.34853 23.1995 4.48622C22.9864 4.6239 22.7245 4.6635 22.48 4.59549C22.2355 4.52727 22.0321 4.35766 21.9208 4.12957C21.8532 3.99707 21.7261 3.9048 21.5789 3.88199C21.4319 3.85897 21.2826 3.90791 21.1776 4.01345L17.5129 7.6782L17.8289 7.98922L18.2934 7.79888L17.829 7.98919Z" fill="#0A9386"/>
</svg>
