<svg width="29" height="29" viewBox="0 0 29 29" fill="none" xmlns="http://www.w3.org/2000/svg">
<path d="M16.0627 21.107C16.5763 21.1786 17.074 21.2223 17.5448 21.2223C23.7399 21.2216 26.1706 15.4487 26.1964 15.3846C26.2669 15.2125 26.2259 15.0162 26.0964 14.884C25.9658 14.7511 25.7706 14.7103 25.5945 14.7767C25.5762 14.7847 23.6437 15.5017 19.9718 14.2095C18.1131 13.5566 17.0012 13.6917 16.3356 14.0571L16.0842 13.4561C15.8304 12.874 15.5426 12.3981 15.2232 12.0293C16.348 10.1562 17.4057 9.14334 17.8948 8.73468C17.9198 8.7555 17.9376 8.78021 17.9646 8.79966C18.4666 9.1671 18.9775 9.31514 19.4758 9.31514C21.4764 9.31514 23.2635 6.9256 23.3566 6.79955C23.477 6.63551 23.477 6.41243 23.3566 6.24838C23.3539 6.2445 23.3486 6.24427 23.3457 6.24061C23.5731 5.84914 23.7042 5.40778 23.7042 4.94266C23.7042 4.24894 23.434 3.59599 22.9435 3.10545C22.0905 2.25435 20.7967 2.12801 19.8016 2.70712C19.7874 2.69454 19.7847 2.67417 19.7687 2.66319C19.5973 2.54559 19.3656 2.55589 19.2068 2.69042C19.1125 2.76935 16.8996 4.64846 16.7509 6.49229C16.7026 7.08919 16.8698 7.61797 17.2416 8.06962C16.6781 8.54642 15.6282 9.58609 14.5009 11.4331C14.3883 11.3661 14.278 11.2899 14.1598 11.2439C13.4423 10.9664 12.8881 11.1934 12.9062 11.1929C12.8618 11.2034 12.73 11.2423 12.5335 11.3441C12.374 10.5779 11.9032 9.96771 11.1154 9.58336C10.5716 9.31704 9.94495 9.20402 9.28508 9.25985L7.75215 9.3866C7.01637 8.45151 6.61457 7.71615 6.4272 7.31786C6.45397 7.29887 6.48189 7.28789 6.50774 7.26661C8.92727 5.29668 6.05587 1.69617 5.93209 1.54401C5.80603 1.38614 5.58799 1.33009 5.39969 1.40558C5.39489 1.40741 5.39306 1.41291 5.38848 1.41496C4.57147 0.607089 3.28653 0.405076 2.25356 1.01206C1.65525 1.36303 1.22833 1.92606 1.05332 2.59759C0.935488 3.05014 0.951273 3.51347 1.07505 3.95228C1.05949 3.96258 1.03936 3.96006 1.02495 3.97242C0.867078 4.10924 0.819489 4.3346 0.909173 4.52359C0.962483 4.63432 2.22176 7.24921 3.96795 7.85829C4.22122 7.94638 4.47107 7.99054 4.71725 7.99054C5.02315 7.99054 5.32335 7.91755 5.61644 7.7821C5.80955 8.18181 6.15113 8.79955 6.71214 9.56144C5.94456 9.75523 5.36113 10.0787 4.98633 10.5387C4.50494 11.1289 4.54247 11.7156 4.54911 11.7156L4.55025 11.7149C4.54682 11.7552 4.54362 11.8936 4.58114 12.1155C3.80208 12.0295 3.07638 12.2883 2.46571 12.9199C2.04679 13.3549 1.74476 13.9218 1.59265 14.5602L1.2236 16.1231C0.948818 17.3698 1.03507 18.3524 1.48122 19.0446C1.90357 19.6999 2.46001 19.8387 2.46551 19.8222C2.50693 19.8394 2.64191 19.8833 2.85607 19.9165C2.53347 20.6305 2.55498 21.4018 2.96749 22.1772C3.25257 22.7119 3.69869 23.1741 4.25741 23.5143L5.6302 24.3482C6.46233 24.8376 7.21526 25.0834 7.87607 25.0834C8.08953 25.0834 8.29385 25.0577 8.48808 25.0063C9.22731 24.8111 9.53938 24.3114 9.53159 24.3114H9.53045C9.55676 24.2812 9.6389 24.1748 9.73796 23.9781C10.1903 24.3892 10.741 24.6107 11.3734 24.6107C11.5516 24.6107 11.7367 24.5942 11.9264 24.5608C12.5247 24.4554 13.1026 24.1742 13.5966 23.7472L14.815 22.6991C15.4169 22.1664 15.8196 21.634 16.0626 21.1071L16.0627 21.107ZM22.2853 3.76281C22.601 4.07854 22.7747 4.49747 22.7747 4.94249C22.7747 5.38819 22.6011 5.80712 22.2842 6.12329C22.2434 6.1647 22.1977 6.19834 22.1531 6.23449C21.7994 6.28253 21.3923 6.2894 21.0578 6.15052C21.0057 6.00569 21.1214 5.64305 21.2576 5.40807C21.3631 5.22526 21.3326 4.99303 21.1825 4.84432C21.0327 4.69675 20.8032 4.66654 20.6195 4.7727C20.4152 4.89305 20.0358 5.02712 19.8212 4.89534C19.7196 4.61918 19.7313 4.2531 19.7787 3.92182C19.7844 3.91564 19.7922 3.91313 19.7974 3.90649C19.8384 3.85776 19.8802 3.8088 19.9269 3.76281C20.5753 3.11396 21.6346 3.11279 22.2853 3.76281L22.2853 3.76281ZM18.8131 4.40709C18.8166 4.68027 18.8541 4.9594 18.9484 5.21608C19.0618 5.52495 19.2753 5.74345 19.5661 5.8473C19.7466 5.91137 19.9397 5.9212 20.1237 5.90588C20.1054 6.09028 20.118 6.28224 20.1827 6.4639C20.2873 6.75401 20.5053 6.96748 20.8139 7.08095C21.1024 7.18643 21.4191 7.21777 21.7279 7.21617C20.8921 7.99798 19.6059 8.84768 18.5136 8.0483C18.4354 7.99155 18.374 7.92108 18.2468 7.78541C18.1571 7.7003 18.0652 7.60763 17.9766 7.50605C17.7474 7.23814 17.6485 6.93155 17.678 6.56821C17.7343 5.85598 18.2693 5.0474 18.8131 4.40704L18.8131 4.40709ZM19.6636 15.087C22.1332 15.9557 23.8966 15.9816 24.9126 15.8642C23.9674 17.4891 21.3697 20.8364 16.3213 20.2013C16.3218 20.196 16.3241 20.1908 16.3243 20.1857C16.3664 19.4284 15.9939 18.9777 15.9848 18.9777V18.9784C15.9642 18.9441 15.8853 18.8301 15.7242 18.672C16.0827 18.4675 16.3675 18.1911 16.5758 17.8465C16.8926 17.8033 17.2205 17.7879 17.555 17.7943L18.3656 19.0216C18.4553 19.1568 18.6029 19.23 18.7539 19.23C18.8424 19.23 18.931 19.2051 19.0106 19.1534C19.2252 19.0115 19.2831 18.723 19.1424 18.5084L18.7246 17.876C18.9106 17.8977 19.0969 17.9202 19.2799 17.9458C19.7398 18.0105 20.1473 18.0435 20.5152 18.0435C21.5132 18.0435 22.2229 17.7982 22.9097 17.2578C23.1118 17.0988 23.147 16.8064 22.988 16.6044C22.8278 16.4024 22.5361 16.3687 22.3352 16.5266C21.7005 17.026 21.0466 17.2555 19.4092 17.0251C19.1305 16.9862 18.8472 16.9515 18.5619 16.9226L19.1424 16.0436C19.2831 15.8297 19.2241 15.5412 19.0106 15.3993C18.7948 15.2591 18.5075 15.3169 18.3656 15.5316L17.4845 16.8659C17.3015 16.864 17.1187 16.8633 16.9372 16.8739C16.943 16.84 16.9571 16.8128 16.9622 16.7782C17.0452 16.1845 16.9569 15.556 16.7103 14.9591C17.2585 14.5719 18.2725 14.5973 19.6638 15.087L19.6636 15.087ZM13.1961 12.0736C13.2417 12.0553 14.2907 11.667 15.2285 13.8211L15.8463 15.297C16.0348 15.7462 16.1018 16.2134 16.0405 16.648C15.9451 17.3333 15.6124 17.7748 15.0265 17.9979C14.6881 18.1274 14.2953 18.1439 13.8933 18.0462L10.989 17.3413C10.9896 17.3191 10.9956 17.2983 10.9956 17.2759C10.9956 16.621 10.6693 16.0438 10.1733 15.6889C11.7643 12.5332 13.1227 12.0976 13.1961 12.0735L13.1961 12.0736ZM9.04143 18.2997C8.477 18.2997 8.01848 17.8405 8.01848 17.2761C8.01848 16.7112 8.47722 16.252 9.04143 16.252C9.60587 16.252 10.0644 16.7112 10.0644 17.2761C10.0646 17.8403 9.60588 18.2997 9.04143 18.2997ZM1.95429 2.83216C2.06663 2.40134 2.34027 2.03964 2.72421 1.81495C3.51674 1.35119 4.53969 1.61521 5.00756 2.40981C5.03662 2.46037 5.05835 2.51322 5.08238 2.56538C5.03936 2.92024 4.94373 3.31627 4.72477 3.60479C4.56461 3.63659 4.2491 3.41466 4.05717 3.22499C3.90731 3.07627 3.67463 3.04791 3.49525 3.15407C3.31244 3.26069 3.22504 3.47667 3.28178 3.67984C3.3534 3.94158 3.37376 4.32137 3.19896 4.48543C2.90313 4.5122 2.55333 4.40947 2.24624 4.28112C2.23983 4.27128 2.23868 4.26007 2.23159 4.25046C2.19407 4.20172 2.16113 4.15002 2.12932 4.09762C1.90418 3.71256 1.84172 3.26368 1.95429 2.83219V2.83216ZM4.27612 6.9809C3.60161 6.74592 2.95463 6.02501 2.47183 5.33744C2.73631 5.40265 3.01339 5.43742 3.2882 5.41066C3.61514 5.37885 3.881 5.22739 4.05466 4.97297C4.16266 4.8135 4.2226 4.63069 4.25234 4.4472C4.42714 4.5124 4.61681 4.54763 4.80763 4.53116C5.11421 4.50394 5.37527 4.34676 5.56267 4.07655C5.73862 3.82328 5.85233 3.52355 5.92485 3.22545C6.47213 4.23077 6.97065 5.69049 5.92142 6.54434C5.84638 6.60497 5.7647 6.64661 5.59791 6.7379C5.49335 6.80265 5.38216 6.86854 5.25952 6.92803C4.9415 7.08384 4.62256 7.10077 4.27617 6.98088L4.27612 6.9809ZM7.76868 10.3181L9.36293 10.1863C9.84089 10.1511 10.3134 10.2273 10.7085 10.419C11.3296 10.7222 11.6475 11.1741 11.6793 11.7975C11.6818 11.8529 11.6747 11.908 11.6719 11.9631C11.0251 12.5482 10.187 13.5768 9.30366 15.3484C9.21717 15.3365 9.13138 15.3219 9.04169 15.3219C8.81449 15.3219 8.59943 15.3683 8.39646 15.4399L6.40527 13.0964C6.18197 12.833 5.92068 12.631 5.64314 12.4662C5.48252 12.024 5.47886 11.7725 5.47772 11.7117C5.4752 11.6641 5.43539 10.5446 7.76862 10.3181L7.76868 10.3181ZM2.13141 16.3305L2.49931 14.7745C2.61165 14.2993 2.83198 13.8815 3.1351 13.5664C3.61649 13.069 4.14224 12.9062 4.74968 13.0702C5.10066 13.1649 5.42759 13.3818 5.69667 13.698L7.6126 15.9528C7.28977 16.3014 7.08752 16.7641 7.08752 17.2757C7.08752 17.4772 7.12687 17.668 7.18406 17.8513C4.14977 19.3769 2.82096 18.963 2.74909 18.9397C2.70356 18.9278 1.62505 18.6203 2.13134 16.3305L2.13141 16.3305ZM6.10876 23.55L4.74171 22.7194C4.32507 22.4662 3.99586 22.1273 3.79015 21.7402C3.46435 21.1293 3.47327 20.577 3.81509 20.053C3.84667 20.0052 3.88579 19.9645 3.92171 19.9206C4.76209 19.8304 5.98934 19.5097 7.66273 18.6581C7.9215 18.9161 8.25301 19.1001 8.62254 19.1815L8.84401 22.1041C8.86986 22.4473 8.96229 22.764 9.08996 23.0605C8.96069 23.5128 8.81518 23.7183 8.77926 23.7693C8.75546 23.8089 8.12765 24.7365 6.10875 23.5499L6.10876 23.55ZM12.9897 23.0425C12.6218 23.3599 12.1983 23.5683 11.7657 23.6442C11.0855 23.7646 10.5622 23.5868 10.1683 23.0981C9.94018 22.8137 9.80268 22.4458 9.77087 22.0337L9.55237 19.153C10.058 19.015 10.4785 18.6816 10.7329 18.2362L13.6732 18.9501C13.9184 19.0098 14.1626 19.0391 14.4021 19.0391C14.4915 19.0391 14.5778 19.0244 14.6654 19.016C15.0509 19.2763 15.1997 19.4758 15.2365 19.525C15.2672 19.5619 15.9575 20.4441 14.2032 21.9985L12.9897 23.0425Z" fill="#0A9386"/>
<path d="M18.0729 22.6199C15.7941 22.6199 14.0092 23.8325 14.0092 25.3801C14.0092 26.9276 15.7941 28.1402 18.0729 28.1402C19.7726 28.1402 23.4992 27.5174 23.4992 25.6672C23.4992 24.0148 20.1654 22.6199 18.0729 22.6199ZM18.0729 27.2104C16.3743 27.2104 14.9402 26.3719 14.9402 25.3801C14.9402 24.3882 16.3743 23.5497 18.0729 23.5497C20.0565 23.5497 22.568 24.8627 22.568 25.6672C22.568 26.4025 20.2155 27.2104 18.0729 27.2104Z" fill="#0A9386"/>
<path d="M19.741 25.5637C18.9665 26.1638 17.2043 25.8691 16.5902 25.7051C16.3427 25.6369 16.0871 25.7856 16.0215 26.0338C15.9544 26.2814 16.1008 26.5363 16.3484 26.6033C16.5017 26.6447 17.3373 26.8577 18.265 26.8577C18.9825 26.8577 19.7547 26.7305 20.3112 26.2986C20.5143 26.1414 20.5507 25.849 20.394 25.6462C20.2348 25.4428 19.9408 25.4053 19.741 25.5636L19.741 25.5637Z" fill="#0A9386"/>
<path d="M24.2767 19.7644C22.636 19.7644 21.3495 20.7126 21.3495 21.9235C21.3495 23.1338 22.636 24.082 24.2767 24.082C25.4848 24.082 28.1349 23.5921 28.1349 22.1354C28.1349 20.8267 25.8005 19.7645 24.2767 19.7645V19.7644ZM24.2767 23.1519C23.1947 23.1519 22.2807 22.5893 22.2807 21.9233C22.2807 21.2573 23.1947 20.6942 24.2767 20.6942C25.5404 20.6942 27.204 21.6003 27.204 22.135C27.204 22.5605 25.7289 23.1519 24.2767 23.1519Z" fill="#0A9386"/>
<path d="M25.0423 21.7892C24.5142 21.9368 23.7864 21.7716 23.6128 21.7091C23.4096 21.6076 23.1563 21.67 23.0234 21.862C22.877 22.0736 22.9303 22.3633 23.1426 22.5093C23.2811 22.6051 23.8919 22.7779 24.5426 22.7779C24.7947 22.7779 25.0535 22.7522 25.2919 22.6854C25.5395 22.6161 25.6836 22.3601 25.6154 22.1125C25.5463 21.8652 25.2944 21.7165 25.0423 21.7892L25.0423 21.7892Z" fill="#0A9386"/>
</svg>
