<svg width="19" height="30" viewBox="0 0 19 30" fill="none" xmlns="http://www.w3.org/2000/svg">
<path d="M18.4132 20.4462C18.4837 20.0591 18.5539 19.6369 18.6243 19.1089C19.0114 16.3639 18.0612 14.8859 17.8501 14.6043C17.3223 13.619 16.4072 12.9503 15.2812 12.6337C14.4014 12.3872 13.4512 12.4226 12.5362 12.7041C10.4951 10.8741 9.43932 8.97389 8.91151 7.67186C8.34839 6.26432 8.24281 5.27896 8.24281 5.27896V5.24385C8.27791 5.20875 8.31326 5.1383 8.34836 5.1032C10.9175 1.33732 11.0936 0.281507 11.0936 0.035103H10.0731V0C10.0731 0.035103 9.89712 0.985365 7.50421 4.53959C5.32239 7.81228 5.28707 10.7686 5.39259 11.8946C5.18147 11.9297 4.97036 11.9651 4.79436 12.0353C1.55654 12.9504 -0.519697 16.0123 0.113626 18.8977V18.9328C0.184079 19.1792 2.01385 25.3376 3.1401 26.8861C4.44213 28.7161 5.8146 29.1734 6.83528 29.1734C7.43351 29.1734 7.92616 28.9974 8.24282 28.8918C9.40414 28.3991 10.1784 27.3083 10.0024 26.4989C9.61528 24.7042 9.79129 24.2467 10.6357 22.4871C11.8322 24.2115 12.712 25.3025 13.24 25.7247C14.3308 26.5694 15.246 26.851 15.9849 26.851C16.8998 26.851 17.5334 26.4287 17.8851 26.1823C18.7298 25.4785 19.117 24.3875 18.8 23.754C18.0614 22.4522 18.1318 22.0651 18.4132 20.4462L18.4132 20.4462ZM7.50382 6.61592C7.89094 8.09396 8.91136 10.6628 11.5157 13.1264C11.4101 13.1615 11.3397 13.2319 11.2341 13.3024C11.0934 13.3728 10.9876 13.4784 10.847 13.5488C10.495 13.1617 10.1078 12.8451 9.65053 12.5635C8.70029 12.0003 7.57429 11.7188 6.44803 11.7541C6.37758 10.9794 6.37758 8.97361 7.50384 6.61577L7.50382 6.61592ZM10.4247 20.587C10.1783 21.1501 9.96716 21.6074 9.75602 22.0299C8.87623 23.8951 8.52419 24.5988 9.01687 26.7455C9.05198 26.9215 8.66486 27.6253 7.78504 27.9773C7.04589 28.294 5.56791 28.47 3.98435 26.2882C3.13969 25.1269 1.62651 20.4112 1.13389 18.6516C0.60612 16.2938 2.40079 13.76 5.11061 12.9858C6.55352 12.5987 7.99644 12.7393 9.15751 13.408C10.0724 13.9711 10.706 14.8155 10.9522 15.8363V15.8714L10.9873 15.9065C10.9525 15.9767 11.6563 17.7717 10.4247 20.587L10.4247 20.587ZM17.0759 25.5488C16.2313 26.147 15.0699 25.9359 13.8734 24.9857C13.3808 24.5986 12.3954 23.3317 11.1285 21.4665C11.1989 21.3259 11.2692 21.185 11.3396 21.0443C12.6769 18.0178 12.0434 16.012 11.9027 15.66C11.7972 15.2378 11.6563 14.8153 11.4452 14.4282C11.5507 14.3577 11.6563 14.2875 11.7618 14.217C12.7823 13.5837 13.979 13.3724 15.0345 13.6539C15.8792 13.865 16.583 14.4281 16.9701 15.167L17.0403 15.2372C17.0403 15.2372 17.9906 16.5041 17.6386 19.0029C17.5681 19.4955 17.4979 19.9178 17.4274 20.3049C17.1459 22.0293 17.0403 22.6627 17.9201 24.3167C17.9204 24.4228 17.7446 25.0915 17.0759 25.5488L17.0759 25.5488Z" fill="#0A9386"/>
<path d="M3.42162 16.7863C3.52718 16.6807 3.56228 16.5047 3.45672 16.3992C3.35117 16.2936 3.17516 16.2585 3.0696 16.3641C2.99915 16.4345 1.134 18.1236 3.84382 23.7543C3.87892 23.8598 3.98448 23.9303 4.09028 23.9303C4.12538 23.9303 4.16073 23.9303 4.23094 23.8952C4.3716 23.8247 4.44205 23.6487 4.3716 23.5081C1.83805 18.3697 3.38649 16.821 3.42162 16.7865L3.42162 16.7863Z" fill="#0A9386"/>
<path d="M5.00524 24.7045C4.93478 24.5638 4.75877 24.5285 4.61811 24.5989C4.47746 24.6694 4.44211 24.8454 4.51256 24.986L5.00523 25.901C5.04033 26.0065 5.14589 26.0416 5.25169 26.0416C5.28679 26.0416 5.35725 26.0416 5.39235 26.0065C5.53301 25.9361 5.56836 25.7601 5.4979 25.6194L5.00524 24.7045Z" fill="#0A9386"/>
</svg>
