<svg width="27" height="25" viewBox="0 0 27 25" fill="none" xmlns="http://www.w3.org/2000/svg">
<path fill-rule="evenodd" clip-rule="evenodd" d="M22.5802 16.2926C22.2162 16.2926 21.8651 16.2385 21.5339 16.1391L20.37 18.2114C21.0908 18.8738 21.5426 19.823 21.5426 20.8777C21.5426 22.879 19.9167 24.5014 17.9112 24.5014C16.1598 24.5014 14.6979 23.2639 14.3558 21.6172H11.9066C11.5646 23.2639 10.1026 24.5014 8.35108 24.5014C6.34552 24.5014 4.7197 22.8788 4.7197 20.8777C4.7197 18.8764 6.34558 17.254 8.35108 17.254C10.1025 17.254 11.5644 18.4915 11.9066 20.1382H14.3558C14.6977 18.4915 16.1597 17.254 17.9112 17.254C18.3266 17.254 18.7254 17.3246 19.097 17.4525L20.2316 15.4317C19.4471 14.7671 18.9483 13.7763 18.9483 12.6689C18.9483 10.6676 20.5742 9.04521 22.5797 9.04521C24.5855 9.04521 26.2116 10.6676 26.2116 12.6689C26.2116 14.67 24.5857 16.2926 22.5802 16.2926ZM8.3506 18.7332C7.1635 18.7332 6.20164 19.6934 6.20164 20.8779C6.20164 22.0622 7.16398 23.0227 8.3506 23.0227C9.5377 23.0227 10.4996 22.0625 10.4996 20.8779C10.5 19.6934 9.5377 18.7332 8.3506 18.7332ZM17.911 18.7332C16.7239 18.7332 15.762 19.6934 15.762 20.8779C15.762 22.0622 16.7244 23.0227 17.911 23.0227C19.0981 23.0227 20.06 22.0625 20.06 20.8779C20.0604 19.6934 19.0981 18.7332 17.911 18.7332ZM22.5802 10.524C21.3931 10.524 20.4312 11.4842 20.4312 12.6687C20.4312 13.853 21.3936 14.8135 22.5802 14.8135C23.7673 14.8135 24.7292 13.8533 24.7292 12.6687C24.7292 11.4842 23.7673 10.524 22.5802 10.524ZM17.911 8.00985C15.9054 8.00985 14.2796 6.38727 14.2796 4.38615C14.2796 2.38485 15.9055 0.762451 17.911 0.762451C19.9166 0.762451 21.5424 2.38503 21.5424 4.38615C21.5426 6.38727 19.9167 8.00985 17.911 8.00985ZM17.911 2.24139C16.7239 2.24139 15.762 3.20163 15.762 4.38615C15.762 5.57043 16.7244 6.53091 17.911 6.53091C19.0981 6.53091 20.06 5.57067 20.06 4.38615C20.0604 3.20163 19.0981 2.24139 17.911 2.24139ZM8.3506 8.00985C7.97653 8.00985 7.61584 7.95337 7.276 7.8486L6.11512 9.91578C6.89326 10.5805 7.38682 11.567 7.38682 12.6692C7.38682 14.6705 5.76094 16.2929 3.75544 16.2929C1.74994 16.2929 0.124237 14.6699 0.124237 12.6688C0.124237 10.6675 1.75012 9.04512 3.75562 9.04512C4.12452 9.04512 4.48078 9.10067 4.81642 9.20262L5.9803 7.13028C5.20852 6.4656 4.71892 5.4831 4.71892 4.38624C4.71892 2.38494 6.3448 0.762541 8.3503 0.762541C10.3559 0.762541 11.9817 2.38512 11.9817 4.38624C11.9821 6.38736 10.356 8.00994 8.35048 8.00994L8.3506 8.00985ZM1.6066 12.6687C1.6066 13.853 2.56894 14.8135 3.75556 14.8135C4.94266 14.8135 5.90452 13.8533 5.90452 12.6687C5.90452 11.4845 4.94218 10.524 3.75556 10.524C2.5687 10.524 1.6066 11.4842 1.6066 12.6687ZM8.3506 2.24133C7.1635 2.24133 6.20164 3.20157 6.20164 4.38609C6.20164 5.57037 7.16398 6.53085 8.3506 6.53085C9.5377 6.53085 10.4996 5.57061 10.4996 4.38609C10.5 3.20157 9.5377 2.24133 8.3506 2.24133Z" fill="#0A9386"/>
</svg>
