<svg width="28" height="26" viewBox="0 0 28 26" fill="none" xmlns="http://www.w3.org/2000/svg">
<path d="M11.4135 3.73909C11.1702 3.63966 10.8845 3.75637 10.784 4.00005L10.4181 4.88448C10.3177 5.12815 10.4356 5.40747 10.6817 5.50775C10.7416 5.53165 10.8032 5.54317 10.8642 5.54317C11.0534 5.54317 11.2349 5.43136 11.3112 5.24593L11.6771 4.36167C11.7786 4.11863 11.6607 3.83953 11.4135 3.73905L11.4135 3.73909Z" fill="#0A9386"/>
<path d="M13.5238 8.72646C13.5837 8.75035 13.6454 8.76188 13.7064 8.76188C13.8956 8.76188 14.0771 8.65007 14.1533 8.46464L14.5193 7.58038C14.6197 7.3367 14.5018 7.05739 14.2557 6.95711C14.0124 6.85767 13.7275 6.97439 13.6262 7.21807L13.2603 8.10233C13.159 8.34687 13.2767 8.62596 13.5238 8.72647L13.5238 8.72646Z" fill="#0A9386"/>
<path d="M9.58352 8.16199C9.34214 8.06362 9.05444 8.17927 8.95402 8.42294L8.58808 9.30721C8.48765 9.55089 8.60553 9.8302 8.85165 9.93048C8.91156 9.95438 8.97319 9.9659 9.03419 9.9659C9.22341 9.9659 9.40487 9.85409 9.48116 9.66866L9.8471 8.7844C9.9486 8.54158 9.83072 8.26248 9.58353 8.16195L9.58352 8.16199Z" fill="#0A9386"/>
<path d="M10.8001 12.7869C10.552 12.6875 10.271 12.8042 10.1706 13.0479L9.80463 13.933C9.7042 14.1777 9.82209 14.456 10.0682 14.5563C10.129 14.5802 10.1897 14.5917 10.2507 14.5917C10.441 14.5917 10.6214 14.4799 10.6977 14.2944L11.0636 13.4094C11.1641 13.1663 11.0464 12.8872 10.8001 12.7869L10.8001 12.7869Z" fill="#0A9386"/>
<path d="M6.29037 16.1237C6.35028 16.1476 6.41192 16.1591 6.47291 16.1591C6.66213 16.1591 6.84359 16.0473 6.91988 15.8619L7.28582 14.9776C7.38625 14.7339 7.26837 14.4546 7.02225 14.3543C6.78002 14.2549 6.49318 14.3716 6.39275 14.6153L6.02681 15.4995C5.92553 15.7441 6.04319 16.0232 6.29038 16.1237L6.29037 16.1237Z" fill="#0A9386"/>
<path d="M10.7575 17.9349C10.5153 17.8355 10.2293 17.9522 10.128 18.1959L9.76123 19.0812C9.66081 19.3248 9.77869 19.6041 10.0248 19.7044C10.0847 19.7283 10.1464 19.7398 10.2073 19.7398C10.3966 19.7398 10.578 19.628 10.6543 19.4426L11.0203 18.5583C11.1226 18.3145 11.0039 18.0354 10.7575 17.9349L10.7575 17.9349Z" fill="#0A9386"/>
<path d="M7.87209 19.8638C7.63072 19.7644 7.34301 19.8811 7.24259 20.1248L6.87665 21.0091C6.77622 21.2527 6.89411 21.5321 7.14022 21.6323C7.20013 21.6562 7.26177 21.6678 7.32276 21.6678C7.51198 21.6678 7.69344 21.556 7.76973 21.3705L8.13567 20.4863C8.23717 20.2434 8.11929 19.9643 7.8721 19.8638L7.87209 19.8638Z" fill="#0A9386"/>
<path d="M6.81777 17.3702C6.57554 17.2719 6.28869 17.3875 6.18827 17.6312L5.82233 18.5155C5.7219 18.7591 5.83979 19.0385 6.0859 19.1387C6.14581 19.1626 6.20745 19.1742 6.26844 19.1742C6.45766 19.1742 6.63912 19.0623 6.71541 18.8769L7.08135 17.9927C7.18178 17.7496 7.06411 17.4705 6.81778 17.3702L6.81777 17.3702Z" fill="#0A9386"/>
<path d="M4.13759 16.283C3.89536 16.1836 3.60852 16.3003 3.50809 16.544L3.14215 17.4283C3.04173 17.6719 3.15961 17.9512 3.40572 18.0515C3.46563 18.0754 3.52727 18.0869 3.58826 18.0869C3.77748 18.0869 3.95895 17.9751 4.03524 17.7897L4.40117 16.9054C4.50246 16.6626 4.38479 16.3833 4.13761 16.283L4.13759 16.283Z" fill="#0A9386"/>
<path d="M5.35415 20.9085C5.11083 20.8091 4.82593 20.9258 4.72465 21.1695L4.35871 22.0537C4.25828 22.2974 4.37616 22.5767 4.62228 22.677C4.68219 22.7028 4.74382 22.7133 4.80568 22.7133C4.9949 22.7133 5.17636 22.6015 5.25265 22.4161L5.61859 21.5318C5.71902 21.2879 5.60113 21.0088 5.35415 20.9085L5.35415 20.9085Z" fill="#0A9386"/>
<path d="M13.5663 3.57948C13.6262 3.60338 13.6878 3.6149 13.7488 3.6149C13.938 3.6149 14.1195 3.50309 14.1958 3.31767L14.5617 2.4334C14.6622 2.18973 14.5443 1.91042 14.2982 1.81014C14.0548 1.7107 13.7699 1.82742 13.6687 2.07109L13.3027 2.95536C13.2014 3.20011 13.3193 3.4792 13.5663 3.5795L13.5663 3.57948Z" fill="#0A9386"/>
<path d="M13.0549 11.1188C13.1553 10.8751 13.0375 10.5958 12.7913 10.4955C12.548 10.3971 12.2623 10.5128 12.1618 10.7564L11.7959 11.6407C11.6955 11.8844 11.8134 12.1637 12.0595 12.264C12.1194 12.2879 12.181 12.2994 12.242 12.2994C12.4312 12.2994 12.6127 12.1876 12.689 12.0022L13.0549 11.1188Z" fill="#0A9386"/>
<path d="M27.876 12.5484L27.7842 12.4471C27.1963 11.818 26.7704 11.0486 26.4316 10.3765C25.2728 8.11467 22.6679 6.65406 19.7929 6.65406C19.3005 6.65406 18.8177 6.71231 18.3427 6.79745C18.3311 5.13992 17.7712 3.57033 16.7583 2.42021C16.2639 1.85817 15.7079 1.17662 15.3428 0.409959L15.2945 0.29516C15.1922 0.051484 14.9092 -0.0641675 14.6642 0.0361181L14.5637 0.0773003C13.7469 0.378376 12.8636 0.47888 12.1065 0.536061C9.55178 0.737703 7.19691 2.56827 6.10773 5.20009C5.86075 5.80522 5.70041 6.43619 5.60192 7.0776C3.80605 7.67508 2.34341 8.86142 1.5671 10.3794C1.22831 11.0494 0.803309 11.819 0.210662 12.4528L0.123812 12.5484C-0.0412707 12.73 -0.0412707 13.0052 0.123812 13.187L0.215622 13.2884C0.803524 13.9174 1.22939 14.6869 1.57206 15.3647C1.63283 15.4795 1.70525 15.5903 1.77291 15.7032C1.75459 15.7433 1.73434 15.7796 1.71602 15.8218C0.625951 18.4553 1.0074 21.3957 2.68731 23.3141C3.18255 23.8781 3.73881 24.5607 4.10173 25.3244L4.15 25.4392C4.22715 25.6227 4.40689 25.7345 4.59611 25.7345C4.65408 25.7345 4.71205 25.724 4.76895 25.7029L4.89158 25.656C5.69867 25.3558 6.58119 25.2555 7.33808 25.1981C9.89277 24.9964 12.2476 23.1659 13.3368 20.5351C13.809 19.3965 13.9963 18.1997 13.9181 17.0468C14.2135 17.0306 14.5128 17.1213 14.7407 17.3144C16.0952 18.453 17.8899 19.081 19.7929 19.081C22.668 19.081 25.274 17.6204 26.4327 15.3567C26.7715 14.6866 27.1965 13.917 27.7891 13.2833L27.876 13.1877C28.0413 13.005 28.0413 12.7298 27.8762 12.5482L27.876 12.5484ZM1.12801 12.8676C1.69181 12.2042 2.10128 11.4604 2.43055 10.8086C3.03202 9.63179 4.12876 8.67885 5.49596 8.12725C5.49596 8.13686 5.4979 8.14539 5.4979 8.15499C5.49208 8.51923 5.51923 8.87473 5.56449 9.22575C5.57505 9.30896 5.58863 9.39026 5.6022 9.47241C5.66104 9.82321 5.73647 10.1693 5.84745 10.5039C6.0231 11.0343 5.78862 11.6051 5.29144 11.8614C5.09059 11.9647 4.90244 12.0919 4.71215 12.2152C4.78025 12.1307 4.82766 12.0285 4.82766 11.9118C4.82766 11.6481 4.61129 11.4338 4.34492 11.4338H3.37942C3.11305 11.4338 2.89668 11.6481 2.89668 11.9118C2.89668 12.1755 3.11305 12.3898 3.37942 12.3898H4.34492C4.38543 12.3898 4.42207 12.3763 4.45978 12.3667C4.41431 12.3991 4.37099 12.4346 4.32552 12.4681C4.22423 12.5425 4.13242 12.6277 4.03501 12.707C3.83609 12.8705 3.64213 13.0397 3.45958 13.2243C3.35247 13.3314 3.2529 13.4432 3.15161 13.558C2.99235 13.7377 2.84257 13.925 2.69882 14.1211C2.60809 14.2453 2.51736 14.3686 2.43331 14.4988C2.3928 14.562 2.34344 14.6183 2.304 14.6834C1.99582 14.0913 1.62016 13.446 1.12798 12.8678L1.12801 12.8676ZM12.4425 20.1721C11.4906 22.4729 9.45613 24.0722 7.26264 24.2452C6.526 24.3016 5.67537 24.3963 4.84505 24.6611C4.43472 23.8925 3.89898 23.2368 3.41706 22.688C1.97461 21.0399 1.65782 18.4876 2.60996 16.1876C2.65048 16.0893 2.691 15.9992 2.75673 15.8789C3.40565 14.4881 4.46466 13.3619 5.73618 12.709C6.65621 12.2348 7.08876 11.1823 6.76352 10.2043C6.69305 9.99391 6.63508 9.7799 6.58982 9.56099C6.49801 9.12314 6.4547 8.67012 6.46051 8.20264C6.46331 7.96942 6.47797 7.73235 6.50599 7.4923C6.5812 6.83166 6.74822 6.18256 7.00425 5.56421C7.95617 3.26336 9.9906 1.66411 12.1841 1.49105C12.916 1.43473 13.7608 1.3419 14.6026 1.07624C15.0148 1.84673 15.5506 2.50162 16.0314 3.04831C17.0016 4.14954 17.4863 5.71531 17.3617 7.34531C17.3068 8.08701 17.13 8.82979 16.8374 9.5497C16.1973 11.0858 15.0898 12.32 13.7217 13.0254C12.7929 13.4976 12.3556 14.5521 12.6818 15.529C12.8006 15.8913 12.8846 16.2899 12.9318 16.7239C13.0797 17.851 12.9107 19.0431 12.4424 20.1721L12.4425 20.1721ZM25.5693 14.9268C24.5748 16.8703 22.3069 18.1254 19.7929 18.1254C18.1188 18.1254 16.546 17.5785 15.3661 16.5863C14.9827 16.2613 14.4933 16.0825 13.9875 16.0825C13.9295 16.0825 13.8726 16.0844 13.8147 16.0891C13.8099 16.0614 13.8002 16.0375 13.7944 16.0108C13.7422 15.7413 13.6795 15.4784 13.5985 15.2317C13.4218 14.7021 13.6593 14.1315 14.1642 13.8742C15.2457 13.3169 16.1773 12.4728 16.8937 11.4328H16.8956H17.8611C18.1275 11.4328 18.3439 11.2185 18.3439 10.9548C18.3439 10.6911 18.1275 10.4768 17.8611 10.4768H17.4652C17.559 10.2914 17.6486 10.104 17.7299 9.90987C17.8853 9.52749 18.006 9.13851 18.1036 8.7474C18.1335 8.62513 18.149 8.50265 18.1732 8.37932C18.2137 8.17469 18.265 7.97027 18.29 7.76457C18.7773 7.66258 19.2814 7.61009 19.793 7.61009C22.3071 7.61009 24.575 8.8652 25.5683 10.8067C25.8995 11.4616 26.3098 12.2071 26.8717 12.8677C26.309 13.5311 25.8995 14.275 25.5694 14.9268L25.5693 14.9268Z" fill="#0A9386"/>
<path d="M22.6894 10.4778H21.7239C21.4575 10.4778 21.2411 10.692 21.2411 10.9557C21.2411 11.2195 21.4575 11.4337 21.7239 11.4337H22.6894C22.9558 11.4337 23.1721 11.2195 23.1721 10.9557C23.1721 10.692 22.9558 10.4778 22.6894 10.4778Z" fill="#0A9386"/>
<path d="M20.7584 14.3015H19.7929C19.5266 14.3015 19.3102 14.5157 19.3102 14.7795C19.3102 15.0432 19.5266 15.2574 19.7929 15.2574H20.7584C21.0248 15.2574 21.2412 15.0432 21.2412 14.7795C21.2412 14.5157 21.0248 14.3015 20.7584 14.3015Z" fill="#0A9386"/>
<path d="M24.1376 12.8674C24.1376 13.1311 24.354 13.3453 24.6204 13.3453H25.5859C25.8522 13.3453 26.0686 13.1311 26.0686 12.8674C26.0686 12.6036 25.8522 12.3894 25.5859 12.3894H24.6204C24.354 12.3894 24.1376 12.6036 24.1376 12.8674Z" fill="#0A9386"/>
<path d="M16.8964 14.3015H15.9309C15.6646 14.3015 15.4482 14.5157 15.4482 14.7795C15.4482 15.0432 15.6646 15.2574 15.9309 15.2574H16.8964C17.1628 15.2574 17.3792 15.0432 17.3792 14.7795C17.3792 14.5157 17.1628 14.3015 16.8964 14.3015Z" fill="#0A9386"/>
</svg>
