<svg width="24" height="26" viewBox="0 0 24 26" fill="none" xmlns="http://www.w3.org/2000/svg">
<path d="M14.2 6.263V4.97208C14.2 4.85798 14.1547 4.74848 14.074 4.6678C13.9933 4.58712 13.8838 4.54178 13.7697 4.54178H8.99989L9.89699 0.546483C9.92888 0.432567 9.91255 0.31039 9.85166 0.208961C9.79076 0.107532 9.69087 0.0354968 9.57522 0.0101359C9.45977 -0.0154134 9.33875 0.00783074 9.24097 0.074298C9.143 0.140767 9.07692 0.244497 9.05789 0.361294L8.11776 4.54179H0.430305C0.192679 4.54179 0 4.73447 0 4.9721V6.26301C0.0291993 6.95863 0.352122 7.60925 0.888641 8.05298C0.333867 8.77545 0.0226709 9.65549 0 10.5661V23.0449C0 23.159 0.0453359 23.2685 0.126018 23.3492C0.2067 23.4299 0.316198 23.4752 0.430305 23.4752H7.9604C8.19802 23.4752 8.3907 23.2825 8.3907 23.0449C8.3907 22.8073 8.19802 22.6146 7.9604 22.6146H0.860118V10.5661H13.339V12.5024C13.339 12.7401 13.5316 12.9327 13.7693 12.9327C14.0069 12.9327 14.1996 12.7401 14.1996 12.5024V10.5661C14.1973 9.65145 13.8847 8.76473 13.3132 8.05087C13.8496 7.60827 14.1719 6.95799 14.1996 6.26301L14.2 6.263ZM1.7212 7.61637C1.7212 7.61637 0.860589 7.0764 0.860589 6.263V5.40239H7.92644L6.97112 9.70544H0.996517C1.16422 9.18061 1.44142 8.69729 1.80967 8.28755C1.90207 8.19322 1.94606 8.06144 1.92877 7.93043C1.91168 7.79942 1.83492 7.6836 1.7212 7.61637ZM13.3394 6.263C13.3394 7.07635 12.4788 7.60983 12.4788 7.61637C12.3703 7.68053 12.2954 7.78907 12.2738 7.91317C12.2523 8.03745 12.2863 8.16482 12.367 8.26183C12.7651 8.66985 13.0601 9.16699 13.2276 9.71198H7.85103L8.80847 5.40893H13.3396L13.3394 6.263Z" fill="#0A9386"/>
<path d="M23.0211 12.7176C21.0007 9.55906 15.8008 10.4821 14.3633 14.1678C13.9668 15.1855 13.1529 15.9846 12.1279 16.3623C9.11572 17.4961 7.84424 21.1151 9.66012 23.5201C11.7922 26.3451 16.4781 25.435 17.8487 21.9797C18.2711 20.8943 19.1346 20.0395 20.224 19.628C23.206 18.4984 24.5615 15.1098 23.021 12.7175L23.0211 12.7176ZM19.925 18.8235C18.6064 19.318 17.561 20.3509 17.0506 21.6635C15.9318 24.4841 12.0782 25.2954 10.3467 23.0017C8.87077 21.0459 9.96806 18.0941 12.4316 17.1668C13.6869 16.6992 14.6844 15.7197 15.1748 14.4729C16.3516 11.4608 20.6571 10.6002 22.305 13.182C23.555 15.1313 22.3759 17.8983 19.9253 18.8232L19.925 18.8235Z" fill="#0A9386"/>
<path d="M14.1592 18.7182C13.7155 19.0686 13.3791 19.5367 13.1889 20.0692C13.1496 20.1766 13.1544 20.2952 13.2024 20.3989C13.2504 20.5024 13.3376 20.5829 13.445 20.6223C13.6684 20.7043 13.9159 20.5896 13.9979 20.3662C14.1275 19.9922 14.3594 19.6622 14.6669 19.413C14.8588 19.273 14.9007 19.0037 14.7607 18.8117C14.6204 18.6198 14.3511 18.5779 14.1592 18.7182L14.1592 18.7182Z" fill="#0A9386"/>
<path d="M16.926 16.3366C16.7204 16.2181 16.4576 16.2884 16.3387 16.4938C16.1186 16.8478 15.8643 17.1794 15.5792 17.4835C15.4194 17.6617 15.4344 17.9357 15.6126 18.0955C15.7909 18.2553 16.0648 18.2405 16.2246 18.0623C16.5491 17.7136 16.8374 17.3329 17.0853 16.9262C17.1427 16.827 17.1582 16.7089 17.1283 16.5982C17.0985 16.4876 17.0257 16.3935 16.926 16.3366L16.926 16.3366Z" fill="#0A9386"/>
<path d="M18.1761 14.2839C17.9271 14.3974 17.712 14.5739 17.5521 14.7958C17.4359 14.9925 17.4933 15.2455 17.6833 15.3725C17.8731 15.4995 18.129 15.4561 18.2663 15.2736C18.3357 15.1865 18.424 15.1166 18.5245 15.0692C18.7272 14.9647 18.8134 14.7203 18.7208 14.5119C18.6284 14.3035 18.3893 14.2034 18.176 14.2839L18.1761 14.2839Z" fill="#0A9386"/>
</svg>
