<svg width="28" height="27" viewBox="0 0 28 27" fill="none" xmlns="http://www.w3.org/2000/svg">
<path d="M23.792 12.0778C23.8941 11.8028 23.9847 11.5203 24.0493 11.2236C24.507 9.14458 24.0345 6.89319 22.7849 5.20237C21.7369 3.78346 20.2523 2.92768 18.605 2.79268C14.02 2.41601 12.9972 2.19102 8.66537 0.60517C6.83163 -0.0662299 5.09689 -0.0015327 3.64866 0.792802C1.9688 1.71389 0.706176 3.60209 0.18469 5.9732C-0.451533 8.86488 1.23234 11.7898 4.80401 14.0531C3.93332 15.3622 3.51469 17.034 3.51469 18.7038C3.51469 21.1618 5.02036 23.2605 7.86843 24.7724C10.0595 25.9356 12.9661 26.6584 15.4531 26.6584C15.5518 26.6584 15.6494 26.657 15.7442 26.6548C20.2775 26.5437 27.9503 24.7437 27.9503 18.7039C27.9503 15.7753 26.1684 13.1321 23.7922 12.0779L23.792 12.0778ZM1.06315 6.1666C1.52882 4.04898 2.62868 2.37796 4.08036 1.582C5.31022 0.907004 6.74924 0.862827 8.35536 1.45062C12.7447 3.05715 13.886 3.30827 18.531 3.68936C19.9156 3.80266 21.1694 4.53047 22.0609 5.73683C23.158 7.22265 23.5728 9.20142 23.1706 11.0304C23.1136 11.2899 23.0338 11.5366 22.9448 11.7761C22.4989 11.6568 22.0394 11.5885 21.5709 11.5885C21.3226 11.5885 21.0701 11.6055 20.8212 11.6393C18.5622 11.9448 17.1573 12.1001 15.7457 12.1001C14.3282 12.1001 12.8584 11.9382 10.6436 11.6393C10.2737 11.5893 9.90914 11.5637 9.56097 11.5637C7.72322 11.5637 6.33264 12.2591 5.35128 13.3394C3.58224 12.2233 0.300224 9.63538 1.06342 6.16616L1.06315 6.1666ZM15.7218 25.7552C15.6336 25.7574 15.5436 25.7588 15.4522 25.7588C10.9406 25.7588 4.41361 23.2465 4.41361 18.7039C4.41361 15.8253 5.76139 12.4635 9.56006 12.4635C9.86883 12.4635 10.1919 12.486 10.5225 12.531C12.7766 12.8352 14.2764 12.9999 15.7446 12.9999C17.2079 12.9999 18.6427 12.842 20.9415 12.5306C21.1508 12.5023 21.3621 12.4878 21.5701 12.4878C24.4895 12.4884 27.0493 15.3931 27.0493 18.7045C27.0493 24.0618 19.6394 25.6597 15.7211 25.7559L15.7218 25.7552Z" fill="#0A9386"/>
<path d="M14.863 17.6567C14.6141 17.6567 14.413 17.8578 14.413 18.1067V19.0535C14.413 19.3024 14.6141 19.5035 14.863 19.5035C15.1119 19.5035 15.313 19.3024 15.313 19.0535V18.1067C15.313 17.8578 15.1119 17.6567 14.863 17.6567Z" fill="#0A9386"/>
<path d="M10.3326 20.801C10.0837 20.801 9.88263 21.0021 9.88263 21.251V22.1978C9.88263 22.4467 10.0837 22.6478 10.3326 22.6478C10.5815 22.6478 10.7826 22.4467 10.7826 22.1978V21.251C10.7826 21.0027 10.5809 20.801 10.3326 20.801Z" fill="#0A9386"/>
<path d="M9.32823 14.5149C9.07933 14.5149 8.87823 14.716 8.87823 14.9649V15.9117C8.87823 16.1606 9.07933 16.3617 9.32823 16.3617C9.57714 16.3617 9.77823 16.1606 9.77823 15.9117V14.9649C9.77823 14.716 9.57714 14.5149 9.32823 14.5149Z" fill="#0A9386"/>
<path d="M18.8667 14.5149C18.6178 14.5149 18.4167 14.716 18.4167 14.9649V15.9117C18.4167 16.1606 18.6178 16.3617 18.8667 16.3617C19.1156 16.3617 19.3167 16.1606 19.3167 15.9117V14.9649C19.3167 14.716 19.1154 14.5149 18.8667 14.5149Z" fill="#0A9386"/>
<path d="M19.8593 21.3833C19.6104 21.3833 19.4093 21.5844 19.4093 21.8333V22.7805C19.4093 23.0294 19.6104 23.2305 19.8593 23.2305C20.1082 23.2305 20.3093 23.0294 20.3093 22.7805V21.8333C20.3093 21.5848 20.1076 21.3833 19.8593 21.3833Z" fill="#0A9386"/>
<path d="M23.0838 17.0845C22.8349 17.0845 22.6338 17.2856 22.6338 17.5345V18.4817C22.6338 18.7306 22.8349 18.9317 23.0838 18.9317C23.3327 18.9317 23.5338 18.7306 23.5338 18.4817V17.5345C23.5338 17.2862 23.3321 17.0845 23.0838 17.0845Z" fill="#0A9386"/>
<path d="M11.0969 9.19316C11.1292 9.20039 11.1618 9.2036 11.1937 9.2036C11.4002 9.2036 11.5866 9.06057 11.6328 8.84983L11.8357 7.92412C11.8888 7.68104 11.7353 7.44117 11.4924 7.38813C11.2489 7.33369 11.0101 7.48797 10.9568 7.73106L10.7539 8.65677C10.7003 8.90025 10.8538 9.14012 11.0969 9.19317L11.0969 9.19316Z" fill="#0A9386"/>
<path d="M5.99567 11.2894C6.02801 11.2967 6.06095 11.2999 6.0929 11.2999C6.29941 11.2999 6.48584 11.1568 6.53205 10.9467L6.73535 10.0224C6.78899 9.77991 6.63491 9.53944 6.39243 9.4864C6.14934 9.43155 5.90948 9.58624 5.85644 9.82932L5.65314 10.7536C5.5993 10.9957 5.75318 11.236 5.99566 11.2894L5.99567 11.2894Z" fill="#0A9386"/>
<path d="M6.36542 4.93391C6.39776 4.94114 6.43071 4.94435 6.46265 4.94435C6.66916 4.94435 6.85559 4.80132 6.9018 4.59118L7.1051 3.66686C7.15874 3.42438 7.00466 3.18391 6.76218 3.13087C6.5191 3.07542 6.27923 3.23071 6.22619 3.47379L6.02289 4.39812C5.96905 4.63999 6.12293 4.88026 6.36541 4.9339L6.36542 4.93391Z" fill="#0A9386"/>
<path d="M15.6807 6.9832C15.713 6.99043 15.746 6.99364 15.7779 6.99364C15.9844 6.99364 16.1709 6.85061 16.2171 6.64047L16.4204 5.71656C16.474 5.47408 16.3205 5.23361 16.0774 5.18057C15.835 5.12472 15.5945 5.28001 15.5415 5.5235L15.3382 6.44741C15.2843 6.68969 15.4378 6.92995 15.6807 6.98319L15.6807 6.9832Z" fill="#0A9386"/>
<path d="M19.2478 10.4003C19.2801 10.4075 19.3131 10.4108 19.345 10.4108C19.5515 10.4108 19.7379 10.2677 19.7842 10.0576L19.9875 9.13367C20.0411 8.8912 19.8876 8.65073 19.6445 8.59768C19.4014 8.54224 19.1616 8.69713 19.1085 8.94061L18.9052 9.86452C18.8512 10.107 19.0047 10.3473 19.2478 10.4003L19.2478 10.4003Z" fill="#0A9386"/>
</svg>
