<svg width="36" height="36" viewBox="0 0 36 36" fill="none" xmlns="http://www.w3.org/2000/svg">
<path d="M27.7344 28.7134C25.1712 28.7134 23.0688 26.6111 23.0688 24.0479C23.0688 21.4847 25.1712 19.3823 27.7344 19.3823C30.2976 19.3823 32.3999 21.4847 32.3999 24.0479C32.3999 26.6111 30.2976 28.7134 27.7344 28.7134ZM27.7344 20.0446C25.5167 20.0446 23.7312 21.8302 23.7312 24.0478C23.7312 26.2655 25.5167 28.051 27.7344 28.051C29.952 28.051 31.7376 26.2655 31.7376 24.0478C31.7376 21.8589 29.9518 20.0446 27.7344 20.0446Z" fill="#0A9386"/>
<path d="M30.2976 24.3936C30.1248 24.3936 29.9808 24.2496 29.9808 24.0768C29.9808 22.8385 28.9727 21.8304 27.7344 21.8304C27.5616 21.8304 27.4176 21.6864 27.4176 21.5136C27.4176 21.3408 27.5616 21.1968 27.7344 21.1968C29.3471 21.1968 30.6431 22.4927 30.6431 24.1055C30.6431 24.2208 30.4991 24.3936 30.2976 24.3936Z" fill="#0A9386"/>
<path d="M21.8592 28.7136C19.8719 28.7136 18.2304 27.1008 18.2304 25.0848C18.2304 23.0976 19.8432 21.4561 21.8592 21.4561C22.6079 21.4561 23.2992 21.6865 23.9328 22.0897C24.0768 22.2048 24.1056 22.4065 24.0192 22.5505C23.9041 22.6945 23.7024 22.7233 23.5583 22.6369C23.0688 22.2913 22.4928 22.1186 21.8879 22.1186C20.2462 22.1186 18.9215 23.4435 18.9215 25.085C18.9215 26.7267 20.2464 28.0514 21.8879 28.0514C22.8383 28.0514 23.7598 27.5905 24.3071 26.7841C24.4222 26.6401 24.6239 26.6114 24.7679 26.6978C24.912 26.8129 24.9407 27.0146 24.8543 27.1586C24.1632 28.1375 23.0401 28.7135 21.8592 28.7135L21.8592 28.7136Z" fill="#0A9386"/>
<path d="M3.9168 22.6368C3.83041 22.6368 3.74403 22.6081 3.68637 22.5505C3.57126 22.4353 3.57126 22.2049 3.68637 22.0896L17.2512 8.52481C17.3663 8.4097 17.5967 8.4097 17.712 8.52481C17.8271 8.63992 17.8271 8.87035 17.712 8.98566L4.17602 22.5217C4.08963 22.608 4.00325 22.6368 3.91686 22.6368L3.9168 22.6368Z" fill="#0A9386"/>
<path d="M16.272 13.4784C14.7169 13.4784 13.7952 12.4992 13.7664 12.4416C13.6513 12.2976 13.6513 12.0961 13.7952 11.9807C13.9392 11.8656 14.1407 11.8656 14.256 12.0095C14.3137 12.0671 15.3792 13.2191 17.1937 12.7007C17.3664 12.6431 17.5392 12.7584 17.5969 12.9312C17.6545 13.1039 17.5392 13.2767 17.3664 13.3343C16.9632 13.4497 16.6177 13.4784 16.272 13.4784L16.272 13.4784Z" fill="#0A9386"/>
<path d="M12.7296 18.2592C11.0015 18.2592 10.1087 16.9056 9.87835 16.1568C9.82069 15.9841 9.90708 15.8113 10.08 15.7536C10.2528 15.696 10.4256 15.7824 10.4832 15.9553C10.512 16.0417 11.0881 17.7121 12.9024 17.597C13.0752 17.597 13.2479 17.7122 13.2479 17.9138C13.2479 18.0866 13.1328 18.2594 12.9311 18.2594C12.8737 18.2592 12.7873 18.2592 12.7296 18.2592L12.7296 18.2592Z" fill="#0A9386"/>
<path d="M14.6016 20.1887C14.112 20.1887 13.6512 20.0159 13.3056 19.6991C12.9025 19.3536 12.6433 18.864 12.5856 18.3167C12.528 17.7695 12.7008 17.2512 13.0465 16.848C13.392 16.4448 13.8816 16.1856 14.4288 16.128C14.8608 16.0993 15.2929 16.1857 15.6671 16.4448C15.984 16.1567 16.4159 15.984 16.848 15.9265C17.2799 15.8978 17.712 15.9842 18.0863 16.2433C18.4031 15.9552 18.835 15.7825 19.2671 15.725C19.9007 15.6674 20.4767 15.8978 20.9088 16.3586H21.024C21.3695 16.3299 21.6863 16.445 21.9457 16.6467C22.2048 16.8771 22.3488 17.165 22.3776 17.5108C22.4063 17.8563 22.2912 18.1731 22.0895 18.4325C21.8591 18.6916 21.5712 18.8356 21.2254 18.8644H21.1103C20.7648 19.3827 20.2176 19.6995 19.5839 19.7571C19.152 19.7859 18.7199 19.6995 18.3456 19.4403C18.0288 19.7284 17.5969 19.9012 17.1648 19.9586C16.7329 19.9873 16.3007 19.901 15.9265 19.6418C15.6097 19.9299 15.1777 20.1026 14.7456 20.1601C14.7167 20.1886 14.659 20.1886 14.6016 20.1886L14.6016 20.1887ZM14.6016 16.7904H14.4865C13.7377 16.848 13.1616 17.5104 13.2482 18.2591C13.2769 18.6336 13.4499 18.9504 13.7378 19.1808C14.0258 19.4112 14.3714 19.5264 14.7459 19.4976C15.1204 19.4689 15.4371 19.2959 15.6963 19.0081C15.7539 18.9504 15.8403 18.8929 15.9267 18.8929C16.0131 18.8929 16.0995 18.9217 16.1571 18.9793C16.4452 19.2385 16.7907 19.3538 17.1652 19.3249C17.5397 19.2961 17.8565 19.1232 18.1156 18.8353C18.1733 18.7776 18.2597 18.7202 18.346 18.7202C18.4324 18.7202 18.5188 18.7489 18.5765 18.8066C18.8646 19.0657 19.2101 19.181 19.5846 19.1521C20.0454 19.1234 20.4486 18.8353 20.679 18.4321C20.7367 18.3457 20.8231 18.2593 20.9382 18.2593L21.2263 18.2306C21.399 18.2306 21.5431 18.1442 21.6295 18.0289C21.7446 17.9138 21.7735 17.7408 21.7735 17.597C21.7735 17.4242 21.6871 17.2802 21.5718 17.1938C21.4567 17.0787 21.2837 17.0498 21.1399 17.0498L20.8518 17.0785C20.7367 17.0785 20.6214 17.0498 20.5637 16.9634C20.2756 16.5889 19.8437 16.4161 19.3829 16.4451C19.0084 16.4738 18.6916 16.6468 18.4325 16.9347C18.3748 16.9923 18.2884 17.0498 18.202 17.0498C18.1157 17.0498 18.0293 17.021 17.9716 16.9634C17.6835 16.7042 17.338 16.5889 16.9635 16.6178C16.589 16.6466 16.2723 16.8195 16.0131 17.1074C15.9554 17.1651 15.8691 17.2225 15.7827 17.2225C15.6963 17.2225 15.6099 17.1938 15.5523 17.1361C15.235 16.9055 14.9471 16.7904 14.6016 16.7904L14.6016 16.7904Z" fill="#0A9386"/>
<path d="M18.8352 14.6304C18.4607 14.6304 18.0864 14.5153 17.7696 14.3136C17.3377 14.0255 17.0496 13.5936 16.9345 13.0753C16.8194 12.557 16.9345 12.0385 17.2226 11.6066C17.5107 11.1746 17.9426 10.8866 18.4609 10.7715C18.8641 10.6851 19.296 10.7427 19.6705 10.9155C19.9586 10.5987 20.3041 10.3972 20.7073 10.3106C21.1105 10.2242 21.5424 10.2819 21.9169 10.4546C22.205 10.1378 22.5505 9.93634 22.9537 9.84973C23.5297 9.73462 24.1346 9.87846 24.5665 10.2529L24.6529 10.2242C24.9697 10.1665 25.2865 10.2242 25.5746 10.397C25.8337 10.5697 26.0354 10.8578 26.0929 11.1746C26.2369 11.837 25.8048 12.4706 25.1425 12.6146L25.0561 12.6433C24.8257 13.1616 24.3361 13.5359 23.7601 13.6512C23.3569 13.7376 22.925 13.68 22.5505 13.5072C22.2624 13.824 21.9169 14.0255 21.5137 14.1121C21.1105 14.1985 20.6786 14.1408 20.3041 13.9681C20.016 14.2849 19.6705 14.4864 19.2673 14.573C19.0946 14.6017 18.9792 14.6304 18.8352 14.6304L18.8352 14.6304ZM18.8352 11.4049C18.7488 11.4049 18.6624 11.4049 18.576 11.4336C18.2305 11.4912 17.9424 11.6927 17.7696 11.9808C17.5679 12.2689 17.5105 12.6144 17.5969 12.9312C17.6545 13.2768 17.856 13.5648 18.1441 13.7376C18.4322 13.9104 18.7777 13.9968 19.0945 13.9104C19.4401 13.8527 19.7281 13.6513 19.9009 13.3345C19.9586 13.2481 20.016 13.2193 20.1026 13.1904C20.189 13.1617 20.2754 13.1904 20.3618 13.2481C20.6499 13.4498 20.9954 13.5072 21.3409 13.4498C21.6865 13.3921 21.9745 13.1906 22.1473 12.8738C22.205 12.7874 22.2624 12.7587 22.349 12.7298C22.4354 12.7011 22.5218 12.7298 22.6082 12.7874C22.8963 12.9891 23.2418 13.0466 23.5873 12.9891C24.0192 12.9028 24.365 12.6147 24.509 12.2115C24.5378 12.0964 24.6531 12.0387 24.7395 12.0098L24.9986 11.9521C25.2867 11.8945 25.4882 11.6066 25.4305 11.2898C25.4018 11.1457 25.3154 11.0306 25.2001 10.9442C25.085 10.8579 24.9409 10.8291 24.7969 10.8579L24.5665 10.944C24.4514 10.9728 24.3361 10.944 24.2784 10.8577C23.9616 10.5408 23.5297 10.4257 23.1265 10.5121C22.781 10.5698 22.4929 10.7713 22.3201 11.0881C22.2624 11.1745 22.205 11.2032 22.1184 11.2321C22.032 11.2608 21.9456 11.2321 21.8593 11.1745C21.5712 10.9728 21.2257 10.9153 20.8801 10.9728C20.5346 11.0304 20.2465 11.2319 20.0737 11.5487C20.016 11.6351 19.9586 11.6638 19.872 11.6927C19.7856 11.7215 19.6992 11.6927 19.6129 11.6351C19.3537 11.4912 19.0946 11.4049 18.8352 11.4049L18.8352 11.4049Z" fill="#0A9386"/>
<path d="M13.9968 12.5568C13.9104 12.5568 13.8528 12.5281 13.7664 12.4704C13.7087 12.4128 12.2687 11.0881 12.8736 8.87042C12.9313 8.69766 13.1041 8.58234 13.2768 8.64C13.4496 8.69766 13.5649 8.87042 13.5072 9.04319C12.9889 10.8576 14.1985 11.9519 14.1985 11.9808C14.3425 12.096 14.3425 12.2977 14.2272 12.4417C14.1983 12.5281 14.1119 12.5568 13.9968 12.5568L13.9968 12.5568Z" fill="#0A9386"/>
<path d="M10.1664 16.3872C10.1377 16.3872 10.1087 16.3872 10.08 16.3585C9.30236 16.0993 7.86236 15.1489 7.97767 13.2768C7.97767 13.104 8.15044 12.96 8.3232 12.96C8.49597 12.96 8.64002 13.1327 8.64002 13.3055C8.5249 15.12 10.2528 15.6959 10.2817 15.7246C10.4545 15.7823 10.5409 15.9551 10.4834 16.1278C10.4545 16.3008 10.3104 16.3872 10.1664 16.3872L10.1664 16.3872Z" fill="#0A9386"/>
<path d="M8.0928 13.6512H7.92003C7.37277 13.5936 6.88323 13.3631 6.53768 12.9312C6.19214 12.528 6.01938 11.9808 6.07683 11.4625C6.10556 11.0306 6.27853 10.5984 6.59513 10.2816C6.3647 9.90716 6.24959 9.47522 6.27832 9.04332C6.30705 8.61143 6.48002 8.17927 6.79661 7.86247C6.53766 7.48801 6.42235 7.05587 6.45128 6.62397C6.50894 5.99037 6.82574 5.44312 7.34403 5.09757V4.98246C7.40169 4.2912 8.00638 3.77286 8.69763 3.83056C9.38888 3.88826 9.90723 4.49291 9.84953 5.18416V5.29927C10.3104 5.73119 10.5408 6.33607 10.4831 6.94097C10.4544 7.37289 10.2814 7.80503 9.96483 8.12183C10.1953 8.49629 10.3104 8.92823 10.2816 9.36012C10.2529 9.79204 10.0799 10.2242 9.76334 10.541C9.99377 10.9154 10.1089 11.3474 10.0802 11.7793C10.0225 12.3265 9.79207 12.8161 9.36015 13.1616C9.01442 13.4782 8.55355 13.6512 8.0927 13.6512L8.0928 13.6512ZM8.6113 4.49282C8.29449 4.49282 8.03535 4.72325 8.00639 5.04007L7.97767 5.32815C7.97767 5.44327 7.89128 5.52985 7.8049 5.58731C7.40171 5.81773 7.14255 6.22091 7.0849 6.68176C7.05617 7.05622 7.17128 7.40176 7.43044 7.68986C7.48809 7.74752 7.51682 7.8339 7.51682 7.92029C7.51682 8.00667 7.45916 8.09306 7.40171 8.15071C7.11363 8.38114 6.94086 8.72666 6.91213 9.10111C6.88341 9.47556 6.99852 9.82111 7.25767 10.1092C7.31533 10.1669 7.34406 10.2533 7.34406 10.3396C7.34406 10.426 7.2864 10.5124 7.22894 10.5701C6.94086 10.8005 6.7681 11.146 6.73937 11.5205C6.71064 11.8949 6.82576 12.2405 7.05618 12.5286C7.28661 12.8167 7.63213 12.9894 7.97788 13.0181C8.35235 13.0469 8.69788 12.9318 8.98599 12.7013C9.27407 12.4709 9.44683 12.1254 9.47556 11.7796C9.50429 11.4052 9.38918 11.0596 9.13002 10.7715C9.07237 10.7139 9.04364 10.6275 9.04364 10.5411C9.04364 10.4547 9.10129 10.3683 9.15875 10.3107C9.44683 10.0803 9.6196 9.73473 9.64833 9.36028C9.67705 8.98582 9.56194 8.64028 9.30279 8.35217C9.24513 8.29452 9.2164 8.20813 9.2164 8.12175C9.2164 8.03536 9.27406 7.94898 9.33151 7.89132C9.6196 7.6609 9.79236 7.31537 9.82109 6.94092C9.84982 6.48008 9.67705 6.04817 9.30279 5.76007C9.21641 5.70241 9.15875 5.5873 9.18768 5.47199L9.21641 5.18391C9.24513 4.8671 8.98598 4.55031 8.66916 4.52156C8.64003 4.49283 8.64003 4.49283 8.6113 4.49283V4.49282Z" fill="#0A9386"/>
<path d="M13.536 9.33113C13.392 9.33113 13.2768 9.33113 13.1328 9.3024C12.6145 9.18729 12.1824 8.89921 11.8945 8.4673C11.6064 8.03539 11.5201 7.5169 11.6064 6.99856C11.6928 6.59537 11.8945 6.2209 12.2113 5.96176C12.0386 5.58729 11.9809 5.15535 12.0673 4.75216C12.1537 4.34896 12.3554 3.9745 12.6722 3.71535C12.4994 3.34089 12.4418 2.90896 12.5282 2.50575C12.6433 1.92981 13.0177 1.44021 13.5363 1.18085L13.565 1.09447C13.709 0.432119 14.3426 0.0289188 15.005 0.144067C15.6673 0.288108 16.0705 0.921719 15.9554 1.58407L15.9841 1.64152C16.3586 2.10237 16.5024 2.67832 16.3873 3.25427C16.3009 3.65746 16.0992 4.03192 15.7824 4.29107C15.9552 4.66553 16.0128 5.09747 15.9264 5.50067C15.8401 5.90386 15.6384 6.27832 15.3215 6.53747C15.4943 6.91193 15.552 7.34387 15.4656 7.74707C15.3505 8.26537 15.0624 8.69747 14.6305 8.98537C14.2849 9.2158 13.9105 9.33111 13.536 9.33111L13.536 9.33113ZM12.7583 4.86708C12.7007 5.21262 12.7583 5.55833 12.96 5.84623C13.0177 5.93261 13.0177 6.01899 13.0177 6.10538C12.989 6.19176 12.96 6.27815 12.8737 6.30708C12.5856 6.50877 12.3841 6.79665 12.2977 7.11348C12.2401 7.45902 12.2977 7.77583 12.4705 8.06388C12.6722 8.35196 12.9313 8.55345 13.2769 8.61113C13.9681 8.75517 14.6305 8.32305 14.7745 7.63198C14.8322 7.28644 14.7745 6.94073 14.5728 6.65283C14.5441 6.59497 14.5441 6.50859 14.5441 6.4222C14.5728 6.33582 14.6018 6.24944 14.6882 6.22051C14.9762 6.01881 15.1777 5.73093 15.2641 5.41411C15.3218 5.06857 15.2641 4.72286 15.0624 4.43496C15.0047 4.34857 15.0047 4.26219 15.0047 4.17581C15.0335 4.08942 15.0624 4.00304 15.1488 3.97411C15.4369 3.77241 15.6384 3.48453 15.7247 3.16771C15.8111 2.73579 15.696 2.30366 15.3792 2.01581C15.2928 1.92943 15.2641 1.81411 15.2928 1.72773L15.3505 1.46857C15.4081 1.18049 15.2064 0.863671 14.9186 0.806225C14.6305 0.748569 14.3136 0.950266 14.2562 1.23814L14.1983 1.43984C14.1696 1.55495 14.112 1.64154 13.9966 1.67027C13.5935 1.84304 13.3054 2.18856 13.219 2.59197C13.1613 2.93751 13.219 3.28322 13.4207 3.57112C13.4784 3.6575 13.4783 3.74389 13.4783 3.83027C13.4496 3.91666 13.4207 4.00304 13.3343 4.03197C13.0177 4.23347 12.816 4.52154 12.7584 4.86707L12.7583 4.86708Z" fill="#0A9386"/>
<path d="M18.6048 9.47503C18.1152 9.47503 17.6544 9.30226 17.3089 8.95673C16.9344 8.6112 16.7039 8.12164 16.6753 7.60313C16.6465 7.08484 16.8193 6.59503 17.1935 6.22079C17.4816 5.90398 17.8559 5.70249 18.2591 5.61588C18.2878 5.21269 18.4608 4.80948 18.7487 4.52143C19.0368 4.20462 19.411 4.00313 19.8142 3.91653C19.8429 3.51334 20.0159 3.11013 20.3038 2.82208C20.707 2.39016 21.2829 2.15973 21.8589 2.18848L21.9165 2.13082C22.3774 1.64125 23.1261 1.61252 23.6157 2.04444C24.1053 2.50528 24.134 3.25404 23.7021 3.74358L23.6444 3.80124C23.7308 4.37719 23.558 4.98209 23.1549 5.41399C22.8668 5.7308 22.4925 5.93229 22.0893 6.01889C22.0606 6.42208 21.8876 6.82529 21.5997 7.11334C21.3116 7.43015 20.9374 7.63164 20.5342 7.71825C20.5055 8.12144 20.3325 8.52465 20.0446 8.8127C19.6991 9.18716 19.2095 9.4176 18.691 9.4463C18.6912 9.47503 18.6335 9.47503 18.6048 9.47503L18.6048 9.47503ZM21.715 2.85103C21.3695 2.85103 21.0238 2.99507 20.7646 3.25422C20.5342 3.51337 20.4191 3.83017 20.4478 4.20462C20.4478 4.29101 20.4191 4.37739 20.3615 4.43505C20.3038 4.4927 20.2174 4.55016 20.131 4.55016C19.7855 4.55016 19.4687 4.72293 19.2383 4.95335C19.0079 5.2125 18.8927 5.5293 18.9215 5.90375C18.9215 5.99013 18.8927 6.07652 18.8351 6.13417C18.7774 6.19183 18.691 6.24929 18.6047 6.24929C18.2591 6.24929 17.9423 6.42206 17.7119 6.65248C17.4815 6.91163 17.3664 7.22843 17.3664 7.57418C17.3951 7.91972 17.5391 8.23653 17.7696 8.46693C18.0287 8.69735 18.3455 8.81247 18.6913 8.81247C19.0368 8.78374 19.3536 8.6397 19.584 8.40928C19.8144 8.15012 19.9295 7.83333 19.9008 7.45888C19.9008 7.37249 19.9295 7.28611 19.9872 7.22845C20.0449 7.17079 20.1312 7.11334 20.2176 7.11334C20.5632 7.11334 20.88 6.94057 21.1104 6.71015C21.3408 6.45099 21.4559 6.1342 21.4272 5.75975C21.4272 5.67336 21.4559 5.58698 21.5136 5.52932C21.5712 5.47167 21.6576 5.41421 21.744 5.41421C22.0895 5.41421 22.4063 5.24144 22.6367 5.01102C22.9248 4.69421 23.0399 4.26227 22.9248 3.83017C22.8961 3.71506 22.9248 3.59974 23.0112 3.51336L23.184 3.31166C23.3857 3.08124 23.3857 2.73571 23.1553 2.53401C22.9248 2.33231 22.5793 2.33231 22.3776 2.56274L22.2048 2.76444C22.1185 2.85082 22.0321 2.87955 21.9168 2.87955C21.8591 2.85102 21.8016 2.85102 21.7151 2.85102L21.715 2.85103Z" fill="#0A9386"/>
</svg>
