<svg width="23" height="24" viewBox="0 0 23 24" fill="none" xmlns="http://www.w3.org/2000/svg">
<path d="M22.3522 3.42804C22.3071 3.26585 22.1133 2.698 21.4465 2.2564C20.5497 1.6661 19.2115 1.56254 17.4676 1.94554C17.3098 1.98153 17.1657 2.01312 17.0305 2.0447C15.5075 2.39172 15.2732 2.44578 13.5023 1.0128C11.3439 -0.731068 7.37396 0.111657 6.58981 1.05335C6.22929 1.48602 6.24736 2.27905 6.63932 3.02256C6.87365 3.46875 7.76131 4.83857 9.83408 4.83857C9.9738 4.83857 10.1179 4.83402 10.2711 4.8205C12.3755 4.63568 12.9883 5.09537 13.164 5.38376C13.3353 5.65864 13.2361 6.01004 13.0918 6.24439C12.524 7.15467 10.9785 6.98336 10.1539 6.74007C9.14444 6.44272 5.73347 6.41569 3.69646 8.96609C1.59206 11.6067 0.722338 14.8329 0.803609 16.7166C0.821683 17.1583 0.654935 17.3204 0.438681 17.5232C0.222428 17.7305 -0.0434737 17.9873 0.00601316 18.4784C0.064633 19.0732 0.231384 19.4563 0.519792 19.6815C0.90735 19.9788 1.39394 19.9023 1.86712 19.8301C2.04739 19.8031 2.22765 19.7715 2.4079 19.7671C2.78194 19.7446 2.99365 19.9698 3.30011 20.3349C3.539 20.6188 3.78227 20.9072 4.16983 20.9928C4.28252 21.0153 4.29603 21.0198 4.30955 21.1596C4.30955 21.1685 4.30955 21.182 4.31411 21.1911C4.31411 21.2047 4.31867 21.2182 4.31867 21.2363C4.34114 21.4751 4.37273 21.8401 4.76485 22.1239C5.26511 22.4844 8.08582 22.5339 8.93744 22.5385H9.23479C10.6316 22.5385 12.7225 22.4755 13.1371 22.1058C13.3533 21.912 13.4344 21.6552 13.3533 21.3983C13.155 20.7764 12.0331 20.3212 11.3346 20.2447C10.9832 20.2087 10.5865 20.2177 10.2397 20.2312C10.0278 20.2357 9.76205 20.2447 9.59528 20.2312C9.68989 19.9563 9.93318 19.686 10.3028 19.4336C10.7804 19.1092 12.8938 18.5504 14.16 18.262C14.2006 18.298 14.2501 18.3701 14.3043 18.4647C14.3043 18.4693 14.3089 18.4737 14.3089 18.4782C14.3134 18.4872 14.3178 18.4917 14.3224 18.4963C14.4846 18.7847 14.6783 19.2533 14.8226 19.6003C15.2823 20.6998 15.7599 21.8399 16.4629 22.1148C17.612 22.5653 19.392 22.5474 19.9912 22.2229C20.4239 21.9886 20.7077 21.3893 20.6536 20.835C20.6131 20.416 20.3833 20.1096 20.0182 19.9969C19.7163 19.9022 19.482 19.8526 19.2928 19.812C18.9414 19.7399 18.8377 19.7174 18.6844 19.5012C18.4141 19.1182 18.0625 17.8835 18.2925 17.0048C18.3736 16.7075 18.6395 16.3694 18.9504 15.9818C19.5136 15.2743 20.212 14.3956 20.4329 13.0304C20.6221 11.8678 20.5229 10.4124 20.4418 9.24531C20.3967 8.58287 20.3427 7.7628 20.4102 7.57358C20.4959 7.48353 20.631 7.42491 20.8068 7.34821C21.1673 7.19042 21.663 6.97873 22.073 6.30279C22.393 5.78008 22.5506 5.14922 22.5281 4.48678C22.5141 4.00917 22.4601 3.66232 22.352 3.42801L22.3522 3.42804ZM21.5502 5.98301C21.2393 6.4922 20.8969 6.6409 20.5634 6.78518C20.4958 6.81221 20.4282 6.8438 20.3606 6.87523C20.3336 6.87979 20.3066 6.88419 20.2841 6.89771C18.7746 7.56453 17.7967 7.61877 17.5308 7.04638C17.4586 6.89315 17.274 6.82557 17.1208 6.89771C16.9675 6.96984 16.9 7.15011 16.9721 7.30772C17.1524 7.69528 17.5354 8.05123 18.3149 8.05123C18.6933 8.05123 19.1711 7.96558 19.7658 7.76284C19.7477 8.09634 19.7793 8.57849 19.8244 9.28587C19.9009 10.4214 19.9957 11.8363 19.8198 12.9314C19.6261 14.139 18.9817 14.9455 18.4635 15.599C18.1121 16.0407 17.8056 16.4237 17.693 16.8472C17.4181 17.8791 17.7966 19.3165 18.1751 19.8527C18.4681 20.2673 18.7744 20.3303 19.1619 20.407C19.3468 20.443 19.5539 20.4881 19.8244 20.5738C19.8695 20.5873 20.0092 20.6324 20.0317 20.8892C20.0587 21.1911 19.8965 21.5606 19.6847 21.6778C19.2701 21.9076 17.6884 21.9346 16.6746 21.5381C16.2149 21.3579 15.7329 20.2043 15.3767 19.3572C15.1784 18.884 15.0118 18.4831 14.8405 18.1856C14.435 17.3925 14.2637 16.5634 14.1375 15.9595L14.1015 15.7928C13.9844 15.2341 14.0023 14.8284 14.1645 14.5492C14.2502 14.4005 14.2005 14.2157 14.0518 14.1302C13.9032 14.0445 13.7184 14.0942 13.6329 14.2429C13.394 14.6575 13.349 15.2072 13.5023 15.9192L13.5382 16.0814C13.6239 16.5003 13.741 17.0682 13.9572 17.6676C13.484 17.7757 11.6682 18.2084 10.5957 18.6139C10.866 18.0371 11.0779 17.3792 11.1815 16.7619C11.3212 15.9283 11.0372 15.0226 10.438 14.3961C9.9107 13.8418 9.14466 13.5174 8.33356 13.5039H8.329C8.16225 13.5039 8.02709 13.6391 8.02253 13.8058C8.01798 13.9771 8.15314 14.1167 8.32444 14.1167C8.96882 14.1257 9.57718 14.3826 9.99617 14.8197C10.4559 15.3019 10.6856 16.0228 10.5775 16.6582C10.4108 17.6676 9.91068 18.8166 9.39235 19.3934L9.38779 19.3979C9.07693 19.7449 8.9688 20.0693 8.93722 20.3172C8.92371 20.4388 8.95969 20.5561 9.04079 20.6461C9.23913 20.8669 9.62212 20.8534 10.2484 20.8353C10.5774 20.8264 10.9468 20.8129 11.2579 20.8489C12.0014 20.93 12.7674 21.4121 12.7585 21.5878C12.7585 21.5924 12.7495 21.6103 12.7225 21.6329C12.5512 21.75 11.3616 21.9303 8.91476 21.9168C6.6392 21.9032 5.29626 21.7275 5.10704 21.6194C4.94925 21.5023 4.93134 21.3851 4.90871 21.1732C4.90871 21.1552 4.90415 21.1372 4.90415 21.1192C4.85904 20.6775 4.8636 20.0602 4.94925 19.7899C4.96733 19.7404 4.98524 19.6907 5.00332 19.6412C5.03035 19.5736 5.05738 19.5015 5.07985 19.425C5.21957 18.9517 5.11584 18.4246 4.80498 18.0416C4.69685 17.911 4.50307 17.8884 4.37231 17.9965C4.24171 18.1046 4.21908 18.2984 4.32721 18.4292C4.50747 18.6546 4.57049 18.9744 4.4894 19.2493C4.47132 19.3033 4.4534 19.3574 4.42637 19.416C4.4039 19.4746 4.37687 19.5376 4.35879 19.6008C4.29121 19.8081 4.26418 20.0965 4.25523 20.3804C4.07952 20.3352 3.92173 20.1506 3.74145 19.9342C3.4441 19.5828 3.07901 19.1455 2.4257 19.1455H2.34916C2.14187 19.1545 1.93915 19.1861 1.74534 19.2176C1.3713 19.2763 1.04693 19.3258 0.871195 19.1906C0.726923 19.0779 0.63231 18.8166 0.591763 18.4111C0.573689 18.2263 0.64127 18.1543 0.835049 17.9649C1.08289 17.7306 1.42081 17.4062 1.38934 16.6851C1.31312 14.9141 2.14215 11.8588 4.14737 9.34458C5.96338 7.06448 9.08158 7.06448 9.95142 7.32129C11.1815 7.68622 12.8759 7.70429 13.5878 6.55967C13.8311 6.16771 13.9754 5.56828 13.66 5.05471C13.2138 4.32468 12.0467 4.04087 10.1903 4.20305C8.18055 4.37876 7.36048 3.12162 7.15774 2.73405C6.85584 2.16182 6.87391 1.63911 7.0361 1.44076C7.61743 0.782862 11.1954 -0.0598237 13.1194 1.49026C15.0525 3.05385 15.476 3.02681 17.1705 2.64383C17.3056 2.61224 17.4499 2.58081 17.6031 2.54466C21.3117 1.73356 21.7488 3.5134 21.7669 3.58554L21.7758 3.62153L21.7939 3.65752C21.8344 3.74757 21.9066 3.97294 21.9245 4.5002C21.9335 5.04114 21.8027 5.56844 21.5505 5.983L21.5502 5.98301Z" fill="#0A9386"/>
<path d="M13.8626 2.86472C13.5742 2.77011 13.2858 2.66198 13.0019 2.54474C12.993 2.54018 12.9884 2.54018 12.9795 2.53578C12.7946 2.45924 12.61 2.38255 12.4297 2.30601C11.8665 2.06713 11.2897 1.82386 10.6904 1.64812C9.69012 1.35973 8.64011 1.59861 8.24362 1.98162C8.00033 2.2205 8.01824 2.46377 8.04984 2.58544C8.13549 2.90982 8.49148 3.15325 9.13127 3.32001C9.52323 3.42358 9.89288 3.45973 10.2533 3.45973C10.7985 3.45973 11.3212 3.36968 11.8574 3.27947C12.1728 3.2254 12.4972 3.17134 12.8307 3.13079C13.1055 3.24348 13.3894 3.34705 13.6734 3.44166C13.8355 3.49573 14.0069 3.40567 14.0609 3.24332C14.115 3.08993 14.0248 2.91878 13.8626 2.86472L13.8626 2.86472ZM9.28886 2.72956C8.82915 2.60792 8.68958 2.48627 8.65345 2.44117C8.77054 2.26546 9.59974 1.97253 10.5189 2.23843C10.929 2.35551 11.339 2.5133 11.7401 2.68007C10.8841 2.82858 10.136 2.95478 9.28886 2.72957V2.72956Z" fill="#0A9386"/>
<path d="M19.6892 3.86516C19.6892 4.13391 19.4632 4.35174 19.1845 4.35174C18.9057 4.35174 18.6797 4.13391 18.6797 3.86516C18.6797 3.59641 18.9057 3.37842 19.1845 3.37842C19.4632 3.37842 19.6892 3.5964 19.6892 3.86516Z" fill="#0A9386"/>
<path d="M0.152698 23.2011C0.144683 23.2049 0.136511 23.2079 0.128181 23.2099C0.119694 23.212 0.110893 23.2131 0.101778 23.2131C0.0744316 23.2131 0.0529023 23.2055 0.0370263 23.1905C0.0209958 23.1751 0.0131378 23.1543 0.0131378 23.1282C0.0131378 23.1018 0.0209958 23.0811 0.0370263 23.066C0.0528995 23.0506 0.0744308 23.0427 0.101778 23.0427C0.110893 23.0427 0.119694 23.0438 0.128181 23.0459C0.13651 23.0481 0.144683 23.0512 0.152698 23.0553V23.0892C0.144683 23.0839 0.136982 23.0798 0.129438 23.0773C0.121895 23.0748 0.113879 23.0735 0.10555 23.0735C0.0904625 23.0735 0.0785181 23.0784 0.0697174 23.088C0.0609164 23.0977 0.0565161 23.1111 0.0565161 23.1282C0.0565161 23.145 0.0609168 23.1582 0.0697174 23.1678C0.0785185 23.1776 0.0904625 23.1823 0.10555 23.1823C0.113879 23.1823 0.121895 23.181 0.129438 23.1785C0.136982 23.176 0.144683 23.1722 0.152698 23.1672V23.2011Z" fill="#0A9386"/>
<path d="M0.277798 23.1206C0.274026 23.119 0.270411 23.1178 0.267111 23.1168C0.263653 23.116 0.260353 23.1156 0.257053 23.1156C0.246994 23.1156 0.239136 23.119 0.233793 23.1256C0.228292 23.1319 0.225621 23.1412 0.225621 23.1533V23.2099H0.186016V23.0866H0.225621V23.1068C0.23065 23.0989 0.236308 23.0929 0.242594 23.0892C0.249195 23.0854 0.25721 23.0835 0.266483 23.0835C0.26774 23.0835 0.268998 23.0838 0.270255 23.0841C0.271826 23.0841 0.274184 23.0844 0.27717 23.0848L0.277798 23.1206Z" fill="#0A9386"/>
<path d="M0.419711 23.1482V23.1589H0.32793C0.328716 23.1682 0.332017 23.1751 0.337989 23.1797C0.343804 23.1844 0.351819 23.1866 0.361877 23.1866C0.370207 23.1866 0.378536 23.1857 0.387023 23.1835C0.395824 23.1809 0.404782 23.1772 0.414055 23.1721V23.2023C0.404782 23.2061 0.39551 23.2089 0.386395 23.2105C0.377122 23.2121 0.367693 23.213 0.358106 23.213C0.335789 23.213 0.318501 23.2073 0.305927 23.196C0.293669 23.1847 0.287697 23.1688 0.287697 23.1482C0.287697 23.1281 0.293669 23.1124 0.305927 23.1011C0.318029 23.0895 0.334845 23.0835 0.356219 23.0835C0.375392 23.0835 0.390795 23.0895 0.402109 23.1011C0.413739 23.1129 0.419711 23.1286 0.419711 23.1482L0.419711 23.1482ZM0.379477 23.135C0.379477 23.1275 0.37712 23.1215 0.372562 23.1168C0.368319 23.1123 0.362818 23.1099 0.356217 23.1099C0.348202 23.1099 0.341916 23.1123 0.337358 23.1168C0.332643 23.1211 0.329814 23.1272 0.328557 23.135H0.379477Z" fill="#0A9386"/>
<path d="M0.50521 23.1545C0.496723 23.1545 0.490437 23.1561 0.486351 23.1589C0.482107 23.1614 0.480064 23.1655 0.480064 23.1709C0.480064 23.1759 0.481636 23.18 0.485093 23.1828C0.488394 23.1853 0.493266 23.1866 0.499552 23.1866C0.506625 23.1866 0.512754 23.1841 0.517783 23.1791C0.522812 23.1737 0.525327 23.1669 0.525327 23.1589V23.1545L0.50521 23.1545ZM0.564932 23.1394V23.2099H0.525327V23.1916C0.520298 23.1992 0.514326 23.2047 0.507725 23.208C0.500967 23.2113 0.492952 23.213 0.483837 23.213C0.470792 23.213 0.460263 23.2095 0.452405 23.2023C0.444389 23.1948 0.44046 23.185 0.44046 23.1728C0.44046 23.1586 0.445489 23.1481 0.455548 23.1413C0.465606 23.1347 0.481008 23.1313 0.502065 23.1313H0.525325V23.1281C0.525325 23.1218 0.52281 23.1173 0.517781 23.1143C0.513066 23.1115 0.505523 23.1099 0.49515 23.1099C0.486663 23.1099 0.478805 23.1108 0.471262 23.1124C0.464032 23.1141 0.457589 23.1167 0.451773 23.12V23.0898C0.460103 23.0882 0.468432 23.0866 0.476919 23.0854C0.485249 23.0841 0.493578 23.0835 0.502065 23.0835C0.524225 23.0835 0.540098 23.0879 0.549842 23.0967C0.5599 23.1055 0.564929 23.1198 0.564929 23.1394L0.564932 23.1394Z" fill="#0A9386"/>
<path d="M0.644764 23.0522V23.0868H0.685625V23.1151H0.644764V23.1673C0.644764 23.1733 0.645707 23.1772 0.647907 23.1792C0.650422 23.181 0.654979 23.1817 0.661737 23.1817H0.681854V23.21H0.648536C0.632977 23.21 0.621819 23.2069 0.615218 23.2006C0.608931 23.194 0.605788 23.1828 0.605788 23.1673V23.1151H0.5863V23.0868H0.605788V23.0522H0.644764Z" fill="#0A9386"/>
<path d="M0.832259 23.1482V23.1589H0.740479C0.741264 23.1682 0.744565 23.1751 0.750537 23.1797C0.756352 23.1844 0.764367 23.1866 0.774425 23.1866C0.782755 23.1866 0.791084 23.1857 0.799571 23.1835C0.808372 23.1809 0.81733 23.1772 0.826603 23.1721V23.2023C0.81733 23.2061 0.808058 23.2089 0.798943 23.2105C0.78967 23.2121 0.780241 23.213 0.770654 23.213C0.748337 23.213 0.731049 23.2073 0.718475 23.196C0.706217 23.1847 0.700245 23.1688 0.700245 23.1482C0.700245 23.1281 0.706217 23.1124 0.718475 23.1011C0.730577 23.0895 0.747393 23.0835 0.768767 23.0835C0.787941 23.0835 0.803343 23.0895 0.814657 23.1011C0.826287 23.1129 0.832259 23.1286 0.832259 23.1482L0.832259 23.1482ZM0.792025 23.135C0.792025 23.1275 0.789668 23.1215 0.78511 23.1168C0.780867 23.1123 0.775366 23.1099 0.768765 23.1099C0.76075 23.1099 0.754464 23.1123 0.749906 23.1168C0.745191 23.1211 0.742362 23.1272 0.741105 23.135H0.792025Z" fill="#0A9386"/>
<path d="M0.946049 23.1051V23.0391H0.985653V23.2101H0.946049V23.1925C0.940548 23.1997 0.934419 23.2049 0.927818 23.2082C0.921532 23.2115 0.914145 23.2132 0.905815 23.2132C0.890728 23.2132 0.878155 23.2074 0.868097 23.1956C0.858353 23.1835 0.853638 23.1678 0.853638 23.1484C0.853638 23.1296 0.858353 23.1142 0.868097 23.1019C0.878155 23.0898 0.890728 23.0837 0.905815 23.0837C0.914145 23.0837 0.921531 23.0856 0.927818 23.0894C0.934419 23.0928 0.940548 23.098 0.946049 23.1051V23.1051ZM0.920274 23.1849C0.928604 23.1849 0.93489 23.1818 0.939134 23.1755C0.943691 23.1692 0.946049 23.1602 0.946049 23.1484C0.946049 23.1368 0.943692 23.128 0.939134 23.122C0.93489 23.1158 0.928604 23.1126 0.920274 23.1126C0.911788 23.1126 0.905344 23.1158 0.900786 23.122C0.896543 23.128 0.8945 23.1368 0.8945 23.1484C0.8945 23.1602 0.896543 23.1692 0.900786 23.1755C0.905344 23.1818 0.911788 23.1849 0.920274 23.1849Z" fill="#0A9386"/>
<path d="M1.16764 23.1849C1.17597 23.1849 1.18242 23.1818 1.18713 23.1755C1.19169 23.1692 1.19405 23.1602 1.19405 23.1484C1.19405 23.1368 1.19169 23.128 1.18713 23.122C1.18242 23.1158 1.17597 23.1126 1.16764 23.1126C1.15916 23.1126 1.15271 23.1158 1.14816 23.122C1.14391 23.128 1.14187 23.1368 1.14187 23.1484C1.14187 23.1602 1.14391 23.1692 1.14816 23.1755C1.15271 23.1818 1.15916 23.1849 1.16764 23.1849ZM1.14187 23.1051C1.14721 23.098 1.15318 23.0928 1.15947 23.0894C1.16607 23.0856 1.17362 23.0837 1.1821 23.0837C1.1975 23.0837 1.21008 23.0898 1.21982 23.1019C1.22941 23.1142 1.23428 23.1296 1.23428 23.1484C1.23428 23.1678 1.22941 23.1835 1.21982 23.1956C1.21008 23.2074 1.1975 23.2132 1.1821 23.2132C1.17362 23.2132 1.16607 23.2115 1.15947 23.2082C1.15318 23.2049 1.14721 23.1997 1.14187 23.1925V23.2101H1.10226V23.0391H1.14187V23.1051Z" fill="#0A9386"/>
<path d="M1.24717 23.0867H1.28677L1.32009 23.1703L1.34775 23.0867H1.38735L1.33581 23.2218C1.33031 23.2352 1.32402 23.2446 1.31695 23.2501C1.31019 23.2555 1.30123 23.2583 1.28992 23.2583H1.26728V23.2325H1.27923C1.28583 23.2325 1.2907 23.2314 1.29369 23.2294C1.29699 23.2272 1.2995 23.2234 1.30123 23.2181L1.30249 23.2149L1.24717 23.0867Z" fill="#0A9386"/>
<path d="M1.49061 23.0459H1.53273V23.21H1.49061V23.0459Z" fill="#0A9386"/>
<path d="M1.66443 23.1206C1.66066 23.119 1.65704 23.1178 1.65374 23.1168C1.65028 23.116 1.64698 23.1156 1.64368 23.1156C1.63363 23.1156 1.62577 23.119 1.62042 23.1256C1.61492 23.1319 1.61225 23.1412 1.61225 23.1533V23.2099H1.57265V23.0866H1.61225V23.1068C1.61728 23.0989 1.62294 23.0929 1.62923 23.0892C1.63583 23.0854 1.64384 23.0835 1.65311 23.0835C1.65437 23.0835 1.65563 23.0838 1.65689 23.0841C1.65846 23.0841 1.66081 23.0844 1.6638 23.0848L1.66443 23.1206Z" fill="#0A9386"/>
<path d="M1.74223 23.1118C1.73343 23.1118 1.72667 23.1149 1.72211 23.1212C1.71787 23.1275 1.71582 23.1366 1.71582 23.1482C1.71582 23.16 1.71787 23.169 1.72211 23.1753C1.72667 23.1816 1.73343 23.1847 1.74223 23.1847C1.75103 23.1847 1.75747 23.1816 1.76171 23.1753C1.76627 23.169 1.76863 23.16 1.76863 23.1482C1.76863 23.1366 1.76627 23.1275 1.76171 23.1212C1.75747 23.1149 1.75103 23.1118 1.74223 23.1118ZM1.74223 23.0835C1.7636 23.0835 1.7801 23.0895 1.79189 23.1011C1.80399 23.1124 1.81012 23.1281 1.81012 23.1482C1.81012 23.1688 1.80399 23.1847 1.79189 23.196C1.7801 23.2073 1.7636 23.213 1.74223 23.213C1.72117 23.213 1.70466 23.2073 1.69256 23.196C1.6803 23.1847 1.67433 23.1688 1.67433 23.1482C1.67433 23.1281 1.6803 23.1124 1.69256 23.1011C1.70466 23.0895 1.72117 23.0835 1.74223 23.0835Z" fill="#0A9386"/>
<path d="M1.96241 23.135V23.2099H1.9228V23.1526C1.9228 23.1418 1.92249 23.1344 1.92217 23.1306C1.9217 23.1266 1.92092 23.1236 1.91966 23.1218C1.91793 23.1193 1.91589 23.1174 1.91337 23.1162C1.91086 23.1146 1.90787 23.1137 1.90457 23.1137C1.89608 23.1137 1.88964 23.1168 1.88508 23.1231C1.88037 23.1294 1.87817 23.1382 1.87817 23.1495V23.2099H1.83856V23.0866H1.87817V23.1049C1.88398 23.0978 1.89027 23.0926 1.89703 23.0892C1.90363 23.0854 1.91101 23.0835 1.91903 23.0835C1.93317 23.0835 1.94386 23.0879 1.95109 23.0967C1.95863 23.1055 1.96241 23.1184 1.96241 23.135H1.96241Z" fill="#0A9386"/>
<path d="M2.11454 23.0509V23.0855C2.10574 23.0817 2.09694 23.0789 2.08814 23.0767C2.07965 23.0746 2.07179 23.0735 2.06425 23.0735C2.05419 23.0735 2.04665 23.0751 2.04162 23.0779C2.0369 23.0804 2.0347 23.0847 2.0347 23.0905C2.0347 23.0952 2.03612 23.0987 2.0391 23.1012C2.0424 23.1037 2.04853 23.1059 2.05733 23.1075L2.07494 23.1112C2.09332 23.1147 2.10637 23.12 2.11391 23.1276C2.12177 23.1351 2.12586 23.1458 2.12586 23.1597C2.12586 23.1777 2.12036 23.1911 2.10951 23.1999C2.09851 23.2087 2.08217 23.2131 2.06047 23.2131C2.04995 23.2131 2.03942 23.212 2.02904 23.2099C2.01851 23.2084 2.00798 23.2054 1.99761 23.2011V23.1659C2.00798 23.1714 2.01804 23.1757 2.02779 23.1785C2.03784 23.181 2.04727 23.1823 2.05607 23.1823C2.06519 23.1823 2.07242 23.1809 2.07745 23.1779C2.08248 23.1751 2.08499 23.1707 2.08499 23.1647C2.08499 23.1597 2.08326 23.1557 2.07996 23.1527C2.07651 23.1499 2.0699 23.1474 2.05985 23.1452L2.0435 23.1414C2.02716 23.1381 2.01521 23.1326 2.00767 23.1251C2.00013 23.1172 1.99635 23.1067 1.99635 23.0936C1.99635 23.0773 2.00154 23.0647 2.01207 23.0559C2.02244 23.0471 2.03753 23.0427 2.05733 23.0427C2.06645 23.0427 2.07572 23.0437 2.08499 23.0452C2.09458 23.0465 2.10448 23.0484 2.11454 23.0509H2.11454Z" fill="#0A9386"/>
<path d="M2.14361 23.0459H2.18573L2.22974 23.1672L2.27311 23.0459H2.31523L2.25489 23.21H2.20397L2.14361 23.0459Z" fill="#0A9386"/>
<path d="M0.101776 23.2642V23.2899H0.0797736C0.0742729 23.2899 0.070501 23.291 0.068458 23.2931C0.0662577 23.2953 0.0653148 23.2987 0.0653148 23.3038V23.3119H0.0986327V23.3402H0.0653148V23.4352H0.0257099V23.3402H0.00622177V23.3119H0.0257099V23.3038C0.0257099 23.2904 0.0294818 23.2805 0.0370256 23.2742C0.0445693 23.2676 0.0560422 23.2642 0.0716012 23.2642L0.101776 23.2642Z" fill="#0A9386"/>
<path d="M0.210529 23.3459C0.206758 23.3444 0.203143 23.3431 0.199843 23.3422C0.196385 23.3414 0.193085 23.3409 0.189784 23.3409C0.179726 23.3409 0.171868 23.3444 0.166525 23.351C0.161024 23.3572 0.158353 23.3665 0.158353 23.3786V23.4352H0.118748V23.312H0.158353V23.3321C0.163382 23.3242 0.169039 23.3183 0.175326 23.3145C0.181927 23.3107 0.189942 23.3088 0.199215 23.3088C0.200472 23.3088 0.201729 23.3092 0.202986 23.3095C0.204558 23.3095 0.206915 23.3098 0.209902 23.3101L0.210529 23.3459Z" fill="#0A9386"/>
<path d="M0.288327 23.3371C0.279526 23.3371 0.272768 23.3403 0.26821 23.3466C0.263967 23.3528 0.261924 23.362 0.261924 23.3736C0.261924 23.3854 0.263967 23.3943 0.26821 23.4006C0.272768 23.4069 0.279526 23.4101 0.288327 23.4101C0.297128 23.4101 0.303571 23.4069 0.307815 23.4006C0.312372 23.3943 0.31473 23.3854 0.31473 23.3736C0.31473 23.362 0.312373 23.3528 0.307815 23.3466C0.303571 23.3403 0.297128 23.3371 0.288327 23.3371ZM0.288327 23.3088C0.309701 23.3088 0.326203 23.3148 0.337991 23.3264C0.350092 23.3378 0.356221 23.3535 0.356221 23.3736C0.356221 23.3942 0.350092 23.4101 0.337991 23.4214C0.326203 23.4327 0.309702 23.4383 0.288327 23.4383C0.267267 23.4383 0.250765 23.4327 0.238663 23.4214C0.226404 23.4101 0.220432 23.3942 0.220432 23.3736C0.220432 23.3535 0.226405 23.3378 0.238663 23.3264C0.250764 23.3148 0.267266 23.3088 0.288327 23.3088Z" fill="#0A9386"/>
<path d="M0.49908 23.3327C0.503637 23.3252 0.509295 23.3194 0.516053 23.3151C0.523126 23.311 0.530827 23.3088 0.539313 23.3088C0.553143 23.3088 0.56383 23.3132 0.571374 23.322C0.578918 23.3308 0.58269 23.3437 0.58269 23.3604V23.4352H0.543085V23.3711V23.3686V23.3635C0.543085 23.3547 0.541828 23.3484 0.539313 23.3447C0.536798 23.3409 0.532555 23.339 0.52674 23.339C0.519196 23.339 0.513224 23.3422 0.509138 23.3484C0.505366 23.3544 0.50348 23.3632 0.50348 23.3748V23.4352H0.463876V23.3711C0.463876 23.3572 0.462618 23.3484 0.460104 23.3447C0.457904 23.3409 0.453817 23.339 0.447531 23.339C0.439987 23.339 0.434015 23.3422 0.429929 23.3484C0.426157 23.3544 0.424271 23.3632 0.424271 23.3748V23.4352H0.384666V23.312H0.424271V23.3302C0.428829 23.3231 0.43433 23.318 0.440616 23.3145C0.446902 23.3107 0.453817 23.3088 0.461361 23.3088C0.469691 23.3088 0.477077 23.311 0.483364 23.3151C0.489964 23.3194 0.495308 23.3252 0.49908 23.3327V23.3327Z" fill="#0A9386"/>
<path d="M0.740475 23.2773V23.3119H0.781335V23.3402H0.740475V23.3924C0.740475 23.3984 0.741418 23.4023 0.743618 23.4043C0.746132 23.4061 0.75069 23.4068 0.757448 23.4068H0.777565V23.4351H0.744247C0.728688 23.4351 0.717529 23.432 0.710929 23.4257C0.704642 23.4191 0.701499 23.4079 0.701499 23.3924V23.3402H0.682011V23.3119H0.701499V23.2773H0.740475Z" fill="#0A9386"/>
<path d="M0.929386 23.3603V23.4352H0.889781V23.3779C0.889781 23.3671 0.889467 23.3597 0.889152 23.3559C0.888681 23.3519 0.887895 23.3489 0.886638 23.3471C0.884909 23.3446 0.882866 23.3427 0.880351 23.3415C0.877837 23.3399 0.874851 23.339 0.87155 23.339C0.863063 23.339 0.85662 23.3421 0.852062 23.3484C0.847347 23.3547 0.845147 23.3635 0.845147 23.3748V23.4352H0.805542V23.2642H0.845147V23.3302C0.850962 23.3231 0.857248 23.3179 0.864006 23.3145C0.870607 23.3107 0.877994 23.3088 0.886009 23.3088C0.900153 23.3088 0.91084 23.3132 0.91807 23.322C0.925614 23.3308 0.929386 23.3437 0.929386 23.3603L0.929386 23.3603Z" fill="#0A9386"/>
<path d="M1.08843 23.3736V23.3843H0.996651C0.997437 23.3935 1.00074 23.4005 1.00671 23.405C1.01252 23.4097 1.02054 23.4119 1.0306 23.4119C1.03893 23.4119 1.04726 23.411 1.05574 23.4088C1.06454 23.4063 1.0735 23.4025 1.08278 23.3975V23.4277C1.0735 23.4314 1.06423 23.4343 1.05511 23.4358C1.04584 23.4374 1.03641 23.4383 1.02683 23.4383C1.00451 23.4383 0.987221 23.4327 0.974648 23.4214C0.962389 23.4101 0.956417 23.3942 0.956417 23.3736C0.956417 23.3535 0.962389 23.3378 0.974648 23.3264C0.986749 23.3148 1.00357 23.3088 1.02494 23.3088C1.04411 23.3088 1.05951 23.3148 1.07083 23.3264C1.08246 23.3382 1.08843 23.3539 1.08843 23.3736L1.08843 23.3736ZM1.0482 23.3604C1.0482 23.3528 1.04584 23.3469 1.04128 23.3422C1.03704 23.3376 1.03154 23.3352 1.02494 23.3352C1.01692 23.3352 1.01064 23.3376 1.00608 23.3422C1.00136 23.3464 0.998534 23.3525 0.997277 23.3604H1.0482Z" fill="#0A9386"/>
<path d="M1.19907 23.271H1.24622L1.30595 23.3835V23.271H1.34618V23.4351H1.29903L1.23931 23.3225V23.4351H1.19907V23.271Z" fill="#0A9386"/>
<path d="M1.44425 23.3371C1.43545 23.3371 1.42869 23.3403 1.42413 23.3466C1.41989 23.3528 1.41785 23.362 1.41785 23.3736C1.41785 23.3854 1.41989 23.3943 1.42413 23.4006C1.42869 23.4069 1.43545 23.4101 1.44425 23.4101C1.45305 23.4101 1.45949 23.4069 1.46374 23.4006C1.46829 23.3943 1.47065 23.3854 1.47065 23.3736C1.47065 23.362 1.46829 23.3528 1.46374 23.3466C1.45949 23.3403 1.45305 23.3371 1.44425 23.3371ZM1.44425 23.3088C1.46562 23.3088 1.48212 23.3148 1.49391 23.3264C1.50601 23.3378 1.51214 23.3535 1.51214 23.3736C1.51214 23.3942 1.50601 23.4101 1.49391 23.4214C1.48213 23.4327 1.46562 23.4383 1.44425 23.4383C1.42319 23.4383 1.40669 23.4327 1.39458 23.4214C1.38233 23.4101 1.37635 23.3942 1.37635 23.3736C1.37635 23.3535 1.38233 23.3378 1.39458 23.3264C1.40669 23.3148 1.42319 23.3088 1.44425 23.3088Z" fill="#0A9386"/>
<path d="M1.53917 23.3874V23.312H1.57877V23.3246V23.3497V23.3698C1.57877 23.3796 1.57893 23.3867 1.5794 23.3912C1.57972 23.3955 1.58066 23.3986 1.58192 23.4007C1.58349 23.4032 1.58569 23.4054 1.5882 23.4069C1.59072 23.4082 1.59355 23.4088 1.597 23.4088C1.60533 23.4088 1.61178 23.4057 1.61649 23.3994C1.62105 23.3931 1.62341 23.3843 1.62341 23.373V23.312H1.66301V23.4352H1.62341V23.4176C1.61744 23.4249 1.61115 23.43 1.60455 23.4333C1.59779 23.4366 1.5904 23.4384 1.58255 23.4384C1.56824 23.4384 1.5574 23.434 1.54986 23.4252C1.54263 23.4164 1.53917 23.4038 1.53917 23.3875L1.53917 23.3874Z" fill="#0A9386"/>
<path d="M1.82473 23.3604V23.4352H1.78513V23.378C1.78513 23.3671 1.78481 23.3598 1.7845 23.356C1.78403 23.3519 1.78324 23.3489 1.78199 23.3472C1.78026 23.3447 1.77821 23.3428 1.7757 23.3415C1.77318 23.34 1.7702 23.339 1.7669 23.339C1.75841 23.339 1.75197 23.3422 1.74741 23.3484C1.74269 23.3547 1.74049 23.3635 1.74049 23.3748V23.4352H1.70089V23.312H1.74049V23.3302C1.74631 23.3231 1.7526 23.318 1.75935 23.3145C1.76595 23.3107 1.77334 23.3088 1.78136 23.3088C1.7955 23.3088 1.80619 23.3132 1.81342 23.322C1.82096 23.3308 1.82473 23.3437 1.82473 23.3604H1.82473Z" fill="#0A9386"/>
<path d="M1.94166 23.271H2.01207C2.0325 23.271 2.04853 23.2757 2.05984 23.2848C2.07116 23.2941 2.07682 23.3073 2.07682 23.3244C2.07682 23.3417 2.07116 23.3549 2.05984 23.364C2.04853 23.3733 2.0325 23.3779 2.01207 23.3779H1.98378V23.4351H1.94166L1.94166 23.271ZM1.98378 23.3018V23.3477H2.00704C2.01537 23.3477 2.02165 23.3458 2.0259 23.342C2.03046 23.3379 2.03281 23.332 2.03281 23.3244C2.03281 23.3174 2.03046 23.3119 2.0259 23.3081C2.02165 23.304 2.01537 23.3018 2.00704 23.3018L1.98378 23.3018Z" fill="#0A9386"/>
<path d="M2.19658 23.3459C2.1928 23.3444 2.18919 23.3431 2.18589 23.3422C2.18243 23.3414 2.17913 23.3409 2.17583 23.3409C2.16577 23.3409 2.15791 23.3444 2.15257 23.351C2.14707 23.3572 2.1444 23.3665 2.1444 23.3786V23.4352H2.10479V23.312H2.1444V23.3321C2.14943 23.3242 2.15509 23.3183 2.16137 23.3145C2.16797 23.3107 2.17599 23.3088 2.18526 23.3088C2.18652 23.3088 2.18778 23.3092 2.18903 23.3095C2.1906 23.3095 2.19296 23.3098 2.19595 23.3101L2.19658 23.3459Z" fill="#0A9386"/>
<path d="M2.27437 23.3371C2.26557 23.3371 2.25881 23.3403 2.25426 23.3466C2.25001 23.3528 2.24797 23.362 2.24797 23.3736C2.24797 23.3854 2.25001 23.3943 2.25426 23.4006C2.25881 23.4069 2.26557 23.4101 2.27437 23.4101C2.28317 23.4101 2.28962 23.4069 2.29386 23.4006C2.29842 23.3943 2.30078 23.3854 2.30078 23.3736C2.30078 23.362 2.29842 23.3528 2.29386 23.3466C2.28962 23.3403 2.28317 23.3371 2.27437 23.3371ZM2.27437 23.3088C2.29575 23.3088 2.31225 23.3148 2.32404 23.3264C2.33614 23.3378 2.34227 23.3535 2.34227 23.3736C2.34227 23.3942 2.33614 23.4101 2.32404 23.4214C2.31225 23.4327 2.29575 23.4383 2.27437 23.4383C2.25331 23.4383 2.23681 23.4327 2.22471 23.4214C2.21245 23.4101 2.20648 23.3942 2.20648 23.3736C2.20648 23.3535 2.21245 23.3378 2.22471 23.3264C2.23681 23.3148 2.25331 23.3088 2.27437 23.3088Z" fill="#0A9386"/>
<path d="M2.37071 23.3119H2.41032V23.4333C2.41032 23.4496 2.40623 23.4619 2.39837 23.4704C2.39036 23.4792 2.37888 23.4836 2.3638 23.4836H2.34431V23.4578H2.35122C2.35877 23.4578 2.3638 23.4561 2.36631 23.4528C2.36914 23.4493 2.37071 23.4429 2.37071 23.4333V23.3119ZM2.37071 23.2642H2.41032V23.2962H2.37071V23.2642Z" fill="#0A9386"/>
<path d="M2.57062 23.3736V23.3843H2.47884C2.47963 23.3935 2.48293 23.4005 2.4889 23.405C2.49471 23.4097 2.50273 23.4119 2.51279 23.4119C2.52112 23.4119 2.52945 23.411 2.53793 23.4088C2.54673 23.4063 2.55569 23.4025 2.56496 23.3975V23.4277C2.55569 23.4314 2.54642 23.4343 2.5373 23.4358C2.52803 23.4374 2.5186 23.4383 2.50902 23.4383C2.4867 23.4383 2.46941 23.4327 2.45684 23.4214C2.44458 23.4101 2.43861 23.3942 2.43861 23.3736C2.43861 23.3535 2.44458 23.3378 2.45684 23.3264C2.46894 23.3148 2.48575 23.3088 2.50713 23.3088C2.5263 23.3088 2.5417 23.3148 2.55302 23.3264C2.56465 23.3382 2.57062 23.3539 2.57062 23.3736L2.57062 23.3736ZM2.53039 23.3604C2.53039 23.3528 2.52803 23.3469 2.52347 23.3422C2.51923 23.3376 2.51373 23.3352 2.50713 23.3352C2.49911 23.3352 2.49282 23.3376 2.48827 23.3422C2.48355 23.3464 2.48072 23.3525 2.47947 23.3604H2.53039Z" fill="#0A9386"/>
<path d="M2.70012 23.3158V23.3478C2.69509 23.3445 2.68975 23.342 2.6844 23.3403C2.6789 23.3382 2.67324 23.3371 2.66743 23.3371C2.65643 23.3371 2.64794 23.3406 2.64165 23.3472C2.63568 23.3535 2.63285 23.3623 2.63285 23.3736C2.63285 23.3854 2.63568 23.3943 2.64165 23.4006C2.64794 23.4069 2.65643 23.4101 2.66743 23.4101C2.67372 23.4101 2.67953 23.4093 2.68503 23.4075C2.69037 23.406 2.6954 23.4031 2.70012 23.3994V23.4314C2.69415 23.4339 2.68786 23.4355 2.68126 23.4365C2.67497 23.4377 2.66869 23.4383 2.6624 23.4383C2.64008 23.4383 2.6228 23.4327 2.61022 23.4214C2.59765 23.4101 2.59136 23.3942 2.59136 23.3736C2.59136 23.3535 2.59765 23.3378 2.61022 23.3264C2.62279 23.3148 2.64008 23.3088 2.6624 23.3088C2.669 23.3088 2.67529 23.3095 2.68126 23.3107C2.68755 23.312 2.69383 23.3137 2.70012 23.3158V23.3158Z" fill="#0A9386"/>
<path d="M2.77713 23.2773V23.3119H2.81799V23.3402H2.77713V23.3924C2.77713 23.3984 2.77807 23.4023 2.78027 23.4043C2.78278 23.4061 2.78734 23.4068 2.7941 23.4068H2.81422V23.4351H2.7809C2.76534 23.4351 2.75418 23.432 2.74758 23.4257C2.74129 23.4191 2.73815 23.4079 2.73815 23.3924V23.3402H2.71866V23.3119H2.73815V23.2773H2.77713Z" fill="#0A9386"/>
</svg>
