<svg width="33" height="30" viewBox="0 0 33 30" fill="none" xmlns="http://www.w3.org/2000/svg">
<path d="M25.7866 6.29855C25.7579 5.81017 25.7004 5.46548 25.6142 5.20675C25.7579 4.80454 25.7579 4.37368 25.5567 3.97146C25.4419 3.77025 25.2407 3.68407 25.0683 3.5979C24.8384 3.51173 24.6661 3.42555 24.6374 3.02335V2.93717C24.6088 1.8742 24.149 1.50066 24.0915 1.47198C23.9767 1.3858 23.833 1.41446 23.7468 1.50064C23.6606 1.58681 23.632 1.73051 23.6893 1.84534C23.8905 2.19004 24.0053 2.5636 24.0628 2.93714V2.99466C24.0628 3.42553 24.0342 3.54058 24.0053 3.56921C23.3157 3.65539 23.4019 4.54599 23.4883 5.12054C23.4883 5.17806 23.4883 5.23538 23.5169 5.29289C23.4308 5.4941 23.3732 5.78128 23.4021 6.12597C23.4596 6.95904 23.6895 11.3549 23.1147 14.6014C22.8849 15.9517 22.4827 17.2732 22.1379 18.5374C21.592 20.4048 21.1037 22.1862 20.9888 24.0536C20.8165 27.0703 21.6209 27.9896 22.3392 28.4493C22.4253 28.5642 22.5115 28.7079 22.5977 28.8229C22.6552 28.9666 22.7125 29.1676 22.8276 29.3688C22.8851 29.4836 22.9712 29.5412 23.0861 29.5412C23.1147 29.5412 23.1436 29.5412 23.1723 29.5125C23.3159 29.455 23.4021 29.3113 23.3446 29.1678C23.2871 28.9666 23.2298 28.7942 23.1147 28.5932C23.0572 28.4496 23.0286 28.3347 23.0286 28.2485C23.3446 27.875 23.2871 27.2718 23.2298 26.5535C23.1723 25.8639 23.0861 24.9733 23.2873 23.9679C23.5747 22.5027 24.2068 19.9744 24.7525 17.7047C25.011 16.6417 25.2695 15.6361 25.4707 14.7742C26.2175 11.9011 25.8439 6.87333 25.7866 6.29873L25.7866 6.29855ZM24.1488 4.17262C24.3212 4.14396 24.4649 4.05778 24.551 3.94275C24.6659 4.02893 24.8096 4.08644 24.9246 4.14396C24.9821 4.17262 25.097 4.20148 25.097 4.23014C25.1545 4.37383 25.1831 4.51752 25.1831 4.66101C24.9819 4.60349 24.7809 4.63235 24.6086 4.66101C24.4362 4.68967 24.2639 4.71852 24.0915 4.8047C24.034 4.31631 24.0913 4.20126 24.1488 4.17263L24.1488 4.17262ZM24.9533 14.7454C24.7521 15.5784 24.4936 16.5841 24.235 17.6471C23.6605 19.9166 23.0284 22.4736 22.741 23.939C22.5398 25.0308 22.5973 25.9501 22.6835 26.6683C22.741 27.2717 22.7697 27.7313 22.5973 27.9611C22.1951 27.7026 21.4193 27.0416 21.563 24.1113C21.6492 22.3301 22.1665 20.5775 22.6835 18.7388C23.0571 17.4459 23.4304 16.1243 23.6892 14.7453C24.2637 11.4987 24.0627 7.33284 23.9765 6.12617C23.919 5.37924 24.2064 5.2931 24.6373 5.2067C24.6948 5.2067 24.8096 5.17804 24.8958 5.17804C24.9245 5.17804 24.982 5.17804 24.982 5.2067C25.0682 5.26422 25.1543 5.66643 25.2119 6.32718C25.2694 6.90194 25.6429 11.8434 24.9533 14.7451L24.9533 14.7454Z" fill="#0A9386"/>
<path d="M32.2091 7.69716C32.1817 7.23097 32.1268 6.90195 32.0446 6.65499C32.1817 6.27106 32.1817 5.85978 31.9897 5.47584C31.88 5.28377 31.688 5.20152 31.5235 5.11926C31.304 5.037 31.1395 4.95475 31.1122 4.57083V4.48857C31.0848 3.47392 30.646 3.11735 30.5911 3.08997C30.4815 3.00772 30.3443 3.03507 30.262 3.11733C30.1798 3.19959 30.1524 3.33675 30.2071 3.44636C30.3992 3.7754 30.5088 4.13197 30.5637 4.48854V4.54344C30.5637 4.95473 30.5364 5.06455 30.5088 5.09188C29.8506 5.17414 29.9328 6.02426 30.0153 6.57269C30.0153 6.6276 30.0153 6.68231 30.0426 6.73721C29.9604 6.92927 29.9055 7.2034 29.933 7.53242C29.9879 8.32763 30.2073 12.5236 29.6587 15.6226C29.4393 16.9115 29.0553 18.173 28.7263 19.3797C28.2052 21.1622 27.739 22.8626 27.6294 24.6452C27.4649 27.5248 28.2328 28.4022 28.9184 28.8411C29.0006 28.9507 29.0829 29.0879 29.1651 29.1977C29.22 29.3348 29.2748 29.5267 29.3846 29.7188C29.4395 29.8284 29.5217 29.8833 29.6313 29.8833C29.6587 29.8833 29.6862 29.8833 29.7136 29.8559C29.8508 29.801 29.933 29.6639 29.8781 29.5269C29.8232 29.3348 29.7685 29.1703 29.6587 28.9785C29.6038 28.8413 29.5764 28.7317 29.5764 28.6494C29.8781 28.2928 29.8232 27.717 29.7685 27.0314C29.7136 26.3732 29.6313 25.523 29.8234 24.5633C30.0977 23.1648 30.7011 20.7514 31.222 18.5848C31.4688 17.5702 31.7155 16.6103 31.9076 15.7875C32.6204 13.0451 32.2638 8.24581 32.2091 7.69733L32.2091 7.69716ZM30.6458 5.66786C30.8103 5.6405 30.9475 5.55824 31.0297 5.44844C31.1393 5.5307 31.2765 5.5856 31.3863 5.6405C31.4412 5.66786 31.5508 5.6954 31.5508 5.72276C31.6057 5.85992 31.6331 5.99708 31.6331 6.13405C31.441 6.07914 31.2491 6.10669 31.0846 6.13405C30.9201 6.1614 30.7556 6.18895 30.5911 6.27121C30.5362 5.80502 30.5909 5.6952 30.6458 5.66787L30.6458 5.66786ZM31.4137 15.76C31.2216 16.5552 30.9748 17.5152 30.7281 18.5298C30.1796 20.6962 29.5762 23.137 29.3019 24.5358C29.1099 25.5779 29.1648 26.4554 29.247 27.141C29.3019 27.717 29.3293 28.1557 29.1648 28.3751C28.7809 28.1283 28.0403 27.4974 28.1775 24.7002C28.2598 23 28.7535 21.3271 29.2471 19.5719C29.6036 18.3379 29.96 17.0762 30.207 15.7599C30.7554 12.6609 30.5636 8.68444 30.4813 7.53261C30.4264 6.81963 30.7007 6.73741 31.112 6.65494C31.1669 6.65494 31.2766 6.62758 31.3588 6.62758C31.3862 6.62758 31.4411 6.62758 31.4411 6.65494C31.5233 6.70984 31.6056 7.09377 31.6605 7.72449C31.7154 8.27312 32.072 12.99 31.4137 15.7598L31.4137 15.76Z" fill="#0A9386"/>
<path d="M17.6307 17.4143C17.9394 16.059 17.8214 14.3258 17.2889 12.4025C16.5385 9.69165 15.0395 6.89084 13.2796 4.91071C11.2621 2.64118 9.12533 1.67509 7.26322 2.19058C5.40111 2.70607 4.06534 4.63346 3.5025 7.61775C3.01144 10.2212 3.16602 13.3936 3.91659 16.1048C4.44902 18.0282 5.23872 19.5754 6.20074 20.5789C7.31257 21.7388 8.6388 22.1476 10.0355 21.761C10.5361 21.6224 10.896 21.4112 11.1419 21.2243L12.2941 26.588C12.303 26.6283 12.3192 26.6663 12.3419 26.6993C12.3523 26.7797 12.3683 26.8581 12.3893 26.9341C12.6424 27.8482 13.5666 28.3932 14.4497 28.1488C15.3327 27.9043 15.8451 26.9617 15.592 26.0474C15.571 25.9715 15.5441 25.8963 15.512 25.8217C15.5143 25.7818 15.509 25.7408 15.4957 25.7017L13.7252 20.5092C14.0322 20.543 14.4495 20.539 14.9501 20.4005C16.3469 20.0133 17.2737 18.981 17.6307 17.4143L17.6307 17.4143ZM14.2872 27.5644C13.7152 27.7228 13.1162 27.3698 12.9522 26.7773C12.9291 26.6939 12.9157 26.6042 12.9124 26.5106C12.91 26.4368 12.881 26.3665 12.8324 26.3127L10.3772 14.8824C10.3792 14.8262 10.3699 14.7705 10.3423 14.7204L8.99443 8.44519L11.0653 14.5203C11.0677 14.5771 11.0881 14.6299 11.1187 14.6771L14.891 25.7428C14.8771 25.8135 14.8885 25.8884 14.924 25.9531C14.9702 26.0365 15.0038 26.1182 15.0272 26.2027C15.1913 26.7949 14.8591 27.4057 14.2871 27.564L14.2872 27.5644ZM13.1488 18.8194L15.0711 14.1706C15.1341 14.0181 15.0642 13.8397 14.9152 13.7718C14.7664 13.7045 14.5941 13.7728 14.5309 13.9253L12.859 17.9689L11.6796 14.5095L13.593 9.88148C13.6561 9.72901 13.5861 9.55065 13.4371 9.48274C13.2883 9.41523 13.1161 9.48393 13.0528 9.63625L11.3897 13.6588L10.0717 9.79252L12.0308 5.05414C12.0939 4.90168 12.0239 4.72331 11.875 4.6554C11.7261 4.5881 11.5539 4.65639 11.4907 4.80891L9.78186 8.94188L7.93551 3.52569C7.88374 3.37387 7.7272 3.28788 7.57815 3.32914C7.42911 3.3704 7.33912 3.52486 7.37263 3.68107L8.57442 9.2757L4.9835 6.60986C4.85106 6.5115 4.66794 6.54137 4.57497 6.67582C4.48186 6.81054 4.51393 6.99982 4.64632 7.09797L8.76324 10.1543L9.62111 14.1479L6.12616 11.5533C5.99372 11.455 5.81041 11.4849 5.71763 11.6193C5.62452 11.754 5.65659 11.9433 5.78898 12.0414L9.80994 15.0266L10.5775 18.6001L7.06421 15.9919C6.93177 15.8936 6.74846 15.9235 6.65568 16.0579C6.56257 16.1926 6.59464 16.3819 6.72703 16.48L10.7664 19.4787L10.9976 20.5547C10.8497 20.705 10.4939 21.0052 9.87354 21.1769C8.67645 21.5083 7.57993 21.1654 6.61406 20.158C5.72307 19.2283 4.98496 17.7726 4.47996 15.9484C3.75376 13.3251 3.60357 10.2576 4.07801 7.74306C4.59687 4.99298 5.78542 3.22822 7.42459 2.77445C9.06375 2.32068 10.9906 3.22299 12.8504 5.31505C14.5503 7.22755 15.999 9.93556 16.7253 12.559C17.2303 14.3832 17.3458 16.011 17.06 17.2667C16.7499 18.6274 15.9854 19.4854 14.7885 19.8168C14.1687 19.9884 13.7089 19.9142 13.5044 19.8614L13.1488 18.8194Z" fill="#0A9386"/>
</svg>
