<svg width="23" height="23" viewBox="0 0 23 23" fill="none" xmlns="http://www.w3.org/2000/svg">
<path d="M21.3988 11.1575C21.2087 11.109 20.9994 11.0623 20.7743 11.0174V6.4807C20.7743 5.56366 20.0895 4.77415 19.1818 4.64453L18.1775 4.50094V2.96784C18.5866 2.96784 18.9195 2.63494 18.9195 2.22585C18.9195 0.998521 17.921 0 16.6936 0H15.9516C14.7243 0 13.7258 0.998562 13.7258 2.22585C13.7258 2.63495 14.0587 2.96784 14.4678 2.96784V4.50094L13.4636 4.64437C12.5557 4.774 11.871 5.5635 11.871 6.48054V9.66995C11.8007 9.66065 11.7296 9.65359 11.6581 9.64958L11.545 9.53647C11.1367 9.12817 10.5938 8.90324 10.0162 8.90324C9.43858 8.90324 8.8957 9.12817 8.4872 9.53647L8.37409 9.64958C7.59616 9.6929 6.88797 10.0555 6.40184 10.6422C5.02739 10.7749 3.87501 10.9544 3.06302 11.1631C2.32793 11.3523 1.48387 11.6457 1.48387 12.2421V15.6734C1.48387 17.095 1.88496 18.456 2.64783 19.6375C2.18496 19.898 1.81519 20.2996 1.59456 20.7924C0.694518 20.9193 0 21.6945 0 22.6291V23H15.6733C19.7132 23 23 19.7134 23 15.6733V12.242C23 11.6421 22.1442 11.3474 21.3989 11.1574L21.3988 11.1575ZM22.258 13.6784C22.1712 13.7596 21.649 14.1342 19.1941 14.4542C17.2927 14.7021 14.8237 14.8387 12.242 14.8387C9.66022 14.8387 7.19101 14.7021 5.28981 14.4542C2.83485 14.1342 2.31279 13.7594 2.22596 13.6784V13.0469C2.33666 13.0949 2.44849 13.1358 2.55261 13.1709C3.0973 13.3549 3.8685 13.5189 4.84489 13.6583C6.82338 13.9412 9.45064 14.0968 12.2423 14.0968C15.0337 14.0968 17.6608 13.9412 19.6396 13.6585C20.616 13.5191 21.3873 13.3549 21.9319 13.1711C22.036 13.136 22.1477 13.095 22.2586 13.0471L22.258 13.6784ZM22.198 12.2409C22.0679 12.3282 21.73 12.4968 20.9031 12.6813C20.7238 12.2626 20.4438 11.9103 20.0976 11.6476C20.4213 11.702 20.7174 11.7594 20.9803 11.8198C21.756 11.9975 22.0735 12.1562 22.198 12.2409V12.2409ZM18.5484 10.69C18.3427 10.6677 18.1316 10.6465 17.915 10.6264C17.5545 10.4697 17.1623 10.3872 16.7573 10.3872H16.4762L16.4491 10.3601C15.9881 9.89917 15.3753 9.64539 14.7233 9.64539C14.5099 9.64539 14.2997 9.67314 14.0966 9.72689L14.0968 7.04844C14.0968 6.84388 14.2631 6.67752 14.4677 6.67752H18.1774C18.382 6.67752 18.5483 6.84389 18.5483 7.04844L18.5484 10.69ZM15.9516 0.742126H16.6936C17.5118 0.742126 18.1775 1.40777 18.1779 2.22598H18.1775H14.4677C14.4677 1.40777 15.1334 0.742126 15.9516 0.742126H15.9516ZM17.4355 2.96781V4.45167H15.2096L15.2098 2.96781H17.4355ZM12.6129 6.4805C12.6129 5.93023 13.0236 5.4566 13.5684 5.37881L14.8649 5.19367H17.7798L19.0765 5.37897C19.6215 5.45662 20.0322 5.93022 20.0322 6.4805V10.885C19.7973 10.8476 19.5494 10.812 19.2902 10.7781V7.04836C19.2902 6.43472 18.7909 5.93542 18.1772 5.93542H14.4675C13.8539 5.93542 13.3546 6.43468 13.3546 7.04836V10.0648L13.1601 10.1945C12.9907 10.0676 12.807 9.96054 12.6125 9.87584L12.6129 6.4805ZM8.5322 10.3871H8.6859L9.0119 10.0611C9.27999 9.79297 9.63664 9.64521 10.0161 9.64521C10.3955 9.64521 10.7521 9.79298 11.0202 10.0612L11.3462 10.3872L11.4999 10.3871C12.2737 10.3871 12.9695 10.817 13.3156 11.5093L13.4965 11.8709H13.7258C14.2984 11.8709 14.8297 12.1554 15.1474 12.6317L15.2721 12.8186L15.8894 12.407L15.7647 12.2201C15.3529 11.6025 14.6905 11.2097 13.9603 11.1401C13.8843 10.9933 13.7962 10.8556 13.6983 10.7274L13.7813 10.6723C14.0612 10.4857 14.3871 10.387 14.7235 10.387C15.1772 10.387 15.6038 10.5638 15.9245 10.8845L16.1688 11.1288H16.7571C17.3347 11.1288 17.8776 11.3538 18.2859 11.7621L18.3946 11.8707L18.5483 11.8708C19.2272 11.8708 19.836 12.2402 20.1511 12.8274C19.8701 12.8755 19.5532 12.9235 19.1941 12.9703C17.2925 13.2182 14.8237 13.3547 12.242 13.3547C9.66023 13.3547 7.19102 13.2182 5.28982 12.9703C4.9582 12.9271 4.66204 12.8829 4.39734 12.8384C4.83775 12.239 5.54479 11.8708 6.3065 11.8708H6.53576L6.71673 11.5091C7.06279 10.8169 7.75859 10.387 8.53238 10.387L8.5322 10.3871ZM3.48165 11.8247C3.82129 11.7461 4.21662 11.6721 4.65764 11.6036C4.23071 11.8708 3.86846 12.2404 3.61082 12.6877C2.76244 12.5006 2.41748 12.3291 2.28593 12.2409C2.40915 12.157 2.72166 12.0006 3.48165 11.8247V11.8247ZM0.805431 22.258C0.958488 21.8261 1.37111 21.516 1.85485 21.516H2.12229L2.20684 21.2624C2.39872 20.6866 2.86493 20.2549 3.45389 20.1076L3.96519 19.9797L4.28574 19.3386C4.52928 18.8512 5.0194 18.5485 5.56442 18.5485C6.10944 18.5485 6.59938 18.8512 6.84326 19.3388L7.16381 19.9799L7.67511 20.1077C8.26407 20.255 8.73027 20.6868 8.92216 21.2625L9.00671 21.5162H9.27399C9.75769 21.5162 10.1702 21.8263 10.3234 22.2582L0.805431 22.258ZM15.6733 22.258H11.0918C10.9363 21.4958 10.3122 20.902 9.53442 20.7924C9.22141 20.0933 8.60904 19.5764 7.85497 19.388L7.67464 19.3429L7.50667 19.0071C7.13671 18.2666 6.39244 17.8065 5.56461 17.8065C4.73677 17.8065 3.99252 18.2664 3.62222 19.007L3.45424 19.3428L3.35846 19.3667C2.61676 18.2754 2.22596 17.004 2.22596 15.6735V14.5309C2.33666 14.5788 2.44849 14.6197 2.55261 14.6549C3.0973 14.8389 3.86849 15.0029 4.84488 15.1423C6.82338 15.4251 9.45063 15.5807 12.2423 15.5807C15.0337 15.5807 17.6608 15.4251 19.6396 15.1424C20.616 15.003 21.3873 14.8389 21.9319 14.655C22.036 14.6199 22.1477 14.579 22.2586 14.531L22.2584 15.6735C22.2584 19.3042 19.3046 22.258 15.6738 22.258L15.6733 22.258Z" fill="#0A9386"/>
</svg>
