<svg width="20" height="22" viewBox="0 0 20 22" fill="none" xmlns="http://www.w3.org/2000/svg">
<g clip-path="url(#clip0_471_1505)">
<path d="M10.0044 6.05854C7.16506 6.05854 4.87489 8.26284 4.87489 10.9957C4.87489 13.7285 7.16506 15.9328 10.0044 15.9328C12.8436 15.9328 15.1338 13.7285 15.1338 10.9957C15.1338 8.26284 12.8436 6.05854 10.0044 6.05854ZM10.0044 14.2054C8.16953 14.2054 6.66953 12.766 6.66953 10.9957C6.66953 9.22534 8.16506 7.78589 10.0044 7.78589C11.8436 7.78589 13.3392 9.22534 13.3392 10.9957C13.3392 12.766 11.8392 14.2054 10.0044 14.2054ZM16.5401 5.85659C16.5401 6.49683 16.0044 7.00815 15.3436 7.00815C14.6785 7.00815 14.1472 6.49253 14.1472 5.85659C14.1472 5.22065 14.6829 4.70503 15.3436 4.70503C16.0044 4.70503 16.5401 5.22065 16.5401 5.85659ZM19.9374 7.02534C19.8615 5.48276 19.4954 4.11636 18.3213 2.99058C17.1517 1.86479 15.732 1.51245 14.1294 1.43511C12.4776 1.34487 7.52667 1.34487 5.87489 1.43511C4.27667 1.50815 2.85703 1.8605 1.68292 2.98628C0.508813 4.11206 0.147206 5.47847 0.0668488 7.02104C-0.0269012 8.61089 -0.0269012 13.3761 0.0668488 14.966C0.142742 16.5085 0.508813 17.875 1.68292 19.0007C2.85703 20.1265 4.27221 20.4789 5.87489 20.5562C7.52667 20.6464 12.4776 20.6464 14.1294 20.5562C15.732 20.4832 17.1517 20.1308 18.3213 19.0007C19.491 17.875 19.857 16.5085 19.9374 14.966C20.0311 13.3761 20.0311 8.61519 19.9374 7.02534ZM17.8035 16.6718C17.4552 17.514 16.7811 18.1628 15.9017 18.5023C14.5847 19.005 11.4597 18.889 10.0044 18.889C8.54899 18.889 5.41953 19.0007 4.10703 18.5023C3.23203 18.1671 2.55792 17.5183 2.20524 16.6718C1.68292 15.4042 1.80346 12.3964 1.80346 10.9957C1.80346 9.59487 1.68738 6.58276 2.20524 5.31948C2.55346 4.47729 3.22756 3.82847 4.10703 3.48901C5.42399 2.98628 8.54899 3.10229 10.0044 3.10229C11.4597 3.10229 14.5892 2.99058 15.9017 3.48901C16.7767 3.82417 17.4508 4.473 17.8035 5.31948C18.3258 6.58706 18.2052 9.59487 18.2052 10.9957C18.2052 12.3964 18.3258 15.4085 17.8035 16.6718Z" fill="#FAD7B1"/>
</g>
<defs>
<clipPath id="clip0_471_1505">
<rect width="20" height="22" fill="white"/>
</clipPath>
</defs>
</svg>
