<svg width="26" height="28" viewBox="0 0 26 28" fill="none" xmlns="http://www.w3.org/2000/svg">
<g clip-path="url(#clip0_2669_7360)">
<path d="M13.0056 7.71099C9.31457 7.71099 6.33734 10.5165 6.33734 13.9946C6.33734 17.4727 9.31457 20.2782 13.0056 20.2782C16.6967 20.2782 19.6739 17.4727 19.6739 13.9946C19.6739 10.5165 16.6967 7.71099 13.0056 7.71099ZM13.0056 18.0797C10.6204 18.0797 8.67037 16.2477 8.67037 13.9946C8.67037 11.7415 10.6146 9.90942 13.0056 9.90942C15.3967 9.90942 17.3409 11.7415 17.3409 13.9946C17.3409 16.2477 15.3909 18.0797 13.0056 18.0797ZM21.5021 7.45395C21.5021 8.2688 20.8056 8.91958 19.9467 8.91958C19.082 8.91958 18.3914 8.26333 18.3914 7.45395C18.3914 6.64458 19.0878 5.98833 19.9467 5.98833C20.8056 5.98833 21.5021 6.64458 21.5021 7.45395ZM25.9186 8.94145C25.8199 6.97817 25.344 5.23911 23.8177 3.8063C22.2972 2.37349 20.4516 1.92505 18.3681 1.82661C16.2208 1.71177 9.78466 1.71177 7.63734 1.82661C5.55966 1.91958 3.71412 2.36802 2.18778 3.80083C0.661443 5.23364 0.191354 6.9727 0.0868897 8.93599C-0.0349854 10.9594 -0.0349854 17.0243 0.0868897 19.0477C0.18555 21.011 0.661443 22.75 2.18778 24.1829C3.71412 25.6157 5.55385 26.0641 7.63734 26.1625C9.78466 26.2774 16.2208 26.2774 18.3681 26.1625C20.4516 26.0696 22.2972 25.6211 23.8177 24.1829C25.3382 22.75 25.8141 21.011 25.9186 19.0477C26.0405 17.0243 26.0405 10.9649 25.9186 8.94145ZM23.1445 21.2188C22.6918 22.2907 21.8155 23.1165 20.6722 23.5485C18.9601 24.1883 14.8976 24.0407 13.0056 24.0407C11.1137 24.0407 7.04537 24.1829 5.33912 23.5485C4.20162 23.1219 3.32528 22.2961 2.8668 21.2188C2.18778 19.6055 2.34448 15.7774 2.34448 13.9946C2.34448 12.2118 2.19359 8.37817 2.8668 6.77036C3.31948 5.69849 4.19582 4.8727 5.33912 4.44067C7.05118 3.80083 11.1137 3.94849 13.0056 3.94849C14.8976 3.94849 18.9659 3.8063 20.6722 4.44067C21.8097 4.86724 22.686 5.69302 23.1445 6.77036C23.8235 8.38364 23.6668 12.2118 23.6668 13.9946C23.6668 15.7774 23.8235 19.611 23.1445 21.2188Z" fill="#4A4A4A"/>
</g>
<defs>
<clipPath id="clip0_2669_7360">
<rect width="26" height="28" fill="white"/>
</clipPath>
</defs>
</svg>
