<svg width="25" height="25" viewBox="0 0 25 25" fill="none" xmlns="http://www.w3.org/2000/svg">
<path d="M24.3425 0.942001C24.3016 0.801083 24.1917 0.691123 24.051 0.650632C22.5576 0.21874 21.0397 0 19.5397 0C17.3258 0 15.223 0.484887 13.3591 1.3945C8.30196 0.958246 3.98154 5.81961 3.11245 10.6863C3.08666 10.8314 3.13726 10.9796 3.24678 11.0785C4.7932 12.473 5.70292 14.584 6.09261 15.6615C3.67396 15.233 1.52791 15.7663 0.125343 17.167C0.0332795 17.2591 -0.0119575 17.3883 0.00272188 17.5181C0.0178016 17.6475 0.0912149 17.7631 0.20193 17.8319C0.233875 17.8516 3.41246 19.8274 4.29221 20.7069C5.17196 21.5887 7.14601 24.7664 7.16623 24.7983C7.23468 24.9091 7.35036 24.9821 7.47972 24.9972C7.49619 24.9992 7.51246 25 7.52893 25C7.64163 25 7.74996 24.9555 7.83072 24.8754C9.25432 23.4518 9.77637 21.2591 9.30892 18.7918C10.0424 18.8948 10.7766 18.9478 11.5068 18.9478C12.8556 18.9478 14.1635 18.7666 15.4014 18.421C15.7453 19.8431 16.6407 20.7802 17.6878 20.7802C19.0517 20.7802 20.1203 19.1979 20.1203 17.1779C20.1201 16.8078 20.0816 16.4462 20.0096 16.099C20.4053 15.788 20.785 15.4558 21.1431 15.0971C24.6838 11.5554 25.8796 6.26392 24.3425 0.942001ZM6.0511 13.4399C5.55725 12.4962 4.88167 11.4601 3.99512 10.6098C4.77587 6.76842 7.97766 2.86067 11.8001 2.29209C11.1217 2.7488 10.485 3.26802 9.90229 3.85138C7.3852 6.36788 6.05963 9.77088 6.0511 13.4399ZM7.58604 23.8643C6.98129 22.9129 5.63266 20.8428 4.89574 20.1041C4.15882 19.3671 2.08801 18.0178 1.13659 17.4123C2.4203 16.4183 4.28266 16.1229 6.36277 16.5888C6.45642 17.06 6.56356 17.5319 6.70007 18.0051C6.74095 18.146 6.85087 18.256 6.99154 18.2967C7.46178 18.4327 7.93478 18.5448 8.40859 18.6385C8.87546 20.7201 8.57988 22.5818 7.58604 23.8643ZM17.6874 19.9268C17.0563 19.9268 16.4555 19.1966 16.2188 18.1673C17.2932 17.7938 18.3057 17.288 19.237 16.662C19.2559 16.8311 19.2664 17.0034 19.2666 17.1783C19.2666 18.6681 18.5436 19.9268 17.6874 19.9268ZM11.5063 18.0941C10.1613 18.0939 8.79976 17.9079 7.45631 17.5409C6.10631 12.5994 7.23845 7.72224 10.5063 4.45511C12.827 2.1327 16.0352 0.853692 19.5395 0.853692C20.8838 0.853692 22.2441 1.03947 23.5866 1.40646C24.9378 6.3474 23.8068 11.2251 20.5395 14.4933C18.2185 16.8155 15.0106 18.0941 11.5063 18.0941ZM19.5719 3.19129C19.0727 3.19109 18.6679 3.59639 18.6677 4.09578C18.6697 4.59455 19.0736 4.99945 19.5728 4.99985C20.0712 4.99926 20.476 4.59436 20.476 4.09578C20.476 3.5966 20.0711 3.19231 19.5719 3.19129ZM19.7891 9.88917C18.6353 9.55731 17.6395 8.97773 16.8298 8.16679C16.0189 7.35559 15.4395 6.35904 15.1076 5.20528C15.0425 4.97882 14.8052 4.84762 14.5796 4.91332C14.3532 4.97841 14.2222 5.215 14.2877 5.44149C14.6603 6.7358 15.3125 7.85582 16.2262 8.77041C17.1399 9.6846 18.2591 10.337 19.5536 10.7094C19.5929 10.7207 19.6324 10.7262 19.6716 10.7262C19.8568 10.7262 20.0278 10.6044 20.0812 10.4172C20.1467 10.1907 20.0157 9.95429 19.7891 9.88917ZM17.0522 11.632C16.1434 11.3706 15.3591 10.9143 14.7212 10.2758C14.0831 9.63735 13.627 8.85293 13.3653 7.94312C13.3002 7.71626 13.0629 7.58565 12.8373 7.65115C12.6109 7.71625 12.4799 7.95284 12.5454 8.17933C12.8478 9.22928 13.3765 10.1377 14.1178 10.8793C14.8591 11.6208 15.7671 12.1499 16.8161 12.452C16.8555 12.4633 16.8952 12.4689 16.9343 12.4689C17.1194 12.4689 17.2901 12.347 17.3438 12.1598C17.4093 11.9336 17.2786 11.6971 17.0522 11.632ZM14.3149 13.3747C13.6504 13.1838 13.0778 12.8509 12.6127 12.3849C12.1468 11.9189 11.8137 11.3457 11.6228 10.6816C11.5577 10.4547 11.3204 10.3241 11.0948 10.3896C10.8684 10.4547 10.7374 10.6913 10.8029 10.9178C11.0343 11.7222 11.4404 12.4191 12.0093 12.9881C12.5776 13.5575 13.2741 13.9638 14.0795 14.1951C14.119 14.2062 14.1583 14.2119 14.1976 14.2119C14.3827 14.2119 14.5537 14.0899 14.6071 13.9029C14.6724 13.6764 14.5413 13.4402 14.3149 13.3747ZM11.5779 15.1175C11.1583 14.9969 10.7974 14.7873 10.5045 14.4939C10.2119 14.2012 10.0015 13.8396 9.88072 13.4196C9.81564 13.1931 9.57834 13.0621 9.35256 13.128C9.12618 13.1931 8.99562 13.4299 9.06109 13.6562C9.2226 14.2171 9.50574 14.7022 9.90158 15.0977C10.298 15.4947 10.7828 15.7775 11.3429 15.9383C11.3821 15.9496 11.4216 15.9553 11.4609 15.9553C11.646 15.9553 11.8171 15.8333 11.8704 15.6463C11.9355 15.4193 11.8047 15.1828 11.5779 15.1175Z" fill="#0A9386"/>
</svg>
