<svg width="26" height="24" viewBox="0 0 26 24" fill="none" xmlns="http://www.w3.org/2000/svg">
<path d="M25.9989 12.2016C25.9716 11.0191 25.1778 10.194 23.7273 9.78136C23.0157 9.58875 22.3315 9.53388 21.9483 9.50626C21.921 8.90121 21.8935 8.26871 21.8389 7.60856C21.8662 7.38852 21.9758 5.95833 22.1127 5.13346C22.2221 5.18852 22.3317 5.21596 22.4411 5.21596H22.5232C22.8516 5.13346 23.4812 4.47335 23.5358 3.97841C23.5631 3.7858 23.481 3.59339 23.3168 3.48347C23.5906 3.09845 23.8917 2.74086 24.0559 2.686L24.3569 2.54845C24.658 2.57588 25.1233 2.49339 25.397 2.02586C25.5887 1.69589 25.616 1.42081 25.5339 1.17334C25.4245 0.87081 25.1508 0.678403 24.9318 0.568296C24.8495 0.513238 24.7947 0.485613 24.7674 0.45818C24.3021 0.155646 23.9463 0.100592 23.3989 0.59573C23.2072 0.293196 22.8516 0.0731395 22.4136 0.0180861C22.0031 -0.0369722 21.4556 0.018086 21.2093 0.403106C20.9082 0.843185 21.0724 1.5582 21.1272 1.86072L21.0999 1.99827H21.0726C20.9357 1.99827 20.7988 2.08076 20.7442 2.21831L20.5252 2.76831C20.3063 2.82337 20.06 2.90586 19.9779 3.12589C19.9231 3.23582 19.9231 3.34594 19.9779 3.45586C19.9229 3.48329 19.8408 3.48329 19.786 3.51092C19.1839 3.64847 18.2807 3.86851 17.487 3.86851C17.2953 3.86851 17.0218 3.84107 16.7207 3.81345C14.9142 3.59341 11.6299 3.26345 8.61926 6.59112C8.2634 6.70104 7.9077 6.83859 7.55184 6.97614C7.52454 6.97614 7.52454 7.00357 7.49705 7.00357C7.44226 7.031 5.90961 7.96624 4.6507 9.39621C3.47391 10.6888 2.65277 11.8164 2.26959 12.669C2.1875 12.834 2.1602 13.0266 2.1054 13.2741C1.58533 13.769 -0.658884 16.1068 0.189576 17.3169C0.873817 18.307 2.18751 18.5544 2.62548 18.5821C2.62548 18.6095 2.65278 18.6371 2.65278 18.6646C2.73487 18.9671 2.84446 19.2971 2.92655 19.5996C3.30972 20.9747 5.19823 21.6072 6.40255 21.4973C7.14158 21.7998 7.55207 22.1298 7.49723 22.4323C7.44244 22.7349 7.49724 23.01 7.66142 23.2298C8.07189 23.7524 9.02991 23.8348 10.1246 23.8899C10.3709 23.9173 10.6447 23.9173 10.9182 23.9449C11.2193 23.9724 11.5477 24 11.9035 24C14.4215 24 18.0617 23.285 19.2386 21.9924C19.6766 21.5249 19.6766 21.0574 19.6218 20.7548C19.567 20.5074 19.4849 20.3148 19.4028 20.1498C19.7859 19.9572 20.4429 19.4622 21.1817 18.3623C21.1817 18.3348 21.209 18.3348 21.209 18.3072C21.6195 18.0597 22.0574 17.7846 22.5227 17.4821C25.4517 15.3644 26.0264 13.4393 25.9991 12.2017L25.9989 12.2016ZM24.3842 1.03572C24.439 1.06315 24.4936 1.11821 24.5484 1.14565C24.7674 1.2832 24.8221 1.36569 24.8221 1.39312C24.8494 1.47561 24.7948 1.61316 24.7401 1.66822C24.6032 1.88826 24.3569 1.86083 24.3296 1.8332C24.2475 1.80577 24.1654 1.8332 24.0833 1.86064L23.7001 2.05325C23.3443 2.21823 22.9065 2.79585 22.66 3.15323C22.4684 3.04331 22.2769 2.93319 22.0852 2.79565C22.441 2.52055 22.9884 2.08064 23.5085 1.44799C24.0556 0.815688 24.1104 0.870741 24.3842 1.03573V1.03572ZM21.7841 0.760811C21.8114 0.733378 22.0304 0.650886 22.3315 0.705753C22.4409 0.733186 22.7694 0.815678 22.8515 1.09077C22.8515 1.11821 22.8788 1.14583 22.8788 1.17327C22.4409 1.69586 21.9756 2.05343 21.702 2.27325L21.8114 1.94329C21.8387 1.88823 21.8387 1.80574 21.8114 1.75068C21.7293 1.44834 21.6745 0.953214 21.7841 0.760797L21.7841 0.760811ZM20.7988 3.37347C20.9357 3.37347 21.0451 3.29098 21.0726 3.15343L21.1274 3.01588C21.1547 3.01588 21.1822 3.04331 21.2095 3.04331H21.2368C21.7568 3.48339 22.5231 3.86842 22.7969 4.00598C22.7421 4.17097 22.4959 4.44606 22.359 4.55598C22.0577 4.39099 21.2093 3.75851 20.7988 3.37348L20.7988 3.37347ZM16.6386 4.44605C16.9669 4.47348 17.2407 4.50111 17.4597 4.50111C18.3356 4.50111 19.2935 4.28107 19.9229 4.11609C20.1146 4.06103 20.3608 4.00616 20.4702 4.00616H20.525C20.6892 4.14371 20.8809 4.3087 21.0724 4.44624C20.2787 4.63866 19.2934 5.1336 18.9103 5.6836C18.6913 6.04118 18.0891 6.3437 17.7059 6.50871C17.3228 6.15112 16.9396 5.84861 16.6933 5.7937C16.6112 5.76627 16.5291 5.73864 16.4195 5.73864C15.3794 5.46354 13.7647 5.05109 10.0698 6.12366C12.5605 4.061 15.0511 4.30847 16.6385 4.44603L16.6386 4.44605ZM19.0471 7.80132C18.9924 7.77388 18.9377 7.74626 18.8555 7.74626C18.6913 7.55365 18.4723 7.30618 18.226 7.0587C18.6365 6.8661 19.184 6.50871 19.4576 6.09603C19.5124 6.01354 19.567 5.95848 19.6493 5.87599C19.4849 6.56374 19.2659 7.3338 19.0471 7.80129V7.80132ZM0.736846 16.932C0.43577 16.4645 1.20211 15.2818 2.02322 14.3468C1.99592 15.5019 2.13262 16.6846 2.40639 17.8671C1.96843 17.7848 1.1746 17.5371 0.736836 16.932H0.736846ZM18.8556 19.6548C18.1713 19.1873 17.2681 19.1873 16.8576 19.1873C16.3924 19.1873 14.449 19.5723 11.11 20.3424C10.9183 20.3974 10.8089 20.5624 10.8637 20.7548C10.9185 20.9474 11.0827 21.0574 11.2742 21.0023C14.4216 20.2873 16.4744 19.8472 16.885 19.8472C18.1713 19.8472 18.7735 20.1497 18.9377 20.8923C18.9925 21.1124 18.9104 21.3048 18.7187 21.5248C17.5965 22.79 13.2174 23.4776 10.9731 23.2575C10.6993 23.2301 10.4257 23.2025 10.1795 23.2025C9.35833 23.1474 8.42781 23.0649 8.20885 22.79C8.18155 22.7626 8.15406 22.6801 8.18155 22.5425C8.26364 22.0476 8.07215 21.36 6.59411 20.7824C6.48452 20.8098 6.42992 20.8098 6.37513 20.8098C5.33503 20.9474 3.80233 20.3423 3.55605 19.4347C3.47396 19.1596 3.39186 18.8297 3.28228 18.4721C2.84432 17.0419 2.65283 15.6393 2.70742 14.2368C2.73472 13.4394 2.81681 13.1092 2.8991 12.9442C3.14538 12.3942 3.74751 11.4316 5.14351 9.83643C6.26571 8.59888 7.60668 7.71871 7.82569 7.58115C8.18155 7.4436 8.53725 7.33368 8.83831 7.22356C8.89311 7.22356 8.92041 7.19613 8.9752 7.16851C13.4365 5.68349 15.1607 6.12337 16.2555 6.39845C16.3649 6.42588 16.4472 6.4535 16.5293 6.48094C16.6935 6.50837 17.1314 6.89339 17.6515 7.41596C15.9546 7.08599 13.765 7.03094 13.026 7.19592C10.7543 7.74591 8.89322 8.84615 8.83843 8.901C8.67424 9.01093 8.61945 9.20354 8.72904 9.36852C8.78383 9.47844 8.89322 9.5335 9.03011 9.5335C9.0849 9.5335 9.13951 9.50607 9.1943 9.47844C9.2216 9.47844 11.0281 8.37845 13.1904 7.85586C13.984 7.66325 16.94 7.82843 18.5001 8.29594C18.5549 8.32337 18.5822 8.351 18.637 8.351C17.8158 9.28603 15.5989 11.6238 15.4347 11.7888C15.2978 11.9263 13.9293 13.2464 14.1483 15.1991C14.3673 17.2343 16.338 18.7744 17.3779 19.0769C17.6516 19.1594 17.9527 19.1869 18.2538 19.1869C18.7463 19.1869 19.2664 19.0769 19.814 18.8843C19.2935 19.4624 18.9376 19.6273 18.8556 19.6548L18.8556 19.6548ZM22.0853 16.9046C20.1695 18.2522 18.6641 18.7746 17.5419 18.4447C16.7207 18.1972 14.9966 16.8221 14.8049 15.1444C14.6407 13.4942 15.8723 12.3117 15.8723 12.3117L15.8996 12.2843C16.009 12.1467 18.8283 9.20409 19.3481 8.54399C19.8682 7.88389 20.3335 5.87628 20.4428 5.38134C20.7712 5.24379 21.0998 5.13387 21.4009 5.07881C21.2367 5.98638 21.1271 7.5265 21.1271 7.58155V7.63661C21.4555 11.0744 20.9902 14.0446 20.9902 14.0721C20.9629 14.2647 21.0996 14.4297 21.264 14.4571H21.3188C21.483 14.4571 21.6199 14.3472 21.6472 14.1546C21.6745 14.0721 21.9209 12.4219 21.8934 10.1668C22.2493 10.1668 22.8515 10.2219 23.4809 10.4143C24.6304 10.7443 25.2325 11.3493 25.2598 12.2019C25.3696 13.7694 24.2474 15.392 22.0853 16.9046L22.0853 16.9046Z" fill="#0A9386"/>
</svg>
