<svg width="26" height="34" viewBox="0 0 26 34" fill="none" xmlns="http://www.w3.org/2000/svg">
<g filter="url(#filter0_d_2703_8317)">
<path fill-rule="evenodd" clip-rule="evenodd" d="M8.5 0.79998C7.78339 0.79998 7.1699 1.03241 6.91975 1.56899C6.66964 2.1056 6.89987 2.72917 7.38723 3.25832C8.01785 3.94257 8.6569 4.62539 9.12397 5.23328C9.59105 5.84116 9.84999 6.38739 9.84999 6.64998C9.84999 8.35576 9.45262 10.0382 8.68981 11.564L7.95516 13.0336C7.12988 14.6841 6.7002 16.5046 6.7002 18.3497V19.9607C5.82673 20.1278 4.99159 20.7181 4.48095 21.6024C3.63397 23.0693 3.91585 24.9133 5.24477 25.6805C6.1046 26.1769 7.13436 26.0654 7.98437 25.5292C8.39198 25.8239 8.8731 25.9995 9.40025 25.9995H17.9502C19.6846 25.9995 21.1002 24.5838 21.1002 22.8495V18.3495C21.1002 17.3824 20.9789 16.423 20.7479 15.4904C21.5264 14.555 22.0003 13.3583 22.0003 12.0495C22.0003 9.54135 20.2778 7.43201 17.9555 6.82849C17.9545 6.76863 17.9503 4.39932 17.9503 4.39932C17.9503 3.01738 16.7244 1.98721 15.3391 1.70816C13.4423 1.32606 10.5669 0.799316 8.50065 0.799316L8.5 0.79998ZM8.5 1.69998C10.4099 1.69998 13.282 2.21266 15.1615 2.59113C16.2271 2.80569 17.0504 3.57532 17.0504 4.39998V6.64998C17.0504 8.15365 17.3402 9.63927 17.8923 11.0312C17.1329 10.8454 16.3844 10.884 15.659 11.0752C14.8554 11.298 14.3043 11.6006 13.9011 11.6C13.0803 11.5989 12.6072 11.3022 11.8928 11.0779C11.3695 10.9135 10.739 10.8105 9.90997 11.0268C10.461 9.63604 10.7503 8.15207 10.7503 6.64979C10.7503 5.96697 10.3473 5.34762 9.83807 4.68445C9.32881 4.02148 8.6763 3.32822 8.04954 2.64798C7.69536 2.26367 7.69536 2.03608 7.73574 1.94927C7.77612 1.86248 7.9744 1.69956 8.50033 1.69956L8.5 1.69998ZM18.0112 7.77884C19.8068 8.36944 21.0997 10.0535 21.0997 12.0504C21.0997 12.9195 20.8504 13.7265 20.4256 14.413C20.2606 13.9429 20.0686 13.4819 19.8446 13.0341L19.1099 11.5645C18.5161 10.3771 18.1472 9.09376 18.0113 7.77915L18.0112 7.77884ZM11.6233 11.9369C12.2087 12.1208 12.8604 12.4991 13.8988 12.5002C14.6527 12.5012 15.2267 12.1284 15.8983 11.9421C16.5387 11.7645 17.2908 11.7206 18.3943 12.146L19.0394 13.4364C19.8022 14.962 20.1996 16.6447 20.1996 18.3504V21.0504C20.1996 22.2984 19.1976 23.3004 17.9496 23.3004H12.0692C12.0875 23.1526 12.1 23.0031 12.1 22.8504C12.1 21.1565 10.9344 19.7004 9.39998 19.7004C8.92527 19.7004 8.48713 19.8421 8.10702 20.0853C7.94168 20.0174 7.77213 19.9692 7.59996 19.9403V18.3504C7.59996 16.6447 7.99733 14.9622 8.76014 13.4364L9.40701 12.1426C10.2299 11.7845 10.8995 11.7174 11.6237 11.9369L11.6233 11.9369ZM9.39959 20.6001C10.3504 20.6001 11.1996 21.5615 11.1996 22.8501C11.1996 24.0514 10.4599 24.9576 9.58941 25.0764C9.30254 25.042 9.03352 24.9572 8.79145 24.8251C8.92604 24.6647 9.04879 24.4906 9.15707 24.303C9.86622 23.0747 9.78126 21.5845 8.95578 20.681C9.09982 20.6338 9.24707 20.6001 9.39955 20.6001L9.39959 20.6001ZM7.94411 21.0045C8.76758 21.4798 9.02251 22.7372 8.37824 23.853C7.73399 24.9689 6.51755 25.3769 5.69413 24.9014C4.87066 24.4261 4.61572 23.1688 5.26 22.053C5.9798 20.9275 7.06262 20.5127 7.94411 21.0045ZM20.1553 23.2931C19.9512 24.327 19.0456 25.1001 17.9493 25.1001H11.2877C11.5137 24.8405 11.6988 24.5356 11.8353 24.2001H17.9492C18.807 24.2001 19.586 23.853 20.1552 23.2931H20.1553Z" fill="#0A9386"/>
</g>
<defs>
<filter id="filter0_d_2703_8317" x="-7.24792e-05" y="0.799316" width="26.0003" height="33.2002" filterUnits="userSpaceOnUse" color-interpolation-filters="sRGB">
<feFlood flood-opacity="0" result="BackgroundImageFix"/>
<feColorMatrix in="SourceAlpha" type="matrix" values="0 0 0 0 0 0 0 0 0 0 0 0 0 0 0 0 0 0 127 0" result="hardAlpha"/>
<feOffset dy="4"/>
<feGaussianBlur stdDeviation="2"/>
<feComposite in2="hardAlpha" operator="out"/>
<feColorMatrix type="matrix" values="0 0 0 0 0 0 0 0 0 0 0 0 0 0 0 0 0 0 0.25 0"/>
<feBlend mode="normal" in2="BackgroundImageFix" result="effect1_dropShadow_2703_8317"/>
<feBlend mode="normal" in="SourceGraphic" in2="effect1_dropShadow_2703_8317" result="shape"/>
</filter>
</defs>
</svg>
