<svg width="18" height="26" viewBox="0 0 18 26" fill="none" xmlns="http://www.w3.org/2000/svg">
<path fill-rule="evenodd" clip-rule="evenodd" d="M4.5 0.79998C3.78339 0.79998 3.1699 1.03241 2.91975 1.56899C2.66964 2.1056 2.89987 2.72917 3.38723 3.25832C4.01785 3.94257 4.6569 4.62539 5.12397 5.23328C5.59105 5.84116 5.84999 6.38739 5.84999 6.64998C5.84999 8.35576 5.45262 10.0382 4.68981 11.564L3.95516 13.0336C3.12988 14.6841 2.7002 16.5046 2.7002 18.3497V19.9607C1.82673 20.1278 0.991585 20.7181 0.480951 21.6024C-0.366026 23.0693 -0.0841466 24.9133 1.24477 25.6805C2.1046 26.1769 3.13436 26.0654 3.98437 25.5292C4.39198 25.8239 4.8731 25.9995 5.40025 25.9995H13.9502C15.6846 25.9995 17.1002 24.5838 17.1002 22.8495V18.3495C17.1002 17.3824 16.9789 16.423 16.7479 15.4904C17.5264 14.555 18.0003 13.3583 18.0003 12.0495C18.0003 9.54135 16.2778 7.43201 13.9555 6.82849C13.9545 6.76863 13.9503 4.39932 13.9503 4.39932C13.9503 3.01738 12.7244 1.98721 11.3391 1.70816C9.44227 1.32606 6.5669 0.799316 4.50065 0.799316L4.5 0.79998ZM4.5 1.69998C6.4099 1.69998 9.28203 2.21266 11.1615 2.59113C12.2271 2.80569 13.0504 3.57532 13.0504 4.39998V6.64998C13.0504 8.15365 13.3402 9.63927 13.8923 11.0312C13.1329 10.8454 12.3844 10.884 11.659 11.0752C10.8554 11.298 10.3043 11.6006 9.90113 11.6C9.08028 11.5989 8.60719 11.3022 7.8928 11.0779C7.36946 10.9135 6.73905 10.8105 5.90997 11.0268C6.46102 9.63604 6.75031 8.15207 6.75031 6.64979C6.75031 5.96697 6.34732 5.34762 5.83807 4.68445C5.32881 4.02148 4.6763 3.32822 4.04954 2.64798C3.69536 2.26367 3.69536 2.03608 3.73574 1.94927C3.77612 1.86248 3.9744 1.69956 4.50033 1.69956L4.5 1.69998ZM14.0112 7.77884C15.8068 8.36944 17.0997 10.0535 17.0997 12.0504C17.0997 12.9195 16.8504 13.7265 16.4256 14.413C16.2606 13.9429 16.0686 13.4819 15.8446 13.0341L15.1099 11.5645C14.5161 10.3771 14.1472 9.09376 14.0113 7.77915L14.0112 7.77884ZM7.62326 11.9369C8.20867 12.1208 8.86037 12.4991 9.89877 12.5002C10.6527 12.5012 11.2267 12.1284 11.8983 11.9421C12.5387 11.7645 13.2908 11.7206 14.3943 12.146L15.0394 13.4364C15.8022 14.962 16.1996 16.6447 16.1996 18.3504V21.0504C16.1996 22.2984 15.1976 23.3004 13.9496 23.3004H8.06925C8.08753 23.1526 8.09998 23.0031 8.09998 22.8504C8.09998 21.1565 6.93441 19.7004 5.39998 19.7004C4.92527 19.7004 4.48713 19.8421 4.10702 20.0853C3.94168 20.0174 3.77213 19.9692 3.59996 19.9403V18.3504C3.59996 16.6447 3.99733 14.9622 4.76014 13.4364L5.40701 12.1426C6.22987 11.7845 6.89947 11.7174 7.62368 11.9369L7.62326 11.9369ZM5.39959 20.6001C6.3504 20.6001 7.19959 21.5615 7.19959 22.8501C7.19959 24.0514 6.45989 24.9576 5.58941 25.0764C5.30254 25.042 5.03352 24.9572 4.79145 24.8251C4.92604 24.6647 5.04879 24.4906 5.15707 24.303C5.86622 23.0747 5.78126 21.5845 4.95578 20.681C5.09982 20.6338 5.24707 20.6001 5.39955 20.6001L5.39959 20.6001ZM3.94411 21.0045C4.76758 21.4798 5.02251 22.7372 4.37824 23.853C3.73399 24.9689 2.51755 25.3769 1.69413 24.9014C0.870656 24.4261 0.615724 23.1688 1.26 22.053C1.9798 20.9275 3.06262 20.5127 3.94411 21.0045ZM16.1553 23.2931C15.9512 24.327 15.0456 25.1001 13.9493 25.1001H7.28774C7.51374 24.8405 7.69877 24.5356 7.83535 24.2001H13.9492C14.807 24.2001 15.586 23.853 16.1552 23.2931H16.1553Z" fill="#0A9386"/>
</svg>
