<svg width="26" height="27" viewBox="0 0 26 27" fill="none" xmlns="http://www.w3.org/2000/svg">
<path d="M23.3985 16.4147C23.961 16.1162 24.4157 15.741 24.7474 15.2798C25.5837 14.1162 25.3296 12.8812 25.319 12.8292C25.2655 12.5814 25.0509 12.4046 24.7889 12.413C22.2714 12.4793 21.1471 13.7421 20.6416 14.8686C20.5761 14.2532 20.5692 13.5746 20.7023 12.9306C20.7614 12.6447 20.5778 12.3653 20.2917 12.3069C20.013 12.2485 19.7272 12.4309 19.6681 12.7174C19.464 13.7064 19.5323 14.7365 19.6703 15.575C18.846 15.682 18.0785 15.9686 17.4062 16.3951V7.04192C17.4062 6.71315 17.4062 5.73814 13.9314 5.12283V3.86839C14.1821 3.82763 14.3777 3.61918 14.3777 3.3567V1.00886C14.3777 0.717407 14.1413 0.480957 13.8498 0.480957H3.56579C3.27434 0.480957 3.03789 0.717407 3.03789 1.00886V3.3567C3.03789 3.61868 3.23285 3.8269 3.48354 3.8679V5.12234C0.00923229 5.73766 0.00923157 6.71194 0.00923157 7.04143V22.019C0.00923157 24.1852 4.38541 25.3188 8.7074 25.3188C11.5144 25.3188 14.0432 24.855 15.6443 24.07C16.6333 25.6576 18.3899 26.7198 20.3942 26.7198C23.4813 26.7198 25.9924 24.2087 25.9924 21.1209C25.9919 19.1993 24.9788 17.4315 23.3985 16.4149L23.3985 16.4147ZM24.3045 13.5037C24.2841 13.8185 24.1891 14.2541 23.8792 14.6779C23.4004 15.3325 22.5521 15.7754 21.3519 15.9986C21.525 15.1539 22.1411 13.7495 24.3045 13.5037L24.3045 13.5037ZM4.09339 1.53632H13.3215V2.82809H4.09339V1.53632ZM15.172 23.1246C13.7301 23.83 11.3232 24.2622 8.70648 24.2622C4.04103 24.2622 1.06494 22.9331 1.06494 22.0185L1.05855 7.07799C1.12607 6.93435 1.82585 6.44722 4.05678 6.09729H9.79934C10.0908 6.09729 10.3272 5.86084 10.3272 5.56939C10.3272 5.27794 10.0908 5.04149 9.79934 5.04149H4.53826V3.88505H12.875V5.57037C12.875 5.83089 13.065 6.05261 13.3221 6.09214C15.584 6.44276 16.2882 6.93411 16.3501 7.04185V9.06164C16.3501 9.97602 13.373 11.3053 8.70728 11.3053C6.50382 11.3053 4.3883 10.9942 2.9028 10.4521C2.74148 10.3929 2.56126 10.4163 2.4191 10.5154C2.27767 10.6146 2.1937 10.776 2.1937 10.9483V18.5415C2.1937 18.7632 2.33242 18.9618 2.54088 19.0377C4.1614 19.6289 6.35084 19.955 8.70729 19.955C11.1362 19.955 13.5817 19.5973 15.2589 18.899C14.9625 19.5811 14.7963 20.3324 14.7963 21.1223C14.7956 21.8275 14.9328 22.5012 15.1722 23.1242L15.172 23.1246ZM8.70648 18.898C6.66903 18.898 4.70694 18.6325 3.24897 18.1638V11.675C4.77376 12.1192 6.67814 12.3608 8.70648 12.3608C11.7408 12.3608 14.7948 11.8005 16.3493 10.7184V16.6545C16.35 17.5687 13.3722 18.898 8.70648 18.898ZM20.3935 25.6639C17.8888 25.6639 15.8513 23.6257 15.8513 21.121C15.8513 18.7872 17.6211 16.8605 19.8886 16.6083C20.0021 17.0412 20.1027 17.3209 20.1145 17.3538C20.1934 17.5671 20.3947 17.6995 20.6103 17.6995C20.6709 17.6995 20.7321 17.6889 20.792 17.6671C21.0292 17.5804 21.1559 17.341 21.1229 17.1011C21.4645 17.0525 21.7918 16.9933 22.0945 16.9152C23.7961 17.6045 24.9366 19.2792 24.9366 21.1218C24.9359 23.626 22.8984 25.6639 20.3935 25.6639L20.3935 25.6639Z" fill="#0A9386"/>
<path d="M22.4374 18.3481C22.2247 18.546 22.2127 18.8789 22.4091 19.0928C22.4605 19.149 23.6624 20.4938 22.828 22.6459C22.7232 22.9178 22.8575 23.2232 23.1293 23.3288C23.1926 23.3533 23.2567 23.3646 23.3201 23.3646C23.532 23.3646 23.7311 23.2364 23.8121 23.0275C24.895 20.2355 23.2496 18.4458 23.1799 18.3704C22.9795 18.1602 22.6492 18.1504 22.4374 18.3481L22.4374 18.3481Z" fill="#0A9386"/>
</svg>
