<svg width="17" height="25" viewBox="0 0 17 25" fill="none" xmlns="http://www.w3.org/2000/svg">
<path d="M8.72 0.157584C8.67412 0.107895 8.61845 0.0682421 8.55649 0.0411215C8.49453 0.0140008 8.42763 0 8.36 0C8.29237 0 8.22547 0.0140008 8.16351 0.0411215C8.10155 0.0682421 8.04588 0.107895 8 0.157584C7.67 0.537584 0 9.48758 0 16.5076C0 18.7354 0.884998 20.872 2.4603 22.4473C4.03561 24.0226 6.17218 24.9076 8.4 24.9076C10.6278 24.9076 12.7644 24.0226 14.3397 22.4473C15.915 20.872 16.8 18.7354 16.8 16.5076C16.8 9.50758 9.09 0.507584 8.8 0.157584H8.72ZM8.39 23.9176C6.41495 23.9149 4.52155 23.1292 3.12498 21.7326C1.7284 20.336 0.942646 18.4426 0.940001 16.4676C0.940001 10.6376 6.86 3.03758 8.39 1.16758C9.92 3.03758 15.84 10.6376 15.84 16.4676C15.8374 18.4426 15.0516 20.336 13.655 21.7326C12.2585 23.1292 10.3651 23.9149 8.39 23.9176Z" fill="#0A9386"/>
</svg>
