<svg width="20" height="25" viewBox="0 0 20 25" fill="none" xmlns="http://www.w3.org/2000/svg">
<path d="M19.0974 23.3998C18.4306 22.5934 18.1243 21.5584 18.2561 20.5583C18.8841 15.9024 18.8376 11.2544 18.1204 6.74179C18.2833 6.65254 18.4228 6.52847 18.5237 6.36579C18.6865 6.10605 18.737 5.79988 18.6671 5.50512L18.105 3.16747C17.9615 2.57057 17.3762 2.20998 16.7753 2.33785C16.1666 2.46972 15.5581 2.58197 14.9493 2.67903C13.608 1.43057 11.631 0 9.65345 0C7.77705 0 5.78841 1.43436 4.41239 2.68262C3.78045 2.58176 3.15251 2.4693 2.52442 2.33363C1.91968 2.20576 1.3342 2.57016 1.19471 3.16325L0.632593 5.50091C0.562755 5.79946 0.613183 6.10564 0.77607 6.36158C0.876927 6.52446 1.0164 6.64853 1.17929 6.73757C0.462104 11.254 0.415692 15.898 1.04361 20.5541C1.17929 21.5542 0.873126 22.5932 0.206153 23.3956C-0.0147647 23.6591 -0.061392 24.0119 0.0820852 24.3183C0.221562 24.6206 0.520119 24.8068 0.857512 24.8068H18.45C18.9306 24.8068 19.3028 24.4308 19.3028 23.9539C19.3028 23.7526 19.233 23.5587 19.0973 23.3999L19.0974 23.3998ZM9.65363 0.581665C11.2819 0.581665 12.9604 1.69806 14.2049 2.78362C11.1966 3.19463 8.17286 3.19844 5.16428 2.79522C6.43195 1.70603 8.11446 0.581642 9.65348 0.581642L9.65363 0.581665ZM1.19858 5.63697L1.76069 3.29932C1.81892 3.05519 2.03584 2.8883 2.28398 2.8883C2.3228 2.8883 2.36542 2.89211 2.40425 2.89991C7.2152 3.93506 12.0918 3.93506 16.9031 2.89991C17.1938 2.83407 17.4768 3.01237 17.5466 3.29532L18.1087 5.63297C18.1435 5.77645 18.1203 5.92373 18.0389 6.0478C17.9614 6.16806 17.845 6.2533 17.7055 6.28432C12.3635 7.44354 6.9442 7.44354 1.60172 6.28432C1.46224 6.25331 1.34578 6.17186 1.26834 6.0478C1.1869 5.92773 1.16368 5.78045 1.1985 5.63698L1.19858 5.63697ZM18.4458 24.2294H0.853818C0.694932 24.2294 0.6289 24.1209 0.605684 24.0743C0.559259 23.9734 0.574667 23.861 0.652108 23.7681C1.42354 22.8376 1.77629 21.6398 1.62122 20.4768C1.00491 15.9061 1.04753 11.3435 1.74149 6.90874C4.36607 7.45923 7.0097 7.73837 9.65353 7.73837C12.2974 7.73837 14.9412 7.45922 17.5656 6.90874C18.2596 11.3437 18.3022 15.9063 17.6858 20.4768C17.5308 21.6398 17.8836 22.8376 18.6512 23.7681C18.6976 23.8264 18.721 23.8884 18.721 23.958C18.721 24.0897 18.624 24.2294 18.4457 24.2294H18.4458Z" fill="#0A9386"/>
<path d="M13.0305 6.21833H13.0577C14.1703 6.11747 15.2985 5.95859 16.4187 5.75308C16.5776 5.72207 16.6822 5.57079 16.6512 5.4159C16.6202 5.25702 16.4689 5.15617 16.3141 5.18338C15.2131 5.38489 14.1005 5.53997 13.0073 5.64082C12.8484 5.65623 12.7281 5.7959 12.7437 5.95879C12.7554 6.10587 12.8832 6.21833 13.0305 6.21833H13.0305Z" fill="#0A9386"/>
<path d="M3.16826 5.80746C4.30807 6.00897 5.5137 6.16024 6.74638 6.25709H6.76959C6.92087 6.25709 7.04874 6.14083 7.06035 5.98955C7.07196 5.83066 6.95189 5.69099 6.7928 5.67558C5.57554 5.57873 4.39312 5.43146 3.26894 5.23355C3.11386 5.20634 2.95877 5.31099 2.93176 5.47008C2.90474 5.62536 3.0094 5.77644 3.16828 5.80745L3.16826 5.80746Z" fill="#0A9386"/>
<path d="M6.87455 4.90763C7.89408 4.98907 8.80116 5.0279 9.65404 5.0279C10.2394 5.0279 10.8365 5.01249 11.4296 4.98528C11.5885 4.97747 11.7125 4.8418 11.7047 4.67911C11.6969 4.52023 11.5652 4.39616 11.3986 4.40396C9.94877 4.4776 8.58024 4.46219 6.85516 4.32652C6.77372 4.31872 6.69227 4.35374 6.63424 4.40797C6.57601 4.46219 6.54119 4.54744 6.54119 4.62888C6.54119 4.80297 6.70408 4.93084 6.87457 4.90763L6.87455 4.90763Z" fill="#0A9386"/>
<path d="M9.1808 2.09729C9.1808 2.25998 9.04893 2.39205 8.88625 2.39205C8.72336 2.39205 8.59149 2.25998 8.59149 2.09729C8.59149 1.9346 8.72336 1.80273 8.88625 1.80273C9.04893 1.80273 9.1808 1.9346 9.1808 2.09729Z" fill="#0A9386"/>
<path d="M7.71929 2.37659C7.71929 2.53928 7.58742 2.67114 7.42473 2.67114C7.26205 2.67114 7.13018 2.53928 7.13018 2.37659C7.13018 2.2139 7.26205 2.08203 7.42473 2.08203C7.58742 2.08203 7.71929 2.2139 7.71929 2.37659Z" fill="#0A9386"/>
<path d="M10.5419 2.31844C10.5419 2.48113 10.41 2.61299 10.2472 2.61299C10.0845 2.61299 9.9526 2.48113 9.9526 2.31844C9.9526 2.15555 10.0845 2.02368 10.2472 2.02368C10.41 2.02368 10.5419 2.15555 10.5419 2.31844Z" fill="#0A9386"/>
<path d="M11.7355 2.09729C11.7355 2.25998 11.6034 2.39205 11.4407 2.39205C11.2781 2.39205 11.1462 2.25998 11.1462 2.09729C11.1462 1.9346 11.2781 1.80273 11.4407 1.80273C11.6034 1.80273 11.7355 1.9346 11.7355 2.09729Z" fill="#0A9386"/>
<path d="M10.0998 1.30652C10.0998 1.14763 9.96795 1.01196 9.80526 1.01196C9.64237 1.01196 9.5107 1.14383 9.5107 1.30652C9.5107 1.46941 9.64257 1.60108 9.80526 1.60108C9.96815 1.60128 10.0998 1.46541 10.0998 1.30652Z" fill="#0A9386"/>
<path d="M11.5188 14.3204C12.2088 13.6304 12.1351 12.4828 12.1313 12.4364C12.1197 12.2929 12.0073 12.1767 11.86 12.165C11.8136 12.1612 10.6659 12.0914 9.97601 12.7776C9.9606 12.793 9.95279 12.8048 9.93719 12.8202V12.5721C10.1697 12.3395 10.7358 11.696 10.7358 10.9012C10.7358 9.92807 9.87515 9.16447 9.83632 9.13343C9.72786 9.03658 9.56497 9.03658 9.45632 9.13343C9.4215 9.16445 8.55682 9.92427 8.55682 10.9012C8.55682 11.6958 9.12272 12.3393 9.35545 12.5721V12.8162C9.34384 12.8046 9.33224 12.789 9.32063 12.7774C8.63065 12.0874 7.48705 12.161 7.43665 12.1648C7.29317 12.1764 7.17691 12.2889 7.1653 12.4362C7.1615 12.4866 7.09166 13.6302 7.77783 14.3202C8.25468 14.797 8.95247 14.9095 9.35168 14.9327V15.6615C9.34007 15.6499 9.32847 15.6343 9.31686 15.6227C8.62688 14.9327 7.48329 15.0024 7.43288 15.0102C7.2894 15.0218 7.17314 15.1342 7.16153 15.2815C7.15773 15.3319 7.08789 16.4756 7.77406 17.1655C8.25471 17.6423 8.9487 17.7548 9.34791 17.778V18.5068C9.3363 18.4952 9.3247 18.4796 9.31309 18.468C8.62311 17.778 7.47951 17.8517 7.42911 17.8555C7.28563 17.8671 7.16937 17.9795 7.15776 18.1268C7.15396 18.1772 7.08412 19.3209 7.77029 20.0108C8.24714 20.4877 8.94493 20.6001 9.34414 20.6233V21.7205C9.34414 21.8794 9.47601 22.0113 9.63489 22.0113C9.79378 22.0113 9.92565 21.8794 9.92565 21.7205V20.6233C10.3249 20.6001 11.0228 20.4915 11.5035 20.0108C12.1935 19.3208 12.1198 18.1772 12.116 18.1268C12.1044 17.9833 11.992 17.8671 11.8447 17.8555C11.7943 17.8517 10.6506 17.7818 9.96069 18.468C9.94529 18.4834 9.93748 18.4952 9.92187 18.5106V17.778C10.3211 17.7548 11.0191 17.6462 11.4997 17.1655C12.1897 16.4755 12.116 15.3279 12.1122 15.2815C12.1006 15.138 11.9882 15.0218 11.8409 15.0102C11.7905 15.0064 10.6468 14.9365 9.95692 15.6227C9.94151 15.6381 9.93371 15.6499 9.9181 15.6653V14.9327C10.3365 14.9135 11.0383 14.801 11.5189 14.3204L11.5188 14.3204ZM8.19647 13.9096C7.86689 13.58 7.77785 13.0645 7.75443 12.7503C8.0684 12.7735 8.58406 12.8628 8.91366 13.1924C9.24323 13.5219 9.33228 14.0374 9.35569 14.3516C9.03772 14.3282 8.52607 14.2389 8.19647 13.9096ZM8.19647 16.7549C7.86689 16.4253 7.77785 15.9098 7.75443 15.5956C8.0684 15.6189 8.58406 15.7081 8.91366 16.0377C9.24325 16.3673 9.33228 16.8827 9.35569 17.1969C9.03772 17.1737 8.52607 17.0844 8.19647 16.7549ZM8.19647 19.5966C7.86689 19.267 7.77785 18.7516 7.75443 18.4374C8.0684 18.4606 8.58406 18.5498 8.91366 18.8794C9.24325 19.209 9.33228 19.7245 9.35569 20.0386C9.03772 20.0152 8.52607 19.9262 8.19647 19.5966ZM10.3868 13.1922C10.7164 12.8626 11.2319 12.7735 11.5461 12.7501C11.5229 13.0641 11.4336 13.5798 11.104 13.9094C10.7745 14.2389 10.259 14.328 9.94481 14.3514C9.97202 14.0372 10.0573 13.5216 10.3868 13.1922ZM9.65025 9.77675C9.85576 10.0133 10.1581 10.4397 10.1581 10.9088C10.1581 11.3779 9.85956 11.8004 9.65025 12.0408C9.44474 11.8043 9.14238 11.3779 9.14238 10.9088C9.14238 10.4397 9.44093 10.0133 9.65025 9.77675ZM10.3868 18.8793C10.7164 18.5497 11.2319 18.4607 11.5461 18.4373C11.5229 18.7512 11.4336 19.2669 11.104 19.5965C10.7745 19.9261 10.259 20.0151 9.94481 20.0385C9.97202 19.7244 10.0573 19.2089 10.3868 18.8793ZM10.3868 16.0376C10.7164 15.708 11.2319 15.619 11.5461 15.5956C11.5229 15.9095 11.4336 16.4252 11.104 16.7548C10.7745 17.0844 10.259 17.1734 9.94481 17.1968C9.97202 16.8788 10.0573 16.3672 10.3868 16.0376Z" fill="#0A9386"/>
</svg>
