<svg width="28" height="25" viewBox="0 0 28 25" fill="none" xmlns="http://www.w3.org/2000/svg">
<path d="M26.2824 8.96432H25.3801C25.4092 8.68143 25.4092 8.39874 25.3801 8.05921C25.2928 7.29555 24.8563 5.3725 22.7024 3.87357C21.1015 2.7424 19.7045 1.3565 18.8023 0.366591C18.5111 0.0554828 18.1037 -0.057553 17.6962 0.0272719C17.2887 0.140313 16.9395 0.451416 16.8522 0.84734C16.4448 2.40288 14.7856 3.3078 12.0789 3.47744C6.46144 3.78874 3.49265 7.80474 2.765 8.96408H1.65914C0.756907 8.96408 0 9.67112 0 10.5762C0 11.4814 0.7567 12.1884 1.65914 12.1884H2.00834C2.21218 16.4306 4.80261 20.2204 8.73179 22.087V23.4445C8.73179 24.3211 9.43038 25 10.3327 25H17.6673C18.5406 25 19.2682 24.293 19.2682 23.4445V22.087C23.1976 20.2203 25.7588 16.4306 25.9917 12.1884H26.3409C27.2724 12.1884 28 11.4531 28 10.5762C28 9.69936 27.1848 8.96408 26.2826 8.96408L26.2824 8.96432ZM12.1369 4.60905C16.5028 4.35456 17.667 2.31828 17.9581 1.13045C18.8896 2.14859 20.3739 3.61929 22.0328 4.77869C24.2157 6.3058 24.3613 8.28567 24.2448 8.96432H4.19088C5.26774 7.55024 7.85816 4.8351 12.1368 4.60905H12.1369ZM17.6379 23.8689H10.3033C10.0704 23.8689 9.86675 23.6708 9.86675 23.4447V22.3417L18.0455 22.3415V23.4445C18.0455 23.6708 17.8709 23.8689 17.638 23.8689L17.6379 23.8689ZM18.4529 21.1822H9.48829C5.82086 19.57 3.37607 16.0915 3.17233 12.1886H24.7689C24.5652 16.0915 22.1204 19.5701 18.4529 21.1822ZM26.2824 11.0573H1.65882C1.39692 11.0573 1.16405 10.831 1.16405 10.5766C1.16405 10.3221 1.39692 10.0958 1.65882 10.0958H26.2824C26.5443 10.0958 26.7771 10.3221 26.7771 10.5766C26.7771 10.831 26.5445 11.0573 26.2824 11.0573Z" fill="#0A9386"/>
</svg>
