<svg width="29" height="29" viewBox="0 0 29 29" fill="none" xmlns="http://www.w3.org/2000/svg">
<path d="M16.0627 21.107C16.5763 21.1787 17.074 21.2224 17.5449 21.2224C23.74 21.2217 26.1707 15.4487 26.1964 15.3847C26.2669 15.2126 26.226 15.0163 26.0965 14.8841C25.9658 14.7511 25.7707 14.7104 25.5945 14.7767C25.5762 14.7848 23.6438 15.5018 19.9719 14.2096C18.1132 13.5566 17.0012 13.6918 16.3356 14.0572L16.0842 13.4561C15.8305 12.8741 15.5426 12.3982 15.2232 12.0294C16.348 10.1563 17.4057 9.1434 17.8949 8.73474C17.9198 8.75556 17.9376 8.78027 17.9646 8.79972C18.4666 9.16716 18.9775 9.3152 19.4758 9.3152C21.4764 9.3152 23.2635 6.92566 23.3567 6.79961C23.477 6.63557 23.477 6.41249 23.3567 6.24845C23.3539 6.24456 23.3487 6.24433 23.3457 6.24067C23.5731 5.8492 23.7042 5.40784 23.7042 4.94272C23.7042 4.249 23.434 3.59605 22.9435 3.10551C22.0906 2.25441 20.7967 2.12807 19.8017 2.70718C19.7875 2.6946 19.7847 2.67423 19.7687 2.66325C19.5973 2.54565 19.3656 2.55595 19.2068 2.69048C19.1125 2.76942 16.8996 4.64852 16.7509 6.49235C16.7026 7.08925 16.8699 7.61803 17.2416 8.06968C16.6781 8.54649 15.6282 9.58615 14.5009 11.4332C14.3883 11.3662 14.2781 11.29 14.1598 11.244C13.4423 10.9665 12.8881 11.1934 12.9062 11.193C12.8619 11.2035 12.7301 11.2424 12.5335 11.3442C12.3741 10.578 11.9032 9.96777 11.1155 9.58342C10.5716 9.3171 9.94497 9.20408 9.2851 9.25991L7.75217 9.38666C7.01639 8.45157 6.61459 7.71621 6.42722 7.31792C6.45399 7.29893 6.4819 7.28795 6.50776 7.26667C8.92729 5.29674 6.05589 1.69624 5.93211 1.54407C5.80605 1.3862 5.58801 1.33015 5.39971 1.40565C5.39491 1.40748 5.39308 1.41297 5.3885 1.41503C4.57149 0.60715 3.28655 0.405137 2.25358 1.01212C1.65527 1.36309 1.22835 1.92613 1.05334 2.59765C0.935507 3.05021 0.951292 3.51353 1.07507 3.95235C1.05951 3.96264 1.03938 3.96012 1.02496 3.97248C0.867097 4.1093 0.819508 4.33466 0.909192 4.52365C0.962502 4.63438 2.22178 7.24927 3.96797 7.85835C4.22124 7.94644 4.47108 7.9906 4.71727 7.9906C5.02317 7.9906 5.32337 7.91761 5.61646 7.78216C5.80957 8.18187 6.15115 8.79961 6.71216 9.56151C5.94458 9.75529 5.36115 10.0788 4.98635 10.5387C4.50496 11.129 4.54249 11.7156 4.54913 11.7156L4.55027 11.715C4.54684 11.7552 4.54363 11.8936 4.58116 12.1156C3.8021 12.0295 3.0764 12.2883 2.46573 12.92C2.04681 13.3549 1.74478 13.9219 1.59267 14.5602L1.22362 16.1231C0.948838 17.3698 1.03509 18.3525 1.48124 19.0446C1.90359 19.6999 2.46003 19.8388 2.46553 19.8223C2.50695 19.8394 2.64193 19.8834 2.85609 19.9166C2.53349 20.6306 2.555 21.4019 2.96751 22.1773C3.25259 22.712 3.69871 23.1742 4.25743 23.5144L5.63022 24.3483C6.46235 24.8377 7.21528 25.0834 7.87609 25.0834C8.08955 25.0834 8.29386 25.0578 8.4881 25.0063C9.22733 24.8112 9.5394 24.3115 9.53161 24.3115H9.53046C9.55678 24.2813 9.63892 24.1749 9.73798 23.9781C10.1903 24.3893 10.741 24.6108 11.3734 24.6108C11.5516 24.6108 11.7367 24.5943 11.9264 24.5609C12.5247 24.4554 13.1026 24.1742 13.5966 23.7473L14.815 22.6991C15.4169 22.1665 15.8196 21.6341 16.0626 21.1072L16.0627 21.107ZM22.2853 3.76287C22.6011 4.0786 22.7747 4.49753 22.7747 4.94255C22.7747 5.38825 22.6011 5.80719 22.2842 6.12335C22.2435 6.16477 22.1977 6.1984 22.1531 6.23455C21.7994 6.28259 21.3924 6.28946 21.0579 6.15058C21.0057 6.00575 21.1215 5.64311 21.2576 5.40813C21.3631 5.22532 21.3326 4.9931 21.1826 4.84438C21.0327 4.69681 20.8032 4.6666 20.6195 4.77276C20.4152 4.89311 20.0358 5.02718 19.8212 4.8954C19.7196 4.61925 19.7313 4.25316 19.7787 3.92188C19.7844 3.9157 19.7922 3.91319 19.7974 3.90655C19.8384 3.85782 19.8803 3.80886 19.9269 3.76287C20.5753 3.11402 21.6346 3.11285 22.2854 3.76287L22.2853 3.76287ZM18.8132 4.40715C18.8166 4.68034 18.8541 4.95946 18.9484 5.21614C19.0619 5.52501 19.2753 5.74351 19.5661 5.84737C19.7466 5.91143 19.9398 5.92127 20.1237 5.90594C20.1054 6.09034 20.118 6.28231 20.1827 6.46396C20.2873 6.75408 20.5053 6.96754 20.814 7.08102C21.1025 7.18649 21.4191 7.21783 21.728 7.21623C20.8921 7.99804 19.6059 8.84774 18.5136 8.04836C18.4354 7.99162 18.3741 7.92115 18.2468 7.78547C18.1572 7.70036 18.0652 7.6077 17.9766 7.50611C17.7474 7.2382 17.6485 6.93161 17.6781 6.56827C17.7343 5.85604 18.2693 5.04746 18.8131 4.4071L18.8132 4.40715ZM19.6636 15.0871C22.1332 15.9558 23.8966 15.9816 24.9126 15.8643C23.9674 17.4892 21.3697 20.8365 16.3214 20.2013C16.3218 20.1961 16.3241 20.1908 16.3243 20.1858C16.3664 19.4285 15.994 18.9778 15.9848 18.9778V18.9784C15.9642 18.9441 15.8853 18.8302 15.7242 18.6721C16.0827 18.4675 16.3675 18.1912 16.5758 17.8466C16.8927 17.8033 17.2205 17.788 17.555 17.7944L18.3657 19.0217C18.4553 19.1569 18.6029 19.2301 18.7539 19.2301C18.8425 19.2301 18.931 19.2052 19.0106 19.1534C19.2252 19.0116 19.2831 18.7231 19.1424 18.5085L18.7246 17.8761C18.9106 17.8978 19.0969 17.9202 19.2799 17.9458C19.7398 18.0106 20.1473 18.0435 20.5152 18.0435C21.5132 18.0435 22.2229 17.7983 22.9098 17.2579C23.1118 17.0989 23.147 16.8065 22.988 16.6044C22.8279 16.4024 22.5361 16.3688 22.3352 16.5267C21.7006 17.0261 21.0467 17.2556 19.4092 17.0252C19.1305 16.9863 18.8473 16.9515 18.5619 16.9227L19.1424 16.0437C19.2831 15.8297 19.2241 15.5412 19.0106 15.3994C18.7949 15.2591 18.5075 15.317 18.3656 15.5316L17.4845 16.8659C17.3015 16.8641 17.1187 16.8634 16.9373 16.8739C16.943 16.8401 16.9572 16.8128 16.9622 16.7783C17.0452 16.1846 16.9569 15.5561 16.7103 14.9591C17.2585 14.572 18.2725 14.5974 19.6638 15.087L19.6636 15.0871ZM13.1962 12.0736C13.2417 12.0553 14.2907 11.6671 15.2285 13.8212L15.8463 15.2971C16.0348 15.7462 16.1018 16.2135 16.0405 16.6481C15.9451 17.3333 15.6125 17.7749 15.0265 17.998C14.6882 18.1275 14.2953 18.144 13.8933 18.0463L10.989 17.3414C10.9897 17.3192 10.9956 17.2984 10.9956 17.2759C10.9956 16.6211 10.6694 16.0439 10.1733 15.689C11.7644 12.5332 13.1227 12.0976 13.1961 12.0736L13.1962 12.0736ZM9.04145 18.2998C8.47702 18.2998 8.0185 17.8406 8.0185 17.2761C8.0185 16.7112 8.47723 16.2521 9.04145 16.2521C9.60589 16.2521 10.0644 16.7112 10.0644 17.2761C10.0646 17.8403 9.6059 18.2998 9.04145 18.2998ZM1.95431 2.83223C2.06665 2.4014 2.34028 2.0397 2.72423 1.81502C3.51676 1.35125 4.53971 1.61528 5.00758 2.40987C5.03664 2.46043 5.05837 2.51328 5.08239 2.56544C5.03938 2.92031 4.94374 3.31633 4.72479 3.60485C4.56463 3.63666 4.24912 3.41472 4.05719 3.22505C3.90733 3.07633 3.67465 3.04797 3.49527 3.15413C3.31246 3.26075 3.22506 3.47673 3.2818 3.6799C3.35342 3.94164 3.37378 4.32143 3.19898 4.48549C2.90315 4.51226 2.55334 4.40953 2.24625 4.28118C2.23985 4.27134 2.2387 4.26013 2.23161 4.25052C2.19409 4.20179 2.16114 4.15008 2.12934 4.09768C1.9042 3.71262 1.84174 3.26374 1.95431 2.83225V2.83223ZM4.27614 6.98096C3.60163 6.74599 2.95465 6.02507 2.47185 5.3375C2.73633 5.40271 3.01341 5.43748 3.28822 5.41072C3.61516 5.37891 3.88102 5.22745 4.05468 4.97303C4.16268 4.81356 4.22262 4.63075 4.25236 4.44726C4.42716 4.51246 4.61683 4.5477 4.80765 4.53122C5.11423 4.504 5.37529 4.34682 5.56269 4.07661C5.73863 3.82334 5.85234 3.52361 5.92487 3.22551C6.47215 4.23083 6.97067 5.69055 5.92144 6.5444C5.8464 6.60503 5.76472 6.64667 5.59793 6.73796C5.49337 6.80271 5.38217 6.86861 5.25954 6.92809C4.94152 7.0839 4.62258 7.10083 4.27619 6.98094L4.27614 6.98096ZM7.7687 10.3182L9.36295 10.1864C9.84091 10.1512 10.3134 10.2274 10.7085 10.4191C11.3297 10.7222 11.6475 11.1741 11.6793 11.7976C11.6818 11.8529 11.6747 11.9081 11.672 11.9632C11.0252 12.5482 10.1871 13.5769 9.30368 15.3485C9.21719 15.3366 9.1314 15.3219 9.04171 15.3219C8.81451 15.3219 8.59944 15.3684 8.39648 15.44L6.40529 13.0964C6.18198 12.8331 5.9207 12.631 5.64316 12.4663C5.48254 12.024 5.47888 11.7726 5.47774 11.7117C5.47522 11.6641 5.43541 10.5446 7.76864 10.3181L7.7687 10.3182ZM2.13143 16.3305L2.49933 14.7745C2.61167 14.2993 2.832 13.8815 3.13512 13.5665C3.61651 13.0691 4.14226 12.9062 4.7497 13.0702C5.10067 13.165 5.42761 13.3819 5.69669 13.6981L7.61262 15.9528C7.28979 16.3015 7.08753 16.7642 7.08753 17.2757C7.08753 17.4773 7.12689 17.6681 7.18408 17.8514C4.14979 19.377 2.82098 18.9631 2.74911 18.9397C2.70358 18.9278 1.62507 18.6203 2.13136 16.3306L2.13143 16.3305ZM6.10878 23.5501L4.74173 22.7195C4.32509 22.4662 3.99588 22.1274 3.79017 21.7403C3.46437 21.1294 3.47329 20.5771 3.81511 20.0531C3.84669 20.0053 3.88581 19.9646 3.92173 19.9206C4.76211 19.8305 5.98936 19.5097 7.66275 18.6581C7.92151 18.9162 8.25303 19.1002 8.62256 19.1816L8.84403 22.1042C8.86988 22.4474 8.96231 22.7641 9.08998 23.0606C8.96071 23.5129 8.8152 23.7183 8.77928 23.7694C8.75548 23.809 8.12767 24.7365 6.10877 23.55L6.10878 23.5501ZM12.9898 23.0426C12.6219 23.3599 12.1983 23.5684 11.7657 23.6443C11.0855 23.7646 10.5623 23.5869 10.1683 23.0982C9.9402 22.8138 9.80269 22.4458 9.77089 22.0338L9.55239 19.153C10.058 19.0151 10.4785 18.6817 10.733 18.2363L13.6732 18.9501C13.9185 19.0098 14.1626 19.0391 14.4021 19.0391C14.4916 19.0391 14.5778 19.0245 14.6654 19.016C15.051 19.2764 15.1997 19.4759 15.2365 19.5251C15.2672 19.5619 15.9575 20.4441 14.2033 21.9986L12.9898 23.0426Z" fill="#FAD7B1"/>
<path d="M18.0729 22.6199C15.7941 22.6199 14.0093 23.8325 14.0093 25.3801C14.0093 26.9277 15.7941 28.1403 18.0729 28.1403C19.7726 28.1403 23.4993 27.5175 23.4993 25.6672C23.4993 24.0149 20.1655 22.6199 18.0729 22.6199ZM18.0729 27.2105C16.3743 27.2105 14.9403 26.372 14.9403 25.3801C14.9403 24.3883 16.3743 23.5498 18.0729 23.5498C20.0565 23.5498 22.568 24.8628 22.568 25.6672C22.568 26.4026 20.2156 27.2105 18.0729 27.2105Z" fill="#FAD7B1"/>
<path d="M19.7409 25.5637C18.9664 26.1638 17.2042 25.8692 16.5902 25.7051C16.3426 25.6369 16.087 25.7857 16.0214 26.0339C15.9543 26.2815 16.1008 26.5363 16.3483 26.6034C16.5016 26.6448 17.3372 26.8578 18.265 26.8578C18.9825 26.8578 19.7547 26.7306 20.3111 26.2986C20.5143 26.1414 20.5506 25.849 20.3939 25.6463C20.2347 25.4429 19.9407 25.4054 19.741 25.5637L19.7409 25.5637Z" fill="#FAD7B1"/>
<path d="M24.2768 19.7646C22.6361 19.7646 21.3496 20.7127 21.3496 21.9237C21.3496 23.134 22.6361 24.0822 24.2768 24.0822C25.4849 24.0822 28.135 23.5923 28.135 22.1356C28.135 20.8269 25.8006 19.7646 24.2768 19.7646V19.7646ZM24.2768 23.1521C23.1948 23.1521 22.2808 22.5895 22.2808 21.9235C22.2808 21.2575 23.1948 20.6944 24.2768 20.6944C25.5405 20.6944 27.2041 21.6004 27.2041 22.1351C27.2041 22.5607 25.729 23.1521 24.2768 23.1521Z" fill="#FAD7B1"/>
<path d="M25.0424 21.7894C24.5143 21.937 23.7866 21.7718 23.6129 21.7093C23.4097 21.6077 23.1565 21.6702 23.0236 21.8622C22.8771 22.0738 22.9304 22.3635 23.1428 22.5094C23.2812 22.6053 23.8921 22.778 24.5427 22.778C24.7949 22.778 25.0536 22.7524 25.292 22.6856C25.5396 22.6163 25.6837 22.3603 25.6156 22.1127C25.5465 21.8654 25.2946 21.7167 25.0424 21.7894L25.0424 21.7894Z" fill="#FAD7B1"/>
</svg>
