<svg width="79" height="80" viewBox="0 0 79 80" fill="none" xmlns="http://www.w3.org/2000/svg">
<g clip-path="url(#clip0_492_2720)">
<path d="M79 40.0638C79 18.0756 61.3159 0.257568 39.507 0.257568C17.6841 0.257568 0 18.0756 0 40.0638C0 62.038 17.6841 79.8561 39.507 79.8561C61.3159 79.8561 79 62.038 79 40.0638Z" fill="#151B1F"/>
<path d="M20.2761 60.4653C19.9277 60.4653 19.3842 60.1284 19.3145 59.7914C19.1752 59.2719 19.1612 58.6962 19.1612 58.1486C19.1612 58.0362 19.1612 57.938 19.1612 57.8256C19.1612 56.1548 19.203 54.5541 19.2309 52.8551V52.6445C19.2448 51.5212 19.2727 50.3839 19.3145 49.2747C19.3424 48.2075 19.3842 47.1123 19.3981 46.0312C19.4121 44.8658 19.426 43.6723 19.4399 42.4929C19.4539 41.3134 19.4678 40.134 19.4817 38.9686C19.4957 38.084 19.5096 37.1994 19.5235 36.3289C19.5514 34.5737 19.5793 32.7624 19.649 30.9511C19.6629 30.0244 19.7047 29.0837 19.7465 28.171C19.7883 27.2584 19.8162 26.3176 19.8441 25.4049C19.8719 24.7731 19.8441 24.3097 19.7465 23.8745C19.6072 23.2286 19.635 22.8354 19.8441 22.5687C20.0113 22.3721 20.2621 22.2738 20.6244 22.2738C20.8056 22.2738 21.0007 22.3019 21.2515 22.344C23.8575 22.8916 24.61 24.3097 24.9584 25.3207C25.7248 27.4971 25.9896 29.5751 25.7388 31.6672C25.4182 34.0682 24.0804 35.5426 21.6557 36.1604H21.6417C21.5163 36.1884 21.377 36.2306 21.1958 36.3008C21.1261 36.3289 21.0425 36.3569 20.9589 36.385C20.9868 37.5083 21.0007 38.5895 20.9868 39.6987C20.931 42.1137 20.8614 44.599 20.8753 47.0562C20.8614 49.2325 20.9171 51.451 20.9728 53.5993C20.9868 54.3294 21.0146 55.0736 21.0286 55.8037C21.0425 56.2109 21.0564 56.6321 21.0564 57.0393C21.0843 57.8537 21.1122 58.6962 21.0983 59.5386V59.5667C21.0425 59.8756 20.6523 60.4513 20.2761 60.4653ZM21.4188 24.1413C21.363 25.2645 21.3073 26.3878 21.2515 27.5111C21.1401 29.7998 21.0146 32.1727 20.8892 34.5737C21.1122 34.5176 21.3073 34.4754 21.5024 34.4333C21.8229 34.3631 22.1155 34.2929 22.3942 34.2227C23.1607 34.0121 23.6066 33.5347 23.8853 32.6361C24.5264 30.4316 24.1222 28.2974 23.3279 25.756C23.0631 24.9697 22.4779 24.4642 21.4188 24.1413Z" fill="#FFF592"/>
<path d="M29.3202 60.2688C29.0415 60.2688 28.8045 60.1705 28.6373 59.988C28.498 59.8476 28.3447 59.5808 28.3586 59.1034C28.3865 56.5901 28.3586 54.0346 28.3168 51.4932C28.2889 50.075 28.2471 48.6429 28.2053 47.2388C28.1635 45.8627 28.1217 44.4306 28.0938 43.0405V43.0265C28.052 41.0326 28.0102 38.9546 28.0102 36.9186C28.0242 35.9217 28.052 34.9248 28.0799 33.956C28.1217 32.6642 28.1635 31.3303 28.1635 30.0104C28.1496 28.2413 28.052 26.43 27.9545 24.6889C27.9266 24.2396 27.8987 23.8043 27.8848 23.355C27.8709 22.9899 27.9266 22.7232 28.0381 22.5266C28.1496 22.33 28.3725 22.1053 28.8324 22.0913H28.8603C29.5849 22.0913 29.6267 22.6951 29.6546 23.0461C29.6546 23.1023 29.6685 23.1584 29.6685 23.2146C29.7104 23.6499 29.7661 24.0851 29.8079 24.5204C29.8497 24.9697 29.9054 25.419 29.9473 25.8543L29.9751 26.093H29.9054C29.8218 28.9012 29.78 31.7375 29.7243 34.4755V34.7984C29.7104 36.3149 29.7382 37.8313 29.7661 39.3056C29.78 40.2885 29.8079 41.2994 29.8079 42.2963C29.8079 43.4056 29.794 44.5569 29.78 45.6521C29.7661 46.7614 29.7522 47.8987 29.7522 49.0079C29.7661 49.5836 29.8218 50.2014 29.8636 50.7911C29.8915 51.1843 29.9333 51.5915 29.9612 51.9846C29.9891 52.5884 30.003 53.1921 30.0309 53.7959C30.1005 55.5791 30.1842 57.4185 30.1842 59.2298C30.1842 59.4966 30.003 59.7774 29.9194 59.8757C29.8079 60.0161 29.5989 60.2407 29.362 60.2548L29.3202 60.2688Z" fill="#FFF592"/>
<path d="M48.774 60.3671C48.4953 60.3671 48.2445 60.2688 48.0773 60.0863C47.9379 59.9459 47.7846 59.665 47.8125 59.2017C47.8822 56.7024 47.924 54.1329 47.924 51.5914C47.924 50.1733 47.91 48.7271 47.91 47.337C47.8961 45.961 47.8961 44.5288 47.8961 43.1388C47.8961 41.1309 47.8961 39.0669 47.9379 37.0169C47.9658 36.02 48.0215 35.0231 48.0773 34.0542C48.1469 32.7625 48.2166 31.4286 48.2445 30.1087C48.2724 28.3395 48.2027 26.5282 48.1469 24.7731C48.133 24.3238 48.1191 23.8885 48.1051 23.4392C48.1051 23.1303 48.1051 22.1896 49.0667 22.1896C49.8192 22.1896 49.8471 22.7933 49.8749 23.1584C49.8749 23.2146 49.8749 23.2707 49.8889 23.3269C49.9307 23.7762 49.9725 24.2396 50.0004 24.6889C50.0422 25.1101 50.07 25.5454 50.1118 25.9666L50.1258 26.2053H50.0282C49.8889 29.0135 49.7774 31.8498 49.6798 34.5878L49.6659 34.8967C49.6241 36.4131 49.6102 37.9295 49.6102 39.4039C49.6102 40.3867 49.6102 41.3977 49.5823 42.3946C49.5684 43.5038 49.5265 44.6552 49.4847 45.7504C49.4429 46.8596 49.4151 47.997 49.3872 49.1062C49.3872 49.6819 49.429 50.2997 49.4708 50.8894C49.4987 51.2825 49.5265 51.6897 49.5405 52.0829C49.5544 52.6866 49.5684 53.2904 49.5684 53.8942C49.5962 55.6774 49.638 57.5168 49.6102 59.328C49.6241 59.7493 49.1503 60.3671 48.774 60.3671Z" fill="#FFF592"/>
<path d="M57.3443 60.3671C56.8148 60.3671 56.2852 60.2969 55.7836 60.2407C55.6024 60.2126 55.4212 60.1986 55.2261 60.1705H55.2122C55.1007 60.1565 54.9892 60.1284 54.8917 60.1143C54.7941 60.1003 54.6966 60.0722 54.5851 60.0582C53.6375 59.9599 53.1637 59.9178 52.885 59.5948C52.6063 59.2859 52.6341 58.7945 52.676 57.8397V57.7274C52.7178 56.8849 52.7317 56.0144 52.7456 55.186C52.7596 54.3435 52.7874 53.487 52.8153 52.6305C52.8292 51.9565 52.8571 51.2685 52.885 50.5945C52.9268 49.5836 52.9686 48.5305 52.9686 47.5196C52.9825 46.4244 52.9825 45.3151 52.9686 44.234C52.9686 42.8018 52.9547 41.3275 52.9965 39.8532C53.0104 38.6035 53.0661 37.3398 53.1219 36.1183C53.1776 34.8967 53.2334 33.633 53.2473 32.3833C53.2752 30.7827 53.2473 29.1399 53.2334 27.5673C53.2194 26.5142 53.2055 25.419 53.2055 24.3519C53.2055 24.2255 53.1776 24.0851 53.1637 23.9307C53.1219 23.6077 53.0661 23.2567 53.2612 23.032C53.5678 22.6389 54.1531 22.3159 54.6408 22.2738C55.463 22.2317 56.2852 22.2177 57.0796 22.2177C57.6091 22.2177 58.1386 22.2177 58.6682 22.1896C59.0026 22.1896 59.7691 22.1896 59.8248 23.032V23.0461C59.8248 23.706 59.4207 24.0992 58.71 24.0992H54.7663V33.8577C55.0171 33.8296 55.2679 33.8155 55.5048 33.7874C56.1319 33.7453 56.7869 33.6892 57.3861 33.5488H57.4001C57.5115 33.5207 57.6091 33.5207 57.7066 33.5207C58.1386 33.5207 58.4174 33.7594 58.5149 34.1806V34.2087C58.5288 34.4053 58.5288 34.7703 58.3059 35.0511C58.1526 35.2337 57.9296 35.332 57.6509 35.36C56.7869 35.4022 55.9647 35.4302 55.1425 35.4724H55.1286C54.7663 35.4724 54.6687 35.5566 54.6687 35.9357C54.6548 37.1433 54.6269 38.3648 54.599 39.5443C54.5712 40.7237 54.5433 41.9312 54.5294 43.1388C54.4876 45.0203 54.4597 46.9298 54.4318 48.7832C54.4039 50.6367 54.3761 52.5603 54.3343 54.4558V57.8116C54.3343 58.1626 54.3343 58.275 54.822 58.275C55.6999 58.2328 56.6476 58.4575 57.5394 58.6962C57.8181 58.7804 57.9714 59.0613 58.1108 59.314C58.1665 59.4123 58.2083 59.4965 58.2641 59.5667L58.4034 59.7633L58.1944 59.8897C58.1108 59.9318 58.0411 60.002 57.9575 60.0722C57.7903 60.2126 57.5952 60.3671 57.3443 60.3671Z" fill="#FFF592"/>
<path d="M44.9279 60.9287C44.468 60.9287 44.1893 60.1143 43.7851 58.4013C43.7573 58.2609 43.7294 58.1486 43.7015 58.0363C43.381 56.7445 43.0884 55.4106 42.7957 54.1329C42.531 52.9815 42.2662 51.788 41.9735 50.6086C41.8481 50.0891 41.667 49.5555 41.4997 49.05C41.3743 48.685 41.2628 48.3199 41.1513 47.9408C41.012 47.4494 40.8726 46.9579 40.7472 46.4805C40.5382 45.7083 40.3292 44.9079 40.0644 44.1357C39.6603 42.8439 39.2422 41.5943 38.7963 40.2744C38.5872 39.6566 38.3782 39.0248 38.1552 38.3929C37.9741 39.5583 37.7929 40.7518 37.6257 41.9032C37.4445 43.0826 37.2634 44.3042 37.0822 45.4977C36.7199 47.7442 36.3436 50.1593 35.9952 52.5462C35.6608 54.7788 35.396 57.0675 35.1312 59.2859V59.3C35.1173 59.4263 35.0755 59.5387 35.0476 59.651C35.0198 59.7633 34.9919 59.8756 34.9779 59.9739V59.988C34.8525 60.5637 34.5181 60.9147 34.0721 60.9147C33.9746 60.9147 33.891 60.9006 33.7934 60.8726H33.7795C33.4172 60.7181 33.1106 60.0161 33.1663 59.6229V59.6089C33.4729 57.8116 33.7934 56.0003 34.1279 54.2452C34.4484 52.4901 34.7829 50.6788 35.0755 48.8956C35.2427 47.9268 35.3542 46.9298 35.4657 45.961C35.5493 45.1888 35.6329 44.4025 35.7583 43.6162C35.8698 42.9001 36.0231 42.1699 36.1625 41.4679C36.26 40.9624 36.3715 40.4289 36.469 39.9093C36.5248 39.6004 36.5805 39.2915 36.6502 38.9967C36.8871 37.733 37.1519 36.4412 37.2912 35.1354C37.347 34.644 37.1797 34.0964 37.0265 33.5768C36.9986 33.4645 36.9568 33.3662 36.9289 33.2539C36.692 32.5097 36.4551 31.7655 36.2182 31.0073C35.4936 28.7187 34.755 26.3598 34.0443 24.043C33.9607 23.7341 34.0443 23.032 34.3787 22.8776C34.5459 22.7933 34.6992 22.7512 34.8525 22.7512C35.2567 22.7512 35.5632 23.0461 35.6887 23.5516C35.9116 24.38 36.1485 25.1944 36.3854 25.9947C36.5945 26.6827 36.8035 27.3988 36.9986 28.1149C37.2912 29.0837 37.5421 30.0806 37.8068 31.0495C37.9323 31.5409 38.0716 32.0323 38.197 32.5238C38.4339 31.4145 38.6848 30.2351 38.9774 29.0697C39.507 27.1461 40.0644 25.2084 40.6636 23.2848C40.7472 23.004 41.221 22.8214 41.4579 22.8214C41.4858 22.8214 41.5276 22.8214 41.5555 22.8355L41.5973 22.8495C41.8481 22.9478 42.2104 23.3831 42.1408 23.692C42.0293 24.3238 41.8621 24.9416 41.6948 25.5454C41.6252 25.7841 41.5694 26.0228 41.4997 26.2615C41.2907 26.9916 41.1095 27.7498 40.9144 28.4659C40.7333 29.196 40.5382 29.9402 40.3292 30.6844C40.0365 31.7655 39.7299 32.8748 39.3537 33.9419C39.1028 34.6018 39.075 35.1073 39.2422 35.7813C39.5348 36.8203 39.8135 37.8874 40.0644 38.9124C40.3152 39.9374 40.5939 41.0045 40.8866 42.0295C41.0259 42.535 41.221 43.0124 41.4161 43.5319C41.6252 44.0655 41.8481 44.6271 42.0014 45.2028C42.4055 46.635 42.7957 48.1093 43.172 49.5415C43.4786 50.6647 43.7851 51.8302 44.0917 52.9815C44.454 54.3997 44.8582 55.8178 45.2623 57.1798C45.4435 57.7835 45.6107 58.4013 45.7779 59.0051C45.8615 59.2859 45.8197 59.6791 45.6804 60.0863C45.5271 60.5075 45.2762 60.8024 44.9975 60.9006H44.9836C44.9836 60.9287 44.9557 60.9287 44.9279 60.9287Z" fill="#FFF592"/>
<path d="M28.7767 21.3612C29.362 21.3612 29.8636 20.8697 29.8636 20.266C29.8636 19.6763 29.3759 19.1708 28.7767 19.1708C28.1914 19.1708 27.6897 19.6622 27.6897 20.266C27.6897 20.8697 28.1914 21.3612 28.7767 21.3612Z" fill="#FFF592"/>
<path d="M48.9552 21.3612C49.5405 21.3612 50.0422 20.8697 50.0422 20.266C50.0422 19.6763 49.5544 19.1708 48.9552 19.1708C48.3699 19.1708 47.8682 19.6622 47.8682 20.266C47.8822 20.8697 48.3699 21.3612 48.9552 21.3612Z" fill="#FFF592"/>
</g>
<defs>
<clipPath id="clip0_492_2720">
<rect width="79" height="79.5985" fill="white" transform="translate(0 0.257568)"/>
</clipPath>
</defs>
</svg>
