<svg xmlns="http://www.w3.org/2000/svg" width="113" height="113" viewBox="0 0 113 113"><g><g><g><g><path fill="#151b1f" d="M113 56.51C113 25.295 87.705 0 56.51 0 25.295 0 0 25.295 0 56.51 0 87.705 25.295 113 56.51 113 87.705 113 113 87.705 113 56.51z"/></g></g><g><g><g><path fill="#fff592" d="M29.005 85.468c-.499 0-1.276-.479-1.376-.957-.2-.738-.219-1.555-.219-2.332v-.459c0-2.372.06-4.644.1-7.056v-.299c.02-1.595.06-3.21.12-4.784.04-1.515.099-3.07.119-4.604l.06-5.024.06-5.003.06-3.747c.04-2.492.079-5.063.179-7.634.02-1.316.08-2.652.14-3.947.059-1.296.099-2.631.139-3.927.04-.897 0-1.555-.14-2.173-.2-.917-.16-1.475.14-1.853.239-.28.598-.419 1.116-.419.26 0 .538.04.897.1 3.727.777 4.804 2.79 5.302 4.225 1.096 3.09 1.475 6.04 1.116 9.01-.458 3.409-2.372 5.502-5.84 6.379h-.02c-.18.04-.379.1-.638.199-.1.04-.219.08-.339.12.04 1.594.06 3.13.04 4.704-.08 3.428-.18 6.956-.16 10.445-.02 3.09.06 6.239.14 9.288.02 1.037.06 2.093.08 3.13.02.578.04 1.176.04 1.754.04 1.156.08 2.352.06 3.548v.04c-.08.439-.638 1.256-1.176 1.276zM30.639 33.9l-.239 4.784c-.16 3.25-.339 6.618-.518 10.026.319-.08.598-.14.877-.2.458-.099.877-.198 1.275-.298 1.097-.299 1.735-.977 2.133-2.252.917-3.13.34-6.16-.797-9.768-.379-1.116-1.216-1.833-2.73-2.292z"/></g></g><g><g><path fill="#fff592" d="M41.936 85.198c-.399 0-.737-.14-.977-.399-.199-.2-.418-.578-.398-1.256.04-3.568 0-7.196-.06-10.803-.04-2.014-.1-4.047-.16-6.04-.06-1.954-.12-3.987-.159-5.96v-.02c-.06-2.83-.12-5.78-.12-8.67.02-1.416.06-2.831.1-4.207.06-1.834.12-3.727.12-5.6-.02-2.512-.16-5.084-.3-7.555-.04-.638-.079-1.256-.099-1.894-.02-.518.06-.897.22-1.176.159-.28.478-.598 1.135-.618h.04c1.037 0 1.097.857 1.137 1.355 0 .08.02.16.02.24.06.618.139 1.235.199 1.853.06.638.14 1.276.2 1.894l.039.339h-.1c-.12 3.986-.18 8.013-.259 11.9v.458c-.02 2.153.02 4.306.06 6.399.02 1.395.06 2.83.06 4.245 0 1.575-.02 3.21-.04 4.764-.02 1.575-.04 3.19-.04 4.764.02.818.1 1.695.16 2.532.04.558.1 1.136.139 1.694.04.857.06 1.714.1 2.572.1 2.531.219 5.142.219 7.714 0 .378-.26.777-.379.917-.16.199-.458.518-.797.538z"/></g></g><g><g><path fill="#fff592" d="M69.77 85.338c-.399 0-.757-.14-.997-.399-.199-.2-.418-.598-.378-1.256.1-3.548.16-7.196.16-10.803 0-2.014-.02-4.067-.02-6.04-.02-1.953-.02-3.987-.02-5.96 0-2.85 0-5.78.06-8.69.039-1.416.119-2.831.198-4.207.1-1.833.2-3.727.24-5.6.04-2.512-.06-5.084-.14-7.575l-.06-1.894c0-.438 0-1.774 1.376-1.774 1.076 0 1.116.857 1.156 1.375 0 .08 0 .16.02.24.06.637.12 1.295.16 1.933.059.598.099 1.216.159 1.814l.02.339h-.14c-.2 3.986-.359 8.013-.498 11.9l-.02.438c-.06 2.153-.08 4.306-.08 6.399 0 1.395 0 2.83-.04 4.246-.02 1.574-.08 3.209-.14 4.764-.06 1.574-.099 3.189-.139 4.764 0 .817.06 1.694.12 2.531.04.558.08 1.136.1 1.694.02.857.04 1.714.04 2.572.04 2.531.099 5.142.06 7.714.019.598-.659 1.475-1.197 1.475z"/></g></g><g><g><path fill="#fff592" d="M82.025 85.338c-.757 0-1.515-.1-2.232-.18-.26-.04-.519-.06-.798-.1h-.02c-.159-.02-.318-.06-.458-.08-.14-.019-.28-.059-.439-.079-1.355-.14-2.033-.2-2.431-.658-.399-.438-.36-1.136-.3-2.491v-.16c.06-1.196.08-2.432.1-3.608.02-1.195.06-2.411.1-3.627.02-.957.06-1.934.1-2.89.06-1.436.12-2.93.12-4.366.02-1.555.02-3.13 0-4.664 0-2.033-.02-4.126.04-6.22.02-1.773.099-3.567.179-5.301.08-1.735.159-3.529.179-5.303.04-2.272 0-4.604-.02-6.837-.02-1.495-.04-3.05-.04-4.564 0-.18-.04-.379-.06-.598-.06-.459-.14-.957.14-1.276.438-.558 1.276-1.017 1.973-1.076 1.176-.06 2.352-.08 3.488-.08.758 0 1.515 0 2.273-.04.478 0 1.575 0 1.654 1.196v.02c0 .937-.578 1.495-1.594 1.495h-5.641v13.853c.358-.04.717-.06 1.056-.1.897-.06 1.834-.139 2.691-.338h.02c.16-.04.299-.04.438-.04.618 0 1.017.339 1.157.937v.04c.02.279.02.797-.3 1.196-.219.259-.538.398-.936.438-1.236.06-2.412.1-3.588.16h-.02c-.518 0-.658.12-.658.657a422.68 422.68 0 0 1-.1 5.123c-.04 1.675-.08 3.389-.1 5.103-.06 2.671-.099 5.382-.139 8.013-.04 2.631-.08 5.362-.14 8.053v4.764c0 .498 0 .658.698.658 1.256-.06 2.612.259 3.887.598.399.12.618.518.818.877.08.14.139.259.219.359l.2.279-.3.179c-.12.06-.22.16-.339.26-.239.198-.518.418-.877.418z"/></g></g><g><g><path fill="#fff592" d="M64.263 86.128c-.658 0-1.057-1.156-1.635-3.588-.04-.2-.08-.359-.12-.518-.458-1.834-.876-3.728-1.295-5.542-.379-1.634-.757-3.329-1.176-5.003-.18-.738-.439-1.495-.678-2.213a36.367 36.367 0 0 1-.498-1.574c-.2-.698-.399-1.396-.578-2.073-.3-1.097-.598-2.233-.977-3.33a251.253 251.253 0 0 0-1.814-5.48c-.299-.878-.598-1.775-.917-2.672-.259 1.655-.518 3.35-.757 4.984-.26 1.674-.518 3.408-.777 5.102a679.519 679.519 0 0 0-1.555 10.007c-.479 3.17-.857 6.418-1.236 9.568v.02c-.02.179-.08.338-.12.498-.04.16-.08.319-.1.458v.02c-.179.818-.657 1.316-1.295 1.316-.14 0-.26-.02-.399-.06h-.02c-.518-.22-.956-1.216-.877-1.774v-.02c.439-2.551.897-5.123 1.376-7.614.458-2.492.937-5.063 1.355-7.595.24-1.375.399-2.79.558-4.166.12-1.096.24-2.212.419-3.329.16-1.016.379-2.053.578-3.05.14-.717.299-1.474.439-2.212.08-.438.159-.877.259-1.296.339-1.793.717-3.627.917-5.481.08-.698-.16-1.475-.38-2.213-.039-.16-.099-.299-.139-.458-.339-1.057-.677-2.113-1.016-3.19-1.037-3.248-2.093-6.597-3.11-9.886-.12-.439 0-1.435.479-1.655.239-.12.458-.179.677-.179.578 0 1.017.419 1.196 1.136.32 1.176.658 2.332.997 3.469.299.976.598 1.993.877 3.01.419 1.375.777 2.79 1.156 4.165.18.698.379 1.396.558 2.093.34-1.574.698-3.249 1.116-4.903.758-2.731 1.555-5.482 2.412-8.213.12-.398.798-.657 1.137-.657.04 0 .1 0 .14.02l.059.02c.359.14.877.757.777 1.196-.16.896-.398 1.774-.638 2.63-.1.34-.179.678-.279 1.017-.299 1.037-.558 2.113-.837 3.13-.259 1.036-.538 2.093-.837 3.15-.419 1.534-.857 3.109-1.395 4.624-.36.936-.399 1.654-.16 2.61.419 1.476.817 2.99 1.176 4.446.359 1.455.758 2.97 1.176 4.425.2.718.479 1.395.758 2.133.299.757.618 1.555.837 2.372a352.715 352.715 0 0 1 1.674 6.16c.439 1.594.877 3.248 1.316 4.883a161.45 161.45 0 0 0 1.674 5.96c.26.857.499 1.734.738 2.59.12.4.06.958-.14 1.536-.219.598-.578 1.016-.976 1.156h-.02c0 .04-.04.04-.08.04z"/></g></g><g><g><path fill="#fff592" d="M41.165 29.96a1.57 1.57 0 0 0 1.555-1.555 1.57 1.57 0 0 0-1.555-1.555 1.57 1.57 0 0 0-1.555 1.555 1.57 1.57 0 0 0 1.555 1.555z"/></g></g><g><g><path fill="#fff592" d="M70.025 29.96a1.57 1.57 0 0 0 1.555-1.555 1.57 1.57 0 0 0-1.555-1.555 1.57 1.57 0 0 0-1.555 1.555c.02.857.718 1.555 1.555 1.555z"/></g></g></g></g></g></svg>