<svg width="69" height="69" viewBox="0 0 69 69" fill="none" xmlns="http://www.w3.org/2000/svg">
<path d="M34.5 69C53.5538 69 69 53.5538 69 34.5C69 15.4462 53.5538 0 34.5 0C15.4462 0 0 15.4462 0 34.5C0 53.5538 15.4462 69 34.5 69Z" fill="url(#paint0_linear_1201_1174)"/>
<path d="M16.5361 27.5007V25.8153C16.5361 23.0369 16.295 22.3156 15.421 22.3156C15.0273 22.3156 14.3925 22.4904 14.3925 23.1914C14.3925 23.3662 14.4366 23.5852 14.5231 23.8262H15.0696C15.1782 24.1096 15.2444 24.3948 15.2444 24.8106C15.2444 25.8392 14.4127 26.5163 13.3198 26.5163C11.9637 26.5163 11.4393 25.7729 11.4393 24.7002C11.4393 22.8621 13.0364 22.0101 16.0117 22.0101C19.447 22.0101 20.6062 22.9725 20.6062 26.1446V30.5864C20.6062 31.4824 20.8693 31.7235 21.241 31.7235C21.6347 31.7235 22.0064 31.3077 22.1168 29.4695L22.4443 29.4916C22.3358 32.1172 21.5262 32.8606 19.6438 32.8606C17.8719 32.8606 16.8875 32.3141 16.6244 31.2414C16.2748 32.292 15.64 32.8606 14.1091 32.8606C12.5782 32.8606 10.8707 32.4006 10.8707 30.2128C10.8707 28.003 12.7733 27.5007 15.9031 27.5007H16.5361ZM16.5361 29.8853V27.8503H16.3834C15.4652 27.8503 15.0273 28.5072 15.0273 29.8412V30.1908C15.0273 31.7658 15.18 31.9848 15.5958 31.9848C16.0117 31.9866 16.5361 31.2856 16.5361 29.8853Z" fill="white"/>
<path d="M27.9772 22.2291V24.2421C28.3489 23.1491 29.0701 22.0101 31.2377 22.0101C33.2727 22.0101 34.6288 23.0166 34.6288 25.6644V32.2497H35.8542V32.6435H29.6626V32.2497H30.5587V25.14C30.5587 23.2797 30.2956 23.0608 29.7491 23.0608C28.8309 23.0608 27.9772 24.4389 27.9772 26.2109V32.2497H28.9174V32.6435H22.7037V32.2497H23.9071V22.6247H22.7037V22.2309H27.9772V22.2291Z" fill="white"/>
<path d="M37.1219 22.6228H35.9186V22.2291H37.1219V19.4065L41.1902 18.4V22.2291H44.0348V22.6228H41.1902V29.9957C41.1902 31.2874 41.3871 31.9866 42.1525 31.9866C43.2031 31.9866 43.8582 31.0243 44.0551 29.5357L44.4267 29.5799C44.2299 31.2874 43.5086 32.8606 40.8387 32.8606C38.6731 32.8606 37.1201 32.2258 37.1201 29.5136V22.6228H37.1219Z" fill="white"/>
<path d="M15.3474 36.3713C15.8277 35.2765 16.6594 34.4246 18.3669 34.4246C20.8178 34.4246 22.3266 36.1523 22.3266 39.871C22.3266 43.6117 20.7957 45.2751 17.8204 45.2751C16.3337 45.2751 15.7854 44.8813 15.3916 44.2023V49.8677H18.2142V50.2615H10.12V49.8677H11.3234V35.0354H10.1642V34.6417H15.3493V36.3713H15.3474ZM15.3916 38.3842V42.3881C15.3916 43.5694 15.8516 44.6421 16.8139 44.6421C17.8866 44.6421 18.1038 43.3504 18.1038 40.3107V39.1718C18.1038 36.0879 17.8406 35.3648 17.0973 35.3648C16.2012 35.3648 15.3916 36.4817 15.3916 38.3842Z" fill="white"/>
<path d="M28.8678 39.9151V38.2297C28.8678 35.4513 28.6267 34.73 27.7527 34.73C27.359 34.73 26.7242 34.9048 26.7242 35.6058C26.7242 35.7806 26.7683 35.9996 26.8548 36.2406H27.4013C27.5098 36.524 27.5761 36.8092 27.5761 37.225C27.5761 38.2536 26.7444 38.9307 25.6514 38.9307C24.2954 38.9307 23.771 38.1874 23.771 37.1146C23.771 35.2765 25.3681 34.4246 28.3434 34.4246C31.7786 34.4246 32.9378 35.3869 32.9378 38.559V43.0008C32.9378 43.8969 33.201 44.1379 33.5726 44.1379C33.9664 44.1379 34.3381 43.7221 34.4485 41.8839L34.776 41.906C34.6674 44.5317 33.8578 45.275 31.9755 45.275C30.2036 45.275 29.2192 44.7286 28.9561 43.6558C28.6065 44.7065 27.9717 45.275 26.4408 45.275C24.9099 45.275 23.2024 44.815 23.2024 42.6273C23.2024 40.4174 25.105 39.9151 28.2348 39.9151H28.8678V39.9151ZM28.8678 42.2998V40.2647H28.715C27.7969 40.2647 27.359 40.9216 27.359 42.2556V42.6052C27.359 44.1802 27.5117 44.3992 27.9275 44.3992C28.3434 44.401 28.8678 43.7 28.8678 42.2998Z" fill="white"/>
<path d="M39.3245 39.3466V40.4837C39.3245 43.2842 39.8268 44.5317 41.5343 44.5317C43.5252 44.5317 44.379 42.8462 44.6182 41.665L45.0119 41.7091C44.7267 43.0652 44.0054 45.275 40.3512 45.275C36.9822 45.275 35.0999 43.3946 35.0999 39.9814C35.0999 36.3069 37.3318 34.4246 40.9418 34.4246C43.6117 34.4246 44.9457 35.5617 44.9457 37.203C44.9457 38.559 44.2244 39.2601 43.1296 39.2601C41.9925 39.2601 41.1829 38.6694 41.1829 37.444C41.1829 37.2471 41.205 36.9638 41.2914 36.6565H42.0127C42.1213 36.351 42.1654 36.0879 42.1654 35.869C42.1654 35.1256 41.7275 34.8183 41.1148 34.8183C39.8489 34.8183 39.3245 36.0879 39.3245 39.3466Z" fill="white"/>
<path d="M52.4933 44.6623H53.4998L51.0287 39.5876L50.6128 39.6962V44.6623H51.6193V45.0561H45.3394V44.6623H46.5428V29.0426H45.2529V28.6488H50.6128V39.2601L50.9624 39.1276L55.8844 35.0373H53.8292V34.6435H58.1384V35.0373H56.6076L54.004 37.2471L57.7888 44.6623H58.5764V45.0561H52.4933V44.6623Z" fill="white"/>
<path d="M31.9572 48.1215L31.3334 48.4638C31.2156 48.3405 31.0997 48.2558 30.9856 48.208C30.8716 48.1602 30.7372 48.1362 30.5827 48.1362C30.303 48.1362 30.0767 48.219 29.9037 48.3865C29.7308 48.5539 29.6443 48.7674 29.6443 49.0286C29.6443 49.2826 29.7271 49.4905 29.8945 49.6506C30.062 49.8106 30.2809 49.8916 30.5514 49.8916C30.8863 49.8916 31.1476 49.7775 31.3334 49.5494L31.924 49.9542C31.6039 50.37 31.1531 50.5779 30.5698 50.5779C30.0454 50.5779 29.6332 50.4234 29.337 50.1124C29.0408 49.8014 28.8917 49.4371 28.8917 49.0213C28.8917 48.7324 28.9635 48.4656 29.1088 48.2227C29.2524 47.9798 29.4548 47.7885 29.7142 47.6505C29.9736 47.5106 30.2625 47.4426 30.5827 47.4426C30.8789 47.4426 31.1439 47.5014 31.3812 47.6192C31.6131 47.737 31.8063 47.9044 31.9572 48.1215Z" fill="#FFF100"/>
<path d="M34.0327 47.4407C34.3142 47.4407 34.5792 47.5106 34.8276 47.6523C35.076 47.794 35.2692 47.9835 35.4072 48.2264C35.5452 48.4674 35.6151 48.7287 35.6151 49.0084C35.6151 49.2899 35.5452 49.553 35.4053 49.7977C35.2655 50.0424 35.0741 50.2338 34.8331 50.3718C34.592 50.5098 34.3252 50.5779 34.0345 50.5779C33.6058 50.5779 33.2415 50.4252 32.9379 50.1216C32.6361 49.818 32.4834 49.4481 32.4834 49.012C32.4834 48.5465 32.6545 48.1564 32.9968 47.8455C33.2985 47.5768 33.6426 47.4407 34.0327 47.4407ZM34.0456 48.1454C33.8137 48.1454 33.6187 48.2264 33.4641 48.3883C33.3096 48.5502 33.2323 48.7581 33.2323 49.0102C33.2323 49.2696 33.3077 49.4794 33.4623 49.6413C33.615 49.8032 33.8082 49.8824 34.0437 49.8824C34.2792 49.8824 34.4724 49.8014 34.6288 49.6376C34.7852 49.4739 34.8625 49.266 34.8625 49.0102C34.8625 48.7544 34.7852 48.5465 34.6325 48.3864C34.478 48.2264 34.2829 48.1454 34.0456 48.1454Z" fill="#FFF100"/>
<path d="M38.4303 46.3661H39.1792V50.5025H38.4303V50.1878C38.2849 50.3277 38.1377 50.427 37.9905 50.4878C37.8433 50.5485 37.6851 50.5798 37.5121 50.5798C37.1276 50.5798 36.7927 50.4307 36.513 50.1308C36.2315 49.8327 36.0917 49.4592 36.0917 49.0158C36.0917 48.5539 36.2278 48.1767 36.5002 47.8823C36.7725 47.5879 37.1037 47.4407 37.4919 47.4407C37.6704 47.4407 37.8397 47.4738 37.9961 47.5419C38.1525 47.61 38.2978 47.7112 38.4321 47.8473V46.3661H38.4303ZM37.6428 48.1325C37.411 48.1325 37.2196 48.2135 37.065 48.3773C36.9123 48.541 36.835 48.7508 36.835 49.0065C36.835 49.2641 36.9123 49.4757 37.0687 49.6432C37.2251 49.8106 37.4165 49.8934 37.6446 49.8934C37.8801 49.8934 38.0752 49.8125 38.2297 49.6487C38.3843 49.4849 38.4616 49.2715 38.4616 49.0047C38.4616 48.7453 38.3843 48.5355 38.2297 48.3736C38.0752 48.2135 37.8801 48.1325 37.6428 48.1325Z" fill="#FFF100"/>
<path d="M42.9254 49.2274H40.5205C40.5555 49.439 40.6475 49.6082 40.7983 49.7334C40.9492 49.8585 41.1424 49.921 41.3761 49.921C41.6558 49.921 41.8968 49.8235 42.0974 49.6285L42.7285 49.9247C42.5721 50.1474 42.3826 50.313 42.1636 50.4197C41.9447 50.5264 41.6834 50.5798 41.3816 50.5798C40.9143 50.5798 40.5315 50.4326 40.2371 50.1363C39.9427 49.8419 39.7955 49.4721 39.7955 49.0268C39.7955 48.5723 39.9427 48.1933 40.2353 47.8934C40.5297 47.5916 40.8959 47.4426 41.3393 47.4426C41.8085 47.4426 42.1912 47.5934 42.4856 47.8934C42.78 48.1951 42.9272 48.5907 42.9272 49.0857L42.9254 49.2274ZM42.1765 48.6367C42.1268 48.4711 42.0293 48.335 41.8839 48.2301C41.7386 48.1252 41.5693 48.0737 41.3761 48.0737C41.1682 48.0737 40.9842 48.1326 40.8259 48.2485C40.7266 48.3221 40.6364 48.4509 40.5518 48.6349H42.1765V48.6367Z" fill="#FFF100"/>
<path d="M44.495 48.6183V47.5916H45.1795V48.6183H46.2062V49.3047H45.1795V50.3314H44.495V49.3047H43.4683V48.6183H44.495Z" fill="#FFF100"/>
<path d="M49.8236 48.1215L49.1999 48.4638C49.0821 48.3405 48.9662 48.2558 48.8521 48.208C48.738 48.1602 48.6037 48.1362 48.4491 48.1362C48.1695 48.1362 47.9431 48.219 47.7702 48.3865C47.5972 48.5539 47.5107 48.7674 47.5107 49.0286C47.5107 49.2826 47.5935 49.4905 47.761 49.6506C47.9284 49.8106 48.1474 49.8916 48.4179 49.8916C48.7527 49.8916 49.014 49.7775 49.1999 49.5494L49.7905 49.9542C49.4703 50.37 49.0195 50.5779 48.4363 50.5779C47.9119 50.5779 47.4997 50.4234 47.2035 50.1124C46.9072 49.8014 46.7582 49.4371 46.7582 49.0213C46.7582 48.7324 46.8299 48.4656 46.9753 48.2227C47.1207 47.9798 47.3212 47.7885 47.5807 47.6505C47.8401 47.5106 48.129 47.4426 48.4491 47.4426C48.7454 47.4426 49.0103 47.5014 49.2477 47.6192C49.4814 47.737 49.6746 47.9044 49.8236 48.1215Z" fill="#FFF100"/>
<path d="M50.3221 47.518H50.9643V47.8933C51.0342 47.7443 51.1262 47.632 51.2421 47.5566C51.3581 47.4793 51.4832 47.4407 51.6212 47.4407C51.7187 47.4407 51.8199 47.4664 51.9248 47.518L51.6911 48.162C51.6028 48.1178 51.531 48.0957 51.474 48.0957C51.3581 48.0957 51.2605 48.1675 51.1814 48.3092C51.1023 48.4527 51.0618 48.7324 51.0618 49.1482L51.0655 49.2936V50.5006H50.3221V47.518Z" fill="#FFF100"/>
<path d="M54.4972 47.518H55.2461V50.5024H54.4972V50.1878C54.3519 50.3276 54.2047 50.427 54.0575 50.4877C53.9103 50.5484 53.752 50.5797 53.5791 50.5797C53.1945 50.5797 52.8615 50.4307 52.5799 50.1308C52.2984 49.8327 52.1586 49.4592 52.1586 49.0157C52.1586 48.5539 52.2947 48.1767 52.5671 47.8823C52.8394 47.5879 53.1706 47.4407 53.5588 47.4407C53.7373 47.4407 53.9066 47.4738 54.063 47.5419C54.2194 47.61 54.3647 47.7112 54.4991 47.8473V47.518H54.4972ZM53.7097 48.1325C53.4779 48.1325 53.2865 48.2135 53.1319 48.3772C52.9792 48.541 52.9019 48.7508 52.9019 49.0065C52.9019 49.2641 52.9792 49.4757 53.1356 49.6432C53.292 49.8106 53.4834 49.8934 53.7115 49.8934C53.9471 49.8934 54.1421 49.8124 54.2967 49.6487C54.4512 49.4849 54.5285 49.2715 54.5285 49.0047C54.5285 48.7452 54.4512 48.5355 54.2967 48.3736C54.1439 48.2135 53.9471 48.1325 53.7097 48.1325Z" fill="#FFF100"/>
<path d="M55.6472 47.518H55.914C55.9159 47.1261 55.9214 46.8961 55.9324 46.8243C55.9527 46.6587 56.0207 46.5299 56.1385 46.4342C56.2563 46.3386 56.4237 46.2907 56.639 46.2907C56.7935 46.2907 56.9702 46.3257 57.1652 46.3974V46.9678C57.0567 46.9365 56.9683 46.9218 56.8984 46.9218C56.8101 46.9218 56.7457 46.9402 56.7071 46.977C56.6776 47.0046 56.6629 47.0617 56.6629 47.1463L56.6611 47.5198H57.1358V48.1528H56.6611V50.5043H55.9122V48.1528H55.6454V47.518H55.6472Z" fill="#FFF100"/>
<path d="M57.6657 46.4177H58.4146V47.518H58.858V48.162H58.4146V50.5025H57.6657V48.162H57.2811V47.518H57.6657V46.4177Z" fill="#FFF100"/>
<defs>
<linearGradient id="paint0_linear_1201_1174" x1="102.589" y1="-18.7557" x2="16.2512" y2="48.7732" gradientUnits="userSpaceOnUse">
<stop offset="0.00833985" stop-color="#FE6706"/>
<stop offset="1" stop-color="#EF0C75"/>
</linearGradient>
</defs>
</svg>
