<svg width="23" height="23" viewBox="0 0 23 23" fill="none" xmlns="http://www.w3.org/2000/svg">
<path d="M8.45435 16.8988C10.6189 16.8988 12.6542 16.0553 14.1853 14.5247C15.716 12.994 16.559 10.9588 16.559 8.7937C16.559 6.62915 15.7155 4.59385 14.1853 3.06319C12.6541 1.532 10.6194 0.689087 8.45435 0.689087C6.28926 0.689087 4.2545 1.53254 2.72337 3.06319C1.19271 4.59385 0.349733 6.62908 0.349733 8.7937C0.349733 10.9588 1.19318 12.9941 2.72337 14.5247C4.25456 16.0553 6.2898 16.8988 8.45435 16.8988ZM8.45435 2.55841C10.1196 2.55841 11.6853 3.20703 12.8632 4.3849C14.0408 5.56252 14.6894 7.12829 14.6894 8.7935C14.6894 10.4592 14.0408 12.0247 12.8632 13.2024C11.6853 14.38 10.1196 15.0289 8.45435 15.0289C6.78914 15.0289 5.22337 14.3802 4.04548 13.2024C2.86786 12.0247 2.21926 10.459 2.21926 8.7935C2.21926 7.12829 2.86788 5.56252 4.04548 4.3849C5.22337 3.20701 6.78914 2.55841 8.45435 2.55841Z" fill="white"/>
<path d="M21.6036 22.8772C21.8428 22.8772 22.082 22.7859 22.2646 22.6034C22.6297 22.2386 22.6297 21.6469 22.2646 21.2813L14.1853 13.2026C13.8202 12.8376 13.2288 12.8376 12.8632 13.2026C12.4981 13.5675 12.4981 14.1592 12.8632 14.5248L20.9425 22.6041C21.125 22.7863 21.3645 22.8776 21.6037 22.8776L21.6036 22.8772Z" fill="white"/>
</svg>
