<svg width="40" height="40" viewBox="0 0 40 40" fill="none" xmlns="http://www.w3.org/2000/svg">
<path d="M20 40C31.0457 40 40 31.0457 40 20C40 8.95431 31.0457 0 20 0C8.95431 0 0 8.95431 0 20C0 31.0457 8.95431 40 20 40Z" fill="white"/>
<path d="M7.896 15H9.168L10.28 11.112L11.36 15H12.624L14.432 9.08H13.112L12.32 11.664C12.216 12.008 12.128 12.336 12.008 12.936C11.904 12.368 11.808 12.008 11.712 11.648L11.016 9.08H9.568L8.84 11.648C8.736 12.016 8.64 12.352 8.544 12.936C8.448 12.352 8.352 12 8.248 11.648L7.472 9.08H6.12L7.896 15ZM17.7467 15V12.616H20.0347V15H21.3307V9.08H20.0347V11.416H17.7467V9.08H16.4507V15H17.7467ZM29.3121 12.032C29.3121 10.224 28.1281 8.976 26.4081 8.976C24.6961 8.976 23.5121 10.232 23.5121 12.04C23.5121 13.848 24.6881 15.096 26.4001 15.096C28.1201 15.096 29.3121 13.84 29.3121 12.032ZM27.9441 12.032C27.9441 13.152 27.3681 13.848 26.4161 13.848C25.4561 13.848 24.8801 13.168 24.8801 12.032C24.8801 10.904 25.4561 10.224 26.4161 10.224C27.3681 10.224 27.9441 10.904 27.9441 12.032ZM6.616 23H9.08C10.36 23 11.064 22.416 11.064 21.368C11.064 20.696 10.752 20.24 10.168 20.048C10.704 19.816 10.992 19.352 10.992 18.72C10.992 17.704 10.272 17.08 9.08 17.08H6.616V23ZM8.944 18.216C9.416 18.216 9.664 18.432 9.664 18.848C9.664 19.272 9.408 19.504 8.944 19.504H7.912V18.216H8.944ZM9.008 20.592C9.48 20.592 9.736 20.808 9.736 21.208C9.736 21.648 9.488 21.864 9.008 21.864H7.912V20.592H9.008ZM13.1763 20.776C13.1763 22.192 14.1283 23.096 15.6083 23.096C17.0963 23.096 18.0563 22.184 18.0563 20.776V17.08H16.7603V20.688C16.7603 21.416 16.3443 21.84 15.6083 21.84C14.8803 21.84 14.4723 21.432 14.4723 20.688V17.08H13.1763V20.776ZM21.8236 17.08H20.5276V23H21.8236V17.08ZM25.6348 17.08H24.3388V23H27.9708V21.8H25.6348V17.08ZM32.3841 23C34.0721 23 35.2481 21.784 35.2481 20.056C35.2481 18.296 34.0401 17.08 32.3041 17.08H30.0641V23H32.3841ZM32.1761 18.28C33.2481 18.28 33.8801 18.936 33.8801 20.056C33.8801 21.152 33.2801 21.8 32.2561 21.8H31.3601V18.28H32.1761ZM6.16 26.28H7.84V31H9.136V26.28H10.816V25.08H6.16V26.28ZM14.1686 31V28.616H16.4566V31H17.7526V25.08H16.4566V27.416H14.1686V25.08H12.8726V31H14.1686ZM21.5579 25.08H20.2619V31H21.5579V25.08ZM23.7452 26.8C23.7452 27.768 24.2892 28.368 25.3452 28.584L26.2492 28.768C26.6412 28.848 26.7932 29.016 26.7932 29.344C26.7932 29.72 26.4252 29.952 25.8412 29.952C25.2652 29.952 24.9452 29.712 24.9452 29.28H23.6572C23.6572 30.392 24.5132 31.104 25.8332 31.104C27.1932 31.104 28.0892 30.36 28.0892 29.216C28.0892 28.28 27.5852 27.776 26.5292 27.56L25.6412 27.376C25.2252 27.288 25.0412 27.112 25.0412 26.752C25.0412 26.36 25.3772 26.12 25.9052 26.12C26.3932 26.12 26.7052 26.376 26.7052 26.792H27.9932C27.9932 25.672 27.1932 24.968 25.9212 24.968C24.6492 24.968 23.7452 25.728 23.7452 26.8ZM32.2762 29.392V29.224C32.2762 28.832 32.5882 28.592 32.9562 28.344C33.4122 28.032 33.9802 27.624 33.9802 26.752C33.9802 25.632 33.2282 24.968 31.9722 24.968C30.7242 24.968 29.8602 25.808 29.8602 27.032H31.1482C31.1482 26.472 31.4522 26.12 31.9402 26.12C32.3962 26.12 32.6522 26.384 32.6522 26.84C32.6522 27.232 32.3642 27.472 32.0362 27.736C31.6282 28.064 31.1642 28.448 31.1642 29.224V29.392H32.2762ZM31.7562 31.104C32.1562 31.104 32.4922 30.768 32.4922 30.384C32.4922 29.992 32.1562 29.656 31.7562 29.656C31.3482 29.656 31.0202 29.984 31.0202 30.384C31.0202 30.776 31.3482 31.104 31.7562 31.104Z" fill="black"/>
</svg>
