<svg width="27" height="25" viewBox="0 0 27 25" fill="none" xmlns="http://www.w3.org/2000/svg">
<path fill-rule="evenodd" clip-rule="evenodd" d="M22.5802 16.2926C22.2162 16.2926 21.8651 16.2385 21.5339 16.1391L20.3701 18.2114C21.0908 18.8738 21.5426 19.823 21.5426 20.8777C21.5426 22.879 19.9168 24.5014 17.9113 24.5014C16.1598 24.5014 14.698 23.2639 14.3558 21.6172H11.9066C11.5646 23.2639 10.1026 24.5014 8.35111 24.5014C6.34555 24.5014 4.71973 22.8788 4.71973 20.8777C4.71973 18.8764 6.34561 17.254 8.35111 17.254C10.1026 17.254 11.5644 18.4915 11.9066 20.1382H14.3558C14.6977 18.4915 16.1597 17.254 17.9113 17.254C18.3266 17.254 18.7255 17.3246 19.097 17.4525L20.2316 15.4317C19.4471 14.7671 18.9484 13.7763 18.9484 12.6689C18.9484 10.6676 20.5742 9.04521 22.5797 9.04521C24.5855 9.04521 26.2116 10.6676 26.2116 12.6689C26.2116 14.67 24.5857 16.2926 22.5802 16.2926ZM8.35063 18.7332C7.16353 18.7332 6.20167 19.6934 6.20167 20.8779C6.20167 22.0622 7.16401 23.0227 8.35063 23.0227C9.53773 23.0227 10.4996 22.0625 10.4996 20.8779C10.5001 19.6934 9.53773 18.7332 8.35063 18.7332ZM17.911 18.7332C16.7239 18.7332 15.7621 19.6934 15.7621 20.8779C15.7621 22.0622 16.7244 23.0227 17.911 23.0227C19.0981 23.0227 20.06 22.0625 20.06 20.8779C20.0605 19.6934 19.0981 18.7332 17.911 18.7332ZM22.5802 10.524C21.3931 10.524 20.4313 11.4842 20.4313 12.6687C20.4313 13.853 21.3936 14.8135 22.5802 14.8135C23.7673 14.8135 24.7292 13.8533 24.7292 12.6687C24.7292 11.4842 23.7673 10.524 22.5802 10.524ZM17.911 8.00985C15.9055 8.00985 14.2796 6.38727 14.2796 4.38615C14.2796 2.38485 15.9055 0.762451 17.911 0.762451C19.9166 0.762451 21.5424 2.38503 21.5424 4.38615C21.5426 6.38727 19.9168 8.00985 17.911 8.00985ZM17.911 2.24139C16.7239 2.24139 15.7621 3.20163 15.7621 4.38615C15.7621 5.57043 16.7244 6.53091 17.911 6.53091C19.0981 6.53091 20.06 5.57067 20.06 4.38615C20.0605 3.20163 19.0981 2.24139 17.911 2.24139ZM8.35063 8.00985C7.97656 8.00985 7.61587 7.95337 7.27603 7.8486L6.11515 9.91578C6.89329 10.5805 7.38685 11.567 7.38685 12.6692C7.38685 14.6705 5.76097 16.2929 3.75547 16.2929C1.74997 16.2929 0.124268 14.6699 0.124268 12.6688C0.124268 10.6675 1.75015 9.04512 3.75565 9.04512C4.12455 9.04512 4.48081 9.10067 4.81645 9.20262L5.98033 7.13028C5.20855 6.4656 4.71895 5.4831 4.71895 4.38624C4.71895 2.38494 6.34483 0.762541 8.35033 0.762541C10.3559 0.762541 11.9817 2.38512 11.9817 4.38624C11.9822 6.38736 10.3561 8.00994 8.35051 8.00994L8.35063 8.00985ZM1.60663 12.6687C1.60663 13.853 2.56897 14.8135 3.75559 14.8135C4.94269 14.8135 5.90455 13.8533 5.90455 12.6687C5.90455 11.4845 4.94221 10.524 3.75559 10.524C2.56873 10.524 1.60663 11.4842 1.60663 12.6687ZM8.35063 2.24133C7.16353 2.24133 6.20167 3.20157 6.20167 4.38609C6.20167 5.57037 7.16401 6.53085 8.35063 6.53085C9.53773 6.53085 10.4996 5.57061 10.4996 4.38609C10.5001 3.20157 9.53773 2.24133 8.35063 2.24133Z" fill="#DF2F44"/>
</svg>
