<svg width="42" height="42" viewBox="0 0 42 42" fill="none" xmlns="http://www.w3.org/2000/svg">
<path fill-rule="evenodd" clip-rule="evenodd" d="M30.5802 20.2926C30.2162 20.2926 29.8651 20.2385 29.5339 20.1391L28.3701 22.2114C29.0908 22.8738 29.5426 23.823 29.5426 24.8777C29.5426 26.879 27.9168 28.5014 25.9113 28.5014C24.1598 28.5014 22.698 27.2639 22.3558 25.6172H19.9066C19.5646 27.2639 18.1026 28.5014 16.3511 28.5014C14.3455 28.5014 12.7197 26.8788 12.7197 24.8777C12.7197 22.8764 14.3456 21.254 16.3511 21.254C18.1026 21.254 19.5644 22.4915 19.9066 24.1382H22.3558C22.6977 22.4915 24.1597 21.254 25.9113 21.254C26.3266 21.254 26.7255 21.3246 27.097 21.4525L28.2316 19.4317C27.4471 18.7671 26.9484 17.7763 26.9484 16.6689C26.9484 14.6676 28.5742 13.0452 30.5797 13.0452C32.5855 13.0452 34.2116 14.6676 34.2116 16.6689C34.2116 18.67 32.5857 20.2926 30.5802 20.2926ZM16.3506 22.7332C15.1635 22.7332 14.2017 23.6934 14.2017 24.8779C14.2017 26.0622 15.164 27.0227 16.3506 27.0227C17.5377 27.0227 18.4996 26.0625 18.4996 24.8779C18.5001 23.6934 17.5377 22.7332 16.3506 22.7332ZM25.911 22.7332C24.7239 22.7332 23.7621 23.6934 23.7621 24.8779C23.7621 26.0622 24.7244 27.0227 25.911 27.0227C27.0981 27.0227 28.06 26.0625 28.06 24.8779C28.0605 23.6934 27.0981 22.7332 25.911 22.7332ZM30.5802 14.524C29.3931 14.524 28.4313 15.4842 28.4313 16.6687C28.4313 17.853 29.3936 18.8135 30.5802 18.8135C31.7673 18.8135 32.7292 17.8533 32.7292 16.6687C32.7292 15.4842 31.7673 14.524 30.5802 14.524ZM25.911 12.0099C23.9055 12.0099 22.2796 10.3873 22.2796 8.38615C22.2796 6.38485 23.9055 4.76245 25.911 4.76245C27.9166 4.76245 29.5424 6.38503 29.5424 8.38615C29.5426 10.3873 27.9168 12.0099 25.911 12.0099ZM25.911 6.24139C24.7239 6.24139 23.7621 7.20163 23.7621 8.38615C23.7621 9.57043 24.7244 10.5309 25.911 10.5309C27.0981 10.5309 28.06 9.57067 28.06 8.38615C28.0605 7.20163 27.0981 6.24139 25.911 6.24139ZM16.3506 12.0099C15.9766 12.0099 15.6159 11.9534 15.276 11.8486L14.1151 13.9158C14.8933 14.5805 15.3868 15.567 15.3868 16.6692C15.3868 18.6705 13.761 20.2929 11.7555 20.2929C9.74997 20.2929 8.12427 18.6699 8.12427 16.6688C8.12427 14.6675 9.75015 13.0451 11.7556 13.0451C12.1246 13.0451 12.4808 13.1007 12.8164 13.2026L13.9803 11.1303C13.2085 10.4656 12.7189 9.4831 12.7189 8.38624C12.7189 6.38494 14.3448 4.76254 16.3503 4.76254C18.3559 4.76254 19.9817 6.38512 19.9817 8.38624C19.9822 10.3874 18.3561 12.0099 16.3505 12.0099L16.3506 12.0099ZM9.60663 16.6687C9.60663 17.853 10.569 18.8135 11.7556 18.8135C12.9427 18.8135 13.9045 17.8533 13.9045 16.6687C13.9045 15.4845 12.9422 14.524 11.7556 14.524C10.5687 14.524 9.60663 15.4842 9.60663 16.6687ZM16.3506 6.24133C15.1635 6.24133 14.2017 7.20157 14.2017 8.38609C14.2017 9.57037 15.164 10.5309 16.3506 10.5309C17.5377 10.5309 18.4996 9.57061 18.4996 8.38609C18.5001 7.20157 17.5377 6.24133 16.3506 6.24133Z" fill="#FAD7B1"/>
</svg>
