<svg width="28" height="27" viewBox="0 0 28 27" fill="none" xmlns="http://www.w3.org/2000/svg">
<path d="M23.792 12.0777C23.8941 11.8027 23.9847 11.5203 24.0494 11.2236C24.507 9.14452 24.0345 6.89313 22.785 5.20231C21.7369 3.78339 20.2523 2.92762 18.605 2.79262C14.02 2.41595 12.9972 2.19096 8.6654 0.605109C6.83166 -0.0662909 5.09692 -0.00159374 3.64869 0.792741C1.96883 1.71383 0.706206 3.60203 0.184721 5.97314C-0.451502 8.86482 1.23237 11.7897 4.80404 14.0531C3.93335 15.3621 3.51472 17.0339 3.51472 18.7038C3.51472 21.1617 5.0204 23.2604 7.86846 24.7723C10.0596 25.9355 12.9661 26.6583 15.4531 26.6583C15.5518 26.6583 15.6494 26.6569 15.7442 26.6547C20.2776 26.5436 27.9503 24.7436 27.9503 18.7039C27.9503 15.7753 26.1684 13.1321 23.7922 12.0778L23.792 12.0777ZM1.06318 6.16654C1.52885 4.04892 2.62871 2.3779 4.08039 1.58194C5.31025 0.906943 6.74927 0.862766 8.35539 1.45056C12.7447 3.05708 13.886 3.30821 18.531 3.6893C19.9156 3.8026 21.1694 4.53041 22.0609 5.73677C23.158 7.22259 23.5728 9.20136 23.1707 11.0303C23.1136 11.2899 23.0339 11.5366 22.9449 11.776C22.4989 11.6567 22.0395 11.5884 21.571 11.5884C21.3227 11.5884 21.0701 11.6055 20.8212 11.6392C18.5622 11.9448 17.1574 12.1001 15.7457 12.1001C14.3282 12.1001 12.8584 11.9382 10.6436 11.6392C10.2738 11.5892 9.90917 11.5637 9.561 11.5637C7.72325 11.5637 6.33267 12.259 5.35131 13.3394C3.58227 12.2232 0.300255 9.63532 1.06346 6.1661L1.06318 6.16654ZM15.7219 25.7552C15.6337 25.7574 15.5437 25.7588 15.4523 25.7588C10.9406 25.7588 4.41364 23.2464 4.41364 18.7038C4.41364 15.8252 5.76142 12.4635 9.56009 12.4635C9.86886 12.4635 10.1919 12.486 10.5226 12.531C12.7766 12.8351 14.2765 12.9999 15.7446 12.9999C17.2079 12.9999 18.6427 12.842 20.9415 12.5306C21.1508 12.5022 21.3622 12.4878 21.5701 12.4878C24.4895 12.4884 27.0493 15.3931 27.0493 18.7045C27.0493 24.0618 19.6395 25.6597 15.7211 25.7558L15.7219 25.7552Z" fill="#FAD7B1"/>
<path d="M14.8631 17.6567C14.6142 17.6567 14.4131 17.8578 14.4131 18.1067V19.0535C14.4131 19.3024 14.6142 19.5035 14.8631 19.5035C15.112 19.5035 15.3131 19.3024 15.3131 19.0535V18.1067C15.3131 17.8578 15.112 17.6567 14.8631 17.6567Z" fill="#FAD7B1"/>
<path d="M10.3326 20.8011C10.0837 20.8011 9.88257 21.0022 9.88257 21.2511V22.1979C9.88257 22.4468 10.0837 22.6479 10.3326 22.6479C10.5815 22.6479 10.7826 22.4468 10.7826 22.1979V21.2511C10.7826 21.0028 10.5809 20.8011 10.3326 20.8011Z" fill="#FAD7B1"/>
<path d="M9.32817 14.515C9.07927 14.515 8.87817 14.716 8.87817 14.965V15.9118C8.87817 16.1607 9.07927 16.3618 9.32817 16.3618C9.57708 16.3618 9.77817 16.1607 9.77817 15.9118V14.965C9.77817 14.716 9.57708 14.515 9.32817 14.515Z" fill="#FAD7B1"/>
<path d="M18.8667 14.515C18.6178 14.515 18.4167 14.716 18.4167 14.965V15.9118C18.4167 16.1607 18.6178 16.3618 18.8667 16.3618C19.1157 16.3618 19.3167 16.1607 19.3167 15.9118V14.965C19.3167 14.716 19.1155 14.515 18.8667 14.515Z" fill="#FAD7B1"/>
<path d="M19.8592 21.3832C19.6103 21.3832 19.4092 21.5843 19.4092 21.8332V22.7805C19.4092 23.0294 19.6103 23.2305 19.8592 23.2305C20.1081 23.2305 20.3092 23.0294 20.3092 22.7805V21.8332C20.3092 21.5847 20.1075 21.3832 19.8592 21.3832Z" fill="#FAD7B1"/>
<path d="M23.0838 17.0843C22.8349 17.0843 22.6338 17.2854 22.6338 17.5343V18.4815C22.6338 18.7304 22.8349 18.9315 23.0838 18.9315C23.3327 18.9315 23.5338 18.7304 23.5338 18.4815V17.5343C23.5338 17.286 23.3321 17.0843 23.0838 17.0843Z" fill="#FAD7B1"/>
<path d="M11.0968 9.1931C11.1291 9.20033 11.1617 9.20354 11.1936 9.20354C11.4001 9.20354 11.5865 9.06051 11.6328 8.84977L11.8357 7.92406C11.8887 7.68097 11.7352 7.44111 11.4923 7.38807C11.2488 7.33363 11.01 7.48791 10.9568 7.73099L10.7539 8.65671C10.7002 8.90019 10.8537 9.14005 11.0968 9.19311L11.0968 9.1931Z" fill="#FAD7B1"/>
<path d="M5.9956 11.2893C6.02795 11.2965 6.06089 11.2998 6.09284 11.2998C6.29935 11.2998 6.48578 11.1567 6.53199 10.9466L6.73529 10.0223C6.78893 9.77979 6.63485 9.53932 6.39237 9.48627C6.14928 9.43143 5.90942 9.58612 5.85638 9.8292L5.65308 10.7535C5.59923 10.9956 5.75312 11.2359 5.9956 11.2893L5.9956 11.2893Z" fill="#FAD7B1"/>
<path d="M6.36548 4.93378C6.39782 4.94102 6.43077 4.94423 6.46271 4.94423C6.66923 4.94423 6.85565 4.8012 6.90186 4.59106L7.10517 3.66673C7.15881 3.42426 7.00472 3.18379 6.76224 3.13075C6.51916 3.0753 6.27929 3.23059 6.22625 3.47367L6.02295 4.398C5.96911 4.63987 6.12299 4.88014 6.36547 4.93378L6.36548 4.93378Z" fill="#FAD7B1"/>
<path d="M15.6807 6.98326C15.713 6.99049 15.746 6.9937 15.7779 6.9937C15.9844 6.9937 16.1709 6.85067 16.2171 6.64053L16.4204 5.71662C16.474 5.47414 16.3205 5.23367 16.0774 5.18063C15.835 5.12479 15.5945 5.28007 15.5415 5.52356L15.3382 6.44747C15.2843 6.68975 15.4378 6.93002 15.6807 6.98325L15.6807 6.98326Z" fill="#FAD7B1"/>
<path d="M19.2479 10.4001C19.2802 10.4074 19.3132 10.4106 19.3451 10.4106C19.5516 10.4106 19.7381 10.2675 19.7843 10.0574L19.9876 9.13349C20.0412 8.89101 19.8877 8.65054 19.6447 8.5975C19.4016 8.54206 19.1617 8.69694 19.1087 8.94043L18.9054 9.86434C18.8513 10.1068 19.0048 10.3471 19.2479 10.4001L19.2479 10.4001Z" fill="#FAD7B1"/>
</svg>
