<svg width="36" height="36" viewBox="0 0 36 36" fill="none" xmlns="http://www.w3.org/2000/svg">
<path d="M27.7344 28.7136C25.1712 28.7136 23.0688 26.6113 23.0688 24.0481C23.0688 21.4849 25.1712 19.3825 27.7344 19.3825C30.2976 19.3825 32.3999 21.4849 32.3999 24.0481C32.3999 26.6113 30.2976 28.7136 27.7344 28.7136ZM27.7344 20.0448C25.5167 20.0448 23.7312 21.8304 23.7312 24.048C23.7312 26.2657 25.5167 28.0512 27.7344 28.0512C29.952 28.0512 31.7376 26.2657 31.7376 24.048C31.7376 21.8591 29.9518 20.0448 27.7344 20.0448Z" fill="#FAD7B1"/>
<path d="M30.2977 24.3936C30.125 24.3936 29.9809 24.2496 29.9809 24.0768C29.9809 22.8385 28.9728 21.8304 27.7345 21.8304C27.5618 21.8304 27.4177 21.6864 27.4177 21.5136C27.4177 21.3408 27.5618 21.1968 27.7345 21.1968C29.3473 21.1968 30.6433 22.4927 30.6433 24.1055C30.6433 24.2208 30.4992 24.3936 30.2977 24.3936Z" fill="#FAD7B1"/>
<path d="M21.8592 28.7136C19.872 28.7136 18.2305 27.1009 18.2305 25.0849C18.2305 23.0976 19.8432 21.4561 21.8592 21.4561C22.608 21.4561 23.2992 21.6865 23.9328 22.0897C24.0769 22.2048 24.1056 22.4065 24.0192 22.5506C23.9041 22.6946 23.7024 22.7233 23.5584 22.6369C23.0688 22.2914 22.4928 22.1186 21.888 22.1186C20.2463 22.1186 18.9216 23.4436 18.9216 25.085C18.9216 26.7268 20.2465 28.0514 21.888 28.0514C22.8384 28.0514 23.7599 27.5906 24.3071 26.7842C24.4222 26.6402 24.6239 26.6114 24.768 26.6978C24.912 26.8129 24.9407 27.0146 24.8543 27.1587C24.1632 28.1376 23.0401 28.7136 21.8592 28.7136L21.8592 28.7136Z" fill="#FAD7B1"/>
<path d="M3.91686 22.6368C3.83047 22.6368 3.74409 22.6081 3.68643 22.5504C3.57132 22.4353 3.57132 22.2049 3.68643 22.0896L17.2512 8.52475C17.3663 8.40964 17.5968 8.40964 17.7121 8.52475C17.8272 8.63986 17.8272 8.87029 17.7121 8.9856L4.17608 22.5216C4.08969 22.608 4.00331 22.6367 3.91692 22.6367L3.91686 22.6368Z" fill="#FAD7B1"/>
<path d="M16.2719 13.4784C14.7168 13.4784 13.7951 12.4992 13.7664 12.4416C13.6513 12.2976 13.6513 12.0961 13.7951 11.9807C13.9392 11.8656 14.1407 11.8656 14.256 12.0095C14.3136 12.0671 15.3792 13.2191 17.1936 12.7007C17.3664 12.6431 17.5392 12.7584 17.5968 12.9312C17.6545 13.1039 17.5392 13.2767 17.3664 13.3343C16.9632 13.4497 16.6176 13.4784 16.2719 13.4784L16.2719 13.4784Z" fill="#FAD7B1"/>
<path d="M12.7296 18.2592C11.0015 18.2592 10.1088 16.9056 9.8784 16.1568C9.82074 15.9841 9.90712 15.8113 10.0801 15.7536C10.2529 15.696 10.4256 15.7824 10.4833 15.9553C10.512 16.0417 11.0882 17.7121 12.9024 17.597C13.0752 17.597 13.248 17.7122 13.248 17.9138C13.248 18.0866 13.1329 18.2594 12.9312 18.2594C12.8737 18.2592 12.7873 18.2592 12.7297 18.2592L12.7296 18.2592Z" fill="#FAD7B1"/>
<path d="M14.6016 20.1888C14.112 20.1888 13.6512 20.016 13.3056 19.6992C12.9025 19.3537 12.6433 18.8641 12.5856 18.3169C12.528 17.7696 12.7008 17.2513 13.0465 16.8481C13.392 16.4449 13.8816 16.1858 14.4288 16.1281C14.8608 16.0994 15.2929 16.1858 15.6671 16.4449C15.9839 16.1568 16.4159 15.9841 16.848 15.9266C17.2799 15.8979 17.712 15.9843 18.0863 16.2434C18.4031 15.9554 18.835 15.7826 19.2671 15.7251C19.9007 15.6675 20.4767 15.8979 20.9088 16.3587H21.0239C21.3695 16.33 21.6863 16.4451 21.9457 16.6468C22.2048 16.8773 22.3488 17.1651 22.3776 17.5109C22.4063 17.8564 22.2912 18.1732 22.0895 18.4326C21.8591 18.6917 21.5712 18.8358 21.2254 18.8645H21.1103C20.7648 19.3828 20.2176 19.6996 19.5839 19.7572C19.152 19.786 18.7199 19.6996 18.3456 19.4404C18.0288 19.7285 17.5969 19.9013 17.1648 19.9587C16.7329 19.9875 16.3007 19.9011 15.9265 19.6419C15.6097 19.93 15.1777 20.1028 14.7456 20.1602C14.7167 20.1887 14.659 20.1887 14.6016 20.1887L14.6016 20.1888ZM14.6016 16.7905H14.4865C13.7377 16.8481 13.1616 17.5105 13.2482 18.2592C13.2769 18.6337 13.4499 18.9505 13.7378 19.1809C14.0258 19.4114 14.3714 19.5265 14.7459 19.4978C15.1204 19.469 15.4371 19.2961 15.6963 19.0082C15.7539 18.9505 15.8403 18.8931 15.9267 18.8931C16.0131 18.8931 16.0995 18.9218 16.1571 18.9795C16.4452 19.2386 16.7907 19.3539 17.1652 19.325C17.5397 19.2963 17.8565 19.1233 18.1156 18.8354C18.1733 18.7778 18.2597 18.7203 18.346 18.7203C18.4324 18.7203 18.5188 18.749 18.5765 18.8067C18.8645 19.0658 19.2101 19.1811 19.5846 19.1522C20.0454 19.1235 20.4486 18.8354 20.679 18.4322C20.7367 18.3458 20.8231 18.2595 20.9382 18.2595L21.2263 18.2307C21.399 18.2307 21.5431 18.1443 21.6294 18.029C21.7446 17.9139 21.7735 17.7409 21.7735 17.5971C21.7735 17.4243 21.6871 17.2803 21.5718 17.1939C21.4567 17.0788 21.2837 17.0499 21.1399 17.0499L20.8518 17.0786C20.7367 17.0786 20.6214 17.0499 20.5637 16.9635C20.2756 16.589 19.8437 16.4162 19.3829 16.4452C19.0084 16.4739 18.6916 16.6469 18.4325 16.9348C18.3748 16.9924 18.2884 17.0499 18.202 17.0499C18.1156 17.0499 18.0293 17.0212 17.9716 16.9635C17.6835 16.7043 17.338 16.589 16.9635 16.618C16.589 16.6467 16.2722 16.8197 16.0131 17.1075C15.9554 17.1652 15.8691 17.2227 15.7827 17.2227C15.6963 17.2227 15.6099 17.1939 15.5522 17.1363C15.235 16.9056 14.9471 16.7905 14.6016 16.7905L14.6016 16.7905Z" fill="#FAD7B1"/>
<path d="M18.8354 14.6304C18.4609 14.6304 18.0866 14.5153 17.7698 14.3136C17.3379 14.0255 17.0498 13.5936 16.9347 13.0753C16.8196 12.557 16.9347 12.0385 17.2228 11.6066C17.5109 11.1746 17.9428 10.8866 18.4611 10.7715C18.8643 10.6851 19.2962 10.7427 19.6707 10.9155C19.9588 10.5987 20.3043 10.3972 20.7075 10.3106C21.1107 10.2242 21.5426 10.2819 21.9171 10.4546C22.2052 10.1378 22.5507 9.93634 22.9539 9.84973C23.5299 9.73462 24.1348 9.87846 24.5667 10.2529L24.653 10.2242C24.9699 10.1665 25.2866 10.2242 25.5747 10.397C25.8339 10.5697 26.0356 10.8578 26.093 11.1746C26.2371 11.837 25.805 12.4706 25.1426 12.6146L25.0563 12.6433C24.8258 13.1616 24.3363 13.5359 23.7603 13.6512C23.3571 13.7376 22.9252 13.68 22.5507 13.5072C22.2626 13.824 21.9171 14.0255 21.5139 14.1121C21.1107 14.1985 20.6788 14.1408 20.3043 13.9681C20.0162 14.2849 19.6707 14.4864 19.2675 14.573C19.0947 14.6017 18.9794 14.6304 18.8354 14.6304L18.8354 14.6304ZM18.8354 11.4049C18.749 11.4049 18.6626 11.4049 18.5762 11.4336C18.2307 11.4912 17.9426 11.6927 17.7698 11.9808C17.5681 12.2689 17.5107 12.6144 17.5971 12.9312C17.6547 13.2768 17.8562 13.5648 18.1443 13.7376C18.4324 13.9104 18.7779 13.9968 19.0947 13.9104C19.4402 13.8527 19.7283 13.6513 19.9011 13.3345C19.9588 13.2481 20.0162 13.2193 20.1028 13.1904C20.1892 13.1617 20.2756 13.1904 20.362 13.2481C20.65 13.4498 20.9956 13.5072 21.3411 13.4498C21.6866 13.3921 21.9747 13.1906 22.1475 12.8738C22.2052 12.7874 22.2626 12.7587 22.3492 12.7298C22.4356 12.7011 22.522 12.7298 22.6084 12.7874C22.8964 12.9891 23.242 13.0466 23.5875 12.9891C24.0194 12.9028 24.3652 12.6147 24.5092 12.2115C24.5379 12.0964 24.6533 12.0387 24.7396 12.0098L24.9988 11.9521C25.2869 11.8945 25.4884 11.6066 25.4307 11.2898C25.402 11.1457 25.3156 11.0306 25.2003 10.9442C25.0852 10.8579 24.9411 10.8291 24.7971 10.8579L24.5667 10.944C24.4516 10.9728 24.3362 10.944 24.2786 10.8577C23.9618 10.5408 23.5298 10.4257 23.1267 10.5121C22.7811 10.5698 22.4931 10.7713 22.3203 11.0881C22.2626 11.1745 22.2052 11.2032 22.1186 11.2321C22.0322 11.2608 21.9458 11.2321 21.8594 11.1745C21.5714 10.9728 21.2258 10.9153 20.8803 10.9728C20.5347 11.0304 20.2467 11.2319 20.0739 11.5487C20.0162 11.6351 19.9588 11.6638 19.8722 11.6927C19.7858 11.7215 19.6994 11.6927 19.613 11.6351C19.3539 11.4912 19.0947 11.4049 18.8354 11.4049L18.8354 11.4049Z" fill="#FAD7B1"/>
<path d="M13.9968 12.5568C13.9105 12.5568 13.8528 12.5281 13.7664 12.4704C13.7088 12.4128 12.2688 11.0881 12.8737 8.87042C12.9313 8.69766 13.1041 8.58234 13.2769 8.64C13.4496 8.69766 13.5649 8.87042 13.5073 9.04319C12.989 10.8576 14.1985 11.9519 14.1985 11.9808C14.3426 12.096 14.3426 12.2977 14.2273 12.4417C14.1983 12.5281 14.112 12.5568 13.9968 12.5568L13.9968 12.5568Z" fill="#FAD7B1"/>
<path d="M10.1665 16.3872C10.1377 16.3872 10.1088 16.3872 10.0801 16.3585C9.30242 16.0993 7.86242 15.1489 7.97772 13.2768C7.97772 13.104 8.15049 12.96 8.32326 12.96C8.49603 12.96 8.64007 13.1327 8.64007 13.3055C8.52496 15.12 10.2528 15.6959 10.2818 15.7246C10.4545 15.7823 10.5409 15.9551 10.4835 16.1278C10.4545 16.3008 10.3105 16.3872 10.1665 16.3872L10.1665 16.3872Z" fill="#FAD7B1"/>
<path d="M8.09275 13.6512H7.91998C7.37273 13.5935 6.88318 13.3631 6.53763 12.9312C6.19209 12.528 6.01933 11.9808 6.07679 11.4624C6.10551 11.0305 6.27848 10.5984 6.59508 10.2816C6.36466 9.9071 6.24954 9.47516 6.27827 9.04326C6.307 8.61136 6.47997 8.17921 6.79657 7.86241C6.53762 7.48795 6.42231 7.0558 6.45124 6.62391C6.50889 5.99031 6.8257 5.44306 7.34399 5.09751V4.9824C7.40164 4.29114 8.00633 3.7728 8.69759 3.8305C9.38884 3.8882 9.90719 4.49285 9.84948 5.1841V5.29921C10.3103 5.73113 10.5407 6.33601 10.4831 6.94091C10.4544 7.37283 10.2814 7.80496 9.96479 8.12176C10.1952 8.49623 10.3103 8.92816 10.2816 9.36006C10.2529 9.79198 10.0799 10.2241 9.7633 10.5409C9.99372 10.9154 10.1088 11.3473 10.0801 11.7792C10.0225 12.3265 9.79203 12.816 9.36011 13.1616C9.01437 13.4782 8.5535 13.6511 8.09265 13.6511L8.09275 13.6512ZM8.61125 4.49276C8.29444 4.49276 8.0353 4.72318 8.00635 5.04001L7.97762 5.32809C7.97762 5.44321 7.89124 5.52979 7.80485 5.58725C7.40166 5.81767 7.1425 6.22085 7.08485 6.6817C7.05613 7.05616 7.17124 7.4017 7.43039 7.6898C7.48805 7.74746 7.51678 7.83384 7.51678 7.92023C7.51678 8.00661 7.45912 8.093 7.40166 8.15065C7.11358 8.38108 6.94082 8.7266 6.91209 9.10105C6.88336 9.4755 6.99847 9.82105 7.25763 10.1092C7.31528 10.1668 7.34401 10.2532 7.34401 10.3396C7.34401 10.426 7.28636 10.5124 7.2289 10.57C6.94082 10.8004 6.76805 11.146 6.73932 11.5204C6.7106 11.8949 6.82571 12.2404 7.05614 12.5285C7.28656 12.8166 7.63208 12.9894 7.97784 13.0181C8.3523 13.0468 8.69784 12.9317 8.98594 12.7013C9.27402 12.4708 9.44679 12.1253 9.47552 11.7796C9.50424 11.4051 9.38913 11.0596 9.12998 10.7715C9.07232 10.7138 9.04359 10.6274 9.04359 10.541C9.04359 10.4547 9.10125 10.3683 9.15871 10.3106C9.44679 10.0802 9.61955 9.73467 9.64828 9.36022C9.67701 8.98575 9.56189 8.64022 9.30274 8.35211C9.24508 8.29446 9.21636 8.20807 9.21636 8.12169C9.21636 8.0353 9.27401 7.94892 9.33147 7.89126C9.61955 7.66084 9.79232 7.31531 9.82104 6.94086C9.84977 6.48002 9.677 6.04811 9.30275 5.76001C9.21636 5.70235 9.15871 5.58724 9.18763 5.47193L9.21636 5.18385C9.24509 4.86704 8.98594 4.55025 8.66911 4.5215C8.63998 4.49277 8.63998 4.49277 8.61125 4.49277V4.49276Z" fill="#FAD7B1"/>
<path d="M13.536 9.33119C13.3919 9.33119 13.2768 9.33119 13.1328 9.30246C12.6145 9.18735 12.1824 8.89927 11.8945 8.46737C11.6064 8.03545 11.52 7.51697 11.6064 6.99862C11.6928 6.59543 11.8945 6.22096 12.2113 5.96182C12.0385 5.58735 11.9809 5.15542 12.0673 4.75222C12.1537 4.34902 12.3554 3.97456 12.6722 3.71542C12.4994 3.34095 12.4418 2.90902 12.5281 2.50582C12.6433 1.92987 13.0177 1.44027 13.5362 1.18091L13.565 1.09453C13.709 0.43218 14.3426 0.0289798 15.005 0.144128C15.6673 0.28817 16.0705 0.92178 15.9554 1.58413L15.9841 1.64158C16.3586 2.10243 16.5024 2.67838 16.3873 3.25433C16.3009 3.65752 16.0992 4.03198 15.7824 4.29113C15.9552 4.6656 16.0128 5.09753 15.9264 5.50073C15.84 5.90392 15.6383 6.27838 15.3215 6.53753C15.4943 6.912 15.5519 7.34393 15.4656 7.74713C15.3505 8.26543 15.0624 8.69753 14.6305 8.98543C14.2849 9.21586 13.9105 9.33117 13.536 9.33117L13.536 9.33119ZM12.7583 4.86714C12.7007 5.21268 12.7583 5.55839 12.96 5.84629C13.0177 5.93267 13.0177 6.01906 13.0177 6.10544C12.989 6.19182 12.96 6.27821 12.8736 6.30714C12.5856 6.50884 12.3841 6.79671 12.2977 7.11354C12.24 7.45908 12.2977 7.77589 12.4705 8.06394C12.6722 8.35202 12.9313 8.55351 13.2769 8.61119C13.9681 8.75523 14.6305 8.32311 14.7745 7.63204C14.8322 7.2865 14.7745 6.94079 14.5728 6.65289C14.5441 6.59504 14.5441 6.50865 14.5441 6.42227C14.5728 6.33588 14.6018 6.2495 14.6881 6.22057C14.9762 6.01887 15.1777 5.73099 15.2641 5.41417C15.3217 5.06863 15.2641 4.72292 15.0624 4.43502C15.0047 4.34864 15.0047 4.26225 15.0047 4.17587C15.0335 4.08948 15.0624 4.0031 15.1488 3.97417C15.4369 3.77247 15.6383 3.48459 15.7247 3.16777C15.8111 2.73585 15.696 2.30372 15.3792 2.01587C15.2928 1.92949 15.2641 1.81417 15.2928 1.72779L15.3505 1.46863C15.4081 1.18055 15.2064 0.863732 14.9185 0.806286C14.6305 0.74863 14.3136 0.950327 14.2562 1.2382L14.1983 1.4399C14.1696 1.55501 14.1119 1.6416 13.9966 1.67033C13.5934 1.8431 13.3054 2.18862 13.219 2.59203C13.1613 2.93757 13.219 3.28328 13.4207 3.57118C13.4783 3.65756 13.4783 3.74395 13.4783 3.83033C13.4496 3.91672 13.4207 4.0031 13.3343 4.03203C13.0177 4.23353 12.816 4.52161 12.7583 4.86713L12.7583 4.86714Z" fill="#FAD7B1"/>
<path d="M18.6047 9.47521C18.1152 9.47521 17.6543 9.30245 17.3088 8.95692C16.9343 8.61138 16.7039 8.12182 16.6752 7.60332C16.6465 7.08502 16.8192 6.59521 17.1935 6.22097C17.4816 5.90416 17.8558 5.70267 18.259 5.61607C18.2878 5.21288 18.4607 4.80967 18.7486 4.52161C19.0367 4.2048 19.411 4.00332 19.8142 3.91671C19.8429 3.51352 20.0159 3.11031 20.3037 2.82226C20.7069 2.39034 21.2829 2.15991 21.8588 2.18866L21.9165 2.131C22.3773 1.64143 23.1261 1.61271 23.6156 2.04462C24.1052 2.50547 24.1339 3.25422 23.702 3.74377L23.6444 3.80142C23.7307 4.37737 23.558 4.98228 23.1548 5.41417C22.8667 5.73098 22.4924 5.93247 22.0892 6.01908C22.0605 6.42227 21.8875 6.82548 21.5997 7.11353C21.3116 7.43034 20.9373 7.63182 20.5341 7.71843C20.5054 8.12162 20.3324 8.52483 20.0445 8.81288C19.699 9.18734 19.2094 9.41778 18.6909 9.44648C18.6911 9.47521 18.6335 9.47521 18.6048 9.47521L18.6047 9.47521ZM21.715 2.85121C21.3694 2.85121 21.0237 2.99526 20.7646 3.2544C20.5342 3.51356 20.419 3.83035 20.4478 4.2048C20.4478 4.29119 20.419 4.37757 20.3614 4.43523C20.3037 4.49289 20.2174 4.55034 20.131 4.55034C19.7854 4.55034 19.4686 4.72311 19.2382 4.95353C19.0078 5.21269 18.8927 5.52948 18.9214 5.90393C18.9214 5.99032 18.8927 6.0767 18.835 6.13436C18.7774 6.19201 18.691 6.24947 18.6046 6.24947C18.2591 6.24947 17.9422 6.42224 17.7118 6.65266C17.4814 6.91181 17.3663 7.22861 17.3663 7.57436C17.395 7.9199 17.5391 8.23671 17.7695 8.46711C18.0287 8.69754 18.3454 8.81265 18.6912 8.81265C19.0367 8.78392 19.3535 8.63988 19.584 8.40946C19.8144 8.15031 19.9295 7.83351 19.9008 7.45906C19.9008 7.37268 19.9295 7.28629 19.9871 7.22863C20.0448 7.17098 20.1312 7.11352 20.2176 7.11352C20.5631 7.11352 20.8799 6.94075 21.1103 6.71033C21.3407 6.45118 21.4559 6.13438 21.4271 5.75993C21.4271 5.67355 21.4559 5.58716 21.5135 5.52951C21.5712 5.47185 21.6576 5.41439 21.7439 5.41439C22.0895 5.41439 22.4063 5.24162 22.6367 5.0112C22.9248 4.69439 23.0399 4.26246 22.9248 3.83035C22.896 3.71524 22.9248 3.59993 23.0112 3.51354L23.1839 3.31184C23.3856 3.08142 23.3856 2.7359 23.1552 2.53419C22.9248 2.3325 22.5792 2.3325 22.3775 2.56292L22.2048 2.76462C22.1184 2.851 22.032 2.87973 21.9167 2.87973C21.859 2.8512 21.8016 2.8512 21.715 2.8512L21.715 2.85121Z" fill="#FAD7B1"/>
</svg>
