<svg width="29" height="28" viewBox="0 0 29 28" fill="none" xmlns="http://www.w3.org/2000/svg">
<path d="M5.30018 21.2878C5.07308 21.2878 4.84847 21.2403 4.64073 21.1485L0.977616 19.5415H0.977929C0.442493 19.3053 0.0735272 18.8018 0.0098696 18.2201C-0.0541703 17.6385 0.196676 17.0668 0.668078 16.72C1.13916 16.373 1.75953 16.3036 2.29591 16.5376L5.95934 18.1449C6.42199 18.3485 6.76529 18.7543 6.88901 19.2445C7.01303 19.7349 6.904 20.2551 6.59349 20.6543C6.28297 21.0535 5.80595 21.2872 5.30018 21.2878V21.2878ZM1.63739 17.2945C1.28502 17.2945 0.980751 17.5413 0.908584 17.8861C0.83611 18.231 1.01511 18.5793 1.33781 18.7211L5.00092 20.3284C5.18179 20.4077 5.38672 20.4121 5.57072 20.3406C5.75472 20.2687 5.90279 20.1269 5.98182 19.946C6.14677 19.5696 5.97558 19.1307 5.59914 18.9651L1.93603 17.3578C1.842 17.3163 1.74016 17.2947 1.63738 17.2944L1.63739 17.2945ZM4.35484 11.1813C4.00996 11.181 3.67383 11.0723 3.39422 10.8705C3.11431 10.6687 2.90532 10.3841 2.79661 10.0567L1.53801 6.25966L1.5377 6.25998C1.40024 5.84668 1.43242 5.39588 1.62767 5.00665C1.82291 4.61742 2.16466 4.32158 2.57797 4.18446C2.99127 4.04764 3.44207 4.08044 3.83097 4.2763C4.22021 4.47186 4.51542 4.81424 4.65164 5.22781L5.91024 9.02463C6.07581 9.52446 5.99146 10.0733 5.68345 10.5004C5.37543 10.9274 4.88125 11.1807 4.35488 11.1814L4.35484 11.1813ZM3.09368 4.99944C3.01433 4.99913 2.93561 5.01194 2.86032 5.03693C2.47046 5.16688 2.25897 5.58798 2.38799 5.9782L3.64659 9.77526C3.77654 10.1648 4.19764 10.3757 4.58754 10.2463C4.97709 10.117 5.18889 9.69654 5.06019 9.30636L3.80159 5.50929C3.69976 5.20502 3.41485 4.99947 3.09371 4.99947L3.09368 4.99944ZM7.80578 14.6624C7.41779 14.6615 7.0423 14.5231 6.74679 14.272C6.45096 14.0205 6.25384 13.6725 6.19043 13.2895C6.12702 12.9068 6.20136 12.5138 6.40036 12.1805L8.4518 8.74646C8.67453 8.37222 9.0369 8.10231 9.45896 7.99548C9.881 7.88864 10.3283 7.95424 10.702 8.17728C11.0759 8.40065 11.3455 8.76333 11.4517 9.18565C11.5579 9.60769 11.4917 10.055 11.268 10.4283L9.21658 13.8624C8.99447 14.2366 8.63178 14.5066 8.20941 14.6121C8.07727 14.6456 7.942 14.6624 7.8058 14.6624L7.80578 14.6624ZM9.8613 8.84321V8.8429C9.5989 8.84259 9.35554 8.98035 9.22059 9.20559L7.16915 12.6397C7.06794 12.8093 7.03826 13.012 7.08668 13.2035C7.13479 13.395 7.25725 13.5593 7.42688 13.6609C7.77988 13.8717 8.23691 13.7561 8.4478 13.4031L10.4992 9.96907C10.7095 9.61607 10.5942 9.15935 10.2415 8.94783C10.1269 8.8791 9.99535 8.84287 9.86133 8.84287L9.8613 8.84321ZM13.472 6.17231C13.1061 6.17231 12.7513 6.04922 12.4639 5.82274L9.31437 3.35705C8.97105 3.08902 8.74832 2.69572 8.69553 2.26336C8.64242 1.83132 8.76363 1.3955 9.03197 1.05282C9.30031 0.709814 9.69423 0.487709 10.1266 0.435535C10.5587 0.383366 10.9942 0.504886 11.3365 0.773856L14.4867 3.24019C14.8291 3.50853 15.0506 3.90183 15.103 4.33356C15.1555 4.76528 15.0343 5.20014 14.7663 5.54282C14.4982 5.88519 14.1053 6.10731 13.6735 6.15979C13.6067 6.16791 13.5392 6.17197 13.4721 6.17228L13.472 6.17231ZM10.3262 1.32122C10.0085 1.3209 9.72545 1.52208 9.62174 1.8226C9.51802 2.12281 9.61611 2.45613 9.86634 2.65199L13.0162 5.11768C13.3398 5.37134 13.8081 5.31448 14.0614 4.99054C14.1833 4.83497 14.2382 4.63754 14.2145 4.44167C14.1908 4.24549 14.0899 4.06711 13.9343 3.94528H13.934L10.7841 1.47895H10.7844C10.6535 1.37649 10.4924 1.32088 10.3262 1.32119L10.3262 1.32122ZM15.833 15.1731C15.743 15.1731 15.6533 15.1656 15.5646 15.151C15.1354 15.0797 14.7521 14.8414 14.4987 14.4878C14.2457 14.1341 14.1432 13.6943 14.2142 13.2651L14.8671 9.3183V9.31861C14.9377 8.88907 15.1763 8.50545 15.53 8.25178C15.8836 7.99811 16.3237 7.89566 16.753 7.96688C17.1825 8.0378 17.5658 8.27646 17.8192 8.6304C18.0725 8.98434 18.1746 9.4245 18.1034 9.85373L17.4505 13.8005C17.3865 14.1835 17.1891 14.5315 16.8929 14.783C16.5968 15.0341 16.2213 15.1725 15.833 15.1731V15.1731ZM16.4846 8.84129C16.1207 8.84223 15.8105 9.10557 15.7505 9.46451L15.0976 13.4113C15.0307 13.8168 15.305 14.2001 15.7105 14.2675C16.116 14.3328 16.498 14.0592 16.5671 13.6543L17.22 9.70755V9.70786C17.2862 9.30206 17.0119 8.91938 16.6068 8.85128C16.5665 8.84472 16.5255 8.8416 16.4846 8.84128L16.4846 8.84129ZM12.5616 22.8554C12.2474 22.8551 11.9397 22.7645 11.6751 22.5946C11.4105 22.4246 11.2002 22.1822 11.069 21.8964L9.40682 18.258L9.40713 18.2583C9.16315 17.725 9.22251 17.1028 9.56239 16.6251C9.90196 16.1474 10.4708 15.8875 11.054 15.9431C11.6376 15.9984 12.1471 16.3611 12.3908 16.8941L14.053 20.5328C14.2844 21.0404 14.242 21.6311 13.9405 22.1007C13.6391 22.5702 13.1198 22.8545 12.5616 22.8554V22.8554ZM10.8975 16.8316C10.6442 16.8319 10.4086 16.9612 10.2721 17.1743C10.1353 17.3873 10.1165 17.6554 10.2218 17.8856L11.884 21.524L11.8837 21.5237C11.9656 21.7036 12.1155 21.8439 12.3007 21.9132C12.486 21.9823 12.6909 21.9751 12.8709 21.8929C13.0505 21.8111 13.1904 21.6608 13.2592 21.4753C13.3282 21.29 13.3204 21.0851 13.2379 20.9055V20.9052L11.576 17.2661C11.4542 17.0012 11.1893 16.8313 10.8975 16.8316L10.8975 16.8316ZM19.8631 6.42726H19.8628C19.4511 6.42695 19.0541 6.27169 18.7516 5.9921C18.4489 5.71282 18.2624 5.32952 18.2296 4.91872C18.1965 4.50824 18.3193 4.10029 18.5736 3.776L21.0409 0.627108C21.4023 0.166646 21.9824 -0.0660888 22.5619 0.0163862C23.1417 0.0988532 23.6334 0.48435 23.8524 1.02763C24.0711 1.57088 23.9836 2.18938 23.6228 2.65082L21.1559 5.79971C20.8444 6.19676 20.3677 6.42824 19.8629 6.42731L19.8631 6.42726ZM22.3336 0.894165C22.3029 0.894165 22.2723 0.89604 22.242 0.900101C22.0459 0.923217 21.8672 1.02412 21.7456 1.18L19.2787 4.3289C19.0259 4.65253 19.0828 5.11986 19.4064 5.37325C19.7298 5.62629 20.1971 5.56974 20.4508 5.24673L22.9178 2.09784C23.0933 1.87385 23.1258 1.56959 23.0018 1.31374C22.8775 1.05758 22.6182 0.894823 22.3336 0.894199L22.3336 0.894165ZM26.4783 15.1214C26.4633 15.1214 26.4487 15.1211 26.4334 15.1211V15.1208C25.9982 15.1105 25.5853 14.9262 25.2869 14.6091L22.5347 11.7063V11.7067C22.2351 11.3908 22.0733 10.9691 22.0852 10.5343C22.0968 10.0994 22.2808 9.68673 22.5969 9.38779C22.9149 9.09227 23.3344 8.93139 23.7683 8.93826C24.2038 8.94857 24.6167 9.13288 24.9151 9.44996L27.6673 12.3521V12.3524C27.9631 12.6644 28.1243 13.0799 28.1168 13.5098C28.1093 13.9393 27.9334 14.3492 27.627 14.6504C27.3205 14.9518 26.9082 15.1208 26.4783 15.1214L26.4783 15.1214ZM23.7243 9.83326C23.4269 9.83389 23.1582 10.011 23.0411 10.2844C22.9236 10.5577 22.9802 10.8745 23.1845 11.0903L25.9366 13.993H25.9369C26.22 14.2901 26.6904 14.3023 26.9884 14.0196C27.2861 13.7372 27.2992 13.2667 27.0174 12.9684L24.2653 10.0663V10.066C24.1297 9.92194 23.9423 9.83853 23.7449 9.83385C23.7377 9.83323 23.7311 9.83323 23.7242 9.83323L23.7243 9.83326ZM21.9193 21.4212V21.4215C21.5654 21.4209 21.2208 21.3062 20.9372 21.0941C20.6535 20.882 20.4458 20.584 20.3455 20.2444L19.2153 16.4067C19.0916 15.9894 19.1394 15.5398 19.3474 15.1575C19.5555 14.7751 19.9072 14.4908 20.3249 14.3681C20.7426 14.245 21.1918 14.2931 21.5741 14.5018C21.9562 14.7108 22.2395 15.0628 22.362 15.4805L23.4922 19.3178C23.6375 19.8136 23.541 20.3491 23.2317 20.7626C22.9221 21.1765 22.436 21.4205 21.9194 21.4214L21.9193 21.4212ZM20.79 15.199C20.5551 15.1987 20.3339 15.3092 20.193 15.4973C20.0522 15.6851 20.0081 15.9287 20.0743 16.154L21.2043 19.9913C21.3205 20.3859 21.7347 20.6114 22.1292 20.4952C22.5237 20.379 22.7493 19.9651 22.6331 19.5706L21.5029 15.7332C21.4098 15.4171 21.1199 15.1996 20.79 15.199L20.79 15.199ZM15.4669 27.9777C15.0689 27.9767 14.685 27.8312 14.3864 27.5681C14.0877 27.3051 13.895 26.9427 13.8437 26.5482C13.7925 26.1533 13.8865 25.7538 14.1083 25.4233L16.3363 22.1013V22.101C16.5784 21.7399 16.9542 21.4897 17.3812 21.4053C17.8079 21.3213 18.2505 21.41 18.612 21.6521C18.9731 21.8945 19.2237 22.2703 19.3077 22.697C19.3921 23.1238 19.303 23.5667 19.0609 23.9279L16.8324 27.2498L16.832 27.2501C16.5262 27.7044 16.0145 27.9771 15.4669 27.9777L15.4669 27.9777ZM17.6996 22.27C17.6509 22.27 17.6021 22.2747 17.5543 22.2841C17.3603 22.3219 17.1895 22.4356 17.0798 22.5996L14.8519 25.9222C14.6229 26.2636 14.7141 26.726 15.0556 26.9549C15.397 27.1839 15.8593 27.093 16.0883 26.7516H16.0886L18.3169 23.4296V23.4293C18.4696 23.2009 18.4843 22.9073 18.3553 22.6649C18.2263 22.4225 17.9742 22.2706 17.6996 22.27L17.6996 22.27Z" fill="#DF2F44"/>
</svg>
