<svg width="47" height="51" viewBox="0 0 47 51" fill="none" xmlns="http://www.w3.org/2000/svg">
<ellipse cx="23.5" cy="20.9568" rx="21.5" ry="20.8891" fill="#DF2F44"/>
<path d="M20.4543 27.8988C22.6189 27.8988 24.6542 27.0553 26.1853 25.5247C27.716 23.994 28.559 21.9588 28.559 19.7937C28.559 17.6291 27.7155 15.5938 26.1853 14.0632C24.6541 12.532 22.6194 11.6891 20.4543 11.6891C18.2893 11.6891 16.2545 12.5325 14.7234 14.0632C13.1927 15.5938 12.3497 17.6291 12.3497 19.7937C12.3497 21.9588 13.1932 23.9941 14.7234 25.5247C16.2546 27.0553 18.2898 27.8988 20.4543 27.8988ZM20.4543 13.5584C22.1196 13.5584 23.6853 14.207 24.8632 15.3849C26.0408 16.5625 26.6894 18.1283 26.6894 19.7935C26.6894 21.4592 26.0408 23.0247 24.8632 24.2024C23.6853 25.38 22.1196 26.0289 20.4543 26.0289C18.7891 26.0289 17.2234 25.3802 16.0455 24.2024C14.8679 23.0247 14.2193 21.459 14.2193 19.7935C14.2193 18.1283 14.8679 16.5625 16.0455 15.3849C17.2234 14.207 18.7891 13.5584 20.4543 13.5584Z" fill="#FAD7B1"/>
<path d="M33.6036 33.8772C33.8428 33.8772 34.082 33.7859 34.2646 33.6034C34.6297 33.2386 34.6297 32.6469 34.2646 32.2813L26.1853 24.2026C25.8202 23.8376 25.2288 23.8376 24.8632 24.2026C24.4981 24.5675 24.4981 25.1592 24.8632 25.5248L32.9425 33.6041C33.125 33.7863 33.3645 33.8776 33.6037 33.8776L33.6036 33.8772Z" fill="#FAD7B1"/>
</svg>
