<svg width="369" height="50" viewBox="0 0 369 50" fill="none" xmlns="http://www.w3.org/2000/svg">
<path d="M0 0H369L361.222 25.5L369 50H0L9.64503 25.5L0 0Z" fill="#DF2F44"/>
<path d="M87.218 35H92.834V29.6H94.73C98.834 29.6 101.498 27.296 101.498 23.792C101.498 20.264 98.834 17.96 94.73 17.96H87.218V21.32H88.994V31.64H87.218V35ZM92.858 26.24V21.32H94.754C96.386 21.32 97.418 22.28 97.418 23.792C97.418 25.28 96.386 26.24 94.754 26.24H92.858ZM103.08 35H108.096V28.016C108.096 26.36 108.936 25.136 110.376 25.136C110.76 25.136 111.36 25.232 111.888 25.352V21.992C111.552 21.92 111.24 21.896 110.952 21.896C109.416 21.896 108.48 22.808 107.904 23.864V21.992H103.08V24.944H104.712V31.64H103.08V35ZM119.907 35.552C124.155 35.552 127.011 32.72 127.011 28.472C127.011 24.248 124.155 21.416 119.907 21.416C115.683 21.416 112.827 24.248 112.827 28.472C112.827 32.72 115.683 35.552 119.907 35.552ZM119.931 32.336C117.771 32.336 116.307 30.8 116.307 28.472C116.307 26.192 117.771 24.656 119.931 24.656C122.091 24.656 123.531 26.192 123.531 28.472C123.531 30.8 122.091 32.336 119.931 32.336ZM128.251 35H131.323L134.683 30.464L138.091 35H141.283V31.64H139.651L136.915 28.04L139.411 24.944H141.019V21.992H137.563L134.947 25.544L132.187 21.992H128.467V24.944H130.099L132.571 27.944L129.883 31.64H128.251V35ZM144.819 20.864H148.203V17.48H144.819V20.864ZM144.843 35H149.859V31.64H148.227V21.992H143.211V24.944H144.843V35ZM151.748 35H156.764V27.896C156.764 25.712 157.868 24.536 159.428 24.536C160.94 24.536 161.636 25.616 161.636 27.464V35H165.02V27.896C165.02 25.712 166.124 24.536 167.684 24.536C169.196 24.536 169.868 25.616 169.868 27.464V35H174.884V31.64H173.276V26.936C173.276 23.504 171.668 21.416 169.028 21.416C166.748 21.416 165.428 22.472 164.564 24.248C163.94 22.424 162.596 21.416 160.772 21.416C159.116 21.416 157.58 22.232 156.764 23.672V21.992H151.748V24.944H153.38V31.64H151.748V35ZM182.505 35.552C184.593 35.552 185.937 34.64 186.849 33.296V35H191.865V31.64H190.233V24.944H191.865V21.992H186.849V23.696C185.913 22.376 184.521 21.416 182.433 21.416C178.809 21.416 176.049 24.224 176.049 28.472C176.049 32.72 178.857 35.552 182.505 35.552ZM183.201 32.336C180.993 32.336 179.529 30.8 179.529 28.472C179.529 26.192 180.993 24.656 183.201 24.656C185.385 24.656 186.849 26.192 186.849 28.472C186.849 30.8 185.385 32.336 183.201 32.336ZM193.894 35H198.91V27.896C198.91 25.712 200.014 24.536 201.574 24.536C203.086 24.536 203.782 25.616 203.782 27.464V35H207.166V27.896C207.166 25.712 208.27 24.536 209.83 24.536C211.342 24.536 212.014 25.616 212.014 27.464V35H217.03V31.64H215.422V26.936C215.422 23.504 213.814 21.416 211.174 21.416C208.894 21.416 207.574 22.472 206.71 24.248C206.086 22.424 204.742 21.416 202.918 21.416C201.262 21.416 199.726 22.232 198.91 23.672V21.992H193.894V24.944H195.526V31.64H193.894V35ZM225.011 35.552C228.275 35.552 230.915 33.8 231.755 30.992H228.083C227.483 31.952 226.379 32.528 225.083 32.528C223.331 32.528 221.915 31.376 221.771 29.6H231.995C232.067 28.952 232.067 28.664 232.067 28.136C232.067 24.272 229.355 21.416 225.179 21.416C220.979 21.416 218.195 24.248 218.195 28.496C218.195 32.72 220.955 35.552 225.011 35.552ZM221.795 27.224C222.035 25.664 223.331 24.464 225.203 24.464C227.027 24.464 228.371 25.568 228.587 27.224H221.795ZM233.462 35H238.478V27.824C238.478 25.808 239.726 24.536 241.406 24.536C243.062 24.536 243.806 25.736 243.806 27.464V35H248.822V31.64H247.214V26.936C247.214 23.624 245.534 21.416 242.75 21.416C240.95 21.416 239.318 22.352 238.478 23.696V21.992H233.462V24.944H235.094V31.64H233.462V35ZM251.712 35H256.728V31.64H255.096V24.944H256.728V21.992H255.096V17.96H251.712V21.992H250.08V24.944H251.712V35ZM265.332 35.552C268.596 35.552 271.236 33.8 272.076 30.992H268.404C267.804 31.952 266.7 32.528 265.404 32.528C263.652 32.528 262.236 31.376 262.092 29.6H272.316C272.388 28.952 272.388 28.664 272.388 28.136C272.388 24.272 269.676 21.416 265.5 21.416C261.3 21.416 258.516 24.248 258.516 28.496C258.516 32.72 261.276 35.552 265.332 35.552ZM262.116 27.224C262.356 25.664 263.652 24.464 265.524 24.464C267.348 24.464 268.692 25.568 268.908 27.224H262.116Z" fill="#FAD7B1"/>
</svg>
