<svg width="28" height="24" viewBox="0 0 28 24" fill="none" xmlns="http://www.w3.org/2000/svg">
<g opacity="0.8">
<path d="M10.3514 12.2958C10.5942 12.2964 10.8274 12.2007 10.9993 12.0295C11.1714 11.8583 11.2682 11.6258 11.2684 11.383C11.2687 11.1403 11.1725 10.9075 11.0008 10.7359C10.8292 10.5642 10.5964 10.4678 10.3537 10.4683C10.1109 10.4685 9.8782 10.5653 9.7072 10.7374C9.53598 10.9093 9.44004 11.1425 9.44092 11.385C9.44092 11.6267 9.53686 11.8583 9.70764 12.0291C9.87843 12.1999 10.1101 12.2958 10.3514 12.2958L10.3514 12.2958Z" fill="#4A4A4A"/>
<path d="M17.2216 12.2958C17.4643 12.2964 17.6975 12.2007 17.8694 12.0295C18.0415 11.8583 18.1383 11.6258 18.1386 11.383C18.1388 11.1403 18.0426 10.9075 17.871 10.7359C17.6993 10.5642 17.4665 10.4678 17.2238 10.4683C16.9811 10.4685 16.7485 10.5653 16.5773 10.7374C16.4061 10.9093 16.3102 11.1425 16.311 11.385C16.3119 11.6264 16.4081 11.8574 16.5786 12.028C16.7492 12.1988 16.9804 12.2949 17.2216 12.2958L17.2216 12.2958Z" fill="#4A4A4A"/>
<path d="M17.9544 16.3198C17.836 16.2907 17.711 16.3102 17.6073 16.374C17.5027 16.4364 17.428 16.5387 17.4003 16.6573C17.3225 16.9705 17.1593 17.2558 16.929 17.4819C16.7109 17.6656 16.4431 17.7802 16.1597 17.8113C15.8764 17.8426 15.5901 17.7889 15.3371 17.6569C15.0426 17.5192 14.795 17.2978 14.6252 17.0205C14.4555 16.7433 14.3709 16.422 14.3822 16.0971C14.7007 15.9156 15.366 15.4795 15.3978 14.9127C15.4146 14.6111 15.2607 14.3258 14.9998 14.1741C14.6336 13.95 14.2094 13.8392 13.7804 13.8556C13.0322 13.8556 12.2203 14.1325 12.0899 14.7471C11.9817 15.2501 12.3511 15.7022 13.201 16.0938C13.2132 16.4191 13.1288 16.7405 12.9589 17.0181C12.789 17.2957 12.5409 17.5169 12.2458 17.6539C11.9931 17.7859 11.7068 17.8394 11.4232 17.8083C11.1398 17.7772 10.872 17.6624 10.6539 17.4789C10.4181 17.256 10.2493 16.9713 10.1669 16.6575C10.1071 16.4112 9.85907 16.2602 9.61278 16.3199C9.36672 16.3797 9.2157 16.6277 9.27544 16.874C9.39115 17.359 9.64298 17.8008 10.0012 18.1474C10.4163 18.5345 10.9653 18.7455 11.5327 18.7363C11.9067 18.7337 12.2756 18.6511 12.6152 18.4945C13.1088 18.2693 13.5164 17.8909 13.7773 17.4152C14.0418 17.8876 14.45 18.2633 14.9426 18.4881C15.283 18.6451 15.6532 18.7277 16.0281 18.7301C16.5946 18.7395 17.1427 18.5283 17.5565 18.141C17.9147 17.7943 18.1665 17.3526 18.2823 16.8676C18.3371 16.6266 18.1925 16.3854 17.9545 16.3199L17.9544 16.3198Z" fill="#4A4A4A"/>
<path d="M27.5853 14.5182L25.4044 14.3048V14.305C25.3345 13.7414 25.2281 13.1831 25.086 12.6334L27.614 12.1655C27.8618 12.1197 28.0259 11.8817 27.9802 11.6338C27.9344 11.3858 27.6963 11.2219 27.4485 11.2676L24.8122 11.7515C24.5765 10.9907 24.3123 10.2773 24.0831 9.66616C24.0418 8.84156 23.7329 2.88132 23.6916 1.84659C23.6976 1.36712 23.5146 0.904537 23.1821 0.558757C22.8496 0.213199 22.3944 0.0124338 21.9151 0C21.4381 0.00755065 20.9824 0.197877 20.6415 0.531667C19.938 1.18747 16.8623 4.55271 16.0729 5.42194H11.8957C11.1222 4.55271 8.0306 1.18752 7.32704 0.531667C6.98637 0.197877 6.53042 0.00755008 6.05365 0C5.57417 0.0124366 5.11893 0.213199 4.78645 0.558757C4.45399 0.904537 4.271 1.36715 4.277 1.84659C4.23569 2.88126 3.92677 8.85088 3.88547 9.66616C3.65295 10.2776 3.38867 10.9907 3.16281 11.7515L0.539326 11.2676C0.291259 11.2219 0.0531874 11.3858 0.00765945 11.6338C-0.0380896 11.8817 0.125806 12.1197 0.373651 12.1655L2.90162 12.6334C2.75949 13.1831 2.65311 13.7414 2.58315 14.305L0.402328 14.5184V14.5182C0.164477 14.5462 -0.0109655 14.7536 0.000803098 14.9928C0.0125734 15.232 0.207561 15.4212 0.446969 15.4256H0.491607L2.50369 15.2315V15.2313C2.46505 15.9269 2.52945 16.6242 2.69468 17.3009C2.79307 17.6693 2.93409 18.0251 3.11508 18.3611L3.21058 18.549V18.5487C3.46731 19.0446 3.81129 19.4899 4.22615 19.8637L4.24525 19.8828L5.15887 20.5737H5.17797C6.57599 21.5111 8.11835 22.2124 9.74356 22.6495C11.1251 23.0386 12.5522 23.242 13.9875 23.2545C15.4266 23.2462 16.8581 23.0461 18.2442 22.659C19.8503 22.2264 21.3757 21.5373 22.762 20.6183L22.8766 20.5355L23.7425 19.8797L23.7616 19.8606H23.7618C24.1764 19.4868 24.5204 19.0413 24.7773 18.5456L24.8728 18.3577C25.0532 18.0217 25.1942 17.6659 25.293 17.2975C25.4582 16.6209 25.5224 15.9237 25.484 15.2282L27.4961 15.4223H27.5407V15.4225C27.7801 15.4179 27.9753 15.2286 27.9871 14.9895C27.9989 14.7503 27.8232 14.5428 27.5854 14.5151L27.5853 14.5182ZM22.6091 19.243C19.1068 21.8409 15.1238 22.0415 13.9873 22.0415C12.8508 22.0415 8.8646 21.8409 5.36558 19.243C3.97757 18.2114 3.6049 16.6959 3.70041 15.104L4.75441 15.0052C5.00492 14.9808 5.18814 14.7576 5.16348 14.5071C5.13883 14.2566 4.91564 14.0733 4.66513 14.098L3.79926 14.1744C3.8721 13.7262 3.9676 13.2821 4.08575 12.8435L4.59831 12.9358H4.68115C4.91922 12.9396 5.11999 12.7593 5.14175 12.5221C5.16351 12.2849 4.99873 12.0713 4.76399 12.0318L4.34381 11.9554C4.56989 11.2454 4.82129 10.5769 5.03782 9.99728C5.05692 9.93842 5.06869 9.87757 5.07268 9.81584C5.07268 9.74588 5.42601 3.00257 5.47065 1.88825C5.48975 1.43943 5.77002 1.20693 6.03741 1.20693C6.20753 1.21559 6.36787 1.28843 6.48624 1.4108C7.24397 2.11771 11.1282 6.38697 11.1664 6.42853V6.42831C11.2821 6.554 11.4446 6.62552 11.6154 6.62574H16.3464C16.517 6.62552 16.6798 6.55401 16.7953 6.42831C16.8335 6.387 20.7177 2.11748 21.4754 1.41057V1.4108C21.5938 1.28843 21.7543 1.21559 21.9245 1.20693C22.1918 1.20693 22.4721 1.43944 22.4912 1.88825C22.5359 3.00269 22.8828 9.74591 22.8892 9.81584H22.889C22.893 9.87757 22.9047 9.93842 22.9241 9.99728C23.1406 10.5767 23.392 11.2454 23.6181 11.9554L23.2201 12.0508C22.9854 12.0904 22.8206 12.304 22.8423 12.5412C22.8641 12.7784 23.0649 12.9587 23.3029 12.9549H23.3858L23.8983 12.8626C24.0125 13.295 24.1049 13.7327 24.1753 14.1744L23.3156 14.0884C23.0624 14.062 22.8359 14.2459 22.8095 14.4991C22.783 14.7522 22.9669 14.979 23.2201 15.0052L24.2739 15.1071C24.3696 16.699 23.9969 18.2114 22.6089 19.243L22.6091 19.243Z" fill="#4A4A4A"/>
</g>
</svg>
