<svg width="13" height="14" viewBox="0 0 13 14" fill="none" xmlns="http://www.w3.org/2000/svg">
<path fill-rule="evenodd" clip-rule="evenodd" d="M4 1.5H0.5C0.223994 1.5 0 1.72399 0 2C0 2.27601 0.223994 2.5 0.5 2.5H1.02154L1.45903 12.5649C1.49396 13.3674 2.15446 13.9999 2.95746 13.9999H10.0426C10.8456 13.9999 11.5061 13.3674 11.541 12.5649L11.9785 2.5H12.5001C12.7761 2.5 13.0001 2.27601 13.0001 2C13.0001 1.72399 12.7761 1.5 12.5001 1.5H9.00006V1C9.00006 0.447543 8.55252 0 8.00006 0H5.00006C4.4476 0 4.00006 0.447543 4.00006 1L4 1.5ZM4.5 5V10.5C4.5 10.776 4.72399 11 5 11C5.27601 11 5.5 10.776 5.5 10.5V5C5.5 4.72399 5.27601 4.5 5 4.5C4.72399 4.5 4.5 4.72399 4.5 5ZM7.5 5V10.5C7.5 10.776 7.724 11 8 11C8.27601 11 8.5 10.776 8.5 10.5V5C8.5 4.72399 8.27601 4.5 8 4.5C7.724 4.5 7.5 4.72399 7.5 5ZM8 1.5H5V1H8V1.5Z" fill="#7AC5BE"/>
</svg>
