<svg width="30" height="28" viewBox="0 0 30 28" fill="none" xmlns="http://www.w3.org/2000/svg">
<g clip-path="url(#clip0_2669_7361)">
<path d="M26.9213 8.297C26.9404 8.54572 26.9404 8.79449 26.9404 9.04321C26.9404 16.6295 20.7539 25.3706 9.44675 25.3706C5.96323 25.3706 2.72722 24.4289 0.00512695 22.7945C0.500068 22.8478 0.975908 22.8655 1.48989 22.8655C4.36421 22.8655 7.01019 21.9595 9.12314 20.4138C6.42009 20.3605 4.15485 18.7082 3.37439 16.4341C3.75513 16.4873 4.13581 16.5229 4.5356 16.5229C5.08761 16.5229 5.63968 16.4518 6.1536 16.3275C3.33636 15.7944 1.22335 13.4848 1.22335 10.6955V10.6244C2.04185 11.0508 2.9937 11.3173 4.00251 11.3528C2.34642 10.3224 1.26144 8.56349 1.26144 6.57363C1.26144 5.50766 1.56595 4.53051 2.09897 3.67771C5.12564 7.15994 9.67515 9.43401 14.7766 9.68278C14.6815 9.25638 14.6243 8.81227 14.6243 8.36809C14.6243 5.20563 17.3655 2.62952 20.7728 2.62952C22.5431 2.62952 24.1421 3.32241 25.2652 4.4417C26.6547 4.19298 27.9872 3.71326 29.1675 3.05592C28.7106 4.38843 27.7398 5.50772 26.4644 6.21833C27.7018 6.09402 28.901 5.77416 30.005 5.33004C29.1676 6.46705 28.1206 7.4797 26.9213 8.297V8.297Z" fill="#4A4A4A"/>
</g>
<defs>
<clipPath id="clip0_2669_7361">
<rect width="30" height="28" fill="white"/>
</clipPath>
</defs>
</svg>
