<svg width="30" height="28" viewBox="0 0 30 28" fill="none" xmlns="http://www.w3.org/2000/svg">
<g clip-path="url(#clip0_413_1486)">
<path d="M26.9213 8.297C26.9404 8.54572 26.9404 8.79449 26.9404 9.04321C26.9404 16.6295 20.7538 25.3706 9.44672 25.3706C5.9632 25.3706 2.72719 24.4289 0.00509644 22.7945C0.500038 22.8478 0.975878 22.8655 1.48986 22.8655C4.36418 22.8655 7.01016 21.9595 9.12311 20.4138C6.42006 20.3605 4.15482 18.7082 3.37435 16.4341C3.7551 16.4873 4.13578 16.5229 4.53557 16.5229C5.08758 16.5229 5.63965 16.4518 6.15357 16.3275C3.33633 15.7944 1.22332 13.4848 1.22332 10.6955V10.6244C2.04182 11.0508 2.99367 11.3173 4.00248 11.3528C2.34639 10.3224 1.26141 8.56349 1.26141 6.57363C1.26141 5.50766 1.56592 4.53051 2.09894 3.67771C5.1256 7.15994 9.67512 9.43401 14.7766 9.68278C14.6814 9.25638 14.6243 8.81227 14.6243 8.36809C14.6243 5.20563 17.3654 2.62952 20.7728 2.62952C22.5431 2.62952 24.142 3.32241 25.2652 4.4417C26.6547 4.19298 27.9872 3.71326 29.1674 3.05592C28.7105 4.38843 27.7397 5.50772 26.4644 6.21833C27.7017 6.09402 28.901 5.77416 30.005 5.33004C29.1676 6.46705 28.1205 7.4797 26.9213 8.297Z" fill="#DF2F44"/>
</g>
<defs>
<clipPath id="clip0_413_1486">
<rect width="30" height="28" fill="white"/>
</clipPath>
</defs>
</svg>
