<svg width="24" height="22" viewBox="0 0 24 22" fill="none" xmlns="http://www.w3.org/2000/svg">
<g clip-path="url(#clip0_471_1506)">
<path d="M21.537 6.51906C21.5523 6.71449 21.5523 6.90995 21.5523 7.10537C21.5523 13.066 16.6031 19.934 7.55737 19.934C4.77056 19.934 2.18175 19.1942 0.0040741 17.9099C0.400027 17.9518 0.780699 17.9658 1.19189 17.9658C3.49134 17.9658 5.60812 17.2539 7.29848 16.0394C5.13604 15.9975 3.32386 14.6993 2.69948 12.9125C3.00407 12.9543 3.30862 12.9823 3.62845 12.9823C4.07006 12.9823 4.51172 12.9264 4.92286 12.8287C2.66906 12.4099 0.978652 10.5952 0.978652 8.40359V8.34777C1.63345 8.6828 2.39493 8.89218 3.20198 8.92007C1.87711 8.11041 1.00912 6.72845 1.00912 5.16499C1.00912 4.32744 1.25273 3.55968 1.67915 2.88962C4.10048 5.62566 7.74009 7.41243 11.8213 7.60789C11.7451 7.27286 11.6994 6.92392 11.6994 6.57492C11.6994 4.09013 13.8923 2.06604 16.6182 2.06604C18.0345 2.06604 19.3136 2.61045 20.2121 3.4899C21.3238 3.29447 22.3897 2.91755 23.334 2.40107C22.9684 3.44804 22.1918 4.32749 21.1715 4.88582C22.1614 4.78815 23.1208 4.53683 24.004 4.18788C23.334 5.08124 22.4964 5.8769 21.537 6.51906Z" fill="#FAD7B1"/>
</g>
<defs>
<clipPath id="clip0_471_1506">
<rect width="24" height="22" fill="white"/>
</clipPath>
</defs>
</svg>
