<svg width="18" height="26" viewBox="0 0 18 26" fill="none" xmlns="http://www.w3.org/2000/svg">
<path fill-rule="evenodd" clip-rule="evenodd" d="M4.50007 0.79998C3.78347 0.79998 3.16998 1.03241 2.91983 1.56899C2.66971 2.1056 2.89994 2.72917 3.3873 3.25832C4.01792 3.94257 4.65697 4.62539 5.12405 5.23328C5.59112 5.84116 5.85006 6.38739 5.85006 6.64998C5.85006 8.35576 5.45269 10.0382 4.68989 11.564L3.95523 13.0336C3.12995 14.6841 2.70027 16.5046 2.70027 18.3497V19.9607C1.82681 20.1278 0.991658 20.7181 0.481023 21.6024C-0.365954 23.0693 -0.0840741 24.9133 1.24484 25.6805C2.10467 26.1769 3.13443 26.0654 3.98444 25.5292C4.39205 25.8239 4.87318 25.9995 5.40032 25.9995H13.9503C15.6846 25.9995 17.1003 24.5838 17.1003 22.8495V18.3495C17.1003 17.3824 16.979 16.423 16.748 15.4904C17.5264 14.555 18.0003 13.3583 18.0003 12.0495C18.0003 9.54135 16.2779 7.43201 13.9556 6.82849C13.9546 6.76863 13.9504 4.39932 13.9504 4.39932C13.9504 3.01738 12.7245 1.98721 11.3392 1.70816C9.44234 1.32606 6.56697 0.799316 4.50072 0.799316L4.50007 0.79998ZM4.50007 1.69998C6.40998 1.69998 9.28211 2.21266 11.1616 2.59113C12.2272 2.80569 13.0504 3.57532 13.0504 4.39998V6.64998C13.0504 8.15365 13.3403 9.63927 13.8924 11.0312C13.133 10.8454 12.3845 10.884 11.659 11.0752C10.8555 11.298 10.3044 11.6006 9.90121 11.6C9.08035 11.5989 8.60726 11.3022 7.89287 11.0779C7.36953 10.9135 6.73912 10.8105 5.91004 11.0268C6.46109 9.63604 6.75038 8.15207 6.75038 6.64979C6.75038 5.96697 6.34739 5.34762 5.83814 4.68445C5.32888 4.02148 4.67637 3.32822 4.04961 2.64798C3.69544 2.26367 3.69544 2.03608 3.73581 1.94927C3.77619 1.86248 3.97447 1.69956 4.5004 1.69956L4.50007 1.69998ZM14.0113 7.77884C15.8068 8.36944 17.0998 10.0535 17.0998 12.0504C17.0998 12.9195 16.8505 13.7265 16.4256 14.413C16.2607 13.9429 16.0687 13.4819 15.8446 13.0341L15.11 11.5645C14.5161 10.3771 14.1473 9.09376 14.0113 7.77915L14.0113 7.77884ZM7.62333 11.9369C8.20874 12.1208 8.86045 12.4991 9.89884 12.5002C10.6528 12.5012 11.2267 12.1284 11.8983 11.9421C12.5388 11.7645 13.2909 11.7206 14.3944 12.146L15.0395 13.4364C15.8023 14.962 16.1997 16.6447 16.1997 18.3504V21.0504C16.1997 22.2984 15.1976 23.3004 13.9497 23.3004H8.06932C8.0876 23.1526 8.10006 23.0031 8.10006 22.8504C8.10006 21.1565 6.93448 19.7004 5.40006 19.7004C4.92534 19.7004 4.4872 19.8421 4.10709 20.0853C3.94176 20.0174 3.7722 19.9692 3.60004 19.9403V18.3504C3.60004 16.6447 3.9974 14.9622 4.76021 13.4364L5.40708 12.1426C6.22994 11.7845 6.89954 11.7174 7.62375 11.9369L7.62333 11.9369ZM5.39966 20.6001C6.35047 20.6001 7.19966 21.5615 7.19966 22.8501C7.19966 24.0514 6.45997 24.9576 5.58949 25.0764C5.30261 25.042 5.03359 24.9572 4.79152 24.8251C4.92612 24.6647 5.04886 24.4906 5.15715 24.303C5.86629 23.0747 5.78133 21.5845 4.95585 20.681C5.09989 20.6338 5.24715 20.6001 5.39962 20.6001L5.39966 20.6001ZM3.94418 21.0045C4.76766 21.4798 5.02259 22.7372 4.37831 23.853C3.73406 24.9689 2.51763 25.3769 1.6942 24.9014C0.870729 24.4261 0.615797 23.1688 1.26007 22.053C1.97987 20.9275 3.0627 20.5127 3.94418 21.0045ZM16.1554 23.2931C15.9513 24.327 15.0457 25.1001 13.9494 25.1001H7.28781C7.51381 24.8405 7.69884 24.5356 7.83542 24.2001H13.9493C14.8071 24.2001 15.5861 23.853 16.1553 23.2931H16.1554Z" fill="#DF2F44"/>
</svg>
