<svg width="36" height="36" viewBox="0 0 36 36" fill="none" xmlns="http://www.w3.org/2000/svg">
<path fill-rule="evenodd" clip-rule="evenodd" d="M13.5001 1.79998C12.7835 1.79998 12.17 2.03241 11.9198 2.56899C11.6697 3.1056 11.8999 3.72917 12.3873 4.25832C13.0179 4.94257 13.657 5.62539 14.124 6.23328C14.5911 6.84116 14.8501 7.38739 14.8501 7.64998C14.8501 9.35576 14.4527 11.0382 13.6899 12.564L12.9552 14.0336C12.13 15.6841 11.7003 17.5046 11.7003 19.3497V20.9607C10.8268 21.1278 9.99166 21.7181 9.48102 22.6024C8.63405 24.0693 8.91593 25.9133 10.2448 26.6805C11.1047 27.1769 12.1344 27.0654 12.9844 26.5292C13.3921 26.8239 13.8732 26.9995 14.4003 26.9995H22.9503C24.6846 26.9995 26.1003 25.5838 26.1003 23.8495V19.3495C26.1003 18.3824 25.979 17.423 25.748 16.4904C26.5264 15.555 27.0003 14.3583 27.0003 13.0495C27.0003 10.5414 25.2779 8.43201 22.9556 7.82849C22.9546 7.76863 22.9504 5.39932 22.9504 5.39932C22.9504 4.01738 21.7245 2.98721 20.3392 2.70816C18.4423 2.32606 15.567 1.79932 13.5007 1.79932L13.5001 1.79998ZM13.5001 2.69998C15.41 2.69998 18.2821 3.21266 20.1616 3.59113C21.2272 3.80569 22.0504 4.57532 22.0504 5.39998V7.64998C22.0504 9.15365 22.3403 10.6393 22.8924 12.0312C22.133 11.8454 21.3845 11.884 20.659 12.0752C19.8555 12.298 19.3044 12.6006 18.9012 12.6C18.0804 12.5989 17.6073 12.3022 16.8929 12.0779C16.3695 11.9135 15.7391 11.8105 14.91 12.0268C15.4611 10.636 15.7504 9.15207 15.7504 7.64979C15.7504 6.96697 15.3474 6.34762 14.8381 5.68445C14.3289 5.02148 13.6764 4.32822 13.0496 3.64798C12.6954 3.26367 12.6954 3.03608 12.7358 2.94927C12.7762 2.86248 12.9745 2.69956 13.5004 2.69956L13.5001 2.69998ZM23.0113 8.77884C24.8068 9.36944 26.0998 11.0535 26.0998 13.0504C26.0998 13.9195 25.8505 14.7265 25.4256 15.413C25.2607 14.9429 25.0687 14.4819 24.8446 14.0341L24.11 12.5645C23.5161 11.3771 23.1473 10.0938 23.0113 8.77915L23.0113 8.77884ZM16.6233 12.9369C17.2087 13.1208 17.8604 13.4991 18.8988 13.5002C19.6528 13.5012 20.2267 13.1284 20.8983 12.9421C21.5388 12.7645 22.2909 12.7206 23.3944 13.146L24.0395 14.4364C24.8023 15.962 25.1997 17.6447 25.1997 19.3504V22.0504C25.1997 23.2984 24.1976 24.3004 22.9497 24.3004H17.0693C17.0876 24.1526 17.1001 24.0031 17.1001 23.8504C17.1001 22.1565 15.9345 20.7004 14.4001 20.7004C13.9253 20.7004 13.4872 20.8421 13.1071 21.0853C12.9418 21.0174 12.7722 20.9692 12.6 20.9403V19.3504C12.6 17.6447 12.9974 15.9622 13.7602 14.4364L14.4071 13.1426C15.2299 12.7845 15.8995 12.7174 16.6238 12.9369L16.6233 12.9369ZM14.3997 21.6001C15.3505 21.6001 16.1997 22.5615 16.1997 23.8501C16.1997 25.0514 15.46 25.9576 14.5895 26.0764C14.3026 26.042 14.0336 25.9572 13.7915 25.8251C13.9261 25.6647 14.0489 25.4906 14.1571 25.303C14.8663 24.0747 14.7813 22.5845 13.9558 21.681C14.0999 21.6338 14.2471 21.6001 14.3996 21.6001L14.3997 21.6001ZM12.9442 22.0045C13.7677 22.4798 14.0226 23.7372 13.3783 24.853C12.7341 25.9689 11.5176 26.3769 10.6942 25.9014C9.87073 25.4261 9.6158 24.1688 10.2601 23.053C10.9799 21.9275 12.0627 21.5127 12.9442 22.0045ZM25.1554 24.2931C24.9513 25.327 24.0457 26.1001 22.9494 26.1001H16.2878C16.5138 25.8405 16.6988 25.5356 16.8354 25.2001H22.9493C23.8071 25.2001 24.5861 24.853 25.1553 24.2931H25.1554Z" fill="#FAD7B1"/>
</svg>
