<svg width="26" height="27" viewBox="0 0 26 27" fill="none" xmlns="http://www.w3.org/2000/svg">
<path d="M23.3985 16.4147C23.961 16.1162 24.4158 15.741 24.7475 15.2798C25.5838 14.1162 25.3296 12.8812 25.3191 12.8292C25.2656 12.5814 25.051 12.4046 24.789 12.413C22.2715 12.4793 21.1472 13.7421 20.6417 14.8686C20.5761 14.2532 20.5692 13.5746 20.7023 12.9306C20.7615 12.6447 20.5778 12.3653 20.2918 12.3069C20.0131 12.2485 19.7273 12.4309 19.6681 12.7174C19.4641 13.7064 19.5323 14.7365 19.6703 15.575C18.8461 15.682 18.0785 15.9686 17.4062 16.3951V7.04192C17.4062 6.71315 17.4062 5.73814 13.9314 5.12283V3.86839C14.1821 3.82763 14.3778 3.61918 14.3778 3.3567V1.00886C14.3778 0.717407 14.1413 0.480957 13.8499 0.480957H3.56584C3.27439 0.480957 3.03794 0.717407 3.03794 1.00886V3.3567C3.03794 3.61868 3.23289 3.8269 3.48358 3.8679V5.12234C0.00927806 5.73766 0.00927734 6.71194 0.00927734 7.04143V22.019C0.00927734 24.1852 4.38546 25.3188 8.70745 25.3188C11.5144 25.3188 14.0432 24.855 15.6444 24.07C16.6334 25.6576 18.39 26.7198 20.3942 26.7198C23.4813 26.7198 25.9924 24.2087 25.9924 21.1209C25.9919 19.1993 24.9788 17.4315 23.3986 16.4149L23.3985 16.4147ZM24.3045 13.5037C24.2841 13.8185 24.1891 14.2541 23.8793 14.6779C23.4005 15.3325 22.5522 15.7754 21.352 15.9986C21.5251 15.1539 22.1411 13.7495 24.3046 13.5037L24.3045 13.5037ZM4.09344 1.53632H13.3215V2.82809H4.09344V1.53632ZM15.172 23.1246C13.7302 23.83 11.3233 24.2622 8.70653 24.2622C4.04108 24.2622 1.06498 22.9331 1.06498 22.0185L1.0586 7.07799C1.12612 6.93435 1.8259 6.44722 4.05682 6.09729H9.79939C10.0908 6.09729 10.3273 5.86084 10.3273 5.56939C10.3273 5.27794 10.0908 5.04149 9.79939 5.04149H4.53831V3.88505H12.8751V5.57037C12.8751 5.83089 13.0651 6.05261 13.3222 6.09214C15.584 6.44276 16.2883 6.93411 16.3501 7.04185V9.06164C16.3501 9.97602 13.373 11.3053 8.70732 11.3053C6.50387 11.3053 4.38835 10.9942 2.90285 10.4521C2.74153 10.3929 2.56131 10.4163 2.41914 10.5154C2.27771 10.6146 2.19374 10.776 2.19374 10.9483V18.5415C2.19374 18.7632 2.33247 18.9618 2.54093 19.0377C4.16145 19.6289 6.35089 19.955 8.70734 19.955C11.1362 19.955 13.5817 19.5973 15.2589 18.899C14.9626 19.5811 14.7963 20.3324 14.7963 21.1223C14.7956 21.8275 14.9329 22.5012 15.1723 23.1242L15.172 23.1246ZM8.70653 18.898C6.66907 18.898 4.70699 18.6325 3.24902 18.1638V11.675C4.77381 12.1192 6.67819 12.3608 8.70653 12.3608C11.7408 12.3608 14.7948 11.8005 16.3493 10.7184V16.6545C16.3501 17.5687 13.3722 18.898 8.70653 18.898ZM20.3936 25.6639C17.8888 25.6639 15.8514 23.6257 15.8514 21.121C15.8514 18.7872 17.6212 16.8605 19.8887 16.6083C20.0021 17.0412 20.1028 17.3209 20.1146 17.3538C20.1934 17.5671 20.3947 17.6995 20.6103 17.6995C20.671 17.6995 20.7321 17.6889 20.792 17.6671C21.0292 17.5804 21.1559 17.341 21.123 17.1011C21.4645 17.0525 21.7919 16.9933 22.0946 16.9152C23.7961 17.6045 24.9367 19.2792 24.9367 21.1218C24.9359 23.626 22.8985 25.6639 20.3935 25.6639L20.3936 25.6639Z" fill="#FAD7B1"/>
<path d="M22.4374 18.3482C22.2248 18.5461 22.2128 18.8791 22.4092 19.0929C22.4605 19.1492 23.6624 20.494 22.8281 22.6461C22.7232 22.9179 22.8575 23.2233 23.1293 23.3289C23.1927 23.3534 23.2568 23.3647 23.3201 23.3647C23.532 23.3647 23.7312 23.2366 23.8122 23.0276C24.895 20.2356 23.2497 18.4459 23.1799 18.3705C22.9795 18.1603 22.6493 18.1505 22.4374 18.3482L22.4374 18.3482Z" fill="#FAD7B1"/>
</svg>
